<?xml version="1.0" encoding="utf-8"?>
<!-- Generator: Adobe Illustrator 15.1.0, SVG Export Plug-In . SVG Version: 6.00 Build 0)  -->
<!DOCTYPE svg PUBLIC "-//W3C//DTD SVG 1.1//EN" "http://www.w3.org/Graphics/SVG/1.1/DTD/svg11.dtd">
<svg version="1.1" id="Layer_1" xmlns="http://www.w3.org/2000/svg" xmlns:xlink="http://www.w3.org/1999/xlink" x="0px" y="0px"
	 width="2267.72px" height="1700.79px" viewBox="0 0 2267.72 1700.79" enable-background="new 0 0 2267.72 1700.79"
	 xml:space="preserve">
<g>
	<path fill="none" stroke="#000000" stroke-miterlimit="10" d="M2225.198,1615.748c0,23.482-19.036,42.52-42.52,42.52H85.041
		c-23.483,0-42.52-19.037-42.52-42.52V85.039c0-23.483,19.037-42.52,42.52-42.52h2097.638c23.483,0,42.52,19.037,42.52,42.52
		V1615.748z"/>
	<rect x="42.521" y="1488.188" fill="none" stroke="#000000" stroke-miterlimit="10" width="2182.677" height="85.039"/>
</g>
<text transform="matrix(1 0 0 1 68.3682 1538.377)"><tspan x="0" y="0" fill="none" stroke="#F68827" stroke-miterlimit="10" font-family="'Eng_HelvLine'" font-size="21">Date: 26-03-13</tspan><tspan x="179.632" y="0" fill="none" stroke="#F68827" stroke-miterlimit="10" font-family="'Eng_HelvLine'" font-size="21" letter-spacing="-10">	</tspan><tspan x="180" y="0" fill="none" stroke="#F68827" stroke-miterlimit="10" font-family="'Eng_HelvLine'" font-size="21" letter-spacing="25">	</tspan><tspan x="216" y="0" fill="none" stroke="#F68827" stroke-miterlimit="10" font-family="'Eng_HelvLine'" font-size="21">File Name: DRBO-PENH-01</tspan><tspan x="564.26" y="0" fill="none" stroke="#F68827" stroke-miterlimit="10" font-family="'Eng_HelvLine'" font-size="21" letter-spacing="1">	</tspan><tspan x="576" y="0" fill="none" stroke="#F68827" stroke-miterlimit="10" font-family="'Eng_HelvLine'" font-size="21">Version:0.1</tspan><tspan x="713.758" y="0" fill="none" stroke="#F68827" stroke-miterlimit="10" font-family="'Eng_HelvLine'" font-size="21" letter-spacing="-4">	</tspan><tspan x="720" y="0" fill="none" stroke="#F68827" stroke-miterlimit="10" font-family="'Eng_HelvLine'" font-size="21" letter-spacing="25">	</tspan><tspan x="756" y="0" fill="none" stroke="#F68827" stroke-miterlimit="10" font-family="'Eng_HelvLine'" font-size="21">Contributor: Stuart Childs stuchilds</tspan><tspan x="1214.508" y="0" fill="none" stroke="#F68827" stroke-miterlimit="10" font-family="'MyriadPro-Regular'" font-size="21">@</tspan><tspan x="1229.984" y="0" fill="none" stroke="#F68827" stroke-miterlimit="10" font-family="'Eng_HelvLine'" font-size="21">gmail.com</tspan><tspan x="1359.867" y="0" fill="none" stroke="#F68827" stroke-miterlimit="10" font-family="'Eng_HelvLine'" font-size="21" letter-spacing="-2">	</tspan><tspan x="1367.998" y="0" fill="none" stroke="#F68827" stroke-miterlimit="10" font-family="'Eng_HelvLine'" font-size="21" letter-spacing="25">	</tspan><tspan x="0" y="86.4" fill="none" stroke="#F68827" stroke-miterlimit="10" font-family="'Eng_HelvLine'" font-size="36">License: Creative Commons Attribution Sharealike 3.0 Unported</tspan><tspan x="1401.751" y="86.4" fill="none" stroke="#F68827" stroke-miterlimit="10" font-family="'Eng_HelvLine'" font-size="36" letter-spacing="-15">	</tspan><tspan x="1404" y="86.4" fill="none" stroke="#F68827" stroke-miterlimit="10" font-family="'Eng_HelvLine'" font-size="36" letter-spacing="18">	</tspan></text>
<text transform="matrix(1 0 0 1 68.3677 1031.1162)"><tspan x="0" y="0" fill="none" stroke="#000000" stroke-miterlimit="10" font-family="'Eng_HelvLine'" font-size="12">INFO:</tspan><tspan x="0" y="28.8" fill="none" stroke="#000000" stroke-miterlimit="10" font-family="'Eng_HelvLine'" font-size="12">- DESIGNED TO WORK WITH THE DRBO DRAWING ROBOT AND SIMILAR. SEE HTTP://STUARTCHILDS.COM/DRBO FOR MORE</tspan><tspan x="0" y="43.2" fill="none" stroke="#000000" stroke-miterlimit="10" font-family="'Eng_HelvLine'" font-size="12">- SEE http://www.flickr.com/photos/stuartchilds/sets/72157631436075130/ FOR BUILD NOTES</tspan></text>
<text transform="matrix(1 0 0 1 68.3682 821.459)"><tspan x="0" y="0" fill="none" stroke="#000000" stroke-miterlimit="10" font-family="'Eng_HelvLine'" font-size="12">B.O.M.</tspan><tspan x="0" y="28.8" fill="none" stroke="#000000" stroke-miterlimit="10" font-family="'Eng_HelvLine'" font-size="12">M3 X 10MM SCREW</tspan><tspan x="140.675" y="28.8" fill="none" stroke="#000000" stroke-miterlimit="10" font-family="'Eng_HelvLine'" font-size="12" letter-spacing="-2">	</tspan><tspan x="144" y="28.8" fill="none" stroke="#000000" stroke-miterlimit="10" font-family="'Eng_HelvLine'" font-size="12" letter-spacing="30">		</tspan><tspan x="216" y="28.8" fill="none" stroke="#000000" stroke-miterlimit="10" font-family="'Eng_HelvLine'" font-size="12">X4</tspan><tspan x="0" y="43.2" fill="none" stroke="#000000" stroke-miterlimit="10" font-family="'Eng_HelvLine'" font-size="12">M3 X 40MM SCREW</tspan><tspan x="143.073" y="43.2" fill="none" stroke="#000000" stroke-miterlimit="10" font-family="'Eng_HelvLine'" font-size="12" letter-spacing="-5">	</tspan><tspan x="143.999" y="43.2" fill="none" stroke="#000000" stroke-miterlimit="10" font-family="'Eng_HelvLine'" font-size="12" letter-spacing="30">		</tspan><tspan x="215.999" y="43.2" fill="none" stroke="#000000" stroke-miterlimit="10" font-family="'Eng_HelvLine'" font-size="12">X2</tspan><tspan x="0" y="57.6" fill="none" stroke="#000000" stroke-miterlimit="10" font-family="'Eng_HelvLine'" font-size="12">M6 X 30MM BOLT</tspan><tspan x="129.946" y="57.6" fill="none" stroke="#000000" stroke-miterlimit="10" font-family="'Eng_HelvLine'" font-size="12" letter-spacing="8">	</tspan><tspan x="144" y="57.6" fill="none" stroke="#000000" stroke-miterlimit="10" font-family="'Eng_HelvLine'" font-size="12" letter-spacing="30">		</tspan><tspan x="216" y="57.6" fill="none" stroke="#000000" stroke-miterlimit="10" font-family="'Eng_HelvLine'" font-size="12">X2</tspan><tspan x="0" y="72" fill="none" stroke="#000000" stroke-miterlimit="10" font-family="'Eng_HelvLine'" font-size="12">M3 NUT</tspan><tspan x="56.879" y="72" fill="none" stroke="#000000" stroke-miterlimit="10" font-family="'Eng_HelvLine'" font-size="12" letter-spacing="9">	</tspan><tspan x="72" y="72" fill="none" stroke="#000000" stroke-miterlimit="10" font-family="'Eng_HelvLine'" font-size="12" letter-spacing="30">				</tspan><tspan x="216" y="72" fill="none" stroke="#000000" stroke-miterlimit="10" font-family="'Eng_HelvLine'" font-size="12">X4</tspan><tspan x="0" y="86.4" fill="none" stroke="#000000" stroke-miterlimit="10" font-family="'Eng_HelvLine'" font-size="12">M3 WASHER</tspan><tspan x="90.851" y="86.4" fill="none" stroke="#000000" stroke-miterlimit="10" font-family="'Eng_HelvLine'" font-size="12" letter-spacing="11">	</tspan><tspan x="108" y="86.4" fill="none" stroke="#000000" stroke-miterlimit="10" font-family="'Eng_HelvLine'" font-size="12" letter-spacing="30">			</tspan><tspan x="216" y="86.4" fill="none" stroke="#000000" stroke-miterlimit="10" font-family="'Eng_HelvLine'" font-size="12">X8</tspan><tspan x="0" y="100.8" fill="none" stroke="#000000" stroke-miterlimit="10" font-family="'Eng_HelvLine'" font-size="12">M3 3MM PLASTIC SPACER</tspan><tspan x="194.783" y="100.8" fill="none" stroke="#000000" stroke-miterlimit="10" font-family="'Eng_HelvLine'" font-size="12" letter-spacing="15">	</tspan><tspan x="216.002" y="100.8" fill="none" stroke="#000000" stroke-miterlimit="10" font-family="'Eng_HelvLine'" font-size="12">X4</tspan><tspan x="0" y="129.6" fill="none" stroke="#000000" stroke-miterlimit="10" font-family="'Eng_HelvLine'" font-size="12">SERVO</tspan><tspan x="48.96" y="129.6" fill="none" stroke="#000000" stroke-miterlimit="10" font-family="'Eng_HelvLine'" font-size="12" letter-spacing="17">	</tspan><tspan x="72" y="129.6" fill="none" stroke="#000000" stroke-miterlimit="10" font-family="'Eng_HelvLine'" font-size="12" letter-spacing="29">				</tspan><tspan x="216" y="129.6" fill="none" stroke="#000000" stroke-miterlimit="10" font-family="'Eng_HelvLine'" font-size="12">X1</tspan><tspan x="230.736" y="129.6" fill="none" stroke="#000000" stroke-miterlimit="10" font-family="'Eng_HelvLine'" font-size="12" letter-spacing="15">	</tspan><tspan x="252" y="129.6" fill="none" stroke="#000000" stroke-miterlimit="10" font-family="'Eng_HelvLine'" font-size="12">http://www.oomlout.co.uk/-p-195.html</tspan></text>
<text transform="matrix(1 0 0 1 2046.165 1379.835)"><tspan x="0" y="0" fill="none" stroke="#F68827" stroke-miterlimit="10" font-family="'Eng_HelvLine'" font-size="12">Scale: square below </tspan><tspan x="0" y="14.4" fill="none" stroke="#F68827" stroke-miterlimit="10" font-family="'Eng_HelvLine'" font-size="12">is 20mm x 20mm</tspan></text>
<rect x="2135.826" y="1411" fill="none" stroke="#F68827" stroke-miterlimit="10" width="56.693" height="56.693"/>
<path fill="none" stroke="#000000" stroke-width="0.25" stroke-linecap="round" stroke-linejoin="round" stroke-miterlimit="10" d="
	M172.01,503.06c-0.063,2.657,0.193,5.212-0.236,7.225c-1.858,8.688-6.244,15.567-15.073,22.624c-2.378,1.9-8.896,2.82-10.81,8.445
	c-1.917,5.629,0.321,13.411,7.708,15.26c2.691-0.254,4.543-2.783,4.021-5.432c-0.877-2.305-4.341-3.153-3.934-6.029
	c0.692-1.68,2.08-3.158,3.962-3.418c4.229,0.332,4.34,4.879,3.639,7.947c0.196,1.215,1.765,3.066,3.338,3.43
	c6.931-3.018,6.267-12.785,10.333-19.56c3.33-5.545,7.807-10.405,13.769-13.692c6.477,9.561,49.374,45.812,64.275,46.289
	c16.296,0.521,61.359-35.637,68.403-46.26c11.689-0.537,19.012-12.305,15.985-23.201c-7.345-15.01-31.021-14.135-32.48,5.926
	c-0.22,3.015,2.326,6.864,1.449,10.936c-1.744,8.109-42.09,38.135-53.357,37.793c-9.465-0.286-46.76-29.51-48.677-37.396
	c-1.727-7.098,5.562-22.535-10.699-27.355c-6.254-1.852-16.53,0.798-20.59,10.704c-0.578,1.411-0.84,2.885-0.955,4.347
	 M321.401,498.438c2.347,0.01,4.239,1.916,4.23,4.264c-0.009,2.344-1.915,4.239-4.262,4.23c-2.345-0.01-4.241-1.917-4.231-4.262
	C317.146,500.323,319.055,498.43,321.401,498.438z M188.795,498.163c2.346,0.008,4.24,1.916,4.232,4.263
	c-0.008,2.345-1.917,4.239-4.263,4.231c-2.345-0.01-4.24-1.918-4.231-4.263C184.542,500.047,186.45,498.154,188.795,498.163z"/>
<path fill="none" stroke="#ED6545" stroke-width="0.25" stroke-miterlimit="22.926" d="M177.306,519.879
	c-1.392-0.006-2.539-0.704-2.531-3.104c0.009-2.398,1.162-3.09,2.553-3.084c1.392,0.004,2.528,0.705,2.519,3.103
	C179.839,519.194,178.698,519.885,177.306,519.879z M177.306,519.879c-1.392-0.006-2.539-0.704-2.531-3.104
	c0.009-2.398,1.162-3.09,2.553-3.084c1.392,0.004,2.528,0.705,2.519,3.103C179.839,519.194,178.698,519.885,177.306,519.879
	 M179.504,512.428c-0.129-0.721-1.003-1.131-2.203-1.185c-1.223-0.04-2.508,0.854-2.513,1.972l-0.023,6.559l0.023-6.559
	c0.005-1.117,1.29-2.012,2.513-1.972C178.501,511.297,179.375,511.708,179.504,512.428z"/>
<circle fill="none" stroke="#000000" stroke-width="0.25" stroke-linecap="round" stroke-linejoin="round" stroke-miterlimit="10" cx="356.338" cy="444.777" r="4.247"/>
<path fill="none" stroke="#000000" stroke-width="0.25" stroke-linecap="round" stroke-linejoin="round" stroke-miterlimit="10" d="
	M354.921,428.334c-11.826,0.133-21.081,18.215-4.599,31.34c0.239,0.189,0.483,0.379,0.733,0.566
	c-1.127,3.418-0.629,24.641-0.551,27.008l-0.338,10.4c-0.499,7.029,4.795,13.129,11.821,13.625
	c7.028,0.498,13.129-4.795,13.623-11.824l1.448-12.844l0.576-9.906c0.137-2.344-1.654-4.355-3.998-4.49
	c-2.347-0.139-4.356,1.652-4.492,3.998l-0.577,9.902l-0.576,9.906c-0.136,2.344-2.146,4.133-4.492,3.998
	c-2.344-0.137-4.135-2.148-3.998-4.492l0.742-10.014c-0.077-2.369,0.748-22.883,1.877-26.301
	c6.242-6.783,10.039-11.416,6.896-21.191c-3.366-6.279-8.433-9.135-12.679-9.607"/>
<path fill="none" stroke="#ED6545" stroke-width="0.25" stroke-miterlimit="22.926" d="M347.833,449.829v-10.1V449.829z"/>
<path fill="none" stroke="#9853A0" stroke-width="0.25" stroke-miterlimit="22.926" d="M398.753,368.209
	c2.863-0.332,12.133-0.877,33.189-4.588c2.469-0.436,4.535-2.031,4.535-4.535c0-2.506-2.066-4.105-4.535-4.535
	c-21.348-3.717-29.701-3.799-32.854-4.25c-1.045-0.482-3.377-1.607-6.266-1.607c-4.539,0-8.219,5.947-8.219,10.486
	c0,4.541,3.68,10.49,8.219,10.49C396.146,369.67,397.796,368.598,398.753,368.209z"/>
<path fill="none" stroke="#000000" stroke-width="0.25" stroke-miterlimit="10" d="M417.558,322.375
	c-19.529,0.924-35.789,17.047-35.789,36.805c0,20.352,16.498,36.852,36.85,36.852s36.852-16.5,36.852-36.852
	c0-19.994-16.637-36.258-36.496-36.822"/>
<circle fill="none" stroke="#000000" stroke-width="0.25" stroke-miterlimit="10" cx="429.958" cy="373.352" r="4.252"/>
<circle fill="none" stroke="#000000" stroke-width="0.25" stroke-miterlimit="10" cx="393.827" cy="359.184" r="5.67"/>
<circle fill="none" stroke="#000000" stroke-width="0.25" stroke-miterlimit="10" cx="429.958" cy="345.006" r="4.252"/>
<path fill="none" stroke="#ED6545" stroke-width="0.25" stroke-miterlimit="10" d="M417.222,382.135
	c0-0.553-0.359-1.584-1.883-1.596s-2.207,1.176-2.207,2.279c0-1.104,0.684-2.291,2.207-2.279S417.222,381.583,417.222,382.135v4.557
	V382.135z M413.132,380.54v6.152V380.54z M421.347,382.135c0-0.553-0.527-1.584-2.051-1.596c-1.521-0.012-2.074,1.176-2.074,2.279
	c0-1.104,0.553-2.291,2.074-2.279C420.819,380.551,421.347,381.583,421.347,382.135v4.557V382.135z"/>
<path fill="none" stroke="#000000" stroke-width="0.25" stroke-linecap="round" stroke-linejoin="round" stroke-miterlimit="10" d="
	M409.458,539.776c-9.383,0-16.989-7.605-16.989-16.988s7.605-16.99,16.988-16.99c9.382,0,16.988,7.607,16.988,16.99
	s-6.187,16.988-15.57,16.988"/>
<circle fill="none" stroke="#000000" stroke-width="0.25" stroke-linecap="round" stroke-linejoin="round" stroke-miterlimit="10" cx="409.456" cy="522.786" r="4.247"/>
<path fill="none" stroke="#000000" stroke-width="0.25" stroke-linecap="round" stroke-linejoin="round" stroke-miterlimit="10" d="
	M408.057,494.817c-9.383,0-16.988-7.605-16.988-16.988s7.604-16.988,16.987-16.988s16.988,7.605,16.988,16.988
	s-6.187,16.988-15.57,16.988"/>
<circle fill="none" stroke="#000000" stroke-width="0.25" stroke-linecap="round" stroke-linejoin="round" stroke-miterlimit="10" cx="408.055" cy="477.829" r="4.247"/>
<path fill="none" stroke="#ED6545" stroke-width="0.25" stroke-miterlimit="10" d="M422.54,524.272
	c-0.359,0.514-1.595,1.678-2.578,1.643c-0.996-0.037-1.787-0.348-1.787-1.451c0-1.115,0.672-1.582,1.944-1.703
	c1.257-0.119,1.822-0.312,2.421-0.48c-0.599,0.168-1.164,0.361-2.421,0.48c-1.272,0.121-1.944,0.588-1.944,1.703
	c0,1.104,0.791,1.414,1.787,1.451C420.945,525.95,422.18,524.786,422.54,524.272z M423.391,525.842c0,0-0.852-0.061-0.852-0.779
	v-3.947c0-0.502-0.252-1.461-1.871-1.461s-2.218,0.73-2.218,1.486c0-0.756,0.599-1.486,2.218-1.486s1.871,0.959,1.871,1.461v3.947
	C422.54,525.782,423.391,525.842,423.391,525.842z"/>
<path fill="none" stroke="#ED6545" stroke-width="0.25" stroke-miterlimit="10" d="M421.139,479.137
	c-0.359,0.516-1.595,1.68-2.578,1.643c-0.996-0.035-1.787-0.346-1.787-1.449c0-1.117,0.672-1.584,1.944-1.703
	c1.257-0.121,1.821-0.314,2.421-0.482c-0.6,0.168-1.164,0.361-2.421,0.482c-1.272,0.119-1.944,0.586-1.944,1.703
	c0,1.104,0.791,1.414,1.787,1.449C419.544,480.817,420.78,479.653,421.139,479.137z M421.991,480.709c0,0-0.852-0.061-0.852-0.779
	v-3.947c0-0.504-0.252-1.463-1.871-1.463s-2.218,0.732-2.218,1.488c0-0.756,0.599-1.488,2.218-1.488s1.871,0.959,1.871,1.463v3.947
	C421.139,480.649,421.991,480.709,421.991,480.709z"/>
<path fill="none" stroke="#000000" stroke-width="0.25" stroke-linecap="round" stroke-linejoin="round" stroke-miterlimit="10" d="
	M460.32,244.03c0,6.256-7.605,14.162-16.987,14.162c-9.383,0-19.824-7.906-19.824-14.16c0-6.256,8.481-14.16,19.824-14.16
	c9.382,0,16.987,6.486,16.987,12.742"/>
<circle fill="none" stroke="#000000" stroke-width="0.25" stroke-linecap="round" stroke-linejoin="round" stroke-miterlimit="10" cx="443.333" cy="244.03" r="7.087"/>
<path fill="none" stroke="#ED6545" stroke-width="0.25" stroke-miterlimit="10" d="M431.992,239.717v8.646V239.717z
	 M427.506,239.717v4.209c0,1.092,0.66,1.92,1.943,1.943c1.307,0.025,2.542-0.768,2.542-1.811c0,1.043-1.235,1.836-2.542,1.811
	c-1.283-0.023-1.943-0.852-1.943-1.943V239.717z"/>
<path fill="none" stroke="#ED6545" stroke-width="0.25" stroke-miterlimit="10" d="M586.853,165.615
	c-0.027,0.351,0.436,1.33,2.199,1.4c1.766,0.042,2.577-0.518,2.577-1.597c0-1.093-0.91-1.429-1.246-1.527l-2.647-0.784
	c-0.351-0.084-1.19-0.462-1.19-1.499c0-1.036,1.106-1.891,2.507-1.891c1.402,0,2.676,0.742,2.676,1.835
	c0-1.093-1.273-1.835-2.676-1.835c-1.4,0-2.507,0.854-2.507,1.891c0,1.037,0.84,1.415,1.19,1.499l2.647,0.784
	c0.336,0.099,1.246,0.435,1.246,1.527c0,1.079-0.812,1.639-2.577,1.597C587.288,166.945,586.825,165.966,586.853,165.615z"/>
<circle fill="none" stroke="#000000" stroke-width="0.25" stroke-linecap="round" stroke-linejoin="round" stroke-miterlimit="10" cx="628.266" cy="187.561" r="8.504"/>
<circle fill="none" stroke="#000000" stroke-width="0.25" stroke-linecap="round" stroke-linejoin="round" stroke-miterlimit="10" cx="408.757" cy="187.559" r="8.504"/>
<path fill="none" stroke="#000000" stroke-width="0.25" stroke-linecap="round" stroke-linejoin="round" stroke-miterlimit="10" d="
	M540.485,174.616h10.202v34.201v0.004h48.552v-10.604h-4.25l0.002-5.949h4.248l-0.002-4.236l8.494-0.002v4.238h4.247v5.949h-4.247
	v10.604h4.245l0.001,8.492h11.326l0.001-8.492c11.74,0,21.26-9.52,21.26-21.26c0-11.742-9.52-21.26-21.26-21.26
	c0-7.819-6.339-12.956-14.157-12.957c0,0-31.145-0.001-62.29-0.001s-118.983,0-118.983,0c-7.818,0-14.156,5.137-14.156,12.957
	c-11.742,0-21.26,9.519-21.26,21.259c0,11.742,9.518,21.26,21.26,21.26l0,0v8.494h11.326l-0.001-8.494h4.247v-10.605h-4.247
	l0.002-5.949h4.245v-4.236h8.494c0,0.002-0.001,4.238-0.001,4.238h4.247v5.947h-4.246v10.605h48.165v-34.203h10.588"/>
<line fill="none" stroke="#000000" stroke-width="0.25" stroke-linecap="round" stroke-linejoin="round" stroke-miterlimit="10" x1="497.955" y1="174.616" x2="538.362" y2="174.616"/>
<path fill="none" stroke="#000000" stroke-width="0.25" stroke-linecap="round" stroke-linejoin="round" stroke-miterlimit="10" d="
	M580.208,464.1c-9.383,0-16.989-7.605-16.989-16.988s7.605-16.988,16.988-16.988s16.988,7.605,16.988,16.988
	s-6.187,16.988-15.57,16.988"/>
<circle fill="none" stroke="#000000" stroke-width="0.25" stroke-linecap="round" stroke-linejoin="round" stroke-miterlimit="10" cx="580.207" cy="447.112" r="4.247"/>
<path fill="none" stroke="#000000" stroke-width="0.25" stroke-linecap="round" stroke-linejoin="round" stroke-miterlimit="10" d="
	M578.808,419.141c-9.383,0-16.988-7.605-16.988-16.988s7.604-16.988,16.987-16.988s16.988,7.605,16.988,16.988
	s-6.188,16.988-15.57,16.988"/>
<circle fill="none" stroke="#000000" stroke-width="0.25" stroke-linecap="round" stroke-linejoin="round" stroke-miterlimit="10" cx="578.806" cy="402.153" r="4.247"/>
<path fill="none" stroke="#000000" stroke-width="0.25" stroke-linecap="round" stroke-linejoin="round" stroke-miterlimit="10" d="
	M575.508,492.682c-0.345,1.243-1.694,2.613-2.88,3.572c-8.704-0.611-16.38,5.908-14.829,15.422
	c0.609,3.726,2.555,17.95-0.114,28.846c-0.955,3.895,1.605,11.452,7.532,14.48c1.316,0.67,1.998,1.038,3.403,1.156"/>
<path fill="none" stroke="#000000" stroke-width="0.25" stroke-linecap="round" stroke-linejoin="round" stroke-miterlimit="10" d="
	M587.584,506.67c10.646,3.407,20.388-6.123,21.221-16.484c9.695-6.625,29.174-27.79,28.32-64.463
	c-0.932-41.307-20.014-60.375-30.959-69.525c-2.03-24.043-39.542-15.036-32.535,6.738c2.506,7.794,8.517,10.861,14.23,11.722
	c5.657,0.851,11.734,2.853,17.184,7.61c12.707,11.096,20.391,33.574,19.494,43.873c0.773,30.008-18.441,49.842-27.119,49.207
	c-10.657-0.781-22.272-0.213-22.304,15.341c-0.006,0.72,0.198,1.295,0.393,1.993"/>
<path fill="none" stroke="#000000" stroke-width="0.25" stroke-linecap="round" stroke-linejoin="round" stroke-miterlimit="10" d="
	M571.431,555.952c8.068,0.176,14.863-7.586,11.42-15.861c-1.579-3.797-5.186-10.784,2.214-19.874
	c3.366-4.13-1.827-8.382,2.52-13.546"/>
<path fill="none" stroke="#000000" stroke-width="0.25" stroke-linecap="round" stroke-linejoin="round" stroke-miterlimit="10" d="
	M585.374,357.85c-0.022-2.346,1.86-4.264,4.207-4.285c2.343-0.021,4.263,1.863,4.285,4.209c0.021,2.346-1.861,4.264-4.206,4.284
	C587.311,362.079,585.393,360.196,585.374,357.85z"/>
<path fill="none" stroke="#000000" stroke-width="0.25" stroke-linecap="round" stroke-linejoin="round" stroke-miterlimit="10" d="
	M587.359,490.493c-0.021-2.348,1.865-4.267,4.209-4.289c2.345-0.02,4.264,1.864,4.286,4.209c0.02,2.346-1.861,4.264-4.208,4.285
	C589.304,494.721,587.383,492.838,587.359,490.493z"/>
<path fill="none" stroke="#ED6545" stroke-width="0.25" stroke-miterlimit="10" d="M592.575,403.27
	c-0.037,1.008-1.114,1.955-2.135,1.955c-1.008,0-2.748-0.168-2.748-3.178c0-2.998,1.944-3.035,2.795-3.035
	c0.853,0,1.979,0.66,2.051,1.5c-0.071-0.84-1.198-1.5-2.051-1.5c-0.851,0-2.795,0.037-2.795,3.035c0,3.01,1.74,3.178,2.748,3.178
	C591.46,405.225,592.538,404.278,592.575,403.27z"/>
<path fill="none" stroke="#ED6545" stroke-width="0.25" stroke-miterlimit="10" d="M593.976,448.233
	c-0.037,1.008-1.115,1.955-2.135,1.955c-1.008,0-2.748-0.168-2.748-3.18c0-2.998,1.944-3.033,2.795-3.033
	c0.853,0,1.979,0.66,2.051,1.498c-0.071-0.838-1.198-1.498-2.051-1.498c-0.851,0-2.795,0.035-2.795,3.033
	c0,3.012,1.74,3.18,2.748,3.18C592.861,450.188,593.939,449.241,593.976,448.233z"/>
<path fill="none" stroke="#ED6545" stroke-width="0.25" stroke-miterlimit="10" d="M566.757,521.749l-0.781-2.303L566.757,521.749z
	 M572.27,518.84l-5.828,1.977c-1.658,0.564-2.364,0.803-2.792-0.459c0.428,1.262,1.134,1.023,2.792,0.459L572.27,518.84z"/>
<path fill="none" stroke="#ED6545" stroke-width="0.25" stroke-miterlimit="10" d="M467.62,515.595v-0.215V515.595z M467.62,524.027
	v-6.152V524.027z"/>
<path fill="none" stroke="#ED6545" stroke-width="0.25" stroke-miterlimit="10" d="M467.62,475.91v-0.215V475.91z M467.62,484.343
	v-6.154V484.343z"/>
<path fill="none" stroke="#000000" stroke-width="0.25" stroke-linecap="round" stroke-linejoin="round" stroke-miterlimit="10" d="
	M456.299,536.943c-9.383,0-16.988-7.605-16.988-16.988s7.604-16.99,16.986-16.99s16.988,7.607,16.988,16.99
	s-6.188,16.988-15.57,16.988"/>
<circle fill="none" stroke="#000000" stroke-width="0.25" stroke-linecap="round" stroke-linejoin="round" stroke-miterlimit="10" cx="456.296" cy="519.955" r="4.247"/>
<path fill="none" stroke="#000000" stroke-width="0.25" stroke-linecap="round" stroke-linejoin="round" stroke-miterlimit="10" d="
	M457.733,497.654c-9.383,0-16.988-7.605-16.988-16.988s7.605-16.99,16.988-16.99c9.381,0,16.988,7.607,16.988,16.99
	s-6.188,16.988-15.57,16.988"/>
<circle fill="none" stroke="#000000" stroke-width="0.25" stroke-linecap="round" stroke-linejoin="round" stroke-miterlimit="10" cx="457.732" cy="480.666" r="4.247"/>
<path fill="none" stroke="#000000" stroke-width="0.25" stroke-linecap="round" stroke-linejoin="round" stroke-miterlimit="10" d="
	M503.764,337.24c-9.139,1.408-12.89,13.541-7.579,19.694c2.883,3.335,10.573,5.403,13.548,12.647
	c3.713,9.047-1.012,18.767-5.428,27.377c-13.339,26.011-7.68,91.194-7.796,100.818c-0.122,10.305,3.014,24.336-0.084,37.181
	c0.631,1.825,1.977,3.183,3.147,4.683c3.082,1.092,8.309,0.508,8.236,5.162c-0.162,1.943-1.568,2.953-3.125,3.838
	c-3.923,0.619-4.902-5.588-9.226-4.103c-6.824,5.51,1.422,10.468,2.357,11.04c6.833,4.18,17.743-1.509,18.718-9.718
	c1.039-8.755-8.502-12.564-8.736-18.89c-0.141-3.845,0.83-7.435,5.684-18.738c2.604-6.067,6.288-11.855,21.643-13.521
	c3.525-0.384,2.332-7.608,0.529-7.521c-28.238,1.376-32.639-66.901-14.782-86.564c4.183-4.605,16.77-11.518,17.514-20.696
	c0.793-9.729-17.018-18.864-19.834-23.438c-2.602-4.227,2.598-9.562-2.834-15.262c-2.021-2.123-4.309-3.175-9.828-3.98"/>
<path fill="none" stroke="#000000" stroke-width="0.25" stroke-linecap="round" stroke-linejoin="round" stroke-miterlimit="10" d="
	M521.87,385.734c-3.857-0.672-6.438-4.344-5.768-8.198c0.674-3.853,4.342-6.435,8.197-5.764c3.857,0.673,6.436,4.34,5.764,8.194
	C529.395,383.822,525.725,386.402,521.87,385.734z"/>
<path fill="none" stroke="#ED6545" stroke-width="0.25" stroke-miterlimit="22.926" d="M501.805,348.83h8.646H501.805z
	 M501.805,353.314h4.209c1.092,0,1.92-0.66,1.941-1.943c0.025-1.307-0.766-2.541-1.809-2.541c1.043,0,1.834,1.234,1.809,2.541
	c-0.021,1.283-0.85,1.943-1.941,1.943H501.805z"/>
<path fill="none" stroke="#ED6545" stroke-width="0.25" stroke-miterlimit="22.926" d="M537.717,255.35l-10.42,0.002L537.717,255.35
	z M534.723,258.403c0,1.684-0.82,3.051-3.713,3.049c-2.877,0.002-3.713-1.365-3.713-3.051c0-1.682,0.836-3.051,3.713-3.049
	C533.9,255.352,534.721,256.719,534.723,258.403z M534.723,258.403c0,1.684-0.82,3.051-3.713,3.049
	c-2.877,0.002-3.713-1.365-3.713-3.051c0-1.682,0.836-3.051,3.713-3.049C533.9,255.352,534.721,256.719,534.723,258.403"/>
<path fill="none" stroke="#ED6545" stroke-width="0.25" stroke-miterlimit="22.926" d="M517.834,302.555h-10.419H517.834z
	 M514.84,305.606c0,1.684-0.82,3.051-3.712,3.051c-2.88,0-3.713-1.367-3.713-3.051s0.833-3.051,3.713-3.051
	C514.02,302.555,514.84,303.922,514.84,305.606z M514.84,305.606c0,1.684-0.82,3.051-3.712,3.051c-2.88,0-3.713-1.367-3.713-3.051
	s0.833-3.051,3.713-3.051C514.02,302.555,514.84,303.922,514.84,305.606"/>
<path fill="none" stroke="#000000" stroke-width="0.25" stroke-linecap="round" stroke-linejoin="round" stroke-miterlimit="10" d="
	M454.474,285.76c0,9.383-7.605,16.988-16.988,16.988s-16.988-7.605-16.988-16.988c0-9.381,7.605-16.988,16.988-16.988
	s16.988,6.188,16.988,15.57"/>
<circle fill="none" stroke="#000000" stroke-width="0.25" stroke-linecap="round" stroke-linejoin="round" stroke-miterlimit="10" cx="437.485" cy="285.761" r="4.247"/>
<path fill="none" stroke="#000000" stroke-width="0.25" stroke-linecap="round" stroke-linejoin="round" stroke-miterlimit="10" d="
	M415.185,284.325c0,9.383-7.605,16.988-16.988,16.988s-16.988-7.604-16.988-16.986s7.605-16.988,16.988-16.988
	s16.988,6.188,16.988,15.57"/>
<circle fill="none" stroke="#000000" stroke-width="0.25" stroke-linecap="round" stroke-linejoin="round" stroke-miterlimit="10" cx="398.196" cy="284.328" r="4.247"/>
<path fill="none" stroke="#ED6545" stroke-width="0.25" stroke-miterlimit="22.926" d="M401.337,272.987h-7.387H401.337
	c0.66,0,1.176,0.121,1.176,1.117C402.513,273.108,401.997,272.987,401.337,272.987z M391.683,272.987h-0.215H391.683z"/>
<path fill="none" stroke="#ED6545" stroke-width="0.25" stroke-miterlimit="22.926" d="M440.841,273.879h-7.387H440.841
	c0.66,0,1.176,0.121,1.176,1.117C442.017,274,441.501,273.879,440.841,273.879z M431.187,273.879h-0.217H431.187z"/>
<path fill="none" stroke="#000000" stroke-width="0.25" stroke-linecap="round" stroke-linejoin="round" stroke-miterlimit="10" d="
	M466.314,304.19c0.816-8.633,8.085-15.387,16.932-15.387c5.522,0,10.43,2.633,13.536,6.711h-0.002l102.293,7.961
	c7.045,0,12.756,8.547,12.756,15.592l0,0c0,7.045-5.711,12.756-12.756,12.756h-17.714c-2.348,0-4.252-1.902-4.252-4.252l0,0
	c0-2.348,1.904-4.252,4.252-4.252h0.072h14.099c2.348,0,4.252-1.904,4.252-4.252l0,0c0-2.35-1.904-4.252-4.252-4.252l-98.445,0.885
	h0.002c-3.086,4.311-8.135,7.119-13.841,7.119c-8.985,0-16.343-6.965-16.965-15.795"/>
<circle fill="none" stroke="#000000" stroke-width="0.25" stroke-linecap="round" stroke-linejoin="round" stroke-miterlimit="10" cx="483.171" cy="305.606" r="7.795"/>
<path fill="none" stroke="#000000" stroke-width="0.25" stroke-linecap="round" stroke-linejoin="round" stroke-miterlimit="10" d="
	M486.195,259.819c0.818,8.633,8.086,15.385,16.932,15.385c5.523,0,10.43-2.633,13.537-6.711h-0.002l102.293-7.961
	c7.044,0,12.755-8.547,12.755-15.592l0,0c0-7.045-5.711-12.756-12.755-12.756H601.24c-2.348,0-4.252,1.902-4.252,4.252l0,0
	c0,2.348,1.904,4.252,4.252,4.252h0.072h14.1c2.348,0,4.252,1.904,4.252,4.252l0,0c0,2.35-1.904,4.252-4.252,4.252l-98.445-0.885
	h0.002c-3.086-4.311-8.135-7.119-13.842-7.119c-8.984,0-16.342,6.965-16.965,15.793"/>
<circle fill="none" stroke="#000000" stroke-width="0.25" stroke-linecap="round" stroke-linejoin="round" stroke-miterlimit="10" cx="503.053" cy="258.401" r="7.795"/>
<path fill="none" stroke="#9853A0" stroke-width="0.25" stroke-miterlimit="22.926" d="M522.896,258.401
	c0,10.963-8.883,19.846-19.846,19.846c-10.957,0-19.84-8.883-19.84-19.846c0-10.959,8.883-19.844,19.84-19.844
	C514.014,238.557,522.896,247.442,522.896,258.401z"/>
<path fill="none" stroke="#9853A0" stroke-width="0.25" stroke-miterlimit="22.926" d="M503.014,305.606
	c0,10.961-8.883,19.846-19.846,19.846c-10.957,0-19.84-8.885-19.84-19.846c0-10.959,8.883-19.846,19.84-19.846
	C494.131,285.76,503.014,294.647,503.014,305.606z"/>
<path fill="none" stroke="#9853A0" stroke-width="0.25" stroke-miterlimit="22.926" d="M523.046,398.595
	c-10.962,0-19.847-8.883-19.847-19.846c0-10.957,8.885-19.84,19.847-19.84c10.96,0,19.845,8.883,19.845,19.84
	C542.891,389.712,534.006,398.595,523.046,398.595z"/>
<circle fill="none" stroke="#000000" stroke-width="0.25" stroke-miterlimit="10" cx="332.356" cy="400.284" r="4.252"/>
<circle fill="none" stroke="#000000" stroke-width="0.25" stroke-miterlimit="10" cx="360.702" cy="400.284" r="4.252"/>
<path fill="none" stroke="#000000" stroke-width="0.25" stroke-miterlimit="10" d="M344.754,388.948h-18.067
	c-3.132,0-5.669,2.539-5.669,5.67v11.34c0,3.131,2.537,5.67,5.669,5.67h39.685c3.131,0,5.67-2.539,5.67-5.67v-11.34
	c0-3.131-2.539-5.67-5.67-5.67H346.17"/>
<path fill="none" stroke="#ED6545" stroke-width="0.25" stroke-miterlimit="22.926" d="M343.256,397.711v4.559
	c0,0.551,0.552,1.582,2.074,1.594c1.535,0.012,2.338-1.174,2.338-2.279c0,1.105-0.803,2.291-2.338,2.279
	c-1.522-0.012-2.074-1.043-2.074-1.594V397.711z M347.668,397.711v6.152V397.711z"/>
<circle fill="none" stroke="#000000" stroke-width="0.25" stroke-miterlimit="10" cx="322.429" cy="181.739" r="4.252"/>
<circle fill="none" stroke="#000000" stroke-width="0.25" stroke-miterlimit="10" cx="189.881" cy="181.739" r="4.252"/>
<rect x="151.316" y="290.547" fill="none" stroke="#000000" stroke-width="0.25" stroke-miterlimit="10" width="11.341" height="9.07"/>
<circle fill="none" stroke="#000000" stroke-width="0.25" stroke-miterlimit="10" cx="171.161" cy="295.083" r="4.252"/>
<rect x="349.743" y="290.547" fill="none" stroke="#000000" stroke-width="0.25" stroke-miterlimit="10" width="11.34" height="9.07"/>
<circle fill="none" stroke="#000000" stroke-width="0.25" stroke-miterlimit="10" cx="341.24" cy="295.083" r="4.252"/>
<circle fill="none" stroke="#000000" stroke-width="0.25" stroke-miterlimit="10" cx="256.2" cy="354.325" r="8.504"/>
<circle fill="none" stroke="#000000" stroke-width="0.25" stroke-miterlimit="10" cx="312.893" cy="340.151" r="8.504"/>
<circle fill="none" stroke="#000000" stroke-width="0.25" stroke-miterlimit="10" cx="199.506" cy="340.151" r="8.504"/>
<path fill="none" stroke="#000000" stroke-width="0.25" stroke-miterlimit="10" d="M141.395,273.536l0.016,85.041
	c0,7.828,6.344,14.174,14.172,14.174h151.267h49.98c7.827-0.002,14.173-6.346,14.173-14.174H371v-45.355v-39.445"/>
<path fill="none" stroke="#ED6545" stroke-width="0.25" stroke-miterlimit="10" d="M153.478,358.928
	c1.377-0.205,2.616,0.312,2.974,2.686c0.354,2.371-0.683,3.229-2.058,3.436c-1.377,0.205-2.606-0.314-2.961-2.686
	C151.077,359.991,152.103,359.135,153.478,358.928z M153.478,358.928c1.377-0.205,2.616,0.312,2.974,2.686
	c0.354,2.371-0.683,3.229-2.058,3.436c-1.377,0.205-2.606-0.314-2.961-2.686C151.077,359.991,152.103,359.135,153.478,358.928
	 M155.638,356.096l1.28,8.574L155.638,356.096z"/>
<path fill="none" stroke="#ED6545" stroke-width="0.25" stroke-miterlimit="10" d="M239.85,287.999
	c-1.511-0.035-2.207,0.445-2.207,1.369c0,0.934,0.78,1.223,1.067,1.307l2.268,0.672c0.3,0.072,1.018,0.395,1.018,1.283
	c0,0.887-0.946,1.619-2.146,1.619s-2.291-0.637-2.291-1.572c0,0.936,1.092,1.572,2.291,1.572s2.146-0.732,2.146-1.619
	c0-0.889-0.718-1.211-1.018-1.283l-2.268-0.672c-0.287-0.084-1.067-0.373-1.067-1.307
	C237.643,288.444,238.339,287.963,239.85,287.999c1.513,0.061,1.907,0.9,1.884,1.201
	C241.757,288.899,241.363,288.059,239.85,287.999z"/>
<path fill="none" stroke="#ED6545" stroke-width="0.25" stroke-miterlimit="10" d="M250.167,290.961c0-1.33-0.526-3.033-2.434-3.033
	c-1.895,0-2.938,1.295-2.938,3.273c0,1.99,1.344,3.047,2.938,2.998c1.607-0.047,2.303-1.295,2.387-1.738
	c-0.084,0.443-0.779,1.691-2.387,1.738c-1.595,0.049-2.938-1.008-2.938-2.998c0-1.979,1.044-3.273,2.938-3.273
	C249.641,287.928,250.167,289.631,250.167,290.961h-5.359H250.167z"/>
<path fill="none" stroke="#ED6545" stroke-width="0.25" stroke-miterlimit="10" d="M254.467,291.104
	c-0.036-1.377,1.235-3.021,2.351-3.008C255.703,288.083,254.431,289.727,254.467,291.104z M254.467,294.249v-6.152V294.249z"/>
<polygon fill="none" stroke="#ED6545" stroke-width="0.25" stroke-miterlimit="10" points="264.472,288.096 262.013,294.249 
	259.578,288.096 262.013,294.249 "/>
<path fill="none" stroke="#ED6545" stroke-width="0.25" stroke-miterlimit="10" d="M267.294,291.106
	c0-2.422,1.234-3.131,2.723-3.131c1.499,0,2.723,0.709,2.723,3.131c0,2.434-1.224,3.143-2.723,3.143
	C268.529,294.249,267.294,293.54,267.294,291.106z M267.294,291.106c0-2.422,1.234-3.131,2.723-3.131
	c1.499,0,2.723,0.709,2.723,3.131c0,2.434-1.224,3.143-2.723,3.143C268.529,294.249,267.294,293.54,267.294,291.106"/>
<polygon fill="none" stroke="#ED6545" stroke-width="0.25" stroke-miterlimit="10" points="223.59,293.217 210.833,293.217 
	210.833,281.877 223.59,281.877 223.59,273.375 275.449,273.375 288.787,277.276 288.787,281.877 301.543,281.877 301.543,293.217 
	288.787,293.217 288.787,335.739 223.59,335.739 "/>
<path fill="none" stroke="#000000" stroke-width="0.25" stroke-miterlimit="10" d="M344.68,255.354L344.68,255.354
	c0,7.826-6.346,14.172-14.173,14.172H180.27c-7.827,0-14.173-6.346-14.173-14.172l0,0"/>
<rect x="221.01" y="340.151" fill="none" stroke="#000000" stroke-width="0.25" stroke-miterlimit="10" width="8.504" height="22.678"/>
<path fill="none" stroke="#ED6545" stroke-width="0.25" stroke-miterlimit="22.926" d="M457.889,431.02l-10.033,1.158
	L457.889,431.02z"/>
<circle fill="none" stroke="#000000" stroke-width="0.25" stroke-linecap="round" stroke-linejoin="round" stroke-miterlimit="10" cx="272.89" cy="447.059" r="4.247"/>
<circle fill="none" stroke="#000000" stroke-width="0.25" stroke-linecap="round" stroke-linejoin="round" stroke-miterlimit="10" cx="140.276" cy="447.11" r="4.247"/>
<path fill="none" stroke="#000000" stroke-width="0.25" stroke-linecap="round" stroke-linejoin="round" stroke-miterlimit="10" d="
	M457.011,424.331c-0.112-2.342-2.104-4.15-4.444-4.037c-2.343,0.109-4.152,2.1-4.041,4.445c0.112,2.342,2.104,4.148,4.447,4.037
	C455.311,428.665,457.123,426.674,457.011,424.331z"/>
<path fill="none" stroke="#000000" stroke-width="0.25" stroke-linecap="round" stroke-linejoin="round" stroke-miterlimit="10" d="
	M469.102,422.651c1.225,11.764-15.516,24.436-30.442,9.566c-0.218-0.215-0.434-0.436-0.646-0.664
	c-3.267,1.512-24.406,3.449-26.768,3.643l-10.295,1.527c-6.926,1.299-13.59-3.26-14.888-10.184c-1.3-6.924,3.26-13.59,10.184-14.889
	l12.596-2.908l9.774-1.709c2.312-0.404,4.517,1.145,4.919,3.459c0.405,2.314-1.142,4.518-3.457,4.92l-9.772,1.709l-9.775,1.707
	c-2.312,0.402-3.859,2.604-3.455,4.918s2.605,3.863,4.919,3.457l9.864-1.885c2.362-0.193,22.646-3.363,25.913-4.875
	c6.022-6.98,10.19-11.283,20.26-9.279c6.625,2.623,9.88,5.924,10.836,10.088"/>
<path fill="none" stroke="#000000" stroke-width="0.25" stroke-linecap="round" stroke-linejoin="round" stroke-miterlimit="10" d="
	M123.914,448.168c0.096,1.57,0.477,2.422,1.203,3.908c4.57,18.776,34.365,11.691,32.066-6.992
	c3.002-5.197,16.26-29.423,49.724-38.885c29.088,9.462,46.522,33.812,49.833,38.885c-0.939,6.83,2.971,12.877,7.277,15.703
	c18.445,12.104,38.951-20.307,14.697-29.689c-1.623-0.631-3.859-0.285-5.773-1.232c-8.552-11.204-51.491-46.894-66.035-46.578
	c-15.789,0.342-59.869,37.549-67.758,46.871c-8.121,0.688-15.293,7.98-15.26,15.885"/>
<circle fill="none" stroke="#000000" stroke-width="0.25" stroke-linecap="round" stroke-linejoin="round" stroke-miterlimit="10" cx="272.89" cy="495.247" r="4.247"/>
<circle fill="none" stroke="#000000" stroke-width="0.25" stroke-linecap="round" stroke-linejoin="round" stroke-miterlimit="10" cx="140.276" cy="495.297" r="4.247"/>
<path fill="none" stroke="#000000" stroke-width="0.25" stroke-linecap="round" stroke-linejoin="round" stroke-miterlimit="10" d="
	M123.914,496.356c0.096,1.57,0.477,2.422,1.203,3.908c4.57,18.777,34.365,11.691,32.066-6.992
	c3.002-5.197,16.26-29.422,49.724-38.885c29.088,9.463,46.522,33.812,49.833,38.885c-0.939,6.83,2.971,12.877,7.277,15.703
	c18.445,12.104,38.951-20.307,14.697-29.689c-1.623-0.631-3.859-0.285-5.773-1.232c-8.552-11.203-51.491-46.893-66.035-46.578
	c-15.789,0.342-59.869,37.549-67.758,46.871c-8.121,0.688-15.293,7.98-15.26,15.885"/>
<path fill="none" stroke="#ED6545" stroke-width="0.25" stroke-miterlimit="10" d="M149.211,432.883l5.359-0.031
	c-0.008-1.332-0.547-3.031-2.453-3.02c-1.895,0.012-2.93,1.314-2.92,3.291c0.014,1.992,1.365,3.037,2.959,2.982
	c1.607-0.059,2.295-1.311,2.375-1.756c-0.08,0.445-0.768,1.697-2.375,1.756c-1.594,0.055-2.945-0.99-2.959-2.982
	c-0.01-1.977,1.025-3.279,2.92-3.291c1.906-0.012,2.445,1.688,2.453,3.02L149.211,432.883z"/>
<polygon fill="none" stroke="#ED6545" stroke-width="0.25" stroke-miterlimit="10" points="149.749,485.481 149.749,483.058 
	151.403,481.452 154.019,485.481 151.403,481.452 153.61,479.33 149.749,483.058 149.749,476.834 "/>
<path fill="none" stroke="#000000" stroke-width="0.25" stroke-miterlimit="10" d="M371,270.944l0.002-67.791
	c0-47.749-38.708-89.292-86.457-89.292h-56.693c-47.748,0-86.456,41.542-86.456,89.292l-0.001,67.791"/>
<path fill="none" stroke="#000000" stroke-width="0.25" stroke-miterlimit="10" d="M344.68,255.354
	c0-7.828-14.424-59.441-22.252-59.441c-7.827,0-14.173-6.346-14.173-14.173c0-7.828,6.346-14.174,14.173-14.174
	c7.828,0,14.174,6.346,14.174,14.174l0.007-0.001c0,2.74,2.221,10.63,4.96,10.63c2.74,0,4.961-2.221,4.961-4.961
	c0-33.659-29.136-56.741-62.795-56.741h-56.693c-33.659,0-61.195,23.082-61.195,56.741c0,2.739,2.221,4.96,4.961,4.96
	c2.739,0,4.96-7.89,4.96-10.629l-0.059,0.001c0-7.828,6.346-14.174,14.173-14.174c7.828,0,14.174,6.346,14.174,14.174
	c0,7.827-6.346,14.173-14.174,14.173c-7.827,0-23.784,51.613-23.784,59.441"/>
<path fill="none" stroke="#000000" stroke-width="0.25" stroke-miterlimit="10" d="M674.777,556.526
	c0,15.654-12.691,28.346-28.347,28.346H136.195c-15.656,0-28.347-12.691-28.347-28.346V131.329
	c0-15.655,12.691-28.346,28.347-28.346h510.236c15.656,0,28.347,12.691,28.347,28.346V556.526z"/>
<text transform="matrix(1 0 0 1 68.3682 619.4399)"><tspan x="0" y="0" fill="none" stroke="#000000" stroke-miterlimit="10" font-family="'Eng_HelvLine'" font-size="12">MATERIAL: 3MM SHEET; MDF, PLY OR ACRYLIC</tspan><tspan x="0" y="28.8" fill="none" stroke="#000000" stroke-miterlimit="10" font-family="'Eng_HelvLine'" font-size="12">COLOUR KEY</tspan><tspan x="0" y="57.6" fill="none" stroke="#000000" stroke-miterlimit="10" font-family="'Eng_HelvLine'" font-size="12" letter-spacing="30">	</tspan><tspan x="36" y="57.6" fill="none" stroke="#000000" stroke-miterlimit="10" font-family="'Eng_HelvLine'" font-size="12">VECTOR ETCH</tspan><tspan x="0" y="72" fill="none" stroke="#000000" stroke-miterlimit="10" font-family="'Eng_HelvLine'" font-size="12" letter-spacing="30">	</tspan><tspan x="0" y="86.4" fill="none" stroke="#000000" stroke-miterlimit="10" font-family="'Eng_HelvLine'" font-size="12" letter-spacing="30">	</tspan><tspan x="36" y="86.4" fill="none" stroke="#000000" stroke-miterlimit="10" font-family="'Eng_HelvLine'" font-size="12">RASTER ETCH</tspan><tspan x="141.479" y="86.4" fill="none" stroke="#000000" stroke-miterlimit="10" font-family="'Eng_HelvLine'" font-size="12" letter-spacing="-3">	</tspan><tspan x="0" y="100.8" fill="none" stroke="#000000" stroke-miterlimit="10" font-family="'Eng_HelvLine'" font-size="12" letter-spacing="30">	</tspan><tspan x="0" y="115.2" fill="none" stroke="#000000" stroke-miterlimit="10" font-family="'Eng_HelvLine'" font-size="12" letter-spacing="30">	</tspan><tspan x="36" y="115.2" fill="none" stroke="#000000" stroke-miterlimit="10" font-family="'Eng_HelvLine'" font-size="12">VECTOR CUT</tspan></text>
<line fill="none" stroke="#ED6545" stroke-miterlimit="22.926" x1="96.715" y1="674.6" x2="68.368" y2="674.6"/>
<line fill="none" stroke="#9853A0" stroke-miterlimit="22.926" x1="96.715" y1="702.946" x2="68.368" y2="702.946"/>
<line fill="none" stroke="#000000" stroke-miterlimit="10" x1="96.715" y1="731.293" x2="68.368" y2="731.293"/>
</svg>
