  0
SECTION
  2
HEADER
  9
$ACADVER
  1
AC1018
  9
$ACADMAINTVER
 70
     0
  9
$DWGCODEPAGE
  3
ANSI_932
  9
$INSBASE
 10
0.0
 20
0.0
 30
0.0
  9
$EXTMIN
 10
1.000000000000000E+20
 20
1.000000000000000E+20
 30
1.000000000000000E+20
  9
$EXTMAX
 10
-1.000000000000000E+20
 20
-1.000000000000000E+20
 30
-1.000000000000000E+20
  9
$LIMMIN
 10
0.0
 20
0.0
  9
$LIMMAX
 10
12.0
 20
9.0
  9
$ORTHOMODE
 70
     0
  9
$REGENMODE
 70
     1
  9
$FILLMODE
 70
     1
  9
$QTEXTMODE
 70
     0
  9
$MIRRTEXT
 70
     1
  9
$LTSCALE
 40
1.0
  9
$ATTMODE
 70
     1
  9
$TEXTSIZE
 40
0.2
  9
$TRACEWID
 40
0.05
  9
$TEXTSTYLE
  7
Standard
  9
$CLAYER
  8
0
  9
$CELTYPE
  6
ByLayer
  9
$CECOLOR
 62
   256
  9
$CELTSCALE
 40
1.0
  9
$DISPSILH
 70
     0
  9
$DIMSCALE
 40
1.0
  9
$DIMASZ
 40
0.18
  9
$DIMEXO
 40
0.0625
  9
$DIMDLI
 40
0.38
  9
$DIMRND
 40
0.0
  9
$DIMDLE
 40
0.0
  9
$DIMEXE
 40
0.18
  9
$DIMTP
 40
0.0
  9
$DIMTM
 40
0.0
  9
$DIMTXT
 40
0.18
  9
$DIMCEN
 40
0.09
  9
$DIMTSZ
 40
0.0
  9
$DIMTOL
 70
     0
  9
$DIMLIM
 70
     0
  9
$DIMTIH
 70
     1
  9
$DIMTOH
 70
     1
  9
$DIMSE1
 70
     0
  9
$DIMSE2
 70
     0
  9
$DIMTAD
 70
     0
  9
$DIMZIN
 70
     0
  9
$DIMBLK
  1

  9
$DIMASO
 70
     1
  9
$DIMSHO
 70
     1
  9
$DIMPOST
  1

  9
$DIMAPOST
  1

  9
$DIMALT
 70
     0
  9
$DIMALTD
 70
     2
  9
$DIMALTF
 40
25.4
  9
$DIMLFAC
 40
1.0
  9
$DIMTOFL
 70
     0
  9
$DIMTVP
 40
0.0
  9
$DIMTIX
 70
     0
  9
$DIMSOXD
 70
     0
  9
$DIMSAH
 70
     0
  9
$DIMBLK1
  1

  9
$DIMBLK2
  1

  9
$DIMSTYLE
  2
Standard
  9
$DIMCLRD
 70
     0
  9
$DIMCLRE
 70
     0
  9
$DIMCLRT
 70
     0
  9
$DIMTFAC
 40
1.0
  9
$DIMGAP
 40
0.09
  9
$DIMJUST
 70
     0
  9
$DIMSD1
 70
     0
  9
$DIMSD2
 70
     0
  9
$DIMTOLJ
 70
     1
  9
$DIMTZIN
 70
     0
  9
$DIMALTZ
 70
     0
  9
$DIMALTTZ
 70
     0
  9
$DIMUPT
 70
     0
  9
$DIMDEC
 70
     4
  9
$DIMTDEC
 70
     4
  9
$DIMALTU
 70
     2
  9
$DIMALTTD
 70
     2
  9
$DIMTXSTY
  7
Standard
  9
$DIMAUNIT
 70
     0
  9
$DIMADEC
 70
     0
  9
$DIMALTRND
 40
0.0
  9
$DIMAZIN
 70
     0
  9
$DIMDSEP
 70
    46
  9
$DIMATFIT
 70
     3
  9
$DIMFRAC
 70
     0
  9
$DIMLDRBLK
  1

  9
$DIMLUNIT
 70
     2
  9
$DIMLWD
 70
    -2
  9
$DIMLWE
 70
    -2
  9
$DIMTMOVE
 70
     0
  9
$LUNITS
 70
     2
  9
$LUPREC
 70
     4
  9
$SKETCHINC
 40
0.1
  9
$FILLETRAD
 40
0.5
  9
$AUNITS
 70
     0
  9
$AUPREC
 70
     0
  9
$MENU
  1
.
  9
$ELEVATION
 40
0.0
  9
$PELEVATION
 40
0.0
  9
$THICKNESS
 40
0.0
  9
$LIMCHECK
 70
     0
  9
$CHAMFERA
 40
0.5
  9
$CHAMFERB
 40
0.5
  9
$CHAMFERC
 40
1.0
  9
$CHAMFERD
 40
0.0
  9
$SKPOLY
 70
     0
  9
$TDCREATE
 40
2456183.554016204
  9
$TDUCREATE
 40
2456183.554016204
  9
$TDUPDATE
 40
2456183.554016215
  9
$TDUUPDATE
 40
2456183.554016215
  9
$TDINDWG
 40
0.0000000116
  9
$TDUSRTIMER
 40
0.0000000116
  9
$USRTIMER
 70
     1
  9
$ANGBASE
 50
0.0
  9
$ANGDIR
 70
     0
  9
$PDMODE
 70
     0
  9
$PDSIZE
 40
0.0
  9
$PLINEWID
 40
0.0
  9
$SPLFRAME
 70
     0
  9
$SPLINETYPE
 70
     6
  9
$SPLINESEGS
 70
     8
  9
$HANDSEED
  5
83
  9
$SURFTAB1
 70
     6
  9
$SURFTAB2
 70
     6
  9
$SURFTYPE
 70
     6
  9
$SURFU
 70
     6
  9
$SURFV
 70
     6
  9
$UCSBASE
  2

  9
$UCSNAME
  2

  9
$UCSORG
 10
0.0
 20
0.0
 30
0.0
  9
$UCSXDIR
 10
1.0
 20
0.0
 30
0.0
  9
$UCSYDIR
 10
0.0
 20
1.0
 30
0.0
  9
$UCSORTHOREF
  2

  9
$UCSORTHOVIEW
 70
     0
  9
$UCSORGTOP
 10
0.0
 20
0.0
 30
0.0
  9
$UCSORGBOTTOM
 10
0.0
 20
0.0
 30
0.0
  9
$UCSORGLEFT
 10
0.0
 20
0.0
 30
0.0
  9
$UCSORGRIGHT
 10
0.0
 20
0.0
 30
0.0
  9
$UCSORGFRONT
 10
0.0
 20
0.0
 30
0.0
  9
$UCSORGBACK
 10
0.0
 20
0.0
 30
0.0
  9
$PUCSBASE
  2

  9
$PUCSNAME
  2

  9
$PUCSORG
 10
0.0
 20
0.0
 30
0.0
  9
$PUCSXDIR
 10
1.0
 20
0.0
 30
0.0
  9
$PUCSYDIR
 10
0.0
 20
1.0
 30
0.0
  9
$PUCSORTHOREF
  2

  9
$PUCSORTHOVIEW
 70
     0
  9
$PUCSORGTOP
 10
0.0
 20
0.0
 30
0.0
  9
$PUCSORGBOTTOM
 10
0.0
 20
0.0
 30
0.0
  9
$PUCSORGLEFT
 10
0.0
 20
0.0
 30
0.0
  9
$PUCSORGRIGHT
 10
0.0
 20
0.0
 30
0.0
  9
$PUCSORGFRONT
 10
0.0
 20
0.0
 30
0.0
  9
$PUCSORGBACK
 10
0.0
 20
0.0
 30
0.0
  9
$USERI1
 70
     0
  9
$USERI2
 70
     0
  9
$USERI3
 70
     0
  9
$USERI4
 70
     0
  9
$USERI5
 70
     0
  9
$USERR1
 40
0.0
  9
$USERR2
 40
0.0
  9
$USERR3
 40
0.0
  9
$USERR4
 40
0.0
  9
$USERR5
 40
0.0
  9
$WORLDVIEW
 70
     1
  9
$SHADEDGE
 70
     3
  9
$SHADEDIF
 70
    70
  9
$TILEMODE
 70
     1
  9
$MAXACTVP
 70
    64
  9
$PINSBASE
 10
0.0
 20
0.0
 30
0.0
  9
$PLIMCHECK
 70
     0
  9
$PEXTMIN
 10
1.000000000000000E+20
 20
1.000000000000000E+20
 30
1.000000000000000E+20
  9
$PEXTMAX
 10
-1.000000000000000E+20
 20
-1.000000000000000E+20
 30
-1.000000000000000E+20
  9
$PLIMMIN
 10
0.0
 20
0.0
  9
$PLIMMAX
 10
12.0
 20
9.0
  9
$UNITMODE
 70
     0
  9
$VISRETAIN
 70
     1
  9
$PLINEGEN
 70
     0
  9
$PSLTSCALE
 70
     1
  9
$TREEDEPTH
 70
  3020
  9
$CMLSTYLE
  2
Standard
  9
$CMLJUST
 70
     0
  9
$CMLSCALE
 40
1.0
  9
$PROXYGRAPHICS
 70
     1
  9
$MEASUREMENT
 70
     0
  9
$CELWEIGHT
370
    -1
  9
$ENDCAPS
280
     0
  9
$JOINSTYLE
280
     0
  9
$LWDISPLAY
290
     1
  9
$INSUNITS
 70
     1
  9
$HYPERLINKBASE
  1

  9
$STYLESHEET
  1

  9
$XEDIT
290
     1
  9
$CEPSNTYPE
380
     0
  9
$PSTYLEMODE
290
     1
  9
$FINGERPRINTGUID
  2
{190A116D-7DEF-D19B-CE89-D4DF071CB782}
  9
$VERSIONGUID
  2
{FAEB1C32-E019-11D5-929B-00C0DF256EC4}
  9
$EXTNAMES
290
     1
  9
$PSVPSCALE
 40
0.0
  9
$OLESTARTUP
290
     0
  9
$SORTENTS
280
   127
  9
$INDEXCTL
280
     0
  9
$HIDETEXT
280
     1
  9
$XCLIPFRAME
290
     0
  9
$HALOGAP
280
     0
  9
$OBSCOLOR
 70
   257
  9
$OBSLTYPE
280
     0
  9
$INTERSECTIONDISPLAY
280
     0
  9
$INTERSECTIONCOLOR
 70
   257
  9
$DIMASSOC
280
     2
  9
$PROJECTNAME
  1

  0
ENDSEC
  0
SECTION
  2
CLASSES
  0
CLASS
  1
ACDBDICTIONARYWDFLT
  2
AcDbDictionaryWithDefault
  3
ObjectDBX Classes
 90
        0
 91
        3
280
     0
281
     0
  0
CLASS
  1
VISUALSTYLE
  2
AcDbVisualStyle
  3
ObjectDBX Classes
 90
     4095
 91
        3
280
     0
281
     0
  0
ENDSEC
  0
SECTION
  2
TABLES
  0
TABLE
  2
VPORT
  5
8
330
0
100
AcDbSymbolTable
 70
     1
  0
VPORT
  5
29
330
8
100
AcDbSymbolTableRecord
100
AcDbViewportTableRecord
  2
*Active
 70
     0
 10
0.0
 20
0.0
 11
1.0
 21
1.0
 12
0.0
 22
0.0
 13
0.0
 23
0.0
 14
0.5
 24
0.5
 15
0.5
 25
0.5
 16
0.0
 26
0.0
 36
1.0
 17
400.0005627797742
 27
-300.0004651485242
 37
0.0
 40
600.0009302970484
 41
1.333333141939436
 42
50.0
 43
0.0
 44
0.0
 50
0.0
 51
0.0
 71
     0
 72
   100
 73
     1
 74
     3
 75
     0
 76
     0
 77
     0
 78
     0
281
     0
 65
     1
110
0.0
120
0.0
130
0.0
111
1.0
121
0.0
131
0.0
112
0.0
122
1.0
132
0.0
 79
     0
146
0.0
  0
ENDTAB
  0
TABLE
  2
LTYPE
  5
5
330
0
100
AcDbSymbolTable
 70
     1
  0
LTYPE
  5
14
330
5
100
AcDbSymbolTableRecord
100
AcDbLinetypeTableRecord
  2
ByBlock
 70
     0
  3

 72
    65
 73
     0
 40
0.0
  0
LTYPE
  5
15
330
5
100
AcDbSymbolTableRecord
100
AcDbLinetypeTableRecord
  2
ByLayer
 70
     0
  3

 72
    65
 73
     0
 40
0.0
  0
LTYPE
  5
16
330
5
100
AcDbSymbolTableRecord
100
AcDbLinetypeTableRecord
  2
Continuous
 70
     0
  3
Solid line
 72
    65
 73
     0
 40
0.0
  0
ENDTAB
  0
TABLE
  2
LAYER
  5
2
330
0
100
AcDbSymbolTable
 70
     2
  0
LAYER
  5
10
330
2
100
AcDbSymbolTableRecord
100
AcDbLayerTableRecord
  2
0
 70
     0
 62
     7
  6
Continuous
370
    -3
390
F
  0
LAYER
  5
3B
330
2
100
AcDbSymbolTableRecord
100
AcDbLayerTableRecord
  2
Layer 1
 70
     0
 62
     7
  6
Continuous
370
    -3
390
F
  0
ENDTAB
  0
TABLE
  2
STYLE
  5
3
330
0
100
AcDbSymbolTable
 70
     1
  0
STYLE
  5
11
330
3
100
AcDbSymbolTableRecord
100
AcDbTextStyleTableRecord
  2
Standard
 70
     0
 40
0.0
 41
1.0
 50
0.0
 71
     0
 42
0.2
  3
txt
  4

  0
ENDTAB
  0
TABLE
  2
VIEW
  5
6
330
0
100
AcDbSymbolTable
 70
     0
  0
ENDTAB
  0
TABLE
  2
UCS
  5
7
330
0
100
AcDbSymbolTable
 70
     0
  0
ENDTAB
  0
TABLE
  2
APPID
  5
9
330
0
100
AcDbSymbolTable
 70
     1
  0
APPID
  5
12
330
9
100
AcDbSymbolTableRecord
100
AcDbRegAppTableRecord
  2
ACAD
 70
     0
  0
ENDTAB
  0
TABLE
  2
DIMSTYLE
  5
A
330
0
100
AcDbSymbolTable
 70
     1
100
AcDbDimStyleTable
  0
DIMSTYLE
105
27
330
A
100
AcDbSymbolTableRecord
100
AcDbDimStyleTableRecord
  2
Standard
 70
     0
340
11
  0
ENDTAB
  0
TABLE
  2
BLOCK_RECORD
  5
1
330
0
100
AcDbSymbolTable
 70
     3
  0
BLOCK_RECORD
  5
1F
330
1
100
AcDbSymbolTableRecord
100
AcDbBlockTableRecord
  2
*Model_Space
340
22
  0
BLOCK_RECORD
  5
1B
330
1
100
AcDbSymbolTableRecord
100
AcDbBlockTableRecord
  2
*Paper_Space
340
1E
  0
BLOCK_RECORD
  5
23
330
1
100
AcDbSymbolTableRecord
100
AcDbBlockTableRecord
  2
*Paper_Space0
340
26
  0
BLOCK_RECORD
  5
3C
330
1
100
AcDbSymbolTableRecord
100
AcDbBlockTableRecord
  2
block 2
340
0
102
{BLKREFS
331
3D
102
}
  0
BLOCK_RECORD
  5
52
330
1
100
AcDbSymbolTableRecord
100
AcDbBlockTableRecord
  2
block 3
340
0
102
{BLKREFS
331
53
102
}
  0
ENDTAB
  0
ENDSEC
  0
SECTION
  2
BLOCKS
  0
BLOCK
  5
20
330
1F
100
AcDbEntity
  8
0
100
AcDbBlockBegin
  2
*Model_Space
 70
     0
 71
     0
 10
0.0
 20
0.0
 30
0.0
  3
*Model_Space
  1

  0
ENDBLK
  5
21
330
1F
100
AcDbEntity
  8
0
100
AcDbBlockEnd
  0
BLOCK
  5
1C
330
1B
100
AcDbEntity
 67
     1
  8
0
100
AcDbBlockBegin
  2
*Paper_Space
 70
     0
 71
     0
 10
0.0
 20
0.0
 30
0.0
  3
*Paper_Space
  1

  0
ENDBLK
  5
1D
330
1B
100
AcDbEntity
 67
     1
  8
0
100
AcDbBlockEnd
  0
BLOCK
  5
24
330
23
100
AcDbEntity
  8
0
100
AcDbBlockBegin
  2
*Paper_Space0
 70
     0
 71
     0
 10
0.0
 20
0.0
 30
0.0
  3
*Paper_Space0
  1

  0
ENDBLK
  5
25
330
23
100
AcDbEntity
  8
0
100
AcDbBlockEnd
  0
BLOCK
  5
3E
330
3C
100
AcDbEntity
  8
0
100
AcDbBlockBegin
  2
block 2
 70
     0
 71
     0
 10
0.0
 20
0.0
 30
0.0
  3
block 2
  1

  0
SPLINE
  5
40
330
3C
100
AcDbEntity
  8
Layer 1
 62
   179
420
  2301728
370
    35
100
AcDbSpline
210
0.0
220
0.0
230
1.0
 70
    11
 71
     3
 72
    29
 73
    25
 74
     0
 42
0.0000000001
 43
0.0000000001
 40
0.0
 40
0.0
 40
0.0
 40
0.0
 40
1.0
 40
1.0
 40
1.0
 40
2.0
 40
2.0
 40
2.0
 40
3.0
 40
3.0
 40
3.0
 40
4.0
 40
4.0
 40
4.0
 40
5.0
 40
5.0
 40
5.0
 40
6.0
 40
6.0
 40
6.0
 40
7.0
 40
7.0
 40
7.0
 40
8.0
 40
8.0
 40
8.0
 40
8.0
 10
785.0004907976735
 20
-570.0000052828473
 30
0.0
 10
785.0004907976735
 20
-578.284081886679
 30
0.0
 10
778.284966168276
 20
-584.999951025625
 30
0.0
 10
770.0005450548957
 20
-584.999951025625
 30
0.0
 10
770.0005450548957
 20
-584.999951025625
 30
0.0
 10
30.00058050465264
 20
-584.999951025625
 30
0.0
 10
30.00058050465264
 20
-584.999951025625
 30
0.0
 10
21.71633164604661
 20
-584.999951025625
 30
0.0
 10
15.00063476187484
 20
-578.284081886679
 30
0.0
 10
15.00063476187484
 20
-570.0000052828473
 30
0.0
 10
15.00063476187484
 20
-570.0000052828473
 30
0.0
 10
15.00063476187484
 20
-29.99989148555558
 30
0.0
 10
15.00063476187484
 20
-29.99989148555558
 30
0.0
 10
15.00063476187484
 20
-21.71564262694956
 30
0.0
 10
21.71633164604661
 20
-14.99994574277779
 30
0.0
 10
30.00058050465264
 20
-14.99994574277779
 30
0.0
 10
30.00058050465264
 20
-14.99994574277779
 30
0.0
 10
770.0005450548957
 20
-14.99994574277779
 30
0.0
 10
770.0005450548957
 20
-14.99994574277779
 30
0.0
 10
778.284966168276
 20
-14.99994574277779
 30
0.0
 10
785.0004907976735
 20
-21.71564262694956
 30
0.0
 10
785.0004907976735
 20
-29.99989148555558
 30
0.0
 10
785.0004907976735
 20
-29.99989148555558
 30
0.0
 10
785.0004907976735
 20
-570.0000052828473
 30
0.0
 10
785.0004907976735
 20
-570.0000052828473
 30
0.0
  0
POLYLINE
  5
41
330
3C
100
AcDbEntity
  8
Layer 1
 62
   179
420
  2301728
370
    35
100
AcDb2dPolyline
 66
     1
 10
0.0
 20
0.0
 30
0.0
  0
VERTEX
  5
42
330
41
100
AcDbEntity
  8
Layer 1
 62
   179
420
  2301728
370
    35
100
AcDbVertex
100
AcDb2dVertex
 10
785.0004907976735
 20
-554.999715030521
 30
0.0
  0
VERTEX
  5
43
330
41
100
AcDbEntity
  8
Layer 1
 62
   179
420
  2301728
370
    35
100
AcDbVertex
100
AcDb2dVertex
 10
15.00046250710058
 20
-554.999715030521
 30
0.0
  0
VERTEX
  5
44
330
41
100
AcDbEntity
  8
Layer 1
 62
   179
420
  2301728
370
    35
100
AcDbVertex
100
AcDb2dVertex
 10
15.00046250710058
 20
-524.9998235449654
 30
0.0
  0
VERTEX
  5
45
330
41
100
AcDbEntity
  8
Layer 1
 62
   179
420
  2301728
370
    35
100
AcDbVertex
100
AcDb2dVertex
 10
785.0004907976735
 20
-524.9998235449654
 30
0.0
  0
VERTEX
  5
46
330
41
100
AcDbEntity
  8
Layer 1
 62
   179
420
  2301728
370
    35
100
AcDbVertex
100
AcDb2dVertex
 10
785.0004907976735
 20
-554.999715030521
 30
0.0
  0
SEQEND
  5
47
330
41
100
AcDbEntity
  8
Layer 1
370
    35
  0
ENDBLK
  5
3F
330
3C
100
AcDbEntity
  8
0
100
AcDbBlockEnd
  0
BLOCK
  5
54
330
52
100
AcDbEntity
  8
0
100
AcDbBlockBegin
  2
block 3
 70
     0
 71
     0
 10
0.0
 20
0.0
 30
0.0
  3
block 3
  1

  0
SPLINE
  5
56
330
52
100
AcDbEntity
  8
Layer 1
 62
    30
420
 16090918
370
    35
100
AcDbSpline
210
0.0
220
0.0
230
1.0
 70
    11
 71
     3
 72
    47
 73
    43
 74
     0
 42
0.0000000001
 43
0.0000000001
 40
0.0
 40
0.0
 40
0.0
 40
0.0
 40
1.0
 40
1.0
 40
1.0
 40
2.0
 40
2.0
 40
2.0
 40
3.0
 40
3.0
 40
3.0
 40
4.0
 40
4.0
 40
4.0
 40
5.0
 40
5.0
 40
5.0
 40
6.0
 40
6.0
 40
6.0
 40
7.0
 40
7.0
 40
7.0
 40
8.0
 40
8.0
 40
8.0
 40
9.0
 40
9.0
 40
9.0
 40
10.0
 40
10.0
 40
10.0
 40
11.0
 40
11.0
 40
11.0
 40
12.0
 40
12.0
 40
12.0
 40
13.0
 40
13.0
 40
13.0
 40
14.0
 40
14.0
 40
14.0
 40
14.0
 10
680.1062905200777
 20
-516.1338703136748
 30
0.0
 10
680.1062905200777
 20
-516.9245197275397
 30
0.0
 10
680.7091822299964
 20
-517.2407794930857
 30
0.0
 10
681.4157713140211
 20
-517.2407794930857
 30
0.0
 10
682.1323511749531
 20
-517.2407794930857
 30
0.0
 10
682.5819361357782
 20
-516.7911945322605
 30
0.0
 10
682.5967500463647
 20
-516.3512558387941
 30
0.0
 10
682.6115639569513
 20
-515.9164847885556
 30
0.0
 10
682.3893552981527
 20
-515.5705972018366
 30
0.0
 10
681.9494166046862
 20
-515.4765460950892
 30
0.0
 10
681.9494166046862
 20
-515.4765460950892
 30
0.0
 10
680.7388100511695
 20
-515.2147188382103
 30
0.0
 10
680.7388100511695
 20
-515.2147188382103
 30
0.0
 10
680.3977455981297
 20
-515.1406492852774
 30
0.0
 10
680.1951739835971
 20
-514.942900804424
 30
0.0
 10
680.1951739835971
 20
-514.4785019330124
 30
0.0
 10
680.1951739835971
 20
-514.0141030616006
 30
0.0
 10
680.5855033020758
 20
-513.6137829662147
 30
0.0
 10
681.2972600293285
 20
-513.6137829662147
 30
0.0
 10
682.0086722470326
 20
-513.6137829662147
 30
0.0
 10
682.5278481366597
 20
-513.9496797760265
 30
0.0
 10
682.5078665828453
 20
-514.5377575753587
 30
0.0
 10
682.5278481366597
 20
-513.9496797760265
 30
0.0
 10
682.0086722470326
 20
-513.6137829662147
 30
0.0
 10
681.2972600293285
 20
-513.6137829662147
 30
0.0
 10
680.5855033020758
 20
-513.6137829662147
 30
0.0
 10
680.1951739835971
 20
-514.0141030616006
 30
0.0
 10
680.1951739835971
 20
-514.4785019330124
 30
0.0
 10
680.1951739835971
 20
-514.942900804424
 30
0.0
 10
680.3880993307711
 20
-515.135826151598
 30
0.0
 10
680.7388100511695
 20
-515.2147188382103
 30
0.0
 10
680.7388100511695
 20
-515.2147188382103
 30
0.0
 10
681.9494166046862
 20
-515.4765460950892
 30
0.0
 10
681.9494166046862
 20
-515.4765460950892
 30
0.0
 10
682.39934607506
 20
-515.5705972018366
 30
0.0
 10
682.6115639569513
 20
-515.9164847885556
 30
0.0
 10
682.5967500463647
 20
-516.3512558387941
 30
0.0
 10
682.5819361357782
 20
-516.7911945322605
 30
0.0
 10
682.1323511749531
 20
-517.2407794930857
 30
0.0
 10
681.4157713140211
 20
-517.2407794930857
 30
0.0
 10
680.7091822299964
 20
-517.2407794930857
 30
0.0
 10
680.1062905200777
 20
-516.9245197275397
 30
0.0
 10
680.1062905200777
 20
-516.1338703136748
 30
0.0
  0
SPLINE
  5
57
330
52
100
AcDbEntity
  8
Layer 1
 62
    30
420
 16090918
370
    35
100
AcDbSpline
210
0.0
220
0.0
230
1.0
 70
    11
 71
     3
 72
    29
 73
    25
 74
     0
 42
0.0000000001
 43
0.0000000001
 40
0.0
 40
0.0
 40
0.0
 40
0.0
 40
1.0
 40
1.0
 40
1.0
 40
2.0
 40
2.0
 40
2.0
 40
3.0
 40
3.0
 40
3.0
 40
4.0
 40
4.0
 40
4.0
 40
5.0
 40
5.0
 40
5.0
 40
6.0
 40
6.0
 40
6.0
 40
7.0
 40
7.0
 40
7.0
 40
8.0
 40
8.0
 40
8.0
 40
8.0
 10
684.9273571421362
 20
-517.2111516719125
 30
0.0
 10
684.5122231361637
 20
-517.2111516719125
 30
0.0
 10
683.7956432752317
 20
-517.141905252659
 30
0.0
 10
683.7956432752317
 20
-515.9016708779691
 30
0.0
 10
683.7956432752317
 20
-514.6662596369584
 30
0.0
 10
684.5962834660037
 20
-514.6514457263719
 30
0.0
 10
684.9469941864022
 20
-514.6514457263719
 30
0.0
 10
685.2980494163492
 20
-514.6514457263719
 30
0.0
 10
685.7624482877608
 20
-514.9232637601581
 30
0.0
 10
685.792076108934
 20
-515.2691513468772
 30
0.0
 10
685.7624482877608
 20
-514.9232637601581
 30
0.0
 10
685.2980494163492
 20
-514.6514457263719
 30
0.0
 10
684.9469941864022
 20
-514.6514457263719
 30
0.0
 10
684.5962834660037
 20
-514.6514457263719
 30
0.0
 10
683.7956432752317
 20
-514.6662596369584
 30
0.0
 10
683.7956432752317
 20
-515.9016708779691
 30
0.0
 10
683.7956432752317
 20
-517.141905252659
 30
0.0
 10
684.5122231361637
 20
-517.2111516719125
 30
0.0
 10
684.9273571421362
 20
-517.2111516719125
 30
0.0
 10
685.3473142817882
 20
-517.2111516719125
 30
0.0
 10
685.792076108934
 20
-516.8208223534338
 30
0.0
 10
685.8068900195206
 20
-516.4056883474611
 30
0.0
 10
685.792076108934
 20
-516.8208223534338
 30
0.0
 10
685.3473142817882
 20
-517.2111516719125
 30
0.0
 10
684.9273571421362
 20
-517.2111516719125
 30
0.0
  0
SPLINE
  5
58
330
52
100
AcDbEntity
  8
Layer 1
 62
    30
420
 16090918
370
    35
100
AcDbSpline
210
0.0
220
0.0
230
1.0
 70
    11
 71
     3
 72
    29
 73
    25
 74
     0
 42
0.0000000001
 43
0.0000000001
 40
0.0
 40
0.0
 40
0.0
 40
0.0
 40
1.0
 40
1.0
 40
1.0
 40
2.0
 40
2.0
 40
2.0
 40
3.0
 40
3.0
 40
3.0
 40
4.0
 40
4.0
 40
4.0
 40
5.0
 40
5.0
 40
5.0
 40
6.0
 40
6.0
 40
6.0
 40
7.0
 40
7.0
 40
7.0
 40
8.0
 40
8.0
 40
8.0
 40
8.0
 10
688.7651935127045
 20
-516.5638182302341
 30
0.0
 10
688.6170544068389
 20
-516.776380621674
 30
0.0
 10
688.1082138036675
 20
-517.2555934036723
 30
0.0
 10
687.7027260650535
 20
-517.2407794930857
 30
0.0
 10
687.2927597023088
 20
-517.225965582499
 30
0.0
 10
686.9665091598556
 20
-517.0974635208993
 30
0.0
 10
686.9665091598556
 20
-516.6427109168463
 30
0.0
 10
686.9665091598556
 20
-516.183135179114
 30
0.0
 10
687.2431503273211
 20
-515.9905543414885
 30
0.0
 10
687.7671493506277
 20
-515.9412894760494
 30
0.0
 10
688.2859807307063
 20
-515.8916801010619
 30
0.0
 10
688.5181801664122
 20
-515.8127874144496
 30
0.0
 10
688.7651935127045
 20
-515.7435409951961
 30
0.0
 10
688.5181801664122
 20
-515.8127874144496
 30
0.0
 10
688.2859807307063
 20
-515.8916801010619
 30
0.0
 10
687.7671493506277
 20
-515.9412894760494
 30
0.0
 10
687.2431503273211
 20
-515.9905543414885
 30
0.0
 10
686.9665091598556
 20
-516.183135179114
 30
0.0
 10
686.9665091598556
 20
-516.6427109168463
 30
0.0
 10
686.9665091598556
 20
-517.0974635208993
 30
0.0
 10
687.2927597023088
 20
-517.225965582499
 30
0.0
 10
687.7027260650535
 20
-517.2407794930857
 30
0.0
 10
688.1082138036675
 20
-517.2555934036723
 30
0.0
 10
688.6170544068389
 20
-516.776380621674
 30
0.0
 10
688.7651935127045
 20
-516.5638182302341
 30
0.0
  0
SPLINE
  5
59
330
52
100
AcDbEntity
  8
Layer 1
 62
    30
420
 16090918
370
    35
100
AcDbSpline
210
0.0
220
0.0
230
1.0
 70
    11
 71
     3
 72
    29
 73
    25
 74
     0
 42
0.0000000001
 43
0.0000000001
 40
0.0
 40
0.0
 40
0.0
 40
0.0
 40
1.0
 40
1.0
 40
1.0
 40
2.0
 40
2.0
 40
2.0
 40
3.0
 40
3.0
 40
3.0
 40
4.0
 40
4.0
 40
4.0
 40
5.0
 40
5.0
 40
5.0
 40
6.0
 40
6.0
 40
6.0
 40
7.0
 40
7.0
 40
7.0
 40
8.0
 40
8.0
 40
8.0
 40
8.0
 10
689.1162487426516
 20
-517.2111516719125
 30
0.0
 10
689.1162487426516
 20
-517.2111516719125
 30
0.0
 10
688.7651935127045
 20
-517.1863469844187
 30
0.0
 10
688.7651935127045
 20
-516.8900687726872
 30
0.0
 10
688.7651935127045
 20
-516.8900687726872
 30
0.0
 10
688.7651935127045
 20
-515.2643282131978
 30
0.0
 10
688.7651935127045
 20
-515.2643282131978
 30
0.0
 10
688.7651935127045
 20
-515.0565889554373
 30
0.0
 10
688.6614961385985
 20
-514.6614365032791
 30
0.0
 10
687.9945256526541
 20
-514.6614365032791
 30
0.0
 10
687.3272106571612
 20
-514.6614365032791
 30
0.0
 10
687.0801973108689
 20
-514.9628823582385
 30
0.0
 10
687.0801973108689
 20
-515.2739744805565
 30
0.0
 10
687.0801973108689
 20
-514.9628823582385
 30
0.0
 10
687.3272106571612
 20
-514.6614365032791
 30
0.0
 10
687.9945256526541
 20
-514.6614365032791
 30
0.0
 10
688.6614961385985
 20
-514.6614365032791
 30
0.0
 10
688.7651935127045
 20
-515.0565889554373
 30
0.0
 10
688.7651935127045
 20
-515.2643282131978
 30
0.0
 10
688.7651935127045
 20
-515.2643282131978
 30
0.0
 10
688.7651935127045
 20
-516.8900687726872
 30
0.0
 10
688.7651935127045
 20
-516.8900687726872
 30
0.0
 10
688.7651935127045
 20
-517.1863469844187
 30
0.0
 10
689.1162487426516
 20
-517.2111516719125
 30
0.0
 10
689.1162487426516
 20
-517.2111516719125
 30
0.0
  0
SPLINE
  5
5A
330
52
100
AcDbEntity
  8
Layer 1
 62
    30
420
 16090918
370
    35
100
AcDbSpline
210
0.0
220
0.0
230
1.0
 70
    27
 71
     3
 72
    11
 73
     7
 74
     0
 42
0.0000000001
 43
0.0000000001
 40
0.0
 40
0.0
 40
0.0
 40
0.0
 40
1.0
 40
1.0
 40
1.0
 40
2.0
 40
2.0
 40
2.0
 40
2.0
 10
690.818814931462
 20
-517.2111516719125
 30
0.0
 10
690.818814931462
 20
-517.2111516719125
 30
0.0
 10
690.818814931462
 20
-513.6482339210671
 30
0.0
 10
690.818814931462
 20
-513.6482339210671
 30
0.0
 10
690.818814931462
 20
-513.6482339210671
 30
0.0
 10
690.818814931462
 20
-517.2111516719125
 30
0.0
 10
690.818814931462
 20
-517.2111516719125
 30
0.0
  0
SPLINE
  5
5B
330
52
100
AcDbEntity
  8
Layer 1
 62
    30
420
 16090918
370
    35
100
AcDbSpline
210
0.0
220
0.0
230
1.0
 70
    11
 71
     3
 72
    35
 73
    31
 74
     0
 42
0.0000000001
 43
0.0000000001
 40
0.0
 40
0.0
 40
0.0
 40
0.0
 40
1.0
 40
1.0
 40
1.0
 40
2.0
 40
2.0
 40
2.0
 40
3.0
 40
3.0
 40
3.0
 40
4.0
 40
4.0
 40
4.0
 40
5.0
 40
5.0
 40
5.0
 40
6.0
 40
6.0
 40
6.0
 40
7.0
 40
7.0
 40
7.0
 40
8.0
 40
8.0
 40
8.0
 40
9.0
 40
9.0
 40
9.0
 40
10.0
 40
10.0
 40
10.0
 40
10.0
 10
692.4679821402511
 20
-515.8572291462093
 30
0.0
 10
692.4679821402511
 20
-515.8572291462093
 30
0.0
 10
694.6769773653933
 20
-515.8572291462093
 30
0.0
 10
694.6769773653933
 20
-515.8572291462093
 30
0.0
 10
694.6769773653933
 20
-515.3087699449576
 30
0.0
 10
694.459591840274
 20
-514.6070039946121
 30
0.0
 10
693.6737655600886
 20
-514.6070039946121
 30
0.0
 10
692.893106923131
 20
-514.6070039946121
 30
0.0
 10
692.4631590065717
 20
-515.1406492852774
 30
0.0
 10
692.4631590065717
 20
-515.956103386636
 30
0.0
 10
692.4631590065717
 20
-516.776380621674
 30
0.0
 10
693.0167858510514
 20
-517.2111516719125
 30
0.0
 10
693.6737655600886
 20
-517.1915146276466
 30
0.0
 10
694.3359129123536
 20
-517.1715330738322
 30
0.0
 10
694.6225448567263
 20
-516.6578693369814
 30
0.0
 10
694.6573403211273
 20
-516.4749347667146
 30
0.0
 10
694.6225448567263
 20
-516.6578693369814
 30
0.0
 10
694.3359129123536
 20
-517.1715330738322
 30
0.0
 10
693.6737655600886
 20
-517.1915146276466
 30
0.0
 10
693.0167858510514
 20
-517.2111516719125
 30
0.0
 10
692.4631590065717
 20
-516.776380621674
 30
0.0
 10
692.4631590065717
 20
-515.956103386636
 30
0.0
 10
692.4631590065717
 20
-515.1406492852774
 30
0.0
 10
692.893106923131
 20
-514.6070039946121
 30
0.0
 10
693.6737655600886
 20
-514.6070039946121
 30
0.0
 10
694.459591840274
 20
-514.6070039946121
 30
0.0
 10
694.6769773653933
 20
-515.3087699449576
 30
0.0
 10
694.6769773653933
 20
-515.8572291462093
 30
0.0
 10
694.6769773653933
 20
-515.8572291462093
 30
0.0
 10
692.4679821402511
 20
-515.8572291462093
 30
0.0
 10
692.4679821402511
 20
-515.8572291462093
 30
0.0
  0
SPLINE
  5
5C
330
52
100
AcDbEntity
  8
Layer 1
 62
    30
420
 16090918
370
    35
100
AcDbSpline
210
0.0
220
0.0
230
1.0
 70
    27
 71
     3
 72
    11
 73
     7
 74
     0
 42
0.0000000001
 43
0.0000000001
 40
0.0
 40
0.0
 40
0.0
 40
0.0
 40
1.0
 40
1.0
 40
1.0
 40
2.0
 40
2.0
 40
2.0
 40
2.0
 10
696.4294974387399
 20
-515.6494898884488
 30
0.0
 10
696.4294974387399
 20
-515.6494898884488
 30
0.0
 10
696.4294974387399
 20
-515.3776718546626
 30
0.0
 10
696.4294974387399
 20
-515.3776718546626
 30
0.0
 10
696.4294974387399
 20
-515.3776718546626
 30
0.0
 10
696.4294974387399
 20
-515.6494898884488
 30
0.0
 10
696.4294974387399
 20
-515.6494898884488
 30
0.0
  0
SPLINE
  5
5D
330
52
100
AcDbEntity
  8
Layer 1
 62
    30
420
 16090918
370
    35
100
AcDbSpline
210
0.0
220
0.0
230
1.0
 70
    27
 71
     3
 72
    11
 73
     7
 74
     0
 42
0.0000000001
 43
0.0000000001
 40
0.0
 40
0.0
 40
0.0
 40
0.0
 40
1.0
 40
1.0
 40
1.0
 40
2.0
 40
2.0
 40
2.0
 40
2.0
 10
696.4294974387399
 20
-517.2111516719125
 30
0.0
 10
696.4294974387399
 20
-517.2111516719125
 30
0.0
 10
696.4294974387399
 20
-516.9393336381263
 30
0.0
 10
696.4294974387399
 20
-516.9393336381263
 30
0.0
 10
696.4294974387399
 20
-516.9393336381263
 30
0.0
 10
696.4294974387399
 20
-517.2111516719125
 30
0.0
 10
696.4294974387399
 20
-517.2111516719125
 30
0.0
  0
SPLINE
  5
5E
330
52
100
AcDbEntity
  8
Layer 1
 62
    30
420
 16090918
370
    35
100
AcDbSpline
210
0.0
220
0.0
230
1.0
 70
    27
 71
     3
 72
    11
 73
     7
 74
     0
 42
0.0000000001
 43
0.0000000001
 40
0.0
 40
0.0
 40
0.0
 40
0.0
 40
1.0
 40
1.0
 40
1.0
 40
2.0
 40
2.0
 40
2.0
 40
2.0
 10
701.0769312483419
 20
-517.2111516719125
 30
0.0
 10
701.0769312483419
 20
-517.2111516719125
 30
0.0
 10
701.0769312483419
 20
-513.6482339210671
 30
0.0
 10
701.0769312483419
 20
-513.6482339210671
 30
0.0
 10
701.0769312483419
 20
-513.6482339210671
 30
0.0
 10
701.0769312483419
 20
-517.2111516719125
 30
0.0
 10
701.0769312483419
 20
-517.2111516719125
 30
0.0
  0
SPLINE
  5
5F
330
52
100
AcDbEntity
  8
Layer 1
 62
    30
420
 16090918
370
    35
100
AcDbSpline
210
0.0
220
0.0
230
1.0
 70
    27
 71
     3
 72
    11
 73
     7
 74
     0
 42
0.0000000001
 43
0.0000000001
 40
0.0
 40
0.0
 40
0.0
 40
0.0
 40
1.0
 40
1.0
 40
1.0
 40
2.0
 40
2.0
 40
2.0
 40
2.0
 10
703.2600882573447
 20
-513.7322942509072
 30
0.0
 10
703.2600882573447
 20
-513.7322942509072
 30
0.0
 10
703.2600882573447
 20
-513.6434107873878
 30
0.0
 10
703.2600882573447
 20
-513.6434107873878
 30
0.0
 10
703.2600882573447
 20
-513.6434107873878
 30
0.0
 10
703.2600882573447
 20
-513.7322942509072
 30
0.0
 10
703.2600882573447
 20
-513.7322942509072
 30
0.0
  0
SPLINE
  5
60
330
52
100
AcDbEntity
  8
Layer 1
 62
    30
420
 16090918
370
    35
100
AcDbSpline
210
0.0
220
0.0
230
1.0
 70
    27
 71
     3
 72
    11
 73
     7
 74
     0
 42
0.0000000001
 43
0.0000000001
 40
0.0
 40
0.0
 40
0.0
 40
0.0
 40
1.0
 40
1.0
 40
1.0
 40
2.0
 40
2.0
 40
2.0
 40
2.0
 10
703.2600882573447
 20
-517.2063285382332
 30
0.0
 10
703.2600882573447
 20
-517.2063285382332
 30
0.0
 10
703.2600882573447
 20
-514.6710827706378
 30
0.0
 10
703.2600882573447
 20
-514.6710827706378
 30
0.0
 10
703.2600882573447
 20
-514.6710827706378
 30
0.0
 10
703.2600882573447
 20
-517.2159748055918
 30
0.0
 10
703.2600882573447
 20
-517.2063285382332
 30
0.0
  0
SPLINE
  5
61
330
52
100
AcDbEntity
  8
Layer 1
 62
    30
420
 16090918
370
    35
100
AcDbSpline
210
0.0
220
0.0
230
1.0
 70
    11
 71
     3
 72
    23
 73
    19
 74
     0
 42
0.0000000001
 43
0.0000000001
 40
0.0
 40
0.0
 40
0.0
 40
0.0
 40
1.0
 40
1.0
 40
1.0
 40
2.0
 40
2.0
 40
2.0
 40
3.0
 40
3.0
 40
3.0
 40
4.0
 40
4.0
 40
4.0
 40
5.0
 40
5.0
 40
5.0
 40
6.0
 40
6.0
 40
6.0
 40
6.0
 10
707.2563990202345
 20
-517.2111516719125
 30
0.0
 10
707.2563990202345
 20
-517.2111516719125
 30
0.0
 10
707.2563990202345
 20
-515.5606064249293
 30
0.0
 10
707.2563990202345
 20
-515.3332301229028
 30
0.0
 10
707.2563990202345
 20
-515.1061983304248
 30
0.0
 10
707.029022718208
 20
-514.681073547545
 30
0.0
 10
706.4013263207955
 20
-514.6762504138657
 30
0.0
 10
705.7688067897037
 20
-514.6710827706378
 30
0.0
 10
705.4377331135712
 20
-515.1602863295433
 30
0.0
 10
705.4377331135712
 20
-515.6150389335962
 30
0.0
 10
705.4377331135712
 20
-515.1602863295433
 30
0.0
 10
705.7688067897037
 20
-514.6710827706378
 30
0.0
 10
706.4013263207955
 20
-514.6762504138657
 30
0.0
 10
707.029022718208
 20
-514.681073547545
 30
0.0
 10
707.2563990202345
 20
-515.1061983304248
 30
0.0
 10
707.2563990202345
 20
-515.3332301229028
 30
0.0
 10
707.2563990202345
 20
-515.5606064249293
 30
0.0
 10
707.2563990202345
 20
-517.2111516719125
 30
0.0
 10
707.2563990202345
 20
-517.2111516719125
 30
0.0
  0
SPLINE
  5
62
330
52
100
AcDbEntity
  8
Layer 1
 62
    30
420
 16090918
370
    35
100
AcDbSpline
210
0.0
220
0.0
230
1.0
 70
    27
 71
     3
 72
    11
 73
     7
 74
     0
 42
0.0000000001
 43
0.0000000001
 40
0.0
 40
0.0
 40
0.0
 40
0.0
 40
1.0
 40
1.0
 40
1.0
 40
2.0
 40
2.0
 40
2.0
 40
2.0
 10
705.4377331135712
 20
-517.2111516719125
 30
0.0
 10
705.4377331135712
 20
-517.2111516719125
 30
0.0
 10
705.4377331135712
 20
-514.6762504138657
 30
0.0
 10
705.4377331135712
 20
-514.6762504138657
 30
0.0
 10
705.4377331135712
 20
-514.6762504138657
 30
0.0
 10
705.4377331135712
 20
-517.2111516719125
 30
0.0
 10
705.4377331135712
 20
-517.2111516719125
 30
0.0
  0
SPLINE
  5
63
330
52
100
AcDbEntity
  8
Layer 1
 62
    30
420
 16090918
370
    35
100
AcDbSpline
210
0.0
220
0.0
230
1.0
 70
    11
 71
     3
 72
    35
 73
    31
 74
     0
 42
0.0000000001
 43
0.0000000001
 40
0.0
 40
0.0
 40
0.0
 40
0.0
 40
1.0
 40
1.0
 40
1.0
 40
2.0
 40
2.0
 40
2.0
 40
3.0
 40
3.0
 40
3.0
 40
4.0
 40
4.0
 40
4.0
 40
5.0
 40
5.0
 40
5.0
 40
6.0
 40
6.0
 40
6.0
 40
7.0
 40
7.0
 40
7.0
 40
8.0
 40
8.0
 40
8.0
 40
9.0
 40
9.0
 40
9.0
 40
10.0
 40
10.0
 40
10.0
 40
10.0
 10
708.6871471752588
 20
-515.8572291462093
 30
0.0
 10
708.6871471752588
 20
-515.8572291462093
 30
0.0
 10
710.896142400401
 20
-515.8572291462093
 30
0.0
 10
710.896142400401
 20
-515.8572291462093
 30
0.0
 10
710.896142400401
 20
-515.3087699449576
 30
0.0
 10
710.6787568752817
 20
-514.6070039946121
 30
0.0
 10
709.8929305950962
 20
-514.6070039946121
 30
0.0
 10
709.1122719581386
 20
-514.6070039946121
 30
0.0
 10
708.6823240415795
 20
-515.1406492852774
 30
0.0
 10
708.6823240415795
 20
-515.956103386636
 30
0.0
 10
708.6823240415795
 20
-516.776380621674
 30
0.0
 10
709.2359508860591
 20
-517.2111516719125
 30
0.0
 10
709.8929305950962
 20
-517.1915146276466
 30
0.0
 10
710.5550779473613
 20
-517.1715330738322
 30
0.0
 10
710.841709891734
 20
-516.6578693369814
 30
0.0
 10
710.8765053561351
 20
-516.4749347667146
 30
0.0
 10
710.841709891734
 20
-516.6578693369814
 30
0.0
 10
710.5550779473613
 20
-517.1715330738322
 30
0.0
 10
709.8929305950962
 20
-517.1915146276466
 30
0.0
 10
709.2359508860591
 20
-517.2111516719125
 30
0.0
 10
708.6823240415795
 20
-516.776380621674
 30
0.0
 10
708.6823240415795
 20
-515.956103386636
 30
0.0
 10
708.6823240415795
 20
-515.1406492852774
 30
0.0
 10
709.1122719581386
 20
-514.6070039946121
 30
0.0
 10
709.8929305950962
 20
-514.6070039946121
 30
0.0
 10
710.6787568752817
 20
-514.6070039946121
 30
0.0
 10
710.896142400401
 20
-515.3087699449576
 30
0.0
 10
710.896142400401
 20
-515.8572291462093
 30
0.0
 10
710.896142400401
 20
-515.8572291462093
 30
0.0
 10
708.6871471752588
 20
-515.8572291462093
 30
0.0
 10
708.6871471752588
 20
-515.8572291462093
 30
0.0
  0
SPLINE
  5
64
330
52
100
AcDbEntity
  8
Layer 1
 62
    30
420
 16090918
370
    35
100
AcDbSpline
210
0.0
220
0.0
230
1.0
 70
    27
 71
     3
 72
    11
 73
     7
 74
     0
 42
0.0000000001
 43
0.0000000001
 40
0.0
 40
0.0
 40
0.0
 40
0.0
 40
1.0
 40
1.0
 40
1.0
 40
2.0
 40
2.0
 40
2.0
 40
2.0
 10
715.1181069175747
 20
-513.6334200104806
 30
0.0
 10
715.1181069175747
 20
-513.6334200104806
 30
0.0
 10
715.1181069175747
 20
-517.2111516719125
 30
0.0
 10
715.1181069175747
 20
-517.2111516719125
 30
0.0
 10
715.1181069175747
 20
-517.2111516719125
 30
0.0
 10
715.1181069175747
 20
-513.6334200104806
 30
0.0
 10
715.1181069175747
 20
-513.6334200104806
 30
0.0
  0
SPLINE
  5
65
330
52
100
AcDbEntity
  8
Layer 1
 62
    30
420
 16090918
370
    35
100
AcDbSpline
210
0.0
220
0.0
230
1.0
 70
    11
 71
     3
 72
    17
 73
    13
 74
     0
 42
0.0000000001
 43
0.0000000001
 40
0.0
 40
0.0
 40
0.0
 40
0.0
 40
1.0
 40
1.0
 40
1.0
 40
2.0
 40
2.0
 40
2.0
 40
3.0
 40
3.0
 40
3.0
 40
4.0
 40
4.0
 40
4.0
 40
4.0
 10
716.1657604546391
 20
-514.6614365032791
 30
0.0
 10
716.743847477064
 20
-514.6614365032791
 30
0.0
 10
717.2134139917036
 20
-514.942900804424
 30
0.0
 10
717.2134139917036
 20
-515.9361218328215
 30
0.0
 10
717.2134139917036
 20
-516.9245197275397
 30
0.0
 10
716.743847477064
 20
-517.2111516719125
 30
0.0
 10
716.1657604546391
 20
-517.2111516719125
 30
0.0
 10
715.5876734322143
 20
-517.2111516719125
 30
0.0
 10
715.1181069175747
 20
-516.9245197275397
 30
0.0
 10
715.1181069175747
 20
-515.9361218328215
 30
0.0
 10
715.1181069175747
 20
-514.942900804424
 30
0.0
 10
715.5876734322143
 20
-514.6614365032791
 30
0.0
 10
716.1657604546391
 20
-514.6614365032791
 30
0.0
  0
SPLINE
  5
66
330
52
100
AcDbEntity
  8
Layer 1
 62
    30
420
 16090918
370
    35
100
AcDbSpline
210
0.0
220
0.0
230
1.0
 70
    11
 71
     3
 72
    17
 73
    13
 74
     0
 42
0.0000000001
 43
0.0000000001
 40
0.0
 40
0.0
 40
0.0
 40
0.0
 40
1.0
 40
1.0
 40
1.0
 40
2.0
 40
2.0
 40
2.0
 40
3.0
 40
3.0
 40
3.0
 40
4.0
 40
4.0
 40
4.0
 40
4.0
 10
716.1657604546391
 20
-514.6614365032791
 30
0.0
 10
716.743847477064
 20
-514.6614365032791
 30
0.0
 10
717.2134139917036
 20
-514.942900804424
 30
0.0
 10
717.2134139917036
 20
-515.9361218328215
 30
0.0
 10
717.2134139917036
 20
-516.9245197275397
 30
0.0
 10
716.743847477064
 20
-517.2111516719125
 30
0.0
 10
716.1657604546391
 20
-517.2111516719125
 30
0.0
 10
715.5876734322143
 20
-517.2111516719125
 30
0.0
 10
715.1181069175747
 20
-516.9245197275397
 30
0.0
 10
715.1181069175747
 20
-515.9361218328215
 30
0.0
 10
715.1181069175747
 20
-514.942900804424
 30
0.0
 10
715.5876734322143
 20
-514.6614365032791
 30
0.0
 10
716.1657604546391
 20
-514.6614365032791
 30
0.0
  0
SPLINE
  5
67
330
52
100
AcDbEntity
  8
Layer 1
 62
    30
420
 16090918
370
    35
100
AcDbSpline
210
0.0
220
0.0
230
1.0
 70
    11
 71
     3
 72
    35
 73
    31
 74
     0
 42
0.0000000001
 43
0.0000000001
 40
0.0
 40
0.0
 40
0.0
 40
0.0
 40
1.0
 40
1.0
 40
1.0
 40
2.0
 40
2.0
 40
2.0
 40
3.0
 40
3.0
 40
3.0
 40
4.0
 40
4.0
 40
4.0
 40
5.0
 40
5.0
 40
5.0
 40
6.0
 40
6.0
 40
6.0
 40
7.0
 40
7.0
 40
7.0
 40
8.0
 40
8.0
 40
8.0
 40
9.0
 40
9.0
 40
9.0
 40
10.0
 40
10.0
 40
10.0
 40
10.0
 10
720.6209579361642
 20
-515.8572291462093
 30
0.0
 10
720.6209579361642
 20
-515.3087699449576
 30
0.0
 10
720.4035724110449
 20
-514.6070039946121
 30
0.0
 10
719.6177461308595
 20
-514.6070039946121
 30
0.0
 10
718.8370874939019
 20
-514.6070039946121
 30
0.0
 10
718.4071395773427
 20
-515.1406492852774
 30
0.0
 10
718.4071395773427
 20
-515.956103386636
 30
0.0
 10
718.4071395773427
 20
-516.776380621674
 30
0.0
 10
718.9607664218223
 20
-517.2111516719125
 30
0.0
 10
719.6177461308595
 20
-517.1915146276466
 30
0.0
 10
720.2798934831245
 20
-517.1715330738322
 30
0.0
 10
720.5665254274973
 20
-516.6578693369814
 30
0.0
 10
720.6013208918984
 20
-516.4749347667146
 30
0.0
 10
720.5665254274973
 20
-516.6578693369814
 30
0.0
 10
720.2798934831245
 20
-517.1715330738322
 30
0.0
 10
719.6177461308595
 20
-517.1915146276466
 30
0.0
 10
718.9607664218223
 20
-517.2111516719125
 30
0.0
 10
718.4071395773427
 20
-516.776380621674
 30
0.0
 10
718.4071395773427
 20
-515.956103386636
 30
0.0
 10
718.4071395773427
 20
-515.1406492852774
 30
0.0
 10
718.8370874939019
 20
-514.6070039946121
 30
0.0
 10
719.6177461308595
 20
-514.6070039946121
 30
0.0
 10
720.4035724110449
 20
-514.6070039946121
 30
0.0
 10
720.6209579361642
 20
-515.3087699449576
 30
0.0
 10
720.6209579361642
 20
-515.8572291462093
 30
0.0
 10
720.6209579361642
 20
-515.8572291462093
 30
0.0
 10
718.411962711022
 20
-515.8572291462093
 30
0.0
 10
718.411962711022
 20
-515.8572291462093
 30
0.0
 10
718.411962711022
 20
-515.8572291462093
 30
0.0
 10
720.6209579361642
 20
-515.8572291462093
 30
0.0
 10
720.6209579361642
 20
-515.8572291462093
 30
0.0
  0
SPLINE
  5
68
330
52
100
AcDbEntity
  8
Layer 1
 62
    30
420
 16090918
370
    35
100
AcDbSpline
210
0.0
220
0.0
230
1.0
 70
    27
 71
     3
 72
    11
 73
     7
 74
     0
 42
0.0000000001
 43
0.0000000001
 40
0.0
 40
0.0
 40
0.0
 40
0.0
 40
1.0
 40
1.0
 40
1.0
 40
2.0
 40
2.0
 40
2.0
 40
2.0
 10
722.3731334999623
 20
-517.2111516719125
 30
0.0
 10
722.3731334999623
 20
-517.2111516719125
 30
0.0
 10
722.3731334999623
 20
-513.6482339210671
 30
0.0
 10
722.3731334999623
 20
-513.6482339210671
 30
0.0
 10
722.3731334999623
 20
-513.6482339210671
 30
0.0
 10
722.3731334999623
 20
-517.2111516719125
 30
0.0
 10
722.3731334999623
 20
-517.2111516719125
 30
0.0
  0
SPLINE
  5
69
330
52
100
AcDbEntity
  8
Layer 1
 62
    30
420
 16090918
370
    35
100
AcDbSpline
210
0.0
220
0.0
230
1.0
 70
    11
 71
     3
 72
    17
 73
    13
 74
     0
 42
0.0000000001
 43
0.0000000001
 40
0.0
 40
0.0
 40
0.0
 40
0.0
 40
1.0
 40
1.0
 40
1.0
 40
2.0
 40
2.0
 40
2.0
 40
3.0
 40
3.0
 40
3.0
 40
4.0
 40
4.0
 40
4.0
 40
4.0
 10
724.017477575072
 20
-515.9164847885556
 30
0.0
 10
724.017477575072
 20
-514.9180961169302
 30
0.0
 10
724.5266626877919
 20
-514.6266410388781
 30
0.0
 10
725.1392006650694
 20
-514.6266410388781
 30
0.0
 10
725.7569062855747
 20
-514.6266410388781
 30
0.0
 10
726.2609237550668
 20
-514.9180961169302
 30
0.0
 10
726.2609237550668
 20
-515.9164847885556
 30
0.0
 10
726.2609237550668
 20
-516.9196965938604
 30
0.0
 10
725.7569062855747
 20
-517.2111516719125
 30
0.0
 10
725.1392006650694
 20
-517.2111516719125
 30
0.0
 10
724.5266626877919
 20
-517.2111516719125
 30
0.0
 10
724.017477575072
 20
-516.9196965938604
 30
0.0
 10
724.017477575072
 20
-515.9164847885556
 30
0.0
  0
SPLINE
  5
6A
330
52
100
AcDbEntity
  8
Layer 1
 62
    30
420
 16090918
370
    35
100
AcDbSpline
210
0.0
220
0.0
230
1.0
 70
    11
 71
     3
 72
    17
 73
    13
 74
     0
 42
0.0000000001
 43
0.0000000001
 40
0.0
 40
0.0
 40
0.0
 40
0.0
 40
1.0
 40
1.0
 40
1.0
 40
2.0
 40
2.0
 40
2.0
 40
3.0
 40
3.0
 40
3.0
 40
4.0
 40
4.0
 40
4.0
 40
4.0
 10
724.017477575072
 20
-515.9164847885556
 30
0.0
 10
724.017477575072
 20
-514.9180961169302
 30
0.0
 10
724.5266626877919
 20
-514.6266410388781
 30
0.0
 10
725.1392006650694
 20
-514.6266410388781
 30
0.0
 10
725.7569062855747
 20
-514.6266410388781
 30
0.0
 10
726.2609237550668
 20
-514.9180961169302
 30
0.0
 10
726.2609237550668
 20
-515.9164847885556
 30
0.0
 10
726.2609237550668
 20
-516.9196965938604
 30
0.0
 10
725.7569062855747
 20
-517.2111516719125
 30
0.0
 10
725.1392006650694
 20
-517.2111516719125
 30
0.0
 10
724.5266626877919
 20
-517.2111516719125
 30
0.0
 10
724.017477575072
 20
-516.9196965938604
 30
0.0
 10
724.017477575072
 20
-515.9164847885556
 30
0.0
  0
SPLINE
  5
6B
330
52
100
AcDbEntity
  8
Layer 1
 62
    30
420
 16090918
370
    35
100
AcDbSpline
210
0.0
220
0.0
230
1.0
 70
    11
 71
     3
 72
    29
 73
    25
 74
     0
 42
0.0000000001
 43
0.0000000001
 40
0.0
 40
0.0
 40
0.0
 40
0.0
 40
1.0
 40
1.0
 40
1.0
 40
2.0
 40
2.0
 40
2.0
 40
3.0
 40
3.0
 40
3.0
 40
4.0
 40
4.0
 40
4.0
 40
5.0
 40
5.0
 40
5.0
 40
6.0
 40
6.0
 40
6.0
 40
7.0
 40
7.0
 40
7.0
 40
8.0
 40
8.0
 40
8.0
 40
8.0
 10
728.1664060679584
 20
-517.2111516719125
 30
0.0
 10
728.1664060679584
 20
-517.2111516719125
 30
0.0
 10
729.0411158116634
 20
-514.6762504138657
 30
0.0
 10
729.0411158116634
 20
-514.6762504138657
 30
0.0
 10
729.0411158116634
 20
-514.6762504138657
 30
0.0
 10
729.9206486890477
 20
-517.2111516719125
 30
0.0
 10
729.9206486890477
 20
-517.2111516719125
 30
0.0
 10
729.9206486890477
 20
-517.2111516719125
 30
0.0
 10
730.6520424605662
 20
-514.6762504138657
 30
0.0
 10
730.6520424605662
 20
-514.6762504138657
 30
0.0
 10
730.6520424605662
 20
-514.6762504138657
 30
0.0
 10
729.9206486890477
 20
-517.2111516719125
 30
0.0
 10
729.9206486890477
 20
-517.2111516719125
 30
0.0
 10
729.9206486890477
 20
-517.2111516719125
 30
0.0
 10
729.0411158116634
 20
-514.6762504138657
 30
0.0
 10
729.0411158116634
 20
-514.6762504138657
 30
0.0
 10
729.0411158116634
 20
-514.6762504138657
 30
0.0
 10
728.1664060679584
 20
-517.2111516719125
 30
0.0
 10
728.1664060679584
 20
-517.2111516719125
 30
0.0
 10
728.1664060679584
 20
-517.2111516719125
 30
0.0
 10
727.4350122964399
 20
-514.6762504138657
 30
0.0
 10
727.4350122964399
 20
-514.6762504138657
 30
0.0
 10
727.4350122964399
 20
-514.6762504138657
 30
0.0
 10
728.1664060679584
 20
-517.2111516719125
 30
0.0
 10
728.1664060679584
 20
-517.2111516719125
 30
0.0
  0
SPLINE
  5
6C
330
52
100
AcDbEntity
  8
Layer 1
 62
    30
420
 16090918
370
    35
100
AcDbSpline
210
0.0
220
0.0
230
1.0
 70
    27
 71
     3
 72
    11
 73
     7
 74
     0
 42
0.0000000001
 43
0.0000000001
 40
0.0
 40
0.0
 40
0.0
 40
0.0
 40
1.0
 40
1.0
 40
1.0
 40
2.0
 40
2.0
 40
2.0
 40
2.0
 10
734.8784856018707
 20
-513.7322942509072
 30
0.0
 10
734.8784856018707
 20
-513.7322942509072
 30
0.0
 10
734.8784856018707
 20
-513.6434107873878
 30
0.0
 10
734.8784856018707
 20
-513.6434107873878
 30
0.0
 10
734.8784856018707
 20
-513.6434107873878
 30
0.0
 10
734.8784856018707
 20
-513.7322942509072
 30
0.0
 10
734.8784856018707
 20
-513.7322942509072
 30
0.0
  0
SPLINE
  5
6D
330
52
100
AcDbEntity
  8
Layer 1
 62
    30
420
 16090918
370
    35
100
AcDbSpline
210
0.0
220
0.0
230
1.0
 70
    27
 71
     3
 72
    11
 73
     7
 74
     0
 42
0.0000000001
 43
0.0000000001
 40
0.0
 40
0.0
 40
0.0
 40
0.0
 40
1.0
 40
1.0
 40
1.0
 40
2.0
 40
2.0
 40
2.0
 40
2.0
 10
734.8784856018707
 20
-517.2063285382332
 30
0.0
 10
734.8784856018707
 20
-517.2063285382332
 30
0.0
 10
734.8784856018707
 20
-514.6710827706378
 30
0.0
 10
734.8784856018707
 20
-514.6710827706378
 30
0.0
 10
734.8784856018707
 20
-514.6710827706378
 30
0.0
 10
734.8784856018707
 20
-517.2159748055918
 30
0.0
 10
734.8784856018707
 20
-517.2063285382332
 30
0.0
  0
SPLINE
  5
6E
330
52
100
AcDbEntity
  8
Layer 1
 62
    30
420
 16090918
370
    35
100
AcDbSpline
210
0.0
220
0.0
230
1.0
 70
    11
 71
     3
 72
    47
 73
    43
 74
     0
 42
0.0000000001
 43
0.0000000001
 40
0.0
 40
0.0
 40
0.0
 40
0.0
 40
1.0
 40
1.0
 40
1.0
 40
2.0
 40
2.0
 40
2.0
 40
3.0
 40
3.0
 40
3.0
 40
4.0
 40
4.0
 40
4.0
 40
5.0
 40
5.0
 40
5.0
 40
6.0
 40
6.0
 40
6.0
 40
7.0
 40
7.0
 40
7.0
 40
8.0
 40
8.0
 40
8.0
 40
9.0
 40
9.0
 40
9.0
 40
10.0
 40
10.0
 40
10.0
 40
11.0
 40
11.0
 40
11.0
 40
12.0
 40
12.0
 40
12.0
 40
13.0
 40
13.0
 40
13.0
 40
14.0
 40
14.0
 40
14.0
 40
14.0
 10
737.4664413303904
 20
-514.6366318157853
 30
0.0
 10
736.8435680666572
 20
-514.6218179051988
 30
0.0
 10
736.5572806318329
 20
-514.8195663860521
 30
0.0
 10
736.5572806318329
 20
-515.1999049276236
 30
0.0
 10
736.5572806318329
 20
-515.5854111124231
 30
0.0
 10
736.8783635310582
 20
-515.7039223971157
 30
0.0
 10
736.9968748157509
 20
-515.7387178615168
 30
0.0
 10
736.9968748157509
 20
-515.7387178615168
 30
0.0
 10
737.9308402018021
 20
-516.0153590289823
 30
0.0
 10
737.9308402018021
 20
-516.0153590289823
 30
0.0
 10
738.0545191297225
 20
-516.0449868501554
 30
0.0
 10
738.350797341454
 20
-516.1783120454346
 30
0.0
 10
738.350797341454
 20
-516.5441811859681
 30
0.0
 10
738.350797341454
 20
-516.9097058169532
 30
0.0
 10
737.9604680229752
 20
-517.2111516719125
 30
0.0
 10
737.4664413303904
 20
-517.2111516719125
 30
0.0
 10
736.972070128257
 20
-517.2111516719125
 30
0.0
 10
736.5224851674319
 20
-516.9493244150335
 30
0.0
 10
736.5224851674319
 20
-516.5638182302341
 30
0.0
 10
736.5224851674319
 20
-516.9493244150335
 30
0.0
 10
736.972070128257
 20
-517.2111516719125
 30
0.0
 10
737.4664413303904
 20
-517.2111516719125
 30
0.0
 10
737.9604680229752
 20
-517.2111516719125
 30
0.0
 10
738.350797341454
 20
-516.9097058169532
 30
0.0
 10
738.350797341454
 20
-516.5441811859681
 30
0.0
 10
738.350797341454
 20
-516.1783120454346
 30
0.0
 10
738.0545191297225
 20
-516.0449868501554
 30
0.0
 10
737.9308402018021
 20
-516.0153590289823
 30
0.0
 10
737.9308402018021
 20
-516.0153590289823
 30
0.0
 10
736.9968748157509
 20
-515.7387178615168
 30
0.0
 10
736.9968748157509
 20
-515.7387178615168
 30
0.0
 10
736.8783635310582
 20
-515.7039223971157
 30
0.0
 10
736.5572806318329
 20
-515.5854111124231
 30
0.0
 10
736.5572806318329
 20
-515.1999049276236
 30
0.0
 10
736.5572806318329
 20
-514.8195663860521
 30
0.0
 10
736.8435680666572
 20
-514.6218179051988
 30
0.0
 10
737.4664413303904
 20
-514.6366318157853
 30
0.0
 10
738.0889700845751
 20
-514.6614365032791
 30
0.0
 10
738.2519231010274
 20
-515.0073240899982
 30
0.0
 10
738.2422768336686
 20
-515.1306585083702
 30
0.0
 10
738.2519231010274
 20
-515.0073240899982
 30
0.0
 10
738.0889700845751
 20
-514.6614365032791
 30
0.0
 10
737.4664413303904
 20
-514.6366318157853
 30
0.0
  0
SPLINE
  5
6F
330
52
100
AcDbEntity
  8
Layer 1
 62
    30
420
 16090918
370
    35
100
AcDbSpline
210
0.0
220
0.0
230
1.0
 70
    11
 71
     3
 72
    17
 73
    13
 74
     0
 42
0.0000000001
 43
0.0000000001
 40
0.0
 40
0.0
 40
0.0
 40
0.0
 40
1.0
 40
1.0
 40
1.0
 40
2.0
 40
2.0
 40
2.0
 40
3.0
 40
3.0
 40
3.0
 40
4.0
 40
4.0
 40
4.0
 40
4.0
 10
742.8104734471099
 20
-517.2111516719125
 30
0.0
 10
742.8104734471099
 20
-517.2111516719125
 30
0.0
 10
742.8104734471099
 20
-513.6482339210671
 30
0.0
 10
742.8104734471099
 20
-513.6482339210671
 30
0.0
 10
742.8104734471099
 20
-514.2559487646652
 30
0.0
 10
742.2223956477777
 20
-514.3992647368516
 30
0.0
 10
741.9702146582575
 20
-514.419246290666
 30
0.0
 10
742.2223956477777
 20
-514.3992647368516
 30
0.0
 10
742.8104734471099
 20
-514.2559487646652
 30
0.0
 10
742.8104734471099
 20
-513.6482339210671
 30
0.0
 10
742.8104734471099
 20
-513.6482339210671
 30
0.0
 10
742.8104734471099
 20
-517.2111516719125
 30
0.0
 10
742.8104734471099
 20
-517.2111516719125
 30
0.0
  0
SPLINE
  5
70
330
52
100
AcDbEntity
  8
Layer 1
 62
    30
420
 16090918
370
    35
100
AcDbSpline
210
0.0
220
0.0
230
1.0
 70
    11
 71
     3
 72
    17
 73
    13
 74
     0
 42
0.0000000001
 43
0.0000000001
 40
0.0
 40
0.0
 40
0.0
 40
0.0
 40
1.0
 40
1.0
 40
1.0
 40
2.0
 40
2.0
 40
2.0
 40
3.0
 40
3.0
 40
3.0
 40
4.0
 40
4.0
 40
4.0
 40
4.0
 10
744.4692869232578
 20
-515.4321043633295
 30
0.0
 10
744.4692869232578
 20
-514.4536972455186
 30
0.0
 10
744.6770261810183
 20
-513.6530570547465
 30
0.0
 10
745.5465682814953
 20
-513.6530570547465
 30
0.0
 10
746.416454891521
 20
-513.6530570547465
 30
0.0
 10
746.623849639733
 20
-514.4536972455186
 30
0.0
 10
746.623849639733
 20
-515.4321043633295
 30
0.0
 10
746.623849639733
 20
-516.4156791243684
 30
0.0
 10
746.416454891521
 20
-517.2111516719125
 30
0.0
 10
745.5465682814953
 20
-517.2111516719125
 30
0.0
 10
744.6770261810183
 20
-517.2111516719125
 30
0.0
 10
744.4692869232578
 20
-516.4156791243684
 30
0.0
 10
744.4692869232578
 20
-515.4321043633295
 30
0.0
  0
SPLINE
  5
71
330
52
100
AcDbEntity
  8
Layer 1
 62
    30
420
 16090918
370
    35
100
AcDbSpline
210
0.0
220
0.0
230
1.0
 70
    11
 71
     3
 72
    17
 73
    13
 74
     0
 42
0.0000000001
 43
0.0000000001
 40
0.0
 40
0.0
 40
0.0
 40
0.0
 40
1.0
 40
1.0
 40
1.0
 40
2.0
 40
2.0
 40
2.0
 40
3.0
 40
3.0
 40
3.0
 40
4.0
 40
4.0
 40
4.0
 40
4.0
 10
744.4692869232578
 20
-515.4321043633295
 30
0.0
 10
744.4692869232578
 20
-514.4536972455186
 30
0.0
 10
744.6770261810183
 20
-513.6530570547465
 30
0.0
 10
745.5465682814953
 20
-513.6530570547465
 30
0.0
 10
746.416454891521
 20
-513.6530570547465
 30
0.0
 10
746.623849639733
 20
-514.4536972455186
 30
0.0
 10
746.623849639733
 20
-515.4321043633295
 30
0.0
 10
746.623849639733
 20
-516.4156791243684
 30
0.0
 10
746.416454891521
 20
-517.2111516719125
 30
0.0
 10
745.5465682814953
 20
-517.2111516719125
 30
0.0
 10
744.6770261810183
 20
-517.2111516719125
 30
0.0
 10
744.4692869232578
 20
-516.4156791243684
 30
0.0
 10
744.4692869232578
 20
-515.4321043633295
 30
0.0
  0
SPLINE
  5
72
330
52
100
AcDbEntity
  8
Layer 1
 62
    30
420
 16090918
370
    35
100
AcDbSpline
210
0.0
220
0.0
230
1.0
 70
    11
 71
     3
 72
    17
 73
    13
 74
     0
 42
0.0000000001
 43
0.0000000001
 40
0.0
 40
0.0
 40
0.0
 40
0.0
 40
1.0
 40
1.0
 40
1.0
 40
2.0
 40
2.0
 40
2.0
 40
3.0
 40
3.0
 40
3.0
 40
4.0
 40
4.0
 40
4.0
 40
4.0
 10
747.7931150474268
 20
-515.4321043633295
 30
0.0
 10
747.7931150474268
 20
-514.4536972455186
 30
0.0
 10
748.0008543051873
 20
-513.6530570547465
 30
0.0
 10
748.8703964056643
 20
-513.6530570547465
 30
0.0
 10
749.74028301569
 20
-513.6530570547465
 30
0.0
 10
749.947677763902
 20
-514.4536972455186
 30
0.0
 10
749.947677763902
 20
-515.4321043633295
 30
0.0
 10
749.947677763902
 20
-516.4156791243684
 30
0.0
 10
749.74028301569
 20
-517.2111516719125
 30
0.0
 10
748.8703964056643
 20
-517.2111516719125
 30
0.0
 10
748.0008543051873
 20
-517.2111516719125
 30
0.0
 10
747.7931150474268
 20
-516.4156791243684
 30
0.0
 10
747.7931150474268
 20
-515.4321043633295
 30
0.0
  0
SPLINE
  5
73
330
52
100
AcDbEntity
  8
Layer 1
 62
    30
420
 16090918
370
    35
100
AcDbSpline
210
0.0
220
0.0
230
1.0
 70
    11
 71
     3
 72
    17
 73
    13
 74
     0
 42
0.0000000001
 43
0.0000000001
 40
0.0
 40
0.0
 40
0.0
 40
0.0
 40
1.0
 40
1.0
 40
1.0
 40
2.0
 40
2.0
 40
2.0
 40
3.0
 40
3.0
 40
3.0
 40
4.0
 40
4.0
 40
4.0
 40
4.0
 10
747.7931150474268
 20
-515.4321043633295
 30
0.0
 10
747.7931150474268
 20
-514.4536972455186
 30
0.0
 10
748.0008543051873
 20
-513.6530570547465
 30
0.0
 10
748.8703964056643
 20
-513.6530570547465
 30
0.0
 10
749.74028301569
 20
-513.6530570547465
 30
0.0
 10
749.947677763902
 20
-514.4536972455186
 30
0.0
 10
749.947677763902
 20
-515.4321043633295
 30
0.0
 10
749.947677763902
 20
-516.4156791243684
 30
0.0
 10
749.74028301569
 20
-517.2111516719125
 30
0.0
 10
748.8703964056643
 20
-517.2111516719125
 30
0.0
 10
748.0008543051873
 20
-517.2111516719125
 30
0.0
 10
747.7931150474268
 20
-516.4156791243684
 30
0.0
 10
747.7931150474268
 20
-515.4321043633295
 30
0.0
  0
SPLINE
  5
74
330
52
100
AcDbEntity
  8
Layer 1
 62
    30
420
 16090918
370
    35
100
AcDbSpline
210
0.0
220
0.0
230
1.0
 70
    11
 71
     3
 72
    23
 73
    19
 74
     0
 42
0.0000000001
 43
0.0000000001
 40
0.0
 40
0.0
 40
0.0
 40
0.0
 40
1.0
 40
1.0
 40
1.0
 40
2.0
 40
2.0
 40
2.0
 40
3.0
 40
3.0
 40
3.0
 40
4.0
 40
4.0
 40
4.0
 40
5.0
 40
5.0
 40
5.0
 40
6.0
 40
6.0
 40
6.0
 40
6.0
 10
753.3355846640967
 20
-517.2111516719125
 30
0.0
 10
753.3355846640967
 20
-517.2111516719125
 30
0.0
 10
753.3355846640967
 20
-515.5606064249293
 30
0.0
 10
753.3355846640967
 20
-515.3332301229028
 30
0.0
 10
753.3355846640967
 20
-515.1061983304248
 30
0.0
 10
753.1874455582309
 20
-514.681073547545
 30
0.0
 10
752.5597491608185
 20
-514.6762504138657
 30
0.0
 10
751.9323972729544
 20
-514.6710827706378
 30
0.0
 10
751.650588462261
 20
-515.1602863295433
 30
0.0
 10
751.650588462261
 20
-515.6150389335962
 30
0.0
 10
751.650588462261
 20
-515.1602863295433
 30
0.0
 10
751.9323972729544
 20
-514.6710827706378
 30
0.0
 10
752.5597491608185
 20
-514.6762504138657
 30
0.0
 10
753.1874455582309
 20
-514.681073547545
 30
0.0
 10
753.3355846640967
 20
-515.1061983304248
 30
0.0
 10
753.3355846640967
 20
-515.3332301229028
 30
0.0
 10
753.3355846640967
 20
-515.5606064249293
 30
0.0
 10
753.3355846640967
 20
-517.2111516719125
 30
0.0
 10
753.3355846640967
 20
-517.2111516719125
 30
0.0
  0
SPLINE
  5
75
330
52
100
AcDbEntity
  8
Layer 1
 62
    30
420
 16090918
370
    35
100
AcDbSpline
210
0.0
220
0.0
230
1.0
 70
    27
 71
     3
 72
    11
 73
     7
 74
     0
 42
0.0000000001
 43
0.0000000001
 40
0.0
 40
0.0
 40
0.0
 40
0.0
 40
1.0
 40
1.0
 40
1.0
 40
2.0
 40
2.0
 40
2.0
 40
2.0
 10
751.650588462261
 20
-517.2111516719125
 30
0.0
 10
751.650588462261
 20
-517.2111516719125
 30
0.0
 10
751.650588462261
 20
-514.6762504138657
 30
0.0
 10
751.650588462261
 20
-514.6762504138657
 30
0.0
 10
751.650588462261
 20
-514.6762504138657
 30
0.0
 10
751.650588462261
 20
-517.2111516719125
 30
0.0
 10
751.650588462261
 20
-517.2111516719125
 30
0.0
  0
SPLINE
  5
76
330
52
100
AcDbEntity
  8
Layer 1
 62
    30
420
 16090918
370
    35
100
AcDbSpline
210
0.0
220
0.0
230
1.0
 70
    11
 71
     3
 72
    23
 73
    19
 74
     0
 42
0.0000000001
 43
0.0000000001
 40
0.0
 40
0.0
 40
0.0
 40
0.0
 40
1.0
 40
1.0
 40
1.0
 40
2.0
 40
2.0
 40
2.0
 40
3.0
 40
3.0
 40
3.0
 40
4.0
 40
4.0
 40
4.0
 40
5.0
 40
5.0
 40
5.0
 40
6.0
 40
6.0
 40
6.0
 40
6.0
 10
755.0357392860675
 20
-517.2111516719125
 30
0.0
 10
755.0357392860675
 20
-517.2111516719125
 30
0.0
 10
755.0357392860675
 20
-515.5606064249293
 30
0.0
 10
755.0357392860675
 20
-515.3332301229028
 30
0.0
 10
755.0357392860675
 20
-515.1061983304248
 30
0.0
 10
754.8183537609482
 20
-514.681073547545
 30
0.0
 10
754.1906573635357
 20
-514.6762504138657
 30
0.0
 10
753.5629609661232
 20
-514.6710827706378
 30
0.0
 10
753.3355846640967
 20
-515.1602863295433
 30
0.0
 10
753.3355846640967
 20
-515.6150389335962
 30
0.0
 10
753.3355846640967
 20
-515.1602863295433
 30
0.0
 10
753.5629609661232
 20
-514.6710827706378
 30
0.0
 10
754.1906573635357
 20
-514.6762504138657
 30
0.0
 10
754.8183537609482
 20
-514.681073547545
 30
0.0
 10
755.0357392860675
 20
-515.1061983304248
 30
0.0
 10
755.0357392860675
 20
-515.3332301229028
 30
0.0
 10
755.0357392860675
 20
-515.5606064249293
 30
0.0
 10
755.0357392860675
 20
-517.2111516719125
 30
0.0
 10
755.0357392860675
 20
-517.2111516719125
 30
0.0
  0
SPLINE
  5
77
330
52
100
AcDbEntity
  8
Layer 1
 62
    30
420
 16090918
370
    35
100
AcDbSpline
210
0.0
220
0.0
230
1.0
 70
    11
 71
     3
 72
    23
 73
    19
 74
     0
 42
0.0000000001
 43
0.0000000001
 40
0.0
 40
0.0
 40
0.0
 40
0.0
 40
1.0
 40
1.0
 40
1.0
 40
2.0
 40
2.0
 40
2.0
 40
3.0
 40
3.0
 40
3.0
 40
4.0
 40
4.0
 40
4.0
 40
5.0
 40
5.0
 40
5.0
 40
6.0
 40
6.0
 40
6.0
 40
6.0
 10
758.7585094674284
 20
-517.2111516719125
 30
0.0
 10
758.7585094674284
 20
-517.2111516719125
 30
0.0
 10
758.7585094674284
 20
-515.5606064249293
 30
0.0
 10
758.7585094674284
 20
-515.3332301229028
 30
0.0
 10
758.7585094674284
 20
-515.1061983304248
 30
0.0
 10
758.6103703615627
 20
-514.681073547545
 30
0.0
 10
757.9830184736987
 20
-514.6762504138657
 30
0.0
 10
757.3553220762863
 20
-514.6710827706378
 30
0.0
 10
757.0735132655927
 20
-515.1602863295433
 30
0.0
 10
757.0735132655927
 20
-515.6150389335962
 30
0.0
 10
757.0735132655927
 20
-515.1602863295433
 30
0.0
 10
757.3553220762863
 20
-514.6710827706378
 30
0.0
 10
757.9830184736987
 20
-514.6762504138657
 30
0.0
 10
758.6103703615627
 20
-514.681073547545
 30
0.0
 10
758.7585094674284
 20
-515.1061983304248
 30
0.0
 10
758.7585094674284
 20
-515.3332301229028
 30
0.0
 10
758.7585094674284
 20
-515.5606064249293
 30
0.0
 10
758.7585094674284
 20
-517.2111516719125
 30
0.0
 10
758.7585094674284
 20
-517.2111516719125
 30
0.0
  0
SPLINE
  5
78
330
52
100
AcDbEntity
  8
Layer 1
 62
    30
420
 16090918
370
    35
100
AcDbSpline
210
0.0
220
0.0
230
1.0
 70
    27
 71
     3
 72
    11
 73
     7
 74
     0
 42
0.0000000001
 43
0.0000000001
 40
0.0
 40
0.0
 40
0.0
 40
0.0
 40
1.0
 40
1.0
 40
1.0
 40
2.0
 40
2.0
 40
2.0
 40
2.0
 10
757.0735132655927
 20
-517.2111516719125
 30
0.0
 10
757.0735132655927
 20
-517.2111516719125
 30
0.0
 10
757.0735132655927
 20
-514.6762504138657
 30
0.0
 10
757.0735132655927
 20
-514.6762504138657
 30
0.0
 10
757.0735132655927
 20
-514.6762504138657
 30
0.0
 10
757.0735132655927
 20
-517.2111516719125
 30
0.0
 10
757.0735132655927
 20
-517.2111516719125
 30
0.0
  0
SPLINE
  5
79
330
52
100
AcDbEntity
  8
Layer 1
 62
    30
420
 16090918
370
    35
100
AcDbSpline
210
0.0
220
0.0
230
1.0
 70
    11
 71
     3
 72
    23
 73
    19
 74
     0
 42
0.0000000001
 43
0.0000000001
 40
0.0
 40
0.0
 40
0.0
 40
0.0
 40
1.0
 40
1.0
 40
1.0
 40
2.0
 40
2.0
 40
2.0
 40
3.0
 40
3.0
 40
3.0
 40
4.0
 40
4.0
 40
4.0
 40
5.0
 40
5.0
 40
5.0
 40
6.0
 40
6.0
 40
6.0
 40
6.0
 10
760.4586640893992
 20
-517.2111516719125
 30
0.0
 10
760.4586640893992
 20
-517.2111516719125
 30
0.0
 10
760.4586640893992
 20
-515.5606064249293
 30
0.0
 10
760.4586640893992
 20
-515.3332301229028
 30
0.0
 10
760.4586640893992
 20
-515.1061983304248
 30
0.0
 10
760.24127856428
 20
-514.681073547545
 30
0.0
 10
759.6135821668674
 20
-514.6762504138657
 30
0.0
 10
758.985885769455
 20
-514.6710827706378
 30
0.0
 10
758.7585094674284
 20
-515.1602863295433
 30
0.0
 10
758.7585094674284
 20
-515.6150389335962
 30
0.0
 10
758.7585094674284
 20
-515.1602863295433
 30
0.0
 10
758.985885769455
 20
-514.6710827706378
 30
0.0
 10
759.6135821668674
 20
-514.6762504138657
 30
0.0
 10
760.24127856428
 20
-514.681073547545
 30
0.0
 10
760.4586640893992
 20
-515.1061983304248
 30
0.0
 10
760.4586640893992
 20
-515.3332301229028
 30
0.0
 10
760.4586640893992
 20
-515.5606064249293
 30
0.0
 10
760.4586640893992
 20
-517.2111516719125
 30
0.0
 10
760.4586640893992
 20
-517.2111516719125
 30
0.0
  0
SPLINE
  5
7A
330
52
100
AcDbEntity
  8
Layer 1
 62
    30
420
 16090918
370
    35
100
AcDbSpline
210
0.0
220
0.0
230
1.0
 70
    27
 71
     3
 72
    11
 73
     7
 74
     0
 42
0.0000000001
 43
0.0000000001
 40
0.0
 40
0.0
 40
0.0
 40
0.0
 40
1.0
 40
1.0
 40
1.0
 40
2.0
 40
2.0
 40
2.0
 40
2.0
 10
764.9658825127516
 20
-517.2111516719125
 30
0.0
 10
764.9658825127516
 20
-517.2111516719125
 30
0.0
 10
764.9658825127516
 20
-513.6482339210671
 30
0.0
 10
764.9658825127516
 20
-513.6482339210671
 30
0.0
 10
764.9658825127516
 20
-513.6482339210671
 30
0.0
 10
764.9658825127516
 20
-517.2111516719125
 30
0.0
 10
764.9658825127516
 20
-517.2111516719125
 30
0.0
  0
SPLINE
  5
7B
330
52
100
AcDbEntity
  8
Layer 1
 62
    30
420
 16090918
370
    35
100
AcDbSpline
210
0.0
220
0.0
230
1.0
 70
    11
 71
     3
 72
    17
 73
    13
 74
     0
 42
0.0000000001
 43
0.0000000001
 40
0.0
 40
0.0
 40
0.0
 40
0.0
 40
1.0
 40
1.0
 40
1.0
 40
2.0
 40
2.0
 40
2.0
 40
3.0
 40
3.0
 40
3.0
 40
4.0
 40
4.0
 40
4.0
 40
4.0
 10
766.6102265878613
 20
-515.9164847885556
 30
0.0
 10
766.6102265878613
 20
-514.9180961169302
 30
0.0
 10
767.1194117005813
 20
-514.6266410388781
 30
0.0
 10
767.7319496778587
 20
-514.6266410388781
 30
0.0
 10
768.349655298364
 20
-514.6266410388781
 30
0.0
 10
768.8536727678561
 20
-514.9180961169302
 30
0.0
 10
768.8536727678561
 20
-515.9164847885556
 30
0.0
 10
768.8536727678561
 20
-516.9196965938604
 30
0.0
 10
768.349655298364
 20
-517.2111516719125
 30
0.0
 10
767.7319496778587
 20
-517.2111516719125
 30
0.0
 10
767.1194117005813
 20
-517.2111516719125
 30
0.0
 10
766.6102265878613
 20
-516.9196965938604
 30
0.0
 10
766.6102265878613
 20
-515.9164847885556
 30
0.0
  0
SPLINE
  5
7C
330
52
100
AcDbEntity
  8
Layer 1
 62
    30
420
 16090918
370
    35
100
AcDbSpline
210
0.0
220
0.0
230
1.0
 70
    11
 71
     3
 72
    17
 73
    13
 74
     0
 42
0.0000000001
 43
0.0000000001
 40
0.0
 40
0.0
 40
0.0
 40
0.0
 40
1.0
 40
1.0
 40
1.0
 40
2.0
 40
2.0
 40
2.0
 40
3.0
 40
3.0
 40
3.0
 40
4.0
 40
4.0
 40
4.0
 40
4.0
 10
766.6102265878613
 20
-515.9164847885556
 30
0.0
 10
766.6102265878613
 20
-514.9180961169302
 30
0.0
 10
767.1194117005813
 20
-514.6266410388781
 30
0.0
 10
767.7319496778587
 20
-514.6266410388781
 30
0.0
 10
768.349655298364
 20
-514.6266410388781
 30
0.0
 10
768.8536727678561
 20
-514.9180961169302
 30
0.0
 10
768.8536727678561
 20
-515.9164847885556
 30
0.0
 10
768.8536727678561
 20
-516.9196965938604
 30
0.0
 10
768.349655298364
 20
-517.2111516719125
 30
0.0
 10
767.7319496778587
 20
-517.2111516719125
 30
0.0
 10
767.1194117005813
 20
-517.2111516719125
 30
0.0
 10
766.6102265878613
 20
-516.9196965938604
 30
0.0
 10
766.6102265878613
 20
-515.9164847885556
 30
0.0
  0
SPLINE
  5
7D
330
52
100
AcDbEntity
  8
Layer 1
 62
    30
420
 16090918
370
    35
100
AcDbSpline
210
0.0
220
0.0
230
1.0
 70
    11
 71
     3
 72
    23
 73
    19
 74
     0
 42
0.0000000001
 43
0.0000000001
 40
0.0
 40
0.0
 40
0.0
 40
0.0
 40
1.0
 40
1.0
 40
1.0
 40
2.0
 40
2.0
 40
2.0
 40
3.0
 40
3.0
 40
3.0
 40
4.0
 40
4.0
 40
4.0
 40
5.0
 40
5.0
 40
5.0
 40
6.0
 40
6.0
 40
6.0
 40
6.0
 10
772.3800725065578
 20
-517.2111516719125
 30
0.0
 10
772.3800725065578
 20
-517.2111516719125
 30
0.0
 10
772.3800725065578
 20
-515.5606064249293
 30
0.0
 10
772.3800725065578
 20
-515.3332301229028
 30
0.0
 10
772.3800725065578
 20
-515.1061983304248
 30
0.0
 10
772.1526962045313
 20
-514.681073547545
 30
0.0
 10
771.5249998071188
 20
-514.6762504138657
 30
0.0
 10
770.892480276027
 20
-514.6710827706378
 30
0.0
 10
770.5614065998944
 20
-515.1602863295433
 30
0.0
 10
770.5614065998944
 20
-515.6150389335962
 30
0.0
 10
770.5614065998944
 20
-515.1602863295433
 30
0.0
 10
770.892480276027
 20
-514.6710827706378
 30
0.0
 10
771.5249998071188
 20
-514.6762504138657
 30
0.0
 10
772.1526962045313
 20
-514.681073547545
 30
0.0
 10
772.3800725065578
 20
-515.1061983304248
 30
0.0
 10
772.3800725065578
 20
-515.3332301229028
 30
0.0
 10
772.3800725065578
 20
-515.5606064249293
 30
0.0
 10
772.3800725065578
 20
-517.2111516719125
 30
0.0
 10
772.3800725065578
 20
-517.2111516719125
 30
0.0
  0
SPLINE
  5
7E
330
52
100
AcDbEntity
  8
Layer 1
 62
    30
420
 16090918
370
    35
100
AcDbSpline
210
0.0
220
0.0
230
1.0
 70
    27
 71
     3
 72
    11
 73
     7
 74
     0
 42
0.0000000001
 43
0.0000000001
 40
0.0
 40
0.0
 40
0.0
 40
0.0
 40
1.0
 40
1.0
 40
1.0
 40
2.0
 40
2.0
 40
2.0
 40
2.0
 10
770.5614065998944
 20
-517.2111516719125
 30
0.0
 10
770.5614065998944
 20
-517.2111516719125
 30
0.0
 10
770.5614065998944
 20
-514.6762504138657
 30
0.0
 10
770.5614065998944
 20
-514.6762504138657
 30
0.0
 10
770.5614065998944
 20
-514.6762504138657
 30
0.0
 10
770.5614065998944
 20
-517.2111516719125
 30
0.0
 10
770.5614065998944
 20
-517.2111516719125
 30
0.0
  0
SPLINE
  5
7F
330
52
100
AcDbEntity
  8
Layer 1
 62
    30
420
 16090918
370
    35
100
AcDbSpline
210
0.0
220
0.0
230
1.0
 70
    11
 71
     3
 72
    17
 73
    13
 74
     0
 42
0.0000000001
 43
0.0000000001
 40
0.0
 40
0.0
 40
0.0
 40
0.0
 40
1.0
 40
1.0
 40
1.0
 40
2.0
 40
2.0
 40
2.0
 40
3.0
 40
3.0
 40
3.0
 40
4.0
 40
4.0
 40
4.0
 40
4.0
 10
774.8488279312878
 20
-514.6514457263719
 30
0.0
 10
775.4220918200334
 20
-514.6514457263719
 30
0.0
 10
775.8964814683522
 20
-514.9380776707446
 30
0.0
 10
775.8964814683522
 20
-515.9264755654629
 30
0.0
 10
775.8964814683522
 20
-516.9145289506325
 30
0.0
 10
775.4220918200334
 20
-517.2011608950053
 30
0.0
 10
774.8488279312878
 20
-517.2011608950053
 30
0.0
 10
774.2755640425422
 20
-517.2011608950053
 30
0.0
 10
773.8059975279027
 20
-516.9145289506325
 30
0.0
 10
773.8059975279027
 20
-515.9264755654629
 30
0.0
 10
773.8059975279027
 20
-514.9380776707446
 30
0.0
 10
774.2755640425422
 20
-514.6514457263719
 30
0.0
 10
774.8488279312878
 20
-514.6514457263719
 30
0.0
  0
SPLINE
  5
80
330
52
100
AcDbEntity
  8
Layer 1
 62
    30
420
 16090918
370
    35
100
AcDbSpline
210
0.0
220
0.0
230
1.0
 70
    11
 71
     3
 72
    17
 73
    13
 74
     0
 42
0.0000000001
 43
0.0000000001
 40
0.0
 40
0.0
 40
0.0
 40
0.0
 40
1.0
 40
1.0
 40
1.0
 40
2.0
 40
2.0
 40
2.0
 40
3.0
 40
3.0
 40
3.0
 40
4.0
 40
4.0
 40
4.0
 40
4.0
 10
774.8488279312878
 20
-514.6514457263719
 30
0.0
 10
775.4220918200334
 20
-514.6514457263719
 30
0.0
 10
775.8964814683522
 20
-514.9380776707446
 30
0.0
 10
775.8964814683522
 20
-515.9264755654629
 30
0.0
 10
775.8964814683522
 20
-516.9145289506325
 30
0.0
 10
775.4220918200334
 20
-517.2011608950053
 30
0.0
 10
774.8488279312878
 20
-517.2011608950053
 30
0.0
 10
774.2755640425422
 20
-517.2011608950053
 30
0.0
 10
773.8059975279027
 20
-516.9145289506325
 30
0.0
 10
773.8059975279027
 20
-515.9264755654629
 30
0.0
 10
773.8059975279027
 20
-514.9380776707446
 30
0.0
 10
774.2755640425422
 20
-514.6514457263719
 30
0.0
 10
774.8488279312878
 20
-514.6514457263719
 30
0.0
  0
SPLINE
  5
81
330
52
100
AcDbEntity
  8
Layer 1
 62
    30
420
 16090918
370
    35
100
AcDbSpline
210
0.0
220
0.0
230
1.0
 70
    11
 71
     3
 72
    23
 73
    19
 74
     0
 42
0.0000000001
 43
0.0000000001
 40
0.0
 40
0.0
 40
0.0
 40
0.0
 40
1.0
 40
1.0
 40
1.0
 40
2.0
 40
2.0
 40
2.0
 40
3.0
 40
3.0
 40
3.0
 40
4.0
 40
4.0
 40
4.0
 40
5.0
 40
5.0
 40
5.0
 40
6.0
 40
6.0
 40
6.0
 40
6.0
 10
773.9541366337685
 20
-517.7251599183118
 30
0.0
 10
774.0085691424354
 20
-518.0214381300433
 30
0.0
 10
774.3692706397411
 20
-518.1895587897235
 30
0.0
 10
774.8636418418744
 20
-518.2091958339894
 30
0.0
 10
775.3676593113664
 20
-518.2240097445759
 30
0.0
 10
775.8964814683522
 20
-517.8536619799116
 30
0.0
 10
775.8964814683522
 20
-517.3940862421792
 30
0.0
 10
775.8964814683522
 20
-516.9293428612191
 30
0.0
 10
775.8964814683522
 20
-514.6910643244522
 30
0.0
 10
775.8964814683522
 20
-514.6910643244522
 30
0.0
 10
775.8964814683522
 20
-514.6910643244522
 30
0.0
 10
775.8964814683522
 20
-516.9293428612191
 30
0.0
 10
775.8964814683522
 20
-517.3940862421792
 30
0.0
 10
775.8964814683522
 20
-517.8536619799116
 30
0.0
 10
775.3676593113664
 20
-518.2240097445759
 30
0.0
 10
774.8636418418744
 20
-518.2091958339894
 30
0.0
 10
774.3692706397411
 20
-518.1895587897235
 30
0.0
 10
774.0085691424354
 20
-518.0214381300433
 30
0.0
 10
773.9541366337685
 20
-517.7251599183118
 30
0.0
  0
ENDBLK
  5
55
330
52
100
AcDbEntity
  8
0
100
AcDbBlockEnd
  0
ENDSEC
  0
SECTION
  2
ENTITIES
  0
INSERT
  5
3D
330
1F
100
AcDbEntity
  8
Layer 1
100
AcDbBlockReference
  2
block 2
 10
0.0
 20
0.0
 30
0.0
  0
MTEXT
  5
48
330
1F
100
AcDbEntity
  8
Layer 1
 62
   179
420
  2301728
100
AcDbMText
 10
24.11876898268559
 20
-634.4584308309687
 30
0.0
 40
8.635999997841001
 41
0.0
 71
     7
 72
     1
  1
\fEng_HelvLine Normal|b0|i0|c0|p34;\W1;Date: 13-06-12^I^IFile Name: DRBO-03^I^IVersion:^I^IContributor: Stuart Childs stuchilds\fMyriad Pro|b0|i0|c0|p34;@\fEng_HelvLine Normal|b0|i0|c0|p34;gmail.com^I^I
 73
     1
 44
1.0
  0
MTEXT
  5
49
330
1F
100
AcDbEntity
  8
0
100
AcDbMText
 10
0.0
 20
0.0
 30
0.0
 40
0.0
 41
0.0
 71
     1
 72
     1
  1

 73
     1
 44
1.0
  0
MTEXT
  5
4A
330
1F
100
AcDbEntity
  8
Layer 1
 62
   179
420
  2301728
100
AcDbMText
 10
24.11876898268559
 20
-664.9385686271681
 30
0.0
 40
8.635999997841001
 41
0.0
 71
     7
 72
     1
  1
\fEng_HelvLine Normal|b0|i0|c0|p34;\W1;License: Creative Commons Attribution Sharealike 3.0 Unported^I^I
 73
     1
 44
1.0
  0
MTEXT
  5
4B
330
1F
100
AcDbEntity
  8
Layer 1
 62
   179
420
  2301728
100
AcDbMText
 10
24.11876898268559
 20
-542.7052027723098
 30
0.0
 40
8.635999997841001
 41
0.0
 71
     7
 72
     1
  1
\fEng_HelvLine Normal|b0|i0|c0|p34;\W1;Date: 13-06-12^I^IFile Name: DRBO-03^I^IVersion:^I^IContributor: Stuart Childs stuchilds\fMyriad Pro|b0|i0|c0|p34;@\fEng_HelvLine Normal|b0|i0|c0|p34;gmail.com^I^I
 73
     1
 44
1.0
  0
MTEXT
  5
4C
330
1F
100
AcDbEntity
  8
0
100
AcDbMText
 10
0.0
 20
0.0
 30
0.0
 40
0.0
 41
0.0
 71
     1
 72
     1
  1

 73
     1
 44
1.0
  0
MTEXT
  5
4D
330
1F
100
AcDbEntity
  8
Layer 1
 62
   179
420
  2301728
100
AcDbMText
 10
24.11876898268559
 20
-573.1853405685092
 30
0.0
 40
8.635999997841001
 41
0.0
 71
     7
 72
     1
  1
\fEng_HelvLine Normal|b0|i0|c0|p34;\W1;License: Creative Commons Attribution Sharealike 3.0 Unported^I^I
 73
     1
 44
1.0
  0
POLYLINE
  5
4E
330
1F
100
AcDbEntity
  8
Layer 1
 62
    30
420
 16090918
370
    35
100
AcDb2dPolyline
 66
     1
 10
0.0
 20
0.0
 30
0.0
  0
VERTEX
  5
4F
330
4E
100
AcDbEntity
  8
Layer 1
 62
    30
420
 16090918
370
    35
100
AcDbVertex
100
AcDb2dVertex
 10
679.5726452294124
 20
-520.7389294488083
 30
0.0
  0
VERTEX
  5
50
330
4E
100
AcDbEntity
  8
Layer 1
 62
    30
420
 16090918
370
    35
100
AcDbVertex
100
AcDb2dVertex
 10
779.5727428606624
 20
-520.7389294488083
 30
0.0
  0
SEQEND
  5
51
330
4E
100
AcDbEntity
  8
Layer 1
370
    35
  0
INSERT
  5
53
330
1F
100
AcDbEntity
  8
Layer 1
100
AcDbBlockReference
  2
block 3
 10
0.0
 20
0.0
 30
0.0
  0
ENDSEC
  0
SECTION
  2
OBJECTS
  0
DICTIONARY
  5
C
330
0
100
AcDbDictionary
281
     1
  3
ACAD_GROUP
350
D
  3
ACAD_LAYOUT
350
1A
  3
ACAD_MLINESTYLE
350
17
  3
ACAD_PLOTSETTINGS
350
19
  3
ACAD_PLOTSTYLENAME
350
E
  3
ACAD_TABLESTYLE
350
82
  3
ACAD_VISUALSTYLE
350
2A
  0
DICTIONARY
  5
D
102
{ACAD_REACTORS
330
C
102
}
330
C
100
AcDbDictionary
281
     1
  0
DICTIONARY
  5
1A
102
{ACAD_REACTORS
330
C
102
}
330
C
100
AcDbDictionary
281
     1
  3
Layout1
350
1E
  3
Layout2
350
26
  3
Model
350
22
  0
DICTIONARY
  5
17
102
{ACAD_REACTORS
330
C
102
}
330
C
100
AcDbDictionary
281
     1
  3
Standard
350
18
  0
DICTIONARY
  5
19
102
{ACAD_REACTORS
330
C
102
}
330
C
100
AcDbDictionary
281
     1
  0
ACDBDICTIONARYWDFLT
  5
E
102
{ACAD_REACTORS
330
C
102
}
330
C
100
AcDbDictionary
281
     1
  3
Normal
350
F
100
AcDbDictionaryWithDefault
340
F
  0
DICTIONARY
  5
82
102
{ACAD_REACTORS
330
C
102
}
330
C
100
AcDbDictionary
281
     1
  0
DICTIONARY
  5
2A
102
{ACAD_REACTORS
330
C
102
}
330
C
100
AcDbDictionary
281
     1
  3
2dWireframe
350
2F
  3
3D Hidden
350
31
  3
3dWireframe
350
30
  3
Basic
350
32
  3
Brighten
350
36
  3
ColorChange
350
3A
  3
Conceptual
350
34
  3
Dim
350
35
  3
Facepattern
350
39
  3
Flat
350
2B
  3
FlatWithEdges
350
2C
  3
Gouraud
350
2D
  3
GouraudWithEdges
350
2E
  3
Linepattern
350
38
  3
Realistic
350
33
  3
Thicken
350
37
  0
LAYOUT
  5
1E
102
{ACAD_REACTORS
330
1A
102
}
330
1A
100
AcDbPlotSettings
  1

  2
none_device
  4

  6

 40
0.0
 41
0.0
 42
0.0
 43
0.0
 44
0.0
 45
0.0
 46
0.0
 47
0.0
 48
0.0
 49
0.0
140
0.0
141
0.0
142
1.0
143
1.0
 70
   688
 72
     0
 73
     0
 74
     5
  7

 75
    16
 76
     0
 77
     2
 78
   300
147
1.0
148
0.0
149
0.0
100
AcDbLayout
  1
Layout1
 70
     1
 71
     1
 10
0.0
 20
0.0
 11
12.0
 21
9.0
 12
0.0
 22
0.0
 32
0.0
 14
1.000000000000000E+20
 24
1.000000000000000E+20
 34
1.000000000000000E+20
 15
-1.000000000000000E+20
 25
-1.000000000000000E+20
 35
-1.000000000000000E+20
146
0.0
 13
0.0
 23
0.0
 33
0.0
 16
1.0
 26
0.0
 36
0.0
 17
0.0
 27
1.0
 37
0.0
 76
     0
330
1B
  0
LAYOUT
  5
26
102
{ACAD_REACTORS
330
1A
102
}
330
1A
100
AcDbPlotSettings
  1

  2
none_device
  4

  6

 40
0.0
 41
0.0
 42
0.0
 43
0.0
 44
0.0
 45
0.0
 46
0.0
 47
0.0
 48
0.0
 49
0.0
140
0.0
141
0.0
142
1.0
143
1.0
 70
   688
 72
     0
 73
     0
 74
     5
  7

 75
    16
 76
     0
 77
     2
 78
   300
147
1.0
148
0.0
149
0.0
100
AcDbLayout
  1
Layout2
 70
     1
 71
     2
 10
0.0
 20
0.0
 11
0.0
 21
0.0
 12
0.0
 22
0.0
 32
0.0
 14
0.0
 24
0.0
 34
0.0
 15
0.0
 25
0.0
 35
0.0
146
0.0
 13
0.0
 23
0.0
 33
0.0
 16
1.0
 26
0.0
 36
0.0
 17
0.0
 27
1.0
 37
0.0
 76
     0
330
23
  0
LAYOUT
  5
22
102
{ACAD_REACTORS
330
1A
102
}
330
1A
100
AcDbPlotSettings
  1

  2
none_device
  4

  6

 40
0.0
 41
0.0
 42
0.0
 43
0.0
 44
0.0
 45
0.0
 46
0.0
 47
0.0
 48
0.0
 49
0.0
140
0.0
141
0.0
142
1.0
143
1.0
 70
  1712
 72
     0
 73
     0
 74
     0
  7

 75
     0
 76
     0
 77
     2
 78
   300
147
1.0
148
0.0
149
0.0
100
AcDbLayout
  1
Model
 70
     1
 71
     0
 10
0.0
 20
0.0
 11
12.0
 21
9.0
 12
0.0
 22
0.0
 32
0.0
 14
1.000000000000000E+20
 24
1.000000000000000E+20
 34
1.000000000000000E+20
 15
-1.000000000000000E+20
 25
-1.000000000000000E+20
 35
-1.000000000000000E+20
146
0.0
 13
0.0
 23
0.0
 33
0.0
 16
1.0
 26
0.0
 36
0.0
 17
0.0
 27
1.0
 37
0.0
 76
     0
330
1F
331
29
  0
MLINESTYLE
  5
18
102
{ACAD_REACTORS
330
17
102
}
330
17
100
AcDbMlineStyle
  2
Standard
 70
     0
  3

 62
   256
 51
90.0
 52
90.0
 71
     2
 49
0.5
 62
   256
  6
BYLAYER
 49
-0.5
 62
   256
  6
BYLAYER
  0
ACDBPLACEHOLDER
  5
F
102
{ACAD_REACTORS
330
E
102
}
330
E
  0
VISUALSTYLE
  5
2F
102
{ACAD_REACTORS
330
2A
102
}
330
2A
100
AcDbVisualStyle
  2
2dWireframe
 70
     4
 71
     0
 72
     2
 73
     0
 90
        0
 40
-0.6
 41
-30.0
 62
     5
 63
     7
421
 16777215
 74
     1
 91
        4
 64
     7
 65
   257
 75
     1
175
     1
 42
1.0
 92
        0
 66
   257
 43
1.0
 76
     1
 77
     6
 78
     2
 67
     7
 79
     5
170
     0
171
     0
290
     0
174
     0
 93
        1
 44
0.0
173
     0
291
     0
 45
0.0
1001
ACAD
1000
AcDbSavedByObjectVersion
1070
     0
  0
VISUALSTYLE
  5
31
102
{ACAD_REACTORS
330
2A
102
}
330
2A
100
AcDbVisualStyle
  2
3D Hidden
 70
     6
 71
     1
 72
     2
 73
     2
 90
        0
 40
-0.6
 41
-30.0
 62
     5
 63
     7
421
 16777215
 74
     2
 91
        2
 64
     7
 65
   257
 75
     2
175
     1
 42
40.0
 92
        0
 66
   257
 43
1.0
 76
     1
 77
     6
 78
     2
 67
     7
 79
     3
170
     0
171
     0
290
     0
174
     0
 93
        1
 44
0.0
173
     0
291
     0
 45
0.0
1001
ACAD
1000
AcDbSavedByObjectVersion
1070
     0
  0
VISUALSTYLE
  5
30
102
{ACAD_REACTORS
330
2A
102
}
330
2A
100
AcDbVisualStyle
  2
3dWireframe
 70
     5
 71
     0
 72
     2
 73
     0
 90
        0
 40
-0.6
 41
-30.0
 62
     5
 63
     7
421
 16777215
 74
     1
 91
        4
 64
     7
 65
   257
 75
     1
175
     1
 42
1.0
 92
        0
 66
   257
 43
1.0
 76
     1
 77
     6
 78
     2
 67
     7
 79
     5
170
     0
171
     0
290
     0
174
     0
 93
        1
 44
0.0
173
     0
291
     0
 45
0.0
1001
ACAD
1000
AcDbSavedByObjectVersion
1070
     0
  0
VISUALSTYLE
  5
32
102
{ACAD_REACTORS
330
2A
102
}
330
2A
100
AcDbVisualStyle
  2
Basic
 70
     7
 71
     1
 72
     0
 73
     1
 90
        0
 40
-0.6
 41
-30.0
 62
     5
 63
     7
421
 16777215
 74
     0
 91
        4
 64
     7
 65
   257
 75
     1
175
     1
 42
1.0
 92
        8
 66
     7
 43
1.0
 76
     1
 77
     6
 78
     2
 67
     7
 79
     5
170
     0
171
     0
290
     0
174
     0
 93
        1
 44
0.0
173
     0
291
     1
 45
0.0
1001
ACAD
1000
AcDbSavedByObjectVersion
1070
     0
  0
VISUALSTYLE
  5
36
102
{ACAD_REACTORS
330
2A
102
}
330
2A
100
AcDbVisualStyle
  2
Brighten
 70
    12
 71
     2
 72
     2
 73
     0
 90
        0
 40
-0.6
 41
-30.0
 62
     5
 63
     7
421
 16777215
 74
     1
 91
        4
 64
     7
 65
   257
 75
     1
175
     1
 42
1.0
 92
        8
 66
     7
 43
1.0
 76
     1
 77
     6
 78
     2
 67
     7
 79
     5
170
     0
171
     0
290
     0
174
     0
 93
        1
 44
50.0
173
     0
291
     1
 45
0.0
1001
ACAD
1000
AcDbSavedByObjectVersion
1070
     0
  0
VISUALSTYLE
  5
3A
102
{ACAD_REACTORS
330
2A
102
}
330
2A
100
AcDbVisualStyle
  2
ColorChange
 70
    16
 71
     2
 72
     2
 73
     3
 90
        0
 40
-0.6
 41
-30.0
 62
     5
 63
     8
421
  8421504
 74
     1
 91
        4
 64
     7
 65
   257
 75
     1
175
     1
 42
1.0
 92
        8
 66
     8
424
  8421504
 43
1.0
 76
     1
 77
     6
 78
     2
 67
     7
 79
     5
170
     0
171
     0
290
     0
174
     0
 93
        1
 44
0.0
173
     0
291
     1
 45
0.0
1001
ACAD
1000
AcDbSavedByObjectVersion
1070
     0
  0
VISUALSTYLE
  5
34
102
{ACAD_REACTORS
330
2A
102
}
330
2A
100
AcDbVisualStyle
  2
Conceptual
 70
     9
 71
     3
 72
     2
 73
     0
 90
        0
 40
-0.6
 41
-30.0
 62
     5
 63
     7
421
 16777215
 74
     2
 91
        2
 64
     7
 65
   257
 75
     1
175
     1
 42
40.0
 92
        8
 66
     7
 43
1.0
 76
     1
 77
     6
 78
     2
 67
     7
 79
     3
170
     0
171
     0
290
     0
174
     0
 93
        1
 44
0.0
173
     0
291
     0
 45
0.0
1001
ACAD
1000
AcDbSavedByObjectVersion
1070
     0
  0
VISUALSTYLE
  5
35
102
{ACAD_REACTORS
330
2A
102
}
330
2A
100
AcDbVisualStyle
  2
Dim
 70
    11
 71
     2
 72
     2
 73
     0
 90
        0
 40
-0.6
 41
-30.0
 62
     5
 63
     7
421
 16777215
 74
     1
 91
        4
 64
     7
 65
   257
 75
     1
175
     1
 42
1.0
 92
        8
 66
     7
 43
1.0
 76
     1
 77
     6
 78
     2
 67
     7
 79
     5
170
     0
171
     0
290
     0
174
     0
 93
        1
 44
-50.0
173
     0
291
     1
 45
0.0
1001
ACAD
1000
AcDbSavedByObjectVersion
1070
     0
  0
VISUALSTYLE
  5
39
102
{ACAD_REACTORS
330
2A
102
}
330
2A
100
AcDbVisualStyle
  2
Facepattern
 70
    15
 71
     2
 72
     2
 73
     0
 90
        0
 40
-0.6
 41
-30.0
 62
     5
 63
     7
421
 16777215
 74
     1
 91
        4
 64
     7
 65
   257
 75
     1
175
     1
 42
1.0
 92
        8
 66
     7
 43
1.0
 76
     1
 77
     6
 78
     2
 67
     7
 79
     5
170
     0
171
     0
290
     0
174
     0
 93
        1
 44
0.0
173
     0
291
     1
 45
0.0
1001
ACAD
1000
AcDbSavedByObjectVersion
1070
     0
  0
VISUALSTYLE
  5
2B
102
{ACAD_REACTORS
330
2A
102
}
330
2A
100
AcDbVisualStyle
  2
Flat
 70
     0
 71
     2
 72
     1
 73
     1
 90
        2
 40
-0.6
 41
30.0
 62
     5
 63
     7
421
 16777215
 74
     0
 91
        4
 64
     7
 65
   257
 75
     1
175
     1
 42
1.0
 92
        8
 66
     7
 43
1.0
 76
     1
 77
     6
 78
     2
 67
     7
 79
     5
170
     0
171
     0
290
     0
174
     0
 93
       13
 44
0.0
173
     0
291
     1
 45
0.0
1001
ACAD
1000
AcDbSavedByObjectVersion
1070
     0
  0
VISUALSTYLE
  5
2C
102
{ACAD_REACTORS
330
2A
102
}
330
2A
100
AcDbVisualStyle
  2
FlatWithEdges
 70
     1
 71
     2
 72
     1
 73
     1
 90
        2
 40
-0.6
 41
30.0
 62
     5
 63
     7
421
 16777215
 74
     1
 91
        4
 64
     7
 65
   257
 75
     1
175
     1
 42
1.0
 92
        0
 66
   257
 43
1.0
 76
     1
 77
     6
 78
     2
 67
     7
 79
     5
170
     0
171
     0
290
     0
174
     0
 93
       13
 44
0.0
173
     0
291
     1
 45
0.0
1001
ACAD
1000
AcDbSavedByObjectVersion
1070
     0
  0
VISUALSTYLE
  5
2D
102
{ACAD_REACTORS
330
2A
102
}
330
2A
100
AcDbVisualStyle
  2
Gouraud
 70
     2
 71
     2
 72
     2
 73
     1
 90
        2
 40
-0.6
 41
30.0
 62
     5
 63
     7
421
 16777215
 74
     0
 91
        4
 64
     7
 65
   257
 75
     1
175
     1
 42
1.0
 92
        0
 66
     7
 43
1.0
 76
     1
 77
     6
 78
     2
 67
     7
 79
     5
170
     0
171
     0
290
     0
174
     0
 93
       13
 44
0.0
173
     0
291
     1
 45
0.0
1001
ACAD
1000
AcDbSavedByObjectVersion
1070
     0
  0
VISUALSTYLE
  5
2E
102
{ACAD_REACTORS
330
2A
102
}
330
2A
100
AcDbVisualStyle
  2
GouraudWithEdges
 70
     3
 71
     2
 72
     2
 73
     1
 90
        2
 40
-0.6
 41
30.0
 62
     5
 63
     7
421
 16777215
 74
     1
 91
        4
 64
     7
 65
   257
 75
     1
175
     1
 42
1.0
 92
        0
 66
   257
 43
1.0
 76
     1
 77
     6
 78
     2
 67
     7
 79
     5
170
     0
171
     0
290
     0
174
     0
 93
       13
 44
0.0
173
     0
291
     1
 45
0.0
1001
ACAD
1000
AcDbSavedByObjectVersion
1070
     0
  0
VISUALSTYLE
  5
38
102
{ACAD_REACTORS
330
2A
102
}
330
2A
100
AcDbVisualStyle
  2
Linepattern
 70
    14
 71
     2
 72
     2
 73
     0
 90
        0
 40
-0.6
 41
-30.0
 62
     5
 63
     7
421
 16777215
 74
     1
 91
        4
 64
     7
 65
   257
 75
     7
175
     7
 42
1.0
 92
        8
 66
     7
 43
1.0
 76
     1
 77
     6
 78
     2
 67
     7
 79
     5
170
     0
171
     0
290
     0
174
     0
 93
        1
 44
0.0
173
     0
291
     1
 45
0.0
1001
ACAD
1000
AcDbSavedByObjectVersion
1070
     0
  0
VISUALSTYLE
  5
33
102
{ACAD_REACTORS
330
2A
102
}
330
2A
100
AcDbVisualStyle
  2
Realistic
 70
     8
 71
     2
 72
     2
 73
     0
 90
        0
 40
-0.6
 41
-30.0
 62
     5
 63
     7
421
 16777215
 74
     1
 91
        0
 64
     7
 65
   257
 75
     1
175
     1
 42
1.0
 92
        8
 66
     8
424
  7895160
 43
1.0
 76
     1
 77
     6
 78
     2
 67
     7
 79
     5
170
     0
171
     0
290
     0
174
     0
 93
       13
 44
0.0
173
     0
291
     0
 45
0.0
1001
ACAD
1000
AcDbSavedByObjectVersion
1070
     0
  0
VISUALSTYLE
  5
37
102
{ACAD_REACTORS
330
2A
102
}
330
2A
100
AcDbVisualStyle
  2
Thicken
 70
    13
 71
     2
 72
     2
 73
     0
 90
        0
 40
-0.6
 41
-30.0
 62
     5
 63
     7
421
 16777215
 74
     1
 91
        4
 64
     7
 65
   257
 75
     1
175
     1
 42
1.0
 92
       12
 66
     7
 43
1.0
 76
     1
 77
     6
 78
     2
 67
     7
 79
     5
170
     0
171
     0
290
     0
174
     0
 93
        1
 44
0.0
173
     0
291
     1
 45
0.0
1001
ACAD
1000
AcDbSavedByObjectVersion
1070
     0
  0
ENDSEC
  0
EOF
