<?xml version="1.0" encoding="utf-8"?>
<!-- Generator: Adobe Illustrator 15.1.0, SVG Export Plug-In . SVG Version: 6.00 Build 0)  -->
<!DOCTYPE svg PUBLIC "-//W3C//DTD SVG 1.1//EN" "http://www.w3.org/Graphics/SVG/1.1/DTD/svg11.dtd">
<svg version="1.1" id="Layer_1" xmlns="http://www.w3.org/2000/svg" xmlns:xlink="http://www.w3.org/1999/xlink" x="0px" y="0px"
	 width="2267.72px" height="1700.79px" viewBox="0 0 2267.72 1700.79" enable-background="new 0 0 2267.72 1700.79"
	 xml:space="preserve">
<g>
	<path fill="none" stroke="#000000" stroke-miterlimit="10" d="M2225.198,1615.748c0,23.482-19.036,42.52-42.52,42.52H85.041
		c-23.483,0-42.52-19.037-42.52-42.52V85.039c0-23.483,19.037-42.52,42.52-42.52h2097.638c23.483,0,42.52,19.037,42.52,42.52
		V1615.748z"/>
	<rect x="42.521" y="1488.188" fill="none" stroke="#000000" stroke-miterlimit="10" width="2182.677" height="85.039"/>
</g>
<text transform="matrix(1 0 0 1 68.3682 1798.4648)"><tspan x="0" y="0" fill="none" stroke="#F68827" stroke-miterlimit="10" font-family="'Eng_HelvLine'" font-size="36">Date: 13-06-12</tspan><tspan x="302.469" y="0" fill="none" stroke="#F68827" stroke-miterlimit="10" font-family="'Eng_HelvLine'" font-size="36" letter-spacing="3">	</tspan><tspan x="324" y="0" fill="none" stroke="#F68827" stroke-miterlimit="10" font-family="'Eng_HelvLine'" font-size="36" letter-spacing="18">	</tspan><tspan x="360" y="0" fill="none" stroke="#F68827" stroke-miterlimit="10" font-family="'Eng_HelvLine'" font-size="36">File Name: DRBO-03</tspan><tspan x="814.423" y="0" fill="none" stroke="#F68827" stroke-miterlimit="10" font-family="'Eng_HelvLine'" font-size="36" letter-spacing="-4">	</tspan><tspan x="828" y="0" fill="none" stroke="#F68827" stroke-miterlimit="10" font-family="'Eng_HelvLine'" font-size="36" letter-spacing="18">	</tspan><tspan x="864" y="0" fill="none" stroke="#F68827" stroke-miterlimit="10" font-family="'Eng_HelvLine'" font-size="36">Version:</tspan><tspan x="1041.838" y="0" fill="none" stroke="#F68827" stroke-miterlimit="10" font-family="'Eng_HelvLine'" font-size="36" letter-spacing="-15">	</tspan><tspan x="1044" y="0" fill="none" stroke="#F68827" stroke-miterlimit="10" font-family="'Eng_HelvLine'" font-size="36" letter-spacing="18">	</tspan><tspan x="1080" y="0" fill="none" stroke="#F68827" stroke-miterlimit="10" font-family="'Eng_HelvLine'" font-size="36">Contributor: Stuart Childs stuchilds</tspan><tspan x="1866.016" y="0" fill="none" stroke="#F68827" stroke-miterlimit="10" font-family="'MyriadPro-Regular'" font-size="36">@</tspan><tspan x="1892.548" y="0" fill="none" stroke="#F68827" stroke-miterlimit="10" font-family="'Eng_HelvLine'" font-size="36">gmail.com</tspan><tspan x="2115.204" y="0" fill="none" stroke="#F68827" stroke-miterlimit="10" font-family="'Eng_HelvLine'" font-size="36" letter-spacing="-9">	</tspan><tspan x="2124" y="0" fill="none" stroke="#F68827" stroke-miterlimit="10" font-family="'Eng_HelvLine'" font-size="36" letter-spacing="18">	</tspan><tspan x="0" y="86.4" fill="none" stroke="#F68827" stroke-miterlimit="10" font-family="'Eng_HelvLine'" font-size="36">License: Creative Commons Attribution Sharealike 3.0 Unported</tspan><tspan x="1401.751" y="86.4" fill="none" stroke="#F68827" stroke-miterlimit="10" font-family="'Eng_HelvLine'" font-size="36" letter-spacing="-15">	</tspan><tspan x="1404" y="86.4" fill="none" stroke="#F68827" stroke-miterlimit="10" font-family="'Eng_HelvLine'" font-size="36" letter-spacing="18">	</tspan></text>
<text transform="matrix(1 0 0 1 68.3682 1538.377)"><tspan x="0" y="0" fill="none" stroke="#F68827" stroke-miterlimit="10" font-family="'Eng_HelvLine'" font-size="36">Date: 13-06-12</tspan><tspan x="302.469" y="0" fill="none" stroke="#F68827" stroke-miterlimit="10" font-family="'Eng_HelvLine'" font-size="36" letter-spacing="3">	</tspan><tspan x="324" y="0" fill="none" stroke="#F68827" stroke-miterlimit="10" font-family="'Eng_HelvLine'" font-size="36" letter-spacing="18">	</tspan><tspan x="360" y="0" fill="none" stroke="#F68827" stroke-miterlimit="10" font-family="'Eng_HelvLine'" font-size="36">File Name: DRBO-03</tspan><tspan x="814.423" y="0" fill="none" stroke="#F68827" stroke-miterlimit="10" font-family="'Eng_HelvLine'" font-size="36" letter-spacing="-4">	</tspan><tspan x="828" y="0" fill="none" stroke="#F68827" stroke-miterlimit="10" font-family="'Eng_HelvLine'" font-size="36" letter-spacing="18">	</tspan><tspan x="864" y="0" fill="none" stroke="#F68827" stroke-miterlimit="10" font-family="'Eng_HelvLine'" font-size="36">Version:</tspan><tspan x="1041.838" y="0" fill="none" stroke="#F68827" stroke-miterlimit="10" font-family="'Eng_HelvLine'" font-size="36" letter-spacing="-15">	</tspan><tspan x="1044" y="0" fill="none" stroke="#F68827" stroke-miterlimit="10" font-family="'Eng_HelvLine'" font-size="36" letter-spacing="18">	</tspan><tspan x="1080" y="0" fill="none" stroke="#F68827" stroke-miterlimit="10" font-family="'Eng_HelvLine'" font-size="36">Contributor: Stuart Childs stuchilds</tspan><tspan x="1866.016" y="0" fill="none" stroke="#F68827" stroke-miterlimit="10" font-family="'MyriadPro-Regular'" font-size="36">@</tspan><tspan x="1892.548" y="0" fill="none" stroke="#F68827" stroke-miterlimit="10" font-family="'Eng_HelvLine'" font-size="36">gmail.com</tspan><tspan x="2115.204" y="0" fill="none" stroke="#F68827" stroke-miterlimit="10" font-family="'Eng_HelvLine'" font-size="36" letter-spacing="-9">	</tspan><tspan x="2124" y="0" fill="none" stroke="#F68827" stroke-miterlimit="10" font-family="'Eng_HelvLine'" font-size="36" letter-spacing="18">	</tspan><tspan x="0" y="86.4" fill="none" stroke="#F68827" stroke-miterlimit="10" font-family="'Eng_HelvLine'" font-size="36">License: Creative Commons Attribution Sharealike 3.0 Unported</tspan><tspan x="1401.751" y="86.4" fill="none" stroke="#F68827" stroke-miterlimit="10" font-family="'Eng_HelvLine'" font-size="36" letter-spacing="-15">	</tspan><tspan x="1404" y="86.4" fill="none" stroke="#F68827" stroke-miterlimit="10" font-family="'Eng_HelvLine'" font-size="36" letter-spacing="18">	</tspan></text>
<line fill="none" stroke="#F68827" stroke-miterlimit="10" x1="1926.348" y1="1476.11" x2="2209.812" y2="1476.11"/>
<g>
	<path fill="none" stroke="#F68827" stroke-miterlimit="10" d="M1927.86,1463.057c0,2.241,1.709,3.138,3.712,3.138
		c2.031,0,3.306-1.274,3.348-2.521c0.042-1.232-0.588-2.213-1.835-2.479l-3.432-0.742c-0.967-0.21-1.541-0.771-1.541-2.087
		s1.106-2.451,3.124-2.451c2.017,0,3.488,0.952,3.432,2.619c0.057-1.667-1.415-2.619-3.432-2.619c-2.018,0-3.124,1.135-3.124,2.451
		s0.547,1.863,1.541,2.087l3.432,0.742c1.275,0.267,1.877,1.247,1.835,2.479c-0.042,1.247-1.316,2.521-3.348,2.521
		C1929.569,1466.194,1927.86,1465.298,1927.86,1463.057z"/>
	<path fill="none" stroke="#F68827" stroke-miterlimit="10" d="M1941.526,1466.11c-1.177,0-3.208-0.196-3.208-3.712
		c0-3.502,2.27-3.544,3.264-3.544c0.995,0,2.312,0.771,2.396,1.751c-0.084-0.98-1.4-1.751-2.396-1.751
		c-0.994,0-3.264,0.042-3.264,3.544C1938.318,1465.914,1940.35,1466.11,1941.526,1466.11c1.19,0,2.451-1.106,2.493-2.283
		C1943.978,1465.004,1942.717,1466.11,1941.526,1466.11z"/>
	<path fill="none" stroke="#F68827" stroke-miterlimit="10" d="M1952.405,1464.275c-0.42,0.603-1.862,1.961-3.012,1.919
		c-1.162-0.042-2.087-0.406-2.087-1.695c0-1.303,0.784-1.849,2.27-1.988c1.471-0.141,2.129-0.364,2.829-0.561
		c-0.7,0.196-1.358,0.42-2.829,0.561c-1.485,0.14-2.27,0.686-2.27,1.988c0,1.289,0.925,1.653,2.087,1.695
		C1950.543,1466.236,1951.985,1464.878,1952.405,1464.275z M1953.4,1466.11c0,0-0.995-0.07-0.995-0.91v-4.608
		c0-0.589-0.294-1.709-2.185-1.709c-1.892,0-2.592,0.854-2.592,1.736c0-0.882,0.7-1.736,2.592-1.736c1.891,0,2.185,1.12,2.185,1.709
		v4.608C1952.405,1466.04,1953.4,1466.11,1953.4,1466.11z"/>
	<path fill="none" stroke="#F68827" stroke-miterlimit="10" d="M1958.227,1466.11v-10.1V1466.11z"/>
	<path fill="none" stroke="#F68827" stroke-miterlimit="10" d="M1962.901,1462.272h6.262c0-1.555-0.616-3.544-2.844-3.544
		c-2.213,0-3.432,1.513-3.432,3.824c0,2.325,1.569,3.558,3.432,3.502c1.877-0.057,2.689-1.513,2.788-2.031
		c-0.099,0.519-0.911,1.975-2.788,2.031c-1.862,0.056-3.432-1.177-3.432-3.502c0-2.312,1.219-3.824,3.432-3.824
		c2.228,0,2.844,1.989,2.844,3.544H1962.901z"/>
	<path fill="none" stroke="#F68827" stroke-miterlimit="10" d="M1974.131,1461.684v-0.771V1461.684z M1974.131,1466.11v-0.771
		V1466.11z"/>
	<path fill="none" stroke="#F68827" stroke-miterlimit="10" d="M1987.305,1466.11v-10.1V1466.11z"/>
	<path fill="none" stroke="#F68827" stroke-miterlimit="10" d="M1993.493,1456.249v-0.252V1456.249z M1993.493,1466.097v-7.187
		C1993.493,1458.91,1993.493,1466.124,1993.493,1466.097z"/>
	<path fill="none" stroke="#F68827" stroke-miterlimit="10" d="M2004.821,1466.11c0,0,0-4.679,0-5.323
		c0-0.644-0.645-1.849-2.424-1.862c-1.793-0.015-2.731,1.372-2.731,2.661c0-1.289,0.938-2.676,2.731-2.661
		c1.779,0.014,2.424,1.219,2.424,1.862C2004.821,1461.432,2004.821,1466.11,2004.821,1466.11z M1999.666,1466.11v-7.186V1466.11z"/>
	<path fill="none" stroke="#F68827" stroke-miterlimit="10" d="M2008.877,1462.272h6.262c0-1.555-0.616-3.544-2.844-3.544
		c-2.213,0-3.432,1.513-3.432,3.824c0,2.325,1.569,3.558,3.432,3.502c1.877-0.057,2.689-1.513,2.788-2.031
		c-0.099,0.519-0.911,1.975-2.788,2.031c-1.862,0.056-3.432-1.177-3.432-3.502c0-2.312,1.219-3.824,3.432-3.824
		c2.228,0,2.844,1.989,2.844,3.544H2008.877z"/>
	<path fill="none" stroke="#F68827" stroke-miterlimit="10" d="M2027.106,1455.969v10.142V1455.969z M2030.076,1458.883
		c1.639,0,2.97,0.798,2.97,3.613c0,2.802-1.331,3.614-2.97,3.614s-2.97-0.812-2.97-3.614
		C2027.106,1459.681,2028.438,1458.883,2030.076,1458.883z M2030.076,1458.883c1.639,0,2.97,0.798,2.97,3.613
		c0,2.802-1.331,3.614-2.97,3.614s-2.97-0.812-2.97-3.614C2027.106,1459.681,2028.438,1458.883,2030.076,1458.883z"/>
	<path fill="none" stroke="#F68827" stroke-miterlimit="10" d="M2042.705,1462.272c0-1.555-0.616-3.544-2.844-3.544
		c-2.213,0-3.432,1.513-3.432,3.824c0,2.325,1.569,3.558,3.432,3.502c1.877-0.057,2.689-1.513,2.788-2.031
		c-0.099,0.519-0.911,1.975-2.788,2.031c-1.862,0.056-3.432-1.177-3.432-3.502c0-2.312,1.219-3.824,3.432-3.824
		C2042.089,1458.729,2042.705,1460.718,2042.705,1462.272h-6.262H2042.705z"/>
	<path fill="none" stroke="#F68827" stroke-miterlimit="10" d="M2047.672,1466.11v-10.1V1466.11z"/>
	<path fill="none" stroke="#F68827" stroke-miterlimit="10" d="M2052.333,1462.44c0-2.83,1.443-3.656,3.18-3.656
		c1.751,0,3.18,0.826,3.18,3.656c0,2.844-1.429,3.67-3.18,3.67C2053.776,1466.11,2052.333,1465.284,2052.333,1462.44z
		 M2052.333,1462.44c0-2.83,1.443-3.656,3.18-3.656c1.751,0,3.18,0.826,3.18,3.656c0,2.844-1.429,3.67-3.18,3.67
		C2053.776,1466.11,2052.333,1465.284,2052.333,1462.44z"/>
	<path fill="none" stroke="#F68827" stroke-miterlimit="10" d="M2064.094,1466.11l2.479-7.186l2.493,7.186l2.073-7.186l-2.073,7.186
		l-2.493-7.186L2064.094,1466.11l-2.073-7.186L2064.094,1466.11z"/>
	<path fill="none" stroke="#F68827" stroke-miterlimit="10" d="M2083.12,1456.249v-0.252V1456.249z M2083.12,1466.097v-7.187
		C2083.12,1458.91,2083.12,1466.124,2083.12,1466.097z"/>
	<path fill="none" stroke="#F68827" stroke-miterlimit="10" d="M2090.456,1458.812c-1.766-0.042-2.577,0.519-2.577,1.597
		c0,1.093,0.91,1.429,1.246,1.527l2.647,0.784c0.351,0.084,1.19,0.462,1.19,1.499c0,1.036-1.106,1.891-2.507,1.891
		c-1.401,0-2.676-0.742-2.676-1.835c0,1.093,1.274,1.835,2.676,1.835c1.4,0,2.507-0.854,2.507-1.891c0-1.037-0.84-1.415-1.19-1.499
		l-2.647-0.784c-0.336-0.099-1.246-0.435-1.246-1.527C2087.879,1459.331,2088.69,1458.771,2090.456,1458.812
		c1.765,0.07,2.227,1.051,2.199,1.4C2092.683,1459.863,2092.221,1458.883,2090.456,1458.812z"/>
	<path fill="none" stroke="#F68827" stroke-miterlimit="10" d="M2105.604,1466.11v-10.1c0,1.723-1.667,2.129-2.382,2.186
		c0.715-0.057,2.382-0.463,2.382-2.186V1466.11z"/>
	<path fill="none" stroke="#F68827" stroke-miterlimit="10" d="M2110.307,1461.067c0-2.773,0.589-5.043,3.054-5.043
		c2.466,0,3.054,2.27,3.054,5.043c0,2.788-0.588,5.043-3.054,5.043C2110.896,1466.11,2110.307,1463.855,2110.307,1461.067z
		 M2110.307,1461.067c0-2.773,0.589-5.043,3.054-5.043c2.466,0,3.054,2.27,3.054,5.043c0,2.788-0.588,5.043-3.054,5.043
		C2110.896,1466.11,2110.307,1463.855,2110.307,1461.067z"/>
	<path fill="none" stroke="#F68827" stroke-miterlimit="10" d="M2119.729,1461.067c0-2.773,0.589-5.043,3.054-5.043
		c2.466,0,3.054,2.27,3.054,5.043c0,2.788-0.588,5.043-3.054,5.043C2120.317,1466.11,2119.729,1463.855,2119.729,1461.067z
		 M2119.729,1461.067c0-2.773,0.589-5.043,3.054-5.043c2.466,0,3.054,2.27,3.054,5.043c0,2.788-0.588,5.043-3.054,5.043
		C2120.317,1466.11,2119.729,1463.855,2119.729,1461.067z"/>
	<path fill="none" stroke="#F68827" stroke-miterlimit="10" d="M2135.439,1466.11c0,0,0-4.679,0-5.323
		c0-0.644-0.42-1.849-2.199-1.862c-1.778-0.015-2.577,1.372-2.577,2.661c0-1.289,0.799-2.676,2.577-2.661
		c1.779,0.014,2.199,1.219,2.199,1.862C2135.439,1461.432,2135.439,1466.11,2135.439,1466.11z M2130.663,1466.11v-7.186V1466.11z
		 M2140.259,1466.11c0,0,0-4.679,0-5.323c0-0.644-0.616-1.849-2.396-1.862c-1.779-0.015-2.424,1.372-2.424,2.661
		c0-1.289,0.645-2.676,2.424-2.661c1.779,0.014,2.396,1.219,2.396,1.862C2140.259,1461.432,2140.259,1466.11,2140.259,1466.11z"/>
	<path fill="none" stroke="#F68827" stroke-miterlimit="10" d="M2150.812,1466.11c0,0,0-4.679,0-5.323
		c0-0.644-0.42-1.849-2.198-1.862c-1.779-0.015-2.578,1.372-2.578,2.661c0-1.289,0.799-2.676,2.578-2.661
		c1.778,0.014,2.198,1.219,2.198,1.862C2150.812,1461.432,2150.812,1466.11,2150.812,1466.11z M2146.035,1466.11v-7.186V1466.11z
		 M2155.631,1466.11c0,0,0-4.679,0-5.323c0-0.644-0.616-1.849-2.396-1.862c-1.779-0.015-2.424,1.372-2.424,2.661
		c0-1.289,0.645-2.676,2.424-2.661c1.779,0.014,2.396,1.219,2.396,1.862C2155.631,1461.432,2155.631,1466.11,2155.631,1466.11z"/>
	<path fill="none" stroke="#F68827" stroke-miterlimit="10" d="M2168.407,1466.11v-10.1V1466.11z"/>
	<path fill="none" stroke="#F68827" stroke-miterlimit="10" d="M2173.068,1462.44c0-2.83,1.443-3.656,3.18-3.656
		c1.751,0,3.18,0.826,3.18,3.656c0,2.844-1.429,3.67-3.18,3.67C2174.512,1466.11,2173.068,1465.284,2173.068,1462.44z
		 M2173.068,1462.44c0-2.83,1.443-3.656,3.18-3.656c1.751,0,3.18,0.826,3.18,3.656c0,2.844-1.429,3.67-3.18,3.67
		C2174.512,1466.11,2173.068,1465.284,2173.068,1462.44z"/>
	<path fill="none" stroke="#F68827" stroke-miterlimit="10" d="M2189.424,1466.11c0,0,0-4.679,0-5.323
		c0-0.644-0.645-1.849-2.424-1.862c-1.793-0.015-2.731,1.372-2.731,2.661c0-1.289,0.938-2.676,2.731-2.661
		c1.779,0.014,2.424,1.219,2.424,1.862C2189.424,1461.432,2189.424,1466.11,2189.424,1466.11z M2184.269,1466.11v-7.186V1466.11z"/>
	<path fill="none" stroke="#F68827" stroke-miterlimit="10" d="M2196.422,1458.854c1.625,0,2.97,0.812,2.97,3.614
		c0,2.801-1.345,3.613-2.97,3.613s-2.956-0.812-2.956-3.613C2193.466,1459.667,2194.797,1458.854,2196.422,1458.854z
		 M2196.422,1458.854c1.625,0,2.97,0.812,2.97,3.614c0,2.801-1.345,3.613-2.97,3.613s-2.956-0.812-2.956-3.613
		C2193.466,1459.667,2194.797,1458.854,2196.422,1458.854z M2193.886,1467.567c0.154,0.84,1.177,1.316,2.578,1.372
		c1.429,0.042,2.928-1.008,2.928-2.311c0-1.317,0-7.662,0-7.662s0,6.345,0,7.662c0,1.303-1.499,2.353-2.928,2.311
		C2195.062,1468.884,2194.04,1468.407,2193.886,1467.567z"/>
</g>
</svg>
