  0
SECTION
  2
HEADER
  9
$ACADVER
  1
AC1018
  9
$ACADMAINTVER
 70
     0
  9
$DWGCODEPAGE
  3
ANSI_932
  9
$INSBASE
 10
0.0
 20
0.0
 30
0.0
  9
$EXTMIN
 10
1.000000000000000E+20
 20
1.000000000000000E+20
 30
1.000000000000000E+20
  9
$EXTMAX
 10
-1.000000000000000E+20
 20
-1.000000000000000E+20
 30
-1.000000000000000E+20
  9
$LIMMIN
 10
0.0
 20
0.0
  9
$LIMMAX
 10
12.0
 20
9.0
  9
$ORTHOMODE
 70
     0
  9
$REGENMODE
 70
     1
  9
$FILLMODE
 70
     1
  9
$QTEXTMODE
 70
     0
  9
$MIRRTEXT
 70
     1
  9
$LTSCALE
 40
1.0
  9
$ATTMODE
 70
     1
  9
$TEXTSIZE
 40
0.2
  9
$TRACEWID
 40
0.05
  9
$TEXTSTYLE
  7
Standard
  9
$CLAYER
  8
0
  9
$CELTYPE
  6
ByLayer
  9
$CECOLOR
 62
   256
  9
$CELTSCALE
 40
1.0
  9
$DISPSILH
 70
     0
  9
$DIMSCALE
 40
1.0
  9
$DIMASZ
 40
0.18
  9
$DIMEXO
 40
0.0625
  9
$DIMDLI
 40
0.38
  9
$DIMRND
 40
0.0
  9
$DIMDLE
 40
0.0
  9
$DIMEXE
 40
0.18
  9
$DIMTP
 40
0.0
  9
$DIMTM
 40
0.0
  9
$DIMTXT
 40
0.18
  9
$DIMCEN
 40
0.09
  9
$DIMTSZ
 40
0.0
  9
$DIMTOL
 70
     0
  9
$DIMLIM
 70
     0
  9
$DIMTIH
 70
     1
  9
$DIMTOH
 70
     1
  9
$DIMSE1
 70
     0
  9
$DIMSE2
 70
     0
  9
$DIMTAD
 70
     0
  9
$DIMZIN
 70
     0
  9
$DIMBLK
  1

  9
$DIMASO
 70
     1
  9
$DIMSHO
 70
     1
  9
$DIMPOST
  1

  9
$DIMAPOST
  1

  9
$DIMALT
 70
     0
  9
$DIMALTD
 70
     2
  9
$DIMALTF
 40
25.4
  9
$DIMLFAC
 40
1.0
  9
$DIMTOFL
 70
     0
  9
$DIMTVP
 40
0.0
  9
$DIMTIX
 70
     0
  9
$DIMSOXD
 70
     0
  9
$DIMSAH
 70
     0
  9
$DIMBLK1
  1

  9
$DIMBLK2
  1

  9
$DIMSTYLE
  2
Standard
  9
$DIMCLRD
 70
     0
  9
$DIMCLRE
 70
     0
  9
$DIMCLRT
 70
     0
  9
$DIMTFAC
 40
1.0
  9
$DIMGAP
 40
0.09
  9
$DIMJUST
 70
     0
  9
$DIMSD1
 70
     0
  9
$DIMSD2
 70
     0
  9
$DIMTOLJ
 70
     1
  9
$DIMTZIN
 70
     0
  9
$DIMALTZ
 70
     0
  9
$DIMALTTZ
 70
     0
  9
$DIMUPT
 70
     0
  9
$DIMDEC
 70
     4
  9
$DIMTDEC
 70
     4
  9
$DIMALTU
 70
     2
  9
$DIMALTTD
 70
     2
  9
$DIMTXSTY
  7
Standard
  9
$DIMAUNIT
 70
     0
  9
$DIMADEC
 70
     0
  9
$DIMALTRND
 40
0.0
  9
$DIMAZIN
 70
     0
  9
$DIMDSEP
 70
    46
  9
$DIMATFIT
 70
     3
  9
$DIMFRAC
 70
     0
  9
$DIMLDRBLK
  1

  9
$DIMLUNIT
 70
     2
  9
$DIMLWD
 70
    -2
  9
$DIMLWE
 70
    -2
  9
$DIMTMOVE
 70
     0
  9
$LUNITS
 70
     2
  9
$LUPREC
 70
     4
  9
$SKETCHINC
 40
0.1
  9
$FILLETRAD
 40
0.5
  9
$AUNITS
 70
     0
  9
$AUPREC
 70
     0
  9
$MENU
  1
.
  9
$ELEVATION
 40
0.0
  9
$PELEVATION
 40
0.0
  9
$THICKNESS
 40
0.0
  9
$LIMCHECK
 70
     0
  9
$CHAMFERA
 40
0.5
  9
$CHAMFERB
 40
0.5
  9
$CHAMFERC
 40
1.0
  9
$CHAMFERD
 40
0.0
  9
$SKPOLY
 70
     0
  9
$TDCREATE
 40
2456188.628287037
  9
$TDUCREATE
 40
2456188.544953704
  9
$TDUPDATE
 40
2456188.628287049
  9
$TDUUPDATE
 40
2456188.544953715
  9
$TDINDWG
 40
0.0000000116
  9
$TDUSRTIMER
 40
0.0000000116
  9
$USRTIMER
 70
     1
  9
$ANGBASE
 50
0.0
  9
$ANGDIR
 70
     0
  9
$PDMODE
 70
     0
  9
$PDSIZE
 40
0.0
  9
$PLINEWID
 40
0.0
  9
$SPLFRAME
 70
     0
  9
$SPLINETYPE
 70
     6
  9
$SPLINESEGS
 70
     8
  9
$HANDSEED
  5
150
  9
$SURFTAB1
 70
     6
  9
$SURFTAB2
 70
     6
  9
$SURFTYPE
 70
     6
  9
$SURFU
 70
     6
  9
$SURFV
 70
     6
  9
$UCSBASE
  2

  9
$UCSNAME
  2

  9
$UCSORG
 10
0.0
 20
0.0
 30
0.0
  9
$UCSXDIR
 10
1.0
 20
0.0
 30
0.0
  9
$UCSYDIR
 10
0.0
 20
1.0
 30
0.0
  9
$UCSORTHOREF
  2

  9
$UCSORTHOVIEW
 70
     0
  9
$UCSORGTOP
 10
0.0
 20
0.0
 30
0.0
  9
$UCSORGBOTTOM
 10
0.0
 20
0.0
 30
0.0
  9
$UCSORGLEFT
 10
0.0
 20
0.0
 30
0.0
  9
$UCSORGRIGHT
 10
0.0
 20
0.0
 30
0.0
  9
$UCSORGFRONT
 10
0.0
 20
0.0
 30
0.0
  9
$UCSORGBACK
 10
0.0
 20
0.0
 30
0.0
  9
$PUCSBASE
  2

  9
$PUCSNAME
  2

  9
$PUCSORG
 10
0.0
 20
0.0
 30
0.0
  9
$PUCSXDIR
 10
1.0
 20
0.0
 30
0.0
  9
$PUCSYDIR
 10
0.0
 20
1.0
 30
0.0
  9
$PUCSORTHOREF
  2

  9
$PUCSORTHOVIEW
 70
     0
  9
$PUCSORGTOP
 10
0.0
 20
0.0
 30
0.0
  9
$PUCSORGBOTTOM
 10
0.0
 20
0.0
 30
0.0
  9
$PUCSORGLEFT
 10
0.0
 20
0.0
 30
0.0
  9
$PUCSORGRIGHT
 10
0.0
 20
0.0
 30
0.0
  9
$PUCSORGFRONT
 10
0.0
 20
0.0
 30
0.0
  9
$PUCSORGBACK
 10
0.0
 20
0.0
 30
0.0
  9
$USERI1
 70
     0
  9
$USERI2
 70
     0
  9
$USERI3
 70
     0
  9
$USERI4
 70
     0
  9
$USERI5
 70
     0
  9
$USERR1
 40
0.0
  9
$USERR2
 40
0.0
  9
$USERR3
 40
0.0
  9
$USERR4
 40
0.0
  9
$USERR5
 40
0.0
  9
$WORLDVIEW
 70
     1
  9
$SHADEDGE
 70
     3
  9
$SHADEDIF
 70
    70
  9
$TILEMODE
 70
     1
  9
$MAXACTVP
 70
    64
  9
$PINSBASE
 10
0.0
 20
0.0
 30
0.0
  9
$PLIMCHECK
 70
     0
  9
$PEXTMIN
 10
1.000000000000000E+20
 20
1.000000000000000E+20
 30
1.000000000000000E+20
  9
$PEXTMAX
 10
-1.000000000000000E+20
 20
-1.000000000000000E+20
 30
-1.000000000000000E+20
  9
$PLIMMIN
 10
0.0
 20
0.0
  9
$PLIMMAX
 10
12.0
 20
9.0
  9
$UNITMODE
 70
     0
  9
$VISRETAIN
 70
     1
  9
$PLINEGEN
 70
     0
  9
$PSLTSCALE
 70
     1
  9
$TREEDEPTH
 70
  3020
  9
$CMLSTYLE
  2
Standard
  9
$CMLJUST
 70
     0
  9
$CMLSCALE
 40
1.0
  9
$PROXYGRAPHICS
 70
     1
  9
$MEASUREMENT
 70
     0
  9
$CELWEIGHT
370
    -1
  9
$ENDCAPS
280
     0
  9
$JOINSTYLE
280
     0
  9
$LWDISPLAY
290
     1
  9
$INSUNITS
 70
     1
  9
$HYPERLINKBASE
  1

  9
$STYLESHEET
  1

  9
$XEDIT
290
     1
  9
$CEPSNTYPE
380
     0
  9
$PSTYLEMODE
290
     1
  9
$FINGERPRINTGUID
  2
{F2DDEBE7-3B7A-DFFB-D22D-5295B3910968}
  9
$VERSIONGUID
  2
{FAEB1C32-E019-11D5-929B-00C0DF256EC4}
  9
$EXTNAMES
290
     1
  9
$PSVPSCALE
 40
0.0
  9
$OLESTARTUP
290
     0
  9
$SORTENTS
280
   127
  9
$INDEXCTL
280
     0
  9
$HIDETEXT
280
     1
  9
$XCLIPFRAME
290
     0
  9
$HALOGAP
280
     0
  9
$OBSCOLOR
 70
   257
  9
$OBSLTYPE
280
     0
  9
$INTERSECTIONDISPLAY
280
     0
  9
$INTERSECTIONCOLOR
 70
   257
  9
$DIMASSOC
280
     2
  9
$PROJECTNAME
  1

  0
ENDSEC
  0
SECTION
  2
CLASSES
  0
CLASS
  1
ACDBDICTIONARYWDFLT
  2
AcDbDictionaryWithDefault
  3
ObjectDBX Classes
 90
        0
 91
        3
280
     0
281
     0
  0
CLASS
  1
VISUALSTYLE
  2
AcDbVisualStyle
  3
ObjectDBX Classes
 90
     4095
 91
        3
280
     0
281
     0
  0
ENDSEC
  0
SECTION
  2
TABLES
  0
TABLE
  2
VPORT
  5
8
330
0
100
AcDbSymbolTable
 70
     1
  0
VPORT
  5
29
330
8
100
AcDbSymbolTableRecord
100
AcDbViewportTableRecord
  2
*Active
 70
     0
 10
0.0
 20
0.0
 11
1.0
 21
1.0
 12
0.0
 22
0.0
 13
0.0
 23
0.0
 14
0.5
 24
0.5
 15
0.5
 25
0.5
 16
0.0
 26
0.0
 36
1.0
 17
400.0005627797742
 27
-300.0004651485242
 37
0.0
 40
600.0009302970484
 41
1.333333141939436
 42
50.0
 43
0.0
 44
0.0
 50
0.0
 51
0.0
 71
     0
 72
   100
 73
     1
 74
     3
 75
     0
 76
     0
 77
     0
 78
     0
281
     0
 65
     1
110
0.0
120
0.0
130
0.0
111
1.0
121
0.0
131
0.0
112
0.0
122
1.0
132
0.0
 79
     0
146
0.0
  0
ENDTAB
  0
TABLE
  2
LTYPE
  5
5
330
0
100
AcDbSymbolTable
 70
     1
  0
LTYPE
  5
14
330
5
100
AcDbSymbolTableRecord
100
AcDbLinetypeTableRecord
  2
ByBlock
 70
     0
  3

 72
    65
 73
     0
 40
0.0
  0
LTYPE
  5
15
330
5
100
AcDbSymbolTableRecord
100
AcDbLinetypeTableRecord
  2
ByLayer
 70
     0
  3

 72
    65
 73
     0
 40
0.0
  0
LTYPE
  5
16
330
5
100
AcDbSymbolTableRecord
100
AcDbLinetypeTableRecord
  2
Continuous
 70
     0
  3
Solid line
 72
    65
 73
     0
 40
0.0
  0
ENDTAB
  0
TABLE
  2
LAYER
  5
2
330
0
100
AcDbSymbolTable
 70
     2
  0
LAYER
  5
10
330
2
100
AcDbSymbolTableRecord
100
AcDbLayerTableRecord
  2
0
 70
     0
 62
     7
  6
Continuous
370
    -3
390
F
  0
LAYER
  5
3B
330
2
100
AcDbSymbolTableRecord
100
AcDbLayerTableRecord
  2
Layer 1
 70
     0
 62
     7
  6
Continuous
370
    -3
390
F
  0
ENDTAB
  0
TABLE
  2
STYLE
  5
3
330
0
100
AcDbSymbolTable
 70
     1
  0
STYLE
  5
11
330
3
100
AcDbSymbolTableRecord
100
AcDbTextStyleTableRecord
  2
Standard
 70
     0
 40
0.0
 41
1.0
 50
0.0
 71
     0
 42
0.2
  3
txt
  4

  0
ENDTAB
  0
TABLE
  2
VIEW
  5
6
330
0
100
AcDbSymbolTable
 70
     0
  0
ENDTAB
  0
TABLE
  2
UCS
  5
7
330
0
100
AcDbSymbolTable
 70
     0
  0
ENDTAB
  0
TABLE
  2
APPID
  5
9
330
0
100
AcDbSymbolTable
 70
     1
  0
APPID
  5
12
330
9
100
AcDbSymbolTableRecord
100
AcDbRegAppTableRecord
  2
ACAD
 70
     0
  0
ENDTAB
  0
TABLE
  2
DIMSTYLE
  5
A
330
0
100
AcDbSymbolTable
 70
     1
100
AcDbDimStyleTable
  0
DIMSTYLE
105
27
330
A
100
AcDbSymbolTableRecord
100
AcDbDimStyleTableRecord
  2
Standard
 70
     0
340
11
  0
ENDTAB
  0
TABLE
  2
BLOCK_RECORD
  5
1
330
0
100
AcDbSymbolTable
 70
    10
  0
BLOCK_RECORD
  5
1F
330
1
100
AcDbSymbolTableRecord
100
AcDbBlockTableRecord
  2
*Model_Space
340
22
  0
BLOCK_RECORD
  5
1B
330
1
100
AcDbSymbolTableRecord
100
AcDbBlockTableRecord
  2
*Paper_Space
340
1E
  0
BLOCK_RECORD
  5
23
330
1
100
AcDbSymbolTableRecord
100
AcDbBlockTableRecord
  2
*Paper_Space0
340
26
  0
BLOCK_RECORD
  5
3C
330
1
100
AcDbSymbolTableRecord
100
AcDbBlockTableRecord
  2
block 2
340
0
102
{BLKREFS
331
3D
102
}
  0
BLOCK_RECORD
  5
52
330
1
100
AcDbSymbolTableRecord
100
AcDbBlockTableRecord
  2
block 3
340
0
102
{BLKREFS
331
53
102
}
  0
BLOCK_RECORD
  5
86
330
1
100
AcDbSymbolTableRecord
100
AcDbBlockTableRecord
  2
block 4
340
0
102
{BLKREFS
331
87
102
}
  0
BLOCK_RECORD
  5
8F
330
1
100
AcDbSymbolTableRecord
100
AcDbBlockTableRecord
  2
block 5
340
0
102
{BLKREFS
331
90
102
}
  0
BLOCK_RECORD
  5
98
330
1
100
AcDbSymbolTableRecord
100
AcDbBlockTableRecord
  2
block 6
340
0
102
{BLKREFS
331
99
102
}
  0
BLOCK_RECORD
  5
BF
330
1
100
AcDbSymbolTableRecord
100
AcDbBlockTableRecord
  2
block 7
340
0
102
{BLKREFS
331
C0
102
}
  0
BLOCK_RECORD
  5
C3
330
1
100
AcDbSymbolTableRecord
100
AcDbBlockTableRecord
  2
block 8
340
0
102
{BLKREFS
331
C4
102
}
  0
BLOCK_RECORD
  5
DE
330
1
100
AcDbSymbolTableRecord
100
AcDbBlockTableRecord
  2
block 9
340
0
102
{BLKREFS
331
DF
102
}
  0
BLOCK_RECORD
  5
F1
330
1
100
AcDbSymbolTableRecord
100
AcDbBlockTableRecord
  2
block 10
340
0
102
{BLKREFS
331
F2
102
}
  0
ENDTAB
  0
ENDSEC
  0
SECTION
  2
BLOCKS
  0
BLOCK
  5
20
330
1F
100
AcDbEntity
  8
0
100
AcDbBlockBegin
  2
*Model_Space
 70
     0
 71
     0
 10
0.0
 20
0.0
 30
0.0
  3
*Model_Space
  1

  0
ENDBLK
  5
21
330
1F
100
AcDbEntity
  8
0
100
AcDbBlockEnd
  0
BLOCK
  5
1C
330
1B
100
AcDbEntity
 67
     1
  8
0
100
AcDbBlockBegin
  2
*Paper_Space
 70
     0
 71
     0
 10
0.0
 20
0.0
 30
0.0
  3
*Paper_Space
  1

  0
ENDBLK
  5
1D
330
1B
100
AcDbEntity
 67
     1
  8
0
100
AcDbBlockEnd
  0
BLOCK
  5
24
330
23
100
AcDbEntity
  8
0
100
AcDbBlockBegin
  2
*Paper_Space0
 70
     0
 71
     0
 10
0.0
 20
0.0
 30
0.0
  3
*Paper_Space0
  1

  0
ENDBLK
  5
25
330
23
100
AcDbEntity
  8
0
100
AcDbBlockEnd
  0
BLOCK
  5
3E
330
3C
100
AcDbEntity
  8
0
100
AcDbBlockBegin
  2
block 2
 70
     0
 71
     0
 10
0.0
 20
0.0
 30
0.0
  3
block 2
  1

  0
SPLINE
  5
40
330
3C
100
AcDbEntity
  8
Layer 1
 62
   179
420
  2301728
370
    35
100
AcDbSpline
210
0.0
220
0.0
230
1.0
 70
    11
 71
     3
 72
    29
 73
    25
 74
     0
 42
0.0000000001
 43
0.0000000001
 40
0.0
 40
0.0
 40
0.0
 40
0.0
 40
1.0
 40
1.0
 40
1.0
 40
2.0
 40
2.0
 40
2.0
 40
3.0
 40
3.0
 40
3.0
 40
4.0
 40
4.0
 40
4.0
 40
5.0
 40
5.0
 40
5.0
 40
6.0
 40
6.0
 40
6.0
 40
7.0
 40
7.0
 40
7.0
 40
8.0
 40
8.0
 40
8.0
 40
8.0
 10
785.0004907976735
 20
-570.0000052828473
 30
0.0
 10
785.0004907976735
 20
-578.284081886679
 30
0.0
 10
778.284966168276
 20
-584.999951025625
 30
0.0
 10
770.0005450548957
 20
-584.999951025625
 30
0.0
 10
770.0005450548957
 20
-584.999951025625
 30
0.0
 10
30.00058050465264
 20
-584.999951025625
 30
0.0
 10
30.00058050465264
 20
-584.999951025625
 30
0.0
 10
21.71633164604661
 20
-584.999951025625
 30
0.0
 10
15.00063476187484
 20
-578.284081886679
 30
0.0
 10
15.00063476187484
 20
-570.0000052828473
 30
0.0
 10
15.00063476187484
 20
-570.0000052828473
 30
0.0
 10
15.00063476187484
 20
-29.99989148555558
 30
0.0
 10
15.00063476187484
 20
-29.99989148555558
 30
0.0
 10
15.00063476187484
 20
-21.71564262694956
 30
0.0
 10
21.71633164604661
 20
-14.99994574277779
 30
0.0
 10
30.00058050465264
 20
-14.99994574277779
 30
0.0
 10
30.00058050465264
 20
-14.99994574277779
 30
0.0
 10
770.0005450548957
 20
-14.99994574277779
 30
0.0
 10
770.0005450548957
 20
-14.99994574277779
 30
0.0
 10
778.284966168276
 20
-14.99994574277779
 30
0.0
 10
785.0004907976735
 20
-21.71564262694956
 30
0.0
 10
785.0004907976735
 20
-29.99989148555558
 30
0.0
 10
785.0004907976735
 20
-29.99989148555558
 30
0.0
 10
785.0004907976735
 20
-570.0000052828473
 30
0.0
 10
785.0004907976735
 20
-570.0000052828473
 30
0.0
  0
POLYLINE
  5
41
330
3C
100
AcDbEntity
  8
Layer 1
 62
   179
420
  2301728
370
    35
100
AcDb2dPolyline
 66
     1
 10
0.0
 20
0.0
 30
0.0
  0
VERTEX
  5
42
330
41
100
AcDbEntity
  8
Layer 1
 62
   179
420
  2301728
370
    35
100
AcDbVertex
100
AcDb2dVertex
 10
785.0004907976735
 20
-554.999715030521
 30
0.0
  0
VERTEX
  5
43
330
41
100
AcDbEntity
  8
Layer 1
 62
   179
420
  2301728
370
    35
100
AcDbVertex
100
AcDb2dVertex
 10
15.00046250710058
 20
-554.999715030521
 30
0.0
  0
VERTEX
  5
44
330
41
100
AcDbEntity
  8
Layer 1
 62
   179
420
  2301728
370
    35
100
AcDbVertex
100
AcDb2dVertex
 10
15.00046250710058
 20
-524.9998235449654
 30
0.0
  0
VERTEX
  5
45
330
41
100
AcDbEntity
  8
Layer 1
 62
   179
420
  2301728
370
    35
100
AcDbVertex
100
AcDb2dVertex
 10
785.0004907976735
 20
-524.9998235449654
 30
0.0
  0
VERTEX
  5
46
330
41
100
AcDbEntity
  8
Layer 1
 62
   179
420
  2301728
370
    35
100
AcDbVertex
100
AcDb2dVertex
 10
785.0004907976735
 20
-554.999715030521
 30
0.0
  0
SEQEND
  5
47
330
41
100
AcDbEntity
  8
Layer 1
370
    35
  0
ENDBLK
  5
3F
330
3C
100
AcDbEntity
  8
0
100
AcDbBlockEnd
  0
BLOCK
  5
54
330
52
100
AcDbEntity
  8
0
100
AcDbBlockBegin
  2
block 3
 70
     0
 71
     0
 10
0.0
 20
0.0
 30
0.0
  3
block 3
  1

  0
SPLINE
  5
56
330
52
100
AcDbEntity
  8
Layer 1
 62
    30
420
 16090918
370
    35
100
AcDbSpline
210
0.0
220
0.0
230
1.0
 70
    11
 71
     3
 72
    47
 73
    43
 74
     0
 42
0.0000000001
 43
0.0000000001
 40
0.0
 40
0.0
 40
0.0
 40
0.0
 40
1.0
 40
1.0
 40
1.0
 40
2.0
 40
2.0
 40
2.0
 40
3.0
 40
3.0
 40
3.0
 40
4.0
 40
4.0
 40
4.0
 40
5.0
 40
5.0
 40
5.0
 40
6.0
 40
6.0
 40
6.0
 40
7.0
 40
7.0
 40
7.0
 40
8.0
 40
8.0
 40
8.0
 40
9.0
 40
9.0
 40
9.0
 40
10.0
 40
10.0
 40
10.0
 40
11.0
 40
11.0
 40
11.0
 40
12.0
 40
12.0
 40
12.0
 40
13.0
 40
13.0
 40
13.0
 40
14.0
 40
14.0
 40
14.0
 40
14.0
 10
680.1062905200777
 20
-516.1338703136748
 30
0.0
 10
680.1062905200777
 20
-516.9245197275397
 30
0.0
 10
680.7091822299964
 20
-517.2407794930857
 30
0.0
 10
681.4157713140211
 20
-517.2407794930857
 30
0.0
 10
682.1323511749531
 20
-517.2407794930857
 30
0.0
 10
682.5819361357782
 20
-516.7911945322605
 30
0.0
 10
682.5967500463647
 20
-516.3512558387941
 30
0.0
 10
682.6115639569513
 20
-515.9164847885556
 30
0.0
 10
682.3893552981527
 20
-515.5705972018366
 30
0.0
 10
681.9494166046862
 20
-515.4765460950892
 30
0.0
 10
681.9494166046862
 20
-515.4765460950892
 30
0.0
 10
680.7388100511695
 20
-515.2147188382103
 30
0.0
 10
680.7388100511695
 20
-515.2147188382103
 30
0.0
 10
680.3977455981297
 20
-515.1406492852774
 30
0.0
 10
680.1951739835971
 20
-514.942900804424
 30
0.0
 10
680.1951739835971
 20
-514.4785019330124
 30
0.0
 10
680.1951739835971
 20
-514.0141030616006
 30
0.0
 10
680.5855033020758
 20
-513.6137829662147
 30
0.0
 10
681.2972600293285
 20
-513.6137829662147
 30
0.0
 10
682.0086722470326
 20
-513.6137829662147
 30
0.0
 10
682.5278481366597
 20
-513.9496797760265
 30
0.0
 10
682.5078665828453
 20
-514.5377575753587
 30
0.0
 10
682.5278481366597
 20
-513.9496797760265
 30
0.0
 10
682.0086722470326
 20
-513.6137829662147
 30
0.0
 10
681.2972600293285
 20
-513.6137829662147
 30
0.0
 10
680.5855033020758
 20
-513.6137829662147
 30
0.0
 10
680.1951739835971
 20
-514.0141030616006
 30
0.0
 10
680.1951739835971
 20
-514.4785019330124
 30
0.0
 10
680.1951739835971
 20
-514.942900804424
 30
0.0
 10
680.3880993307711
 20
-515.135826151598
 30
0.0
 10
680.7388100511695
 20
-515.2147188382103
 30
0.0
 10
680.7388100511695
 20
-515.2147188382103
 30
0.0
 10
681.9494166046862
 20
-515.4765460950892
 30
0.0
 10
681.9494166046862
 20
-515.4765460950892
 30
0.0
 10
682.39934607506
 20
-515.5705972018366
 30
0.0
 10
682.6115639569513
 20
-515.9164847885556
 30
0.0
 10
682.5967500463647
 20
-516.3512558387941
 30
0.0
 10
682.5819361357782
 20
-516.7911945322605
 30
0.0
 10
682.1323511749531
 20
-517.2407794930857
 30
0.0
 10
681.4157713140211
 20
-517.2407794930857
 30
0.0
 10
680.7091822299964
 20
-517.2407794930857
 30
0.0
 10
680.1062905200777
 20
-516.9245197275397
 30
0.0
 10
680.1062905200777
 20
-516.1338703136748
 30
0.0
  0
SPLINE
  5
57
330
52
100
AcDbEntity
  8
Layer 1
 62
    30
420
 16090918
370
    35
100
AcDbSpline
210
0.0
220
0.0
230
1.0
 70
    11
 71
     3
 72
    29
 73
    25
 74
     0
 42
0.0000000001
 43
0.0000000001
 40
0.0
 40
0.0
 40
0.0
 40
0.0
 40
1.0
 40
1.0
 40
1.0
 40
2.0
 40
2.0
 40
2.0
 40
3.0
 40
3.0
 40
3.0
 40
4.0
 40
4.0
 40
4.0
 40
5.0
 40
5.0
 40
5.0
 40
6.0
 40
6.0
 40
6.0
 40
7.0
 40
7.0
 40
7.0
 40
8.0
 40
8.0
 40
8.0
 40
8.0
 10
684.9273571421362
 20
-517.2111516719125
 30
0.0
 10
684.5122231361637
 20
-517.2111516719125
 30
0.0
 10
683.7956432752317
 20
-517.141905252659
 30
0.0
 10
683.7956432752317
 20
-515.9016708779691
 30
0.0
 10
683.7956432752317
 20
-514.6662596369584
 30
0.0
 10
684.5962834660037
 20
-514.6514457263719
 30
0.0
 10
684.9469941864022
 20
-514.6514457263719
 30
0.0
 10
685.2980494163492
 20
-514.6514457263719
 30
0.0
 10
685.7624482877608
 20
-514.9232637601581
 30
0.0
 10
685.792076108934
 20
-515.2691513468772
 30
0.0
 10
685.7624482877608
 20
-514.9232637601581
 30
0.0
 10
685.2980494163492
 20
-514.6514457263719
 30
0.0
 10
684.9469941864022
 20
-514.6514457263719
 30
0.0
 10
684.5962834660037
 20
-514.6514457263719
 30
0.0
 10
683.7956432752317
 20
-514.6662596369584
 30
0.0
 10
683.7956432752317
 20
-515.9016708779691
 30
0.0
 10
683.7956432752317
 20
-517.141905252659
 30
0.0
 10
684.5122231361637
 20
-517.2111516719125
 30
0.0
 10
684.9273571421362
 20
-517.2111516719125
 30
0.0
 10
685.3473142817882
 20
-517.2111516719125
 30
0.0
 10
685.792076108934
 20
-516.8208223534338
 30
0.0
 10
685.8068900195206
 20
-516.4056883474611
 30
0.0
 10
685.792076108934
 20
-516.8208223534338
 30
0.0
 10
685.3473142817882
 20
-517.2111516719125
 30
0.0
 10
684.9273571421362
 20
-517.2111516719125
 30
0.0
  0
SPLINE
  5
58
330
52
100
AcDbEntity
  8
Layer 1
 62
    30
420
 16090918
370
    35
100
AcDbSpline
210
0.0
220
0.0
230
1.0
 70
    11
 71
     3
 72
    29
 73
    25
 74
     0
 42
0.0000000001
 43
0.0000000001
 40
0.0
 40
0.0
 40
0.0
 40
0.0
 40
1.0
 40
1.0
 40
1.0
 40
2.0
 40
2.0
 40
2.0
 40
3.0
 40
3.0
 40
3.0
 40
4.0
 40
4.0
 40
4.0
 40
5.0
 40
5.0
 40
5.0
 40
6.0
 40
6.0
 40
6.0
 40
7.0
 40
7.0
 40
7.0
 40
8.0
 40
8.0
 40
8.0
 40
8.0
 10
688.7651935127045
 20
-516.5638182302341
 30
0.0
 10
688.6170544068389
 20
-516.776380621674
 30
0.0
 10
688.1082138036675
 20
-517.2555934036723
 30
0.0
 10
687.7027260650535
 20
-517.2407794930857
 30
0.0
 10
687.2927597023088
 20
-517.225965582499
 30
0.0
 10
686.9665091598556
 20
-517.0974635208993
 30
0.0
 10
686.9665091598556
 20
-516.6427109168463
 30
0.0
 10
686.9665091598556
 20
-516.183135179114
 30
0.0
 10
687.2431503273211
 20
-515.9905543414885
 30
0.0
 10
687.7671493506277
 20
-515.9412894760494
 30
0.0
 10
688.2859807307063
 20
-515.8916801010619
 30
0.0
 10
688.5181801664122
 20
-515.8127874144496
 30
0.0
 10
688.7651935127045
 20
-515.7435409951961
 30
0.0
 10
688.5181801664122
 20
-515.8127874144496
 30
0.0
 10
688.2859807307063
 20
-515.8916801010619
 30
0.0
 10
687.7671493506277
 20
-515.9412894760494
 30
0.0
 10
687.2431503273211
 20
-515.9905543414885
 30
0.0
 10
686.9665091598556
 20
-516.183135179114
 30
0.0
 10
686.9665091598556
 20
-516.6427109168463
 30
0.0
 10
686.9665091598556
 20
-517.0974635208993
 30
0.0
 10
687.2927597023088
 20
-517.225965582499
 30
0.0
 10
687.7027260650535
 20
-517.2407794930857
 30
0.0
 10
688.1082138036675
 20
-517.2555934036723
 30
0.0
 10
688.6170544068389
 20
-516.776380621674
 30
0.0
 10
688.7651935127045
 20
-516.5638182302341
 30
0.0
  0
SPLINE
  5
59
330
52
100
AcDbEntity
  8
Layer 1
 62
    30
420
 16090918
370
    35
100
AcDbSpline
210
0.0
220
0.0
230
1.0
 70
    11
 71
     3
 72
    29
 73
    25
 74
     0
 42
0.0000000001
 43
0.0000000001
 40
0.0
 40
0.0
 40
0.0
 40
0.0
 40
1.0
 40
1.0
 40
1.0
 40
2.0
 40
2.0
 40
2.0
 40
3.0
 40
3.0
 40
3.0
 40
4.0
 40
4.0
 40
4.0
 40
5.0
 40
5.0
 40
5.0
 40
6.0
 40
6.0
 40
6.0
 40
7.0
 40
7.0
 40
7.0
 40
8.0
 40
8.0
 40
8.0
 40
8.0
 10
689.1162487426516
 20
-517.2111516719125
 30
0.0
 10
689.1162487426516
 20
-517.2111516719125
 30
0.0
 10
688.7651935127045
 20
-517.1863469844187
 30
0.0
 10
688.7651935127045
 20
-516.8900687726872
 30
0.0
 10
688.7651935127045
 20
-516.8900687726872
 30
0.0
 10
688.7651935127045
 20
-515.2643282131978
 30
0.0
 10
688.7651935127045
 20
-515.2643282131978
 30
0.0
 10
688.7651935127045
 20
-515.0565889554373
 30
0.0
 10
688.6614961385985
 20
-514.6614365032791
 30
0.0
 10
687.9945256526541
 20
-514.6614365032791
 30
0.0
 10
687.3272106571612
 20
-514.6614365032791
 30
0.0
 10
687.0801973108689
 20
-514.9628823582385
 30
0.0
 10
687.0801973108689
 20
-515.2739744805565
 30
0.0
 10
687.0801973108689
 20
-514.9628823582385
 30
0.0
 10
687.3272106571612
 20
-514.6614365032791
 30
0.0
 10
687.9945256526541
 20
-514.6614365032791
 30
0.0
 10
688.6614961385985
 20
-514.6614365032791
 30
0.0
 10
688.7651935127045
 20
-515.0565889554373
 30
0.0
 10
688.7651935127045
 20
-515.2643282131978
 30
0.0
 10
688.7651935127045
 20
-515.2643282131978
 30
0.0
 10
688.7651935127045
 20
-516.8900687726872
 30
0.0
 10
688.7651935127045
 20
-516.8900687726872
 30
0.0
 10
688.7651935127045
 20
-517.1863469844187
 30
0.0
 10
689.1162487426516
 20
-517.2111516719125
 30
0.0
 10
689.1162487426516
 20
-517.2111516719125
 30
0.0
  0
SPLINE
  5
5A
330
52
100
AcDbEntity
  8
Layer 1
 62
    30
420
 16090918
370
    35
100
AcDbSpline
210
0.0
220
0.0
230
1.0
 70
    27
 71
     3
 72
    11
 73
     7
 74
     0
 42
0.0000000001
 43
0.0000000001
 40
0.0
 40
0.0
 40
0.0
 40
0.0
 40
1.0
 40
1.0
 40
1.0
 40
2.0
 40
2.0
 40
2.0
 40
2.0
 10
690.818814931462
 20
-517.2111516719125
 30
0.0
 10
690.818814931462
 20
-517.2111516719125
 30
0.0
 10
690.818814931462
 20
-513.6482339210671
 30
0.0
 10
690.818814931462
 20
-513.6482339210671
 30
0.0
 10
690.818814931462
 20
-513.6482339210671
 30
0.0
 10
690.818814931462
 20
-517.2111516719125
 30
0.0
 10
690.818814931462
 20
-517.2111516719125
 30
0.0
  0
SPLINE
  5
5B
330
52
100
AcDbEntity
  8
Layer 1
 62
    30
420
 16090918
370
    35
100
AcDbSpline
210
0.0
220
0.0
230
1.0
 70
    11
 71
     3
 72
    35
 73
    31
 74
     0
 42
0.0000000001
 43
0.0000000001
 40
0.0
 40
0.0
 40
0.0
 40
0.0
 40
1.0
 40
1.0
 40
1.0
 40
2.0
 40
2.0
 40
2.0
 40
3.0
 40
3.0
 40
3.0
 40
4.0
 40
4.0
 40
4.0
 40
5.0
 40
5.0
 40
5.0
 40
6.0
 40
6.0
 40
6.0
 40
7.0
 40
7.0
 40
7.0
 40
8.0
 40
8.0
 40
8.0
 40
9.0
 40
9.0
 40
9.0
 40
10.0
 40
10.0
 40
10.0
 40
10.0
 10
692.4679821402511
 20
-515.8572291462093
 30
0.0
 10
692.4679821402511
 20
-515.8572291462093
 30
0.0
 10
694.6769773653933
 20
-515.8572291462093
 30
0.0
 10
694.6769773653933
 20
-515.8572291462093
 30
0.0
 10
694.6769773653933
 20
-515.3087699449576
 30
0.0
 10
694.459591840274
 20
-514.6070039946121
 30
0.0
 10
693.6737655600886
 20
-514.6070039946121
 30
0.0
 10
692.893106923131
 20
-514.6070039946121
 30
0.0
 10
692.4631590065717
 20
-515.1406492852774
 30
0.0
 10
692.4631590065717
 20
-515.956103386636
 30
0.0
 10
692.4631590065717
 20
-516.776380621674
 30
0.0
 10
693.0167858510514
 20
-517.2111516719125
 30
0.0
 10
693.6737655600886
 20
-517.1915146276466
 30
0.0
 10
694.3359129123536
 20
-517.1715330738322
 30
0.0
 10
694.6225448567263
 20
-516.6578693369814
 30
0.0
 10
694.6573403211273
 20
-516.4749347667146
 30
0.0
 10
694.6225448567263
 20
-516.6578693369814
 30
0.0
 10
694.3359129123536
 20
-517.1715330738322
 30
0.0
 10
693.6737655600886
 20
-517.1915146276466
 30
0.0
 10
693.0167858510514
 20
-517.2111516719125
 30
0.0
 10
692.4631590065717
 20
-516.776380621674
 30
0.0
 10
692.4631590065717
 20
-515.956103386636
 30
0.0
 10
692.4631590065717
 20
-515.1406492852774
 30
0.0
 10
692.893106923131
 20
-514.6070039946121
 30
0.0
 10
693.6737655600886
 20
-514.6070039946121
 30
0.0
 10
694.459591840274
 20
-514.6070039946121
 30
0.0
 10
694.6769773653933
 20
-515.3087699449576
 30
0.0
 10
694.6769773653933
 20
-515.8572291462093
 30
0.0
 10
694.6769773653933
 20
-515.8572291462093
 30
0.0
 10
692.4679821402511
 20
-515.8572291462093
 30
0.0
 10
692.4679821402511
 20
-515.8572291462093
 30
0.0
  0
SPLINE
  5
5C
330
52
100
AcDbEntity
  8
Layer 1
 62
    30
420
 16090918
370
    35
100
AcDbSpline
210
0.0
220
0.0
230
1.0
 70
    27
 71
     3
 72
    11
 73
     7
 74
     0
 42
0.0000000001
 43
0.0000000001
 40
0.0
 40
0.0
 40
0.0
 40
0.0
 40
1.0
 40
1.0
 40
1.0
 40
2.0
 40
2.0
 40
2.0
 40
2.0
 10
696.4294974387399
 20
-515.6494898884488
 30
0.0
 10
696.4294974387399
 20
-515.6494898884488
 30
0.0
 10
696.4294974387399
 20
-515.3776718546626
 30
0.0
 10
696.4294974387399
 20
-515.3776718546626
 30
0.0
 10
696.4294974387399
 20
-515.3776718546626
 30
0.0
 10
696.4294974387399
 20
-515.6494898884488
 30
0.0
 10
696.4294974387399
 20
-515.6494898884488
 30
0.0
  0
SPLINE
  5
5D
330
52
100
AcDbEntity
  8
Layer 1
 62
    30
420
 16090918
370
    35
100
AcDbSpline
210
0.0
220
0.0
230
1.0
 70
    27
 71
     3
 72
    11
 73
     7
 74
     0
 42
0.0000000001
 43
0.0000000001
 40
0.0
 40
0.0
 40
0.0
 40
0.0
 40
1.0
 40
1.0
 40
1.0
 40
2.0
 40
2.0
 40
2.0
 40
2.0
 10
696.4294974387399
 20
-517.2111516719125
 30
0.0
 10
696.4294974387399
 20
-517.2111516719125
 30
0.0
 10
696.4294974387399
 20
-516.9393336381263
 30
0.0
 10
696.4294974387399
 20
-516.9393336381263
 30
0.0
 10
696.4294974387399
 20
-516.9393336381263
 30
0.0
 10
696.4294974387399
 20
-517.2111516719125
 30
0.0
 10
696.4294974387399
 20
-517.2111516719125
 30
0.0
  0
SPLINE
  5
5E
330
52
100
AcDbEntity
  8
Layer 1
 62
    30
420
 16090918
370
    35
100
AcDbSpline
210
0.0
220
0.0
230
1.0
 70
    27
 71
     3
 72
    11
 73
     7
 74
     0
 42
0.0000000001
 43
0.0000000001
 40
0.0
 40
0.0
 40
0.0
 40
0.0
 40
1.0
 40
1.0
 40
1.0
 40
2.0
 40
2.0
 40
2.0
 40
2.0
 10
701.0769312483419
 20
-517.2111516719125
 30
0.0
 10
701.0769312483419
 20
-517.2111516719125
 30
0.0
 10
701.0769312483419
 20
-513.6482339210671
 30
0.0
 10
701.0769312483419
 20
-513.6482339210671
 30
0.0
 10
701.0769312483419
 20
-513.6482339210671
 30
0.0
 10
701.0769312483419
 20
-517.2111516719125
 30
0.0
 10
701.0769312483419
 20
-517.2111516719125
 30
0.0
  0
SPLINE
  5
5F
330
52
100
AcDbEntity
  8
Layer 1
 62
    30
420
 16090918
370
    35
100
AcDbSpline
210
0.0
220
0.0
230
1.0
 70
    27
 71
     3
 72
    11
 73
     7
 74
     0
 42
0.0000000001
 43
0.0000000001
 40
0.0
 40
0.0
 40
0.0
 40
0.0
 40
1.0
 40
1.0
 40
1.0
 40
2.0
 40
2.0
 40
2.0
 40
2.0
 10
703.2600882573447
 20
-513.7322942509072
 30
0.0
 10
703.2600882573447
 20
-513.7322942509072
 30
0.0
 10
703.2600882573447
 20
-513.6434107873878
 30
0.0
 10
703.2600882573447
 20
-513.6434107873878
 30
0.0
 10
703.2600882573447
 20
-513.6434107873878
 30
0.0
 10
703.2600882573447
 20
-513.7322942509072
 30
0.0
 10
703.2600882573447
 20
-513.7322942509072
 30
0.0
  0
SPLINE
  5
60
330
52
100
AcDbEntity
  8
Layer 1
 62
    30
420
 16090918
370
    35
100
AcDbSpline
210
0.0
220
0.0
230
1.0
 70
    27
 71
     3
 72
    11
 73
     7
 74
     0
 42
0.0000000001
 43
0.0000000001
 40
0.0
 40
0.0
 40
0.0
 40
0.0
 40
1.0
 40
1.0
 40
1.0
 40
2.0
 40
2.0
 40
2.0
 40
2.0
 10
703.2600882573447
 20
-517.2063285382332
 30
0.0
 10
703.2600882573447
 20
-517.2063285382332
 30
0.0
 10
703.2600882573447
 20
-514.6710827706378
 30
0.0
 10
703.2600882573447
 20
-514.6710827706378
 30
0.0
 10
703.2600882573447
 20
-514.6710827706378
 30
0.0
 10
703.2600882573447
 20
-517.2159748055918
 30
0.0
 10
703.2600882573447
 20
-517.2063285382332
 30
0.0
  0
SPLINE
  5
61
330
52
100
AcDbEntity
  8
Layer 1
 62
    30
420
 16090918
370
    35
100
AcDbSpline
210
0.0
220
0.0
230
1.0
 70
    11
 71
     3
 72
    23
 73
    19
 74
     0
 42
0.0000000001
 43
0.0000000001
 40
0.0
 40
0.0
 40
0.0
 40
0.0
 40
1.0
 40
1.0
 40
1.0
 40
2.0
 40
2.0
 40
2.0
 40
3.0
 40
3.0
 40
3.0
 40
4.0
 40
4.0
 40
4.0
 40
5.0
 40
5.0
 40
5.0
 40
6.0
 40
6.0
 40
6.0
 40
6.0
 10
707.2563990202345
 20
-517.2111516719125
 30
0.0
 10
707.2563990202345
 20
-517.2111516719125
 30
0.0
 10
707.2563990202345
 20
-515.5606064249293
 30
0.0
 10
707.2563990202345
 20
-515.3332301229028
 30
0.0
 10
707.2563990202345
 20
-515.1061983304248
 30
0.0
 10
707.029022718208
 20
-514.681073547545
 30
0.0
 10
706.4013263207955
 20
-514.6762504138657
 30
0.0
 10
705.7688067897037
 20
-514.6710827706378
 30
0.0
 10
705.4377331135712
 20
-515.1602863295433
 30
0.0
 10
705.4377331135712
 20
-515.6150389335962
 30
0.0
 10
705.4377331135712
 20
-515.1602863295433
 30
0.0
 10
705.7688067897037
 20
-514.6710827706378
 30
0.0
 10
706.4013263207955
 20
-514.6762504138657
 30
0.0
 10
707.029022718208
 20
-514.681073547545
 30
0.0
 10
707.2563990202345
 20
-515.1061983304248
 30
0.0
 10
707.2563990202345
 20
-515.3332301229028
 30
0.0
 10
707.2563990202345
 20
-515.5606064249293
 30
0.0
 10
707.2563990202345
 20
-517.2111516719125
 30
0.0
 10
707.2563990202345
 20
-517.2111516719125
 30
0.0
  0
SPLINE
  5
62
330
52
100
AcDbEntity
  8
Layer 1
 62
    30
420
 16090918
370
    35
100
AcDbSpline
210
0.0
220
0.0
230
1.0
 70
    27
 71
     3
 72
    11
 73
     7
 74
     0
 42
0.0000000001
 43
0.0000000001
 40
0.0
 40
0.0
 40
0.0
 40
0.0
 40
1.0
 40
1.0
 40
1.0
 40
2.0
 40
2.0
 40
2.0
 40
2.0
 10
705.4377331135712
 20
-517.2111516719125
 30
0.0
 10
705.4377331135712
 20
-517.2111516719125
 30
0.0
 10
705.4377331135712
 20
-514.6762504138657
 30
0.0
 10
705.4377331135712
 20
-514.6762504138657
 30
0.0
 10
705.4377331135712
 20
-514.6762504138657
 30
0.0
 10
705.4377331135712
 20
-517.2111516719125
 30
0.0
 10
705.4377331135712
 20
-517.2111516719125
 30
0.0
  0
SPLINE
  5
63
330
52
100
AcDbEntity
  8
Layer 1
 62
    30
420
 16090918
370
    35
100
AcDbSpline
210
0.0
220
0.0
230
1.0
 70
    11
 71
     3
 72
    35
 73
    31
 74
     0
 42
0.0000000001
 43
0.0000000001
 40
0.0
 40
0.0
 40
0.0
 40
0.0
 40
1.0
 40
1.0
 40
1.0
 40
2.0
 40
2.0
 40
2.0
 40
3.0
 40
3.0
 40
3.0
 40
4.0
 40
4.0
 40
4.0
 40
5.0
 40
5.0
 40
5.0
 40
6.0
 40
6.0
 40
6.0
 40
7.0
 40
7.0
 40
7.0
 40
8.0
 40
8.0
 40
8.0
 40
9.0
 40
9.0
 40
9.0
 40
10.0
 40
10.0
 40
10.0
 40
10.0
 10
708.6871471752588
 20
-515.8572291462093
 30
0.0
 10
708.6871471752588
 20
-515.8572291462093
 30
0.0
 10
710.896142400401
 20
-515.8572291462093
 30
0.0
 10
710.896142400401
 20
-515.8572291462093
 30
0.0
 10
710.896142400401
 20
-515.3087699449576
 30
0.0
 10
710.6787568752817
 20
-514.6070039946121
 30
0.0
 10
709.8929305950962
 20
-514.6070039946121
 30
0.0
 10
709.1122719581386
 20
-514.6070039946121
 30
0.0
 10
708.6823240415795
 20
-515.1406492852774
 30
0.0
 10
708.6823240415795
 20
-515.956103386636
 30
0.0
 10
708.6823240415795
 20
-516.776380621674
 30
0.0
 10
709.2359508860591
 20
-517.2111516719125
 30
0.0
 10
709.8929305950962
 20
-517.1915146276466
 30
0.0
 10
710.5550779473613
 20
-517.1715330738322
 30
0.0
 10
710.841709891734
 20
-516.6578693369814
 30
0.0
 10
710.8765053561351
 20
-516.4749347667146
 30
0.0
 10
710.841709891734
 20
-516.6578693369814
 30
0.0
 10
710.5550779473613
 20
-517.1715330738322
 30
0.0
 10
709.8929305950962
 20
-517.1915146276466
 30
0.0
 10
709.2359508860591
 20
-517.2111516719125
 30
0.0
 10
708.6823240415795
 20
-516.776380621674
 30
0.0
 10
708.6823240415795
 20
-515.956103386636
 30
0.0
 10
708.6823240415795
 20
-515.1406492852774
 30
0.0
 10
709.1122719581386
 20
-514.6070039946121
 30
0.0
 10
709.8929305950962
 20
-514.6070039946121
 30
0.0
 10
710.6787568752817
 20
-514.6070039946121
 30
0.0
 10
710.896142400401
 20
-515.3087699449576
 30
0.0
 10
710.896142400401
 20
-515.8572291462093
 30
0.0
 10
710.896142400401
 20
-515.8572291462093
 30
0.0
 10
708.6871471752588
 20
-515.8572291462093
 30
0.0
 10
708.6871471752588
 20
-515.8572291462093
 30
0.0
  0
SPLINE
  5
64
330
52
100
AcDbEntity
  8
Layer 1
 62
    30
420
 16090918
370
    35
100
AcDbSpline
210
0.0
220
0.0
230
1.0
 70
    27
 71
     3
 72
    11
 73
     7
 74
     0
 42
0.0000000001
 43
0.0000000001
 40
0.0
 40
0.0
 40
0.0
 40
0.0
 40
1.0
 40
1.0
 40
1.0
 40
2.0
 40
2.0
 40
2.0
 40
2.0
 10
715.1181069175747
 20
-513.6334200104806
 30
0.0
 10
715.1181069175747
 20
-513.6334200104806
 30
0.0
 10
715.1181069175747
 20
-517.2111516719125
 30
0.0
 10
715.1181069175747
 20
-517.2111516719125
 30
0.0
 10
715.1181069175747
 20
-517.2111516719125
 30
0.0
 10
715.1181069175747
 20
-513.6334200104806
 30
0.0
 10
715.1181069175747
 20
-513.6334200104806
 30
0.0
  0
SPLINE
  5
65
330
52
100
AcDbEntity
  8
Layer 1
 62
    30
420
 16090918
370
    35
100
AcDbSpline
210
0.0
220
0.0
230
1.0
 70
    11
 71
     3
 72
    17
 73
    13
 74
     0
 42
0.0000000001
 43
0.0000000001
 40
0.0
 40
0.0
 40
0.0
 40
0.0
 40
1.0
 40
1.0
 40
1.0
 40
2.0
 40
2.0
 40
2.0
 40
3.0
 40
3.0
 40
3.0
 40
4.0
 40
4.0
 40
4.0
 40
4.0
 10
716.1657604546391
 20
-514.6614365032791
 30
0.0
 10
716.743847477064
 20
-514.6614365032791
 30
0.0
 10
717.2134139917036
 20
-514.942900804424
 30
0.0
 10
717.2134139917036
 20
-515.9361218328215
 30
0.0
 10
717.2134139917036
 20
-516.9245197275397
 30
0.0
 10
716.743847477064
 20
-517.2111516719125
 30
0.0
 10
716.1657604546391
 20
-517.2111516719125
 30
0.0
 10
715.5876734322143
 20
-517.2111516719125
 30
0.0
 10
715.1181069175747
 20
-516.9245197275397
 30
0.0
 10
715.1181069175747
 20
-515.9361218328215
 30
0.0
 10
715.1181069175747
 20
-514.942900804424
 30
0.0
 10
715.5876734322143
 20
-514.6614365032791
 30
0.0
 10
716.1657604546391
 20
-514.6614365032791
 30
0.0
  0
SPLINE
  5
66
330
52
100
AcDbEntity
  8
Layer 1
 62
    30
420
 16090918
370
    35
100
AcDbSpline
210
0.0
220
0.0
230
1.0
 70
    11
 71
     3
 72
    17
 73
    13
 74
     0
 42
0.0000000001
 43
0.0000000001
 40
0.0
 40
0.0
 40
0.0
 40
0.0
 40
1.0
 40
1.0
 40
1.0
 40
2.0
 40
2.0
 40
2.0
 40
3.0
 40
3.0
 40
3.0
 40
4.0
 40
4.0
 40
4.0
 40
4.0
 10
716.1657604546391
 20
-514.6614365032791
 30
0.0
 10
716.743847477064
 20
-514.6614365032791
 30
0.0
 10
717.2134139917036
 20
-514.942900804424
 30
0.0
 10
717.2134139917036
 20
-515.9361218328215
 30
0.0
 10
717.2134139917036
 20
-516.9245197275397
 30
0.0
 10
716.743847477064
 20
-517.2111516719125
 30
0.0
 10
716.1657604546391
 20
-517.2111516719125
 30
0.0
 10
715.5876734322143
 20
-517.2111516719125
 30
0.0
 10
715.1181069175747
 20
-516.9245197275397
 30
0.0
 10
715.1181069175747
 20
-515.9361218328215
 30
0.0
 10
715.1181069175747
 20
-514.942900804424
 30
0.0
 10
715.5876734322143
 20
-514.6614365032791
 30
0.0
 10
716.1657604546391
 20
-514.6614365032791
 30
0.0
  0
SPLINE
  5
67
330
52
100
AcDbEntity
  8
Layer 1
 62
    30
420
 16090918
370
    35
100
AcDbSpline
210
0.0
220
0.0
230
1.0
 70
    11
 71
     3
 72
    35
 73
    31
 74
     0
 42
0.0000000001
 43
0.0000000001
 40
0.0
 40
0.0
 40
0.0
 40
0.0
 40
1.0
 40
1.0
 40
1.0
 40
2.0
 40
2.0
 40
2.0
 40
3.0
 40
3.0
 40
3.0
 40
4.0
 40
4.0
 40
4.0
 40
5.0
 40
5.0
 40
5.0
 40
6.0
 40
6.0
 40
6.0
 40
7.0
 40
7.0
 40
7.0
 40
8.0
 40
8.0
 40
8.0
 40
9.0
 40
9.0
 40
9.0
 40
10.0
 40
10.0
 40
10.0
 40
10.0
 10
720.6209579361642
 20
-515.8572291462093
 30
0.0
 10
720.6209579361642
 20
-515.3087699449576
 30
0.0
 10
720.4035724110449
 20
-514.6070039946121
 30
0.0
 10
719.6177461308595
 20
-514.6070039946121
 30
0.0
 10
718.8370874939019
 20
-514.6070039946121
 30
0.0
 10
718.4071395773427
 20
-515.1406492852774
 30
0.0
 10
718.4071395773427
 20
-515.956103386636
 30
0.0
 10
718.4071395773427
 20
-516.776380621674
 30
0.0
 10
718.9607664218223
 20
-517.2111516719125
 30
0.0
 10
719.6177461308595
 20
-517.1915146276466
 30
0.0
 10
720.2798934831245
 20
-517.1715330738322
 30
0.0
 10
720.5665254274973
 20
-516.6578693369814
 30
0.0
 10
720.6013208918984
 20
-516.4749347667146
 30
0.0
 10
720.5665254274973
 20
-516.6578693369814
 30
0.0
 10
720.2798934831245
 20
-517.1715330738322
 30
0.0
 10
719.6177461308595
 20
-517.1915146276466
 30
0.0
 10
718.9607664218223
 20
-517.2111516719125
 30
0.0
 10
718.4071395773427
 20
-516.776380621674
 30
0.0
 10
718.4071395773427
 20
-515.956103386636
 30
0.0
 10
718.4071395773427
 20
-515.1406492852774
 30
0.0
 10
718.8370874939019
 20
-514.6070039946121
 30
0.0
 10
719.6177461308595
 20
-514.6070039946121
 30
0.0
 10
720.4035724110449
 20
-514.6070039946121
 30
0.0
 10
720.6209579361642
 20
-515.3087699449576
 30
0.0
 10
720.6209579361642
 20
-515.8572291462093
 30
0.0
 10
720.6209579361642
 20
-515.8572291462093
 30
0.0
 10
718.411962711022
 20
-515.8572291462093
 30
0.0
 10
718.411962711022
 20
-515.8572291462093
 30
0.0
 10
718.411962711022
 20
-515.8572291462093
 30
0.0
 10
720.6209579361642
 20
-515.8572291462093
 30
0.0
 10
720.6209579361642
 20
-515.8572291462093
 30
0.0
  0
SPLINE
  5
68
330
52
100
AcDbEntity
  8
Layer 1
 62
    30
420
 16090918
370
    35
100
AcDbSpline
210
0.0
220
0.0
230
1.0
 70
    27
 71
     3
 72
    11
 73
     7
 74
     0
 42
0.0000000001
 43
0.0000000001
 40
0.0
 40
0.0
 40
0.0
 40
0.0
 40
1.0
 40
1.0
 40
1.0
 40
2.0
 40
2.0
 40
2.0
 40
2.0
 10
722.3731334999623
 20
-517.2111516719125
 30
0.0
 10
722.3731334999623
 20
-517.2111516719125
 30
0.0
 10
722.3731334999623
 20
-513.6482339210671
 30
0.0
 10
722.3731334999623
 20
-513.6482339210671
 30
0.0
 10
722.3731334999623
 20
-513.6482339210671
 30
0.0
 10
722.3731334999623
 20
-517.2111516719125
 30
0.0
 10
722.3731334999623
 20
-517.2111516719125
 30
0.0
  0
SPLINE
  5
69
330
52
100
AcDbEntity
  8
Layer 1
 62
    30
420
 16090918
370
    35
100
AcDbSpline
210
0.0
220
0.0
230
1.0
 70
    11
 71
     3
 72
    17
 73
    13
 74
     0
 42
0.0000000001
 43
0.0000000001
 40
0.0
 40
0.0
 40
0.0
 40
0.0
 40
1.0
 40
1.0
 40
1.0
 40
2.0
 40
2.0
 40
2.0
 40
3.0
 40
3.0
 40
3.0
 40
4.0
 40
4.0
 40
4.0
 40
4.0
 10
724.017477575072
 20
-515.9164847885556
 30
0.0
 10
724.017477575072
 20
-514.9180961169302
 30
0.0
 10
724.5266626877919
 20
-514.6266410388781
 30
0.0
 10
725.1392006650694
 20
-514.6266410388781
 30
0.0
 10
725.7569062855747
 20
-514.6266410388781
 30
0.0
 10
726.2609237550668
 20
-514.9180961169302
 30
0.0
 10
726.2609237550668
 20
-515.9164847885556
 30
0.0
 10
726.2609237550668
 20
-516.9196965938604
 30
0.0
 10
725.7569062855747
 20
-517.2111516719125
 30
0.0
 10
725.1392006650694
 20
-517.2111516719125
 30
0.0
 10
724.5266626877919
 20
-517.2111516719125
 30
0.0
 10
724.017477575072
 20
-516.9196965938604
 30
0.0
 10
724.017477575072
 20
-515.9164847885556
 30
0.0
  0
SPLINE
  5
6A
330
52
100
AcDbEntity
  8
Layer 1
 62
    30
420
 16090918
370
    35
100
AcDbSpline
210
0.0
220
0.0
230
1.0
 70
    11
 71
     3
 72
    17
 73
    13
 74
     0
 42
0.0000000001
 43
0.0000000001
 40
0.0
 40
0.0
 40
0.0
 40
0.0
 40
1.0
 40
1.0
 40
1.0
 40
2.0
 40
2.0
 40
2.0
 40
3.0
 40
3.0
 40
3.0
 40
4.0
 40
4.0
 40
4.0
 40
4.0
 10
724.017477575072
 20
-515.9164847885556
 30
0.0
 10
724.017477575072
 20
-514.9180961169302
 30
0.0
 10
724.5266626877919
 20
-514.6266410388781
 30
0.0
 10
725.1392006650694
 20
-514.6266410388781
 30
0.0
 10
725.7569062855747
 20
-514.6266410388781
 30
0.0
 10
726.2609237550668
 20
-514.9180961169302
 30
0.0
 10
726.2609237550668
 20
-515.9164847885556
 30
0.0
 10
726.2609237550668
 20
-516.9196965938604
 30
0.0
 10
725.7569062855747
 20
-517.2111516719125
 30
0.0
 10
725.1392006650694
 20
-517.2111516719125
 30
0.0
 10
724.5266626877919
 20
-517.2111516719125
 30
0.0
 10
724.017477575072
 20
-516.9196965938604
 30
0.0
 10
724.017477575072
 20
-515.9164847885556
 30
0.0
  0
SPLINE
  5
6B
330
52
100
AcDbEntity
  8
Layer 1
 62
    30
420
 16090918
370
    35
100
AcDbSpline
210
0.0
220
0.0
230
1.0
 70
    11
 71
     3
 72
    29
 73
    25
 74
     0
 42
0.0000000001
 43
0.0000000001
 40
0.0
 40
0.0
 40
0.0
 40
0.0
 40
1.0
 40
1.0
 40
1.0
 40
2.0
 40
2.0
 40
2.0
 40
3.0
 40
3.0
 40
3.0
 40
4.0
 40
4.0
 40
4.0
 40
5.0
 40
5.0
 40
5.0
 40
6.0
 40
6.0
 40
6.0
 40
7.0
 40
7.0
 40
7.0
 40
8.0
 40
8.0
 40
8.0
 40
8.0
 10
728.1664060679584
 20
-517.2111516719125
 30
0.0
 10
728.1664060679584
 20
-517.2111516719125
 30
0.0
 10
729.0411158116634
 20
-514.6762504138657
 30
0.0
 10
729.0411158116634
 20
-514.6762504138657
 30
0.0
 10
729.0411158116634
 20
-514.6762504138657
 30
0.0
 10
729.9206486890477
 20
-517.2111516719125
 30
0.0
 10
729.9206486890477
 20
-517.2111516719125
 30
0.0
 10
729.9206486890477
 20
-517.2111516719125
 30
0.0
 10
730.6520424605662
 20
-514.6762504138657
 30
0.0
 10
730.6520424605662
 20
-514.6762504138657
 30
0.0
 10
730.6520424605662
 20
-514.6762504138657
 30
0.0
 10
729.9206486890477
 20
-517.2111516719125
 30
0.0
 10
729.9206486890477
 20
-517.2111516719125
 30
0.0
 10
729.9206486890477
 20
-517.2111516719125
 30
0.0
 10
729.0411158116634
 20
-514.6762504138657
 30
0.0
 10
729.0411158116634
 20
-514.6762504138657
 30
0.0
 10
729.0411158116634
 20
-514.6762504138657
 30
0.0
 10
728.1664060679584
 20
-517.2111516719125
 30
0.0
 10
728.1664060679584
 20
-517.2111516719125
 30
0.0
 10
728.1664060679584
 20
-517.2111516719125
 30
0.0
 10
727.4350122964399
 20
-514.6762504138657
 30
0.0
 10
727.4350122964399
 20
-514.6762504138657
 30
0.0
 10
727.4350122964399
 20
-514.6762504138657
 30
0.0
 10
728.1664060679584
 20
-517.2111516719125
 30
0.0
 10
728.1664060679584
 20
-517.2111516719125
 30
0.0
  0
SPLINE
  5
6C
330
52
100
AcDbEntity
  8
Layer 1
 62
    30
420
 16090918
370
    35
100
AcDbSpline
210
0.0
220
0.0
230
1.0
 70
    27
 71
     3
 72
    11
 73
     7
 74
     0
 42
0.0000000001
 43
0.0000000001
 40
0.0
 40
0.0
 40
0.0
 40
0.0
 40
1.0
 40
1.0
 40
1.0
 40
2.0
 40
2.0
 40
2.0
 40
2.0
 10
734.8784856018707
 20
-513.7322942509072
 30
0.0
 10
734.8784856018707
 20
-513.7322942509072
 30
0.0
 10
734.8784856018707
 20
-513.6434107873878
 30
0.0
 10
734.8784856018707
 20
-513.6434107873878
 30
0.0
 10
734.8784856018707
 20
-513.6434107873878
 30
0.0
 10
734.8784856018707
 20
-513.7322942509072
 30
0.0
 10
734.8784856018707
 20
-513.7322942509072
 30
0.0
  0
SPLINE
  5
6D
330
52
100
AcDbEntity
  8
Layer 1
 62
    30
420
 16090918
370
    35
100
AcDbSpline
210
0.0
220
0.0
230
1.0
 70
    27
 71
     3
 72
    11
 73
     7
 74
     0
 42
0.0000000001
 43
0.0000000001
 40
0.0
 40
0.0
 40
0.0
 40
0.0
 40
1.0
 40
1.0
 40
1.0
 40
2.0
 40
2.0
 40
2.0
 40
2.0
 10
734.8784856018707
 20
-517.2063285382332
 30
0.0
 10
734.8784856018707
 20
-517.2063285382332
 30
0.0
 10
734.8784856018707
 20
-514.6710827706378
 30
0.0
 10
734.8784856018707
 20
-514.6710827706378
 30
0.0
 10
734.8784856018707
 20
-514.6710827706378
 30
0.0
 10
734.8784856018707
 20
-517.2159748055918
 30
0.0
 10
734.8784856018707
 20
-517.2063285382332
 30
0.0
  0
SPLINE
  5
6E
330
52
100
AcDbEntity
  8
Layer 1
 62
    30
420
 16090918
370
    35
100
AcDbSpline
210
0.0
220
0.0
230
1.0
 70
    11
 71
     3
 72
    47
 73
    43
 74
     0
 42
0.0000000001
 43
0.0000000001
 40
0.0
 40
0.0
 40
0.0
 40
0.0
 40
1.0
 40
1.0
 40
1.0
 40
2.0
 40
2.0
 40
2.0
 40
3.0
 40
3.0
 40
3.0
 40
4.0
 40
4.0
 40
4.0
 40
5.0
 40
5.0
 40
5.0
 40
6.0
 40
6.0
 40
6.0
 40
7.0
 40
7.0
 40
7.0
 40
8.0
 40
8.0
 40
8.0
 40
9.0
 40
9.0
 40
9.0
 40
10.0
 40
10.0
 40
10.0
 40
11.0
 40
11.0
 40
11.0
 40
12.0
 40
12.0
 40
12.0
 40
13.0
 40
13.0
 40
13.0
 40
14.0
 40
14.0
 40
14.0
 40
14.0
 10
737.4664413303904
 20
-514.6366318157853
 30
0.0
 10
736.8435680666572
 20
-514.6218179051988
 30
0.0
 10
736.5572806318329
 20
-514.8195663860521
 30
0.0
 10
736.5572806318329
 20
-515.1999049276236
 30
0.0
 10
736.5572806318329
 20
-515.5854111124231
 30
0.0
 10
736.8783635310582
 20
-515.7039223971157
 30
0.0
 10
736.9968748157509
 20
-515.7387178615168
 30
0.0
 10
736.9968748157509
 20
-515.7387178615168
 30
0.0
 10
737.9308402018021
 20
-516.0153590289823
 30
0.0
 10
737.9308402018021
 20
-516.0153590289823
 30
0.0
 10
738.0545191297225
 20
-516.0449868501554
 30
0.0
 10
738.350797341454
 20
-516.1783120454346
 30
0.0
 10
738.350797341454
 20
-516.5441811859681
 30
0.0
 10
738.350797341454
 20
-516.9097058169532
 30
0.0
 10
737.9604680229752
 20
-517.2111516719125
 30
0.0
 10
737.4664413303904
 20
-517.2111516719125
 30
0.0
 10
736.972070128257
 20
-517.2111516719125
 30
0.0
 10
736.5224851674319
 20
-516.9493244150335
 30
0.0
 10
736.5224851674319
 20
-516.5638182302341
 30
0.0
 10
736.5224851674319
 20
-516.9493244150335
 30
0.0
 10
736.972070128257
 20
-517.2111516719125
 30
0.0
 10
737.4664413303904
 20
-517.2111516719125
 30
0.0
 10
737.9604680229752
 20
-517.2111516719125
 30
0.0
 10
738.350797341454
 20
-516.9097058169532
 30
0.0
 10
738.350797341454
 20
-516.5441811859681
 30
0.0
 10
738.350797341454
 20
-516.1783120454346
 30
0.0
 10
738.0545191297225
 20
-516.0449868501554
 30
0.0
 10
737.9308402018021
 20
-516.0153590289823
 30
0.0
 10
737.9308402018021
 20
-516.0153590289823
 30
0.0
 10
736.9968748157509
 20
-515.7387178615168
 30
0.0
 10
736.9968748157509
 20
-515.7387178615168
 30
0.0
 10
736.8783635310582
 20
-515.7039223971157
 30
0.0
 10
736.5572806318329
 20
-515.5854111124231
 30
0.0
 10
736.5572806318329
 20
-515.1999049276236
 30
0.0
 10
736.5572806318329
 20
-514.8195663860521
 30
0.0
 10
736.8435680666572
 20
-514.6218179051988
 30
0.0
 10
737.4664413303904
 20
-514.6366318157853
 30
0.0
 10
738.0889700845751
 20
-514.6614365032791
 30
0.0
 10
738.2519231010274
 20
-515.0073240899982
 30
0.0
 10
738.2422768336686
 20
-515.1306585083702
 30
0.0
 10
738.2519231010274
 20
-515.0073240899982
 30
0.0
 10
738.0889700845751
 20
-514.6614365032791
 30
0.0
 10
737.4664413303904
 20
-514.6366318157853
 30
0.0
  0
SPLINE
  5
6F
330
52
100
AcDbEntity
  8
Layer 1
 62
    30
420
 16090918
370
    35
100
AcDbSpline
210
0.0
220
0.0
230
1.0
 70
    11
 71
     3
 72
    17
 73
    13
 74
     0
 42
0.0000000001
 43
0.0000000001
 40
0.0
 40
0.0
 40
0.0
 40
0.0
 40
1.0
 40
1.0
 40
1.0
 40
2.0
 40
2.0
 40
2.0
 40
3.0
 40
3.0
 40
3.0
 40
4.0
 40
4.0
 40
4.0
 40
4.0
 10
742.8104734471099
 20
-517.2111516719125
 30
0.0
 10
742.8104734471099
 20
-517.2111516719125
 30
0.0
 10
742.8104734471099
 20
-513.6482339210671
 30
0.0
 10
742.8104734471099
 20
-513.6482339210671
 30
0.0
 10
742.8104734471099
 20
-514.2559487646652
 30
0.0
 10
742.2223956477777
 20
-514.3992647368516
 30
0.0
 10
741.9702146582575
 20
-514.419246290666
 30
0.0
 10
742.2223956477777
 20
-514.3992647368516
 30
0.0
 10
742.8104734471099
 20
-514.2559487646652
 30
0.0
 10
742.8104734471099
 20
-513.6482339210671
 30
0.0
 10
742.8104734471099
 20
-513.6482339210671
 30
0.0
 10
742.8104734471099
 20
-517.2111516719125
 30
0.0
 10
742.8104734471099
 20
-517.2111516719125
 30
0.0
  0
SPLINE
  5
70
330
52
100
AcDbEntity
  8
Layer 1
 62
    30
420
 16090918
370
    35
100
AcDbSpline
210
0.0
220
0.0
230
1.0
 70
    11
 71
     3
 72
    17
 73
    13
 74
     0
 42
0.0000000001
 43
0.0000000001
 40
0.0
 40
0.0
 40
0.0
 40
0.0
 40
1.0
 40
1.0
 40
1.0
 40
2.0
 40
2.0
 40
2.0
 40
3.0
 40
3.0
 40
3.0
 40
4.0
 40
4.0
 40
4.0
 40
4.0
 10
744.4692869232578
 20
-515.4321043633295
 30
0.0
 10
744.4692869232578
 20
-514.4536972455186
 30
0.0
 10
744.6770261810183
 20
-513.6530570547465
 30
0.0
 10
745.5465682814953
 20
-513.6530570547465
 30
0.0
 10
746.416454891521
 20
-513.6530570547465
 30
0.0
 10
746.623849639733
 20
-514.4536972455186
 30
0.0
 10
746.623849639733
 20
-515.4321043633295
 30
0.0
 10
746.623849639733
 20
-516.4156791243684
 30
0.0
 10
746.416454891521
 20
-517.2111516719125
 30
0.0
 10
745.5465682814953
 20
-517.2111516719125
 30
0.0
 10
744.6770261810183
 20
-517.2111516719125
 30
0.0
 10
744.4692869232578
 20
-516.4156791243684
 30
0.0
 10
744.4692869232578
 20
-515.4321043633295
 30
0.0
  0
SPLINE
  5
71
330
52
100
AcDbEntity
  8
Layer 1
 62
    30
420
 16090918
370
    35
100
AcDbSpline
210
0.0
220
0.0
230
1.0
 70
    11
 71
     3
 72
    17
 73
    13
 74
     0
 42
0.0000000001
 43
0.0000000001
 40
0.0
 40
0.0
 40
0.0
 40
0.0
 40
1.0
 40
1.0
 40
1.0
 40
2.0
 40
2.0
 40
2.0
 40
3.0
 40
3.0
 40
3.0
 40
4.0
 40
4.0
 40
4.0
 40
4.0
 10
744.4692869232578
 20
-515.4321043633295
 30
0.0
 10
744.4692869232578
 20
-514.4536972455186
 30
0.0
 10
744.6770261810183
 20
-513.6530570547465
 30
0.0
 10
745.5465682814953
 20
-513.6530570547465
 30
0.0
 10
746.416454891521
 20
-513.6530570547465
 30
0.0
 10
746.623849639733
 20
-514.4536972455186
 30
0.0
 10
746.623849639733
 20
-515.4321043633295
 30
0.0
 10
746.623849639733
 20
-516.4156791243684
 30
0.0
 10
746.416454891521
 20
-517.2111516719125
 30
0.0
 10
745.5465682814953
 20
-517.2111516719125
 30
0.0
 10
744.6770261810183
 20
-517.2111516719125
 30
0.0
 10
744.4692869232578
 20
-516.4156791243684
 30
0.0
 10
744.4692869232578
 20
-515.4321043633295
 30
0.0
  0
SPLINE
  5
72
330
52
100
AcDbEntity
  8
Layer 1
 62
    30
420
 16090918
370
    35
100
AcDbSpline
210
0.0
220
0.0
230
1.0
 70
    11
 71
     3
 72
    17
 73
    13
 74
     0
 42
0.0000000001
 43
0.0000000001
 40
0.0
 40
0.0
 40
0.0
 40
0.0
 40
1.0
 40
1.0
 40
1.0
 40
2.0
 40
2.0
 40
2.0
 40
3.0
 40
3.0
 40
3.0
 40
4.0
 40
4.0
 40
4.0
 40
4.0
 10
747.7931150474268
 20
-515.4321043633295
 30
0.0
 10
747.7931150474268
 20
-514.4536972455186
 30
0.0
 10
748.0008543051873
 20
-513.6530570547465
 30
0.0
 10
748.8703964056643
 20
-513.6530570547465
 30
0.0
 10
749.74028301569
 20
-513.6530570547465
 30
0.0
 10
749.947677763902
 20
-514.4536972455186
 30
0.0
 10
749.947677763902
 20
-515.4321043633295
 30
0.0
 10
749.947677763902
 20
-516.4156791243684
 30
0.0
 10
749.74028301569
 20
-517.2111516719125
 30
0.0
 10
748.8703964056643
 20
-517.2111516719125
 30
0.0
 10
748.0008543051873
 20
-517.2111516719125
 30
0.0
 10
747.7931150474268
 20
-516.4156791243684
 30
0.0
 10
747.7931150474268
 20
-515.4321043633295
 30
0.0
  0
SPLINE
  5
73
330
52
100
AcDbEntity
  8
Layer 1
 62
    30
420
 16090918
370
    35
100
AcDbSpline
210
0.0
220
0.0
230
1.0
 70
    11
 71
     3
 72
    17
 73
    13
 74
     0
 42
0.0000000001
 43
0.0000000001
 40
0.0
 40
0.0
 40
0.0
 40
0.0
 40
1.0
 40
1.0
 40
1.0
 40
2.0
 40
2.0
 40
2.0
 40
3.0
 40
3.0
 40
3.0
 40
4.0
 40
4.0
 40
4.0
 40
4.0
 10
747.7931150474268
 20
-515.4321043633295
 30
0.0
 10
747.7931150474268
 20
-514.4536972455186
 30
0.0
 10
748.0008543051873
 20
-513.6530570547465
 30
0.0
 10
748.8703964056643
 20
-513.6530570547465
 30
0.0
 10
749.74028301569
 20
-513.6530570547465
 30
0.0
 10
749.947677763902
 20
-514.4536972455186
 30
0.0
 10
749.947677763902
 20
-515.4321043633295
 30
0.0
 10
749.947677763902
 20
-516.4156791243684
 30
0.0
 10
749.74028301569
 20
-517.2111516719125
 30
0.0
 10
748.8703964056643
 20
-517.2111516719125
 30
0.0
 10
748.0008543051873
 20
-517.2111516719125
 30
0.0
 10
747.7931150474268
 20
-516.4156791243684
 30
0.0
 10
747.7931150474268
 20
-515.4321043633295
 30
0.0
  0
SPLINE
  5
74
330
52
100
AcDbEntity
  8
Layer 1
 62
    30
420
 16090918
370
    35
100
AcDbSpline
210
0.0
220
0.0
230
1.0
 70
    11
 71
     3
 72
    23
 73
    19
 74
     0
 42
0.0000000001
 43
0.0000000001
 40
0.0
 40
0.0
 40
0.0
 40
0.0
 40
1.0
 40
1.0
 40
1.0
 40
2.0
 40
2.0
 40
2.0
 40
3.0
 40
3.0
 40
3.0
 40
4.0
 40
4.0
 40
4.0
 40
5.0
 40
5.0
 40
5.0
 40
6.0
 40
6.0
 40
6.0
 40
6.0
 10
753.3355846640967
 20
-517.2111516719125
 30
0.0
 10
753.3355846640967
 20
-517.2111516719125
 30
0.0
 10
753.3355846640967
 20
-515.5606064249293
 30
0.0
 10
753.3355846640967
 20
-515.3332301229028
 30
0.0
 10
753.3355846640967
 20
-515.1061983304248
 30
0.0
 10
753.1874455582309
 20
-514.681073547545
 30
0.0
 10
752.5597491608185
 20
-514.6762504138657
 30
0.0
 10
751.9323972729544
 20
-514.6710827706378
 30
0.0
 10
751.650588462261
 20
-515.1602863295433
 30
0.0
 10
751.650588462261
 20
-515.6150389335962
 30
0.0
 10
751.650588462261
 20
-515.1602863295433
 30
0.0
 10
751.9323972729544
 20
-514.6710827706378
 30
0.0
 10
752.5597491608185
 20
-514.6762504138657
 30
0.0
 10
753.1874455582309
 20
-514.681073547545
 30
0.0
 10
753.3355846640967
 20
-515.1061983304248
 30
0.0
 10
753.3355846640967
 20
-515.3332301229028
 30
0.0
 10
753.3355846640967
 20
-515.5606064249293
 30
0.0
 10
753.3355846640967
 20
-517.2111516719125
 30
0.0
 10
753.3355846640967
 20
-517.2111516719125
 30
0.0
  0
SPLINE
  5
75
330
52
100
AcDbEntity
  8
Layer 1
 62
    30
420
 16090918
370
    35
100
AcDbSpline
210
0.0
220
0.0
230
1.0
 70
    27
 71
     3
 72
    11
 73
     7
 74
     0
 42
0.0000000001
 43
0.0000000001
 40
0.0
 40
0.0
 40
0.0
 40
0.0
 40
1.0
 40
1.0
 40
1.0
 40
2.0
 40
2.0
 40
2.0
 40
2.0
 10
751.650588462261
 20
-517.2111516719125
 30
0.0
 10
751.650588462261
 20
-517.2111516719125
 30
0.0
 10
751.650588462261
 20
-514.6762504138657
 30
0.0
 10
751.650588462261
 20
-514.6762504138657
 30
0.0
 10
751.650588462261
 20
-514.6762504138657
 30
0.0
 10
751.650588462261
 20
-517.2111516719125
 30
0.0
 10
751.650588462261
 20
-517.2111516719125
 30
0.0
  0
SPLINE
  5
76
330
52
100
AcDbEntity
  8
Layer 1
 62
    30
420
 16090918
370
    35
100
AcDbSpline
210
0.0
220
0.0
230
1.0
 70
    11
 71
     3
 72
    23
 73
    19
 74
     0
 42
0.0000000001
 43
0.0000000001
 40
0.0
 40
0.0
 40
0.0
 40
0.0
 40
1.0
 40
1.0
 40
1.0
 40
2.0
 40
2.0
 40
2.0
 40
3.0
 40
3.0
 40
3.0
 40
4.0
 40
4.0
 40
4.0
 40
5.0
 40
5.0
 40
5.0
 40
6.0
 40
6.0
 40
6.0
 40
6.0
 10
755.0357392860675
 20
-517.2111516719125
 30
0.0
 10
755.0357392860675
 20
-517.2111516719125
 30
0.0
 10
755.0357392860675
 20
-515.5606064249293
 30
0.0
 10
755.0357392860675
 20
-515.3332301229028
 30
0.0
 10
755.0357392860675
 20
-515.1061983304248
 30
0.0
 10
754.8183537609482
 20
-514.681073547545
 30
0.0
 10
754.1906573635357
 20
-514.6762504138657
 30
0.0
 10
753.5629609661232
 20
-514.6710827706378
 30
0.0
 10
753.3355846640967
 20
-515.1602863295433
 30
0.0
 10
753.3355846640967
 20
-515.6150389335962
 30
0.0
 10
753.3355846640967
 20
-515.1602863295433
 30
0.0
 10
753.5629609661232
 20
-514.6710827706378
 30
0.0
 10
754.1906573635357
 20
-514.6762504138657
 30
0.0
 10
754.8183537609482
 20
-514.681073547545
 30
0.0
 10
755.0357392860675
 20
-515.1061983304248
 30
0.0
 10
755.0357392860675
 20
-515.3332301229028
 30
0.0
 10
755.0357392860675
 20
-515.5606064249293
 30
0.0
 10
755.0357392860675
 20
-517.2111516719125
 30
0.0
 10
755.0357392860675
 20
-517.2111516719125
 30
0.0
  0
SPLINE
  5
77
330
52
100
AcDbEntity
  8
Layer 1
 62
    30
420
 16090918
370
    35
100
AcDbSpline
210
0.0
220
0.0
230
1.0
 70
    11
 71
     3
 72
    23
 73
    19
 74
     0
 42
0.0000000001
 43
0.0000000001
 40
0.0
 40
0.0
 40
0.0
 40
0.0
 40
1.0
 40
1.0
 40
1.0
 40
2.0
 40
2.0
 40
2.0
 40
3.0
 40
3.0
 40
3.0
 40
4.0
 40
4.0
 40
4.0
 40
5.0
 40
5.0
 40
5.0
 40
6.0
 40
6.0
 40
6.0
 40
6.0
 10
758.7585094674284
 20
-517.2111516719125
 30
0.0
 10
758.7585094674284
 20
-517.2111516719125
 30
0.0
 10
758.7585094674284
 20
-515.5606064249293
 30
0.0
 10
758.7585094674284
 20
-515.3332301229028
 30
0.0
 10
758.7585094674284
 20
-515.1061983304248
 30
0.0
 10
758.6103703615627
 20
-514.681073547545
 30
0.0
 10
757.9830184736987
 20
-514.6762504138657
 30
0.0
 10
757.3553220762863
 20
-514.6710827706378
 30
0.0
 10
757.0735132655927
 20
-515.1602863295433
 30
0.0
 10
757.0735132655927
 20
-515.6150389335962
 30
0.0
 10
757.0735132655927
 20
-515.1602863295433
 30
0.0
 10
757.3553220762863
 20
-514.6710827706378
 30
0.0
 10
757.9830184736987
 20
-514.6762504138657
 30
0.0
 10
758.6103703615627
 20
-514.681073547545
 30
0.0
 10
758.7585094674284
 20
-515.1061983304248
 30
0.0
 10
758.7585094674284
 20
-515.3332301229028
 30
0.0
 10
758.7585094674284
 20
-515.5606064249293
 30
0.0
 10
758.7585094674284
 20
-517.2111516719125
 30
0.0
 10
758.7585094674284
 20
-517.2111516719125
 30
0.0
  0
SPLINE
  5
78
330
52
100
AcDbEntity
  8
Layer 1
 62
    30
420
 16090918
370
    35
100
AcDbSpline
210
0.0
220
0.0
230
1.0
 70
    27
 71
     3
 72
    11
 73
     7
 74
     0
 42
0.0000000001
 43
0.0000000001
 40
0.0
 40
0.0
 40
0.0
 40
0.0
 40
1.0
 40
1.0
 40
1.0
 40
2.0
 40
2.0
 40
2.0
 40
2.0
 10
757.0735132655927
 20
-517.2111516719125
 30
0.0
 10
757.0735132655927
 20
-517.2111516719125
 30
0.0
 10
757.0735132655927
 20
-514.6762504138657
 30
0.0
 10
757.0735132655927
 20
-514.6762504138657
 30
0.0
 10
757.0735132655927
 20
-514.6762504138657
 30
0.0
 10
757.0735132655927
 20
-517.2111516719125
 30
0.0
 10
757.0735132655927
 20
-517.2111516719125
 30
0.0
  0
SPLINE
  5
79
330
52
100
AcDbEntity
  8
Layer 1
 62
    30
420
 16090918
370
    35
100
AcDbSpline
210
0.0
220
0.0
230
1.0
 70
    11
 71
     3
 72
    23
 73
    19
 74
     0
 42
0.0000000001
 43
0.0000000001
 40
0.0
 40
0.0
 40
0.0
 40
0.0
 40
1.0
 40
1.0
 40
1.0
 40
2.0
 40
2.0
 40
2.0
 40
3.0
 40
3.0
 40
3.0
 40
4.0
 40
4.0
 40
4.0
 40
5.0
 40
5.0
 40
5.0
 40
6.0
 40
6.0
 40
6.0
 40
6.0
 10
760.4586640893992
 20
-517.2111516719125
 30
0.0
 10
760.4586640893992
 20
-517.2111516719125
 30
0.0
 10
760.4586640893992
 20
-515.5606064249293
 30
0.0
 10
760.4586640893992
 20
-515.3332301229028
 30
0.0
 10
760.4586640893992
 20
-515.1061983304248
 30
0.0
 10
760.24127856428
 20
-514.681073547545
 30
0.0
 10
759.6135821668674
 20
-514.6762504138657
 30
0.0
 10
758.985885769455
 20
-514.6710827706378
 30
0.0
 10
758.7585094674284
 20
-515.1602863295433
 30
0.0
 10
758.7585094674284
 20
-515.6150389335962
 30
0.0
 10
758.7585094674284
 20
-515.1602863295433
 30
0.0
 10
758.985885769455
 20
-514.6710827706378
 30
0.0
 10
759.6135821668674
 20
-514.6762504138657
 30
0.0
 10
760.24127856428
 20
-514.681073547545
 30
0.0
 10
760.4586640893992
 20
-515.1061983304248
 30
0.0
 10
760.4586640893992
 20
-515.3332301229028
 30
0.0
 10
760.4586640893992
 20
-515.5606064249293
 30
0.0
 10
760.4586640893992
 20
-517.2111516719125
 30
0.0
 10
760.4586640893992
 20
-517.2111516719125
 30
0.0
  0
SPLINE
  5
7A
330
52
100
AcDbEntity
  8
Layer 1
 62
    30
420
 16090918
370
    35
100
AcDbSpline
210
0.0
220
0.0
230
1.0
 70
    27
 71
     3
 72
    11
 73
     7
 74
     0
 42
0.0000000001
 43
0.0000000001
 40
0.0
 40
0.0
 40
0.0
 40
0.0
 40
1.0
 40
1.0
 40
1.0
 40
2.0
 40
2.0
 40
2.0
 40
2.0
 10
764.9658825127516
 20
-517.2111516719125
 30
0.0
 10
764.9658825127516
 20
-517.2111516719125
 30
0.0
 10
764.9658825127516
 20
-513.6482339210671
 30
0.0
 10
764.9658825127516
 20
-513.6482339210671
 30
0.0
 10
764.9658825127516
 20
-513.6482339210671
 30
0.0
 10
764.9658825127516
 20
-517.2111516719125
 30
0.0
 10
764.9658825127516
 20
-517.2111516719125
 30
0.0
  0
SPLINE
  5
7B
330
52
100
AcDbEntity
  8
Layer 1
 62
    30
420
 16090918
370
    35
100
AcDbSpline
210
0.0
220
0.0
230
1.0
 70
    11
 71
     3
 72
    17
 73
    13
 74
     0
 42
0.0000000001
 43
0.0000000001
 40
0.0
 40
0.0
 40
0.0
 40
0.0
 40
1.0
 40
1.0
 40
1.0
 40
2.0
 40
2.0
 40
2.0
 40
3.0
 40
3.0
 40
3.0
 40
4.0
 40
4.0
 40
4.0
 40
4.0
 10
766.6102265878613
 20
-515.9164847885556
 30
0.0
 10
766.6102265878613
 20
-514.9180961169302
 30
0.0
 10
767.1194117005813
 20
-514.6266410388781
 30
0.0
 10
767.7319496778587
 20
-514.6266410388781
 30
0.0
 10
768.349655298364
 20
-514.6266410388781
 30
0.0
 10
768.8536727678561
 20
-514.9180961169302
 30
0.0
 10
768.8536727678561
 20
-515.9164847885556
 30
0.0
 10
768.8536727678561
 20
-516.9196965938604
 30
0.0
 10
768.349655298364
 20
-517.2111516719125
 30
0.0
 10
767.7319496778587
 20
-517.2111516719125
 30
0.0
 10
767.1194117005813
 20
-517.2111516719125
 30
0.0
 10
766.6102265878613
 20
-516.9196965938604
 30
0.0
 10
766.6102265878613
 20
-515.9164847885556
 30
0.0
  0
SPLINE
  5
7C
330
52
100
AcDbEntity
  8
Layer 1
 62
    30
420
 16090918
370
    35
100
AcDbSpline
210
0.0
220
0.0
230
1.0
 70
    11
 71
     3
 72
    17
 73
    13
 74
     0
 42
0.0000000001
 43
0.0000000001
 40
0.0
 40
0.0
 40
0.0
 40
0.0
 40
1.0
 40
1.0
 40
1.0
 40
2.0
 40
2.0
 40
2.0
 40
3.0
 40
3.0
 40
3.0
 40
4.0
 40
4.0
 40
4.0
 40
4.0
 10
766.6102265878613
 20
-515.9164847885556
 30
0.0
 10
766.6102265878613
 20
-514.9180961169302
 30
0.0
 10
767.1194117005813
 20
-514.6266410388781
 30
0.0
 10
767.7319496778587
 20
-514.6266410388781
 30
0.0
 10
768.349655298364
 20
-514.6266410388781
 30
0.0
 10
768.8536727678561
 20
-514.9180961169302
 30
0.0
 10
768.8536727678561
 20
-515.9164847885556
 30
0.0
 10
768.8536727678561
 20
-516.9196965938604
 30
0.0
 10
768.349655298364
 20
-517.2111516719125
 30
0.0
 10
767.7319496778587
 20
-517.2111516719125
 30
0.0
 10
767.1194117005813
 20
-517.2111516719125
 30
0.0
 10
766.6102265878613
 20
-516.9196965938604
 30
0.0
 10
766.6102265878613
 20
-515.9164847885556
 30
0.0
  0
SPLINE
  5
7D
330
52
100
AcDbEntity
  8
Layer 1
 62
    30
420
 16090918
370
    35
100
AcDbSpline
210
0.0
220
0.0
230
1.0
 70
    11
 71
     3
 72
    23
 73
    19
 74
     0
 42
0.0000000001
 43
0.0000000001
 40
0.0
 40
0.0
 40
0.0
 40
0.0
 40
1.0
 40
1.0
 40
1.0
 40
2.0
 40
2.0
 40
2.0
 40
3.0
 40
3.0
 40
3.0
 40
4.0
 40
4.0
 40
4.0
 40
5.0
 40
5.0
 40
5.0
 40
6.0
 40
6.0
 40
6.0
 40
6.0
 10
772.3800725065578
 20
-517.2111516719125
 30
0.0
 10
772.3800725065578
 20
-517.2111516719125
 30
0.0
 10
772.3800725065578
 20
-515.5606064249293
 30
0.0
 10
772.3800725065578
 20
-515.3332301229028
 30
0.0
 10
772.3800725065578
 20
-515.1061983304248
 30
0.0
 10
772.1526962045313
 20
-514.681073547545
 30
0.0
 10
771.5249998071188
 20
-514.6762504138657
 30
0.0
 10
770.892480276027
 20
-514.6710827706378
 30
0.0
 10
770.5614065998944
 20
-515.1602863295433
 30
0.0
 10
770.5614065998944
 20
-515.6150389335962
 30
0.0
 10
770.5614065998944
 20
-515.1602863295433
 30
0.0
 10
770.892480276027
 20
-514.6710827706378
 30
0.0
 10
771.5249998071188
 20
-514.6762504138657
 30
0.0
 10
772.1526962045313
 20
-514.681073547545
 30
0.0
 10
772.3800725065578
 20
-515.1061983304248
 30
0.0
 10
772.3800725065578
 20
-515.3332301229028
 30
0.0
 10
772.3800725065578
 20
-515.5606064249293
 30
0.0
 10
772.3800725065578
 20
-517.2111516719125
 30
0.0
 10
772.3800725065578
 20
-517.2111516719125
 30
0.0
  0
SPLINE
  5
7E
330
52
100
AcDbEntity
  8
Layer 1
 62
    30
420
 16090918
370
    35
100
AcDbSpline
210
0.0
220
0.0
230
1.0
 70
    27
 71
     3
 72
    11
 73
     7
 74
     0
 42
0.0000000001
 43
0.0000000001
 40
0.0
 40
0.0
 40
0.0
 40
0.0
 40
1.0
 40
1.0
 40
1.0
 40
2.0
 40
2.0
 40
2.0
 40
2.0
 10
770.5614065998944
 20
-517.2111516719125
 30
0.0
 10
770.5614065998944
 20
-517.2111516719125
 30
0.0
 10
770.5614065998944
 20
-514.6762504138657
 30
0.0
 10
770.5614065998944
 20
-514.6762504138657
 30
0.0
 10
770.5614065998944
 20
-514.6762504138657
 30
0.0
 10
770.5614065998944
 20
-517.2111516719125
 30
0.0
 10
770.5614065998944
 20
-517.2111516719125
 30
0.0
  0
SPLINE
  5
7F
330
52
100
AcDbEntity
  8
Layer 1
 62
    30
420
 16090918
370
    35
100
AcDbSpline
210
0.0
220
0.0
230
1.0
 70
    11
 71
     3
 72
    17
 73
    13
 74
     0
 42
0.0000000001
 43
0.0000000001
 40
0.0
 40
0.0
 40
0.0
 40
0.0
 40
1.0
 40
1.0
 40
1.0
 40
2.0
 40
2.0
 40
2.0
 40
3.0
 40
3.0
 40
3.0
 40
4.0
 40
4.0
 40
4.0
 40
4.0
 10
774.8488279312878
 20
-514.6514457263719
 30
0.0
 10
775.4220918200334
 20
-514.6514457263719
 30
0.0
 10
775.8964814683522
 20
-514.9380776707446
 30
0.0
 10
775.8964814683522
 20
-515.9264755654629
 30
0.0
 10
775.8964814683522
 20
-516.9145289506325
 30
0.0
 10
775.4220918200334
 20
-517.2011608950053
 30
0.0
 10
774.8488279312878
 20
-517.2011608950053
 30
0.0
 10
774.2755640425422
 20
-517.2011608950053
 30
0.0
 10
773.8059975279027
 20
-516.9145289506325
 30
0.0
 10
773.8059975279027
 20
-515.9264755654629
 30
0.0
 10
773.8059975279027
 20
-514.9380776707446
 30
0.0
 10
774.2755640425422
 20
-514.6514457263719
 30
0.0
 10
774.8488279312878
 20
-514.6514457263719
 30
0.0
  0
SPLINE
  5
80
330
52
100
AcDbEntity
  8
Layer 1
 62
    30
420
 16090918
370
    35
100
AcDbSpline
210
0.0
220
0.0
230
1.0
 70
    11
 71
     3
 72
    17
 73
    13
 74
     0
 42
0.0000000001
 43
0.0000000001
 40
0.0
 40
0.0
 40
0.0
 40
0.0
 40
1.0
 40
1.0
 40
1.0
 40
2.0
 40
2.0
 40
2.0
 40
3.0
 40
3.0
 40
3.0
 40
4.0
 40
4.0
 40
4.0
 40
4.0
 10
774.8488279312878
 20
-514.6514457263719
 30
0.0
 10
775.4220918200334
 20
-514.6514457263719
 30
0.0
 10
775.8964814683522
 20
-514.9380776707446
 30
0.0
 10
775.8964814683522
 20
-515.9264755654629
 30
0.0
 10
775.8964814683522
 20
-516.9145289506325
 30
0.0
 10
775.4220918200334
 20
-517.2011608950053
 30
0.0
 10
774.8488279312878
 20
-517.2011608950053
 30
0.0
 10
774.2755640425422
 20
-517.2011608950053
 30
0.0
 10
773.8059975279027
 20
-516.9145289506325
 30
0.0
 10
773.8059975279027
 20
-515.9264755654629
 30
0.0
 10
773.8059975279027
 20
-514.9380776707446
 30
0.0
 10
774.2755640425422
 20
-514.6514457263719
 30
0.0
 10
774.8488279312878
 20
-514.6514457263719
 30
0.0
  0
SPLINE
  5
81
330
52
100
AcDbEntity
  8
Layer 1
 62
    30
420
 16090918
370
    35
100
AcDbSpline
210
0.0
220
0.0
230
1.0
 70
    11
 71
     3
 72
    23
 73
    19
 74
     0
 42
0.0000000001
 43
0.0000000001
 40
0.0
 40
0.0
 40
0.0
 40
0.0
 40
1.0
 40
1.0
 40
1.0
 40
2.0
 40
2.0
 40
2.0
 40
3.0
 40
3.0
 40
3.0
 40
4.0
 40
4.0
 40
4.0
 40
5.0
 40
5.0
 40
5.0
 40
6.0
 40
6.0
 40
6.0
 40
6.0
 10
773.9541366337685
 20
-517.7251599183118
 30
0.0
 10
774.0085691424354
 20
-518.0214381300433
 30
0.0
 10
774.3692706397411
 20
-518.1895587897235
 30
0.0
 10
774.8636418418744
 20
-518.2091958339894
 30
0.0
 10
775.3676593113664
 20
-518.2240097445759
 30
0.0
 10
775.8964814683522
 20
-517.8536619799116
 30
0.0
 10
775.8964814683522
 20
-517.3940862421792
 30
0.0
 10
775.8964814683522
 20
-516.9293428612191
 30
0.0
 10
775.8964814683522
 20
-514.6910643244522
 30
0.0
 10
775.8964814683522
 20
-514.6910643244522
 30
0.0
 10
775.8964814683522
 20
-514.6910643244522
 30
0.0
 10
775.8964814683522
 20
-516.9293428612191
 30
0.0
 10
775.8964814683522
 20
-517.3940862421792
 30
0.0
 10
775.8964814683522
 20
-517.8536619799116
 30
0.0
 10
775.3676593113664
 20
-518.2240097445759
 30
0.0
 10
774.8636418418744
 20
-518.2091958339894
 30
0.0
 10
774.3692706397411
 20
-518.1895587897235
 30
0.0
 10
774.0085691424354
 20
-518.0214381300433
 30
0.0
 10
773.9541366337685
 20
-517.7251599183118
 30
0.0
  0
ENDBLK
  5
55
330
52
100
AcDbEntity
  8
0
100
AcDbBlockEnd
  0
BLOCK
  5
88
330
86
100
AcDbEntity
  8
0
100
AcDbBlockBegin
  2
block 4
 70
     0
 71
     0
 10
0.0
 20
0.0
 30
0.0
  3
block 4
  1

  0
POLYLINE
  5
8A
330
86
100
AcDbEntity
  8
Layer 1
 62
   179
420
  2301728
370
     9
100
AcDb2dPolyline
 66
     1
 10
0.0
 20
0.0
 30
0.0
  0
VERTEX
  5
8B
330
8A
100
AcDbEntity
  8
Layer 1
 62
   179
420
  2301728
370
     9
100
AcDbVertex
100
AcDb2dVertex
 10
238.2717610081404
 20
-78.68064098510415
 30
0.0
  0
VERTEX
  5
8C
330
8A
100
AcDbEntity
  8
Layer 1
 62
   179
420
  2301728
370
     9
100
AcDbVertex
100
AcDb2dVertex
 10
238.2717610081404
 20
-73.6806016525868
 30
0.0
  0
VERTEX
  5
8D
330
8A
100
AcDbEntity
  8
Layer 1
 62
   179
420
  2301728
370
     9
100
AcDbVertex
100
AcDb2dVertex
 10
243.2716280858835
 20
-73.6806016525868
 30
0.0
  0
SEQEND
  5
8E
330
8A
100
AcDbEntity
  8
Layer 1
370
     9
  0
ENDBLK
  5
89
330
86
100
AcDbEntity
  8
0
100
AcDbBlockEnd
  0
BLOCK
  5
91
330
8F
100
AcDbEntity
  8
0
100
AcDbBlockBegin
  2
block 5
 70
     0
 71
     0
 10
0.0
 20
0.0
 30
0.0
  3
block 5
  1

  0
POLYLINE
  5
93
330
8F
100
AcDbEntity
  8
Layer 1
 62
   179
420
  2301728
370
     9
100
AcDb2dPolyline
 66
     1
 10
0.0
 20
0.0
 30
0.0
  0
VERTEX
  5
94
330
93
100
AcDbEntity
  8
Layer 1
 62
   179
420
  2301728
370
     9
100
AcDbVertex
100
AcDb2dVertex
 10
253.2717067509182
 20
-83.68050806284724
 30
0.0
  0
VERTEX
  5
95
330
93
100
AcDbEntity
  8
Layer 1
 62
   179
420
  2301728
370
     9
100
AcDbVertex
100
AcDb2dVertex
 10
253.2717067509182
 20
-88.68054739536458
 30
0.0
  0
VERTEX
  5
96
330
93
100
AcDbEntity
  8
Layer 1
 62
   179
420
  2301728
370
     9
100
AcDbVertex
100
AcDb2dVertex
 10
248.2718396731751
 20
-88.68054739536458
 30
0.0
  0
SEQEND
  5
97
330
93
100
AcDbEntity
  8
Layer 1
370
     9
  0
ENDBLK
  5
92
330
8F
100
AcDbEntity
  8
0
100
AcDbBlockEnd
  0
BLOCK
  5
9A
330
98
100
AcDbEntity
  8
0
100
AcDbBlockBegin
  2
block 6
 70
     0
 71
     0
 10
0.0
 20
0.0
 30
0.0
  3
block 6
  1

  0
POLYLINE
  5
9C
330
98
100
AcDbEntity
  8
Layer 1
 62
   179
420
  2301728
370
     9
100
AcDb2dPolyline
 66
     1
 10
0.0
 20
0.0
 30
0.0
  0
VERTEX
  5
9D
330
9C
100
AcDbEntity
  8
Layer 1
 62
   179
420
  2301728
370
     9
100
AcDbVertex
100
AcDb2dVertex
 10
58.3109971642417
 20
-129.2934000327808
 30
0.0
  0
VERTEX
  5
9E
330
9C
100
AcDbEntity
  8
Layer 1
 62
   179
420
  2301728
370
     9
100
AcDbVertex
100
AcDb2dVertex
 10
49.3106852090265
 20
-129.2934000327808
 30
0.0
  0
VERTEX
  5
9F
330
9C
100
AcDbEntity
  8
Layer 1
 62
   179
420
  2301728
370
     9
100
AcDbVertex
100
AcDb2dVertex
 10
49.3106852090265
 20
-126.0935953460808
 30
0.0
  0
VERTEX
  5
A0
330
9C
100
AcDbEntity
  8
Layer 1
 62
   179
420
  2301728
370
     9
100
AcDbVertex
100
AcDb2dVertex
 10
58.3109971642417
 20
-126.0935953460808
 30
0.0
  0
VERTEX
  5
A1
330
9C
100
AcDbEntity
  8
Layer 1
 62
   179
420
  2301728
370
     9
100
AcDbVertex
100
AcDb2dVertex
 10
58.3109971642417
 20
-129.2934000327808
 30
0.0
  0
SEQEND
  5
A2
330
9C
100
AcDbEntity
  8
Layer 1
370
     9
  0
POLYLINE
  5
A3
330
98
100
AcDbEntity
  8
Layer 1
 62
   179
420
  2301728
370
     9
100
AcDb2dPolyline
 66
     1
 10
0.0
 20
0.0
 30
0.0
  0
VERTEX
  5
A4
330
A3
100
AcDbEntity
  8
Layer 1
 62
   179
420
  2301728
370
     9
100
AcDbVertex
100
AcDb2dVertex
 10
77.31069876539455
 20
-129.2934000327808
 30
0.0
  0
VERTEX
  5
A5
330
A3
100
AcDbEntity
  8
Layer 1
 62
   179
420
  2301728
370
     9
100
AcDbVertex
100
AcDb2dVertex
 10
68.31142033882493
 20
-129.2934000327808
 30
0.0
  0
VERTEX
  5
A6
330
A3
100
AcDbEntity
  8
Layer 1
 62
   179
420
  2301728
370
     9
100
AcDbVertex
100
AcDb2dVertex
 10
68.31142033882493
 20
-126.0935953460808
 30
0.0
  0
VERTEX
  5
A7
330
A3
100
AcDbEntity
  8
Layer 1
 62
   179
420
  2301728
370
     9
100
AcDbVertex
100
AcDb2dVertex
 10
77.31069876539455
 20
-126.0935953460808
 30
0.0
  0
VERTEX
  5
A8
330
A3
100
AcDbEntity
  8
Layer 1
 62
   179
420
  2301728
370
     9
100
AcDbVertex
100
AcDb2dVertex
 10
77.31069876539455
 20
-129.2934000327808
 30
0.0
  0
SEQEND
  5
A9
330
A3
100
AcDbEntity
  8
Layer 1
370
     9
  0
SPLINE
  5
AA
330
98
100
AcDbEntity
  8
Layer 1
 62
   179
420
  2301728
370
     9
100
AcDbSpline
210
0.0
220
0.0
230
1.0
 70
    11
 71
     3
 72
    17
 73
    13
 74
     0
 42
0.0000000001
 43
0.0000000001
 40
0.0
 40
0.0
 40
0.0
 40
0.0
 40
1.0
 40
1.0
 40
1.0
 40
2.0
 40
2.0
 40
2.0
 40
3.0
 40
3.0
 40
3.0
 40
4.0
 40
4.0
 40
4.0
 40
4.0
 10
61.81121417725554
 20
-127.6934976894308
 30
0.0
 10
61.81121417725554
 20
-128.523076682279
 30
0.0
 10
62.4823187777822
 20
-129.1934922637086
 30
0.0
 10
63.31120875153331
 20
-129.1934922637086
 30
0.0
 10
64.13940970618738
 20
-129.1934922637086
 30
0.0
 10
64.81120332581109
 20
-128.523076682279
 30
0.0
 10
64.81120332581109
 20
-127.6934976894308
 30
0.0
 10
64.81120332581109
 20
-126.8646077156797
 30
0.0
 10
64.13940970618738
 20
-126.193503115153
 30
0.0
 10
63.31120875153331
 20
-126.193503115153
 30
0.0
 10
62.4823187777822
 20
-126.193503115153
 30
0.0
 10
61.81121417725554
 20
-126.8646077156797
 30
0.0
 10
61.81121417725554
 20
-127.6934976894308
 30
0.0
  0
ENDBLK
  5
9B
330
98
100
AcDbEntity
  8
0
100
AcDbBlockEnd
  0
BLOCK
  5
C1
330
BF
100
AcDbEntity
  8
0
100
AcDbBlockBegin
  2
block 7
 70
     0
 71
     0
 10
0.0
 20
0.0
 30
0.0
  3
block 7
  1

  0
INSERT
  5
C4
330
BF
100
AcDbEntity
  8
Layer 1
100
AcDbBlockReference
  2
block 8
 10
0.0
 20
0.0
 30
0.0
  0
INSERT
  5
DF
330
BF
100
AcDbEntity
  8
Layer 1
100
AcDbBlockReference
  2
block 9
 10
0.0
 20
0.0
 30
0.0
  0
ENDBLK
  5
C2
330
BF
100
AcDbEntity
  8
0
100
AcDbBlockEnd
  0
BLOCK
  5
C5
330
C3
100
AcDbEntity
  8
0
100
AcDbBlockBegin
  2
block 8
 70
     0
 71
     0
 10
0.0
 20
0.0
 30
0.0
  3
block 8
  1

  0
POLYLINE
  5
C7
330
C3
100
AcDbEntity
  8
Layer 1
 62
   179
420
  2301728
370
     9
100
AcDb2dPolyline
 66
     1
 10
0.0
 20
0.0
 30
0.0
  0
VERTEX
  5
C8
330
C7
100
AcDbEntity
  8
Layer 1
 62
   179
420
  2301728
370
     9
100
AcDbVertex
100
AcDb2dVertex
 10
501.7271700134571
 20
-138.2220540019028
 30
0.0
  0
VERTEX
  5
C9
330
C7
100
AcDbEntity
  8
Layer 1
 62
   179
420
  2301728
370
     9
100
AcDbVertex
100
AcDb2dVertex
 10
501.7271700134571
 20
-140.0634575387689
 30
0.0
  0
VERTEX
  5
CA
330
C7
100
AcDbEntity
  8
Layer 1
 62
   179
420
  2301728
370
     9
100
AcDbVertex
100
AcDb2dVertex
 10
492.7272025677905
 20
-140.0634575387689
 30
0.0
  0
VERTEX
  5
CB
330
C7
100
AcDbEntity
  8
Layer 1
 62
   179
420
  2301728
370
     9
100
AcDbVertex
100
AcDb2dVertex
 10
492.7272025677905
 20
-138.2220540019028
 30
0.0
  0
VERTEX
  5
CC
330
C7
100
AcDbEntity
  8
Layer 1
 62
   179
420
  2301728
370
     9
100
AcDbVertex
100
AcDb2dVertex
 10
472.7277342568181
 20
-138.2220540019028
 30
0.0
  0
VERTEX
  5
CD
330
C7
100
AcDbEntity
  8
Layer 1
 62
   179
420
  2301728
370
     9
100
AcDbVertex
100
AcDb2dVertex
 10
472.7277342568181
 20
-144.7219156539237
 30
0.0
  0
VERTEX
  5
CE
330
C7
100
AcDbEntity
  8
Layer 1
 62
   179
420
  2301728
370
     9
100
AcDbVertex
100
AcDb2dVertex
 10
460.7274331530473
 20
-144.7219156539237
 30
0.0
  0
VERTEX
  5
CF
330
C7
100
AcDbEntity
  8
Layer 1
 62
   179
420
  2301728
370
     9
100
AcDbVertex
100
AcDb2dVertex
 10
460.7274331530473
 20
-138.2220540019028
 30
0.0
  0
VERTEX
  5
D0
330
C7
100
AcDbEntity
  8
Layer 1
 62
   179
420
  2301728
370
     9
100
AcDbVertex
100
AcDb2dVertex
 10
451.7271211978321
 20
-138.2220540019028
 30
0.0
  0
VERTEX
  5
D1
330
C7
100
AcDbEntity
  8
Layer 1
 62
   179
420
  2301728
370
     9
100
AcDbVertex
100
AcDb2dVertex
 10
451.7271211978321
 20
-73.22205944350004
 30
0.0
  0
VERTEX
  5
D2
330
C7
100
AcDbEntity
  8
Layer 1
 62
   179
420
  2301728
370
     9
100
AcDbVertex
100
AcDb2dVertex
 10
453.2271157721099
 20
-71.72206486922227
 30
0.0
  0
VERTEX
  5
D3
330
C7
100
AcDbEntity
  8
Layer 1
 62
   179
420
  2301728
370
     9
100
AcDbVertex
100
AcDb2dVertex
 10
464.6558755348777
 20
-71.72206486922227
 30
0.0
  0
VERTEX
  5
D4
330
C7
100
AcDbEntity
  8
Layer 1
 62
   179
420
  2301728
370
     9
100
AcDbVertex
100
AcDb2dVertex
 10
467.149091137553
 20
-69.22195907557646
 30
0.0
  0
VERTEX
  5
D5
330
C7
100
AcDbEntity
  8
Layer 1
 62
   179
420
  2301728
370
     9
100
AcDbVertex
100
AcDb2dVertex
 10
501.3985079041643
 20
-69.22195907557646
 30
0.0
  0
VERTEX
  5
D6
330
C7
100
AcDbEntity
  8
Layer 1
 62
   179
420
  2301728
370
     9
100
AcDbVertex
100
AcDb2dVertex
 10
503.325694318613
 20
-71.22183700476398
 30
0.0
  0
VERTEX
  5
D7
330
C7
100
AcDbEntity
  8
Layer 1
 62
   179
420
  2301728
370
     9
100
AcDbVertex
100
AcDb2dVertex
 10
505.7276148909292
 20
-71.22183700476398
 30
0.0
  0
VERTEX
  5
D8
330
C7
100
AcDbEntity
  8
Layer 1
 62
   179
420
  2301728
370
     9
100
AcDbVertex
100
AcDb2dVertex
 10
505.7276148909292
 20
-138.2220540019028
 30
0.0
  0
VERTEX
  5
D9
330
C7
100
AcDbEntity
  8
Layer 1
 62
   179
420
  2301728
370
     9
100
AcDbVertex
100
AcDb2dVertex
 10
501.7271700134571
 20
-138.2220540019028
 30
0.0
  0
SEQEND
  5
DA
330
C7
100
AcDbEntity
  8
Layer 1
370
     9
  0
SPLINE
  5
DB
330
C3
100
AcDbEntity
  8
Layer 1
 62
   179
420
  2301728
370
     9
100
AcDbSpline
210
0.0
220
0.0
230
1.0
 70
    11
 71
     3
 72
    17
 73
    13
 74
     0
 42
0.0000000001
 43
0.0000000001
 40
0.0
 40
0.0
 40
0.0
 40
0.0
 40
1.0
 40
1.0
 40
1.0
 40
2.0
 40
2.0
 40
2.0
 40
3.0
 40
3.0
 40
3.0
 40
4.0
 40
4.0
 40
4.0
 40
4.0
 10
455.7275660753043
 20
-123.222108259125
 30
0.0
 10
455.7275660753043
 20
-124.0506537233276
 30
0.0
 10
455.0557724556805
 20
-124.7221028334028
 30
0.0
 10
454.2275715010265
 20
-124.7221028334028
 30
0.0
 10
453.3990260368239
 20
-124.7221028334028
 30
0.0
 10
452.7275769267487
 20
-124.0506537233276
 30
0.0
 10
452.7275769267487
 20
-123.222108259125
 30
0.0
 10
452.7275769267487
 20
-122.3935627949224
 30
0.0
 10
453.3990260368239
 20
-121.7221136848473
 30
0.0
 10
454.2275715010265
 20
-121.7221136848473
 30
0.0
 10
455.0557724556805
 20
-121.7221136848473
 30
0.0
 10
455.7275660753043
 20
-122.3935627949224
 30
0.0
 10
455.7275660753043
 20
-123.222108259125
 30
0.0
  0
SPLINE
  5
DC
330
C3
100
AcDbEntity
  8
Layer 1
 62
   179
420
  2301728
370
     9
100
AcDbSpline
210
0.0
220
0.0
230
1.0
 70
    11
 71
     3
 72
    17
 73
    13
 74
     0
 42
0.0000000001
 43
0.0000000001
 40
0.0
 40
0.0
 40
0.0
 40
0.0
 40
1.0
 40
1.0
 40
1.0
 40
2.0
 40
2.0
 40
2.0
 40
3.0
 40
3.0
 40
3.0
 40
4.0
 40
4.0
 40
4.0
 40
4.0
 10
499.7276365938181
 20
-71.72206486922227
 30
0.0
 10
499.7276365938181
 20
-72.55043807865059
 30
0.0
 10
499.0558429741944
 20
-73.22205944350004
 30
0.0
 10
498.2276420195403
 20
-73.22205944350004
 30
0.0
 10
497.3987520457893
 20
-73.22205944350004
 30
0.0
 10
496.7276474452626
 20
-72.55043807865059
 30
0.0
 10
496.7276474452626
 20
-71.72206486922227
 30
0.0
 10
496.7276474452626
 20
-70.89369165979394
 30
0.0
 10
497.3987520457893
 20
-70.22207029494449
 30
0.0
 10
498.2276420195403
 20
-70.22207029494449
 30
0.0
 10
499.0558429741944
 20
-70.22207029494449
 30
0.0
 10
499.7276365938181
 20
-70.89369165979394
 30
0.0
 10
499.7276365938181
 20
-71.72206486922227
 30
0.0
  0
SPLINE
  5
DD
330
C3
100
AcDbEntity
  8
Layer 1
 62
   179
420
  2301728
370
     9
100
AcDbSpline
210
0.0
220
0.0
230
1.0
 70
    11
 71
     3
 72
    17
 73
    13
 74
     0
 42
0.0000000001
 43
0.0000000001
 40
0.0
 40
0.0
 40
0.0
 40
0.0
 40
1.0
 40
1.0
 40
1.0
 40
2.0
 40
2.0
 40
2.0
 40
3.0
 40
3.0
 40
3.0
 40
4.0
 40
4.0
 40
4.0
 40
4.0
 10
471.2277396825403
 20
-71.72206486922227
 30
0.0
 10
471.2277396825403
 20
-72.55043807865059
 30
0.0
 10
470.5559460629166
 20
-73.22205944350004
 30
0.0
 10
469.727400598714
 20
-73.22205944350004
 30
0.0
 10
468.8988551345114
 20
-73.22205944350004
 30
0.0
 10
468.2274060244362
 20
-72.55043807865059
 30
0.0
 10
468.2274060244362
 20
-71.72206486922227
 30
0.0
 10
468.2274060244362
 20
-70.89369165979394
 30
0.0
 10
468.8988551345114
 20
-70.22207029494449
 30
0.0
 10
469.727400598714
 20
-70.22207029494449
 30
0.0
 10
470.5559460629166
 20
-70.22207029494449
 30
0.0
 10
471.2277396825403
 20
-70.89369165979394
 30
0.0
 10
471.2277396825403
 20
-71.72206486922227
 30
0.0
  0
ENDBLK
  5
C6
330
C3
100
AcDbEntity
  8
0
100
AcDbBlockEnd
  0
BLOCK
  5
E0
330
DE
100
AcDbEntity
  8
0
100
AcDbBlockBegin
  2
block 9
 70
     0
 71
     0
 10
0.0
 20
0.0
 30
0.0
  3
block 9
  1

  0
SPLINE
  5
E2
330
DE
100
AcDbEntity
  8
Layer 1
 62
   179
420
  2301728
370
     9
100
AcDbSpline
210
0.0
220
0.0
230
1.0
 70
    11
 71
     3
 72
    29
 73
    25
 74
     0
 42
0.0000000001
 43
0.0000000001
 40
0.0
 40
0.0
 40
0.0
 40
0.0
 40
1.0
 40
1.0
 40
1.0
 40
2.0
 40
2.0
 40
2.0
 40
3.0
 40
3.0
 40
3.0
 40
4.0
 40
4.0
 40
4.0
 40
5.0
 40
5.0
 40
5.0
 40
6.0
 40
6.0
 40
6.0
 40
7.0
 40
7.0
 40
7.0
 40
8.0
 40
8.0
 40
8.0
 40
8.0
 10
470.0192001863147
 20
-108.514651123045
 30
0.0
 10
469.6678004468192
 20
-108.5022487792981
 30
0.0
 10
469.3887477125139
 20
-108.3920057237701
 30
0.0
 10
469.3887477125139
 20
-108.0027099339368
 30
0.0
 10
469.3887477125139
 20
-107.6089355199728
 30
0.0
 10
469.6257702818991
 20
-107.4439154462293
 30
0.0
 10
470.0743217140787
 20
-107.4015407717607
 30
0.0
 10
470.5187390316759
 20
-107.3591660972922
 30
0.0
 10
470.7178655507233
 20
-107.2916422257813
 30
0.0
 10
470.9293944135177
 20
-107.232386583435
 30
0.0
 10
470.7178655507233
 20
-107.2916422257813
 30
0.0
 10
470.5187390316759
 20
-107.3591660972922
 30
0.0
 10
470.0743217140787
 20
-107.4015407717607
 30
0.0
 10
469.6257702818991
 20
-107.4439154462293
 30
0.0
 10
469.3887477125139
 20
-107.6089355199728
 30
0.0
 10
469.3887477125139
 20
-108.0027099339368
 30
0.0
 10
469.3887477125139
 20
-108.3920057237701
 30
0.0
 10
469.6678004468192
 20
-108.5022487792981
 30
0.0
 10
470.0192001863147
 20
-108.514651123045
 30
0.0
 10
470.3664658112278
 20
-108.5277424858889
 30
0.0
 10
470.8026148996605
 20
-108.1170871040471
 30
0.0
 10
470.9293944135177
 20
-107.9348415528774
 30
0.0
 10
470.8026148996605
 20
-108.1170871040471
 30
0.0
 10
470.3664658112278
 20
-108.5277424858889
 30
0.0
 10
470.0192001863147
 20
-108.514651123045
 30
0.0
  0
SPLINE
  5
E3
330
DE
100
AcDbEntity
  8
Layer 1
 62
   179
420
  2301728
370
     9
100
AcDbSpline
210
0.0
220
0.0
230
1.0
 70
    11
 71
     3
 72
    29
 73
    25
 74
     0
 42
0.0000000001
 43
0.0000000001
 40
0.0
 40
0.0
 40
0.0
 40
0.0
 40
1.0
 40
1.0
 40
1.0
 40
2.0
 40
2.0
 40
2.0
 40
3.0
 40
3.0
 40
3.0
 40
4.0
 40
4.0
 40
4.0
 40
5.0
 40
5.0
 40
5.0
 40
6.0
 40
6.0
 40
6.0
 40
7.0
 40
7.0
 40
7.0
 40
8.0
 40
8.0
 40
8.0
 40
8.0
 10
470.9293944135177
 20
-108.2142387967312
 30
0.0
 10
470.9293944135177
 20
-108.2142387967312
 30
0.0
 10
470.9293944135177
 20
-106.8217312015932
 30
0.0
 10
470.9293944135177
 20
-106.8217312015932
 30
0.0
 10
470.9293944135177
 20
-106.6439642745543
 30
0.0
 10
470.8405109499982
 20
-106.3049668788057
 30
0.0
 10
470.2693141185438
 20
-106.3049668788057
 30
0.0
 10
469.6974282679923
 20
-106.3049668788057
 30
0.0
 10
469.485899405198
 20
-106.5633490401994
 30
0.0
 10
469.485899405198
 20
-106.8299994307578
 30
0.0
 10
469.485899405198
 20
-106.5633490401994
 30
0.0
 10
469.6974282679923
 20
-106.3049668788057
 30
0.0
 10
470.2693141185438
 20
-106.3049668788057
 30
0.0
 10
470.8405109499982
 20
-106.3049668788057
 30
0.0
 10
470.9293944135177
 20
-106.6439642745543
 30
0.0
 10
470.9293944135177
 20
-106.8217312015932
 30
0.0
 10
470.9293944135177
 20
-106.8217312015932
 30
0.0
 10
470.9293944135177
 20
-108.2142387967312
 30
0.0
 10
470.9293944135177
 20
-108.2142387967312
 30
0.0
 10
470.9293944135177
 20
-108.4684868435426
 30
0.0
 10
471.2304957589285
 20
-108.4895019260026
 30
0.0
 10
471.2304957589285
 20
-108.4895019260026
 30
0.0
 10
471.2304957589285
 20
-108.4895019260026
 30
0.0
 10
470.9293944135177
 20
-108.4684868435426
 30
0.0
 10
470.9293944135177
 20
-108.2142387967312
 30
0.0
  0
SPLINE
  5
E4
330
DE
100
AcDbEntity
  8
Layer 1
 62
   179
420
  2301728
370
     9
100
AcDbSpline
210
0.0
220
0.0
230
1.0
 70
    11
 71
     3
 72
    11
 73
     7
 74
     0
 42
0.0000000001
 43
0.0000000001
 40
0.0
 40
0.0
 40
0.0
 40
0.0
 40
1.0
 40
1.0
 40
1.0
 40
2.0
 40
2.0
 40
2.0
 40
2.0
 10
473.5331975812695
 20
-106.3177137321011
 30
0.0
 10
473.139767676854
 20
-106.3135796175188
 30
0.0
 10
472.6905272255774
 20
-106.8933891876864
 30
0.0
 10
472.7036185884214
 20
-107.3805256893007
 30
0.0
 10
472.6905272255774
 20
-106.8933891876864
 30
0.0
 10
473.139767676854
 20
-106.3135796175188
 30
0.0
 10
473.5331975812695
 20
-106.3177137321011
 30
0.0
  0
SPLINE
  5
E5
330
DE
100
AcDbEntity
  8
Layer 1
 62
   179
420
  2301728
370
     9
100
AcDbSpline
210
0.0
220
0.0
230
1.0
 70
    27
 71
     3
 72
    11
 73
     7
 74
     0
 42
0.0000000001
 43
0.0000000001
 40
0.0
 40
0.0
 40
0.0
 40
0.0
 40
1.0
 40
1.0
 40
1.0
 40
2.0
 40
2.0
 40
2.0
 40
2.0
 10
472.7036185884214
 20
-106.3177137321011
 30
0.0
 10
472.7036185884214
 20
-106.3177137321011
 30
0.0
 10
472.7036185884214
 20
-108.4895019260026
 30
0.0
 10
472.7036185884214
 20
-108.4895019260026
 30
0.0
 10
472.7036185884214
 20
-108.4895019260026
 30
0.0
 10
472.7036185884214
 20
-106.3177137321011
 30
0.0
 10
472.7036185884214
 20
-106.3177137321011
 30
0.0
  0
SPLINE
  5
E6
330
DE
100
AcDbEntity
  8
Layer 1
 62
   179
420
  2301728
370
     9
100
AcDbSpline
210
0.0
220
0.0
230
1.0
 70
    11
 71
     3
 72
    17
 73
    13
 74
     0
 42
0.0000000001
 43
0.0000000001
 40
0.0
 40
0.0
 40
0.0
 40
0.0
 40
1.0
 40
1.0
 40
1.0
 40
2.0
 40
2.0
 40
2.0
 40
3.0
 40
3.0
 40
3.0
 40
4.0
 40
4.0
 40
4.0
 40
4.0
 10
475.3997503151779
 20
-106.3049668788057
 30
0.0
 10
475.8910209313745
 20
-106.3049668788057
 30
0.0
 10
476.2975421986339
 20
-106.550602186904
 30
0.0
 10
476.2975421986339
 20
-107.3970621476299
 30
0.0
 10
476.2975421986339
 20
-108.2438666179043
 30
0.0
 10
475.8910209313745
 20
-108.4895019260026
 30
0.0
 10
475.3997503151779
 20
-108.4895019260026
 30
0.0
 10
474.9091687180783
 20
-108.4895019260026
 30
0.0
 10
474.5067815654011
 20
-108.2438666179043
 30
0.0
 10
474.5067815654011
 20
-107.3970621476299
 30
0.0
 10
474.5067815654011
 20
-106.550602186904
 30
0.0
 10
474.9091687180783
 20
-106.3049668788057
 30
0.0
 10
475.3997503151779
 20
-106.3049668788057
 30
0.0
  0
SPLINE
  5
E7
330
DE
100
AcDbEntity
  8
Layer 1
 62
   179
420
  2301728
370
     9
100
AcDbSpline
210
0.0
220
0.0
230
1.0
 70
    11
 71
     3
 72
    17
 73
    13
 74
     0
 42
0.0000000001
 43
0.0000000001
 40
0.0
 40
0.0
 40
0.0
 40
0.0
 40
1.0
 40
1.0
 40
1.0
 40
2.0
 40
2.0
 40
2.0
 40
3.0
 40
3.0
 40
3.0
 40
4.0
 40
4.0
 40
4.0
 40
4.0
 10
475.3997503151779
 20
-106.3049668788057
 30
0.0
 10
475.8910209313745
 20
-106.3049668788057
 30
0.0
 10
476.2975421986339
 20
-106.550602186904
 30
0.0
 10
476.2975421986339
 20
-107.3970621476299
 30
0.0
 10
476.2975421986339
 20
-108.2438666179043
 30
0.0
 10
475.8910209313745
 20
-108.4895019260026
 30
0.0
 10
475.3997503151779
 20
-108.4895019260026
 30
0.0
 10
474.9091687180783
 20
-108.4895019260026
 30
0.0
 10
474.5067815654011
 20
-108.2438666179043
 30
0.0
 10
474.5067815654011
 20
-107.3970621476299
 30
0.0
 10
474.5067815654011
 20
-106.550602186904
 30
0.0
 10
474.9091687180783
 20
-106.3049668788057
 30
0.0
 10
475.3997503151779
 20
-106.3049668788057
 30
0.0
  0
SPLINE
  5
E8
330
DE
100
AcDbEntity
  8
Layer 1
 62
   179
420
  2301728
370
     9
100
AcDbSpline
210
0.0
220
0.0
230
1.0
 70
    27
 71
     3
 72
    11
 73
     7
 74
     0
 42
0.0000000001
 43
0.0000000001
 40
0.0
 40
0.0
 40
0.0
 40
0.0
 40
1.0
 40
1.0
 40
1.0
 40
2.0
 40
2.0
 40
2.0
 40
2.0
 10
476.3016763132163
 20
-105.4285345873581
 30
0.0
 10
476.3016763132163
 20
-105.4285345873581
 30
0.0
 10
476.3016763132163
 20
-108.4895019260026
 30
0.0
 10
476.3016763132163
 20
-108.4895019260026
 30
0.0
 10
476.3016763132163
 20
-108.4895019260026
 30
0.0
 10
476.3016763132163
 20
-105.4285345873581
 30
0.0
 10
476.3016763132163
 20
-105.4285345873581
 30
0.0
  0
SPLINE
  5
E9
330
DE
100
AcDbEntity
  8
Layer 1
 62
   179
420
  2301728
370
     9
100
AcDbSpline
210
0.0
220
0.0
230
1.0
 70
    11
 71
     3
 72
    23
 73
    19
 74
     0
 42
0.0000000001
 43
0.0000000001
 40
0.0
 40
0.0
 40
0.0
 40
0.0
 40
1.0
 40
1.0
 40
1.0
 40
2.0
 40
2.0
 40
2.0
 40
3.0
 40
3.0
 40
3.0
 40
4.0
 40
4.0
 40
4.0
 40
5.0
 40
5.0
 40
5.0
 40
6.0
 40
6.0
 40
6.0
 40
6.0
 10
477.9952852537651
 20
-106.309100993388
 30
0.0
 10
477.9952852537651
 20
-106.309100993388
 30
0.0
 10
477.9952852537651
 20
-107.7274468046654
 30
0.0
 10
477.9952852537651
 20
-107.922094699582
 30
0.0
 10
477.9952852537651
 20
-108.1170871040471
 30
0.0
 10
478.1895886391332
 20
-108.4808891872895
 30
0.0
 10
478.7270235348321
 20
-108.4850233018718
 30
0.0
 10
479.2692815642105
 20
-108.4895019260026
 30
0.0
 10
479.5572915467774
 20
-108.0702338054477
 30
0.0
 10
479.5572915467774
 20
-107.6809380156145
 30
0.0
 10
479.5572915467774
 20
-108.0702338054477
 30
0.0
 10
479.2692815642105
 20
-108.4895019260026
 30
0.0
 10
478.7270235348321
 20
-108.4850233018718
 30
0.0
 10
478.1895886391332
 20
-108.4808891872895
 30
0.0
 10
477.9952852537651
 20
-108.1170871040471
 30
0.0
 10
477.9952852537651
 20
-107.922094699582
 30
0.0
 10
477.9952852537651
 20
-107.7274468046654
 30
0.0
 10
477.9952852537651
 20
-106.309100993388
 30
0.0
 10
477.9952852537651
 20
-106.309100993388
 30
0.0
  0
SPLINE
  5
EA
330
DE
100
AcDbEntity
  8
Layer 1
 62
   179
420
  2301728
370
     9
100
AcDbSpline
210
0.0
220
0.0
230
1.0
 70
    27
 71
     3
 72
    11
 73
     7
 74
     0
 42
0.0000000001
 43
0.0000000001
 40
0.0
 40
0.0
 40
0.0
 40
0.0
 40
1.0
 40
1.0
 40
1.0
 40
2.0
 40
2.0
 40
2.0
 40
2.0
 10
479.5572915467774
 20
-106.309100993388
 30
0.0
 10
479.5572915467774
 20
-106.309100993388
 30
0.0
 10
479.5572915467774
 20
-108.4850233018718
 30
0.0
 10
479.5572915467774
 20
-108.4850233018718
 30
0.0
 10
479.5572915467774
 20
-108.4850233018718
 30
0.0
 10
479.5572915467774
 20
-106.309100993388
 30
0.0
 10
479.5572915467774
 20
-106.309100993388
 30
0.0
  0
SPLINE
  5
EB
330
DE
100
AcDbEntity
  8
Layer 1
 62
   179
420
  2301728
370
     9
100
AcDbSpline
210
0.0
220
0.0
230
1.0
 70
    27
 71
     3
 72
    11
 73
     7
 74
     0
 42
0.0000000001
 43
0.0000000001
 40
0.0
 40
0.0
 40
0.0
 40
0.0
 40
1.0
 40
1.0
 40
1.0
 40
2.0
 40
2.0
 40
2.0
 40
2.0
 10
481.496191285876
 20
-105.509149821713
 30
0.0
 10
481.496191285876
 20
-105.509149821713
 30
0.0
 10
481.496191285876
 20
-105.433013211489
 30
0.0
 10
481.496191285876
 20
-105.433013211489
 30
0.0
 10
481.496191285876
 20
-105.433013211489
 30
0.0
 10
481.496191285876
 20
-105.509149821713
 30
0.0
 10
481.496191285876
 20
-105.509149821713
 30
0.0
  0
SPLINE
  5
EC
330
DE
100
AcDbEntity
  8
Layer 1
 62
   179
420
  2301728
370
     9
100
AcDbSpline
210
0.0
220
0.0
230
1.0
 70
    27
 71
     3
 72
    11
 73
     7
 74
     0
 42
0.0000000001
 43
0.0000000001
 40
0.0
 40
0.0
 40
0.0
 40
0.0
 40
1.0
 40
1.0
 40
1.0
 40
2.0
 40
2.0
 40
2.0
 40
2.0
 10
481.496191285876
 20
-108.4850233018718
 30
0.0
 10
481.496191285876
 20
-108.4850233018718
 30
0.0
 10
481.496191285876
 20
-106.3135796175188
 30
0.0
 10
481.496191285876
 20
-106.3135796175188
 30
0.0
 10
481.496191285876
 20
-106.3135796175188
 30
0.0
 10
481.496191285876
 20
-108.4939805501335
 30
0.0
 10
481.496191285876
 20
-108.4850233018718
 30
0.0
  0
SPLINE
  5
ED
330
DE
100
AcDbEntity
  8
Layer 1
 62
   179
420
  2301728
370
     9
100
AcDbSpline
210
0.0
220
0.0
230
1.0
 70
    11
 71
     3
 72
    23
 73
    19
 74
     0
 42
0.0000000001
 43
0.0000000001
 40
0.0
 40
0.0
 40
0.0
 40
0.0
 40
1.0
 40
1.0
 40
1.0
 40
2.0
 40
2.0
 40
2.0
 40
3.0
 40
3.0
 40
3.0
 40
4.0
 40
4.0
 40
4.0
 40
5.0
 40
5.0
 40
5.0
 40
6.0
 40
6.0
 40
6.0
 40
6.0
 10
484.9206161982143
 20
-108.4895019260026
 30
0.0
 10
484.9206161982143
 20
-108.4895019260026
 30
0.0
 10
484.9206161982143
 20
-107.0756347388561
 30
0.0
 10
484.9206161982143
 20
-106.8809868439395
 30
0.0
 10
484.9206161982143
 20
-106.6859944394743
 30
0.0
 10
484.7256237937492
 20
-106.322192356232
 30
0.0
 10
484.1881888980502
 20
-106.3177137321011
 30
0.0
 10
483.6466198877689
 20
-106.3135796175188
 30
0.0
 10
483.3627440197843
 20
-106.7328477380737
 30
0.0
 10
483.3627440197843
 20
-107.122143527907
 30
0.0
 10
483.3627440197843
 20
-106.7328477380737
 30
0.0
 10
483.6466198877689
 20
-106.3135796175188
 30
0.0
 10
484.1881888980502
 20
-106.3177137321011
 30
0.0
 10
484.7256237937492
 20
-106.322192356232
 30
0.0
 10
484.9206161982143
 20
-106.6859944394743
 30
0.0
 10
484.9206161982143
 20
-106.8809868439395
 30
0.0
 10
484.9206161982143
 20
-107.0756347388561
 30
0.0
 10
484.9206161982143
 20
-108.4895019260026
 30
0.0
 10
484.9206161982143
 20
-108.4895019260026
 30
0.0
  0
SPLINE
  5
EE
330
DE
100
AcDbEntity
  8
Layer 1
 62
   179
420
  2301728
370
     9
100
AcDbSpline
210
0.0
220
0.0
230
1.0
 70
    27
 71
     3
 72
    11
 73
     7
 74
     0
 42
0.0000000001
 43
0.0000000001
 40
0.0
 40
0.0
 40
0.0
 40
0.0
 40
1.0
 40
1.0
 40
1.0
 40
2.0
 40
2.0
 40
2.0
 40
2.0
 10
483.3627440197843
 20
-108.4895019260026
 30
0.0
 10
483.3627440197843
 20
-108.4895019260026
 30
0.0
 10
483.3627440197843
 20
-106.3177137321011
 30
0.0
 10
483.3627440197843
 20
-106.3177137321011
 30
0.0
 10
483.3627440197843
 20
-106.3177137321011
 30
0.0
 10
483.3627440197843
 20
-108.4895019260026
 30
0.0
 10
483.3627440197843
 20
-108.4895019260026
 30
0.0
  0
SPLINE
  5
EF
330
DE
100
AcDbEntity
  8
Layer 1
 62
   179
420
  2301728
370
     9
100
AcDbSpline
210
0.0
220
0.0
230
1.0
 70
    11
 71
     3
 72
    17
 73
    13
 74
     0
 42
0.0000000001
 43
0.0000000001
 40
0.0
 40
0.0
 40
0.0
 40
0.0
 40
1.0
 40
1.0
 40
1.0
 40
2.0
 40
2.0
 40
2.0
 40
3.0
 40
3.0
 40
3.0
 40
4.0
 40
4.0
 40
4.0
 40
4.0
 10
486.1443141145751
 20
-107.3805256893007
 30
0.0
 10
486.1443141145751
 20
-106.5254529898617
 30
0.0
 10
486.5804632030077
 20
-106.2753390576326
 30
0.0
 10
487.1048067358627
 20
-106.2753390576326
 30
0.0
 10
487.6339734023971
 20
-106.2753390576326
 30
0.0
 10
488.0659883762474
 20
-106.5254529898617
 30
0.0
 10
488.0659883762474
 20
-107.3805256893007
 30
0.0
 10
488.0659883762474
 20
-108.239732503322
 30
0.0
 10
487.6339734023971
 20
-108.4895019260026
 30
0.0
 10
487.1048067358627
 20
-108.4895019260026
 30
0.0
 10
486.5804632030077
 20
-108.4895019260026
 30
0.0
 10
486.1443141145751
 20
-108.239732503322
 30
0.0
 10
486.1443141145751
 20
-107.3805256893007
 30
0.0
  0
SPLINE
  5
F0
330
DE
100
AcDbEntity
  8
Layer 1
 62
   179
420
  2301728
370
     9
100
AcDbSpline
210
0.0
220
0.0
230
1.0
 70
    11
 71
     3
 72
    17
 73
    13
 74
     0
 42
0.0000000001
 43
0.0000000001
 40
0.0
 40
0.0
 40
0.0
 40
0.0
 40
1.0
 40
1.0
 40
1.0
 40
2.0
 40
2.0
 40
2.0
 40
3.0
 40
3.0
 40
3.0
 40
4.0
 40
4.0
 40
4.0
 40
4.0
 10
486.1443141145751
 20
-107.3805256893007
 30
0.0
 10
486.1443141145751
 20
-106.5254529898617
 30
0.0
 10
486.5804632030077
 20
-106.2753390576326
 30
0.0
 10
487.1048067358627
 20
-106.2753390576326
 30
0.0
 10
487.6339734023971
 20
-106.2753390576326
 30
0.0
 10
488.0659883762474
 20
-106.5254529898617
 30
0.0
 10
488.0659883762474
 20
-107.3805256893007
 30
0.0
 10
488.0659883762474
 20
-108.239732503322
 30
0.0
 10
487.6339734023971
 20
-108.4895019260026
 30
0.0
 10
487.1048067358627
 20
-108.4895019260026
 30
0.0
 10
486.5804632030077
 20
-108.4895019260026
 30
0.0
 10
486.1443141145751
 20
-108.239732503322
 30
0.0
 10
486.1443141145751
 20
-107.3805256893007
 30
0.0
  0
ENDBLK
  5
E1
330
DE
100
AcDbEntity
  8
0
100
AcDbBlockEnd
  0
BLOCK
  5
F3
330
F1
100
AcDbEntity
  8
0
100
AcDbBlockBegin
  2
block 10
 70
     0
 71
     0
 10
0.0
 20
0.0
 30
0.0
  3
block 10
  1

  0
SPLINE
  5
F5
330
F1
100
AcDbEntity
  8
Layer 1
 62
   179
420
  2301728
370
     9
100
AcDbSpline
210
0.0
220
0.0
230
1.0
 70
    11
 71
     3
 72
    17
 73
    13
 74
     0
 42
0.0000000001
 43
0.0000000001
 40
0.0
 40
0.0
 40
0.0
 40
0.0
 40
1.0
 40
1.0
 40
1.0
 40
2.0
 40
2.0
 40
2.0
 40
3.0
 40
3.0
 40
3.0
 40
4.0
 40
4.0
 40
4.0
 40
4.0
 10
311.27436786923
 20
-108.9718152939376
 30
0.0
 10
311.27436786923
 20
-109.2481119518546
 30
0.0
 10
311.0504366626888
 20
-109.4720431583959
 30
0.0
 10
310.7741400047718
 20
-109.4720431583959
 30
0.0
 10
310.4981878564033
 20
-109.4720431583959
 30
0.0
 10
310.274256649862
 20
-109.2481119518546
 30
0.0
 10
310.274256649862
 20
-108.9718152939376
 30
0.0
 10
310.274256649862
 20
-108.6958631455691
 30
0.0
 10
310.4981878564033
 20
-108.4719319390279
 30
0.0
 10
310.7741400047718
 20
-108.4719319390279
 30
0.0
 10
311.0504366626888
 20
-108.4719319390279
 30
0.0
 10
311.27436786923
 20
-108.6958631455691
 30
0.0
 10
311.27436786923
 20
-108.9718152939376
 30
0.0
  0
SPLINE
  5
F6
330
F1
100
AcDbEntity
  8
Layer 1
 62
   179
420
  2301728
370
     9
100
AcDbSpline
210
0.0
220
0.0
230
1.0
 70
    11
 71
     3
 72
    17
 73
    13
 74
     0
 42
0.0000000001
 43
0.0000000001
 40
0.0
 40
0.0
 40
0.0
 40
0.0
 40
1.0
 40
1.0
 40
1.0
 40
2.0
 40
2.0
 40
2.0
 40
3.0
 40
3.0
 40
3.0
 40
4.0
 40
4.0
 40
4.0
 40
4.0
 10
311.27436786923
 20
-106.4717095002918
 30
0.0
 10
311.27436786923
 20
-106.7480061582088
 30
0.0
 10
311.0504366626888
 20
-106.9719373647501
 30
0.0
 10
310.7741400047718
 20
-106.9719373647501
 30
0.0
 10
310.4981878564033
 20
-106.9719373647501
 30
0.0
 10
310.274256649862
 20
-106.7480061582088
 30
0.0
 10
310.274256649862
 20
-106.4717095002918
 30
0.0
 10
310.274256649862
 20
-106.1957573519233
 30
0.0
 10
310.4981878564033
 20
-105.9718261453821
 30
0.0
 10
310.7741400047718
 20
-105.9718261453821
 30
0.0
 10
311.0504366626888
 20
-105.9718261453821
 30
0.0
 10
311.27436786923
 20
-106.1957573519233
 30
0.0
 10
311.27436786923
 20
-106.4717095002918
 30
0.0
  0
ENDBLK
  5
F4
330
F1
100
AcDbEntity
  8
0
100
AcDbBlockEnd
  0
ENDSEC
  0
SECTION
  2
ENTITIES
  0
INSERT
  5
3D
330
1F
100
AcDbEntity
  8
Layer 1
100
AcDbBlockReference
  2
block 2
 10
0.0
 20
0.0
 30
0.0
  0
MTEXT
  5
48
330
1F
100
AcDbEntity
  8
Layer 1
 62
   179
420
  2301728
100
AcDbMText
 10
24.11876898268559
 20
-634.4584308309687
 30
0.0
 40
8.635999997841001
 41
0.0
 71
     7
 72
     1
  1
\fEng_HelvLine Normal|b0|i0|c0|p34;\W1;Date: 13-06-12^I^IFile Name: DRBO-03^I^IVersion:^I^IContributor: Stuart Childs stuchilds\fMyriad Pro|b0|i0|c0|p34;@\fEng_HelvLine Normal|b0|i0|c0|p34;gmail.com^I^I
 73
     1
 44
1.0
  0
MTEXT
  5
49
330
1F
100
AcDbEntity
  8
0
100
AcDbMText
 10
0.0
 20
0.0
 30
0.0
 40
0.0
 41
0.0
 71
     1
 72
     1
  1

 73
     1
 44
1.0
  0
MTEXT
  5
4A
330
1F
100
AcDbEntity
  8
Layer 1
 62
   179
420
  2301728
100
AcDbMText
 10
24.11876898268559
 20
-664.9385686271681
 30
0.0
 40
8.635999997841001
 41
0.0
 71
     7
 72
     1
  1
\fEng_HelvLine Normal|b0|i0|c0|p34;\W1;License: Creative Commons Attribution Sharealike 3.0 Unported^I^I
 73
     1
 44
1.0
  0
MTEXT
  5
4B
330
1F
100
AcDbEntity
  8
Layer 1
 62
   179
420
  2301728
100
AcDbMText
 10
24.11876898268559
 20
-542.7052027723098
 30
0.0
 40
8.635999997841001
 41
0.0
 71
     7
 72
     1
  1
\fEng_HelvLine Normal|b0|i0|c0|p34;\W1;Date: 12-09-12^I^IFile Name: USEF^I^IVersion: 01^I^IContributor: Stuart Childs stuchilds\fMyriad Pro|b0|i0|c0|p34;@\fEng_HelvLine Normal|b0|i0|c0|p34;gmail.com^I^I
 73
     1
 44
1.0
  0
MTEXT
  5
4C
330
1F
100
AcDbEntity
  8
0
100
AcDbMText
 10
0.0
 20
0.0
 30
0.0
 40
0.0
 41
0.0
 71
     1
 72
     1
  1

 73
     1
 44
1.0
  0
MTEXT
  5
4D
330
1F
100
AcDbEntity
  8
Layer 1
 62
   179
420
  2301728
100
AcDbMText
 10
24.11876898268559
 20
-573.1853405685092
 30
0.0
 40
8.635999997841001
 41
0.0
 71
     7
 72
     1
  1
\fEng_HelvLine Normal|b0|i0|c0|p34;\W1;License: Creative Commons Attribution Sharealike 3.0 Unported^I^I
 73
     1
 44
1.0
  0
POLYLINE
  5
4E
330
1F
100
AcDbEntity
  8
Layer 1
 62
    30
420
 16090918
370
    35
100
AcDb2dPolyline
 66
     1
 10
0.0
 20
0.0
 30
0.0
  0
VERTEX
  5
4F
330
4E
100
AcDbEntity
  8
Layer 1
 62
    30
420
 16090918
370
    35
100
AcDbVertex
100
AcDb2dVertex
 10
679.5726452294124
 20
-520.7389294488083
 30
0.0
  0
VERTEX
  5
50
330
4E
100
AcDbEntity
  8
Layer 1
 62
    30
420
 16090918
370
    35
100
AcDbVertex
100
AcDb2dVertex
 10
779.5727428606624
 20
-520.7389294488083
 30
0.0
  0
SEQEND
  5
51
330
4E
100
AcDbEntity
  8
Layer 1
370
    35
  0
INSERT
  5
53
330
1F
100
AcDbEntity
  8
Layer 1
100
AcDbBlockReference
  2
block 3
 10
0.0
 20
0.0
 30
0.0
  0
SPLINE
  5
82
330
1F
100
AcDbEntity
  8
Layer 1
 62
   179
420
  2301728
370
     9
100
AcDbSpline
210
0.0
220
0.0
230
1.0
 70
     8
 71
     3
 72
    11
 73
     7
 74
     0
 42
0.0000000001
 43
0.0000000001
 40
0.0
 40
0.0
 40
0.0
 40
0.0
 40
1.0
 40
1.0
 40
1.0
 40
2.0
 40
2.0
 40
2.0
 40
2.0
 10
180.0129570405003
 20
-76.18053519145835
 30
0.0
 10
180.0129570405003
 20
-76.18053519145835
 30
0.0
 10
180.012784785726
 20
-76.18053519145835
 30
0.0
 10
180.012784785726
 20
-76.18053519145835
 30
0.0
 10
174.4901244680962
 20
-76.18053519145835
 30
0.0
 10
170.0128783754655
 20
-80.65778128408903
 30
0.0
 10
170.0128783754655
 20
-86.18061385649304
 30
0.0
  0
SPLINE
  5
83
330
1F
100
AcDbEntity
  8
Layer 1
 62
   179
420
  2301728
370
     9
100
AcDbSpline
210
0.0
220
0.0
230
1.0
 70
     8
 71
     3
 72
    11
 73
     7
 74
     0
 42
0.0000000001
 43
0.0000000001
 40
0.0
 40
0.0
 40
0.0
 40
0.0
 40
1.0
 40
1.0
 40
1.0
 40
2.0
 40
2.0
 40
2.0
 40
2.0
 10
170.0128783754655
 20
-98.68045380562504
 30
0.0
 10
170.0128783754655
 20
-104.2034586328033
 30
0.0
 10
174.4901244680962
 20
-108.680704725434
 30
0.0
 10
180.012784785726
 20
-108.680704725434
 30
0.0
 10
180.012784785726
 20
-108.680704725434
 30
0.0
 10
180.0129570405003
 20
-108.680704725434
 30
0.0
 10
180.0129570405003
 20
-108.680704725434
 30
0.0
  0
SPLINE
  5
84
330
1F
100
AcDbEntity
  8
Layer 1
 62
   179
420
  2301728
370
     9
100
AcDbSpline
210
0.0
220
0.0
230
1.0
 70
     8
 71
     3
 72
     8
 73
     4
 74
     0
 42
0.0000000001
 43
0.0000000001
 40
0.0
 40
0.0
 40
0.0
 40
0.0
 40
1.0
 40
1.0
 40
1.0
 40
1.0
 10
202.5125311451184
 20
-86.18061385649304
 30
0.0
 10
202.5125311451184
 20
-80.65778128408903
 30
0.0
 10
198.035457307262
 20
-76.1807074462326
 30
0.0
 10
192.512624734858
 20
-76.18053519145835
 30
0.0
  0
SPLINE
  5
85
330
1F
100
AcDbEntity
  8
Layer 1
 62
   179
420
  2301728
370
     9
100
AcDbSpline
210
0.0
220
0.0
230
1.0
 70
     8
 71
     3
 72
     8
 73
     4
 74
     0
 42
0.0000000001
 43
0.0000000001
 40
0.0
 40
0.0
 40
0.0
 40
0.0
 40
1.0
 40
1.0
 40
1.0
 40
1.0
 10
192.5127969896322
 20
-108.680704725434
 30
0.0
 10
198.0356295620362
 20
-108.6803602158855
 30
0.0
 10
202.5127033998927
 20
-104.2034586328033
 30
0.0
 10
202.5127033998927
 20
-98.68045380562504
 30
0.0
  0
INSERT
  5
87
330
1F
100
AcDbEntity
  8
Layer 1
100
AcDbBlockReference
  2
block 4
 10
0.0
 20
0.0
 30
0.0
  0
INSERT
  5
90
330
1F
100
AcDbEntity
  8
Layer 1
100
AcDbBlockReference
  2
block 5
 10
0.0
 20
0.0
 30
0.0
  0
INSERT
  5
99
330
1F
100
AcDbEntity
  8
Layer 1
100
AcDbBlockReference
  2
block 6
 10
0.0
 20
0.0
 30
0.0
  0
MTEXT
  5
AB
330
1F
100
AcDbEntity
  8
Layer 1
 62
   179
420
  2301728
100
AcDbMText
 10
304.9431436412121
 20
-86.63760577261144
 30
0.0
 40
2.878666665947001
 41
0.0
 71
     7
 72
     1
  1
\fMyriad Roman|b0|i0|c0|p34;\W1;5mm LED
 73
     1
 44
1.0
  0
MTEXT
  5
AC
330
1F
100
AcDbEntity
  8
Layer 1
 62
   179
420
  2301728
100
AcDbMText
 10
304.9431436412121
 20
-91.71757132038658
 30
0.0
 40
2.878666665947001
 41
0.0
 71
     7
 72
     1
  1
\fMyriad Roman|b0|i0|c0|p34;\W1;holder
 73
     1
 44
1.0
  0
POLYLINE
  5
AD
330
1F
100
AcDbEntity
  8
Layer 1
 62
   179
420
  2301728
370
     9
100
AcDb2dPolyline
 66
     1
 10
0.0
 20
0.0
 30
0.0
  0
VERTEX
  5
AE
330
AD
100
AcDbEntity
  8
Layer 1
 62
   179
420
  2301728
370
     9
100
AcDbVertex
100
AcDb2dVertex
 10
307.5767468849114
 20
-69.55682235674274
 30
0.0
  0
VERTEX
  5
AF
330
AD
100
AcDbEntity
  8
Layer 1
 62
   179
420
  2301728
370
     9
100
AcDbVertex
100
AcDb2dVertex
 10
307.5767468849114
 20
-74.55686168926009
 30
0.0
  0
VERTEX
  5
B0
330
AD
100
AcDbEntity
  8
Layer 1
 62
   179
420
  2301728
370
     9
100
AcDbVertex
100
AcDb2dVertex
 10
307.557454350194
 20
-74.55686168926009
 30
0.0
  0
VERTEX
  5
B1
330
AD
100
AcDbEntity
  8
Layer 1
 62
   179
420
  2301728
370
     9
100
AcDbVertex
100
AcDb2dVertex
 10
310.5767360334669
 20
-74.55686168926009
 30
0.0
  0
VERTEX
  5
B2
330
AD
100
AcDbEntity
  8
Layer 1
 62
   179
420
  2301728
370
     9
100
AcDbVertex
100
AcDb2dVertex
 10
310.5767360334669
 20
-71.85676810269554
 30
0.0
  0
VERTEX
  5
B3
330
AD
100
AcDbEntity
  8
Layer 1
 62
   179
420
  2301728
370
     9
100
AcDbVertex
100
AcDb2dVertex
 10
311.5765027432864
 20
-71.85676810269554
 30
0.0
  0
VERTEX
  5
B4
330
AD
100
AcDbEntity
  8
Layer 1
 62
   179
420
  2301728
370
     9
100
AcDbVertex
100
AcDb2dVertex
 10
311.5765027432864
 20
-72.49204371017561
 30
0.0
  0
VERTEX
  5
B5
330
AD
100
AcDbEntity
  8
Layer 1
 62
   179
420
  2301728
370
     9
100
AcDbVertex
100
AcDb2dVertex
 10
319.5767034791336
 20
-72.49204371017561
 30
0.0
  0
VERTEX
  5
B6
330
AD
100
AcDbEntity
  8
Layer 1
 62
   179
420
  2301728
370
     9
100
AcDbVertex
100
AcDb2dVertex
 10
319.5767034791336
 20
-77.12207978757712
 30
0.0
  0
VERTEX
  5
B7
330
AD
100
AcDbEntity
  8
Layer 1
 62
   179
420
  2301728
370
     9
100
AcDbVertex
100
AcDb2dVertex
 10
311.5765027432864
 20
-77.12207978757712
 30
0.0
  0
VERTEX
  5
B8
330
AD
100
AcDbEntity
  8
Layer 1
 62
   179
420
  2301728
370
     9
100
AcDbVertex
100
AcDb2dVertex
 10
311.5765027432864
 20
-77.7568386307344
 30
0.0
  0
VERTEX
  5
B9
330
AD
100
AcDbEntity
  8
Layer 1
 62
   179
420
  2301728
370
     9
100
AcDbVertex
100
AcDb2dVertex
 10
310.5767360334669
 20
-77.7568386307344
 30
0.0
  0
VERTEX
  5
BA
330
AD
100
AcDbEntity
  8
Layer 1
 62
   179
420
  2301728
370
     9
100
AcDbVertex
100
AcDb2dVertex
 10
310.5767360334669
 20
-75.05691729894411
 30
0.0
  0
VERTEX
  5
BB
330
AD
100
AcDbEntity
  8
Layer 1
 62
   179
420
  2301728
370
     9
100
AcDbVertex
100
AcDb2dVertex
 10
307.5698566939409
 20
-75.05691729894411
 30
0.0
  0
VERTEX
  5
BC
330
AD
100
AcDbEntity
  8
Layer 1
 62
   179
420
  2301728
370
     9
100
AcDbVertex
100
AcDb2dVertex
 10
307.5767468849114
 20
-75.05691729894411
 30
0.0
  0
VERTEX
  5
BD
330
AD
100
AcDbEntity
  8
Layer 1
 62
   179
420
  2301728
370
     9
100
AcDbVertex
100
AcDb2dVertex
 10
307.5767468849114
 20
-80.05695663146146
 30
0.0
  0
SEQEND
  5
BE
330
AD
100
AcDbEntity
  8
Layer 1
370
     9
  0
INSERT
  5
C0
330
1F
100
AcDbEntity
  8
Layer 1
100
AcDbBlockReference
  2
block 7
 10
0.0
 20
0.0
 30
0.0
  0
INSERT
  5
F2
330
1F
100
AcDbEntity
  8
Layer 1
100
AcDbBlockReference
  2
block 10
 10
0.0
 20
0.0
 30
0.0
  0
MTEXT
  5
F7
330
1F
100
AcDbEntity
  8
Layer 1
 62
   179
420
  2301728
100
AcDbMText
 10
306.6482936516365
 20
-115.8594224428233
 30
0.0
 40
2.878666665947001
 41
0.0
 71
     7
 72
     1
  1
\fMyriad Roman|b0|i0|c0|p34;\W1;LED leg
 73
     1
 44
1.0
  0
MTEXT
  5
F8
330
1F
100
AcDbEntity
  8
Layer 1
 62
   179
420
  2301728
100
AcDbMText
 10
306.6482936516365
 20
-120.9393879905985
 30
0.0
 40
2.878666665947001
 41
0.0
 71
     7
 72
     1
  1
\fMyriad Roman|b0|i0|c0|p34;\W1;holes
 73
     1
 44
1.0
  0
POLYLINE
  5
F9
330
1F
100
AcDbEntity
  8
Layer 1
 62
   179
420
  2301728
370
     9
100
AcDb2dPolyline
 66
     1
 10
0.0
 20
0.0
 30
0.0
  0
VERTEX
  5
FA
330
F9
100
AcDbEntity
  8
Layer 1
 62
   179
420
  2301728
370
     9
100
AcDbVertex
100
AcDb2dVertex
 10
49.3106852090265
 20
-97.70807560491326
 30
0.0
  0
VERTEX
  5
FB
330
F9
100
AcDbEntity
  8
Layer 1
 62
   179
420
  2301728
370
     9
100
AcDbVertex
100
AcDb2dVertex
 10
49.3106852090265
 20
-100.7080647534688
 30
0.0
  0
VERTEX
  5
FC
330
F9
100
AcDbEntity
  8
Layer 1
 62
   179
420
  2301728
370
     9
100
AcDbVertex
100
AcDb2dVertex
 10
58.31065265469317
 20
-100.7080647534688
 30
0.0
  0
VERTEX
  5
FD
330
F9
100
AcDbEntity
  8
Layer 1
 62
   179
420
  2301728
370
     9
100
AcDbVertex
100
AcDb2dVertex
 10
58.31065265469317
 20
-97.70807560491326
 30
0.0
  0
VERTEX
  5
FE
330
F9
100
AcDbEntity
  8
Layer 1
 62
   179
420
  2301728
370
     9
100
AcDbVertex
100
AcDb2dVertex
 10
61.7107896438605
 20
-97.70807560491326
 30
0.0
  0
VERTEX
  5
FF
330
F9
100
AcDbEntity
  8
Layer 1
 62
   179
420
  2301728
370
     9
100
AcDbVertex
100
AcDb2dVertex
 10
61.7107896438605
 20
-89.70821937861461
 30
0.0
  0
VERTEX
  5
100
330
F9
100
AcDbEntity
  8
Layer 1
 62
   179
420
  2301728
370
     9
100
AcDbVertex
100
AcDb2dVertex
 10
60.11071504573621
 20
-89.70821937861461
 30
0.0
  0
VERTEX
  5
101
330
F9
100
AcDbEntity
  8
Layer 1
 62
   179
420
  2301728
370
     9
100
AcDbVertex
100
AcDb2dVertex
 10
60.11071504573621
 20
-86.70823023005906
 30
0.0
  0
VERTEX
  5
102
330
F9
100
AcDbEntity
  8
Layer 1
 62
   179
420
  2301728
370
     9
100
AcDbVertex
100
AcDb2dVertex
 10
61.7107896438605
 20
-86.70823023005906
 30
0.0
  0
VERTEX
  5
103
330
F9
100
AcDbEntity
  8
Layer 1
 62
   179
420
  2301728
370
     9
100
AcDbVertex
100
AcDb2dVertex
 10
61.7107896438605
 20
-84.70835230087152
 30
0.0
  0
VERTEX
  5
104
330
F9
100
AcDbEntity
  8
Layer 1
 62
   179
420
  2301728
370
     9
100
AcDbVertex
100
AcDb2dVertex
 10
64.91059433056054
 20
-84.70835230087152
 30
0.0
  0
VERTEX
  5
105
330
F9
100
AcDbEntity
  8
Layer 1
 62
   179
420
  2301728
370
     9
100
AcDbVertex
100
AcDb2dVertex
 10
64.91059433056054
 20
-86.70823023005906
 30
0.0
  0
VERTEX
  5
106
330
F9
100
AcDbEntity
  8
Layer 1
 62
   179
420
  2301728
370
     9
100
AcDbVertex
100
AcDb2dVertex
 10
66.51066892868484
 20
-86.70823023005906
 30
0.0
  0
VERTEX
  5
107
330
F9
100
AcDbEntity
  8
Layer 1
 62
   179
420
  2301728
370
     9
100
AcDbVertex
100
AcDb2dVertex
 10
66.51066892868484
 20
-89.70821937861461
 30
0.0
  0
VERTEX
  5
108
330
F9
100
AcDbEntity
  8
Layer 1
 62
   179
420
  2301728
370
     9
100
AcDbVertex
100
AcDb2dVertex
 10
64.91059433056054
 20
-89.70821937861461
 30
0.0
  0
VERTEX
  5
109
330
F9
100
AcDbEntity
  8
Layer 1
 62
   179
420
  2301728
370
     9
100
AcDbVertex
100
AcDb2dVertex
 10
64.91059433056054
 20
-97.70807560491326
 30
0.0
  0
VERTEX
  5
10A
330
F9
100
AcDbEntity
  8
Layer 1
 62
   179
420
  2301728
370
     9
100
AcDbVertex
100
AcDb2dVertex
 10
68.31073131972788
 20
-97.70807560491326
 30
0.0
  0
VERTEX
  5
10B
330
F9
100
AcDbEntity
  8
Layer 1
 62
   179
420
  2301728
370
     9
100
AcDbVertex
100
AcDb2dVertex
 10
68.31073131972788
 20
-100.7080647534688
 30
0.0
  0
VERTEX
  5
10C
330
F9
100
AcDbEntity
  8
Layer 1
 62
   179
420
  2301728
370
     9
100
AcDbVertex
100
AcDb2dVertex
 10
77.31069876539455
 20
-100.7080647534688
 30
0.0
  0
VERTEX
  5
10D
330
F9
100
AcDbEntity
  8
Layer 1
 62
   179
420
  2301728
370
     9
100
AcDbVertex
100
AcDb2dVertex
 10
77.31069876539455
 20
-97.70807560491326
 30
0.0
  0
SEQEND
  5
10E
330
F9
100
AcDbEntity
  8
Layer 1
370
     9
  0
MTEXT
  5
10F
330
1F
100
AcDbEntity
  8
Layer 1
 62
   179
420
  2301728
100
AcDbMText
 10
48.31074624443274
 20
-59.17451034761957
 30
0.0
 40
2.878666665947001
 41
0.0
 71
     7
 72
     1
  1
\fMyriad Roman|b0|i0|c0|p34;\W1;3mm stock
 73
     1
 44
1.0
  0
MTEXT
  5
110
330
1F
100
AcDbEntity
  8
Layer 1
 62
   179
420
  2301728
100
AcDbMText
 10
51.48557398886472
 20
-116.3217542569439
 30
0.0
 40
2.878666665947001
 41
0.0
 71
     7
 72
     1
  1
\fMyriad Roman|b0|i0|c0|p34;\W1;M3 16mm
 73
     1
 44
1.0
  0
POLYLINE
  5
111
330
1F
100
AcDbEntity
  8
Layer 1
 62
   179
420
  2301728
370
     9
100
AcDb2dPolyline
 66
     1
 10
0.0
 20
0.0
 30
0.0
  0
VERTEX
  5
112
330
111
100
AcDbEntity
  8
Layer 1
 62
   179
420
  2301728
370
     9
100
AcDbVertex
100
AcDb2dVertex
 10
87.73710799672892
 20
-97.9581895371424
 30
0.0
  0
VERTEX
  5
113
330
111
100
AcDbEntity
  8
Layer 1
 62
   179
420
  2301728
370
     9
100
AcDbVertex
100
AcDb2dVertex
 10
87.73710799672892
 20
-100.958178685698
 30
0.0
  0
VERTEX
  5
114
330
111
100
AcDbEntity
  8
Layer 1
 62
   179
420
  2301728
370
     9
100
AcDbVertex
100
AcDb2dVertex
 10
95.73713647780183
 20
-100.958178685698
 30
0.0
  0
VERTEX
  5
115
330
111
100
AcDbEntity
  8
Layer 1
 62
   179
420
  2301728
370
     9
100
AcDbVertex
100
AcDb2dVertex
 10
95.73713647780183
 20
-97.9581895371424
 30
0.0
  0
VERTEX
  5
116
330
111
100
AcDbEntity
  8
Layer 1
 62
   179
420
  2301728
370
     9
100
AcDbVertex
100
AcDb2dVertex
 10
99.48712291349628
 20
-97.9581895371424
 30
0.0
  0
VERTEX
  5
117
330
111
100
AcDbEntity
  8
Layer 1
 62
   179
420
  2301728
370
     9
100
AcDbVertex
100
AcDb2dVertex
 10
99.48712291349628
 20
-89.95833331084376
 30
0.0
  0
VERTEX
  5
118
330
111
100
AcDbEntity
  8
Layer 1
 62
   179
420
  2301728
370
     9
100
AcDbVertex
100
AcDb2dVertex
 10
96.98701711985048
 20
-89.95798880129523
 30
0.0
  0
VERTEX
  5
119
330
111
100
AcDbEntity
  8
Layer 1
 62
   179
420
  2301728
370
     9
100
AcDbVertex
100
AcDb2dVertex
 10
96.98701711985048
 20
-84.45823836864238
 30
0.0
  0
VERTEX
  5
11A
330
111
100
AcDbEntity
  8
Layer 1
 62
   179
420
  2301728
370
     9
100
AcDbVertex
100
AcDb2dVertex
 10
99.48712291349628
 20
-84.45823836864238
 30
0.0
  0
VERTEX
  5
11B
330
111
100
AcDbEntity
  8
Layer 1
 62
   179
420
  2301728
370
     9
100
AcDbVertex
100
AcDb2dVertex
 10
105.9869845655171
 20
-84.45823836864238
 30
0.0
  0
VERTEX
  5
11C
330
111
100
AcDbEntity
  8
Layer 1
 62
   179
420
  2301728
370
     9
100
AcDbVertex
100
AcDb2dVertex
 10
108.4870903591629
 20
-84.45823836864238
 30
0.0
  0
VERTEX
  5
11D
330
111
100
AcDbEntity
  8
Layer 1
 62
   179
420
  2301728
370
     9
100
AcDbVertex
100
AcDb2dVertex
 10
108.4870903591629
 20
-89.95798880129523
 30
0.0
  0
VERTEX
  5
11E
330
111
100
AcDbEntity
  8
Layer 1
 62
   179
420
  2301728
370
     9
100
AcDbVertex
100
AcDb2dVertex
 10
105.9869845655171
 20
-89.95833331084376
 30
0.0
  0
VERTEX
  5
11F
330
111
100
AcDbEntity
  8
Layer 1
 62
   179
420
  2301728
370
     9
100
AcDbVertex
100
AcDb2dVertex
 10
105.9869845655171
 20
-97.9581895371424
 30
0.0
  0
VERTEX
  5
120
330
111
100
AcDbEntity
  8
Layer 1
 62
   179
420
  2301728
370
     9
100
AcDbVertex
100
AcDb2dVertex
 10
109.7369710012116
 20
-97.9581895371424
 30
0.0
  0
VERTEX
  5
121
330
111
100
AcDbEntity
  8
Layer 1
 62
   179
420
  2301728
370
     9
100
AcDbVertex
100
AcDb2dVertex
 10
109.7369710012116
 20
-100.958178685698
 30
0.0
  0
VERTEX
  5
122
330
111
100
AcDbEntity
  8
Layer 1
 62
   179
420
  2301728
370
     9
100
AcDbVertex
100
AcDb2dVertex
 10
117.7369994822845
 20
-100.958178685698
 30
0.0
  0
VERTEX
  5
123
330
111
100
AcDbEntity
  8
Layer 1
 62
   179
420
  2301728
370
     9
100
AcDbVertex
100
AcDb2dVertex
 10
117.7369994822845
 20
-97.9581895371424
 30
0.0
  0
SEQEND
  5
124
330
111
100
AcDbEntity
  8
Layer 1
370
     9
  0
MTEXT
  5
125
330
1F
100
AcDbEntity
  8
Layer 1
 62
   179
420
  2301728
100
AcDbMText
 10
89.58367917682284
 20
-116.850748668704
 30
0.0
 40
2.878666665947001
 41
0.0
 71
     7
 72
     1
  1
\fMyriad Roman|b0|i0|c0|p34;\W1;M6 16mm
 73
     1
 44
1.0
  0
POLYLINE
  5
126
330
1F
100
AcDbEntity
  8
Layer 1
 62
   179
420
  2301728
370
     9
100
AcDb2dPolyline
 66
     1
 10
0.0
 20
0.0
 30
0.0
  0
VERTEX
  5
127
330
126
100
AcDbEntity
  8
Layer 1
 62
   179
420
  2301728
370
     9
100
AcDbVertex
100
AcDb2dVertex
 10
87.73710799672892
 20
-126.1059976898277
 30
0.0
  0
VERTEX
  5
128
330
126
100
AcDbEntity
  8
Layer 1
 62
   179
420
  2301728
370
     9
100
AcDbVertex
100
AcDb2dVertex
 10
95.73713647780183
 20
-126.1059976898277
 30
0.0
  0
VERTEX
  5
129
330
126
100
AcDbEntity
  8
Layer 1
 62
   179
420
  2301728
370
     9
100
AcDbVertex
100
AcDb2dVertex
 10
95.73713647780183
 20
-129.2809976890339
 30
0.0
  0
VERTEX
  5
12A
330
126
100
AcDbEntity
  8
Layer 1
 62
   179
420
  2301728
370
     9
100
AcDbVertex
100
AcDb2dVertex
 10
87.73710799672892
 20
-129.2809976890339
 30
0.0
  0
VERTEX
  5
12B
330
126
100
AcDbEntity
  8
Layer 1
 62
   179
420
  2301728
370
     9
100
AcDbVertex
100
AcDb2dVertex
 10
87.73710799672892
 20
-126.1059976898277
 30
0.0
  0
SEQEND
  5
12C
330
126
100
AcDbEntity
  8
Layer 1
370
     9
  0
POLYLINE
  5
12D
330
1F
100
AcDbEntity
  8
Layer 1
 62
   179
420
  2301728
370
     9
100
AcDb2dPolyline
 66
     1
 10
0.0
 20
0.0
 30
0.0
  0
VERTEX
  5
12E
330
12D
100
AcDbEntity
  8
Layer 1
 62
   179
420
  2301728
370
     9
100
AcDbVertex
100
AcDb2dVertex
 10
109.7369710012116
 20
-126.1059976898277
 30
0.0
  0
VERTEX
  5
12F
330
12D
100
AcDbEntity
  8
Layer 1
 62
   179
420
  2301728
370
     9
100
AcDbVertex
100
AcDb2dVertex
 10
117.7369994822845
 20
-126.1059976898277
 30
0.0
  0
VERTEX
  5
130
330
12D
100
AcDbEntity
  8
Layer 1
 62
   179
420
  2301728
370
     9
100
AcDbVertex
100
AcDb2dVertex
 10
117.7369994822845
 20
-129.2809976890339
 30
0.0
  0
VERTEX
  5
131
330
12D
100
AcDbEntity
  8
Layer 1
 62
   179
420
  2301728
370
     9
100
AcDbVertex
100
AcDb2dVertex
 10
109.7369710012116
 20
-129.2809976890339
 30
0.0
  0
VERTEX
  5
132
330
12D
100
AcDbEntity
  8
Layer 1
 62
   179
420
  2301728
370
     9
100
AcDbVertex
100
AcDb2dVertex
 10
109.7369710012116
 20
-126.1059976898277
 30
0.0
  0
SEQEND
  5
133
330
12D
100
AcDbEntity
  8
Layer 1
370
     9
  0
SPLINE
  5
134
330
1F
100
AcDbEntity
  8
Layer 1
 62
   179
420
  2301728
370
     9
100
AcDbSpline
210
0.0
220
0.0
230
1.0
 70
    11
 71
     3
 72
    17
 73
    13
 74
     0
 42
0.0000000001
 43
0.0000000001
 40
0.0
 40
0.0
 40
0.0
 40
0.0
 40
1.0
 40
1.0
 40
1.0
 40
2.0
 40
2.0
 40
2.0
 40
3.0
 40
3.0
 40
3.0
 40
4.0
 40
4.0
 40
4.0
 40
4.0
 10
102.7370537395067
 20
-124.6935085408752
 30
0.0
 10
104.3936279035891
 20
-124.6935085408752
 30
0.0
 10
105.7370428880623
 20
-126.0370957801227
 30
0.0
 10
105.7370428880623
 20
-127.6934976894308
 30
0.0
 10
105.7370428880623
 20
-129.350588617836
 30
0.0
 10
104.3936279035891
 20
-130.6934868379864
 30
0.0
 10
102.7370537395067
 20
-130.6934868379864
 30
0.0
 10
101.0804795754243
 20
-130.6934868379864
 30
0.0
 10
99.73706459095115
 20
-129.350588617836
 30
0.0
 10
99.73706459095115
 20
-127.6934976894308
 30
0.0
 10
99.73706459095115
 20
-126.0370957801227
 30
0.0
 10
101.0804795754243
 20
-124.6935085408752
 30
0.0
 10
102.7370537395067
 20
-124.6935085408752
 30
0.0
  0
MTEXT
  5
135
330
1F
100
AcDbEntity
  8
Layer 1
 62
   179
420
  2301728
100
AcDbMText
 10
170.0128783754655
 20
-57.58735485756497
 30
0.0
 40
2.878666665947001
 41
0.0
 71
     7
 72
     1
  1
\fMyriad Roman|b0|i0|c0|p34;\W1;Rounded corners
 73
     1
 44
1.0
  0
MTEXT
  5
136
330
1F
100
AcDbEntity
  8
Layer 1
 62
   179
420
  2301728
100
AcDbMText
 10
238.2717610081404
 20
-59.17468260239383
 30
0.0
 40
2.878666665947001
 41
0.0
 71
     7
 72
     1
  1
\fMyriad Roman|b0|i0|c0|p34;\W1;Bounding corners
 73
     1
 44
1.0
  0
MTEXT
  5
137
330
1F
100
AcDbEntity
  8
Layer 1
 62
   179
420
  2301728
100
AcDbMText
 10
304.9433158959864
 20
-57.58735485756497
 30
0.0
 40
2.878666665947001
 41
0.0
 71
     7
 72
     1
  1
\fMyriad Roman|b0|i0|c0|p34;\W1;LED stuff
 73
     1
 44
1.0
  0
MTEXT
  5
138
330
1F
100
AcDbEntity
  8
Layer 1
 62
   179
420
  2301728
100
AcDbMText
 10
457.3360811573674
 20
-58.11652152409935
 30
0.0
 40
2.878666665947001
 41
0.0
 71
     7
 72
     1
  1
\fMyriad Roman|b0|i0|c0|p34;\W1;MISC parts
 73
     1
 44
1.0
  0
POLYLINE
  5
139
330
1F
100
AcDbEntity
  8
Layer 1
 62
   179
420
  2301728
370
     9
100
AcDb2dPolyline
 66
     1
 10
0.0
 20
0.0
 30
0.0
  0
VERTEX
  5
13A
330
139
100
AcDbEntity
  8
Layer 1
 62
   179
420
  2301728
370
     9
100
AcDbVertex
100
AcDb2dVertex
 10
321.7767414560142
 20
-144.4711127025975
 30
0.0
  0
VERTEX
  5
13B
330
139
100
AcDbEntity
  8
Layer 1
 62
   179
420
  2301728
370
     9
100
AcDbVertex
100
AcDb2dVertex
 10
321.7574489212968
 20
-144.4711127025975
 30
0.0
  0
VERTEX
  5
13C
330
139
100
AcDbEntity
  8
Layer 1
 62
   179
420
  2301728
370
     9
100
AcDbVertex
100
AcDb2dVertex
 10
324.7767306045697
 20
-144.4711127025975
 30
0.0
  0
VERTEX
  5
13D
330
139
100
AcDbEntity
  8
Layer 1
 62
   179
420
  2301728
370
     9
100
AcDbVertex
100
AcDb2dVertex
 10
324.7767306045697
 20
-141.7715358803557
 30
0.0
  0
VERTEX
  5
13E
330
139
100
AcDbEntity
  8
Layer 1
 62
   179
420
  2301728
370
     9
100
AcDbVertex
100
AcDb2dVertex
 10
325.7764973143892
 20
-141.7715358803557
 30
0.0
  0
VERTEX
  5
13F
330
139
100
AcDbEntity
  8
Layer 1
 62
   179
420
  2301728
370
     9
100
AcDbVertex
100
AcDb2dVertex
 10
325.7764973143892
 20
-142.4068114878358
 30
0.0
  0
VERTEX
  5
140
330
139
100
AcDbEntity
  8
Layer 1
 62
   179
420
  2301728
370
     9
100
AcDbVertex
100
AcDb2dVertex
 10
333.7766980502364
 20
-142.4068114878358
 30
0.0
  0
VERTEX
  5
141
330
139
100
AcDbEntity
  8
Layer 1
 62
   179
420
  2301728
370
     9
100
AcDbVertex
100
AcDb2dVertex
 10
333.7766980502364
 20
-147.0363308009145
 30
0.0
  0
VERTEX
  5
142
330
139
100
AcDbEntity
  8
Layer 1
 62
   179
420
  2301728
370
     9
100
AcDbVertex
100
AcDb2dVertex
 10
325.7764973143892
 20
-147.0363308009145
 30
0.0
  0
VERTEX
  5
143
330
139
100
AcDbEntity
  8
Layer 1
 62
   179
420
  2301728
370
     9
100
AcDbVertex
100
AcDb2dVertex
 10
325.7764973143892
 20
-147.6716064083946
 30
0.0
  0
VERTEX
  5
144
330
139
100
AcDbEntity
  8
Layer 1
 62
   179
420
  2301728
370
     9
100
AcDbVertex
100
AcDb2dVertex
 10
324.7767306045697
 20
-147.6716064083946
 30
0.0
  0
VERTEX
  5
145
330
139
100
AcDbEntity
  8
Layer 1
 62
   179
420
  2301728
370
     9
100
AcDbVertex
100
AcDb2dVertex
 10
324.7767306045697
 20
-144.9713405670558
 30
0.0
  0
VERTEX
  5
146
330
139
100
AcDbEntity
  8
Layer 1
 62
   179
420
  2301728
370
     9
100
AcDbVertex
100
AcDb2dVertex
 10
321.7698512650437
 20
-144.9713405670558
 30
0.0
  0
VERTEX
  5
147
330
139
100
AcDbEntity
  8
Layer 1
 62
   179
420
  2301728
370
     9
100
AcDbVertex
100
AcDb2dVertex
 10
321.7767414560142
 20
-144.9713405670558
 30
0.0
  0
VERTEX
  5
148
330
139
100
AcDbEntity
  8
Layer 1
 62
   179
420
  2301728
370
     9
100
AcDbVertex
100
AcDb2dVertex
 10
321.7767414560142
 20
-144.4711127025975
 30
0.0
  0
SEQEND
  5
149
330
139
100
AcDbEntity
  8
Layer 1
370
     9
  0
SPLINE
  5
14A
330
1F
100
AcDbEntity
  8
Layer 1
 62
   179
420
  2301728
370
     9
100
AcDbSpline
210
0.0
220
0.0
230
1.0
 70
    11
 71
     3
 72
    17
 73
    13
 74
     0
 42
0.0000000001
 43
0.0000000001
 40
0.0
 40
0.0
 40
0.0
 40
0.0
 40
1.0
 40
1.0
 40
1.0
 40
2.0
 40
2.0
 40
2.0
 40
3.0
 40
3.0
 40
3.0
 40
4.0
 40
4.0
 40
4.0
 40
4.0
 10
320.0218098158279
 20
-144.7212266348266
 30
0.0
 10
320.0218098158279
 20
-150.2444037167792
 30
0.0
 10
315.5452527422943
 20
-154.7216498094099
 30
0.0
 10
310.0220756603417
 20
-154.7216498094099
 30
0.0
 10
304.4988985783892
 20
-154.7216498094099
 30
0.0
 10
300.0223415048555
 20
-150.2444037167792
 30
0.0
 10
300.0223415048555
 20
-144.7212266348266
 30
0.0
 10
300.0223415048555
 20
-139.1987385719711
 30
0.0
 10
304.4988985783892
 20
-134.7214924793405
 30
0.0
 10
310.0220756603417
 20
-134.7214924793405
 30
0.0
 10
315.5452527422943
 20
-134.7214924793405
 30
0.0
 10
320.0218098158279
 20
-139.1987385719711
 30
0.0
 10
320.0218098158279
 20
-144.7212266348266
 30
0.0
  0
SPLINE
  5
14B
330
1F
100
AcDbEntity
  8
Layer 1
 62
   179
420
  2301728
370
     9
100
AcDbSpline
210
0.0
220
0.0
230
1.0
 70
    11
 71
     3
 72
    17
 73
    13
 74
     0
 42
0.0000000001
 43
0.0000000001
 40
0.0
 40
0.0
 40
0.0
 40
0.0
 40
1.0
 40
1.0
 40
1.0
 40
2.0
 40
2.0
 40
2.0
 40
3.0
 40
3.0
 40
3.0
 40
4.0
 40
4.0
 40
4.0
 40
4.0
 10
321.7719183223348
 20
-134.7214924793405
 30
0.0
 10
321.7719183223348
 20
-135.5503824530916
 30
0.0
 10
321.1008137218082
 20
-136.2214870536182
 30
0.0
 10
320.271923748057
 20
-136.2214870536182
 30
0.0
 10
319.443722793403
 20
-136.2214870536182
 30
0.0
 10
318.7719291737793
 20
-135.5503824530916
 30
0.0
 10
318.7719291737793
 20
-134.7214924793405
 30
0.0
 10
318.7719291737793
 20
-133.8932915246864
 30
0.0
 10
319.443722793403
 20
-133.2214979050627
 30
0.0
 10
320.271923748057
 20
-133.2214979050627
 30
0.0
 10
321.1008137218082
 20
-133.2214979050627
 30
0.0
 10
321.7719183223348
 20
-133.8932915246864
 30
0.0
 10
321.7719183223348
 20
-134.7214924793405
 30
0.0
  0
SPLINE
  5
14C
330
1F
100
AcDbEntity
  8
Layer 1
 62
   179
420
  2301728
370
     9
100
AcDbSpline
210
0.0
220
0.0
230
1.0
 70
    11
 71
     3
 72
    17
 73
    13
 74
     0
 42
0.0000000001
 43
0.0000000001
 40
0.0
 40
0.0
 40
0.0
 40
0.0
 40
1.0
 40
1.0
 40
1.0
 40
2.0
 40
2.0
 40
2.0
 40
3.0
 40
3.0
 40
3.0
 40
4.0
 40
4.0
 40
4.0
 40
4.0
 10
321.7719183223348
 20
-154.7216498094099
 30
0.0
 10
321.7719183223348
 20
-155.550539783161
 30
0.0
 10
321.1008137218082
 20
-156.2216443836876
 30
0.0
 10
320.271923748057
 20
-156.2216443836876
 30
0.0
 10
319.443722793403
 20
-156.2216443836876
 30
0.0
 10
318.7719291737793
 20
-155.550539783161
 30
0.0
 10
318.7719291737793
 20
-154.7216498094099
 30
0.0
 10
318.7719291737793
 20
-153.8934488547558
 30
0.0
 10
319.443722793403
 20
-153.2216552351321
 30
0.0
 10
320.271923748057
 20
-153.2216552351321
 30
0.0
 10
321.1008137218082
 20
-153.2216552351321
 30
0.0
 10
321.7719183223348
 20
-153.8934488547558
 30
0.0
 10
321.7719183223348
 20
-154.7216498094099
 30
0.0
  0
SPLINE
  5
14D
330
1F
100
AcDbEntity
  8
Layer 1
 62
   179
420
  2301728
370
     9
100
AcDbSpline
210
0.0
220
0.0
230
1.0
 70
    11
 71
     3
 72
    17
 73
    13
 74
     0
 42
0.0000000001
 43
0.0000000001
 40
0.0
 40
0.0
 40
0.0
 40
0.0
 40
1.0
 40
1.0
 40
1.0
 40
2.0
 40
2.0
 40
2.0
 40
3.0
 40
3.0
 40
3.0
 40
4.0
 40
4.0
 40
4.0
 40
4.0
 10
291.7720268367792
 20
-144.7212266348266
 30
0.0
 10
291.7720268367792
 20
-145.5501166085778
 30
0.0
 10
291.1002332171555
 20
-146.2212212091044
 30
0.0
 10
290.2720322625015
 20
-146.2212212091044
 30
0.0
 10
289.4438313078474
 20
-146.2212212091044
 30
0.0
 10
288.7720376882237
 20
-145.5501166085778
 30
0.0
 10
288.7720376882237
 20
-144.7212266348266
 30
0.0
 10
288.7720376882237
 20
-143.8930256801726
 30
0.0
 10
289.4438313078474
 20
-143.2212320605489
 30
0.0
 10
290.2720322625015
 20
-143.2212320605489
 30
0.0
 10
291.1002332171555
 20
-143.2212320605489
 30
0.0
 10
291.7720268367792
 20
-143.8930256801726
 30
0.0
 10
291.7720268367792
 20
-144.7212266348266
 30
0.0
  0
MTEXT
  5
14E
330
1F
100
AcDbEntity
  8
Layer 1
 62
   178
420
        0
100
AcDbMText
 10
301.559543110374
 20
-163.9117865258623
 30
0.0
 40
2.878666665947001
 41
0.0
 71
     7
 72
     1
  1
\fMyriad Roman|b0|i0|c0|p34;\W1;CR2032 + LED
 73
     1
 44
1.0
  0
ENDSEC
  0
SECTION
  2
OBJECTS
  0
DICTIONARY
  5
C
330
0
100
AcDbDictionary
281
     1
  3
ACAD_GROUP
350
D
  3
ACAD_LAYOUT
350
1A
  3
ACAD_MLINESTYLE
350
17
  3
ACAD_PLOTSETTINGS
350
19
  3
ACAD_PLOTSTYLENAME
350
E
  3
ACAD_TABLESTYLE
350
14F
  3
ACAD_VISUALSTYLE
350
2A
  0
DICTIONARY
  5
D
102
{ACAD_REACTORS
330
C
102
}
330
C
100
AcDbDictionary
281
     1
  0
DICTIONARY
  5
1A
102
{ACAD_REACTORS
330
C
102
}
330
C
100
AcDbDictionary
281
     1
  3
Layout1
350
1E
  3
Layout2
350
26
  3
Model
350
22
  0
DICTIONARY
  5
17
102
{ACAD_REACTORS
330
C
102
}
330
C
100
AcDbDictionary
281
     1
  3
Standard
350
18
  0
DICTIONARY
  5
19
102
{ACAD_REACTORS
330
C
102
}
330
C
100
AcDbDictionary
281
     1
  0
ACDBDICTIONARYWDFLT
  5
E
102
{ACAD_REACTORS
330
C
102
}
330
C
100
AcDbDictionary
281
     1
  3
Normal
350
F
100
AcDbDictionaryWithDefault
340
F
  0
DICTIONARY
  5
14F
102
{ACAD_REACTORS
330
C
102
}
330
C
100
AcDbDictionary
281
     1
  0
DICTIONARY
  5
2A
102
{ACAD_REACTORS
330
C
102
}
330
C
100
AcDbDictionary
281
     1
  3
2dWireframe
350
2F
  3
3D Hidden
350
31
  3
3dWireframe
350
30
  3
Basic
350
32
  3
Brighten
350
36
  3
ColorChange
350
3A
  3
Conceptual
350
34
  3
Dim
350
35
  3
Facepattern
350
39
  3
Flat
350
2B
  3
FlatWithEdges
350
2C
  3
Gouraud
350
2D
  3
GouraudWithEdges
350
2E
  3
Linepattern
350
38
  3
Realistic
350
33
  3
Thicken
350
37
  0
LAYOUT
  5
1E
102
{ACAD_REACTORS
330
1A
102
}
330
1A
100
AcDbPlotSettings
  1

  2
none_device
  4

  6

 40
0.0
 41
0.0
 42
0.0
 43
0.0
 44
0.0
 45
0.0
 46
0.0
 47
0.0
 48
0.0
 49
0.0
140
0.0
141
0.0
142
1.0
143
1.0
 70
   688
 72
     0
 73
     0
 74
     5
  7

 75
    16
 76
     0
 77
     2
 78
   300
147
1.0
148
0.0
149
0.0
100
AcDbLayout
  1
Layout1
 70
     1
 71
     1
 10
0.0
 20
0.0
 11
12.0
 21
9.0
 12
0.0
 22
0.0
 32
0.0
 14
1.000000000000000E+20
 24
1.000000000000000E+20
 34
1.000000000000000E+20
 15
-1.000000000000000E+20
 25
-1.000000000000000E+20
 35
-1.000000000000000E+20
146
0.0
 13
0.0
 23
0.0
 33
0.0
 16
1.0
 26
0.0
 36
0.0
 17
0.0
 27
1.0
 37
0.0
 76
     0
330
1B
  0
LAYOUT
  5
26
102
{ACAD_REACTORS
330
1A
102
}
330
1A
100
AcDbPlotSettings
  1

  2
none_device
  4

  6

 40
0.0
 41
0.0
 42
0.0
 43
0.0
 44
0.0
 45
0.0
 46
0.0
 47
0.0
 48
0.0
 49
0.0
140
0.0
141
0.0
142
1.0
143
1.0
 70
   688
 72
     0
 73
     0
 74
     5
  7

 75
    16
 76
     0
 77
     2
 78
   300
147
1.0
148
0.0
149
0.0
100
AcDbLayout
  1
Layout2
 70
     1
 71
     2
 10
0.0
 20
0.0
 11
0.0
 21
0.0
 12
0.0
 22
0.0
 32
0.0
 14
0.0
 24
0.0
 34
0.0
 15
0.0
 25
0.0
 35
0.0
146
0.0
 13
0.0
 23
0.0
 33
0.0
 16
1.0
 26
0.0
 36
0.0
 17
0.0
 27
1.0
 37
0.0
 76
     0
330
23
  0
LAYOUT
  5
22
102
{ACAD_REACTORS
330
1A
102
}
330
1A
100
AcDbPlotSettings
  1

  2
none_device
  4

  6

 40
0.0
 41
0.0
 42
0.0
 43
0.0
 44
0.0
 45
0.0
 46
0.0
 47
0.0
 48
0.0
 49
0.0
140
0.0
141
0.0
142
1.0
143
1.0
 70
  1712
 72
     0
 73
     0
 74
     0
  7

 75
     0
 76
     0
 77
     2
 78
   300
147
1.0
148
0.0
149
0.0
100
AcDbLayout
  1
Model
 70
     1
 71
     0
 10
0.0
 20
0.0
 11
12.0
 21
9.0
 12
0.0
 22
0.0
 32
0.0
 14
1.000000000000000E+20
 24
1.000000000000000E+20
 34
1.000000000000000E+20
 15
-1.000000000000000E+20
 25
-1.000000000000000E+20
 35
-1.000000000000000E+20
146
0.0
 13
0.0
 23
0.0
 33
0.0
 16
1.0
 26
0.0
 36
0.0
 17
0.0
 27
1.0
 37
0.0
 76
     0
330
1F
331
29
  0
MLINESTYLE
  5
18
102
{ACAD_REACTORS
330
17
102
}
330
17
100
AcDbMlineStyle
  2
Standard
 70
     0
  3

 62
   256
 51
90.0
 52
90.0
 71
     2
 49
0.5
 62
   256
  6
BYLAYER
 49
-0.5
 62
   256
  6
BYLAYER
  0
ACDBPLACEHOLDER
  5
F
102
{ACAD_REACTORS
330
E
102
}
330
E
  0
VISUALSTYLE
  5
2F
102
{ACAD_REACTORS
330
2A
102
}
330
2A
100
AcDbVisualStyle
  2
2dWireframe
 70
     4
 71
     0
 72
     2
 73
     0
 90
        0
 40
-0.6
 41
-30.0
 62
     5
 63
     7
421
 16777215
 74
     1
 91
        4
 64
     7
 65
   257
 75
     1
175
     1
 42
1.0
 92
        0
 66
   257
 43
1.0
 76
     1
 77
     6
 78
     2
 67
     7
 79
     5
170
     0
171
     0
290
     0
174
     0
 93
        1
 44
0.0
173
     0
291
     0
 45
0.0
1001
ACAD
1000
AcDbSavedByObjectVersion
1070
     0
  0
VISUALSTYLE
  5
31
102
{ACAD_REACTORS
330
2A
102
}
330
2A
100
AcDbVisualStyle
  2
3D Hidden
 70
     6
 71
     1
 72
     2
 73
     2
 90
        0
 40
-0.6
 41
-30.0
 62
     5
 63
     7
421
 16777215
 74
     2
 91
        2
 64
     7
 65
   257
 75
     2
175
     1
 42
40.0
 92
        0
 66
   257
 43
1.0
 76
     1
 77
     6
 78
     2
 67
     7
 79
     3
170
     0
171
     0
290
     0
174
     0
 93
        1
 44
0.0
173
     0
291
     0
 45
0.0
1001
ACAD
1000
AcDbSavedByObjectVersion
1070
     0
  0
VISUALSTYLE
  5
30
102
{ACAD_REACTORS
330
2A
102
}
330
2A
100
AcDbVisualStyle
  2
3dWireframe
 70
     5
 71
     0
 72
     2
 73
     0
 90
        0
 40
-0.6
 41
-30.0
 62
     5
 63
     7
421
 16777215
 74
     1
 91
        4
 64
     7
 65
   257
 75
     1
175
     1
 42
1.0
 92
        0
 66
   257
 43
1.0
 76
     1
 77
     6
 78
     2
 67
     7
 79
     5
170
     0
171
     0
290
     0
174
     0
 93
        1
 44
0.0
173
     0
291
     0
 45
0.0
1001
ACAD
1000
AcDbSavedByObjectVersion
1070
     0
  0
VISUALSTYLE
  5
32
102
{ACAD_REACTORS
330
2A
102
}
330
2A
100
AcDbVisualStyle
  2
Basic
 70
     7
 71
     1
 72
     0
 73
     1
 90
        0
 40
-0.6
 41
-30.0
 62
     5
 63
     7
421
 16777215
 74
     0
 91
        4
 64
     7
 65
   257
 75
     1
175
     1
 42
1.0
 92
        8
 66
     7
 43
1.0
 76
     1
 77
     6
 78
     2
 67
     7
 79
     5
170
     0
171
     0
290
     0
174
     0
 93
        1
 44
0.0
173
     0
291
     1
 45
0.0
1001
ACAD
1000
AcDbSavedByObjectVersion
1070
     0
  0
VISUALSTYLE
  5
36
102
{ACAD_REACTORS
330
2A
102
}
330
2A
100
AcDbVisualStyle
  2
Brighten
 70
    12
 71
     2
 72
     2
 73
     0
 90
        0
 40
-0.6
 41
-30.0
 62
     5
 63
     7
421
 16777215
 74
     1
 91
        4
 64
     7
 65
   257
 75
     1
175
     1
 42
1.0
 92
        8
 66
     7
 43
1.0
 76
     1
 77
     6
 78
     2
 67
     7
 79
     5
170
     0
171
     0
290
     0
174
     0
 93
        1
 44
50.0
173
     0
291
     1
 45
0.0
1001
ACAD
1000
AcDbSavedByObjectVersion
1070
     0
  0
VISUALSTYLE
  5
3A
102
{ACAD_REACTORS
330
2A
102
}
330
2A
100
AcDbVisualStyle
  2
ColorChange
 70
    16
 71
     2
 72
     2
 73
     3
 90
        0
 40
-0.6
 41
-30.0
 62
     5
 63
     8
421
  8421504
 74
     1
 91
        4
 64
     7
 65
   257
 75
     1
175
     1
 42
1.0
 92
        8
 66
     8
424
  8421504
 43
1.0
 76
     1
 77
     6
 78
     2
 67
     7
 79
     5
170
     0
171
     0
290
     0
174
     0
 93
        1
 44
0.0
173
     0
291
     1
 45
0.0
1001
ACAD
1000
AcDbSavedByObjectVersion
1070
     0
  0
VISUALSTYLE
  5
34
102
{ACAD_REACTORS
330
2A
102
}
330
2A
100
AcDbVisualStyle
  2
Conceptual
 70
     9
 71
     3
 72
     2
 73
     0
 90
        0
 40
-0.6
 41
-30.0
 62
     5
 63
     7
421
 16777215
 74
     2
 91
        2
 64
     7
 65
   257
 75
     1
175
     1
 42
40.0
 92
        8
 66
     7
 43
1.0
 76
     1
 77
     6
 78
     2
 67
     7
 79
     3
170
     0
171
     0
290
     0
174
     0
 93
        1
 44
0.0
173
     0
291
     0
 45
0.0
1001
ACAD
1000
AcDbSavedByObjectVersion
1070
     0
  0
VISUALSTYLE
  5
35
102
{ACAD_REACTORS
330
2A
102
}
330
2A
100
AcDbVisualStyle
  2
Dim
 70
    11
 71
     2
 72
     2
 73
     0
 90
        0
 40
-0.6
 41
-30.0
 62
     5
 63
     7
421
 16777215
 74
     1
 91
        4
 64
     7
 65
   257
 75
     1
175
     1
 42
1.0
 92
        8
 66
     7
 43
1.0
 76
     1
 77
     6
 78
     2
 67
     7
 79
     5
170
     0
171
     0
290
     0
174
     0
 93
        1
 44
-50.0
173
     0
291
     1
 45
0.0
1001
ACAD
1000
AcDbSavedByObjectVersion
1070
     0
  0
VISUALSTYLE
  5
39
102
{ACAD_REACTORS
330
2A
102
}
330
2A
100
AcDbVisualStyle
  2
Facepattern
 70
    15
 71
     2
 72
     2
 73
     0
 90
        0
 40
-0.6
 41
-30.0
 62
     5
 63
     7
421
 16777215
 74
     1
 91
        4
 64
     7
 65
   257
 75
     1
175
     1
 42
1.0
 92
        8
 66
     7
 43
1.0
 76
     1
 77
     6
 78
     2
 67
     7
 79
     5
170
     0
171
     0
290
     0
174
     0
 93
        1
 44
0.0
173
     0
291
     1
 45
0.0
1001
ACAD
1000
AcDbSavedByObjectVersion
1070
     0
  0
VISUALSTYLE
  5
2B
102
{ACAD_REACTORS
330
2A
102
}
330
2A
100
AcDbVisualStyle
  2
Flat
 70
     0
 71
     2
 72
     1
 73
     1
 90
        2
 40
-0.6
 41
30.0
 62
     5
 63
     7
421
 16777215
 74
     0
 91
        4
 64
     7
 65
   257
 75
     1
175
     1
 42
1.0
 92
        8
 66
     7
 43
1.0
 76
     1
 77
     6
 78
     2
 67
     7
 79
     5
170
     0
171
     0
290
     0
174
     0
 93
       13
 44
0.0
173
     0
291
     1
 45
0.0
1001
ACAD
1000
AcDbSavedByObjectVersion
1070
     0
  0
VISUALSTYLE
  5
2C
102
{ACAD_REACTORS
330
2A
102
}
330
2A
100
AcDbVisualStyle
  2
FlatWithEdges
 70
     1
 71
     2
 72
     1
 73
     1
 90
        2
 40
-0.6
 41
30.0
 62
     5
 63
     7
421
 16777215
 74
     1
 91
        4
 64
     7
 65
   257
 75
     1
175
     1
 42
1.0
 92
        0
 66
   257
 43
1.0
 76
     1
 77
     6
 78
     2
 67
     7
 79
     5
170
     0
171
     0
290
     0
174
     0
 93
       13
 44
0.0
173
     0
291
     1
 45
0.0
1001
ACAD
1000
AcDbSavedByObjectVersion
1070
     0
  0
VISUALSTYLE
  5
2D
102
{ACAD_REACTORS
330
2A
102
}
330
2A
100
AcDbVisualStyle
  2
Gouraud
 70
     2
 71
     2
 72
     2
 73
     1
 90
        2
 40
-0.6
 41
30.0
 62
     5
 63
     7
421
 16777215
 74
     0
 91
        4
 64
     7
 65
   257
 75
     1
175
     1
 42
1.0
 92
        0
 66
     7
 43
1.0
 76
     1
 77
     6
 78
     2
 67
     7
 79
     5
170
     0
171
     0
290
     0
174
     0
 93
       13
 44
0.0
173
     0
291
     1
 45
0.0
1001
ACAD
1000
AcDbSavedByObjectVersion
1070
     0
  0
VISUALSTYLE
  5
2E
102
{ACAD_REACTORS
330
2A
102
}
330
2A
100
AcDbVisualStyle
  2
GouraudWithEdges
 70
     3
 71
     2
 72
     2
 73
     1
 90
        2
 40
-0.6
 41
30.0
 62
     5
 63
     7
421
 16777215
 74
     1
 91
        4
 64
     7
 65
   257
 75
     1
175
     1
 42
1.0
 92
        0
 66
   257
 43
1.0
 76
     1
 77
     6
 78
     2
 67
     7
 79
     5
170
     0
171
     0
290
     0
174
     0
 93
       13
 44
0.0
173
     0
291
     1
 45
0.0
1001
ACAD
1000
AcDbSavedByObjectVersion
1070
     0
  0
VISUALSTYLE
  5
38
102
{ACAD_REACTORS
330
2A
102
}
330
2A
100
AcDbVisualStyle
  2
Linepattern
 70
    14
 71
     2
 72
     2
 73
     0
 90
        0
 40
-0.6
 41
-30.0
 62
     5
 63
     7
421
 16777215
 74
     1
 91
        4
 64
     7
 65
   257
 75
     7
175
     7
 42
1.0
 92
        8
 66
     7
 43
1.0
 76
     1
 77
     6
 78
     2
 67
     7
 79
     5
170
     0
171
     0
290
     0
174
     0
 93
        1
 44
0.0
173
     0
291
     1
 45
0.0
1001
ACAD
1000
AcDbSavedByObjectVersion
1070
     0
  0
VISUALSTYLE
  5
33
102
{ACAD_REACTORS
330
2A
102
}
330
2A
100
AcDbVisualStyle
  2
Realistic
 70
     8
 71
     2
 72
     2
 73
     0
 90
        0
 40
-0.6
 41
-30.0
 62
     5
 63
     7
421
 16777215
 74
     1
 91
        0
 64
     7
 65
   257
 75
     1
175
     1
 42
1.0
 92
        8
 66
     8
424
  7895160
 43
1.0
 76
     1
 77
     6
 78
     2
 67
     7
 79
     5
170
     0
171
     0
290
     0
174
     0
 93
       13
 44
0.0
173
     0
291
     0
 45
0.0
1001
ACAD
1000
AcDbSavedByObjectVersion
1070
     0
  0
VISUALSTYLE
  5
37
102
{ACAD_REACTORS
330
2A
102
}
330
2A
100
AcDbVisualStyle
  2
Thicken
 70
    13
 71
     2
 72
     2
 73
     0
 90
        0
 40
-0.6
 41
-30.0
 62
     5
 63
     7
421
 16777215
 74
     1
 91
        4
 64
     7
 65
   257
 75
     1
175
     1
 42
1.0
 92
       12
 66
     7
 43
1.0
 76
     1
 77
     6
 78
     2
 67
     7
 79
     5
170
     0
171
     0
290
     0
174
     0
 93
        1
 44
0.0
173
     0
291
     1
 45
0.0
1001
ACAD
1000
AcDbSavedByObjectVersion
1070
     0
  0
ENDSEC
  0
EOF
