<?xml version="1.0" encoding="utf-8"?>
<!-- Generator: Adobe Illustrator 15.1.0, SVG Export Plug-In . SVG Version: 6.00 Build 0)  -->
<!DOCTYPE svg PUBLIC "-//W3C//DTD SVG 1.1//EN" "http://www.w3.org/Graphics/SVG/1.1/DTD/svg11.dtd">
<svg version="1.1" id="Layer_1" xmlns="http://www.w3.org/2000/svg" xmlns:xlink="http://www.w3.org/1999/xlink" x="0px" y="0px"
	 width="2267.72px" height="1700.79px" viewBox="0 0 2267.72 1700.79" enable-background="new 0 0 2267.72 1700.79"
	 xml:space="preserve">
<g>
	<path fill="none" stroke="#000000" stroke-miterlimit="10" d="M2225.198,1615.748c0,23.482-19.036,42.52-42.52,42.52H85.041
		c-23.483,0-42.52-19.037-42.52-42.52V85.039c0-23.483,19.037-42.52,42.52-42.52h2097.638c23.483,0,42.52,19.037,42.52,42.52
		V1615.748z"/>
	<rect x="42.521" y="1488.188" fill="none" stroke="#000000" stroke-miterlimit="10" width="2182.677" height="85.039"/>
</g>
<text transform="matrix(1 0 0 1 68.3682 1798.4648)"><tspan x="0" y="0" fill="none" stroke="#F68827" stroke-miterlimit="10" font-family="'Eng_HelvLine'" font-size="36">Date: 13-06-12</tspan><tspan x="302.469" y="0" fill="none" stroke="#F68827" stroke-miterlimit="10" font-family="'Eng_HelvLine'" font-size="36" letter-spacing="3">	</tspan><tspan x="324" y="0" fill="none" stroke="#F68827" stroke-miterlimit="10" font-family="'Eng_HelvLine'" font-size="36" letter-spacing="18">	</tspan><tspan x="360" y="0" fill="none" stroke="#F68827" stroke-miterlimit="10" font-family="'Eng_HelvLine'" font-size="36">File Name: DRBO-03</tspan><tspan x="814.423" y="0" fill="none" stroke="#F68827" stroke-miterlimit="10" font-family="'Eng_HelvLine'" font-size="36" letter-spacing="-4">	</tspan><tspan x="828" y="0" fill="none" stroke="#F68827" stroke-miterlimit="10" font-family="'Eng_HelvLine'" font-size="36" letter-spacing="18">	</tspan><tspan x="864" y="0" fill="none" stroke="#F68827" stroke-miterlimit="10" font-family="'Eng_HelvLine'" font-size="36">Version:</tspan><tspan x="1041.838" y="0" fill="none" stroke="#F68827" stroke-miterlimit="10" font-family="'Eng_HelvLine'" font-size="36" letter-spacing="-15">	</tspan><tspan x="1044" y="0" fill="none" stroke="#F68827" stroke-miterlimit="10" font-family="'Eng_HelvLine'" font-size="36" letter-spacing="18">	</tspan><tspan x="1080" y="0" fill="none" stroke="#F68827" stroke-miterlimit="10" font-family="'Eng_HelvLine'" font-size="36">Contributor: Stuart Childs stuchilds</tspan><tspan x="1866.016" y="0" fill="none" stroke="#F68827" stroke-miterlimit="10" font-family="'MyriadPro-Regular'" font-size="36">@</tspan><tspan x="1892.548" y="0" fill="none" stroke="#F68827" stroke-miterlimit="10" font-family="'Eng_HelvLine'" font-size="36">gmail.com</tspan><tspan x="2115.204" y="0" fill="none" stroke="#F68827" stroke-miterlimit="10" font-family="'Eng_HelvLine'" font-size="36" letter-spacing="-9">	</tspan><tspan x="2124" y="0" fill="none" stroke="#F68827" stroke-miterlimit="10" font-family="'Eng_HelvLine'" font-size="36" letter-spacing="18">	</tspan><tspan x="0" y="86.4" fill="none" stroke="#F68827" stroke-miterlimit="10" font-family="'Eng_HelvLine'" font-size="36">License: Creative Commons Attribution Sharealike 3.0 Unported</tspan><tspan x="1401.751" y="86.4" fill="none" stroke="#F68827" stroke-miterlimit="10" font-family="'Eng_HelvLine'" font-size="36" letter-spacing="-15">	</tspan><tspan x="1404" y="86.4" fill="none" stroke="#F68827" stroke-miterlimit="10" font-family="'Eng_HelvLine'" font-size="36" letter-spacing="18">	</tspan></text>
<text transform="matrix(1 0 0 1 68.3682 1538.377)"><tspan x="0" y="0" fill="none" stroke="#F68827" stroke-miterlimit="10" font-family="'Eng_HelvLine'" font-size="36">Date: 12-09-12</tspan><tspan x="302.757" y="0" fill="none" stroke="#F68827" stroke-miterlimit="10" font-family="'Eng_HelvLine'" font-size="36" letter-spacing="3">	</tspan><tspan x="324" y="0" fill="none" stroke="#F68827" stroke-miterlimit="10" font-family="'Eng_HelvLine'" font-size="36" letter-spacing="18">	</tspan><tspan x="360" y="0" fill="none" stroke="#F68827" stroke-miterlimit="10" font-family="'Eng_HelvLine'" font-size="36">File Name: USEF</tspan><tspan x="733.424" y="0" fill="none" stroke="#F68827" stroke-miterlimit="10" font-family="'Eng_HelvLine'" font-size="36" letter-spacing="4">	</tspan><tspan x="756" y="0" fill="none" stroke="#F68827" stroke-miterlimit="10" font-family="'Eng_HelvLine'" font-size="36" letter-spacing="18">	</tspan><tspan x="792" y="0" fill="none" stroke="#F68827" stroke-miterlimit="10" font-family="'Eng_HelvLine'" font-size="36">Version: 01</tspan><tspan x="1030.282" y="0" fill="none" stroke="#F68827" stroke-miterlimit="10" font-family="'Eng_HelvLine'" font-size="36" letter-spacing="-4">	</tspan><tspan x="1044" y="0" fill="none" stroke="#F68827" stroke-miterlimit="10" font-family="'Eng_HelvLine'" font-size="36" letter-spacing="18">	</tspan><tspan x="1080" y="0" fill="none" stroke="#F68827" stroke-miterlimit="10" font-family="'Eng_HelvLine'" font-size="36">Contributor: Stuart Childs stuchilds</tspan><tspan x="1866.018" y="0" fill="none" stroke="#F68827" stroke-miterlimit="10" font-family="'MyriadPro-Regular'" font-size="36">@</tspan><tspan x="1892.55" y="0" fill="none" stroke="#F68827" stroke-miterlimit="10" font-family="'Eng_HelvLine'" font-size="36">gmail.com</tspan><tspan x="2115.206" y="0" fill="none" stroke="#F68827" stroke-miterlimit="10" font-family="'Eng_HelvLine'" font-size="36" letter-spacing="-9">	</tspan><tspan x="2124.002" y="0" fill="none" stroke="#F68827" stroke-miterlimit="10" font-family="'Eng_HelvLine'" font-size="36" letter-spacing="18">	</tspan><tspan x="0" y="86.4" fill="none" stroke="#F68827" stroke-miterlimit="10" font-family="'Eng_HelvLine'" font-size="36">License: Creative Commons Attribution Sharealike 3.0 Unported</tspan><tspan x="1401.751" y="86.4" fill="none" stroke="#F68827" stroke-miterlimit="10" font-family="'Eng_HelvLine'" font-size="36" letter-spacing="-15">	</tspan><tspan x="1404" y="86.4" fill="none" stroke="#F68827" stroke-miterlimit="10" font-family="'Eng_HelvLine'" font-size="36" letter-spacing="18">	</tspan></text>
<line fill="none" stroke="#F68827" stroke-miterlimit="10" x1="1926.348" y1="1476.11" x2="2209.812" y2="1476.11"/>
<g>
	<path fill="none" stroke="#F68827" stroke-miterlimit="10" d="M1927.86,1463.057c0,2.241,1.709,3.138,3.712,3.138
		c2.031,0,3.306-1.274,3.348-2.521c0.042-1.232-0.588-2.213-1.835-2.479l-3.432-0.742c-0.967-0.21-1.541-0.771-1.541-2.087
		s1.106-2.451,3.124-2.451c2.017,0,3.488,0.952,3.432,2.619c0.057-1.667-1.415-2.619-3.432-2.619c-2.018,0-3.124,1.135-3.124,2.451
		s0.547,1.863,1.541,2.087l3.432,0.742c1.275,0.267,1.877,1.247,1.835,2.479c-0.042,1.247-1.316,2.521-3.348,2.521
		C1929.569,1466.194,1927.86,1465.298,1927.86,1463.057z"/>
	<path fill="none" stroke="#F68827" stroke-miterlimit="10" d="M1941.526,1466.11c-1.177,0-3.208-0.196-3.208-3.712
		c0-3.502,2.27-3.544,3.264-3.544c0.995,0,2.312,0.771,2.396,1.751c-0.084-0.98-1.4-1.751-2.396-1.751
		c-0.994,0-3.264,0.042-3.264,3.544C1938.318,1465.914,1940.35,1466.11,1941.526,1466.11c1.19,0,2.451-1.106,2.493-2.283
		C1943.978,1465.004,1942.717,1466.11,1941.526,1466.11z"/>
	<path fill="none" stroke="#F68827" stroke-miterlimit="10" d="M1952.405,1464.275c-0.42,0.603-1.862,1.961-3.012,1.919
		c-1.162-0.042-2.087-0.406-2.087-1.695c0-1.303,0.784-1.849,2.27-1.988c1.471-0.141,2.129-0.364,2.829-0.561
		c-0.7,0.196-1.358,0.42-2.829,0.561c-1.485,0.14-2.27,0.686-2.27,1.988c0,1.289,0.925,1.653,2.087,1.695
		C1950.543,1466.236,1951.985,1464.878,1952.405,1464.275z M1953.4,1466.11c0,0-0.995-0.07-0.995-0.91v-4.608
		c0-0.589-0.294-1.709-2.185-1.709c-1.892,0-2.592,0.854-2.592,1.736c0-0.882,0.7-1.736,2.592-1.736c1.891,0,2.185,1.12,2.185,1.709
		v4.608C1952.405,1466.04,1953.4,1466.11,1953.4,1466.11z"/>
	<path fill="none" stroke="#F68827" stroke-miterlimit="10" d="M1958.227,1466.11v-10.1V1466.11z"/>
	<path fill="none" stroke="#F68827" stroke-miterlimit="10" d="M1962.901,1462.272h6.262c0-1.555-0.616-3.544-2.844-3.544
		c-2.213,0-3.432,1.513-3.432,3.824c0,2.325,1.569,3.558,3.432,3.502c1.877-0.057,2.689-1.513,2.788-2.031
		c-0.099,0.519-0.911,1.975-2.788,2.031c-1.862,0.056-3.432-1.177-3.432-3.502c0-2.312,1.219-3.824,3.432-3.824
		c2.228,0,2.844,1.989,2.844,3.544H1962.901z"/>
	<path fill="none" stroke="#F68827" stroke-miterlimit="10" d="M1974.131,1461.684v-0.771V1461.684z M1974.131,1466.11v-0.771
		V1466.11z"/>
	<path fill="none" stroke="#F68827" stroke-miterlimit="10" d="M1987.305,1466.11v-10.1V1466.11z"/>
	<path fill="none" stroke="#F68827" stroke-miterlimit="10" d="M1993.493,1456.249v-0.252V1456.249z M1993.493,1466.097v-7.187
		C1993.493,1458.91,1993.493,1466.124,1993.493,1466.097z"/>
	<path fill="none" stroke="#F68827" stroke-miterlimit="10" d="M2004.821,1466.11c0,0,0-4.679,0-5.323
		c0-0.644-0.645-1.849-2.424-1.862c-1.793-0.015-2.731,1.372-2.731,2.661c0-1.289,0.938-2.676,2.731-2.661
		c1.779,0.014,2.424,1.219,2.424,1.862C2004.821,1461.432,2004.821,1466.11,2004.821,1466.11z M1999.666,1466.11v-7.186V1466.11z"/>
	<path fill="none" stroke="#F68827" stroke-miterlimit="10" d="M2008.877,1462.272h6.262c0-1.555-0.616-3.544-2.844-3.544
		c-2.213,0-3.432,1.513-3.432,3.824c0,2.325,1.569,3.558,3.432,3.502c1.877-0.057,2.689-1.513,2.788-2.031
		c-0.099,0.519-0.911,1.975-2.788,2.031c-1.862,0.056-3.432-1.177-3.432-3.502c0-2.312,1.219-3.824,3.432-3.824
		c2.228,0,2.844,1.989,2.844,3.544H2008.877z"/>
	<path fill="none" stroke="#F68827" stroke-miterlimit="10" d="M2027.106,1455.969v10.142V1455.969z M2030.076,1458.883
		c1.639,0,2.97,0.798,2.97,3.613c0,2.802-1.331,3.614-2.97,3.614s-2.97-0.812-2.97-3.614
		C2027.106,1459.681,2028.438,1458.883,2030.076,1458.883z M2030.076,1458.883c1.639,0,2.97,0.798,2.97,3.613
		c0,2.802-1.331,3.614-2.97,3.614s-2.97-0.812-2.97-3.614C2027.106,1459.681,2028.438,1458.883,2030.076,1458.883z"/>
	<path fill="none" stroke="#F68827" stroke-miterlimit="10" d="M2042.705,1462.272c0-1.555-0.616-3.544-2.844-3.544
		c-2.213,0-3.432,1.513-3.432,3.824c0,2.325,1.569,3.558,3.432,3.502c1.877-0.057,2.689-1.513,2.788-2.031
		c-0.099,0.519-0.911,1.975-2.788,2.031c-1.862,0.056-3.432-1.177-3.432-3.502c0-2.312,1.219-3.824,3.432-3.824
		C2042.089,1458.729,2042.705,1460.718,2042.705,1462.272h-6.262H2042.705z"/>
	<path fill="none" stroke="#F68827" stroke-miterlimit="10" d="M2047.672,1466.11v-10.1V1466.11z"/>
	<path fill="none" stroke="#F68827" stroke-miterlimit="10" d="M2052.333,1462.44c0-2.83,1.443-3.656,3.18-3.656
		c1.751,0,3.18,0.826,3.18,3.656c0,2.844-1.429,3.67-3.18,3.67C2053.776,1466.11,2052.333,1465.284,2052.333,1462.44z
		 M2052.333,1462.44c0-2.83,1.443-3.656,3.18-3.656c1.751,0,3.18,0.826,3.18,3.656c0,2.844-1.429,3.67-3.18,3.67
		C2053.776,1466.11,2052.333,1465.284,2052.333,1462.44z"/>
	<path fill="none" stroke="#F68827" stroke-miterlimit="10" d="M2064.094,1466.11l2.479-7.186l2.493,7.186l2.073-7.186l-2.073,7.186
		l-2.493-7.186L2064.094,1466.11l-2.073-7.186L2064.094,1466.11z"/>
	<path fill="none" stroke="#F68827" stroke-miterlimit="10" d="M2083.12,1456.249v-0.252V1456.249z M2083.12,1466.097v-7.187
		C2083.12,1458.91,2083.12,1466.124,2083.12,1466.097z"/>
	<path fill="none" stroke="#F68827" stroke-miterlimit="10" d="M2090.456,1458.812c-1.766-0.042-2.577,0.519-2.577,1.597
		c0,1.093,0.91,1.429,1.246,1.527l2.647,0.784c0.351,0.084,1.19,0.462,1.19,1.499c0,1.036-1.106,1.891-2.507,1.891
		c-1.401,0-2.676-0.742-2.676-1.835c0,1.093,1.274,1.835,2.676,1.835c1.4,0,2.507-0.854,2.507-1.891c0-1.037-0.84-1.415-1.19-1.499
		l-2.647-0.784c-0.336-0.099-1.246-0.435-1.246-1.527C2087.879,1459.331,2088.69,1458.771,2090.456,1458.812
		c1.765,0.07,2.227,1.051,2.199,1.4C2092.683,1459.863,2092.221,1458.883,2090.456,1458.812z"/>
	<path fill="none" stroke="#F68827" stroke-miterlimit="10" d="M2105.604,1466.11v-10.1c0,1.723-1.667,2.129-2.382,2.186
		c0.715-0.057,2.382-0.463,2.382-2.186V1466.11z"/>
	<path fill="none" stroke="#F68827" stroke-miterlimit="10" d="M2110.307,1461.067c0-2.773,0.589-5.043,3.054-5.043
		c2.466,0,3.054,2.27,3.054,5.043c0,2.788-0.588,5.043-3.054,5.043C2110.896,1466.11,2110.307,1463.855,2110.307,1461.067z
		 M2110.307,1461.067c0-2.773,0.589-5.043,3.054-5.043c2.466,0,3.054,2.27,3.054,5.043c0,2.788-0.588,5.043-3.054,5.043
		C2110.896,1466.11,2110.307,1463.855,2110.307,1461.067z"/>
	<path fill="none" stroke="#F68827" stroke-miterlimit="10" d="M2119.729,1461.067c0-2.773,0.589-5.043,3.054-5.043
		c2.466,0,3.054,2.27,3.054,5.043c0,2.788-0.588,5.043-3.054,5.043C2120.317,1466.11,2119.729,1463.855,2119.729,1461.067z
		 M2119.729,1461.067c0-2.773,0.589-5.043,3.054-5.043c2.466,0,3.054,2.27,3.054,5.043c0,2.788-0.588,5.043-3.054,5.043
		C2120.317,1466.11,2119.729,1463.855,2119.729,1461.067z"/>
	<path fill="none" stroke="#F68827" stroke-miterlimit="10" d="M2135.439,1466.11c0,0,0-4.679,0-5.323
		c0-0.644-0.42-1.849-2.199-1.862c-1.778-0.015-2.577,1.372-2.577,2.661c0-1.289,0.799-2.676,2.577-2.661
		c1.779,0.014,2.199,1.219,2.199,1.862C2135.439,1461.432,2135.439,1466.11,2135.439,1466.11z M2130.663,1466.11v-7.186V1466.11z
		 M2140.259,1466.11c0,0,0-4.679,0-5.323c0-0.644-0.616-1.849-2.396-1.862c-1.779-0.015-2.424,1.372-2.424,2.661
		c0-1.289,0.645-2.676,2.424-2.661c1.779,0.014,2.396,1.219,2.396,1.862C2140.259,1461.432,2140.259,1466.11,2140.259,1466.11z"/>
	<path fill="none" stroke="#F68827" stroke-miterlimit="10" d="M2150.812,1466.11c0,0,0-4.679,0-5.323
		c0-0.644-0.42-1.849-2.198-1.862c-1.779-0.015-2.578,1.372-2.578,2.661c0-1.289,0.799-2.676,2.578-2.661
		c1.778,0.014,2.198,1.219,2.198,1.862C2150.812,1461.432,2150.812,1466.11,2150.812,1466.11z M2146.035,1466.11v-7.186V1466.11z
		 M2155.631,1466.11c0,0,0-4.679,0-5.323c0-0.644-0.616-1.849-2.396-1.862c-1.779-0.015-2.424,1.372-2.424,2.661
		c0-1.289,0.645-2.676,2.424-2.661c1.779,0.014,2.396,1.219,2.396,1.862C2155.631,1461.432,2155.631,1466.11,2155.631,1466.11z"/>
	<path fill="none" stroke="#F68827" stroke-miterlimit="10" d="M2168.407,1466.11v-10.1V1466.11z"/>
	<path fill="none" stroke="#F68827" stroke-miterlimit="10" d="M2173.068,1462.44c0-2.83,1.443-3.656,3.18-3.656
		c1.751,0,3.18,0.826,3.18,3.656c0,2.844-1.429,3.67-3.18,3.67C2174.512,1466.11,2173.068,1465.284,2173.068,1462.44z
		 M2173.068,1462.44c0-2.83,1.443-3.656,3.18-3.656c1.751,0,3.18,0.826,3.18,3.656c0,2.844-1.429,3.67-3.18,3.67
		C2174.512,1466.11,2173.068,1465.284,2173.068,1462.44z"/>
	<path fill="none" stroke="#F68827" stroke-miterlimit="10" d="M2189.424,1466.11c0,0,0-4.679,0-5.323
		c0-0.644-0.645-1.849-2.424-1.862c-1.793-0.015-2.731,1.372-2.731,2.661c0-1.289,0.938-2.676,2.731-2.661
		c1.779,0.014,2.424,1.219,2.424,1.862C2189.424,1461.432,2189.424,1466.11,2189.424,1466.11z M2184.269,1466.11v-7.186V1466.11z"/>
	<path fill="none" stroke="#F68827" stroke-miterlimit="10" d="M2196.422,1458.854c1.625,0,2.97,0.812,2.97,3.614
		c0,2.801-1.345,3.613-2.97,3.613s-2.956-0.812-2.956-3.613C2193.466,1459.667,2194.797,1458.854,2196.422,1458.854z
		 M2196.422,1458.854c1.625,0,2.97,0.812,2.97,3.614c0,2.801-1.345,3.613-2.97,3.613s-2.956-0.812-2.956-3.613
		C2193.466,1459.667,2194.797,1458.854,2196.422,1458.854z M2193.886,1467.567c0.154,0.84,1.177,1.316,2.578,1.372
		c1.429,0.042,2.928-1.008,2.928-2.311c0-1.317,0-7.662,0-7.662s0,6.345,0,7.662c0,1.303-1.499,2.353-2.928,2.311
		C2195.062,1468.884,2194.04,1468.407,2193.886,1467.567z"/>
</g>
<path fill="none" stroke="#000000" stroke-width="0.25" d="M510.273,215.945L510.273,215.945c-15.655,0-28.347,12.691-28.347,28.347
	"/>
<path fill="none" stroke="#000000" stroke-width="0.25" d="M481.926,279.724c0,15.656,12.691,28.347,28.346,28.347h0"/>
<path fill="none" stroke="#000000" stroke-width="0.25" d="M574.051,244.292c0-15.655-12.691-28.346-28.346-28.347"/>
<path fill="none" stroke="#000000" stroke-width="0.25" d="M545.706,308.071c15.655-0.001,28.346-12.691,28.346-28.347"/>
<g>
	<polyline fill="none" stroke="#000000" stroke-width="0.25" points="675.416,223.032 675.416,208.858 689.589,208.858 	"/>
</g>
<g>
	<polyline fill="none" stroke="#000000" stroke-width="0.25" points="717.936,237.205 717.936,251.378 703.763,251.378 	"/>
</g>
<g>
	<rect x="139.778" y="357.431" fill="none" stroke="#000000" stroke-width="0.25" width="25.513" height="9.07"/>
	<rect x="193.639" y="357.431" fill="none" stroke="#000000" stroke-width="0.25" width="25.51" height="9.07"/>
	<path fill="none" stroke="#000000" stroke-width="0.25" d="M175.213,361.966c0,2.352,1.902,4.252,4.252,4.252
		c2.348,0,4.252-1.9,4.252-4.252c0-2.35-1.904-4.252-4.252-4.252C177.115,357.714,175.213,359.616,175.213,361.966z"/>
</g>
<text transform="matrix(1 0 0 1 864.4058 245.5869)"><tspan x="0" y="0" fill="none" stroke="#000000" stroke-width="0.25" font-family="'Myriad-Roman'" font-size="12">5mm LED</tspan><tspan x="0" y="14.4" fill="none" stroke="#000000" stroke-width="0.25" font-family="'Myriad-Roman'" font-size="12">holder</tspan></text>
<polyline fill="none" stroke="#000000" stroke-width="0.25" points="871.871,197.169 871.871,211.342 871.816,211.342 
	880.375,211.342 880.375,203.688 883.209,203.688 883.209,205.489 905.887,205.489 905.887,218.614 883.209,218.614 
	883.209,220.413 880.375,220.413 880.375,212.76 871.852,212.76 871.871,212.76 871.871,226.933 "/>
<g>
	<g>
		<polygon fill="none" stroke="#000000" stroke-width="0.25" points="1422.219,391.811 1422.219,397.03 1396.707,397.03 
			1396.707,391.811 1340.016,391.811 1340.016,410.235 1305.999,410.235 1305.999,391.811 1280.486,391.811 1280.486,207.559 
			1284.738,203.307 1317.135,203.307 1324.202,196.22 1421.287,196.22 1426.75,201.889 1433.559,201.889 1433.559,391.811 		"/>
		<circle fill="none" stroke="#000000" stroke-width="0.25" cx="1287.574" cy="349.291" r="4.252"/>
		<circle fill="none" stroke="#000000" stroke-width="0.25" cx="1412.299" cy="203.307" r="4.252"/>
		<circle fill="none" stroke="#000000" stroke-width="0.25" cx="1331.511" cy="203.307" r="4.252"/>
	</g>
	<g>
		<path fill="none" stroke="#000000" stroke-width="0.25" d="M1332.338,307.601c-0.996-0.035-1.787-0.348-1.787-1.451
			c0-1.116,0.672-1.584,1.943-1.704c1.26-0.12,1.824-0.312,2.424-0.479c-0.6,0.168-1.164,0.359-2.424,0.479
			c-1.271,0.12-1.943,0.588-1.943,1.704C1330.551,307.253,1331.342,307.565,1332.338,307.601c0.984,0.037,2.221-1.127,2.58-1.644
			C1334.559,306.474,1333.322,307.638,1332.338,307.601z M1334.918,306.749v-3.947c0-0.504-0.252-1.465-1.871-1.465
			c-1.621,0-2.221,0.732-2.221,1.488c0-0.756,0.6-1.488,2.221-1.488c1.619,0,1.871,0.961,1.871,1.465V306.749
			c0,0.721,0.854,0.78,0.854,0.78S1334.918,307.47,1334.918,306.749z"/>
		<path fill="none" stroke="#000000" stroke-width="0.25" d="M1342.299,301.373c-1.115-0.012-2.389,1.632-2.352,3.013
			C1339.91,303.005,1341.184,301.361,1342.299,301.373z M1339.947,301.373v6.156V301.373z"/>
		<path fill="none" stroke="#000000" stroke-width="0.25" d="M1347.59,301.337c1.393,0,2.545,0.696,2.545,3.096
			c0,2.4-1.152,3.097-2.545,3.097c-1.391,0-2.531-0.696-2.531-3.097C1345.059,302.033,1346.199,301.337,1347.59,301.337z
			 M1347.59,301.337c1.393,0,2.545,0.696,2.545,3.096c0,2.4-1.152,3.097-2.545,3.097c-1.391,0-2.531-0.696-2.531-3.097
			C1345.059,302.033,1346.199,301.337,1347.59,301.337z M1350.146,298.853v8.677V298.853z"/>
		<path fill="none" stroke="#000000" stroke-width="0.25" d="M1354.947,301.349c0,0,0,4.021,0,4.572
			c0,0.553,0.551,1.584,2.074,1.596c1.537,0.013,2.354-1.176,2.354-2.279c0,1.104-0.816,2.292-2.354,2.279
			c-1.523-0.012-2.074-1.043-2.074-1.596C1354.947,305.369,1354.947,301.349,1354.947,301.349z M1359.375,301.349v6.168V301.349z"/>
		<path fill="none" stroke="#000000" stroke-width="0.25" d="M1364.871,299.081v-0.216V299.081z M1364.871,307.517v-6.155
			C1364.871,301.361,1364.871,307.542,1364.871,307.517z"/>
		<path fill="none" stroke="#000000" stroke-width="0.25" d="M1374.578,307.529c0,0,0-4.008,0-4.56c0-0.553-0.553-1.584-2.076-1.597
			c-1.535-0.012-2.34,1.177-2.34,2.28c0-1.104,0.805-2.292,2.34-2.28c1.523,0.013,2.076,1.044,2.076,1.597
			C1374.578,303.521,1374.578,307.529,1374.578,307.529z M1370.162,307.529v-6.156V307.529z"/>
		<path fill="none" stroke="#000000" stroke-width="0.25" d="M1378.047,304.386c0-2.424,1.236-3.133,2.723-3.133
			c1.5,0,2.725,0.709,2.725,3.133c0,2.436-1.225,3.144-2.725,3.144C1379.283,307.529,1378.047,306.821,1378.047,304.386z
			 M1378.047,304.386c0-2.424,1.236-3.133,2.723-3.133c1.5,0,2.725,0.709,2.725,3.133c0,2.436-1.225,3.144-2.725,3.144
			C1379.283,307.529,1378.047,306.821,1378.047,304.386z"/>
	</g>
</g>
<g>
	<circle fill="none" stroke="#000000" stroke-width="0.25" cx="880.935" cy="308.896" r="1.417"/>
	<circle fill="none" stroke="#000000" stroke-width="0.25" cx="880.935" cy="301.81" r="1.417"/>
</g>
<text transform="matrix(1 0 0 1 869.2393 328.4204)"><tspan x="0" y="0" fill="none" stroke="#000000" stroke-width="0.25" font-family="'Myriad-Roman'" font-size="12">LED leg</tspan><tspan x="0" y="14.4" fill="none" stroke="#000000" stroke-width="0.25" font-family="'Myriad-Roman'" font-size="12">holes</tspan></text>
<polyline fill="none" stroke="#000000" stroke-width="0.25" points="139.778,276.968 139.778,285.472 165.29,285.472 
	165.29,276.968 174.928,276.968 174.928,254.291 170.393,254.291 170.393,245.787 174.928,245.787 174.928,240.118 183.999,240.118 
	183.999,245.787 188.534,245.787 188.534,254.291 183.999,254.291 183.999,276.968 193.637,276.968 193.637,285.472 
	219.148,285.472 219.148,276.968 "/>
<text transform="matrix(1 0 0 1 136.9438 167.7388)" fill="none" stroke="#000000" stroke-width="0.25" font-family="'Myriad-Roman'" font-size="12">3mm stock</text>
<text transform="matrix(1 0 0 1 145.9434 329.731)" fill="none" stroke="#000000" stroke-width="0.25" font-family="'Myriad-Roman'" font-size="12">M3 16mm</text>
<polyline fill="none" stroke="#000000" stroke-width="0.25" points="248.704,277.677 248.704,286.181 271.381,286.181 
	271.381,277.677 282.011,277.677 282.011,255 274.924,254.999 274.924,239.409 282.011,239.409 300.436,239.409 307.522,239.409 
	307.522,254.999 300.436,255 300.436,277.677 311.065,277.677 311.065,286.181 333.743,286.181 333.743,277.677 "/>
<text transform="matrix(1 0 0 1 253.938 331.2305)" fill="none" stroke="#000000" stroke-width="0.25" font-family="'Myriad-Roman'" font-size="12">M6 16mm</text>
<rect x="248.704" y="357.466" fill="none" stroke="#000000" stroke-width="0.25" width="22.677" height="9"/>
<rect x="311.065" y="357.466" fill="none" stroke="#000000" stroke-width="0.25" width="22.677" height="9"/>
<circle fill="none" stroke="#000000" stroke-width="0.25" cx="291.223" cy="361.966" r="8.504"/>
<text transform="matrix(1 0 0 1 481.9263 163.2397)" fill="none" stroke="#000000" stroke-width="0.25" font-family="'Myriad-Roman'" font-size="12">Rounded corners</text>
<text transform="matrix(1 0 0 1 675.416 167.7393)" fill="none" stroke="#000000" stroke-width="0.25" font-family="'Myriad-Roman'" font-size="12">Bounding corners</text>
<text transform="matrix(1 0 0 1 864.4062 163.2397)" fill="none" stroke="#000000" stroke-width="0.25" font-family="'Myriad-Roman'" font-size="12">LED stuff</text>
<text transform="matrix(1 0 0 1 1296.3857 164.7397)" fill="none" stroke="#000000" stroke-width="0.25" font-family="'Myriad-Roman'" font-size="12">MISC parts</text>
<polygon fill="none" stroke="#000000" stroke-width="0.25" points="912.123,409.524 912.068,409.524 920.627,409.524 
	920.627,401.872 923.461,401.872 923.461,403.673 946.139,403.673 946.139,416.796 923.461,416.796 923.461,418.597 
	920.627,418.597 920.627,410.942 912.104,410.942 912.123,410.942 "/>
<circle fill="none" stroke="#000000" stroke-width="0.25" cx="878.803" cy="410.233" r="28.346"/>
<circle fill="none" stroke="#000000" stroke-width="0.25" cx="907.857" cy="381.888" r="4.252"/>
<circle fill="none" stroke="#000000" stroke-width="0.25" cx="907.857" cy="438.581" r="4.252"/>
<circle fill="none" stroke="#000000" stroke-width="0.25" cx="822.818" cy="410.233" r="4.252"/>
<text transform="matrix(1 0 0 1 854.8145 464.6318)" fill="#FFFFFF" stroke="#000000" stroke-width="0.25" font-family="'Myriad-Roman'" font-size="12">CR2032 + LED</text>
</svg>
