<?xml version="1.0" encoding="utf-8"?>
<!-- Generator: Adobe Illustrator 15.1.0, SVG Export Plug-In . SVG Version: 6.00 Build 0)  -->
<!DOCTYPE svg PUBLIC "-//W3C//DTD SVG 1.1//EN" "http://www.w3.org/Graphics/SVG/1.1/DTD/svg11.dtd">
<svg version="1.1" id="Layer_1" xmlns="http://www.w3.org/2000/svg" xmlns:xlink="http://www.w3.org/1999/xlink" x="0px" y="0px"
	 width="2267.72px" height="1700.79px" viewBox="0 0 2267.72 1700.79" enable-background="new 0 0 2267.72 1700.79"
	 xml:space="preserve">
<g>
	<path fill="none" stroke="#000000" stroke-miterlimit="10" d="M2225.198,1615.748c0,23.482-19.036,42.52-42.52,42.52H85.041
		c-23.483,0-42.52-19.037-42.52-42.52V85.039c0-23.483,19.037-42.52,42.52-42.52h2097.638c23.483,0,42.52,19.037,42.52,42.52
		V1615.748z"/>
	<rect x="42.521" y="1488.188" fill="none" stroke="#000000" stroke-miterlimit="10" width="2182.677" height="85.039"/>
</g>
<text transform="matrix(1 0 0 1 68.3682 1798.4648)"><tspan x="0" y="0" fill="none" stroke="#F68827" stroke-miterlimit="10" font-family="'Eng_HelvLine'" font-size="36">Date: 13-06-12</tspan><tspan x="302.469" y="0" fill="none" stroke="#F68827" stroke-miterlimit="10" font-family="'Eng_HelvLine'" font-size="36" letter-spacing="3">	</tspan><tspan x="324" y="0" fill="none" stroke="#F68827" stroke-miterlimit="10" font-family="'Eng_HelvLine'" font-size="36" letter-spacing="18">	</tspan><tspan x="360" y="0" fill="none" stroke="#F68827" stroke-miterlimit="10" font-family="'Eng_HelvLine'" font-size="36">File Name: DRBO-03</tspan><tspan x="814.423" y="0" fill="none" stroke="#F68827" stroke-miterlimit="10" font-family="'Eng_HelvLine'" font-size="36" letter-spacing="-4">	</tspan><tspan x="828" y="0" fill="none" stroke="#F68827" stroke-miterlimit="10" font-family="'Eng_HelvLine'" font-size="36" letter-spacing="18">	</tspan><tspan x="864" y="0" fill="none" stroke="#F68827" stroke-miterlimit="10" font-family="'Eng_HelvLine'" font-size="36">Version:</tspan><tspan x="1041.838" y="0" fill="none" stroke="#F68827" stroke-miterlimit="10" font-family="'Eng_HelvLine'" font-size="36" letter-spacing="-15">	</tspan><tspan x="1044" y="0" fill="none" stroke="#F68827" stroke-miterlimit="10" font-family="'Eng_HelvLine'" font-size="36" letter-spacing="18">	</tspan><tspan x="1080" y="0" fill="none" stroke="#F68827" stroke-miterlimit="10" font-family="'Eng_HelvLine'" font-size="36">Contributor: Stuart Childs stuchilds</tspan><tspan x="1866.016" y="0" fill="none" stroke="#F68827" stroke-miterlimit="10" font-family="'MyriadPro-Regular'" font-size="36">@</tspan><tspan x="1892.548" y="0" fill="none" stroke="#F68827" stroke-miterlimit="10" font-family="'Eng_HelvLine'" font-size="36">gmail.com</tspan><tspan x="2115.204" y="0" fill="none" stroke="#F68827" stroke-miterlimit="10" font-family="'Eng_HelvLine'" font-size="36" letter-spacing="-9">	</tspan><tspan x="2124" y="0" fill="none" stroke="#F68827" stroke-miterlimit="10" font-family="'Eng_HelvLine'" font-size="36" letter-spacing="18">	</tspan><tspan x="0" y="86.4" fill="none" stroke="#F68827" stroke-miterlimit="10" font-family="'Eng_HelvLine'" font-size="36">License: Creative Commons Attribution Sharealike 3.0 Unported</tspan><tspan x="1401.751" y="86.4" fill="none" stroke="#F68827" stroke-miterlimit="10" font-family="'Eng_HelvLine'" font-size="36" letter-spacing="-15">	</tspan><tspan x="1404" y="86.4" fill="none" stroke="#F68827" stroke-miterlimit="10" font-family="'Eng_HelvLine'" font-size="36" letter-spacing="18">	</tspan></text>
<text transform="matrix(1 0 0 1 68.3682 1538.377)"><tspan x="0" y="0" fill="none" stroke="#F68827" stroke-miterlimit="10" font-family="'Eng_HelvLine'" font-size="36">Date: 03</tspan><tspan x="178.81" y="0" fill="none" stroke="#F68827" stroke-miterlimit="10" font-family="'Eng_HelvLine'" font-size="36" letter-spacing="-16">	</tspan><tspan x="180" y="0" fill="none" stroke="#F68827" stroke-miterlimit="10" font-family="'Eng_HelvLine'" font-size="36">-04-14</tspan><tspan x="310.714" y="0" fill="none" stroke="#F68827" stroke-miterlimit="10" font-family="'Eng_HelvLine'" font-size="36" letter-spacing="-4">	</tspan><tspan x="324" y="0" fill="none" stroke="#F68827" stroke-miterlimit="10" font-family="'Eng_HelvLine'" font-size="36" letter-spacing="18">	</tspan><tspan x="360" y="0" fill="none" stroke="#F68827" stroke-miterlimit="10" font-family="'Eng_HelvLine'" font-size="36">File Name: WCWR-01</tspan><tspan x="823.566" y="0" fill="none" stroke="#F68827" stroke-miterlimit="10" font-family="'Eng_HelvLine'" font-size="36" letter-spacing="-13">	</tspan><tspan x="828" y="0" fill="none" stroke="#F68827" stroke-miterlimit="10" font-family="'Eng_HelvLine'" font-size="36" letter-spacing="18">	</tspan><tspan x="864" y="0" fill="none" stroke="#F68827" stroke-miterlimit="10" font-family="'Eng_HelvLine'" font-size="36">Version:</tspan><tspan x="1041.837" y="0" fill="none" stroke="#F68827" stroke-miterlimit="10" font-family="'Eng_HelvLine'" font-size="36" letter-spacing="-15">	</tspan><tspan x="1043.999" y="0" fill="none" stroke="#F68827" stroke-miterlimit="10" font-family="'Eng_HelvLine'" font-size="36" letter-spacing="18">	</tspan><tspan x="1079.999" y="0" fill="none" stroke="#F68827" stroke-miterlimit="10" font-family="'Eng_HelvLine'" font-size="36">Contributor: Stuart Childs stuchilds</tspan><tspan x="1866.016" y="0" fill="none" stroke="#F68827" stroke-miterlimit="10" font-family="'MyriadPro-Regular'" font-size="36">@</tspan><tspan x="1892.548" y="0" fill="none" stroke="#F68827" stroke-miterlimit="10" font-family="'Eng_HelvLine'" font-size="36">gmail.com</tspan><tspan x="2115.204" y="0" fill="none" stroke="#F68827" stroke-miterlimit="10" font-family="'Eng_HelvLine'" font-size="36" letter-spacing="-9">	</tspan><tspan x="2124" y="0" fill="none" stroke="#F68827" stroke-miterlimit="10" font-family="'Eng_HelvLine'" font-size="36" letter-spacing="18">	</tspan><tspan x="0" y="86.4" fill="none" stroke="#F68827" stroke-miterlimit="10" font-family="'Eng_HelvLine'" font-size="36">License: Creative Commons Attribution Sharealike 4.0 Unported</tspan><tspan x="1403.479" y="86.4" fill="none" stroke="#F68827" stroke-miterlimit="10" font-family="'Eng_HelvLine'" font-size="36" letter-spacing="-17">	</tspan><tspan x="1404" y="86.4" fill="none" stroke="#F68827" stroke-miterlimit="10" font-family="'Eng_HelvLine'" font-size="36" letter-spacing="18">	</tspan></text>
<rect x="2172.826" y="1443.826" fill="none" stroke="#F68827" stroke-miterlimit="10" width="28.347" height="28.347"/>
<g>
	<path fill="none" stroke="#F68827" stroke-miterlimit="10" d="M1830.944,1460.075c0,2.881,2.197,4.033,4.771,4.033
		c2.611,0,4.249-1.639,4.304-3.241c0.054-1.585-0.757-2.845-2.359-3.188l-4.411-0.954c-1.242-0.27-1.98-0.99-1.98-2.683
		s1.423-3.15,4.016-3.15s4.483,1.224,4.411,3.366c0.072-2.143-1.818-3.366-4.411-3.366s-4.016,1.458-4.016,3.15
		s0.702,2.395,1.98,2.683l4.411,0.954c1.639,0.343,2.413,1.603,2.359,3.188c-0.055,1.603-1.692,3.241-4.304,3.241
		C1833.142,1464.108,1830.944,1462.956,1830.944,1460.075z"/>
	<path fill="none" stroke="#F68827" stroke-miterlimit="10" d="M1851.719,1461.065c-0.054,1.512-1.674,2.935-3.205,2.935
		c-1.512,0-4.123-0.252-4.123-4.771c0-4.501,2.917-4.556,4.195-4.556s2.971,0.99,3.079,2.251c-0.108-1.261-1.801-2.251-3.079-2.251
		s-4.195,0.055-4.195,4.556c0,4.52,2.611,4.771,4.123,4.771C1850.045,1464,1851.665,1462.577,1851.719,1461.065z"/>
	<path fill="none" stroke="#F68827" stroke-miterlimit="10" d="M1858.629,1464.108c-1.494-0.055-2.683-0.522-2.683-2.179
		c0-1.675,1.009-2.377,2.917-2.557c1.891-0.181,2.737-0.469,3.637-0.721c-0.899,0.252-1.746,0.54-3.637,0.721
		c-1.908,0.18-2.917,0.882-2.917,2.557C1855.946,1463.586,1857.135,1464.054,1858.629,1464.108c1.477,0.054,3.331-1.692,3.871-2.467
		C1861.96,1462.416,1860.105,1464.162,1858.629,1464.108z M1862.5,1462.83v-5.924c0-0.757-0.378-2.197-2.809-2.197
		s-3.331,1.099-3.331,2.232c0-1.134,0.9-2.232,3.331-2.232s2.809,1.44,2.809,2.197V1462.83c0,1.08,1.279,1.17,1.279,1.17
		S1862.5,1463.91,1862.5,1462.83z"/>
	<path fill="none" stroke="#F68827" stroke-miterlimit="10" d="M1869.986,1464v-12.981V1464z"/>
	<path fill="none" stroke="#F68827" stroke-miterlimit="10" d="M1875.999,1459.066h8.048c0-1.998-0.792-4.556-3.655-4.556
		c-2.845,0-4.411,1.945-4.411,4.916c0,2.989,2.017,4.573,4.411,4.501c2.413-0.072,3.457-1.944,3.583-2.61
		c-0.126,0.666-1.17,2.538-3.583,2.61c-2.395,0.072-4.411-1.512-4.411-4.501c0-2.971,1.566-4.916,4.411-4.916
		c2.863,0,3.655,2.558,3.655,4.556H1875.999z"/>
	<path fill="none" stroke="#F68827" stroke-miterlimit="10" d="M1890.436,1458.311v-0.99V1458.311z M1890.436,1464v-0.99V1464z"/>
	<path fill="none" stroke="#F68827" stroke-miterlimit="10" d="M1911.693,1456.42c0.036-0.45-0.558-1.711-2.826-1.801
		c-2.269-0.054-3.313,0.666-3.313,2.053c0,1.404,1.171,1.837,1.603,1.963l3.403,1.008c0.45,0.108,1.53,0.595,1.53,1.927
		s-1.422,2.431-3.223,2.431s-3.439-0.954-3.439-2.358c0,1.404,1.639,2.358,3.439,2.358s3.223-1.099,3.223-2.431
		s-1.08-1.818-1.53-1.927l-3.403-1.008c-0.432-0.126-1.603-0.559-1.603-1.963c0-1.387,1.045-2.106,3.313-2.053
		C1911.136,1454.709,1911.729,1455.97,1911.693,1456.42z"/>
	<path fill="none" stroke="#F68827" stroke-miterlimit="10" d="M1916.265,1459.337c0-3.638,1.729-4.718,3.817-4.718
		c2.106,0,3.816,1.08,3.816,4.718c0,3.655-1.71,4.699-3.816,4.699C1917.993,1464.036,1916.265,1462.992,1916.265,1459.337z
		 M1916.265,1459.337c0-3.638,1.729-4.718,3.817-4.718c2.106,0,3.816,1.08,3.816,4.718c0,3.655-1.71,4.699-3.816,4.699
		C1917.993,1464.036,1916.265,1462.992,1916.265,1459.337z M1923.935,1454.619v13.018V1454.619z"/>
	<path fill="none" stroke="#F68827" stroke-miterlimit="10" d="M1931.133,1454.728c0,0,0,6.031,0,6.859
		c0,0.829,0.828,2.377,3.114,2.396c2.305,0.018,3.529-1.765,3.529-3.422c0,1.657-1.225,3.439-3.529,3.422
		c-2.286-0.019-3.114-1.566-3.114-2.396C1931.133,1460.759,1931.133,1454.728,1931.133,1454.728z M1937.776,1454.728v9.255V1454.728
		z"/>
	<path fill="none" stroke="#F68827" stroke-miterlimit="10" d="M1950.609,1461.642c-0.54,0.774-2.395,2.521-3.871,2.467
		c-1.494-0.055-2.683-0.522-2.683-2.179c0-1.675,1.009-2.377,2.917-2.557c1.891-0.181,2.737-0.469,3.637-0.721
		c-0.899,0.252-1.746,0.54-3.637,0.721c-1.908,0.18-2.917,0.882-2.917,2.557c0,1.656,1.188,2.124,2.683,2.179
		C1948.215,1464.162,1950.069,1462.416,1950.609,1461.642z M1951.889,1464c0,0-1.279-0.09-1.279-1.17v-5.924
		c0-0.757-0.378-2.197-2.809-2.197s-3.331,1.099-3.331,2.232c0-1.134,0.9-2.232,3.331-2.232s2.809,1.44,2.809,2.197v5.924
		C1950.609,1463.91,1951.889,1464,1951.889,1464z"/>
	<path fill="none" stroke="#F68827" stroke-miterlimit="10" d="M1961.68,1454.764c-1.675-0.019-3.584,2.448-3.529,4.519
		C1958.096,1457.212,1960.005,1454.745,1961.68,1454.764z M1958.15,1454.764V1464V1454.764z"/>
	<path fill="none" stroke="#F68827" stroke-miterlimit="10" d="M1965.836,1459.066h8.048c0-1.998-0.792-4.556-3.655-4.556
		c-2.845,0-4.411,1.945-4.411,4.916c0,2.989,2.017,4.573,4.411,4.501c2.413-0.072,3.457-1.944,3.584-2.61
		c-0.127,0.666-1.171,2.538-3.584,2.61c-2.395,0.072-4.411-1.512-4.411-4.501c0-2.971,1.566-4.916,4.411-4.916
		c2.863,0,3.655,2.558,3.655,4.556H1965.836z"/>
	<path fill="none" stroke="#F68827" stroke-miterlimit="10" d="M1989.29,1451.324V1451V1451.324z M1989.29,1463.982v-9.237
		C1989.29,1454.745,1989.29,1464.018,1989.29,1463.982z"/>
	<path fill="none" stroke="#F68827" stroke-miterlimit="10" d="M1998.723,1454.619c-2.269-0.054-3.313,0.666-3.313,2.053
		c0,1.404,1.171,1.837,1.603,1.963l3.403,1.008c0.45,0.108,1.53,0.595,1.53,1.927s-1.422,2.431-3.223,2.431
		s-3.439-0.954-3.439-2.358c0,1.404,1.639,2.358,3.439,2.358s3.223-1.099,3.223-2.431s-1.08-1.818-1.53-1.927l-3.403-1.008
		c-0.432-0.126-1.603-0.559-1.603-1.963C1995.409,1455.285,1996.454,1454.565,1998.723,1454.619c2.269,0.09,2.862,1.351,2.826,1.801
		C2001.585,1455.97,2000.991,1454.709,1998.723,1454.619z"/>
	<path fill="none" stroke="#F68827" stroke-miterlimit="10" d="M2018.198,1464v-12.981c0,2.214-2.143,2.736-3.062,2.809
		c0.919-0.072,3.062-0.595,3.062-2.809V1464z"/>
	<path fill="none" stroke="#F68827" stroke-miterlimit="10" d="M2024.245,1457.518c0-3.564,0.757-6.481,3.926-6.481
		s3.925,2.917,3.925,6.481c0,3.584-0.756,6.482-3.925,6.482S2024.245,1461.102,2024.245,1457.518z M2024.245,1457.518
		c0-3.564,0.757-6.481,3.926-6.481s3.925,2.917,3.925,6.481c0,3.584-0.756,6.482-3.925,6.482S2024.245,1461.102,2024.245,1457.518z"
		/>
	<path fill="none" stroke="#F68827" stroke-miterlimit="10" d="M2044.443,1464c0,0,0-6.014,0-6.842s-0.54-2.377-2.827-2.395
		c-2.287-0.019-3.313,1.764-3.313,3.421c0-1.657,1.026-3.439,3.313-3.421c2.287,0.018,2.827,1.566,2.827,2.395
		S2044.443,1464,2044.443,1464z M2038.303,1464v-9.236V1464z M2050.637,1464c0,0,0-6.014,0-6.842s-0.792-2.377-3.079-2.395
		c-2.286-0.019-3.114,1.764-3.114,3.421c0-1.657,0.828-3.439,3.114-3.421c2.287,0.018,3.079,1.566,3.079,2.395
		S2050.637,1464,2050.637,1464z"/>
	<path fill="none" stroke="#F68827" stroke-miterlimit="10" d="M2064.207,1464c0,0,0-6.014,0-6.842s-0.54-2.377-2.827-2.395
		c-2.287-0.019-3.313,1.764-3.313,3.421c0-1.657,1.026-3.439,3.313-3.421c2.287,0.018,2.827,1.566,2.827,2.395
		S2064.207,1464,2064.207,1464z M2058.066,1464v-9.236V1464z M2070.4,1464c0,0,0-6.014,0-6.842s-0.792-2.377-3.079-2.395
		c-2.286-0.019-3.114,1.764-3.114,3.421c0-1.657,0.828-3.439,3.114-3.421c2.287,0.018,3.079,1.566,3.079,2.395
		S2070.4,1464,2070.4,1464z"/>
	<path fill="none" stroke="#F68827" stroke-miterlimit="10" d="M2084.886,1464l3.709-5.149l-2.952-4.087l2.952,4.087l2.972-4.087
		l-2.972,4.087l3.728,5.149l-3.728-5.149L2084.886,1464z"/>
	<path fill="none" stroke="#F68827" stroke-miterlimit="10" d="M2108.63,1464v-12.981c0,2.214-2.143,2.736-3.062,2.809
		c0.919-0.072,3.062-0.595,3.062-2.809V1464z"/>
	<path fill="none" stroke="#F68827" stroke-miterlimit="10" d="M2114.676,1457.518c0-3.564,0.757-6.481,3.926-6.481
		s3.925,2.917,3.925,6.481c0,3.584-0.756,6.482-3.925,6.482S2114.676,1461.102,2114.676,1457.518z M2114.676,1457.518
		c0-3.564,0.757-6.481,3.926-6.481s3.925,2.917,3.925,6.481c0,3.584-0.756,6.482-3.925,6.482S2114.676,1461.102,2114.676,1457.518z"
		/>
	<path fill="none" stroke="#F68827" stroke-miterlimit="10" d="M2134.875,1457.158c0-0.828-0.54-2.377-2.827-2.395
		c-2.287-0.019-3.313,1.764-3.313,3.421c0-1.657,1.026-3.439,3.313-3.421C2134.335,1454.781,2134.875,1456.33,2134.875,1457.158
		s0,6.842,0,6.842S2134.875,1457.986,2134.875,1457.158z M2128.734,1454.764V1464V1454.764z M2141.068,1457.158
		c0-0.828-0.792-2.377-3.079-2.395c-2.286-0.019-3.114,1.764-3.114,3.421c0-1.657,0.828-3.439,3.114-3.421
		C2140.276,1454.781,2141.068,1456.33,2141.068,1457.158s0,6.842,0,6.842S2141.068,1457.986,2141.068,1457.158z"/>
	<path fill="none" stroke="#F68827" stroke-miterlimit="10" d="M2154.639,1457.158c0-0.828-0.54-2.377-2.827-2.395
		c-2.287-0.019-3.313,1.764-3.313,3.421c0-1.657,1.026-3.439,3.313-3.421C2154.099,1454.781,2154.639,1456.33,2154.639,1457.158
		s0,6.842,0,6.842S2154.639,1457.986,2154.639,1457.158z M2148.498,1454.764V1464V1454.764z M2160.832,1457.158
		c0-0.828-0.792-2.377-3.079-2.395c-2.286-0.019-3.114,1.764-3.114,3.421c0-1.657,0.828-3.439,3.114-3.421
		C2160.04,1454.781,2160.832,1456.33,2160.832,1457.158s0,6.842,0,6.842S2160.832,1457.986,2160.832,1457.158z"/>
</g>
<rect x="119.117" y="119.083" fill="none" stroke="#000000" stroke-width="0.216" stroke-miterlimit="22.9256" width="17.291" height="22.678"/>
<rect x="119.117" y="181.446" fill="none" stroke="#000000" stroke-width="0.216" stroke-miterlimit="22.9256" width="17.291" height="22.677"/>
<circle fill="none" stroke="#000000" stroke-width="0.216" stroke-miterlimit="22.9256" cx="127.764" cy="161.603" r="8.504"/>
<rect x="175.811" y="119.083" fill="none" stroke="#000000" stroke-width="0.216" stroke-miterlimit="22.9256" width="17.291" height="22.678"/>
<rect x="175.811" y="181.446" fill="none" stroke="#000000" stroke-width="0.216" stroke-miterlimit="22.9256" width="17.291" height="22.677"/>
<circle fill="none" stroke="#000000" stroke-width="0.216" stroke-miterlimit="22.9256" cx="184.458" cy="161.603" r="8.504"/>
<rect x="232.504" y="119.083" fill="none" stroke="#000000" stroke-width="0.216" stroke-miterlimit="22.9256" width="17.291" height="22.678"/>
<rect x="232.504" y="181.446" fill="none" stroke="#000000" stroke-width="0.216" stroke-miterlimit="22.9256" width="17.291" height="22.677"/>
<circle fill="none" stroke="#000000" stroke-width="0.216" stroke-miterlimit="22.9256" cx="241.151" cy="161.603" r="8.504"/>
<rect x="289.197" y="119.083" fill="none" stroke="#000000" stroke-width="0.216" stroke-miterlimit="22.9256" width="17.291" height="22.678"/>
<rect x="289.197" y="181.446" fill="none" stroke="#000000" stroke-width="0.216" stroke-miterlimit="22.9256" width="17.291" height="22.677"/>
<circle fill="none" stroke="#000000" stroke-width="0.216" stroke-miterlimit="22.9256" cx="297.844" cy="161.603" r="8.504"/>
<rect x="345.891" y="119.083" fill="none" stroke="#000000" stroke-width="0.216" stroke-miterlimit="22.9256" width="17.291" height="22.678"/>
<rect x="345.891" y="181.446" fill="none" stroke="#000000" stroke-width="0.216" stroke-miterlimit="22.9256" width="17.291" height="22.677"/>
<circle fill="none" stroke="#000000" stroke-width="0.216" stroke-miterlimit="22.9256" cx="354.538" cy="161.603" r="8.504"/>
<rect x="402.584" y="119.083" fill="none" stroke="#000000" stroke-width="0.216" stroke-miterlimit="22.9256" width="17.291" height="22.678"/>
<rect x="402.584" y="181.446" fill="none" stroke="#000000" stroke-width="0.216" stroke-miterlimit="22.9256" width="17.291" height="22.677"/>
<circle fill="none" stroke="#000000" stroke-width="0.216" stroke-miterlimit="22.9256" cx="411.231" cy="161.603" r="8.504"/>
<rect x="459.277" y="119.083" fill="none" stroke="#000000" stroke-width="0.216" stroke-miterlimit="22.9256" width="17.291" height="22.678"/>
<rect x="459.277" y="181.446" fill="none" stroke="#000000" stroke-width="0.216" stroke-miterlimit="22.9256" width="17.291" height="22.677"/>
<circle fill="none" stroke="#000000" stroke-width="0.216" stroke-miterlimit="22.9256" cx="467.925" cy="161.603" r="8.504"/>
<rect x="515.971" y="119.083" fill="none" stroke="#000000" stroke-width="0.216" stroke-miterlimit="22.9256" width="17.291" height="22.678"/>
<rect x="515.971" y="181.446" fill="none" stroke="#000000" stroke-width="0.216" stroke-miterlimit="22.9256" width="17.291" height="22.677"/>
<circle fill="none" stroke="#000000" stroke-width="0.216" stroke-miterlimit="22.9256" cx="524.618" cy="161.603" r="8.504"/>
<rect x="572.664" y="119.083" fill="none" stroke="#000000" stroke-width="0.216" stroke-miterlimit="22.9256" width="17.291" height="22.678"/>
<rect x="572.664" y="181.446" fill="none" stroke="#000000" stroke-width="0.216" stroke-miterlimit="22.9256" width="17.291" height="22.677"/>
<circle fill="none" stroke="#000000" stroke-width="0.216" stroke-miterlimit="22.9256" cx="581.312" cy="161.603" r="8.504"/>
<rect x="629.357" y="119.083" fill="none" stroke="#000000" stroke-width="0.216" stroke-miterlimit="22.9256" width="17.291" height="22.678"/>
<rect x="629.357" y="181.446" fill="none" stroke="#000000" stroke-width="0.216" stroke-miterlimit="22.9256" width="17.291" height="22.677"/>
<circle fill="none" stroke="#000000" stroke-width="0.216" stroke-miterlimit="22.9256" cx="638.005" cy="161.603" r="8.504"/>
<rect x="686.051" y="119.083" fill="none" stroke="#000000" stroke-width="0.216" stroke-miterlimit="22.9256" width="17.291" height="22.678"/>
<rect x="686.051" y="181.446" fill="none" stroke="#000000" stroke-width="0.216" stroke-miterlimit="22.9256" width="17.291" height="22.677"/>
<circle fill="none" stroke="#000000" stroke-width="0.216" stroke-miterlimit="22.9256" cx="694.698" cy="161.603" r="8.504"/>
<rect x="742.744" y="119.083" fill="none" stroke="#000000" stroke-width="0.216" stroke-miterlimit="22.9256" width="17.291" height="22.678"/>
<rect x="742.744" y="181.446" fill="none" stroke="#000000" stroke-width="0.216" stroke-miterlimit="22.9256" width="17.291" height="22.677"/>
<circle fill="none" stroke="#000000" stroke-width="0.216" stroke-miterlimit="22.9256" cx="751.392" cy="161.603" r="8.504"/>
<rect x="799.438" y="119.083" fill="none" stroke="#000000" stroke-width="0.216" stroke-miterlimit="22.9256" width="17.291" height="22.678"/>
<rect x="799.438" y="181.446" fill="none" stroke="#000000" stroke-width="0.216" stroke-miterlimit="22.9256" width="17.291" height="22.677"/>
<circle fill="none" stroke="#000000" stroke-width="0.216" stroke-miterlimit="22.9256" cx="808.084" cy="161.603" r="8.504"/>
<rect x="856.131" y="119.083" fill="none" stroke="#000000" stroke-width="0.216" stroke-miterlimit="22.9256" width="17.291" height="22.678"/>
<rect x="856.131" y="181.446" fill="none" stroke="#000000" stroke-width="0.216" stroke-miterlimit="22.9256" width="17.291" height="22.677"/>
<circle fill="none" stroke="#000000" stroke-width="0.216" stroke-miterlimit="22.9256" cx="864.778" cy="161.603" r="8.504"/>
<rect x="912.824" y="119.083" fill="none" stroke="#000000" stroke-width="0.216" stroke-miterlimit="22.9256" width="17.291" height="22.678"/>
<rect x="912.824" y="181.446" fill="none" stroke="#000000" stroke-width="0.216" stroke-miterlimit="22.9256" width="17.291" height="22.677"/>
<circle fill="none" stroke="#000000" stroke-width="0.216" stroke-miterlimit="22.9256" cx="921.471" cy="161.603" r="8.504"/>
<rect x="969.518" y="119.083" fill="none" stroke="#000000" stroke-width="0.216" stroke-miterlimit="22.9256" width="17.291" height="22.678"/>
<rect x="969.518" y="181.446" fill="none" stroke="#000000" stroke-width="0.216" stroke-miterlimit="22.9256" width="17.291" height="22.677"/>
<circle fill="none" stroke="#000000" stroke-width="0.216" stroke-miterlimit="22.9256" cx="978.165" cy="161.603" r="8.504"/>
<rect x="1026.211" y="119.083" fill="none" stroke="#000000" stroke-width="0.216" stroke-miterlimit="22.9256" width="17.291" height="22.678"/>
<rect x="1026.211" y="181.446" fill="none" stroke="#000000" stroke-width="0.216" stroke-miterlimit="22.9256" width="17.291" height="22.677"/>
<circle fill="none" stroke="#000000" stroke-width="0.216" stroke-miterlimit="22.9256" cx="1034.858" cy="161.603" r="8.504"/>
<rect x="1082.904" y="119.083" fill="none" stroke="#000000" stroke-width="0.216" stroke-miterlimit="22.9256" width="17.291" height="22.678"/>
<rect x="1082.904" y="181.446" fill="none" stroke="#000000" stroke-width="0.216" stroke-miterlimit="22.9256" width="17.291" height="22.677"/>
<circle fill="none" stroke="#000000" stroke-width="0.216" stroke-miterlimit="22.9256" cx="1091.551" cy="161.603" r="8.504"/>
<rect x="1139.598" y="119.083" fill="none" stroke="#000000" stroke-width="0.216" stroke-miterlimit="22.9256" width="17.291" height="22.678"/>
<rect x="1139.598" y="181.446" fill="none" stroke="#000000" stroke-width="0.216" stroke-miterlimit="22.9256" width="17.291" height="22.677"/>
<circle fill="none" stroke="#000000" stroke-width="0.216" stroke-miterlimit="22.9256" cx="1148.245" cy="161.603" r="8.504"/>
<rect x="1196.291" y="119.083" fill="none" stroke="#000000" stroke-width="0.216" stroke-miterlimit="22.9256" width="17.291" height="22.678"/>
<rect x="1196.291" y="181.446" fill="none" stroke="#000000" stroke-width="0.216" stroke-miterlimit="22.9256" width="17.291" height="22.677"/>
<circle fill="none" stroke="#000000" stroke-width="0.216" stroke-miterlimit="22.9256" cx="1204.938" cy="161.603" r="8.504"/>
<rect x="1252.984" y="119.083" fill="none" stroke="#000000" stroke-width="0.216" stroke-miterlimit="22.9256" width="17.291" height="22.678"/>
<rect x="1252.984" y="181.446" fill="none" stroke="#000000" stroke-width="0.216" stroke-miterlimit="22.9256" width="17.291" height="22.677"/>
<circle fill="none" stroke="#000000" stroke-width="0.216" stroke-miterlimit="22.9256" cx="1261.631" cy="161.603" r="8.504"/>
<rect x="1309.678" y="119.083" fill="none" stroke="#000000" stroke-width="0.216" stroke-miterlimit="22.9256" width="17.291" height="22.678"/>
<rect x="1309.678" y="181.446" fill="none" stroke="#000000" stroke-width="0.216" stroke-miterlimit="22.9256" width="17.291" height="22.677"/>
<circle fill="none" stroke="#000000" stroke-width="0.216" stroke-miterlimit="22.9256" cx="1318.325" cy="161.603" r="8.504"/>
<rect x="1366.371" y="119.083" fill="none" stroke="#000000" stroke-width="0.216" stroke-miterlimit="22.9256" width="17.291" height="22.678"/>
<rect x="1366.371" y="181.446" fill="none" stroke="#000000" stroke-width="0.216" stroke-miterlimit="22.9256" width="17.291" height="22.677"/>
<circle fill="none" stroke="#000000" stroke-width="0.216" stroke-miterlimit="22.9256" cx="1375.018" cy="161.603" r="8.504"/>
<rect x="1423.064" y="119.083" fill="none" stroke="#000000" stroke-width="0.216" stroke-miterlimit="22.9256" width="17.291" height="22.678"/>
<rect x="1423.064" y="181.446" fill="none" stroke="#000000" stroke-width="0.216" stroke-miterlimit="22.9256" width="17.291" height="22.677"/>
<circle fill="none" stroke="#000000" stroke-width="0.216" stroke-miterlimit="22.9256" cx="1431.711" cy="161.603" r="8.504"/>
<rect x="1479.758" y="119.083" fill="none" stroke="#000000" stroke-width="0.216" stroke-miterlimit="22.9256" width="17.291" height="22.678"/>
<rect x="1479.758" y="181.446" fill="none" stroke="#000000" stroke-width="0.216" stroke-miterlimit="22.9256" width="17.291" height="22.677"/>
<circle fill="none" stroke="#000000" stroke-width="0.216" stroke-miterlimit="22.9256" cx="1488.405" cy="161.603" r="8.504"/>
<circle fill="none" stroke="#000000" stroke-width="0.216" stroke-miterlimit="22.9256" cx="269.498" cy="123.335" r="4.252"/>
<circle fill="none" stroke="#000000" stroke-width="0.216" stroke-miterlimit="22.9256" cx="269.498" cy="197.037" r="4.252"/>
<circle fill="none" stroke="#000000" stroke-width="0.216" stroke-miterlimit="22.9256" cx="552.964" cy="123.335" r="4.252"/>
<circle fill="none" stroke="#000000" stroke-width="0.216" stroke-miterlimit="22.9256" cx="552.964" cy="197.037" r="4.252"/>
<circle fill="none" stroke="#000000" stroke-width="0.216" stroke-miterlimit="22.9256" cx="1347.022" cy="123.335" r="4.252"/>
<circle fill="none" stroke="#000000" stroke-width="0.216" stroke-miterlimit="22.9256" cx="1347.022" cy="197.037" r="4.252"/>
<circle fill="none" stroke="#000000" stroke-width="0.216" stroke-miterlimit="22.9256" cx="1063.556" cy="123.335" r="4.252"/>
<circle fill="none" stroke="#000000" stroke-width="0.216" stroke-miterlimit="22.9256" cx="1063.556" cy="197.037" r="4.252"/>
<circle fill="none" stroke="#000000" stroke-width="0.216" stroke-miterlimit="22.9256" cx="269.498" cy="520.189" r="4.252"/>
<circle fill="none" stroke="#000000" stroke-width="0.216" stroke-miterlimit="22.9256" cx="269.498" cy="593.89" r="4.252"/>
<circle fill="none" stroke="#000000" stroke-width="0.216" stroke-miterlimit="22.9256" cx="552.964" cy="520.189" r="4.252"/>
<circle fill="none" stroke="#000000" stroke-width="0.216" stroke-miterlimit="22.9256" cx="552.964" cy="593.89" r="4.252"/>
<circle fill="none" stroke="#000000" stroke-width="0.216" stroke-miterlimit="22.9256" cx="1347.022" cy="520.189" r="4.252"/>
<circle fill="none" stroke="#000000" stroke-width="0.216" stroke-miterlimit="22.9256" cx="1347.022" cy="593.89" r="4.252"/>
<circle fill="none" stroke="#000000" stroke-width="0.216" stroke-miterlimit="22.9256" cx="1063.556" cy="520.189" r="4.252"/>
<circle fill="none" stroke="#000000" stroke-width="0.216" stroke-miterlimit="22.9256" cx="1063.556" cy="593.89" r="4.252"/>
<path fill="none" stroke="#000000" stroke-width="0.216" stroke-miterlimit="22.9256" d="M1545.653,204.123
	c0,15.655-12.691,28.347-28.347,28.347H99.983c-15.655,0-28.347-12.691-28.347-28.347v-85.039c0-15.656,12.691-28.347,28.347-28.347
	h1417.323c15.655,0,28.347,12.691,28.347,28.347V204.123z"/>
<path fill="none" stroke="#000000" stroke-width="0.216" stroke-miterlimit="22.9256" d="M146.194,558.451
	c0,10.175-8.251,18.424-18.424,18.424c-10.175,0-18.426-8.249-18.426-18.424c0-10.172,8.251-18.424,18.426-18.424
	C137.943,540.027,146.194,548.279,146.194,558.451z"/>
<path fill="none" stroke="#000000" stroke-width="0.216" stroke-miterlimit="22.9256" d="M202.888,558.451
	c0,10.175-8.251,18.424-18.424,18.424c-10.175,0-18.426-8.249-18.426-18.424c0-10.172,8.251-18.424,18.426-18.424
	C194.637,540.027,202.888,548.279,202.888,558.451z"/>
<path fill="none" stroke="#000000" stroke-width="0.216" stroke-miterlimit="22.9256" d="M259.582,558.451
	c0,10.175-8.251,18.424-18.424,18.424c-10.175,0-18.426-8.249-18.426-18.424c0-10.172,8.251-18.424,18.426-18.424
	C251.331,540.027,259.582,548.279,259.582,558.451z"/>
<path fill="none" stroke="#000000" stroke-width="0.216" stroke-miterlimit="22.9256" d="M316.276,558.451
	c0,10.175-8.252,18.424-18.424,18.424c-10.175,0-18.426-8.249-18.426-18.424c0-10.172,8.251-18.424,18.426-18.424
	C308.024,540.027,316.276,548.279,316.276,558.451z"/>
<path fill="none" stroke="#000000" stroke-width="0.216" stroke-miterlimit="22.9256" d="M372.97,558.451
	c0,10.175-8.251,18.424-18.424,18.424c-10.175,0-18.426-8.249-18.426-18.424c0-10.172,8.251-18.424,18.426-18.424
	C364.719,540.027,372.97,548.279,372.97,558.451z"/>
<path fill="none" stroke="#000000" stroke-width="0.216" stroke-miterlimit="22.9256" d="M429.664,558.451
	c0,10.175-8.252,18.424-18.424,18.424c-10.175,0-18.426-8.249-18.426-18.424c0-10.172,8.251-18.424,18.426-18.424
	C421.412,540.027,429.664,548.279,429.664,558.451z"/>
<path fill="none" stroke="#000000" stroke-width="0.216" stroke-miterlimit="22.9256" d="M486.357,558.451
	c0,10.175-8.251,18.424-18.424,18.424c-10.173,0-18.424-8.249-18.424-18.424c0-10.172,8.251-18.424,18.424-18.424
	C478.106,540.027,486.357,548.279,486.357,558.451z"/>
<path fill="none" stroke="#000000" stroke-width="0.216" stroke-miterlimit="22.9256" d="M543.052,558.451
	c0,10.175-8.252,18.424-18.424,18.424s-18.424-8.249-18.424-18.424c0-10.172,8.252-18.424,18.424-18.424
	S543.052,548.279,543.052,558.451z"/>
<path fill="none" stroke="#000000" stroke-width="0.216" stroke-miterlimit="22.9256" d="M599.746,558.451
	c0,10.175-8.251,18.424-18.424,18.424s-18.424-8.249-18.424-18.424c0-10.172,8.251-18.424,18.424-18.424
	S599.746,548.279,599.746,558.451z"/>
<path fill="none" stroke="#000000" stroke-width="0.216" stroke-miterlimit="22.9256" d="M656.439,558.451
	c0,10.175-8.251,18.424-18.424,18.424c-10.172,0-18.424-8.249-18.424-18.424c0-10.172,8.251-18.424,18.424-18.424
	C648.188,540.027,656.439,548.279,656.439,558.451z"/>
<path fill="none" stroke="#000000" stroke-width="0.216" stroke-miterlimit="22.9256" d="M713.133,558.451
	c0,10.175-8.251,18.424-18.424,18.424c-10.172,0-18.424-8.249-18.424-18.424c0-10.172,8.251-18.424,18.424-18.424
	C704.882,540.027,713.133,548.279,713.133,558.451z"/>
<path fill="none" stroke="#000000" stroke-width="0.216" stroke-miterlimit="22.9256" d="M769.827,558.451
	c0,10.175-8.252,18.424-18.424,18.424s-18.424-8.249-18.424-18.424c0-10.172,8.252-18.424,18.424-18.424
	S769.827,548.279,769.827,558.451z"/>
<path fill="none" stroke="#000000" stroke-width="0.216" stroke-miterlimit="22.9256" d="M826.521,558.451
	c0,10.175-8.251,18.424-18.424,18.424c-10.175,0-18.426-8.249-18.426-18.424c0-10.172,8.251-18.424,18.426-18.424
	C818.27,540.027,826.521,548.279,826.521,558.451z"/>
<path fill="none" stroke="#000000" stroke-width="0.216" stroke-miterlimit="22.9256" d="M883.215,558.451
	c0,10.175-8.251,18.424-18.425,18.424s-18.426-8.249-18.426-18.424c0-10.172,8.252-18.424,18.426-18.424
	S883.215,548.279,883.215,558.451z"/>
<path fill="none" stroke="#000000" stroke-width="0.216" stroke-miterlimit="22.9256" d="M939.909,558.451
	c0,10.175-8.252,18.424-18.424,18.424c-10.176,0-18.427-8.249-18.427-18.424c0-10.172,8.251-18.424,18.427-18.424
	C931.657,540.027,939.909,548.279,939.909,558.451z"/>
<path fill="none" stroke="#000000" stroke-width="0.216" stroke-miterlimit="22.9256" d="M996.603,558.451
	c0,10.175-8.252,18.424-18.424,18.424c-10.175,0-18.427-8.249-18.427-18.424c0-10.172,8.252-18.424,18.427-18.424
	C988.351,540.027,996.603,548.279,996.603,558.451z"/>
<path fill="none" stroke="#000000" stroke-width="0.216" stroke-miterlimit="22.9256" d="M1053.296,558.451
	c0,10.175-8.251,18.424-18.424,18.424c-10.175,0-18.426-8.249-18.426-18.424c0-10.172,8.251-18.424,18.426-18.424
	C1045.045,540.027,1053.296,548.279,1053.296,558.451z"/>
<path fill="none" stroke="#000000" stroke-width="0.216" stroke-miterlimit="22.9256" d="M1109.99,558.451
	c0,10.175-8.251,18.424-18.424,18.424c-10.175,0-18.427-8.249-18.427-18.424c0-10.172,8.252-18.424,18.427-18.424
	C1101.739,540.027,1109.99,548.279,1109.99,558.451z"/>
<path fill="none" stroke="#000000" stroke-width="0.216" stroke-miterlimit="22.9256" d="M1166.685,558.451
	c0,10.175-8.252,18.424-18.425,18.424c-10.175,0-18.427-8.249-18.427-18.424c0-10.172,8.252-18.424,18.427-18.424
	C1158.433,540.027,1166.685,548.279,1166.685,558.451z"/>
<path fill="none" stroke="#000000" stroke-width="0.216" stroke-miterlimit="22.9256" d="M1223.378,558.451
	c0,10.175-8.252,18.424-18.424,18.424c-10.175,0-18.426-8.249-18.426-18.424c0-10.172,8.251-18.424,18.426-18.424
	C1215.126,540.027,1223.378,548.279,1223.378,558.451z"/>
<path fill="none" stroke="#000000" stroke-width="0.216" stroke-miterlimit="22.9256" d="M1280.072,558.451
	c0,10.175-8.252,18.424-18.425,18.424c-10.174,0-18.426-8.249-18.426-18.424c0-10.172,8.252-18.424,18.426-18.424
	C1271.82,540.027,1280.072,548.279,1280.072,558.451z"/>
<path fill="none" stroke="#000000" stroke-width="0.216" stroke-miterlimit="22.9256" d="M1336.766,558.451
	c0,10.175-8.251,18.424-18.424,18.424c-10.175,0-18.427-8.249-18.427-18.424c0-10.172,8.252-18.424,18.427-18.424
	C1328.515,540.027,1336.766,548.279,1336.766,558.451z"/>
<path fill="none" stroke="#000000" stroke-width="0.216" stroke-miterlimit="22.9256" d="M1393.46,558.451
	c0,10.175-8.252,18.424-18.424,18.424c-10.176,0-18.427-8.249-18.427-18.424c0-10.172,8.251-18.424,18.427-18.424
	C1385.208,540.027,1393.46,548.279,1393.46,558.451z"/>
<path fill="none" stroke="#000000" stroke-width="0.216" stroke-miterlimit="22.9256" d="M1450.153,558.451
	c0,10.175-8.252,18.424-18.424,18.424c-10.175,0-18.426-8.249-18.426-18.424c0-10.172,8.251-18.424,18.426-18.424
	C1441.901,540.027,1450.153,548.279,1450.153,558.451z"/>
<path fill="none" stroke="#000000" stroke-width="0.216" stroke-miterlimit="22.9256" d="M1506.848,558.451
	c0,10.175-8.251,18.424-18.425,18.424s-18.426-8.249-18.426-18.424c0-10.172,8.252-18.424,18.426-18.424
	S1506.848,548.279,1506.848,558.451z"/>
<path fill="none" stroke="#000000" stroke-width="0.216" stroke-miterlimit="22.9256" d="M1545.653,600.976
	c0,15.655-12.691,28.347-28.347,28.347H99.983c-15.655,0-28.347-12.691-28.347-28.347v-85.039c0-15.656,12.691-28.347,28.347-28.347
	h1417.323c15.655,0,28.347,12.69,28.347,28.347V600.976z"/>
<path fill="none" stroke="#000000" stroke-width="0.216" stroke-miterlimit="22.9256" d="M820.116,297.424
	c0,15.642,14.098,28.164,29.739,28.164l8.491,0h42.612c0,54.736-3.386,73.637-42.483,73.637c-15.639,0-28.321,12.682-28.321,28.32
	c0,15.641,12.683,28.324,28.321,28.324c70.376,0,103.372-41.435,103.372-127.449h-0.124v-56.643h-28.259l-0.002-0.074v-16.992
	h-22.656v16.992h-10.621v14.16h7.08v15.578h-7.08h-18.41h-7.08v-15.578h7.08v-14.16h-10.619v-16.992h-22.658v16.992v0.074h-28.382
	V297.424z"/>
<path fill="none" stroke="#000000" stroke-width="0.216" stroke-miterlimit="22.9256" d="M967.519,297.424
	c0,15.642,14.098,28.164,29.739,28.164l8.491,0h42.612c0,54.736-3.386,73.637-42.483,73.637c-15.639,0-28.321,12.682-28.321,28.32
	c0,15.641,12.683,28.324,28.321,28.324c70.376,0,103.372-41.435,103.372-127.449h-0.124v-56.643h-28.259l-0.002-0.074v-16.992
	h-22.656v16.992h-10.621v14.16h7.08v15.578h-7.08h-18.41h-7.08v-15.578h7.08v-14.16h-10.619v-16.992H995.9v16.992v0.074h-28.382
	V297.424z"/>
<path fill="none" stroke="#000000" stroke-width="0.216" stroke-miterlimit="22.9256" d="M1114.921,297.424
	c0,15.642,14.098,28.164,29.739,28.164l8.491,0h42.612c0,54.736-3.386,73.637-42.483,73.637c-15.639,0-28.321,12.682-28.321,28.32
	c0,15.641,12.683,28.324,28.321,28.324c70.376,0,103.372-41.435,103.372-127.449h-0.124v-56.643h-28.259l-0.002-0.074v-16.992
	h-22.656v16.992h-10.621v14.16h7.08v15.578h-7.08h-18.41h-7.08v-15.578h7.08v-14.16h-10.619v-16.992h-22.658v16.992v0.074h-28.382
	V297.424z"/>
<path fill="none" stroke="#000000" stroke-width="0.216" stroke-miterlimit="22.9256" d="M1262.323,297.424
	c0,15.642,14.098,28.164,29.739,28.164l8.491,0h42.612c0,54.736-3.386,73.637-42.483,73.637c-15.639,0-28.321,12.682-28.321,28.32
	c0,15.641,12.683,28.324,28.321,28.324c70.376,0,103.372-41.435,103.372-127.449h-0.124v-56.643h-28.259l-0.002-0.074v-16.992
	h-22.656v16.992h-10.621v14.16h7.08v15.578h-7.08h-18.41h-7.08v-15.578h7.08v-14.16h-10.619v-16.992h-22.658v16.992v0.074h-28.382
	V297.424z"/>
<path fill="none" stroke="#000000" stroke-width="0.216" stroke-miterlimit="22.9256" d="M1409.726,297.424
	c0,15.642,14.098,28.164,29.739,28.164l8.491,0h42.612c0,54.736-3.386,73.637-42.483,73.637c-15.639,0-28.321,12.682-28.321,28.32
	c0,15.641,12.683,28.324,28.321,28.324c70.376,0,103.372-41.435,103.372-127.449h-0.124v-56.643h-28.259l-0.002-0.074v-16.992
	h-22.656v16.992h-10.621v14.16h7.08v15.578h-7.08h-18.41h-7.08v-15.578h7.08v-14.16h-10.619v-16.992h-22.658v16.992v0.074h-28.382
	V297.424z"/>
<path fill="none" stroke="#000000" stroke-width="0.216" stroke-miterlimit="22.9256" d="M814.446,297.424
	c0,15.642-14.098,28.164-29.739,28.164l-8.491,0h-42.612c0,54.736,3.386,73.637,42.483,73.637c15.639,0,28.321,12.682,28.321,28.32
	c0,15.641-12.683,28.324-28.321,28.324c-70.376,0-103.372-41.435-103.372-127.449h0.124v-56.643h28.259l0.002-0.074v-16.992h22.656
	v16.992h10.621v14.16h-7.08v15.578h7.08h18.41h7.08v-15.578h-7.08v-14.16h10.619v-16.992h22.658v16.992v0.074h28.382V297.424z"/>
<path fill="none" stroke="#000000" stroke-width="0.216" stroke-miterlimit="22.9256" d="M667.044,297.424
	c0,15.642-14.098,28.164-29.739,28.164l-8.491,0h-42.612c0,54.736,3.386,73.637,42.483,73.637c15.639,0,28.321,12.682,28.321,28.32
	c0,15.641-12.683,28.324-28.321,28.324c-70.376,0-103.372-41.435-103.372-127.449h0.124v-56.643h28.259l0.002-0.074v-16.992h22.656
	v16.992h10.621v14.16h-7.08v15.578h7.08h18.41h7.08v-15.578h-7.08v-14.16h10.619v-16.992h22.658v16.992v0.074h28.382V297.424z"/>
<path fill="none" stroke="#000000" stroke-width="0.216" stroke-miterlimit="22.9256" d="M519.642,297.424
	c0,15.642-14.098,28.164-29.739,28.164l-8.491,0h-42.612c0,54.736,3.386,73.637,42.483,73.637c15.639,0,28.321,12.682,28.321,28.32
	c0,15.641-12.683,28.324-28.321,28.324c-70.376,0-103.372-41.435-103.372-127.449h0.124v-56.643h28.259l0.002-0.074v-16.992h22.656
	v16.992h10.621v14.16h-7.08v15.578h7.08h18.41h7.08v-15.578h-7.08v-14.16h10.619v-16.992h22.658v16.992v0.074h28.382V297.424z"/>
<path fill="none" stroke="#000000" stroke-width="0.216" stroke-miterlimit="22.9256" d="M372.239,297.424
	c0,15.642-14.098,28.164-29.739,28.164l-8.491,0h-42.612c0,54.736,3.386,73.637,42.483,73.637c15.639,0,28.321,12.682,28.321,28.32
	c0,15.641-12.683,28.324-28.321,28.324c-70.376,0-103.372-41.435-103.372-127.449h0.124v-56.643h28.259l0.002-0.074v-16.992h22.656
	v16.992h10.621v14.16h-7.08v15.578h7.08h18.41h7.08v-15.578h-7.08v-14.16h10.619v-16.992h22.658v16.992v0.074h28.382V297.424z"/>
<path fill="none" stroke="#000000" stroke-width="0.216" stroke-miterlimit="22.9256" d="M224.837,297.424
	c0,15.642-14.098,28.164-29.739,28.164l-8.491,0h-42.612c0,54.736,3.386,73.637,42.483,73.637c15.639,0,28.321,12.682,28.321,28.32
	c0,15.641-12.683,28.324-28.321,28.324c-70.376,0-103.372-41.435-103.372-127.449h0.124v-56.643h28.259l0.002-0.074v-16.992h22.656
	v16.992h10.621v14.16h-7.08v15.578h7.08h18.41h7.08v-15.578h-7.08v-14.16h10.619v-16.992h22.658v16.992v0.074h28.382V297.424z"/>
<text transform="matrix(1 0 0 1 116.7178 732.8076)"><tspan x="0" y="0" fill="none" stroke="#000000" stroke-miterlimit="10" font-family="'Eng_HelvLine'" font-size="12">Workshop Cup/Coat Wall Rack</tspan><tspan x="0" y="28.8" fill="none" stroke="#000000" stroke-miterlimit="10" font-family="'Eng_HelvLine'" font-size="12">This design is part of the HOUSE OPENHOUS project - open designs for the home</tspan><tspan x="0" y="57.6" fill="none" stroke="#000000" stroke-miterlimit="10" font-family="'Eng_HelvLine'" font-size="12">see http://stuartchilds.com/HOUS for more information</tspan><tspan x="0" y="86.4" fill="none" stroke="#000000" stroke-miterlimit="10" font-family="'Eng_HelvLine'" font-size="12">see http://stuartchilds.com/HOUS/WCWR for more on this design.</tspan><tspan x="0" y="129.6" fill="none" stroke="#000000" stroke-miterlimit="10" font-family="'Eng_HelvLine'" font-size="12">Designed for 6mm sheet MDF of plywood. If using 3mm - double up the cutting and use 2x parts together on assembly.</tspan><tspan x="0" y="172.8" fill="none" stroke="#000000" stroke-miterlimit="10" font-family="'Eng_HelvLine'" font-size="12">B.O.M.</tspan><tspan x="0" y="201.6" fill="none" stroke="#000000" stroke-miterlimit="10" font-family="'Eng_HelvLine'" font-size="12">M6 16mm bolt</tspan><tspan x="102.862" y="201.6" fill="none" stroke="#000000" stroke-miterlimit="10" font-family="'Eng_HelvLine'" font-size="12">	</tspan><tspan x="108" y="201.6" fill="none" stroke="#000000" stroke-miterlimit="10" font-family="'Eng_HelvLine'" font-size="12" letter-spacing="30">	</tspan><tspan x="144" y="201.6" fill="none" stroke="#000000" stroke-miterlimit="10" font-family="'Eng_HelvLine'" font-size="12">x5</tspan><tspan x="0" y="216" fill="none" stroke="#000000" stroke-miterlimit="10" font-family="'Eng_HelvLine'" font-size="12">M6 nut  </tspan><tspan x="63.348" y="216" fill="none" stroke="#000000" stroke-miterlimit="10" font-family="'Eng_HelvLine'" font-size="12" letter-spacing="2">	</tspan><tspan x="72" y="216" fill="none" stroke="#000000" stroke-miterlimit="10" font-family="'Eng_HelvLine'" font-size="12" letter-spacing="30">		</tspan><tspan x="144" y="216" fill="none" stroke="#000000" stroke-miterlimit="10" font-family="'Eng_HelvLine'" font-size="12">x5</tspan><tspan x="0" y="244.8" fill="none" stroke="#000000" stroke-miterlimit="10" font-family="'Eng_HelvLine'" font-size="12">Use 3mm holes for wall mounting.</tspan><tspan x="0" y="273.6" fill="none" stroke="#000000" stroke-miterlimit="10" font-family="'Eng_HelvLine'" font-size="12">Based on origial WCTR - Workshop Cup Tree by oomlout</tspan><tspan x="0" y="302.4" fill="none" stroke="#000000" stroke-miterlimit="10" font-family="'Eng_HelvLine'" font-size="12">See https://www.thingiverse.com/thing:8294 for source of original file</tspan></text>
</svg>
