<?xml version="1.0" encoding="utf-8"?>
<!-- Generator: Adobe Illustrator 15.1.0, SVG Export Plug-In . SVG Version: 6.00 Build 0)  -->
<!DOCTYPE svg PUBLIC "-//W3C//DTD SVG 1.1//EN" "http://www.w3.org/Graphics/SVG/1.1/DTD/svg11.dtd">
<svg version="1.1" id="Layer_1" xmlns="http://www.w3.org/2000/svg" xmlns:xlink="http://www.w3.org/1999/xlink" x="0px" y="0px"
	 width="2267.72px" height="1700.79px" viewBox="0 0 2267.72 1700.79" enable-background="new 0 0 2267.72 1700.79"
	 xml:space="preserve">
<g>
	<path fill="none" stroke="#000000" stroke-miterlimit="10" d="M2225.198,1615.748c0,23.482-19.036,42.52-42.52,42.52H85.041
		c-23.483,0-42.52-19.037-42.52-42.52V85.039c0-23.483,19.037-42.52,42.52-42.52h2097.638c23.483,0,42.52,19.037,42.52,42.52
		V1615.748z"/>
	<rect x="42.521" y="1488.188" fill="none" stroke="#000000" stroke-miterlimit="10" width="2182.677" height="85.039"/>
</g>
<text transform="matrix(1 0 0 1 68.3682 1538.377)"><tspan x="0" y="0" fill="none" stroke="#F68827" stroke-miterlimit="10" font-family="'Eng_HelvLine'" font-size="36">Date: 26-03-14</tspan><tspan x="309.669" y="0" fill="none" stroke="#F68827" stroke-miterlimit="10" font-family="'Eng_HelvLine'" font-size="36" letter-spacing="-3">	</tspan><tspan x="324" y="0" fill="none" stroke="#F68827" stroke-miterlimit="10" font-family="'Eng_HelvLine'" font-size="36" letter-spacing="18">	</tspan><tspan x="360" y="0" fill="none" stroke="#F68827" stroke-miterlimit="10" font-family="'Eng_HelvLine'" font-size="36">File Name: S-PARC-06</tspan><tspan x="856.831" y="0" fill="none" stroke="#F68827" stroke-miterlimit="10" font-family="'Eng_HelvLine'" font-size="36" letter-spacing="-10">	</tspan><tspan x="864.001" y="0" fill="none" stroke="#F68827" stroke-miterlimit="10" font-family="'Eng_HelvLine'" font-size="36" letter-spacing="18">	</tspan><tspan x="900.001" y="0" fill="none" stroke="#F68827" stroke-miterlimit="10" font-family="'Eng_HelvLine'" font-size="36">Version:</tspan><tspan x="1077.838" y="0" fill="none" stroke="#F68827" stroke-miterlimit="10" font-family="'Eng_HelvLine'" font-size="36" letter-spacing="-15">	</tspan><tspan x="1080" y="0" fill="none" stroke="#F68827" stroke-miterlimit="10" font-family="'Eng_HelvLine'" font-size="36" letter-spacing="18">	</tspan><tspan x="1116" y="0" fill="none" stroke="#F68827" stroke-miterlimit="10" font-family="'Eng_HelvLine'" font-size="36">Contributor: Stuart Childs stuchilds</tspan><tspan x="1902.017" y="0" fill="none" stroke="#F68827" stroke-miterlimit="10" font-family="'MyriadPro-Regular'" font-size="36">@</tspan><tspan x="1928.549" y="0" fill="none" stroke="#F68827" stroke-miterlimit="10" font-family="'Eng_HelvLine'" font-size="36">gmail.com</tspan><tspan x="2151.206" y="0" fill="none" stroke="#F68827" stroke-miterlimit="10" font-family="'Eng_HelvLine'" font-size="36" letter-spacing="-9">	</tspan><tspan x="2160.002" y="0" fill="none" stroke="#F68827" stroke-miterlimit="10" font-family="'Eng_HelvLine'" font-size="36" letter-spacing="18">	</tspan><tspan x="0" y="86.4" fill="none" stroke="#F68827" stroke-miterlimit="10" font-family="'Eng_HelvLine'" font-size="36">License: Creative Commons Attribution 4.0 International License</tspan><tspan x="1424.217" y="86.4" fill="none" stroke="#F68827" stroke-miterlimit="10" font-family="'Eng_HelvLine'" font-size="36" letter-spacing="-2">	</tspan><tspan x="1440.002" y="86.4" fill="none" stroke="#F68827" stroke-miterlimit="10" font-family="'Eng_HelvLine'" font-size="36" letter-spacing="18">	</tspan></text>
<rect x="2172.826" y="1443.826" fill="none" stroke="#F68827" stroke-miterlimit="10" width="28.347" height="28.347"/>
<g>
	<path fill="none" stroke="#F68827" stroke-miterlimit="10" d="M1830.944,1460.075c0,2.881,2.197,4.033,4.771,4.033
		c2.611,0,4.249-1.639,4.304-3.241c0.054-1.585-0.757-2.845-2.359-3.188l-4.411-0.954c-1.242-0.27-1.98-0.99-1.98-2.683
		s1.423-3.15,4.016-3.15s4.483,1.224,4.411,3.366c0.072-2.143-1.818-3.366-4.411-3.366s-4.016,1.458-4.016,3.15
		s0.702,2.395,1.98,2.683l4.411,0.954c1.639,0.343,2.413,1.603,2.359,3.188c-0.055,1.603-1.692,3.241-4.304,3.241
		C1833.142,1464.108,1830.944,1462.956,1830.944,1460.075z"/>
	<path fill="none" stroke="#F68827" stroke-miterlimit="10" d="M1851.719,1461.065c-0.054,1.512-1.674,2.935-3.205,2.935
		c-1.512,0-4.123-0.252-4.123-4.771c0-4.501,2.917-4.556,4.195-4.556s2.971,0.99,3.079,2.251c-0.108-1.261-1.801-2.251-3.079-2.251
		s-4.195,0.055-4.195,4.556c0,4.52,2.611,4.771,4.123,4.771C1850.045,1464,1851.665,1462.577,1851.719,1461.065z"/>
	<path fill="none" stroke="#F68827" stroke-miterlimit="10" d="M1858.629,1464.108c-1.494-0.055-2.683-0.522-2.683-2.179
		c0-1.675,1.009-2.377,2.917-2.557c1.891-0.181,2.737-0.469,3.637-0.721c-0.899,0.252-1.746,0.54-3.637,0.721
		c-1.908,0.18-2.917,0.882-2.917,2.557C1855.946,1463.586,1857.135,1464.054,1858.629,1464.108c1.477,0.054,3.331-1.692,3.871-2.467
		C1861.96,1462.416,1860.105,1464.162,1858.629,1464.108z M1862.5,1462.83v-5.924c0-0.757-0.378-2.197-2.809-2.197
		s-3.331,1.099-3.331,2.232c0-1.134,0.9-2.232,3.331-2.232s2.809,1.44,2.809,2.197V1462.83c0,1.08,1.279,1.17,1.279,1.17
		S1862.5,1463.91,1862.5,1462.83z"/>
	<path fill="none" stroke="#F68827" stroke-miterlimit="10" d="M1869.986,1464v-12.981V1464z"/>
	<path fill="none" stroke="#F68827" stroke-miterlimit="10" d="M1875.999,1459.066h8.048c0-1.998-0.792-4.556-3.655-4.556
		c-2.845,0-4.411,1.945-4.411,4.916c0,2.989,2.017,4.573,4.411,4.501c2.413-0.072,3.457-1.944,3.583-2.61
		c-0.126,0.666-1.17,2.538-3.583,2.61c-2.395,0.072-4.411-1.512-4.411-4.501c0-2.971,1.566-4.916,4.411-4.916
		c2.863,0,3.655,2.558,3.655,4.556H1875.999z"/>
	<path fill="none" stroke="#F68827" stroke-miterlimit="10" d="M1890.436,1458.311v-0.99V1458.311z M1890.436,1464v-0.99V1464z"/>
	<path fill="none" stroke="#F68827" stroke-miterlimit="10" d="M1911.693,1456.42c0.036-0.45-0.558-1.711-2.826-1.801
		c-2.269-0.054-3.313,0.666-3.313,2.053c0,1.404,1.171,1.837,1.603,1.963l3.403,1.008c0.45,0.108,1.53,0.595,1.53,1.927
		s-1.422,2.431-3.223,2.431s-3.439-0.954-3.439-2.358c0,1.404,1.639,2.358,3.439,2.358s3.223-1.099,3.223-2.431
		s-1.08-1.818-1.53-1.927l-3.403-1.008c-0.432-0.126-1.603-0.559-1.603-1.963c0-1.387,1.045-2.106,3.313-2.053
		C1911.136,1454.709,1911.729,1455.97,1911.693,1456.42z"/>
	<path fill="none" stroke="#F68827" stroke-miterlimit="10" d="M1916.265,1459.337c0-3.638,1.729-4.718,3.817-4.718
		c2.106,0,3.816,1.08,3.816,4.718c0,3.655-1.71,4.699-3.816,4.699C1917.993,1464.036,1916.265,1462.992,1916.265,1459.337z
		 M1916.265,1459.337c0-3.638,1.729-4.718,3.817-4.718c2.106,0,3.816,1.08,3.816,4.718c0,3.655-1.71,4.699-3.816,4.699
		C1917.993,1464.036,1916.265,1462.992,1916.265,1459.337z M1923.935,1454.619v13.018V1454.619z"/>
	<path fill="none" stroke="#F68827" stroke-miterlimit="10" d="M1931.133,1454.728c0,0,0,6.031,0,6.859
		c0,0.829,0.828,2.377,3.114,2.396c2.305,0.018,3.529-1.765,3.529-3.422c0,1.657-1.225,3.439-3.529,3.422
		c-2.286-0.019-3.114-1.566-3.114-2.396C1931.133,1460.759,1931.133,1454.728,1931.133,1454.728z M1937.776,1454.728v9.255V1454.728
		z"/>
	<path fill="none" stroke="#F68827" stroke-miterlimit="10" d="M1950.609,1461.642c-0.54,0.774-2.395,2.521-3.871,2.467
		c-1.494-0.055-2.683-0.522-2.683-2.179c0-1.675,1.009-2.377,2.917-2.557c1.891-0.181,2.737-0.469,3.637-0.721
		c-0.899,0.252-1.746,0.54-3.637,0.721c-1.908,0.18-2.917,0.882-2.917,2.557c0,1.656,1.188,2.124,2.683,2.179
		C1948.215,1464.162,1950.069,1462.416,1950.609,1461.642z M1951.889,1464c0,0-1.279-0.09-1.279-1.17v-5.924
		c0-0.757-0.378-2.197-2.809-2.197s-3.331,1.099-3.331,2.232c0-1.134,0.9-2.232,3.331-2.232s2.809,1.44,2.809,2.197v5.924
		C1950.609,1463.91,1951.889,1464,1951.889,1464z"/>
	<path fill="none" stroke="#F68827" stroke-miterlimit="10" d="M1961.68,1454.764c-1.675-0.019-3.584,2.448-3.529,4.519
		C1958.096,1457.212,1960.005,1454.745,1961.68,1454.764z M1958.15,1454.764V1464V1454.764z"/>
	<path fill="none" stroke="#F68827" stroke-miterlimit="10" d="M1965.836,1459.066h8.048c0-1.998-0.792-4.556-3.655-4.556
		c-2.845,0-4.411,1.945-4.411,4.916c0,2.989,2.017,4.573,4.411,4.501c2.413-0.072,3.457-1.944,3.584-2.61
		c-0.127,0.666-1.171,2.538-3.584,2.61c-2.395,0.072-4.411-1.512-4.411-4.501c0-2.971,1.566-4.916,4.411-4.916
		c2.863,0,3.655,2.558,3.655,4.556H1965.836z"/>
	<path fill="none" stroke="#F68827" stroke-miterlimit="10" d="M1989.29,1451.324V1451V1451.324z M1989.29,1463.982v-9.237
		C1989.29,1454.745,1989.29,1464.018,1989.29,1463.982z"/>
	<path fill="none" stroke="#F68827" stroke-miterlimit="10" d="M1998.723,1454.619c-2.269-0.054-3.313,0.666-3.313,2.053
		c0,1.404,1.171,1.837,1.603,1.963l3.403,1.008c0.45,0.108,1.53,0.595,1.53,1.927s-1.422,2.431-3.223,2.431
		s-3.439-0.954-3.439-2.358c0,1.404,1.639,2.358,3.439,2.358s3.223-1.099,3.223-2.431s-1.08-1.818-1.53-1.927l-3.403-1.008
		c-0.432-0.126-1.603-0.559-1.603-1.963C1995.409,1455.285,1996.454,1454.565,1998.723,1454.619c2.269,0.09,2.862,1.351,2.826,1.801
		C2001.585,1455.97,2000.991,1454.709,1998.723,1454.619z"/>
	<path fill="none" stroke="#F68827" stroke-miterlimit="10" d="M2018.198,1464v-12.981c0,2.214-2.143,2.736-3.062,2.809
		c0.919-0.072,3.062-0.595,3.062-2.809V1464z"/>
	<path fill="none" stroke="#F68827" stroke-miterlimit="10" d="M2024.245,1457.518c0-3.564,0.757-6.481,3.926-6.481
		s3.925,2.917,3.925,6.481c0,3.584-0.756,6.482-3.925,6.482S2024.245,1461.102,2024.245,1457.518z M2024.245,1457.518
		c0-3.564,0.757-6.481,3.926-6.481s3.925,2.917,3.925,6.481c0,3.584-0.756,6.482-3.925,6.482S2024.245,1461.102,2024.245,1457.518z"
		/>
	<path fill="none" stroke="#F68827" stroke-miterlimit="10" d="M2044.443,1464c0,0,0-6.014,0-6.842s-0.54-2.377-2.827-2.395
		c-2.287-0.019-3.313,1.764-3.313,3.421c0-1.657,1.026-3.439,3.313-3.421c2.287,0.018,2.827,1.566,2.827,2.395
		S2044.443,1464,2044.443,1464z M2038.303,1464v-9.236V1464z M2050.637,1464c0,0,0-6.014,0-6.842s-0.792-2.377-3.079-2.395
		c-2.286-0.019-3.114,1.764-3.114,3.421c0-1.657,0.828-3.439,3.114-3.421c2.287,0.018,3.079,1.566,3.079,2.395
		S2050.637,1464,2050.637,1464z"/>
	<path fill="none" stroke="#F68827" stroke-miterlimit="10" d="M2064.207,1464c0,0,0-6.014,0-6.842s-0.54-2.377-2.827-2.395
		c-2.287-0.019-3.313,1.764-3.313,3.421c0-1.657,1.026-3.439,3.313-3.421c2.287,0.018,2.827,1.566,2.827,2.395
		S2064.207,1464,2064.207,1464z M2058.066,1464v-9.236V1464z M2070.4,1464c0,0,0-6.014,0-6.842s-0.792-2.377-3.079-2.395
		c-2.286-0.019-3.114,1.764-3.114,3.421c0-1.657,0.828-3.439,3.114-3.421c2.287,0.018,3.079,1.566,3.079,2.395
		S2070.4,1464,2070.4,1464z"/>
	<path fill="none" stroke="#F68827" stroke-miterlimit="10" d="M2084.886,1464l3.709-5.149l-2.952-4.087l2.952,4.087l2.972-4.087
		l-2.972,4.087l3.728,5.149l-3.728-5.149L2084.886,1464z"/>
	<path fill="none" stroke="#F68827" stroke-miterlimit="10" d="M2108.63,1464v-12.981c0,2.214-2.143,2.736-3.062,2.809
		c0.919-0.072,3.062-0.595,3.062-2.809V1464z"/>
	<path fill="none" stroke="#F68827" stroke-miterlimit="10" d="M2114.676,1457.518c0-3.564,0.757-6.481,3.926-6.481
		s3.925,2.917,3.925,6.481c0,3.584-0.756,6.482-3.925,6.482S2114.676,1461.102,2114.676,1457.518z M2114.676,1457.518
		c0-3.564,0.757-6.481,3.926-6.481s3.925,2.917,3.925,6.481c0,3.584-0.756,6.482-3.925,6.482S2114.676,1461.102,2114.676,1457.518z"
		/>
	<path fill="none" stroke="#F68827" stroke-miterlimit="10" d="M2134.875,1457.158c0-0.828-0.54-2.377-2.827-2.395
		c-2.287-0.019-3.313,1.764-3.313,3.421c0-1.657,1.026-3.439,3.313-3.421C2134.335,1454.781,2134.875,1456.33,2134.875,1457.158
		s0,6.842,0,6.842S2134.875,1457.986,2134.875,1457.158z M2128.734,1454.764V1464V1454.764z M2141.068,1457.158
		c0-0.828-0.792-2.377-3.079-2.395c-2.286-0.019-3.114,1.764-3.114,3.421c0-1.657,0.828-3.439,3.114-3.421
		C2140.276,1454.781,2141.068,1456.33,2141.068,1457.158s0,6.842,0,6.842S2141.068,1457.986,2141.068,1457.158z"/>
	<path fill="none" stroke="#F68827" stroke-miterlimit="10" d="M2154.639,1457.158c0-0.828-0.54-2.377-2.827-2.395
		c-2.287-0.019-3.313,1.764-3.313,3.421c0-1.657,1.026-3.439,3.313-3.421C2154.099,1454.781,2154.639,1456.33,2154.639,1457.158
		s0,6.842,0,6.842S2154.639,1457.986,2154.639,1457.158z M2148.498,1454.764V1464V1454.764z M2160.832,1457.158
		c0-0.828-0.792-2.377-3.079-2.395c-2.286-0.019-3.114,1.764-3.114,3.421c0-1.657,0.828-3.439,3.114-3.421
		C2160.04,1454.781,2160.832,1456.33,2160.832,1457.158s0,6.842,0,6.842S2160.832,1457.986,2160.832,1457.158z"/>
</g>
<path fill="none" stroke="#FFF200" stroke-width="0.7087" stroke-linecap="round" stroke-linejoin="round" d="M371.456,296.189
	H130.512c-7.852,0-14.176,6.324-14.176,14.176v147.4c0,7.852,6.324,14.176,14.176,14.176h240.943
	c7.852,0,14.176-6.324,14.176-14.176v-147.4C385.631,302.513,379.307,296.189,371.456,296.189z"/>
<circle fill="none" stroke="#000000" stroke-width="0.7087" stroke-linecap="round" stroke-linejoin="round" stroke-miterlimit="22.9256" cx="364.383" cy="452.464" r="4.252"/>
<circle fill="none" stroke="#000000" stroke-width="0.7087" stroke-linecap="round" stroke-linejoin="round" stroke-miterlimit="22.9256" cx="137.583" cy="452.464" r="4.252"/>
<circle fill="none" stroke="#000000" stroke-width="0.7087" stroke-linecap="round" stroke-linejoin="round" stroke-miterlimit="22.9256" cx="364.383" cy="315.666" r="4.252"/>
<circle fill="none" stroke="#000000" stroke-width="0.7087" stroke-linecap="round" stroke-linejoin="round" stroke-miterlimit="22.9256" cx="137.583" cy="315.666" r="4.252"/>
<rect x="129.095" y="307.531" fill="none" stroke="#F58220" stroke-width="0.7087" stroke-linecap="round" stroke-linejoin="round" stroke-miterlimit="22.9256" width="243.78" height="153.07"/>
<path fill="none" stroke="#FFF200" stroke-width="0.7087" stroke-linecap="round" stroke-linejoin="round" d="M371.456,106.268
	H130.512c-7.852,0-14.176,6.324-14.176,14.176v147.399c0,7.852,6.324,14.176,14.176,14.176h240.943
	c7.852,0,14.176-6.324,14.176-14.176V120.444C385.631,112.592,379.307,106.268,371.456,106.268z"/>
<circle fill="none" stroke="#000000" stroke-width="0.7087" stroke-linecap="round" stroke-linejoin="round" stroke-miterlimit="22.9256" cx="364.383" cy="262.543" r="4.252"/>
<circle fill="none" stroke="#000000" stroke-width="0.7087" stroke-linecap="round" stroke-linejoin="round" stroke-miterlimit="22.9256" cx="364.383" cy="125.744" r="4.252"/>
<circle fill="none" stroke="#000000" stroke-width="0.7087" stroke-linecap="round" stroke-linejoin="round" stroke-miterlimit="22.9256" cx="137.583" cy="125.744" r="4.252"/>
<path fill="none" stroke="#000000" stroke-width="0.7087" stroke-linecap="round" stroke-linejoin="round" d="M156.082,244.289
	h-9.921c-1.963,0-3.544,1.582-3.544,3.545v10.458h-5.033c-2.348,0-4.251,1.904-4.251,4.252c0,2.349,1.903,4.252,4.251,4.252h5.033
	v5.132c0,1.963,1.581,3.543,3.544,3.543h9.921c1.963,0,3.544-1.58,3.544-3.543v-24.094
	C159.625,245.871,158.044,244.289,156.082,244.289z"/>
<path fill="none" stroke="#A54686" stroke-width="0.7087" stroke-linecap="round" stroke-linejoin="round" stroke-miterlimit="22.9256" d="
	M318.401,186.369c0,1.48,0.7,2.256,2.104,2.325l1.986-8.73c0.249-1.184,1.223-1.776,2.922-1.776c2.338,0,3.506,1.363,3.506,4.091
	v4.09c0,2.727-1.363,4.09-4.09,4.09h-4.091c-2.728,0-4.091-1.364-4.091-4.09v-4.09c0-2.728,1.363-4.091,4.091-4.091v1.753
	c-1.559,0-2.337,0.779-2.337,2.338V186.369z M327.166,182.278c0-1.559-0.778-2.338-2.337-2.338c-0.297,0-0.498,0.16-0.608,0.479
	l-1.905,8.286h2.514c1.559,0,2.337-0.779,2.337-2.337V182.278z"/>
<path fill="none" stroke="#A54686" stroke-width="0.7087" stroke-linecap="round" stroke-linejoin="round" stroke-miterlimit="22.9256" d="
	M316.647,198.056v4.675h1.754v-4.675c0-2.727,1.363-4.09,4.09-4.09h6.428v-1.753h-6.428
	C318.595,192.212,316.647,194.16,316.647,198.056z"/>
<path fill="none" stroke="#A54686" stroke-width="0.7087" stroke-linecap="round" stroke-linejoin="round" stroke-miterlimit="22.9256" d="
	M320.617,176.829h4.091c2.727,0,4.09-1.363,4.09-4.09v-7.217h6.502v-1.753h-13.146v0.007c-3.747,0.073-5.625,2.015-5.627,5.833v3.13
	C316.526,175.465,317.889,176.829,320.617,176.829z M320.617,175.076c-1.559,0-2.338-0.779-2.338-2.337v-3.126
	c0-2.727,1.364-4.09,4.091-4.09h4.675v7.217c0,1.559-0.778,2.337-2.337,2.337H320.617z"/>
<path fill="none" stroke="#A54686" stroke-width="0.7087" stroke-linecap="round" stroke-linejoin="round" stroke-miterlimit="22.9256" d="
	M318.401,212.665c0,1.48,0.7,2.256,2.104,2.326l1.986-8.731c0.249-1.185,1.223-1.776,2.922-1.776c2.338,0,3.506,1.363,3.506,4.09
	v4.091c0,2.727-1.363,4.091-4.09,4.091h-4.091c-2.728,0-4.091-1.364-4.091-4.091v-4.091c0-2.727,1.363-4.09,4.091-4.09v1.753
	c-1.559,0-2.337,0.779-2.337,2.337V212.665z M327.166,208.574c0-1.558-0.778-2.337-2.337-2.337c-0.297,0-0.498,0.16-0.608,0.479
	l-1.905,8.287h2.514c1.559,0,2.337-0.779,2.337-2.337V208.574z"/>
<rect x="311.387" y="218.508" fill="none" stroke="#A54686" stroke-width="0.7087" stroke-linecap="round" stroke-linejoin="round" stroke-miterlimit="22.9256" width="17.531" height="1.753"/>
<rect x="311.387" y="222.015" fill="none" stroke="#A54686" stroke-width="0.7087" stroke-linecap="round" stroke-linejoin="round" stroke-miterlimit="22.9256" width="17.531" height="1.753"/>
<path fill="none" stroke="#A54686" stroke-width="0.7087" stroke-linecap="round" stroke-linejoin="round" stroke-miterlimit="22.9256" d="
	M327.166,229.318c0-1.48-0.701-2.255-2.104-2.326l-1.986,8.73c-0.249,1.185-1.223,1.776-2.922,1.776
	c-2.337,0-3.506-1.363-3.506-4.09v-4.091c0-2.727,1.363-4.09,4.091-4.09h4.091c2.727,0,4.09,1.363,4.09,4.09v4.091
	c0,2.727-1.363,4.09-4.09,4.09v-1.754c1.559,0,2.337-0.778,2.337-2.336V229.318z M318.401,233.41c0,1.558,0.778,2.336,2.337,2.336
	c0.296,0,0.499-0.159,0.607-0.479l1.905-8.286h-2.513c-1.559,0-2.337,0.779-2.337,2.337V233.41z"/>
<rect x="311.387" y="238.668" fill="none" stroke="#A54686" stroke-width="0.7087" stroke-linecap="round" stroke-linejoin="round" stroke-miterlimit="22.9256" width="17.531" height="1.753"/>
<rect x="311.387" y="242.174" fill="none" stroke="#A54686" stroke-width="0.7087" stroke-linecap="round" stroke-linejoin="round" stroke-miterlimit="22.9256" width="17.531" height="1.753"/>
<path fill="none" stroke="#A54686" stroke-width="0.7087" stroke-linecap="round" stroke-linejoin="round" stroke-miterlimit="22.9256" d="
	M318.401,253.862c0,1.48,0.7,2.256,2.104,2.325l1.986-8.729c0.249-1.185,1.223-1.776,2.922-1.776c2.338,0,3.506,1.363,3.506,4.09
	v4.091c0,2.728-1.363,4.091-4.09,4.091h-4.091c-2.728,0-4.091-1.363-4.091-4.091v-4.091c0-2.727,1.363-4.09,4.091-4.09v1.752
	c-1.559,0-2.337,0.779-2.337,2.338V253.862z M327.166,249.771c0-1.559-0.778-2.338-2.337-2.338c-0.297,0-0.498,0.16-0.608,0.48
	l-1.905,8.285h2.514c1.559,0,2.337-0.779,2.337-2.337V249.771z"/>
<path fill="none" stroke="#A54686" stroke-width="0.7087" stroke-linecap="round" stroke-linejoin="round" stroke-miterlimit="22.9256" d="
	M309.727,148.499c-0.003,0-0.018-0.008-0.039-0.019c0.012,0.007,0.021,0.014,0.033,0.021L309.727,148.499z M337.763,149.276
	l0.207-0.021c-0.023,0.003-0.161,0.016-0.237,0.013L337.763,149.276z M337.702,149.283l0.012-0.017
	c-0.021-0.002-0.035-0.007-0.033-0.015c0.019-0.062,0.004-0.015-0.012,0.034L337.702,149.283z M337.763,149.276l-0.03-0.009
	c-0.008,0-0.014,0-0.02-0.001l-0.012,0.017L337.763,149.276z M339.203,147.159c-0.083-0.024-0.187-0.08-0.063,0.019L339.203,147.159
	z M336.067,147.188c-0.396,0.219-0.992,0.449-1.842,0.551c-1.196,0.144-1.99-0.096-2.402-0.282L331,147.229
	c-0.567,0.081-1.869,0.258-2.387,0.258c-0.562,0-1.367-0.188-1.731-0.282h-1.067c-0.275,0.067-0.811,0.191-1.306,0.267
	c-0.63,0.097-1.111,0.021-1.42-0.07l-1.101-0.19c-0.458,0.029-1.781,0.097-2.631-0.022c-0.183-0.025-0.506,0.074-0.861,0.184
	c-0.527,0.163-1.098,0.339-1.838,0.371c-1.027,0.044-1.737-0.1-2.371-0.227c-0.168-0.035-0.33-0.067-0.548-0.098
	c-0.631-0.09-2.321-0.221-2.56-0.239c-0.266,0.007-1.066,0.032-1.645,0.091c0.019,0.154,0.037,0.307,0.045,0.43
	c0.02,0.302,0.067,0.591,0.146,0.797c0,0,0,0,0,0l-0.006,0.002c0.734,0.479,1.003,1.385,1.246,2.206
	c0.032,0.111,0.064,0.22,0.077,0.261c0.07,0.229,0.216,0.51,0.415,0.799c0.197,0.284,0.437,0.56,0.703,0.788
	c0.208,0.179,0.424,0.393,0.675,0.642c0.687,0.683,1.687,1.676,3.231,2.502c1.539,0.823,2.688,0.754,3.488,0.707
	c0.24-0.015,0.459-0.028,0.611-0.028c0.672,0,1.173,0.131,1.821,0.301c0.423,0.11,0.925,0.242,1.601,0.35
	c1.094,0.175,1.802-0.017,2.636-0.242c0.186-0.05,0.376-0.102,0.599-0.157c0.394-0.099,0.631-0.233,0.855-0.361
	c0.503-0.284,0.971-0.55,1.99-0.667c0.721-0.083,1.135-0.244,1.646-0.443c0.353-0.137,0.742-0.289,1.263-0.449
	c0.503-0.155,0.802-0.63,1.062-1.042c0.184-0.292,0.355-0.564,0.609-0.842c0.515-0.561,1.127-0.915,1.5-1.095l0.869-0.921
	l0.242-0.68l0.28-0.789l0.427-0.044l-0.074-0.059c-0.459-0.368-0.589-0.803-0.752-1.347c-0.065-0.219-0.143-0.474-0.246-0.692
	L336.067,147.188z M309.727,141.643l-0.006-0.002c-0.012,0.007-0.021,0.014-0.033,0.021
	C309.709,141.65,309.724,141.643,309.727,141.643z M337.763,140.864l-0.03,0.009c0.076-0.003,0.214,0.01,0.237,0.013
	L337.763,140.864z M337.702,140.858l0.012,0.017c0.006,0,0.012-0.001,0.02-0.001l0.03-0.009L337.702,140.858z M337.668,140.854
	c0.016,0.05,0.03,0.097,0.012,0.034c-0.002-0.007,0.01-0.012,0.03-0.014l-0.013-0.017L337.668,140.854z M337.713,140.875
	l-0.012-0.017l-0.004,0l0.013,0.017H337.713z M339.139,142.963c-0.123,0.099-0.02,0.043,0.063,0.019L339.139,142.963z
	 M337.495,140.902c0.029-0.022,0.054-0.041,0.076-0.058l-0.429-0.044l-0.28-0.788l-0.242-0.681l-0.869-0.921
	c-0.373-0.181-0.985-0.535-1.5-1.096c-0.254-0.277-0.426-0.551-0.609-0.842c-0.26-0.412-0.559-0.887-1.062-1.042
	c-0.521-0.16-0.91-0.312-1.263-0.449c-0.512-0.199-0.926-0.36-1.646-0.444c-1.02-0.117-1.487-0.382-1.99-0.667
	c-0.225-0.127-0.462-0.262-0.855-0.36c-0.223-0.056-0.413-0.107-0.599-0.157c-0.834-0.226-1.542-0.417-2.636-0.242
	c-0.676,0.108-1.178,0.24-1.601,0.35c-0.648,0.169-1.149,0.3-1.821,0.3c-0.152,0-0.371-0.013-0.611-0.027
	c-0.801-0.048-1.949-0.117-3.488,0.707c-1.545,0.826-2.545,1.819-3.231,2.502c-0.251,0.25-0.467,0.463-0.675,0.642
	c-0.267,0.228-0.506,0.504-0.703,0.788c-0.199,0.29-0.345,0.571-0.415,0.799c-0.013,0.042-0.045,0.149-0.077,0.261
	c-0.243,0.821-0.512,1.727-1.246,2.207l0.006,0.002l0,0c-0.079,0.207-0.127,0.496-0.146,0.797c-0.008,0.123-0.026,0.275-0.045,0.429
	c0.578,0.06,1.379,0.084,1.645,0.091c0.238-0.018,1.929-0.149,2.56-0.239c0.218-0.031,0.38-0.064,0.548-0.098
	c0.634-0.128,1.344-0.272,2.371-0.227c0.74,0.032,1.311,0.208,1.838,0.371c0.355,0.109,0.678,0.209,0.861,0.183
	c0.85-0.118,2.173-0.05,2.63-0.021l1.103-0.191c0.309-0.09,0.789-0.167,1.419-0.07c0.495,0.076,1.03,0.2,1.306,0.267h1.067
	c0.365-0.094,1.169-0.282,1.731-0.282c0.517,0,1.818,0.178,2.387,0.258l0.822-0.228c0.412-0.187,1.206-0.426,2.402-0.282
	c0.85,0.102,1.445,0.332,1.842,0.551l0.43-0.011c0.104-0.217,0.181-0.473,0.246-0.692
	C336.906,141.705,337.036,141.27,337.495,140.902z M338.733,145.768c0.283,0.497,0.426,0.972,0.545,1.368
	c0.012,0.04-0.028,0.036-0.075,0.022l-0.063,0.019l0.002,0.001c0.071,0.058-0.01-0.013,0.059,0.038
	c0.583,0.424,1.51,1.099,1.016,2.781c-0.229,0.78-0.646,1.239-1.037,1.508l-0.158,0.447l-0.094,0.264l-0.191,0.202l-1.238,1.312
	l-0.214,0.227l-0.303,0.109c-0.001,0.001-0.429,0.153-0.784,0.54c-0.078,0.085-0.195,0.271-0.32,0.469
	c-0.502,0.797-1.08,1.716-2.52,2.159c-0.442,0.136-0.781,0.268-1.086,0.387c-0.695,0.271-1.256,0.489-2.3,0.609
	c-0.492,0.057-0.73,0.191-0.985,0.336c-0.385,0.218-0.79,0.447-1.52,0.63c-0.18,0.045-0.371,0.097-0.556,0.146
	c-1.12,0.303-2.07,0.56-3.733,0.294c-0.805-0.129-1.372-0.277-1.85-0.402c-0.447-0.117-0.793-0.207-1.158-0.207
	c-0.17,0-0.307,0.008-0.457,0.017c-1.101,0.066-2.683,0.161-4.885-1.017c-1.896-1.014-3.057-2.167-3.852-2.957
	c-0.211-0.209-0.391-0.388-0.531-0.508c-0.442-0.38-0.838-0.833-1.157-1.295c-0.353-0.51-0.62-1.047-0.767-1.523
	c-0.043-0.137-0.065-0.214-0.088-0.292c-0.109-0.367,0.071-0.625-0.079-0.7c-0.522-0.262-0.878-0.733-1.1-1.312
	c-0.175-0.46-0.276-1.018-0.312-1.563c-0.012-0.176-0.027-0.292-0.041-0.404c-0.129-1.021-0.236-1.866,0.759-2.402
	c-0.995-0.536-0.888-1.381-0.759-2.402c0.014-0.111,0.029-0.229,0.041-0.404c0.035-0.545,0.137-1.104,0.312-1.563
	c0.222-0.579,0.577-1.051,1.1-1.312c0.15-0.075-0.03-0.333,0.079-0.7c0.022-0.077,0.045-0.155,0.088-0.292
	c0.146-0.477,0.414-1.014,0.767-1.523c0.319-0.462,0.715-0.916,1.157-1.295c0.141-0.12,0.32-0.299,0.531-0.508
	c0.795-0.791,1.955-1.943,3.852-2.958c2.202-1.178,3.784-1.083,4.885-1.017c0.15,0.009,0.287,0.018,0.457,0.018
	c0.365,0,0.711-0.091,1.158-0.208c0.478-0.125,1.045-0.273,1.85-0.402c1.663-0.266,2.613-0.008,3.733,0.294
	c0.185,0.05,0.376,0.102,0.556,0.147c0.729,0.182,1.135,0.412,1.52,0.629c0.255,0.145,0.493,0.279,0.985,0.336
	c1.044,0.121,1.604,0.339,2.299,0.609c0.306,0.119,0.644,0.25,1.087,0.387c1.439,0.443,2.018,1.362,2.52,2.159
	c0.125,0.198,0.242,0.384,0.32,0.469c0.355,0.387,0.783,0.54,0.784,0.54l0.303,0.109l0.214,0.227l1.238,1.312l0.191,0.202
	l0.094,0.263l0.158,0.447c0.392,0.269,0.808,0.729,1.037,1.509c0.494,1.682-0.432,2.356-1.016,2.781l-0.003-0.003l-0.056,0.041
	l-0.002,0.001l0.063,0.019c0.047-0.014,0.087-0.018,0.075,0.022c-0.119,0.396-0.262,0.871-0.545,1.368l-0.003-0.001
	c-0.171,0.297-0.362,0.525-0.563,0.699c0.201,0.174,0.393,0.401,0.563,0.699L338.733,145.768z"/>
<circle fill="none" stroke="#000000" stroke-width="0.7087" stroke-linecap="round" stroke-linejoin="round" stroke-miterlimit="22.9256" cx="279.347" cy="165.78" r="4.252"/>
<circle fill="none" stroke="#000000" stroke-width="0.7087" stroke-linecap="round" stroke-linejoin="round" stroke-miterlimit="22.9256" cx="222.655" cy="165.78" r="4.252"/>
<circle fill="none" stroke="#000000" stroke-width="0.7087" stroke-linecap="round" stroke-linejoin="round" stroke-miterlimit="22.9256" cx="279.347" cy="222.473" r="4.252"/>
<circle fill="none" stroke="#000000" stroke-width="0.7087" stroke-linecap="round" stroke-linejoin="round" stroke-miterlimit="22.9256" cx="222.655" cy="222.473" r="4.252"/>
<path fill="none" stroke="#000000" stroke-width="0.7087" stroke-linecap="round" stroke-linejoin="round" stroke-miterlimit="22.9256" d="
	M250.967,161.562c-17.999,0-32.599,14.592-32.599,32.598c0,17.999,14.6,32.599,32.599,32.599s32.599-14.6,32.599-32.599
	C283.566,176.154,268.966,161.562,250.967,161.562z"/>
<path fill="none" stroke="#000000" stroke-miterlimit="10" d="M144.802,551.55h-7.58v-12.982v12.982H144.802z"/>
<path fill="none" stroke="#000000" stroke-miterlimit="10" d="M155.691,549.191c-0.54,0.774-2.395,2.521-3.871,2.467
	c-1.495-0.054-2.683-0.522-2.683-2.179c0-1.674,1.008-2.376,2.917-2.557c1.891-0.18,2.737-0.468,3.637-0.72
	c-0.9,0.252-1.747,0.54-3.637,0.72c-1.909,0.18-2.917,0.882-2.917,2.557c0,1.657,1.188,2.125,2.683,2.179
	C153.296,551.712,155.151,549.966,155.691,549.191z M156.969,551.55c0,0-1.278-0.09-1.278-1.17v-5.924
	c0-0.756-0.378-2.196-2.809-2.196c-2.431,0-3.331,1.098-3.331,2.232c0-1.134,0.9-2.232,3.331-2.232c2.431,0,2.809,1.44,2.809,2.196
	v5.924C155.691,551.46,156.969,551.55,156.969,551.55z"/>
<path fill="none" stroke="#000000" stroke-miterlimit="10" d="M167.499,543.97c0.036-0.45-0.558-1.71-2.827-1.801
	c-2.269-0.054-3.313,0.667-3.313,2.053c0,1.404,1.17,1.836,1.603,1.962l3.403,1.008c0.45,0.108,1.53,0.594,1.53,1.927
	s-1.422,2.431-3.223,2.431c-1.801,0-3.439-0.954-3.439-2.359c0,1.405,1.638,2.359,3.439,2.359c1.8,0,3.223-1.098,3.223-2.431
	s-1.08-1.819-1.53-1.927l-3.403-1.008c-0.433-0.126-1.603-0.558-1.603-1.962c0-1.386,1.044-2.107,3.313-2.053
	C166.94,542.26,167.535,543.52,167.499,543.97z"/>
<path fill="none" stroke="#000000" stroke-miterlimit="10" d="M180.153,546.617c0-1.999-0.792-4.555-3.655-4.555
	c-2.845,0-4.412,1.944-4.412,4.916c0,2.989,2.017,4.573,4.412,4.501c2.413-0.072,3.457-1.945,3.583-2.611
	c-0.126,0.666-1.17,2.539-3.583,2.611c-2.395,0.072-4.412-1.513-4.412-4.501c0-2.971,1.567-4.916,4.412-4.916
	C179.361,542.062,180.153,544.618,180.153,546.617h-8.048H180.153z"/>
<path fill="none" stroke="#000000" stroke-miterlimit="10" d="M186.595,546.833c-0.054-2.071,1.854-4.538,3.529-4.52
	C188.45,542.295,186.541,544.762,186.595,546.833z M186.595,551.55v-9.237V551.55z"/>
<path fill="none" stroke="#000000" stroke-miterlimit="10" d="M203.262,547.625c0,2.881,2.197,4.033,4.771,4.033
	c2.611,0,4.25-1.638,4.304-3.241c0.054-1.584-0.756-2.845-2.359-3.187l-4.412-0.954c-1.242-0.271-1.98-0.991-1.98-2.683
	s1.422-3.151,4.015-3.151s4.483,1.225,4.412,3.367c0.072-2.143-1.819-3.367-4.412-3.367s-4.015,1.458-4.015,3.151
	s0.702,2.395,1.98,2.683l4.412,0.954c1.638,0.342,2.413,1.603,2.359,3.187c-0.054,1.603-1.693,3.241-4.304,3.241
	C205.459,551.658,203.262,550.506,203.262,547.625z"/>
<path fill="none" stroke="#000000" stroke-miterlimit="10" d="M216.726,546.617h8.049c0-1.999-0.792-4.555-3.655-4.555
	c-2.845,0-4.411,1.944-4.411,4.916c0,2.989,2.017,4.573,4.411,4.501c2.413-0.072,3.457-1.945,3.583-2.611
	c-0.126,0.666-1.17,2.539-3.583,2.611c-2.395,0.072-4.411-1.513-4.411-4.501c0-2.971,1.566-4.916,4.411-4.916
	c2.863,0,3.655,2.557,3.655,4.555H216.726z"/>
<path fill="none" stroke="#000000" stroke-miterlimit="10" d="M229.218,542.224h3.763H229.218z M232.945,551.46
	c-0.882,0.054-1.837,0.09-1.837-1.117c0-1.224,0-11.523,0-11.523s0,10.299,0,11.523C231.108,551.55,232.063,551.514,232.945,551.46z
	"/>
<path fill="none" stroke="#000000" stroke-miterlimit="10" d="M237.03,542.224h3.763H237.03z M240.757,551.46
	c-0.882,0.054-1.837,0.09-1.837-1.117c0-1.224,0-11.523,0-11.523s0,10.299,0,11.523C238.92,551.55,239.875,551.514,240.757,551.46z"
	/>
<path fill="none" stroke="#000000" stroke-miterlimit="10" d="M246.805,538.875v-0.324V538.875z M246.805,551.532v-9.237
	C246.805,542.295,246.805,551.568,246.805,551.532z"/>
<path fill="none" stroke="#000000" stroke-miterlimit="10" d="M261.368,551.55c0,0,0-6.014,0-6.842c0-0.828-0.828-2.376-3.115-2.395
	c-2.305-0.018-3.511,1.765-3.511,3.421c0-1.656,1.207-3.439,3.511-3.421c2.287,0.018,3.115,1.566,3.115,2.395
	C261.368,545.537,261.368,551.55,261.368,551.55z M254.742,551.55v-9.237V551.55z"/>
<path fill="none" stroke="#000000" stroke-miterlimit="10" d="M270.367,542.224c2.089,0,3.817,1.044,3.817,4.646
	c0,3.601-1.729,4.645-3.817,4.645c-2.088,0-3.799-1.044-3.799-4.645C266.568,543.268,268.278,542.224,270.367,542.224z
	 M270.367,542.224c2.089,0,3.817,1.044,3.817,4.646c0,3.601-1.729,4.645-3.817,4.645c-2.088,0-3.799-1.044-3.799-4.645
	C266.568,543.268,268.278,542.224,270.367,542.224z M267.108,553.423c0.198,1.08,1.512,1.692,3.313,1.765
	c1.836,0.054,3.763-1.296,3.763-2.971c0-1.692,0-9.849,0-9.849s0,8.156,0,9.849c0,1.675-1.927,3.025-3.763,2.971
	C268.62,555.115,267.306,554.503,267.108,553.423z"/>
<path fill="none" stroke="#000000" stroke-miterlimit="10" d="M284.695,543.97c0.036-0.45-0.558-1.71-2.827-1.801
	c-2.269-0.054-3.313,0.667-3.313,2.053c0,1.404,1.17,1.836,1.602,1.962l3.403,1.008c0.45,0.108,1.53,0.594,1.53,1.927
	s-1.422,2.431-3.223,2.431c-1.801,0-3.439-0.954-3.439-2.359c0,1.405,1.639,2.359,3.439,2.359c1.8,0,3.223-1.098,3.223-2.431
	s-1.08-1.819-1.53-1.927l-3.403-1.008c-0.432-0.126-1.602-0.558-1.602-1.962c0-1.386,1.044-2.107,3.313-2.053
	C284.137,542.26,284.731,543.52,284.695,543.97z"/>
<path fill="none" stroke="#A54686" stroke-width="0.7087" stroke-linecap="round" stroke-linejoin="round" stroke-miterlimit="22.9256" d="
	M137.222,594.75v-12.982h4.141c3.331,0,4.087,1.584,4.177,3.331c0.072,1.747-0.864,3.565-3.835,3.565h-4.483h4.483
	c2.917,0,3.907-1.818,3.835-3.565c-0.09-1.747-0.882-3.331-4.177-3.331h-4.141V594.75z"/>
<path fill="none" stroke="#A54686" stroke-width="0.7087" stroke-linecap="round" stroke-linejoin="round" stroke-miterlimit="22.9256" d="
	M150.919,592.338c0,0.828,0.828,2.376,3.115,2.395c2.305,0.018,3.529-1.765,3.529-3.421c0,1.656-1.225,3.439-3.529,3.421
	C151.747,594.714,150.919,593.166,150.919,592.338s0-6.86,0-6.86S150.919,591.51,150.919,592.338z M157.563,594.732v-9.255V594.732z
	"/>
<path fill="none" stroke="#A54686" stroke-width="0.7087" stroke-linecap="round" stroke-linejoin="round" stroke-miterlimit="22.9256" d="
	M165.842,590.033c-0.054-2.071,1.854-4.538,3.529-4.52C167.696,585.496,165.788,587.962,165.842,590.033z M165.842,594.75v-9.237
	V594.75z"/>
<path fill="none" stroke="#A54686" stroke-width="0.7087" stroke-linecap="round" stroke-linejoin="round" stroke-miterlimit="22.9256" d="
	M175.453,598.333v-13V598.333z M179.27,594.75c2.089,0,3.817-1.062,3.817-4.717c0-3.637-1.729-4.7-3.817-4.7
	c-2.088,0-3.799,1.062-3.799,4.7C175.471,593.688,177.182,594.75,179.27,594.75z M179.27,594.75c2.089,0,3.817-1.062,3.817-4.717
	c0-3.637-1.729-4.7-3.817-4.7c-2.088,0-3.799,1.062-3.799,4.7C175.471,593.688,177.182,594.75,179.27,594.75z"/>
<path fill="none" stroke="#A54686" stroke-width="0.7087" stroke-linecap="round" stroke-linejoin="round" stroke-miterlimit="22.9256" d="
	M189.385,594.75v-12.982V594.75z"/>
<path fill="none" stroke="#A54686" stroke-width="0.7087" stroke-linecap="round" stroke-linejoin="round" stroke-miterlimit="22.9256" d="
	M195.396,589.817h8.049c0-1.999-0.792-4.555-3.655-4.555c-2.845,0-4.411,1.944-4.411,4.916c0,2.989,2.017,4.573,4.411,4.501
	c2.413-0.072,3.457-1.945,3.583-2.611c-0.126,0.666-1.17,2.539-3.583,2.611c-2.395,0.072-4.411-1.513-4.411-4.501
	c0-2.971,1.566-4.916,4.411-4.916c2.863,0,3.655,2.557,3.655,4.555H195.396z"/>
<path fill="none" stroke="#A54686" stroke-width="0.7087" stroke-linecap="round" stroke-linejoin="round" stroke-miterlimit="22.9256" d="
	M209.833,589.061v-0.99V589.061z M209.833,594.75v-0.99V594.75z"/>
<path fill="none" stroke="#A54686" stroke-width="0.7087" stroke-linecap="round" stroke-linejoin="round" stroke-miterlimit="22.9256" d="
	M231.092,587.17c0.036-0.45-0.558-1.71-2.827-1.801c-2.269-0.054-3.313,0.667-3.313,2.053c0,1.404,1.17,1.836,1.602,1.962
	l3.403,1.008c0.45,0.108,1.53,0.594,1.53,1.927s-1.422,2.431-3.223,2.431c-1.801,0-3.439-0.954-3.439-2.359
	c0,1.405,1.639,2.359,3.439,2.359c1.8,0,3.223-1.098,3.223-2.431s-1.08-1.819-1.53-1.927l-3.403-1.008
	c-0.432-0.126-1.602-0.558-1.602-1.962c0-1.386,1.044-2.107,3.313-2.053C230.534,585.46,231.128,586.72,231.092,587.17z"/>
<path fill="none" stroke="#A54686" stroke-width="0.7087" stroke-linecap="round" stroke-linejoin="round" stroke-miterlimit="22.9256" d="
	M239.803,594.75c-1.513,0-4.123-0.252-4.123-4.771c0-4.501,2.917-4.555,4.195-4.555c1.279,0,2.971,0.99,3.079,2.25
	c-0.108-1.26-1.8-2.25-3.079-2.25c-1.278,0-4.195,0.054-4.195,4.555C235.68,594.499,238.291,594.75,239.803,594.75
	c1.53,0,3.151-1.422,3.205-2.935C242.954,593.328,241.333,594.75,239.803,594.75z"/>
<path fill="none" stroke="#A54686" stroke-width="0.7087" stroke-linecap="round" stroke-linejoin="round" stroke-miterlimit="22.9256" d="
	M249.919,594.858c-1.495-0.054-2.683-0.522-2.683-2.179c0-1.674,1.009-2.376,2.917-2.557c1.891-0.18,2.737-0.468,3.637-0.72
	c-0.9,0.252-1.747,0.54-3.637,0.72c-1.908,0.18-2.917,0.882-2.917,2.557C247.236,594.336,248.424,594.805,249.919,594.858
	c1.477,0.054,3.331-1.692,3.871-2.467C253.25,593.166,251.396,594.913,249.919,594.858z M253.79,593.58v-5.924
	c0-0.756-0.378-2.196-2.809-2.196c-2.431,0-3.331,1.098-3.331,2.232c0-1.134,0.9-2.232,3.331-2.232c2.431,0,2.809,1.44,2.809,2.196
	V593.58c0,1.081,1.278,1.17,1.278,1.17S253.79,594.661,253.79,593.58z"/>
<path fill="none" stroke="#A54686" stroke-width="0.7087" stroke-linecap="round" stroke-linejoin="round" stroke-miterlimit="22.9256" d="
	M267.902,594.75c0,0,0-6.014,0-6.842c0-0.828-0.828-2.376-3.115-2.395c-2.305-0.018-3.511,1.765-3.511,3.421
	c0-1.656,1.207-3.439,3.511-3.421c2.287,0.018,3.115,1.566,3.115,2.395C267.902,588.737,267.902,594.75,267.902,594.75z
	 M261.276,594.75v-9.237V594.75z"/>
<path fill="none" stroke="#A54686" stroke-width="0.7087" stroke-linecap="round" stroke-linejoin="round" stroke-miterlimit="22.9256" d="
	M273.102,594.931l4.411-13.288L273.102,594.931z"/>
<path fill="none" stroke="#A54686" stroke-width="0.7087" stroke-linecap="round" stroke-linejoin="round" stroke-miterlimit="22.9256" d="
	M283.597,590.033c-0.054-2.071,1.854-4.538,3.529-4.52C285.451,585.496,283.542,587.962,283.597,590.033z M283.597,594.75v-9.237
	V594.75z"/>
<path fill="none" stroke="#A54686" stroke-width="0.7087" stroke-linecap="round" stroke-linejoin="round" stroke-miterlimit="22.9256" d="
	M297.817,592.392c-0.54,0.774-2.395,2.521-3.871,2.467c-1.495-0.054-2.683-0.522-2.683-2.179c0-1.674,1.009-2.376,2.917-2.557
	c1.891-0.18,2.737-0.468,3.637-0.72c-0.9,0.252-1.747,0.54-3.637,0.72c-1.908,0.18-2.917,0.882-2.917,2.557
	c0,1.657,1.188,2.125,2.683,2.179C295.423,594.913,297.277,593.166,297.817,592.392z M299.096,594.75c0,0-1.278-0.09-1.278-1.17
	v-5.924c0-0.756-0.378-2.196-2.809-2.196c-2.431,0-3.331,1.098-3.331,2.232c0-1.134,0.9-2.232,3.331-2.232
	c2.431,0,2.809,1.44,2.809,2.196v5.924C297.817,594.661,299.096,594.75,299.096,594.75z"/>
<path fill="none" stroke="#A54686" stroke-width="0.7087" stroke-linecap="round" stroke-linejoin="round" stroke-miterlimit="22.9256" d="
	M309.625,587.17c0.036-0.45-0.558-1.71-2.827-1.801c-2.269-0.054-3.313,0.667-3.313,2.053c0,1.404,1.17,1.836,1.603,1.962
	l3.403,1.008c0.45,0.108,1.53,0.594,1.53,1.927s-1.422,2.431-3.223,2.431c-1.801,0-3.439-0.954-3.439-2.359
	c0,1.405,1.638,2.359,3.439,2.359c1.8,0,3.223-1.098,3.223-2.431s-1.08-1.819-1.53-1.927l-3.403-1.008
	c-0.433-0.126-1.603-0.558-1.603-1.962c0-1.386,1.044-2.107,3.313-2.053C309.067,585.46,309.662,586.72,309.625,587.17z"/>
<path fill="none" stroke="#A54686" stroke-width="0.7087" stroke-linecap="round" stroke-linejoin="round" stroke-miterlimit="22.9256" d="
	M314.213,585.424h3.763H314.213z M317.94,594.661c-0.882,0.054-1.837,0.09-1.837-1.117c0-1.224,0-11.523,0-11.523s0,10.299,0,11.523
	C316.104,594.75,317.058,594.714,317.94,594.661z"/>
<path fill="none" stroke="#A54686" stroke-width="0.7087" stroke-linecap="round" stroke-linejoin="round" stroke-miterlimit="22.9256" d="
	M322.043,589.817h8.048c0-1.999-0.792-4.555-3.655-4.555c-2.845,0-4.412,1.944-4.412,4.916c0,2.989,2.017,4.573,4.412,4.501
	c2.413-0.072,3.457-1.945,3.583-2.611c-0.126,0.666-1.17,2.539-3.583,2.611c-2.395,0.072-4.412-1.513-4.412-4.501
	c0-2.971,1.567-4.916,4.412-4.916c2.863,0,3.655,2.557,3.655,4.555H322.043z"/>
<path fill="none" stroke="#A54686" stroke-width="0.7087" stroke-linecap="round" stroke-linejoin="round" stroke-miterlimit="22.9256" d="
	M336.534,590.033c-0.054-2.071,1.854-4.538,3.529-4.52C338.388,585.496,336.479,587.962,336.534,590.033z M336.534,594.75v-9.237
	V594.75z"/>
<path fill="none" stroke="#A54686" stroke-width="0.7087" stroke-linecap="round" stroke-linejoin="round" stroke-miterlimit="22.9256" d="
	M361.267,589.817c0-1.999-0.792-4.555-3.655-4.555c-2.845,0-4.412,1.944-4.412,4.916c0,2.989,2.017,4.573,4.412,4.501
	c2.413-0.072,3.457-1.945,3.583-2.611c-0.126,0.666-1.17,2.539-3.583,2.611c-2.395,0.072-4.412-1.513-4.412-4.501
	c0-2.971,1.567-4.916,4.412-4.916C360.475,585.262,361.267,587.818,361.267,589.817h-8.048H361.267z"/>
<path fill="none" stroke="#A54686" stroke-width="0.7087" stroke-linecap="round" stroke-linejoin="round" stroke-miterlimit="22.9256" d="
	M365.71,585.424h3.763H365.71z M369.438,594.661c-0.882,0.054-1.837,0.09-1.837-1.117c0-1.224,0-11.523,0-11.523s0,10.299,0,11.523
	C367.601,594.75,368.556,594.714,369.438,594.661z"/>
<path fill="none" stroke="#A54686" stroke-width="0.7087" stroke-linecap="round" stroke-linejoin="round" stroke-miterlimit="22.9256" d="
	M377.646,594.75c-1.513,0-4.123-0.252-4.123-4.771c0-4.501,2.917-4.555,4.195-4.555c1.279,0,2.971,0.99,3.079,2.25
	c-0.108-1.26-1.8-2.25-3.079-2.25c-1.278,0-4.195,0.054-4.195,4.555C373.523,594.499,376.133,594.75,377.646,594.75
	c1.53,0,3.151-1.422,3.205-2.935C380.797,593.328,379.176,594.75,377.646,594.75z"/>
<path fill="none" stroke="#A54686" stroke-width="0.7087" stroke-linecap="round" stroke-linejoin="round" stroke-miterlimit="22.9256" d="
	M387.023,594.75v-12.982V594.75z M393.757,594.75c0,0,0-4.681,0-6.32s-0.99-2.881-2.917-2.917c-1.963-0.036-3.817,1.152-3.817,2.719
	c0-1.566,1.854-2.755,3.817-2.719c1.926,0.036,2.917,1.278,2.917,2.917S393.757,594.75,393.757,594.75z"/>
<path fill="none" stroke="#F58220" stroke-width="0.7087" stroke-linecap="round" stroke-linejoin="round" stroke-miterlimit="22.9256" d="
	M135.277,609.76c0-4.97,2.575-6.734,5.726-6.734s5.726,1.764,5.726,6.734c0,4.969-2.575,6.698-5.726,6.698
	S135.277,614.729,135.277,609.76z M135.277,609.76c0-4.97,2.575-6.734,5.726-6.734s5.726,1.764,5.726,6.734
	c0,4.969-2.575,6.698-5.726,6.698S135.277,614.729,135.277,609.76z"/>
<path fill="none" stroke="#F58220" stroke-width="0.7087" stroke-linecap="round" stroke-linejoin="round" stroke-miterlimit="22.9256" d="
	M153.17,611.633c-0.054-2.071,1.854-4.538,3.529-4.52C155.024,607.095,153.116,609.562,153.17,611.633z M153.17,616.35v-9.237
	V616.35z"/>
<path fill="none" stroke="#F58220" stroke-width="0.7087" stroke-linecap="round" stroke-linejoin="round" stroke-miterlimit="22.9256" d="
	M163.52,616.458c-1.495-0.054-2.683-0.522-2.683-2.179c0-1.674,1.009-2.376,2.917-2.557c1.891-0.18,2.737-0.468,3.637-0.72
	c-0.9,0.252-1.747,0.54-3.637,0.72c-1.908,0.18-2.917,0.882-2.917,2.557C160.836,615.936,162.025,616.404,163.52,616.458
	c1.477,0.054,3.331-1.692,3.871-2.467C166.851,614.766,164.996,616.512,163.52,616.458z M167.391,615.18v-5.924
	c0-0.756-0.378-2.196-2.809-2.196c-2.431,0-3.331,1.098-3.331,2.232c0-1.134,0.9-2.232,3.331-2.232c2.431,0,2.809,1.44,2.809,2.196
	V615.18c0,1.081,1.278,1.17,1.278,1.17S167.391,616.26,167.391,615.18z"/>
<path fill="none" stroke="#F58220" stroke-width="0.7087" stroke-linecap="round" stroke-linejoin="round" stroke-miterlimit="22.9256" d="
	M181.503,616.35c0,0,0-6.014,0-6.842c0-0.828-0.828-2.376-3.115-2.395c-2.305-0.018-3.511,1.765-3.511,3.421
	c0-1.656,1.207-3.439,3.511-3.421c2.287,0.018,3.115,1.566,3.115,2.395C181.503,610.336,181.503,616.35,181.503,616.35z
	 M174.877,616.35v-9.237V616.35z"/>
<path fill="none" stroke="#F58220" stroke-width="0.7087" stroke-linecap="round" stroke-linejoin="round" stroke-miterlimit="22.9256" d="
	M190.502,607.023c2.089,0,3.817,1.044,3.817,4.646c0,3.601-1.729,4.645-3.817,4.645c-2.088,0-3.799-1.044-3.799-4.645
	C186.703,608.067,188.414,607.023,190.502,607.023z M190.502,607.023c2.089,0,3.817,1.044,3.817,4.646
	c0,3.601-1.729,4.645-3.817,4.645c-2.088,0-3.799-1.044-3.799-4.645C186.703,608.067,188.414,607.023,190.502,607.023z
	 M187.243,618.223c0.198,1.08,1.512,1.692,3.313,1.765c1.836,0.054,3.763-1.296,3.763-2.971c0-1.692,0-9.849,0-9.849
	s0,8.156,0,9.849c0,1.675-1.927,3.025-3.763,2.971C188.755,619.915,187.441,619.303,187.243,618.223z"/>
<path fill="none" stroke="#F58220" stroke-width="0.7087" stroke-linecap="round" stroke-linejoin="round" stroke-miterlimit="22.9256" d="
	M206.631,611.417c0-1.999-0.792-4.555-3.655-4.555c-2.845,0-4.411,1.944-4.411,4.916c0,2.989,2.017,4.573,4.411,4.501
	c2.413-0.072,3.457-1.945,3.583-2.611c-0.126,0.666-1.17,2.539-3.583,2.611c-2.395,0.072-4.411-1.513-4.411-4.501
	c0-2.971,1.566-4.916,4.411-4.916C205.839,606.861,206.631,609.418,206.631,611.417h-8.049H206.631z"/>
<path fill="none" stroke="#F58220" stroke-width="0.7087" stroke-linecap="round" stroke-linejoin="round" stroke-miterlimit="22.9256" d="
	M213.019,610.66v-0.99V610.66z M213.019,616.35v-0.99V616.35z"/>
<path fill="none" stroke="#F58220" stroke-width="0.7087" stroke-linecap="round" stroke-linejoin="round" stroke-miterlimit="22.9256" d="
	M231.667,616.35l-3.655-9.237L231.667,616.35l3.691-9.237L231.667,616.35z"/>
<path fill="none" stroke="#F58220" stroke-width="0.7087" stroke-linecap="round" stroke-linejoin="round" stroke-miterlimit="22.9256" d="
	M239.604,611.417h8.049c0-1.999-0.792-4.555-3.655-4.555c-2.845,0-4.411,1.944-4.411,4.916c0,2.989,2.017,4.573,4.411,4.501
	c2.413-0.072,3.457-1.945,3.583-2.611c-0.126,0.666-1.17,2.539-3.583,2.611c-2.395,0.072-4.411-1.513-4.411-4.501
	c0-2.971,1.566-4.916,4.411-4.916c2.863,0,3.655,2.557,3.655,4.555H239.604z"/>
<path fill="none" stroke="#F58220" stroke-width="0.7087" stroke-linecap="round" stroke-linejoin="round" stroke-miterlimit="22.9256" d="
	M259.424,613.415c-0.054,1.513-1.675,2.935-3.205,2.935c-1.513,0-4.123-0.252-4.123-4.771c0-4.501,2.917-4.555,4.195-4.555
	c1.279,0,2.971,0.99,3.079,2.25c-0.108-1.26-1.8-2.25-3.079-2.25c-1.278,0-4.195,0.054-4.195,4.555c0,4.52,2.61,4.771,4.123,4.771
	C257.75,616.35,259.37,614.928,259.424,613.415z"/>
<path fill="none" stroke="#F58220" stroke-width="0.7087" stroke-linecap="round" stroke-linejoin="round" stroke-miterlimit="22.9256" d="
	M263.652,607.023h3.763H263.652z M267.379,616.26c-0.882,0.054-1.837,0.09-1.837-1.117c0-1.224,0-11.523,0-11.523s0,10.299,0,11.523
	C265.542,616.35,266.497,616.314,267.379,616.26z"/>
<path fill="none" stroke="#F58220" stroke-width="0.7087" stroke-linecap="round" stroke-linejoin="round" stroke-miterlimit="22.9256" d="
	M271.464,611.633c0-3.637,1.854-4.7,4.087-4.7c2.251,0,4.087,1.062,4.087,4.7c0,3.655-1.836,4.717-4.087,4.717
	C273.319,616.35,271.464,615.288,271.464,611.633z M271.464,611.633c0-3.637,1.854-4.7,4.087-4.7c2.251,0,4.087,1.062,4.087,4.7
	c0,3.655-1.836,4.717-4.087,4.717C273.319,616.35,271.464,615.288,271.464,611.633z"/>
<path fill="none" stroke="#F58220" stroke-width="0.7087" stroke-linecap="round" stroke-linejoin="round" stroke-miterlimit="22.9256" d="
	M285.918,611.633c-0.054-2.071,1.854-4.538,3.529-4.52C287.773,607.095,285.864,609.562,285.918,611.633z M285.918,616.35v-9.237
	V616.35z"/>
<path fill="none" stroke="#F58220" stroke-width="0.7087" stroke-linecap="round" stroke-linejoin="round" stroke-miterlimit="22.9256" d="
	M302.603,611.417h8.049c0-1.999-0.792-4.555-3.655-4.555c-2.845,0-4.411,1.944-4.411,4.916c0,2.989,2.017,4.573,4.411,4.501
	c2.413-0.072,3.457-1.945,3.583-2.611c-0.126,0.666-1.17,2.539-3.583,2.611c-2.395,0.072-4.411-1.513-4.411-4.501
	c0-2.971,1.566-4.916,4.411-4.916c2.863,0,3.655,2.557,3.655,4.555H302.603z"/>
<path fill="none" stroke="#F58220" stroke-width="0.7087" stroke-linecap="round" stroke-linejoin="round" stroke-miterlimit="22.9256" d="
	M315.095,607.023h3.763H315.095z M318.823,616.26c-0.882,0.054-1.837,0.09-1.837-1.117c0-1.224,0-11.523,0-11.523s0,10.299,0,11.523
	C316.986,616.35,317.94,616.314,318.823,616.26z"/>
<path fill="none" stroke="#F58220" stroke-width="0.7087" stroke-linecap="round" stroke-linejoin="round" stroke-miterlimit="22.9256" d="
	M327.03,616.35c-1.513,0-4.124-0.252-4.124-4.771c0-4.501,2.917-4.555,4.195-4.555s2.971,0.99,3.079,2.25
	c-0.108-1.26-1.801-2.25-3.079-2.25s-4.195,0.054-4.195,4.555C322.907,616.098,325.518,616.35,327.03,616.35
	c1.53,0,3.151-1.422,3.205-2.935C330.181,614.928,328.561,616.35,327.03,616.35z"/>
<path fill="none" stroke="#F58220" stroke-width="0.7087" stroke-linecap="round" stroke-linejoin="round" stroke-miterlimit="22.9256" d="
	M336.408,616.35v-12.982V616.35z M343.142,616.35c0,0,0-4.681,0-6.32s-0.99-2.881-2.917-2.917c-1.963-0.036-3.817,1.152-3.817,2.719
	c0-1.566,1.854-2.755,3.817-2.719c1.926,0.036,2.917,1.278,2.917,2.917S343.142,616.35,343.142,616.35z"/>
<path fill="none" stroke="#000000" stroke-miterlimit="10" d="M137.222,631.27h4.987c2.593,0,3.655-1.566,3.601-3.133
	c-0.072-1.566-1.17-3.169-3.565-3.169h-5.023v12.982h5.528c2.052,0,3.673-1.225,3.673-3.277c-0.036-2.053-1.747-3.403-4.213-3.403
	c2.467,0,4.177,1.351,4.213,3.403c0,2.052-1.621,3.277-3.673,3.277h-5.528v-12.982h5.023c2.395,0,3.493,1.603,3.565,3.169
	c0.054,1.566-1.008,3.133-3.601,3.133H137.222z"/>
<path fill="none" stroke="#000000" stroke-miterlimit="10" d="M152.792,637.95v-12.982V637.95z"/>
<path fill="none" stroke="#000000" stroke-miterlimit="10" d="M161.468,638.058c-1.495-0.054-2.683-0.522-2.683-2.179
	c0-1.674,1.009-2.376,2.917-2.557c1.891-0.18,2.737-0.468,3.637-0.72c-0.9,0.252-1.747,0.54-3.637,0.72
	c-1.908,0.18-2.917,0.882-2.917,2.557C158.785,637.536,159.973,638.004,161.468,638.058c1.477,0.054,3.331-1.692,3.871-2.467
	C164.799,636.366,162.944,638.112,161.468,638.058z M165.339,636.78v-5.924c0-0.756-0.378-2.197-2.809-2.197
	c-2.431,0-3.331,1.099-3.331,2.233c0-1.134,0.9-2.233,3.331-2.233c2.431,0,2.809,1.44,2.809,2.197V636.78
	c0,1.081,1.278,1.17,1.278,1.17S165.339,637.86,165.339,636.78z"/>
<path fill="none" stroke="#000000" stroke-miterlimit="10" d="M175.004,637.95c-1.513,0-4.124-0.252-4.124-4.771
	c0-4.501,2.917-4.555,4.195-4.555s2.971,0.99,3.079,2.25c-0.108-1.26-1.801-2.25-3.079-2.25s-4.195,0.054-4.195,4.555
	C170.88,637.698,173.491,637.95,175.004,637.95c1.53,0,3.151-1.422,3.205-2.935C178.155,636.528,176.534,637.95,175.004,637.95z"/>
<path fill="none" stroke="#000000" stroke-miterlimit="10" d="M184.381,637.95v-3.637l2.485-2.413l3.925,6.05l-3.925-6.05
	l3.313-3.187l-5.798,5.6v-9.345V637.95z"/>
<path fill="none" stroke="#000000" stroke-miterlimit="10" d="M197.017,632.261v-0.991V632.261z M197.017,637.95v-0.99V637.95z"/>
<path fill="none" stroke="#000000" stroke-miterlimit="10" d="M219.357,628.713l-3.691,9.237l-3.655-9.237l3.655,9.237
	L219.357,628.713z"/>
<path fill="none" stroke="#000000" stroke-miterlimit="10" d="M223.602,633.017h8.049c0-1.999-0.792-4.555-3.655-4.555
	c-2.845,0-4.411,1.944-4.411,4.916c0,2.989,2.017,4.573,4.411,4.501c2.413-0.072,3.457-1.944,3.583-2.61
	c-0.126,0.666-1.17,2.539-3.583,2.61c-2.395,0.072-4.411-1.512-4.411-4.501c0-2.971,1.566-4.916,4.411-4.916
	c2.863,0,3.655,2.557,3.655,4.555H223.602z"/>
<path fill="none" stroke="#000000" stroke-miterlimit="10" d="M240.218,637.95c-1.513,0-4.124-0.252-4.124-4.771
	c0-4.501,2.917-4.555,4.195-4.555s2.971,0.99,3.079,2.25c-0.108-1.26-1.801-2.25-3.079-2.25s-4.195,0.054-4.195,4.555
	C236.094,637.698,238.705,637.95,240.218,637.95c1.53,0,3.151-1.422,3.205-2.935C243.369,636.528,241.748,637.95,240.218,637.95z"/>
<path fill="none" stroke="#000000" stroke-miterlimit="10" d="M247.65,628.624h3.763H247.65z M251.377,637.86
	c-0.882,0.054-1.837,0.09-1.837-1.117c0-1.224,0-11.523,0-11.523s0,10.299,0,11.523C249.541,637.95,250.495,637.914,251.377,637.86z
	"/>
<path fill="none" stroke="#000000" stroke-miterlimit="10" d="M255.462,633.233c0-3.637,1.854-4.7,4.087-4.7
	c2.251,0,4.087,1.062,4.087,4.7c0,3.655-1.836,4.717-4.087,4.717C257.317,637.95,255.462,636.888,255.462,633.233z M255.462,633.233
	c0-3.637,1.854-4.7,4.087-4.7c2.251,0,4.087,1.062,4.087,4.7c0,3.655-1.836,4.717-4.087,4.717
	C257.317,637.95,255.462,636.888,255.462,633.233z"/>
<path fill="none" stroke="#000000" stroke-miterlimit="10" d="M269.917,633.233c-0.054-2.071,1.854-4.538,3.529-4.52
	C271.771,628.695,269.862,631.162,269.917,633.233z M269.917,637.95v-9.237V637.95z"/>
<path fill="none" stroke="#000000" stroke-miterlimit="10" d="M290.707,637.95c-1.513,0-4.124-0.252-4.124-4.771
	c0-4.501,2.917-4.555,4.195-4.555s2.971,0.99,3.079,2.25c-0.108-1.26-1.801-2.25-3.079-2.25s-4.195,0.054-4.195,4.555
	C286.583,637.698,289.194,637.95,290.707,637.95c1.53,0,3.151-1.422,3.205-2.935C293.858,636.528,292.237,637.95,290.707,637.95z"/>
<path fill="none" stroke="#000000" stroke-miterlimit="10" d="M299.058,628.677c0,0,0,6.032,0,6.86c0,0.828,0.828,2.376,3.115,2.395
	c2.305,0.018,3.529-1.765,3.529-3.421c0,1.656-1.225,3.439-3.529,3.421c-2.287-0.018-3.115-1.566-3.115-2.395
	C299.058,634.709,299.058,628.677,299.058,628.677z M305.702,628.677v9.255V628.677z"/>
<path fill="none" stroke="#000000" stroke-miterlimit="10" d="M311.982,628.624h3.763H311.982z M315.709,637.86
	c-0.882,0.054-1.837,0.09-1.837-1.117c0-1.224,0-11.523,0-11.523s0,10.299,0,11.523C313.872,637.95,314.827,637.914,315.709,637.86z
	"/>
<path fill="none" stroke="#FFF200" stroke-width="0.7087" stroke-linecap="round" stroke-linejoin="round" d="M139.995,653.302
	l4.717-6.734L139.995,653.302l-4.718-6.734L139.995,653.302v6.248V653.302z"/>
<path fill="none" stroke="#FFF200" stroke-width="0.7087" stroke-linecap="round" stroke-linejoin="round" d="M149.065,654.617
	h8.049c0-1.999-0.792-4.555-3.655-4.555c-2.845,0-4.411,1.944-4.411,4.916c0,2.989,2.017,4.573,4.411,4.501
	c2.413-0.072,3.457-1.945,3.583-2.611c-0.126,0.666-1.17,2.539-3.583,2.611c-2.395,0.072-4.411-1.513-4.411-4.501
	c0-2.971,1.566-4.916,4.411-4.916c2.863,0,3.655,2.557,3.655,4.555H149.065z"/>
<path fill="none" stroke="#FFF200" stroke-width="0.7087" stroke-linecap="round" stroke-linejoin="round" d="M163.501,659.55
	v-12.982V659.55z"/>
<path fill="none" stroke="#FFF200" stroke-width="0.7087" stroke-linecap="round" stroke-linejoin="round" d="M171.439,659.55
	v-12.982V659.55z"/>
<path fill="none" stroke="#FFF200" stroke-width="0.7087" stroke-linecap="round" stroke-linejoin="round" d="M177.433,654.833
	c0-3.637,1.854-4.7,4.087-4.7c2.251,0,4.087,1.062,4.087,4.7c0,3.655-1.836,4.717-4.087,4.717
	C179.288,659.55,177.433,658.488,177.433,654.833z M177.433,654.833c0-3.637,1.854-4.7,4.087-4.7c2.251,0,4.087,1.062,4.087,4.7
	c0,3.655-1.836,4.717-4.087,4.717C179.288,659.55,177.433,658.488,177.433,654.833z"/>
<path fill="none" stroke="#FFF200" stroke-width="0.7087" stroke-linecap="round" stroke-linejoin="round" d="M192.553,659.55
	l3.187-9.237l3.205,9.237l2.665-9.237l-2.665,9.237l-3.205-9.237L192.553,659.55l-2.665-9.237L192.553,659.55z"/>
<path fill="none" stroke="#FFF200" stroke-width="0.7087" stroke-linecap="round" stroke-linejoin="round" d="M207.997,653.86v-0.99
	V653.86z M207.997,659.55v-0.99V659.55z"/>
<path fill="none" stroke="#FFF200" stroke-width="0.7087" stroke-linecap="round" stroke-linejoin="round" d="M230.336,650.313
	l-3.691,9.237l-3.655-9.237l3.655,9.237L230.336,650.313z"/>
<path fill="none" stroke="#FFF200" stroke-width="0.7087" stroke-linecap="round" stroke-linejoin="round" d="M242.63,654.617
	c0-1.999-0.792-4.555-3.655-4.555c-2.845,0-4.412,1.944-4.412,4.916c0,2.989,2.017,4.573,4.412,4.501
	c2.413-0.072,3.457-1.945,3.583-2.611c-0.126,0.666-1.17,2.539-3.583,2.611c-2.395,0.072-4.412-1.513-4.412-4.501
	c0-2.971,1.567-4.916,4.412-4.916C241.838,650.062,242.63,652.618,242.63,654.617h-8.048H242.63z"/>
<path fill="none" stroke="#FFF200" stroke-width="0.7087" stroke-linecap="round" stroke-linejoin="round" d="M251.197,659.55
	c-1.513,0-4.124-0.252-4.124-4.771c0-4.501,2.917-4.555,4.195-4.555s2.971,0.99,3.079,2.25c-0.108-1.26-1.801-2.25-3.079-2.25
	s-4.195,0.054-4.195,4.555C247.074,659.298,249.685,659.55,251.197,659.55c1.53,0,3.151-1.422,3.205-2.935
	C254.348,658.128,252.728,659.55,251.197,659.55z"/>
<path fill="none" stroke="#FFF200" stroke-width="0.7087" stroke-linecap="round" stroke-linejoin="round" d="M258.63,650.224h3.763
	H258.63z M262.357,659.46c-0.882,0.054-1.837,0.09-1.837-1.117c0-1.224,0-11.523,0-11.523s0,10.299,0,11.523
	C260.521,659.55,261.475,659.514,262.357,659.46z"/>
<path fill="none" stroke="#FFF200" stroke-width="0.7087" stroke-linecap="round" stroke-linejoin="round" d="M266.442,654.833
	c0-3.637,1.854-4.7,4.087-4.7c2.251,0,4.087,1.062,4.087,4.7c0,3.655-1.836,4.717-4.087,4.717
	C268.296,659.55,266.442,658.488,266.442,654.833z M266.442,654.833c0-3.637,1.854-4.7,4.087-4.7c2.251,0,4.087,1.062,4.087,4.7
	c0,3.655-1.836,4.717-4.087,4.717C268.296,659.55,266.442,658.488,266.442,654.833z"/>
<path fill="none" stroke="#FFF200" stroke-width="0.7087" stroke-linecap="round" stroke-linejoin="round" d="M280.896,654.833
	c-0.054-2.071,1.854-4.538,3.529-4.52C282.751,650.295,280.842,652.762,280.896,654.833z M280.896,659.55v-9.237V659.55z"/>
<path fill="none" stroke="#FFF200" stroke-width="0.7087" stroke-linecap="round" stroke-linejoin="round" d="M304.892,656.615
	c-0.054,1.513-1.675,2.935-3.205,2.935c-1.513,0-4.124-0.252-4.124-4.771c0-4.501,2.917-4.555,4.195-4.555s2.971,0.99,3.079,2.25
	c-0.108-1.26-1.801-2.25-3.079-2.25s-4.195,0.054-4.195,4.555c0,4.52,2.611,4.771,4.124,4.771
	C303.217,659.55,304.837,658.128,304.892,656.615z"/>
<path fill="none" stroke="#FFF200" stroke-width="0.7087" stroke-linecap="round" stroke-linejoin="round" d="M310.038,650.277
	c0,0,0,6.032,0,6.86s0.828,2.376,3.115,2.395c2.305,0.018,3.529-1.765,3.529-3.421c0,1.656-1.224,3.439-3.529,3.421
	c-2.287-0.018-3.115-1.566-3.115-2.395S310.038,650.277,310.038,650.277z M316.682,650.277v9.255V650.277z"/>
<path fill="none" stroke="#FFF200" stroke-width="0.7087" stroke-linecap="round" stroke-linejoin="round" d="M322.961,650.224
	h3.763H322.961z M326.688,659.46c-0.882,0.054-1.837,0.09-1.837-1.117c0-1.224,0-11.523,0-11.523s0,10.299,0,11.523
	C324.852,659.55,325.806,659.514,326.688,659.46z"/>
<text transform="matrix(1 0 0 1 133.3325 727.0952)"><tspan x="0" y="0" fill="none" stroke="#000000" stroke-miterlimit="10" font-family="'Eng_HelvLine'" font-size="18">B.O.M.</tspan><tspan x="0" y="43.2" fill="none" stroke="#000000" stroke-miterlimit="10" font-family="'Eng_HelvLine'" font-size="18">Qty</tspan><tspan x="35.388" y="43.2" fill="none" stroke="#000000" stroke-miterlimit="10" font-family="'Eng_HelvLine'" font-size="18" letter-spacing="-8">	</tspan><tspan x="36" y="43.2" fill="none" stroke="#000000" stroke-miterlimit="10" font-family="'Eng_HelvLine'" font-size="18"> </tspan><tspan x="45" y="43.2" fill="none" stroke="#000000" stroke-miterlimit="10" font-family="'Eng_HelvLine'" font-size="18" letter-spacing="18">	</tspan><tspan x="72" y="43.2" fill="none" stroke="#000000" stroke-miterlimit="10" font-family="'Eng_HelvLine'" font-size="18">Item</tspan><tspan x="0" y="64.8" fill="none" stroke="#000000" stroke-miterlimit="10" font-family="'Eng_HelvLine'" font-size="18">4</tspan><tspan x="12.708" y="64.8" fill="none" stroke="#000000" stroke-miterlimit="10" font-family="'Eng_HelvLine'" font-size="18" letter-spacing="14">	</tspan><tspan x="36" y="64.8" fill="none" stroke="#000000" stroke-miterlimit="10" font-family="'Eng_HelvLine'" font-size="18" letter-spacing="27">	</tspan><tspan x="72" y="64.8" fill="none" stroke="#000000" stroke-miterlimit="10" font-family="'Eng_HelvLine'" font-size="18">M3 12mm nylon screw</tspan><tspan x="0" y="86.4" fill="none" stroke="#000000" stroke-miterlimit="10" font-family="'Eng_HelvLine'" font-size="18">4</tspan><tspan x="12.708" y="86.4" fill="none" stroke="#000000" stroke-miterlimit="10" font-family="'Eng_HelvLine'" font-size="18" letter-spacing="14">	</tspan><tspan x="36" y="86.4" fill="none" stroke="#000000" stroke-miterlimit="10" font-family="'Eng_HelvLine'" font-size="18" letter-spacing="27">	</tspan><tspan x="72" y="86.4" fill="none" stroke="#000000" stroke-miterlimit="10" font-family="'Eng_HelvLine'" font-size="18">M3 20mm nylon hex threaded spacer</tspan><tspan x="0" y="108" fill="none" stroke="#000000" stroke-miterlimit="10" font-family="'Eng_HelvLine'" font-size="18">4</tspan><tspan x="12.708" y="108" fill="none" stroke="#000000" stroke-miterlimit="10" font-family="'Eng_HelvLine'" font-size="18" letter-spacing="14">	</tspan><tspan x="36" y="108" fill="none" stroke="#000000" stroke-miterlimit="10" font-family="'Eng_HelvLine'" font-size="18" letter-spacing="27">	</tspan><tspan x="72" y="108" fill="none" stroke="#000000" stroke-miterlimit="10" font-family="'Eng_HelvLine'" font-size="18">3.2mm ID x 3mm circular nylon spacer</tspan><tspan x="0" y="129.6" fill="none" stroke="#000000" stroke-miterlimit="10" font-family="'Eng_HelvLine'" font-size="18">7</tspan><tspan x="12.312" y="129.6" fill="none" stroke="#000000" stroke-miterlimit="10" font-family="'Eng_HelvLine'" font-size="18" letter-spacing="14">	</tspan><tspan x="36" y="129.6" fill="none" stroke="#000000" stroke-miterlimit="10" font-family="'Eng_HelvLine'" font-size="18" letter-spacing="27">	</tspan><tspan x="72" y="129.6" fill="none" stroke="#000000" stroke-miterlimit="10" font-family="'Eng_HelvLine'" font-size="18">M3 16mm nylon screw</tspan><tspan x="0" y="151.2" fill="none" stroke="#000000" stroke-miterlimit="10" font-family="'Eng_HelvLine'" font-size="18">3</tspan><tspan x="11.844" y="151.2" fill="none" stroke="#000000" stroke-miterlimit="10" font-family="'Eng_HelvLine'" font-size="18" letter-spacing="15">	</tspan><tspan x="36" y="151.2" fill="none" stroke="#000000" stroke-miterlimit="10" font-family="'Eng_HelvLine'" font-size="18" letter-spacing="27">	</tspan><tspan x="72" y="151.2" fill="none" stroke="#000000" stroke-miterlimit="10" font-family="'Eng_HelvLine'" font-size="18">M3 nylon washer</tspan><tspan x="0" y="172.8" fill="none" stroke="#000000" stroke-miterlimit="10" font-family="'Eng_HelvLine'" font-size="18">3</tspan><tspan x="11.844" y="172.8" fill="none" stroke="#000000" stroke-miterlimit="10" font-family="'Eng_HelvLine'" font-size="18" letter-spacing="15">	</tspan><tspan x="36" y="172.8" fill="none" stroke="#000000" stroke-miterlimit="10" font-family="'Eng_HelvLine'" font-size="18" letter-spacing="27">	</tspan><tspan x="72" y="172.8" fill="none" stroke="#000000" stroke-miterlimit="10" font-family="'Eng_HelvLine'" font-size="18">M3 nylon nut</tspan><tspan x="0" y="194.4" fill="none" stroke="#000000" stroke-miterlimit="10" font-family="'Eng_HelvLine'" font-size="18">2</tspan><tspan x="11.97" y="194.4" fill="none" stroke="#000000" stroke-miterlimit="10" font-family="'Eng_HelvLine'" font-size="18" letter-spacing="15">	</tspan><tspan x="36" y="194.4" fill="none" stroke="#000000" stroke-miterlimit="10" font-family="'Eng_HelvLine'" font-size="18" letter-spacing="27">	</tspan><tspan x="72" y="194.4" fill="none" stroke="#000000" stroke-miterlimit="10" font-family="'Eng_HelvLine'" font-size="18">M3 tinned solder tag</tspan><tspan x="0" y="237.6" fill="none" stroke="#000000" stroke-miterlimit="10" font-family="'Eng_HelvLine'" font-size="18">For more information see https://github.com/abopen/parallella-open-case</tspan></text>
</svg>
