<?xml version="1.0" encoding="utf-8"?>
<!-- Generator: Adobe Illustrator 15.1.0, SVG Export Plug-In . SVG Version: 6.00 Build 0)  -->
<!DOCTYPE svg PUBLIC "-//W3C//DTD SVG 1.1//EN" "http://www.w3.org/Graphics/SVG/1.1/DTD/svg11.dtd">
<svg version="1.1" id="Layer_1" xmlns="http://www.w3.org/2000/svg" xmlns:xlink="http://www.w3.org/1999/xlink" x="0px" y="0px"
	 width="2267.72px" height="1700.79px" viewBox="0 0 2267.72 1700.79" enable-background="new 0 0 2267.72 1700.79"
	 xml:space="preserve">
<g>
	<path fill="none" stroke="#000000" stroke-miterlimit="10" d="M2225.198,1615.748c0,23.482-19.036,42.52-42.52,42.52H85.041
		c-23.483,0-42.52-19.037-42.52-42.52V85.039c0-23.483,19.037-42.52,42.52-42.52h2097.638c23.483,0,42.52,19.037,42.52,42.52
		V1615.748z"/>
	<rect x="42.521" y="1488.188" fill="none" stroke="#000000" stroke-miterlimit="10" width="2182.677" height="85.039"/>
</g>
<text transform="matrix(1 0 0 1 68.3682 1798.4648)"><tspan x="0" y="0" fill="none" stroke="#F68827" stroke-miterlimit="10" font-family="'Eng_HelvLine'" font-size="36">Date: 13-06-12</tspan><tspan x="302.469" y="0" fill="none" stroke="#F68827" stroke-miterlimit="10" font-family="'Eng_HelvLine'" font-size="36" letter-spacing="3">	</tspan><tspan x="324" y="0" fill="none" stroke="#F68827" stroke-miterlimit="10" font-family="'Eng_HelvLine'" font-size="36" letter-spacing="18">	</tspan><tspan x="360" y="0" fill="none" stroke="#F68827" stroke-miterlimit="10" font-family="'Eng_HelvLine'" font-size="36">File Name: DRBO-03</tspan><tspan x="814.423" y="0" fill="none" stroke="#F68827" stroke-miterlimit="10" font-family="'Eng_HelvLine'" font-size="36" letter-spacing="-4">	</tspan><tspan x="828" y="0" fill="none" stroke="#F68827" stroke-miterlimit="10" font-family="'Eng_HelvLine'" font-size="36" letter-spacing="18">	</tspan><tspan x="864" y="0" fill="none" stroke="#F68827" stroke-miterlimit="10" font-family="'Eng_HelvLine'" font-size="36">Version:</tspan><tspan x="1041.838" y="0" fill="none" stroke="#F68827" stroke-miterlimit="10" font-family="'Eng_HelvLine'" font-size="36" letter-spacing="-15">	</tspan><tspan x="1044" y="0" fill="none" stroke="#F68827" stroke-miterlimit="10" font-family="'Eng_HelvLine'" font-size="36" letter-spacing="18">	</tspan><tspan x="1080" y="0" fill="none" stroke="#F68827" stroke-miterlimit="10" font-family="'Eng_HelvLine'" font-size="36">Contributor: Stuart Childs stuchilds</tspan><tspan x="1866.016" y="0" fill="none" stroke="#F68827" stroke-miterlimit="10" font-family="'MyriadPro-Regular'" font-size="36">@</tspan><tspan x="1892.548" y="0" fill="none" stroke="#F68827" stroke-miterlimit="10" font-family="'Eng_HelvLine'" font-size="36">gmail.com</tspan><tspan x="2115.204" y="0" fill="none" stroke="#F68827" stroke-miterlimit="10" font-family="'Eng_HelvLine'" font-size="36" letter-spacing="-9">	</tspan><tspan x="2124" y="0" fill="none" stroke="#F68827" stroke-miterlimit="10" font-family="'Eng_HelvLine'" font-size="36" letter-spacing="18">	</tspan><tspan x="0" y="86.4" fill="none" stroke="#F68827" stroke-miterlimit="10" font-family="'Eng_HelvLine'" font-size="36">License: Creative Commons Attribution Sharealike 3.0 Unported</tspan><tspan x="1401.751" y="86.4" fill="none" stroke="#F68827" stroke-miterlimit="10" font-family="'Eng_HelvLine'" font-size="36" letter-spacing="-15">	</tspan><tspan x="1404" y="86.4" fill="none" stroke="#F68827" stroke-miterlimit="10" font-family="'Eng_HelvLine'" font-size="36" letter-spacing="18">	</tspan></text>
<g>
	<path fill="none" stroke="#F68827" stroke-miterlimit="10" d="M76.143,1538.377v-25.953h9.359c8.567,0,9.611,7.199,9.827,12.6
		c0.216,5.398-1.62,13.354-9.827,13.354H76.143z M76.143,1538.377v-25.953h9.359c8.567,0,9.611,7.199,9.827,12.6
		c0.216,5.398-1.62,13.354-9.827,13.354H76.143z"/>
	<path fill="none" stroke="#F68827" stroke-miterlimit="10" d="M109.803,1538.594c-2.988-0.107-5.363-1.045-5.363-4.355
		c0-3.348,2.016-4.752,5.831-5.111c3.78-0.359,5.471-0.936,7.271-1.439c-1.8,0.504-3.491,1.08-7.271,1.439
		c-3.815,0.359-5.831,1.764-5.831,5.111C104.44,1537.549,106.815,1538.486,109.803,1538.594c2.952,0.107,6.659-3.385,7.739-4.932
		C116.462,1535.209,112.755,1538.701,109.803,1538.594z M117.542,1536.037v-11.842c0-1.512-0.756-4.391-5.615-4.391
		s-6.659,2.195-6.659,4.463c0-2.268,1.8-4.463,6.659-4.463s5.615,2.879,5.615,4.391V1536.037c0,2.16,2.556,2.34,2.556,2.34
		S117.542,1538.197,117.542,1536.037z"/>
	<path fill="none" stroke="#F68827" stroke-miterlimit="10" d="M128.632,1519.732h7.523H128.632z M136.083,1538.197
		c-1.764,0.107-3.671,0.18-3.671-2.232c0-2.447,0-23.037,0-23.037s0,20.59,0,23.037
		C132.411,1538.377,134.319,1538.305,136.083,1538.197z"/>
	<path fill="none" stroke="#F68827" stroke-miterlimit="10" d="M144.291,1528.516h16.09c0-3.996-1.584-9.107-7.307-9.107
		c-5.688,0-8.819,3.887-8.819,9.826c0,5.975,4.031,9.143,8.819,9c4.823-0.145,6.911-3.889,7.163-5.221
		c-0.252,1.332-2.34,5.076-7.163,5.221c-4.788,0.143-8.819-3.025-8.819-9c0-5.939,3.131-9.826,8.819-9.826
		c5.723,0,7.307,5.111,7.307,9.107H144.291z"/>
	<path fill="none" stroke="#F68827" stroke-miterlimit="10" d="M173.162,1527.002v-1.979V1527.002z M173.162,1538.377v-1.979
		V1538.377z"/>
	<path fill="none" stroke="#F68827" stroke-miterlimit="10" d="M209.27,1538.377v-25.953c0,4.428-4.284,5.473-6.119,5.615
		c1.835-0.143,6.119-1.188,6.119-5.615V1538.377z"/>
	<path fill="none" stroke="#F68827" stroke-miterlimit="10" d="M223.058,1530.566c0-4.68,3.276-7.811,7.631-7.811
		s7.919,2.016,7.919,7.811s-3.563,7.811-7.919,7.811S223.202,1535.246,223.058,1530.566c-0.144-4.68-1.691-18.213,8.387-18.213
		c5.471,0,6.551,2.986,6.767,4.787c-0.216-1.801-1.296-4.787-6.767-4.787C221.367,1512.354,222.915,1525.887,223.058,1530.566
		c0.144,4.68,3.276,7.811,7.631,7.811s7.919-2.016,7.919-7.811s-3.563-7.811-7.919-7.811S223.058,1525.887,223.058,1530.566z"/>
	<path fill="none" stroke="#F68827" stroke-miterlimit="10" d="M247.214,1524.807h10.475H247.214z"/>
	<path fill="none" stroke="#F68827" stroke-miterlimit="10" d="M265.934,1525.42c0-7.129,1.512-12.959,7.847-12.959
		c6.335,0,7.847,5.83,7.847,12.959c0,7.162-1.512,12.957-7.847,12.957C267.446,1538.377,265.934,1532.582,265.934,1525.42z
		 M265.934,1525.42c0-7.129,1.512-12.959,7.847-12.959c6.335,0,7.847,5.83,7.847,12.959c0,7.162-1.512,12.957-7.847,12.957
		C267.446,1538.377,265.934,1532.582,265.934,1525.42z"/>
	<path fill="none" stroke="#F68827" stroke-miterlimit="10" d="M298.081,1527.975c-4.355,0-7.919-2.016-7.919-7.848
		c0-5.795,3.563-7.846,7.919-7.846s7.523,3.168,7.667,7.846c0.18,4.717,1.692,18.25-8.423,18.25c-5.472,0-6.551-3.023-6.767-4.787
		c0.216,1.764,1.295,4.787,6.767,4.787c10.115,0,8.603-13.533,8.423-18.25c-0.144-4.678-3.312-7.846-7.667-7.846
		s-7.919,2.051-7.919,7.846C290.162,1525.959,293.725,1527.975,298.081,1527.975s7.667-3.131,7.667-7.848
		C305.748,1524.844,302.436,1527.975,298.081,1527.975z"/>
	<path fill="none" stroke="#F68827" stroke-miterlimit="10" d="M316.045,1524.807h10.475H316.045z"/>
	<path fill="none" stroke="#F68827" stroke-miterlimit="10" d="M340.884,1512.424c0,4.428-4.284,5.473-6.119,5.615
		C336.601,1517.896,340.884,1516.852,340.884,1512.424v25.953V1512.424z"/>
	<path fill="none" stroke="#F68827" stroke-miterlimit="10" d="M368.423,1538.377h-15.442c0.144-5.254,2.952-6.947,6.011-8.963
		l6.155-4.104c2.556-1.764,2.52-4.283,2.52-6.695c0-2.447-1.512-6.406-6.623-6.406c-5.147,0-7.055,3.814-7.055,7.414
		c0-3.6,1.908-7.414,7.055-7.414c5.111,0,6.623,3.959,6.623,6.406c0,2.412,0.036,4.932-2.52,6.695l-6.155,4.104
		c-3.06,2.016-5.867,3.709-6.011,8.963H368.423z"/>
	<path fill="none" stroke="#F68827" stroke-miterlimit="10" d="M436.144,1538.377v-25.953h16.09h-16.09V1538.377z M450.758,1525.023
		h-14.614H450.758z"/>
	<path fill="none" stroke="#F68827" stroke-miterlimit="10" d="M464.907,1513.037v-0.648V1513.037z M464.907,1538.342v-18.467
		C464.907,1519.875,464.907,1538.414,464.907,1538.342z"/>
	<path fill="none" stroke="#F68827" stroke-miterlimit="10" d="M480.783,1538.377v-25.953V1538.377z"/>
	<path fill="none" stroke="#F68827" stroke-miterlimit="10" d="M492.807,1528.516h16.09c0-3.996-1.584-9.107-7.307-9.107
		c-5.688,0-8.819,3.887-8.819,9.826c0,5.975,4.031,9.143,8.819,9c4.823-0.145,6.911-3.889,7.163-5.221
		c-0.252,1.332-2.34,5.076-7.163,5.221c-4.788,0.143-8.819-3.025-8.819-9c0-5.939,3.131-9.826,8.819-9.826
		c5.723,0,7.307,5.111,7.307,9.107H492.807z"/>
	<path fill="none" stroke="#F68827" stroke-miterlimit="10" d="M539.678,1538.377v-25.953l18.502,25.953v-25.953v25.953
		l-18.502-25.953V1538.377z"/>
	<path fill="none" stroke="#F68827" stroke-miterlimit="10" d="M576.47,1538.594c-2.988-0.107-5.363-1.045-5.363-4.355
		c0-3.348,2.016-4.752,5.831-5.111c3.78-0.359,5.471-0.936,7.271-1.439c-1.8,0.504-3.491,1.08-7.271,1.439
		c-3.815,0.359-5.831,1.764-5.831,5.111C571.106,1537.549,573.482,1538.486,576.47,1538.594c2.952,0.107,6.659-3.385,7.739-4.932
		C583.129,1535.209,579.421,1538.701,576.47,1538.594z M584.208,1536.037v-11.842c0-1.512-0.756-4.391-5.615-4.391
		s-6.659,2.195-6.659,4.463c0-2.268,1.8-4.463,6.659-4.463s5.615,2.879,5.615,4.391V1536.037c0,2.16,2.556,2.34,2.556,2.34
		S584.208,1538.197,584.208,1536.037z"/>
	<path fill="none" stroke="#F68827" stroke-miterlimit="10" d="M611.46,1524.699c0-1.656-1.08-4.752-5.651-4.787
		c-4.571-0.037-6.623,3.527-6.623,6.838c0-3.311,2.052-6.875,6.623-6.838C610.38,1519.947,611.46,1523.043,611.46,1524.699
		s0,13.678,0,13.678S611.46,1526.355,611.46,1524.699z M599.186,1519.912v18.465V1519.912z M623.843,1524.699
		c0-1.656-1.584-4.752-6.155-4.787c-4.572-0.037-6.228,3.527-6.228,6.838c0-3.311,1.656-6.875,6.228-6.838
		C622.259,1519.947,623.843,1523.043,623.843,1524.699s0,13.678,0,13.678S623.843,1526.355,623.843,1524.699z"/>
	<path fill="none" stroke="#F68827" stroke-miterlimit="10" d="M634.862,1528.516h16.09c0-3.996-1.584-9.107-7.307-9.107
		c-5.688,0-8.819,3.887-8.819,9.826c0,5.975,4.031,9.143,8.819,9c4.823-0.145,6.911-3.889,7.163-5.221
		c-0.252,1.332-2.34,5.076-7.163,5.221c-4.788,0.143-8.819-3.025-8.819-9c0-5.939,3.131-9.826,8.819-9.826
		c5.723,0,7.307,5.111,7.307,9.107H634.862z"/>
	<path fill="none" stroke="#F68827" stroke-miterlimit="10" d="M663.733,1527.002v-1.979V1527.002z M663.733,1538.377v-1.979
		V1538.377z"/>
	<path fill="none" stroke="#F68827" stroke-miterlimit="10" d="M693.722,1525.203c0-9.936,5.147-13.463,11.446-13.463
		s11.447,3.527,11.447,13.463s-5.147,13.391-11.447,13.391S693.722,1535.139,693.722,1525.203z M693.722,1525.203
		c0-9.936,5.147-13.463,11.446-13.463s11.447,3.527,11.447,13.463s-5.147,13.391-11.447,13.391S693.722,1535.139,693.722,1525.203z"
		/>
	<path fill="none" stroke="#F68827" stroke-miterlimit="10" d="M729.396,1528.191l6.623-6.119l12.203,16.305l-12.203-16.305
		l10.475-9.648L729.396,1528.191v-15.768v25.953V1528.191z"/>
	<path fill="none" stroke="#F68827" stroke-miterlimit="10" d="M760.968,1512.424h16.09H760.968v25.953V1512.424z M760.968,1525.023
		h14.614H760.968z"/>
	<path fill="none" stroke="#F68827" stroke-miterlimit="10" d="M789.696,1538.377v-25.953l18.502,25.953v-25.953v25.953
		l-18.502-25.953V1538.377z"/>
	<path fill="none" stroke="#F68827" stroke-miterlimit="10" d="M821.124,1524.807h10.475H821.124z"/>
	<path fill="none" stroke="#F68827" stroke-miterlimit="10" d="M839.844,1530.531c0,5.758,4.391,8.062,9.539,8.062
		c5.219,0,8.495-3.275,8.603-6.48c0.108-3.166-1.512-5.686-4.715-6.371l-8.819-1.906c-2.484-0.541-3.959-1.98-3.959-5.363
		c0-3.385,2.843-6.301,8.027-6.301c5.183,0,8.963,2.449,8.819,6.732c0.144-4.283-3.636-6.732-8.819-6.732
		c-5.184,0-8.027,2.916-8.027,6.301c0,3.383,1.404,4.787,3.959,5.363l8.819,1.906c3.275,0.686,4.823,3.205,4.715,6.371
		c-0.108,3.205-3.384,6.48-8.603,6.48C844.235,1538.594,839.844,1536.289,839.844,1530.531z"/>
	<path fill="none" stroke="#F68827" stroke-miterlimit="10" d="M888.765,1529.666c-1.152,6.191-4.896,9-10.799,9
		c-7.163,0-11.23-4.068-11.23-13.283c0-9.178,4.067-13.281,11.23-13.281c5.111,0,8.639,2.123,10.223,6.73
		c-1.584-4.607-5.111-6.73-10.223-6.73c-7.163,0-11.23,4.104-11.23,13.281c0,9.215,4.067,13.283,11.23,13.283
		C883.869,1538.666,887.612,1535.857,888.765,1529.666z"/>
	<path fill="none" stroke="#F68827" stroke-miterlimit="10" d="M901.51,1538.377v-25.953h9.467c6.624,0,8.027,2.27,8.207,5.76
		c0.144,3.492-1.62,6.947-7.487,6.947H901.51h10.187c5.759,0,7.631-3.455,7.487-6.947c-0.18-3.49-1.728-5.76-8.207-5.76h-9.467
		V1538.377z M919.976,1538.377c-0.72-0.504-0.9-1.512-0.9-1.943l-0.648-6.551c-0.216-2.809-2.232-4.752-6.227-4.752
		c3.995,0,6.011,1.943,6.227,4.752l0.648,6.551C919.076,1536.865,919.256,1537.873,919.976,1538.377z"/>
	<path fill="none" stroke="#F68827" stroke-miterlimit="10" d="M928.834,1538.377l10.294-25.953l10.331,25.953l-10.331-25.953
		L928.834,1538.377z M932.074,1530.207h14.11H932.074z"/>
	<path fill="none" stroke="#F68827" stroke-miterlimit="10" d="M958.246,1524.807h10.475H958.246z"/>
	<path fill="none" stroke="#F68827" stroke-miterlimit="10" d="M976.966,1525.42c0-7.129,1.512-12.959,7.847-12.959
		c6.335,0,7.847,5.83,7.847,12.959c0,7.162-1.512,12.957-7.847,12.957C978.478,1538.377,976.966,1532.582,976.966,1525.42z
		 M976.966,1525.42c0-7.129,1.512-12.959,7.847-12.959c6.335,0,7.847,5.83,7.847,12.959c0,7.162-1.512,12.957-7.847,12.957
		C978.478,1538.377,976.966,1532.582,976.966,1525.42z"/>
	<path fill="none" stroke="#F68827" stroke-miterlimit="10" d="M1007.312,1512.424c0,4.428-4.284,5.473-6.119,5.615
		C1003.029,1517.896,1007.312,1516.852,1007.312,1512.424v25.953V1512.424z"/>
	<path fill="none" stroke="#F68827" stroke-miterlimit="10" d="M1084.144,1527.002v-1.979V1527.002z M1084.144,1538.377v-1.979
		V1538.377z"/>
	<path fill="none" stroke="#F68827" stroke-miterlimit="10" d="M1174.285,1529.666c-1.152,6.191-4.896,9-10.799,9
		c-7.163,0-11.23-4.068-11.23-13.283c0-9.178,4.067-13.281,11.23-13.281c5.111,0,8.639,2.123,10.223,6.73
		c-1.584-4.607-5.111-6.73-10.223-6.73c-7.163,0-11.23,4.104-11.23,13.281c0,9.215,4.067,13.283,11.23,13.283
		C1169.39,1538.666,1173.133,1535.857,1174.285,1529.666z"/>
	<path fill="none" stroke="#F68827" stroke-miterlimit="10" d="M1183.144,1528.947c0-7.271,3.707-9.395,8.171-9.395
		c4.499,0,8.171,2.123,8.171,9.395c0,7.307-3.672,9.43-8.171,9.43C1186.851,1538.377,1183.144,1536.254,1183.144,1528.947z
		 M1183.144,1528.947c0-7.271,3.707-9.395,8.171-9.395c4.499,0,8.171,2.123,8.171,9.395c0,7.307-3.672,9.43-8.171,9.43
		C1186.851,1538.377,1183.144,1536.254,1183.144,1528.947z"/>
	<path fill="none" stroke="#F68827" stroke-miterlimit="10" d="M1225.188,1538.377c0,0,0-12.021,0-13.678s-1.656-4.752-6.228-4.787
		c-4.607-0.037-7.019,3.527-7.019,6.838c0-3.311,2.411-6.875,7.019-6.838c4.571,0.035,6.228,3.131,6.228,4.787
		S1225.188,1538.377,1225.188,1538.377z M1211.942,1538.377v-18.465V1538.377z"/>
	<path fill="none" stroke="#F68827" stroke-miterlimit="10" d="M1235.595,1519.732h7.522H1235.595z M1243.046,1538.197
		c-1.764,0.107-3.672,0.18-3.672-2.232c0-2.447,0-23.037,0-23.037s0,20.59,0,23.037
		C1239.374,1538.377,1241.282,1538.305,1243.046,1538.197z"/>
	<path fill="none" stroke="#F68827" stroke-miterlimit="10" d="M1255.214,1528.947c-0.107-4.141,3.708-9.072,7.056-9.035
		C1258.922,1519.875,1255.106,1524.807,1255.214,1528.947z M1255.214,1538.377v-18.465V1538.377z"/>
	<path fill="none" stroke="#F68827" stroke-miterlimit="10" d="M1274.473,1513.037v-0.648V1513.037z M1274.473,1538.342v-18.467
		C1274.473,1519.875,1274.473,1538.414,1274.473,1538.342z"/>
	<path fill="none" stroke="#F68827" stroke-miterlimit="10" d="M1290.349,1512.316v26.061V1512.316z M1297.979,1519.805
		c4.211,0,7.631,2.051,7.631,9.285c0,7.199-3.42,9.287-7.631,9.287c-4.212,0-7.631-2.088-7.631-9.287
		C1290.349,1521.855,1293.768,1519.805,1297.979,1519.805z M1297.979,1519.805c4.211,0,7.631,2.051,7.631,9.285
		c0,7.199-3.42,9.287-7.631,9.287c-4.212,0-7.631-2.088-7.631-9.287C1290.349,1521.855,1293.768,1519.805,1297.979,1519.805z"/>
	<path fill="none" stroke="#F68827" stroke-miterlimit="10" d="M1316.16,1519.84c0,0,0,12.059,0,13.715
		c0,1.654,1.655,4.75,6.227,4.787c4.607,0.035,7.056-3.527,7.056-6.84c0,3.312-2.448,6.875-7.056,6.84
		c-4.571-0.037-6.227-3.133-6.227-4.787C1316.16,1531.898,1316.16,1519.84,1316.16,1519.84z M1329.442,1519.84v18.502V1519.84z"/>
	<path fill="none" stroke="#F68827" stroke-miterlimit="10" d="M1342.008,1519.732h7.522H1342.008z M1349.459,1538.197
		c-1.764,0.107-3.672,0.18-3.672-2.232c0-2.447,0-23.037,0-23.037s0,20.59,0,23.037
		C1345.787,1538.377,1347.695,1538.305,1349.459,1538.197z"/>
	<path fill="none" stroke="#F68827" stroke-miterlimit="10" d="M1357.632,1528.947c0-7.271,3.707-9.395,8.171-9.395
		c4.499,0,8.171,2.123,8.171,9.395c0,7.307-3.672,9.43-8.171,9.43C1361.339,1538.377,1357.632,1536.254,1357.632,1528.947z
		 M1357.632,1528.947c0-7.271,3.707-9.395,8.171-9.395c4.499,0,8.171,2.123,8.171,9.395c0,7.307-3.672,9.43-8.171,9.43
		C1361.339,1538.377,1357.632,1536.254,1357.632,1528.947z"/>
	<path fill="none" stroke="#F68827" stroke-miterlimit="10" d="M1386.538,1528.947c-0.107-4.141,3.708-9.072,7.056-9.035
		C1390.246,1519.875,1386.431,1524.807,1386.538,1528.947z M1386.538,1538.377v-18.465V1538.377z"/>
	<path fill="none" stroke="#F68827" stroke-miterlimit="10" d="M1405.762,1527.002v-1.979V1527.002z M1405.762,1538.377v-1.979
		V1538.377z"/>
	<path fill="none" stroke="#F68827" stroke-miterlimit="10" d="M1435.75,1530.531c0,5.758,4.392,8.062,9.539,8.062
		c5.219,0,8.494-3.275,8.603-6.48c0.108-3.166-1.512-5.686-4.716-6.371l-8.818-1.906c-2.483-0.541-3.96-1.98-3.96-5.363
		c0-3.385,2.844-6.301,8.027-6.301s8.963,2.449,8.818,6.732c0.145-4.283-3.635-6.732-8.818-6.732s-8.027,2.916-8.027,6.301
		c0,3.383,1.404,4.787,3.96,5.363l8.818,1.906c3.276,0.686,4.824,3.205,4.716,6.371c-0.108,3.205-3.384,6.48-8.603,6.48
		C1440.142,1538.594,1435.75,1536.289,1435.75,1530.531z"/>
	<path fill="none" stroke="#F68827" stroke-miterlimit="10" d="M1462.642,1519.732h7.522H1462.642z M1470.093,1538.197
		c-1.764,0.107-3.672,0.18-3.672-2.232c0-2.447,0-23.037,0-23.037s0,20.59,0,23.037
		C1466.421,1538.377,1468.329,1538.305,1470.093,1538.197z"/>
	<path fill="none" stroke="#F68827" stroke-miterlimit="10" d="M1480.102,1519.84c0,0,0,12.059,0,13.715
		c0,1.654,1.655,4.75,6.227,4.787c4.607,0.035,7.056-3.527,7.056-6.84c0,3.312-2.448,6.875-7.056,6.84
		c-4.571-0.037-6.227-3.133-6.227-4.787C1480.102,1531.898,1480.102,1519.84,1480.102,1519.84z M1493.384,1519.84v18.502V1519.84z"
		/>
	<path fill="none" stroke="#F68827" stroke-miterlimit="10" d="M1511.312,1538.594c-2.987-0.107-5.363-1.045-5.363-4.355
		c0-3.348,2.016-4.752,5.831-5.111c3.779-0.359,5.472-0.936,7.271-1.439c-1.8,0.504-3.492,1.08-7.271,1.439
		c-3.815,0.359-5.831,1.764-5.831,5.111C1505.949,1537.549,1508.325,1538.486,1511.312,1538.594
		c2.951,0.107,6.659-3.385,7.739-4.932C1517.972,1535.209,1514.264,1538.701,1511.312,1538.594z M1519.052,1536.037v-11.842
		c0-1.512-0.756-4.391-5.615-4.391s-6.659,2.195-6.659,4.463c0-2.268,1.8-4.463,6.659-4.463s5.615,2.879,5.615,4.391V1536.037
		c0,2.16,2.556,2.34,2.556,2.34S1519.052,1538.197,1519.052,1536.037z"/>
	<path fill="none" stroke="#F68827" stroke-miterlimit="10" d="M1534.137,1528.947c-0.107-4.141,3.708-9.072,7.056-9.035
		C1537.845,1519.875,1534.029,1524.807,1534.137,1528.947z M1534.137,1538.377v-18.465V1538.377z"/>
	<path fill="none" stroke="#F68827" stroke-miterlimit="10" d="M1549.474,1519.732h7.522H1549.474z M1556.925,1538.197
		c-1.764,0.107-3.672,0.18-3.672-2.232c0-2.447,0-23.037,0-23.037s0,20.59,0,23.037
		C1553.253,1538.377,1555.161,1538.305,1556.925,1538.197z"/>
	<path fill="none" stroke="#F68827" stroke-miterlimit="10" d="M1605.127,1529.666c-1.152,6.191-4.896,9-10.799,9
		c-7.163,0-11.23-4.068-11.23-13.283c0-9.178,4.067-13.281,11.23-13.281c5.111,0,8.639,2.123,10.223,6.73
		c-1.584-4.607-5.111-6.73-10.223-6.73c-7.163,0-11.23,4.104-11.23,13.281c0,9.215,4.067,13.283,11.23,13.283
		C1600.231,1538.666,1603.975,1535.857,1605.127,1529.666z"/>
	<path fill="none" stroke="#F68827" stroke-miterlimit="10" d="M1617.873,1538.377v-25.953V1538.377z M1631.335,1538.377
		c0,0,0-9.357,0-12.635c0-3.275-1.979-5.758-5.831-5.83c-3.924-0.072-7.631,2.303-7.631,5.436c0-3.133,3.707-5.508,7.631-5.436
		c3.852,0.072,5.831,2.555,5.831,5.83C1631.335,1529.02,1631.335,1538.377,1631.335,1538.377z"/>
	<path fill="none" stroke="#F68827" stroke-miterlimit="10" d="M1645.664,1513.037v-0.648V1513.037z M1645.664,1538.342v-18.467
		C1645.664,1519.875,1645.664,1538.414,1645.664,1538.342z"/>
	<path fill="none" stroke="#F68827" stroke-miterlimit="10" d="M1661.54,1538.377v-25.953V1538.377z"/>
	<path fill="none" stroke="#F68827" stroke-miterlimit="10" d="M1681.123,1519.805c4.176,0,7.631,2.086,7.631,9.285
		s-3.455,9.287-7.631,9.287s-7.595-2.088-7.595-9.287S1676.947,1519.805,1681.123,1519.805z M1681.123,1519.805
		c4.176,0,7.631,2.086,7.631,9.285s-3.455,9.287-7.631,9.287s-7.595-2.088-7.595-9.287S1676.947,1519.805,1681.123,1519.805z
		 M1688.79,1512.354v26.023V1512.354z"/>
	<path fill="none" stroke="#F68827" stroke-miterlimit="10" d="M1713.883,1523.223c0.072-0.898-1.116-3.418-5.651-3.6
		c-4.535-0.107-6.623,1.332-6.623,4.104c0,2.809,2.34,3.672,3.203,3.924l6.804,2.016c0.899,0.217,3.06,1.188,3.06,3.852
		s-2.844,4.859-6.443,4.859s-6.875-1.908-6.875-4.715c0,2.807,3.275,4.715,6.875,4.715s6.443-2.195,6.443-4.859
		s-2.16-3.635-3.06-3.852l-6.804-2.016c-0.863-0.252-3.203-1.115-3.203-3.924c0-2.771,2.088-4.211,6.623-4.104
		C1712.767,1519.805,1713.955,1522.324,1713.883,1523.223z"/>
	<path fill="none" stroke="#F68827" stroke-miterlimit="10" d="M1753.591,1523.223c0.072-0.898-1.116-3.418-5.651-3.6
		c-4.535-0.107-6.623,1.332-6.623,4.104c0,2.809,2.34,3.672,3.203,3.924l6.804,2.016c0.899,0.217,3.06,1.188,3.06,3.852
		s-2.844,4.859-6.443,4.859s-6.875-1.908-6.875-4.715c0,2.807,3.275,4.715,6.875,4.715s6.443-2.195,6.443-4.859
		s-2.16-3.635-3.06-3.852l-6.804-2.016c-0.863-0.252-3.203-1.115-3.203-3.924c0-2.771,2.088-4.211,6.623-4.104
		C1752.475,1519.805,1753.663,1522.324,1753.591,1523.223z"/>
	<path fill="none" stroke="#F68827" stroke-miterlimit="10" d="M1762.772,1519.732h7.522H1762.772z M1770.224,1538.197
		c-1.764,0.107-3.672,0.18-3.672-2.232c0-2.447,0-23.037,0-23.037s0,20.59,0,23.037
		C1766.552,1538.377,1768.46,1538.305,1770.224,1538.197z"/>
	<path fill="none" stroke="#F68827" stroke-miterlimit="10" d="M1780.232,1519.84c0,0,0,12.059,0,13.715
		c0,1.654,1.655,4.75,6.227,4.787c4.607,0.035,7.056-3.527,7.056-6.84c0,3.312-2.448,6.875-7.056,6.84
		c-4.571-0.037-6.227-3.133-6.227-4.787C1780.232,1531.898,1780.232,1519.84,1780.232,1519.84z M1793.515,1519.84v18.502V1519.84z"
		/>
	<path fill="none" stroke="#F68827" stroke-miterlimit="10" d="M1814.323,1538.377c-3.024,0-8.243-0.504-8.243-9.539
		c0-8.998,5.831-9.105,8.387-9.105s5.939,1.979,6.155,4.498c-0.216-2.52-3.6-4.498-6.155-4.498s-8.387,0.107-8.387,9.105
		C1806.08,1537.873,1811.299,1538.377,1814.323,1538.377c3.06,0,6.299-2.844,6.407-5.867
		C1820.622,1535.533,1817.383,1538.377,1814.323,1538.377z"/>
	<path fill="none" stroke="#F68827" stroke-miterlimit="10" d="M1833.08,1538.377v-25.953V1538.377z M1846.542,1538.377
		c0,0,0-9.357,0-12.635c0-3.275-1.979-5.758-5.831-5.83c-3.924-0.072-7.631,2.303-7.631,5.436c0-3.133,3.707-5.508,7.631-5.436
		c3.852,0.072,5.831,2.555,5.831,5.83C1846.542,1529.02,1846.542,1538.377,1846.542,1538.377z"/>
	<path fill="none" stroke="#F68827" stroke-miterlimit="10" d="M1860.871,1513.037v-0.648V1513.037z M1860.871,1538.342v-18.467
		C1860.871,1519.875,1860.871,1538.414,1860.871,1538.342z"/>
	<path fill="none" stroke="#F68827" stroke-miterlimit="10" d="M1876.747,1538.377v-25.953V1538.377z"/>
	<path fill="none" stroke="#F68827" stroke-miterlimit="10" d="M1896.33,1519.805c4.176,0,7.631,2.086,7.631,9.285
		s-3.455,9.287-7.631,9.287s-7.595-2.088-7.595-9.287S1892.154,1519.805,1896.33,1519.805z M1896.33,1519.805
		c4.176,0,7.631,2.086,7.631,9.285s-3.455,9.287-7.631,9.287s-7.595-2.088-7.595-9.287S1892.154,1519.805,1896.33,1519.805z
		 M1903.997,1512.354v26.023V1512.354z"/>
	<path fill="none" stroke="#F68827" stroke-miterlimit="10" d="M1929.09,1523.223c0.072-0.898-1.116-3.418-5.651-3.6
		c-4.535-0.107-6.623,1.332-6.623,4.104c0,2.809,2.34,3.672,3.203,3.924l6.804,2.016c0.899,0.217,3.06,1.188,3.06,3.852
		s-2.844,4.859-6.443,4.859s-6.875-1.908-6.875-4.715c0,2.807,3.275,4.715,6.875,4.715s6.443-2.195,6.443-4.859
		s-2.16-3.635-3.06-3.852l-6.804-2.016c-0.863-0.252-3.203-1.115-3.203-3.924c0-2.771,2.088-4.211,6.623-4.104
		C1927.974,1519.805,1929.162,1522.324,1929.09,1523.223z"/>
	<path fill="none" stroke="#F68827" stroke-miterlimit="10" d="M1953.245,1540.717c-1.979,1.045-3.995,1.439-6.407,1.439
		c-5.903,0-10.906-4.318-10.906-11.266c0-7.416,5.147-13.859,13.139-13.859c6.263,0,10.438,4.428,10.438,10.439
		c0,5.4-3.023,8.566-6.371,8.566c-1.44,0-2.771-0.936-2.7-3.166h-0.107c-1.26,2.123-2.916,3.166-5.075,3.166
		c-2.088,0-3.888-1.691-3.888-4.535c0-4.463,3.527-8.531,8.53-8.531c1.512,0,2.916,0.324,3.852,0.756l-1.224,6.516
		c-0.54,2.736-0.107,3.996,1.08,4.031c1.836,0.072,3.888-2.412,3.888-6.551c0-5.256-3.132-9.035-8.711-9.035
		c-5.867,0-10.799,4.68-10.799,11.986c0,6.012,3.924,9.756,9.251,9.756c2.052,0,3.959-0.432,5.436-1.26L1953.245,1540.717z
		 M1951.266,1525.168c-0.36-0.145-0.972-0.289-1.8-0.289c-3.168,0-5.724,2.988-5.724,6.479c0,1.584,0.792,2.736,2.376,2.736
		c2.088,0,3.996-2.664,4.392-4.895L1951.266,1525.168z"/>
	<path fill="none" stroke="#F68827" stroke-miterlimit="10" d="M1972.398,1519.732c4.176,0,7.631,2.088,7.631,9.287
		c0,7.197-3.455,9.285-7.631,9.285s-7.595-2.088-7.595-9.285C1964.804,1521.82,1968.223,1519.732,1972.398,1519.732z
		 M1972.398,1519.732c4.176,0,7.631,2.088,7.631,9.287c0,7.197-3.455,9.285-7.631,9.285s-7.595-2.088-7.595-9.285
		C1964.804,1521.82,1968.223,1519.732,1972.398,1519.732z M1965.884,1542.121c0.396,2.16,3.023,3.383,6.623,3.527
		c3.671,0.107,7.522-2.592,7.522-5.939c0-3.383,0-19.689,0-19.689s0,16.307,0,19.689c0,3.348-3.852,6.047-7.522,5.939
		C1968.907,1545.504,1966.279,1544.281,1965.884,1542.121z"/>
	<path fill="none" stroke="#F68827" stroke-miterlimit="10" d="M2004.689,1538.377c0,0,0-12.021,0-13.678s-1.08-4.752-5.651-4.787
		c-4.571-0.037-6.623,3.527-6.623,6.838c0-3.311,2.052-6.875,6.623-6.838c4.571,0.035,5.651,3.131,5.651,4.787
		S2004.689,1538.377,2004.689,1538.377z M1992.415,1538.377v-18.465V1538.377z M2017.071,1538.377c0,0,0-12.021,0-13.678
		s-1.584-4.752-6.155-4.787c-4.571-0.037-6.227,3.527-6.227,6.838c0-3.311,1.655-6.875,6.227-6.838
		c4.571,0.035,6.155,3.131,6.155,4.787S2017.071,1538.377,2017.071,1538.377z"/>
	<path fill="none" stroke="#F68827" stroke-miterlimit="10" d="M2033.418,1538.594c-2.987-0.107-5.363-1.045-5.363-4.355
		c0-3.348,2.016-4.752,5.831-5.111c3.779-0.359,5.472-0.936,7.271-1.439c-1.8,0.504-3.492,1.08-7.271,1.439
		c-3.815,0.359-5.831,1.764-5.831,5.111C2028.055,1537.549,2030.431,1538.486,2033.418,1538.594
		c2.951,0.107,6.659-3.385,7.739-4.932C2040.077,1535.209,2036.369,1538.701,2033.418,1538.594z M2041.157,1536.037v-11.842
		c0-1.512-0.756-4.391-5.615-4.391s-6.659,2.195-6.659,4.463c0-2.268,1.8-4.463,6.659-4.463s5.615,2.879,5.615,4.391V1536.037
		c0,2.16,2.556,2.34,2.556,2.34S2041.157,1538.197,2041.157,1536.037z"/>
	<path fill="none" stroke="#F68827" stroke-miterlimit="10" d="M2056.169,1513.037v-0.648V1513.037z M2056.169,1538.342v-18.467
		C2056.169,1519.875,2056.169,1538.414,2056.169,1538.342z"/>
	<path fill="none" stroke="#F68827" stroke-miterlimit="10" d="M2072.045,1538.377v-25.953V1538.377z"/>
	<path fill="none" stroke="#F68827" stroke-miterlimit="10" d="M2087.921,1538.377v-1.979V1538.377z"/>
	<path fill="none" stroke="#F68827" stroke-miterlimit="10" d="M2108.152,1538.377c-3.024,0-8.243-0.504-8.243-9.539
		c0-8.998,5.831-9.105,8.387-9.105s5.939,1.979,6.155,4.498c-0.216-2.52-3.6-4.498-6.155-4.498s-8.387,0.107-8.387,9.105
		C2099.909,1537.873,2105.128,1538.377,2108.152,1538.377c3.06,0,6.299-2.844,6.407-5.867
		C2114.451,1535.533,2111.212,1538.377,2108.152,1538.377z"/>
	<path fill="none" stroke="#F68827" stroke-miterlimit="10" d="M2123.021,1528.947c0-7.271,3.707-9.395,8.171-9.395
		c4.499,0,8.171,2.123,8.171,9.395c0,7.307-3.672,9.43-8.171,9.43C2126.729,1538.377,2123.021,1536.254,2123.021,1528.947z
		 M2123.021,1528.947c0-7.271,3.707-9.395,8.171-9.395c4.499,0,8.171,2.123,8.171,9.395c0,7.307-3.672,9.43-8.171,9.43
		C2126.729,1538.377,2123.021,1536.254,2123.021,1528.947z"/>
	<path fill="none" stroke="#F68827" stroke-miterlimit="10" d="M2164.095,1524.699c0-1.656-1.08-4.752-5.651-4.787
		c-4.571-0.037-6.623,3.527-6.623,6.838c0-3.311,2.052-6.875,6.623-6.838C2163.015,1519.947,2164.095,1523.043,2164.095,1524.699
		s0,13.678,0,13.678S2164.095,1526.355,2164.095,1524.699z M2151.82,1519.912v18.465V1519.912z M2176.477,1524.699
		c0-1.656-1.584-4.752-6.155-4.787c-4.571-0.037-6.227,3.527-6.227,6.838c0-3.311,1.655-6.875,6.227-6.838
		C2174.893,1519.947,2176.477,1523.043,2176.477,1524.699s0,13.678,0,13.678S2176.477,1526.355,2176.477,1524.699z"/>
	<path fill="none" stroke="#F68827" stroke-miterlimit="10" d="M91.297,1624.777H76.143v-25.953v25.953H91.297z"/>
	<path fill="none" stroke="#F68827" stroke-miterlimit="10" d="M103.899,1599.438v-0.648V1599.438z M103.899,1624.742v-18.467
		C103.899,1606.275,103.899,1624.814,103.899,1624.742z"/>
	<path fill="none" stroke="#F68827" stroke-miterlimit="10" d="M130.537,1618.91c-0.108,3.023-3.348,5.867-6.407,5.867
		c-3.023,0-8.243-0.504-8.243-9.539c0-8.998,5.831-9.105,8.387-9.105s5.939,1.979,6.155,4.498c-0.216-2.52-3.6-4.498-6.155-4.498
		s-8.387,0.107-8.387,9.105c0,9.035,5.219,9.539,8.243,9.539C127.189,1624.777,130.429,1621.934,130.537,1618.91z"/>
	<path fill="none" stroke="#F68827" stroke-miterlimit="10" d="M155.125,1614.916c0-3.996-1.584-9.107-7.307-9.107
		c-5.688,0-8.819,3.887-8.819,9.826c0,5.975,4.031,9.143,8.819,9c4.823-0.145,6.911-3.889,7.163-5.221
		c-0.252,1.332-2.34,5.076-7.163,5.221c-4.788,0.143-8.819-3.025-8.819-9c0-5.939,3.131-9.826,8.819-9.826
		C153.541,1605.809,155.125,1610.92,155.125,1614.916h-16.09H155.125z"/>
	<path fill="none" stroke="#F68827" stroke-miterlimit="10" d="M181.152,1624.777c0,0,0-12.021,0-13.678s-1.656-4.752-6.228-4.787
		c-4.607-0.037-7.019,3.527-7.019,6.838c0-3.311,2.412-6.875,7.019-6.838c4.572,0.035,6.228,3.131,6.228,4.787
		S181.152,1624.777,181.152,1624.777z M167.906,1624.777v-18.465V1624.777z"/>
	<path fill="none" stroke="#F68827" stroke-miterlimit="10" d="M204.085,1609.623c0.072-0.898-1.116-3.418-5.651-3.6
		c-4.536-0.107-6.623,1.332-6.623,4.104c0,2.809,2.339,3.672,3.204,3.924l6.803,2.016c0.9,0.217,3.06,1.188,3.06,3.852
		s-2.844,4.859-6.443,4.859s-6.875-1.908-6.875-4.715c0,2.807,3.275,4.715,6.875,4.715s6.443-2.195,6.443-4.859
		s-2.16-3.635-3.06-3.852l-6.803-2.016c-0.864-0.252-3.204-1.115-3.204-3.924c0-2.771,2.087-4.211,6.623-4.104
		C202.969,1606.205,204.157,1608.725,204.085,1609.623z"/>
	<path fill="none" stroke="#F68827" stroke-miterlimit="10" d="M213.302,1614.916h16.09c0-3.996-1.584-9.107-7.307-9.107
		c-5.688,0-8.819,3.887-8.819,9.826c0,5.975,4.031,9.143,8.819,9c4.823-0.145,6.911-3.889,7.163-5.221
		c-0.252,1.332-2.34,5.076-7.163,5.221c-4.788,0.143-8.819-3.025-8.819-9c0-5.939,3.131-9.826,8.819-9.826
		c5.723,0,7.307,5.111,7.307,9.107H213.302z"/>
	<path fill="none" stroke="#F68827" stroke-miterlimit="10" d="M242.173,1613.402v-1.979V1613.402z M242.173,1624.777v-1.979
		V1624.777z"/>
	<path fill="none" stroke="#F68827" stroke-miterlimit="10" d="M283.393,1625.066c-7.163,0-11.23-4.068-11.23-13.283
		c0-9.178,4.067-13.281,11.23-13.281c5.111,0,8.639,2.123,10.223,6.73c-1.584-4.607-5.111-6.73-10.223-6.73
		c-7.163,0-11.23,4.104-11.23,13.281C272.162,1620.998,276.229,1625.066,283.393,1625.066c5.903,0,9.646-2.809,10.799-9
		C293.039,1622.258,289.296,1625.066,283.393,1625.066z"/>
	<path fill="none" stroke="#F68827" stroke-miterlimit="10" d="M314.1,1606.312c-3.348-0.037-7.163,4.895-7.055,9.035
		C306.937,1611.207,310.752,1606.275,314.1,1606.312z M307.045,1606.312v18.465V1606.312z"/>
	<path fill="none" stroke="#F68827" stroke-miterlimit="10" d="M338.507,1614.916c0-3.996-1.584-9.107-7.307-9.107
		c-5.688,0-8.819,3.887-8.819,9.826c0,5.975,4.031,9.143,8.819,9c4.823-0.145,6.911-3.889,7.163-5.221
		c-0.252,1.332-2.34,5.076-7.163,5.221c-4.788,0.143-8.819-3.025-8.819-9c0-5.939,3.131-9.826,8.819-9.826
		C336.923,1605.809,338.507,1610.92,338.507,1614.916h-16.09H338.507z"/>
	<path fill="none" stroke="#F68827" stroke-miterlimit="10" d="M352.764,1624.994c-2.988-0.107-5.363-1.045-5.363-4.355
		c0-3.348,2.016-4.752,5.831-5.111c3.78-0.359,5.471-0.936,7.271-1.439c-1.8,0.504-3.491,1.08-7.271,1.439
		c-3.815,0.359-5.831,1.764-5.831,5.111C347.401,1623.949,349.776,1624.887,352.764,1624.994c2.952,0.107,6.659-3.385,7.739-4.932
		C359.423,1621.609,355.716,1625.102,352.764,1624.994z M360.503,1622.438v-11.842c0-1.512-0.756-4.391-5.615-4.391
		s-6.659,2.195-6.659,4.463c0-2.268,1.8-4.463,6.659-4.463s5.615,2.879,5.615,4.391V1622.438c0,2.16,2.556,2.34,2.556,2.34
		S360.503,1624.598,360.503,1622.438z"/>
	<path fill="none" stroke="#F68827" stroke-miterlimit="10" d="M371.593,1606.133h7.523H371.593z M379.043,1624.598
		c-1.764,0.107-3.671,0.18-3.671-2.232c0-2.447,0-23.037,0-23.037s0,20.59,0,23.037
		C375.372,1624.777,377.28,1624.705,379.043,1624.598z"/>
	<path fill="none" stroke="#F68827" stroke-miterlimit="10" d="M391.14,1599.438v-0.648V1599.438z M391.14,1624.742v-18.467
		C391.14,1606.275,391.14,1624.814,391.14,1624.742z"/>
	<path fill="none" stroke="#F68827" stroke-miterlimit="10" d="M417.814,1606.312l-7.379,18.465l-7.307-18.465l7.307,18.465
		L417.814,1606.312z"/>
	<path fill="none" stroke="#F68827" stroke-miterlimit="10" d="M426.311,1614.916h16.09c0-3.996-1.584-9.107-7.307-9.107
		c-5.688,0-8.819,3.887-8.819,9.826c0,5.975,4.031,9.143,8.819,9c4.823-0.145,6.911-3.889,7.163-5.221
		c-0.252,1.332-2.34,5.076-7.163,5.221c-4.788,0.143-8.819-3.025-8.819-9c0-5.939,3.131-9.826,8.819-9.826
		c5.723,0,7.307,5.111,7.307,9.107H426.311z"/>
	<path fill="none" stroke="#F68827" stroke-miterlimit="10" d="M491.324,1616.066c-1.152,6.191-4.896,9-10.799,9
		c-7.163,0-11.23-4.068-11.23-13.283c0-9.178,4.067-13.281,11.23-13.281c5.111,0,8.639,2.123,10.223,6.73
		c-1.584-4.607-5.111-6.73-10.223-6.73c-7.163,0-11.23,4.104-11.23,13.281c0,9.215,4.067,13.283,11.23,13.283
		C486.429,1625.066,490.172,1622.258,491.324,1616.066z"/>
	<path fill="none" stroke="#F68827" stroke-miterlimit="10" d="M500.183,1615.348c0-7.271,3.708-9.395,8.171-9.395
		c4.5,0,8.171,2.123,8.171,9.395c0,7.307-3.671,9.43-8.171,9.43C503.89,1624.777,500.183,1622.654,500.183,1615.348z
		 M500.183,1615.348c0-7.271,3.708-9.395,8.171-9.395c4.5,0,8.171,2.123,8.171,9.395c0,7.307-3.671,9.43-8.171,9.43
		C503.89,1624.777,500.183,1622.654,500.183,1615.348z"/>
	<path fill="none" stroke="#F68827" stroke-miterlimit="10" d="M541.256,1624.777c0,0,0-12.021,0-13.678s-1.08-4.752-5.651-4.787
		c-4.571-0.037-6.623,3.527-6.623,6.838c0-3.311,2.052-6.875,6.623-6.838c4.572,0.035,5.651,3.131,5.651,4.787
		S541.256,1624.777,541.256,1624.777z M528.981,1624.777v-18.465V1624.777z M553.639,1624.777c0,0,0-12.021,0-13.678
		s-1.584-4.752-6.155-4.787c-4.572-0.037-6.228,3.527-6.228,6.838c0-3.311,1.656-6.875,6.228-6.838
		c4.571,0.035,6.155,3.131,6.155,4.787S553.639,1624.777,553.639,1624.777z"/>
	<path fill="none" stroke="#F68827" stroke-miterlimit="10" d="M580.784,1624.777c0,0,0-12.021,0-13.678s-1.08-4.752-5.651-4.787
		c-4.572-0.037-6.624,3.527-6.624,6.838c0-3.311,2.052-6.875,6.624-6.838c4.571,0.035,5.651,3.131,5.651,4.787
		S580.784,1624.777,580.784,1624.777z M568.509,1624.777v-18.465V1624.777z M593.167,1624.777c0,0,0-12.021,0-13.678
		s-1.584-4.752-6.155-4.787c-4.572-0.037-6.228,3.527-6.228,6.838c0-3.311,1.656-6.875,6.228-6.838
		c4.571,0.035,6.155,3.131,6.155,4.787S593.167,1624.777,593.167,1624.777z"/>
	<path fill="none" stroke="#F68827" stroke-miterlimit="10" d="M604.15,1615.348c0-7.271,3.708-9.395,8.171-9.395
		c4.5,0,8.171,2.123,8.171,9.395c0,7.307-3.671,9.43-8.171,9.43C607.857,1624.777,604.15,1622.654,604.15,1615.348z
		 M604.15,1615.348c0-7.271,3.708-9.395,8.171-9.395c4.5,0,8.171,2.123,8.171,9.395c0,7.307-3.671,9.43-8.171,9.43
		C607.857,1624.777,604.15,1622.654,604.15,1615.348z"/>
	<path fill="none" stroke="#F68827" stroke-miterlimit="10" d="M646.195,1611.1c0-1.656-1.656-4.752-6.228-4.787
		c-4.607-0.037-7.019,3.527-7.019,6.838c0-3.311,2.412-6.875,7.019-6.838C644.54,1606.348,646.195,1609.443,646.195,1611.1
		s0,13.678,0,13.678S646.195,1612.756,646.195,1611.1z M632.949,1606.312v18.465V1606.312z"/>
	<path fill="none" stroke="#F68827" stroke-miterlimit="10" d="M663.477,1606.023c-4.536-0.107-6.623,1.332-6.623,4.104
		c0,2.809,2.339,3.672,3.204,3.924l6.803,2.016c0.9,0.217,3.06,1.188,3.06,3.852s-2.844,4.859-6.443,4.859s-6.875-1.908-6.875-4.715
		c0,2.807,3.275,4.715,6.875,4.715s6.443-2.195,6.443-4.859s-2.16-3.635-3.06-3.852l-6.803-2.016
		c-0.864-0.252-3.204-1.115-3.204-3.924C656.854,1607.355,658.941,1605.916,663.477,1606.023c4.535,0.182,5.723,2.701,5.651,3.6
		C669.2,1608.725,668.012,1606.205,663.477,1606.023z"/>
	<path fill="none" stroke="#F68827" stroke-miterlimit="10" d="M696.31,1624.777l10.294-25.953l10.331,25.953l-10.331-25.953
		L696.31,1624.777z M699.549,1616.607h14.11H699.549z"/>
	<path fill="none" stroke="#F68827" stroke-miterlimit="10" d="M725.721,1606.133h7.523H725.721z M733.172,1624.598
		c-1.764,0.107-3.671,0.18-3.671-2.232c0-2.447,0-23.037,0-23.037s0,20.59,0,23.037
		C729.5,1624.777,731.408,1624.705,733.172,1624.598z"/>
	<path fill="none" stroke="#F68827" stroke-miterlimit="10" d="M741.345,1606.133h7.523H741.345z M748.795,1624.598
		c-1.764,0.107-3.671,0.18-3.671-2.232c0-2.447,0-23.037,0-23.037s0,20.59,0,23.037
		C745.124,1624.777,747.032,1624.705,748.795,1624.598z"/>
	<path fill="none" stroke="#F68827" stroke-miterlimit="10" d="M760.963,1615.348c-0.108-4.141,3.708-9.072,7.055-9.035
		C764.671,1606.275,760.855,1611.207,760.963,1615.348z M760.963,1624.777v-18.465V1624.777z"/>
	<path fill="none" stroke="#F68827" stroke-miterlimit="10" d="M780.223,1599.438v-0.648V1599.438z M780.223,1624.742v-18.467
		C780.223,1606.275,780.223,1624.814,780.223,1624.742z"/>
	<path fill="none" stroke="#F68827" stroke-miterlimit="10" d="M796.099,1598.717v26.061V1598.717z M803.73,1606.205
		c4.211,0,7.631,2.051,7.631,9.285c0,7.199-3.419,9.287-7.631,9.287s-7.631-2.088-7.631-9.287
		C796.099,1608.256,799.519,1606.205,803.73,1606.205z M803.73,1606.205c4.211,0,7.631,2.051,7.631,9.285
		c0,7.199-3.419,9.287-7.631,9.287s-7.631-2.088-7.631-9.287C796.099,1608.256,799.519,1606.205,803.73,1606.205z"/>
	<path fill="none" stroke="#F68827" stroke-miterlimit="10" d="M821.911,1606.24c0,0,0,12.059,0,13.715
		c0,1.654,1.656,4.75,6.228,4.787c4.607,0.035,7.055-3.527,7.055-6.84c0,3.312-2.448,6.875-7.055,6.84
		c-4.572-0.037-6.228-3.133-6.228-4.787C821.911,1618.299,821.911,1606.24,821.911,1606.24z M835.193,1606.24v18.502V1606.24z"/>
	<path fill="none" stroke="#F68827" stroke-miterlimit="10" d="M847.759,1606.133h7.523H847.759z M855.21,1624.598
		c-1.764,0.107-3.671,0.18-3.671-2.232c0-2.447,0-23.037,0-23.037s0,20.59,0,23.037
		C851.539,1624.777,853.446,1624.705,855.21,1624.598z"/>
	<path fill="none" stroke="#F68827" stroke-miterlimit="10" d="M867.306,1599.438v-0.648V1599.438z M867.306,1624.742v-18.467
		C867.306,1606.275,867.306,1624.814,867.306,1624.742z"/>
	<path fill="none" stroke="#F68827" stroke-miterlimit="10" d="M879.294,1615.348c0-7.271,3.708-9.395,8.171-9.395
		c4.5,0,8.171,2.123,8.171,9.395c0,7.307-3.671,9.43-8.171,9.43C883.002,1624.777,879.294,1622.654,879.294,1615.348z
		 M879.294,1615.348c0-7.271,3.708-9.395,8.171-9.395c4.5,0,8.171,2.123,8.171,9.395c0,7.307-3.671,9.43-8.171,9.43
		C883.002,1624.777,879.294,1622.654,879.294,1615.348z"/>
	<path fill="none" stroke="#F68827" stroke-miterlimit="10" d="M921.34,1624.777c0,0,0-12.021,0-13.678s-1.656-4.752-6.228-4.787
		c-4.607-0.037-7.019,3.527-7.019,6.838c0-3.311,2.412-6.875,7.019-6.838c4.572,0.035,6.228,3.131,6.228,4.787
		S921.34,1624.777,921.34,1624.777z M908.093,1624.777v-18.465V1624.777z"/>
	<path fill="none" stroke="#F68827" stroke-miterlimit="10" d="M949.746,1616.932c0,5.758,4.391,8.062,9.539,8.062
		c5.219,0,8.495-3.275,8.603-6.48c0.108-3.166-1.512-5.686-4.715-6.371l-8.819-1.906c-2.484-0.541-3.959-1.98-3.959-5.363
		c0-3.385,2.843-6.301,8.027-6.301c5.183,0,8.963,2.449,8.819,6.732c0.144-4.283-3.636-6.732-8.819-6.732
		c-5.184,0-8.027,2.916-8.027,6.301c0,3.383,1.404,4.787,3.959,5.363l8.819,1.906c3.275,0.686,4.823,3.205,4.715,6.371
		c-0.108,3.205-3.384,6.48-8.603,6.48C954.137,1624.994,949.746,1622.689,949.746,1616.932z"/>
	<path fill="none" stroke="#F68827" stroke-miterlimit="10" d="M980.525,1624.777v-25.953V1624.777z M993.987,1624.777
		c0,0,0-9.357,0-12.635c0-3.275-1.979-5.758-5.831-5.83c-3.924-0.072-7.631,2.303-7.631,5.436c0-3.133,3.708-5.508,7.631-5.436
		c3.852,0.072,5.831,2.555,5.831,5.83C993.987,1615.42,993.987,1624.777,993.987,1624.777z"/>
	<path fill="none" stroke="#F68827" stroke-miterlimit="10" d="M1009.757,1624.994c-2.988-0.107-5.363-1.045-5.363-4.355
		c0-3.348,2.016-4.752,5.831-5.111c3.78-0.359,5.471-0.936,7.271-1.439c-1.8,0.504-3.491,1.08-7.271,1.439
		c-3.815,0.359-5.831,1.764-5.831,5.111C1004.394,1623.949,1006.769,1624.887,1009.757,1624.994
		c2.952,0.107,6.659-3.385,7.739-4.932C1016.416,1621.609,1012.708,1625.102,1009.757,1624.994z M1017.496,1622.438v-11.842
		c0-1.512-0.756-4.391-5.615-4.391s-6.659,2.195-6.659,4.463c0-2.268,1.8-4.463,6.659-4.463s5.615,2.879,5.615,4.391V1622.438
		c0,2.16,2.556,2.34,2.556,2.34S1017.496,1624.598,1017.496,1622.438z"/>
	<path fill="none" stroke="#F68827" stroke-miterlimit="10" d="M1032.581,1615.348c-0.107-4.141,3.708-9.072,7.056-9.035
		C1036.289,1606.275,1032.474,1611.207,1032.581,1615.348z M1032.581,1624.777v-18.465V1624.777z"/>
	<path fill="none" stroke="#F68827" stroke-miterlimit="10" d="M1047.954,1614.916h16.09c0-3.996-1.584-9.107-7.308-9.107
		c-5.687,0-8.818,3.887-8.818,9.826c0,5.975,4.031,9.143,8.818,9c4.824-0.145,6.911-3.889,7.163-5.221
		c-0.252,1.332-2.339,5.076-7.163,5.221c-4.787,0.143-8.818-3.025-8.818-9c0-5.939,3.132-9.826,8.818-9.826
		c5.724,0,7.308,5.111,7.308,9.107H1047.954z"/>
	<path fill="none" stroke="#F68827" stroke-miterlimit="10" d="M1078.301,1624.994c-2.987-0.107-5.363-1.045-5.363-4.355
		c0-3.348,2.016-4.752,5.831-5.111c3.779-0.359,5.472-0.936,7.271-1.439c-1.8,0.504-3.492,1.08-7.271,1.439
		c-3.815,0.359-5.831,1.764-5.831,5.111C1072.938,1623.949,1075.313,1624.887,1078.301,1624.994
		c2.951,0.107,6.659-3.385,7.739-4.932C1084.96,1621.609,1081.252,1625.102,1078.301,1624.994z M1086.04,1622.438v-11.842
		c0-1.512-0.756-4.391-5.615-4.391s-6.659,2.195-6.659,4.463c0-2.268,1.8-4.463,6.659-4.463s5.615,2.879,5.615,4.391V1622.438
		c0,2.16,2.556,2.34,2.556,2.34S1086.04,1624.598,1086.04,1622.438z"/>
	<path fill="none" stroke="#F68827" stroke-miterlimit="10" d="M1101.017,1624.777v-25.953V1624.777z"/>
	<path fill="none" stroke="#F68827" stroke-miterlimit="10" d="M1116.928,1599.438v-0.648V1599.438z M1116.928,1624.742v-18.467
		C1116.928,1606.275,1116.928,1624.814,1116.928,1624.742z"/>
	<path fill="none" stroke="#F68827" stroke-miterlimit="10" d="M1132.804,1624.777v-7.271l4.967-4.822l7.848,12.094l-7.848-12.094
		l6.623-6.371l-11.59,11.193v-18.682V1624.777z"/>
	<path fill="none" stroke="#F68827" stroke-miterlimit="10" d="M1170.313,1614.916c0-3.996-1.584-9.107-7.308-9.107
		c-5.687,0-8.818,3.887-8.818,9.826c0,5.975,4.031,9.143,8.818,9c4.824-0.145,6.911-3.889,7.163-5.221
		c-0.252,1.332-2.339,5.076-7.163,5.221c-4.787,0.143-8.818-3.025-8.818-9c0-5.939,3.132-9.826,8.818-9.826
		C1168.729,1605.809,1170.313,1610.92,1170.313,1614.916h-16.09H1170.313z"/>
	<path fill="none" stroke="#F68827" stroke-miterlimit="10" d="M1204.622,1624.777c4.607,0,7.774-1.908,7.774-6.658
		c0-4.752-2.808-7.307-9.07-7.307c6.228,0.035,8.243-2.521,8.243-5.977s-1.764-6.154-6.659-6.154c-4.859,0-7.199,3.059-7.199,6.514
		c0-3.455,2.34-6.514,7.199-6.514c4.896,0,6.659,2.699,6.659,6.154s-2.016,6.012-8.243,5.977c6.263,0,9.07,2.555,9.07,7.307
		C1212.396,1622.869,1209.229,1624.777,1204.622,1624.777s-7.415-2.664-7.415-6.516
		C1197.207,1622.113,1200.015,1624.777,1204.622,1624.777z"/>
	<path fill="none" stroke="#F68827" stroke-miterlimit="10" d="M1224.782,1624.777v-1.979V1624.777z"/>
	<path fill="none" stroke="#F68827" stroke-miterlimit="10" d="M1236.771,1611.82c0-7.129,1.512-12.959,7.847-12.959
		s7.847,5.83,7.847,12.959c0,7.162-1.512,12.957-7.847,12.957S1236.771,1618.982,1236.771,1611.82z M1236.771,1611.82
		c0-7.129,1.512-12.959,7.847-12.959s7.847,5.83,7.847,12.959c0,7.162-1.512,12.957-7.847,12.957
		S1236.771,1618.982,1236.771,1611.82z"/>
	<path fill="none" stroke="#F68827" stroke-miterlimit="10" d="M1297.248,1598.789c0,0,0,13.426,0,17.746
		c0,4.318-2.664,8.242-8.999,8.207c-6.336-0.107-9.251-3.637-9.251-8.207v-17.746v17.746c0,4.57,2.915,8.1,9.251,8.207
		c6.335,0.035,8.999-3.889,8.999-8.207C1297.248,1612.215,1297.248,1598.789,1297.248,1598.789z"/>
	<path fill="none" stroke="#F68827" stroke-miterlimit="10" d="M1323.023,1624.777c0,0,0-12.021,0-13.678s-1.656-4.752-6.228-4.787
		c-4.607-0.037-7.019,3.527-7.019,6.838c0-3.311,2.411-6.875,7.019-6.838c4.571,0.035,6.228,3.131,6.228,4.787
		S1323.023,1624.777,1323.023,1624.777z M1309.777,1624.777v-18.465V1624.777z"/>
	<path fill="none" stroke="#F68827" stroke-miterlimit="10" d="M1337.317,1631.941v-25.988V1631.941z M1344.948,1624.777
		c4.176,0,7.631-2.123,7.631-9.43c0-7.271-3.455-9.395-7.631-9.395s-7.596,2.123-7.596,9.395
		C1337.353,1622.654,1340.772,1624.777,1344.948,1624.777z M1344.948,1624.777c4.176,0,7.631-2.123,7.631-9.43
		c0-7.271-3.455-9.395-7.631-9.395s-7.596,2.123-7.596,9.395C1337.353,1622.654,1340.772,1624.777,1344.948,1624.777z"/>
	<path fill="none" stroke="#F68827" stroke-miterlimit="10" d="M1361.293,1615.348c0-7.271,3.707-9.395,8.171-9.395
		c4.499,0,8.171,2.123,8.171,9.395c0,7.307-3.672,9.43-8.171,9.43C1365,1624.777,1361.293,1622.654,1361.293,1615.348z
		 M1361.293,1615.348c0-7.271,3.707-9.395,8.171-9.395c4.499,0,8.171,2.123,8.171,9.395c0,7.307-3.672,9.43-8.171,9.43
		C1365,1624.777,1361.293,1622.654,1361.293,1615.348z"/>
	<path fill="none" stroke="#F68827" stroke-miterlimit="10" d="M1390.199,1615.348c-0.107-4.141,3.708-9.072,7.056-9.035
		C1393.907,1606.275,1390.092,1611.207,1390.199,1615.348z M1390.199,1624.777v-18.465V1624.777z"/>
	<path fill="none" stroke="#F68827" stroke-miterlimit="10" d="M1405.535,1606.133h7.522H1405.535z M1412.986,1624.598
		c-1.764,0.107-3.672,0.18-3.672-2.232c0-2.447,0-23.037,0-23.037s0,20.59,0,23.037
		C1409.314,1624.777,1411.223,1624.705,1412.986,1624.598z"/>
	<path fill="none" stroke="#F68827" stroke-miterlimit="10" d="M1437.285,1614.916c0-3.996-1.584-9.107-7.308-9.107
		c-5.687,0-8.818,3.887-8.818,9.826c0,5.975,4.031,9.143,8.818,9c4.824-0.145,6.911-3.889,7.163-5.221
		c-0.252,1.332-2.339,5.076-7.163,5.221c-4.787,0.143-8.818-3.025-8.818-9c0-5.939,3.132-9.826,8.818-9.826
		C1435.701,1605.809,1437.285,1610.92,1437.285,1614.916h-16.09H1437.285z"/>
	<path fill="none" stroke="#F68827" stroke-miterlimit="10" d="M1453.773,1606.205c4.176,0,7.631,2.086,7.631,9.285
		s-3.455,9.287-7.631,9.287s-7.595-2.088-7.595-9.287S1449.598,1606.205,1453.773,1606.205z M1453.773,1606.205
		c4.176,0,7.631,2.086,7.631,9.285s-3.455,9.287-7.631,9.287s-7.595-2.088-7.595-9.287S1449.598,1606.205,1453.773,1606.205z
		 M1461.44,1598.754v26.023V1598.754z"/>
</g>
<line fill="none" stroke="#F68827" stroke-miterlimit="10" x1="1926.348" y1="1476.11" x2="2209.812" y2="1476.11"/>
<g>
	<path fill="none" stroke="#F68827" stroke-miterlimit="10" d="M1927.86,1463.057c0,2.241,1.709,3.138,3.712,3.138
		c2.031,0,3.306-1.274,3.348-2.521c0.042-1.232-0.588-2.213-1.835-2.479l-3.432-0.742c-0.967-0.21-1.541-0.771-1.541-2.087
		s1.106-2.451,3.124-2.451c2.017,0,3.488,0.952,3.432,2.619c0.057-1.667-1.415-2.619-3.432-2.619c-2.018,0-3.124,1.135-3.124,2.451
		s0.547,1.863,1.541,2.087l3.432,0.742c1.275,0.267,1.877,1.247,1.835,2.479c-0.042,1.247-1.316,2.521-3.348,2.521
		C1929.569,1466.194,1927.86,1465.298,1927.86,1463.057z"/>
	<path fill="none" stroke="#F68827" stroke-miterlimit="10" d="M1941.526,1466.11c-1.177,0-3.208-0.196-3.208-3.712
		c0-3.502,2.27-3.544,3.264-3.544c0.995,0,2.312,0.771,2.396,1.751c-0.084-0.98-1.4-1.751-2.396-1.751
		c-0.994,0-3.264,0.042-3.264,3.544C1938.318,1465.914,1940.35,1466.11,1941.526,1466.11c1.19,0,2.451-1.106,2.493-2.283
		C1943.978,1465.004,1942.717,1466.11,1941.526,1466.11z"/>
	<path fill="none" stroke="#F68827" stroke-miterlimit="10" d="M1952.405,1464.275c-0.42,0.603-1.862,1.961-3.012,1.919
		c-1.162-0.042-2.087-0.406-2.087-1.695c0-1.303,0.784-1.849,2.27-1.988c1.471-0.141,2.129-0.364,2.829-0.561
		c-0.7,0.196-1.358,0.42-2.829,0.561c-1.485,0.14-2.27,0.686-2.27,1.988c0,1.289,0.925,1.653,2.087,1.695
		C1950.543,1466.236,1951.985,1464.878,1952.405,1464.275z M1953.4,1466.11c0,0-0.995-0.07-0.995-0.91v-4.608
		c0-0.589-0.294-1.709-2.185-1.709c-1.892,0-2.592,0.854-2.592,1.736c0-0.882,0.7-1.736,2.592-1.736c1.891,0,2.185,1.12,2.185,1.709
		v4.608C1952.405,1466.04,1953.4,1466.11,1953.4,1466.11z"/>
	<path fill="none" stroke="#F68827" stroke-miterlimit="10" d="M1958.227,1466.11v-10.1V1466.11z"/>
	<path fill="none" stroke="#F68827" stroke-miterlimit="10" d="M1962.901,1462.272h6.262c0-1.555-0.616-3.544-2.844-3.544
		c-2.213,0-3.432,1.513-3.432,3.824c0,2.325,1.569,3.558,3.432,3.502c1.877-0.057,2.689-1.513,2.788-2.031
		c-0.099,0.519-0.911,1.975-2.788,2.031c-1.862,0.056-3.432-1.177-3.432-3.502c0-2.312,1.219-3.824,3.432-3.824
		c2.228,0,2.844,1.989,2.844,3.544H1962.901z"/>
	<path fill="none" stroke="#F68827" stroke-miterlimit="10" d="M1974.131,1461.684v-0.771V1461.684z M1974.131,1466.11v-0.771
		V1466.11z"/>
	<path fill="none" stroke="#F68827" stroke-miterlimit="10" d="M1987.305,1466.11v-10.1V1466.11z"/>
	<path fill="none" stroke="#F68827" stroke-miterlimit="10" d="M1993.493,1456.249v-0.252V1456.249z M1993.493,1466.097v-7.187
		C1993.493,1458.91,1993.493,1466.124,1993.493,1466.097z"/>
	<path fill="none" stroke="#F68827" stroke-miterlimit="10" d="M2004.821,1466.11c0,0,0-4.679,0-5.323
		c0-0.644-0.645-1.849-2.424-1.862c-1.793-0.015-2.731,1.372-2.731,2.661c0-1.289,0.938-2.676,2.731-2.661
		c1.779,0.014,2.424,1.219,2.424,1.862C2004.821,1461.432,2004.821,1466.11,2004.821,1466.11z M1999.666,1466.11v-7.186V1466.11z"/>
	<path fill="none" stroke="#F68827" stroke-miterlimit="10" d="M2008.877,1462.272h6.262c0-1.555-0.616-3.544-2.844-3.544
		c-2.213,0-3.432,1.513-3.432,3.824c0,2.325,1.569,3.558,3.432,3.502c1.877-0.057,2.689-1.513,2.788-2.031
		c-0.099,0.519-0.911,1.975-2.788,2.031c-1.862,0.056-3.432-1.177-3.432-3.502c0-2.312,1.219-3.824,3.432-3.824
		c2.228,0,2.844,1.989,2.844,3.544H2008.877z"/>
	<path fill="none" stroke="#F68827" stroke-miterlimit="10" d="M2027.106,1455.969v10.142V1455.969z M2030.076,1458.883
		c1.639,0,2.97,0.798,2.97,3.613c0,2.802-1.331,3.614-2.97,3.614s-2.97-0.812-2.97-3.614
		C2027.106,1459.681,2028.438,1458.883,2030.076,1458.883z M2030.076,1458.883c1.639,0,2.97,0.798,2.97,3.613
		c0,2.802-1.331,3.614-2.97,3.614s-2.97-0.812-2.97-3.614C2027.106,1459.681,2028.438,1458.883,2030.076,1458.883z"/>
	<path fill="none" stroke="#F68827" stroke-miterlimit="10" d="M2042.705,1462.272c0-1.555-0.616-3.544-2.844-3.544
		c-2.213,0-3.432,1.513-3.432,3.824c0,2.325,1.569,3.558,3.432,3.502c1.877-0.057,2.689-1.513,2.788-2.031
		c-0.099,0.519-0.911,1.975-2.788,2.031c-1.862,0.056-3.432-1.177-3.432-3.502c0-2.312,1.219-3.824,3.432-3.824
		C2042.089,1458.729,2042.705,1460.718,2042.705,1462.272h-6.262H2042.705z"/>
	<path fill="none" stroke="#F68827" stroke-miterlimit="10" d="M2047.672,1466.11v-10.1V1466.11z"/>
	<path fill="none" stroke="#F68827" stroke-miterlimit="10" d="M2052.333,1462.44c0-2.83,1.443-3.656,3.18-3.656
		c1.751,0,3.18,0.826,3.18,3.656c0,2.844-1.429,3.67-3.18,3.67C2053.776,1466.11,2052.333,1465.284,2052.333,1462.44z
		 M2052.333,1462.44c0-2.83,1.443-3.656,3.18-3.656c1.751,0,3.18,0.826,3.18,3.656c0,2.844-1.429,3.67-3.18,3.67
		C2053.776,1466.11,2052.333,1465.284,2052.333,1462.44z"/>
	<path fill="none" stroke="#F68827" stroke-miterlimit="10" d="M2064.094,1466.11l2.479-7.186l2.493,7.186l2.073-7.186l-2.073,7.186
		l-2.493-7.186L2064.094,1466.11l-2.073-7.186L2064.094,1466.11z"/>
	<path fill="none" stroke="#F68827" stroke-miterlimit="10" d="M2083.12,1456.249v-0.252V1456.249z M2083.12,1466.097v-7.187
		C2083.12,1458.91,2083.12,1466.124,2083.12,1466.097z"/>
	<path fill="none" stroke="#F68827" stroke-miterlimit="10" d="M2090.456,1458.812c-1.766-0.042-2.577,0.519-2.577,1.597
		c0,1.093,0.91,1.429,1.246,1.527l2.647,0.784c0.351,0.084,1.19,0.462,1.19,1.499c0,1.036-1.106,1.891-2.507,1.891
		c-1.401,0-2.676-0.742-2.676-1.835c0,1.093,1.274,1.835,2.676,1.835c1.4,0,2.507-0.854,2.507-1.891c0-1.037-0.84-1.415-1.19-1.499
		l-2.647-0.784c-0.336-0.099-1.246-0.435-1.246-1.527C2087.879,1459.331,2088.69,1458.771,2090.456,1458.812
		c1.765,0.07,2.227,1.051,2.199,1.4C2092.683,1459.863,2092.221,1458.883,2090.456,1458.812z"/>
	<path fill="none" stroke="#F68827" stroke-miterlimit="10" d="M2105.604,1466.11v-10.1c0,1.723-1.667,2.129-2.382,2.186
		c0.715-0.057,2.382-0.463,2.382-2.186V1466.11z"/>
	<path fill="none" stroke="#F68827" stroke-miterlimit="10" d="M2110.307,1461.067c0-2.773,0.589-5.043,3.054-5.043
		c2.466,0,3.054,2.27,3.054,5.043c0,2.788-0.588,5.043-3.054,5.043C2110.896,1466.11,2110.307,1463.855,2110.307,1461.067z
		 M2110.307,1461.067c0-2.773,0.589-5.043,3.054-5.043c2.466,0,3.054,2.27,3.054,5.043c0,2.788-0.588,5.043-3.054,5.043
		C2110.896,1466.11,2110.307,1463.855,2110.307,1461.067z"/>
	<path fill="none" stroke="#F68827" stroke-miterlimit="10" d="M2119.729,1461.067c0-2.773,0.589-5.043,3.054-5.043
		c2.466,0,3.054,2.27,3.054,5.043c0,2.788-0.588,5.043-3.054,5.043C2120.317,1466.11,2119.729,1463.855,2119.729,1461.067z
		 M2119.729,1461.067c0-2.773,0.589-5.043,3.054-5.043c2.466,0,3.054,2.27,3.054,5.043c0,2.788-0.588,5.043-3.054,5.043
		C2120.317,1466.11,2119.729,1463.855,2119.729,1461.067z"/>
	<path fill="none" stroke="#F68827" stroke-miterlimit="10" d="M2135.439,1466.11c0,0,0-4.679,0-5.323
		c0-0.644-0.42-1.849-2.199-1.862c-1.778-0.015-2.577,1.372-2.577,2.661c0-1.289,0.799-2.676,2.577-2.661
		c1.779,0.014,2.199,1.219,2.199,1.862C2135.439,1461.432,2135.439,1466.11,2135.439,1466.11z M2130.663,1466.11v-7.186V1466.11z
		 M2140.259,1466.11c0,0,0-4.679,0-5.323c0-0.644-0.616-1.849-2.396-1.862c-1.779-0.015-2.424,1.372-2.424,2.661
		c0-1.289,0.645-2.676,2.424-2.661c1.779,0.014,2.396,1.219,2.396,1.862C2140.259,1461.432,2140.259,1466.11,2140.259,1466.11z"/>
	<path fill="none" stroke="#F68827" stroke-miterlimit="10" d="M2150.812,1466.11c0,0,0-4.679,0-5.323
		c0-0.644-0.42-1.849-2.198-1.862c-1.779-0.015-2.578,1.372-2.578,2.661c0-1.289,0.799-2.676,2.578-2.661
		c1.778,0.014,2.198,1.219,2.198,1.862C2150.812,1461.432,2150.812,1466.11,2150.812,1466.11z M2146.035,1466.11v-7.186V1466.11z
		 M2155.631,1466.11c0,0,0-4.679,0-5.323c0-0.644-0.616-1.849-2.396-1.862c-1.779-0.015-2.424,1.372-2.424,2.661
		c0-1.289,0.645-2.676,2.424-2.661c1.779,0.014,2.396,1.219,2.396,1.862C2155.631,1461.432,2155.631,1466.11,2155.631,1466.11z"/>
	<path fill="none" stroke="#F68827" stroke-miterlimit="10" d="M2168.407,1466.11v-10.1V1466.11z"/>
	<path fill="none" stroke="#F68827" stroke-miterlimit="10" d="M2173.068,1462.44c0-2.83,1.443-3.656,3.18-3.656
		c1.751,0,3.18,0.826,3.18,3.656c0,2.844-1.429,3.67-3.18,3.67C2174.512,1466.11,2173.068,1465.284,2173.068,1462.44z
		 M2173.068,1462.44c0-2.83,1.443-3.656,3.18-3.656c1.751,0,3.18,0.826,3.18,3.656c0,2.844-1.429,3.67-3.18,3.67
		C2174.512,1466.11,2173.068,1465.284,2173.068,1462.44z"/>
	<path fill="none" stroke="#F68827" stroke-miterlimit="10" d="M2189.424,1466.11c0,0,0-4.679,0-5.323
		c0-0.644-0.645-1.849-2.424-1.862c-1.793-0.015-2.731,1.372-2.731,2.661c0-1.289,0.938-2.676,2.731-2.661
		c1.779,0.014,2.424,1.219,2.424,1.862C2189.424,1461.432,2189.424,1466.11,2189.424,1466.11z M2184.269,1466.11v-7.186V1466.11z"/>
	<path fill="none" stroke="#F68827" stroke-miterlimit="10" d="M2196.422,1458.854c1.625,0,2.97,0.812,2.97,3.614
		c0,2.801-1.345,3.613-2.97,3.613s-2.956-0.812-2.956-3.613C2193.466,1459.667,2194.797,1458.854,2196.422,1458.854z
		 M2196.422,1458.854c1.625,0,2.97,0.812,2.97,3.614c0,2.801-1.345,3.613-2.97,3.613s-2.956-0.812-2.956-3.613
		C2193.466,1459.667,2194.797,1458.854,2196.422,1458.854z M2193.886,1467.567c0.154,0.84,1.177,1.316,2.578,1.372
		c1.429,0.042,2.928-1.008,2.928-2.311c0-1.317,0-7.662,0-7.662s0,6.345,0,7.662c0,1.303-1.499,2.353-2.928,2.311
		C2195.062,1468.884,2194.04,1468.407,2193.886,1467.567z"/>
</g>
<polygon fill="none" stroke="#000000" stroke-width="0.25" points="205.502,171.014 205.502,170.958 205.502,179.517 
	197.848,179.518 197.848,182.352 199.649,182.351 199.649,205.029 212.774,205.029 212.774,182.352 214.573,182.351 
	214.573,179.517 206.92,179.518 206.92,170.994 206.92,171.014 "/>
<circle fill="none" stroke="#000000" stroke-width="0.25" cx="206.211" cy="137.693" r="28.346"/>
<circle fill="none" stroke="#000000" stroke-width="0.25" cx="177.866" cy="166.748" r="4.252"/>
<path fill="none" stroke="#000000" stroke-width="0.25" d="M234.557,171c2.35,0.001,4.254-1.902,4.254-4.251
	s-1.904-4.253-4.254-4.252c-2.346,0-4.252,1.903-4.25,4.252C230.305,169.098,232.211,171,234.557,171z"/>
<path fill="none" stroke="#000000" stroke-width="0.25" d="M92.825,406.955c0,15.655,12.691,28.347,28.346,28.347h170.08
	c15.656,0,28.346-12.691,28.346-28.347V123.489c0-15.655-12.689-28.347-28.346-28.347H121.17c-15.654,0-28.346,12.691-28.346,28.347
	V406.955z"/>
<circle fill="none" stroke="#000000" stroke-width="0.25" cx="291.25" cy="123.489" r="7.087"/>
<circle fill="none" stroke="#000000" stroke-width="0.25" cx="121.169" cy="123.489" r="7.087"/>
<circle fill="none" stroke="#000000" stroke-width="0.25" stroke-miterlimit="10" cx="699.913" cy="175.284" r="4.252"/>
<circle fill="none" stroke="#000000" stroke-width="0.25" stroke-miterlimit="10" cx="643.22" cy="175.285" r="4.251"/>
<path fill="none" stroke="#000000" stroke-width="0.25" stroke-miterlimit="10" d="M784.953,191.553
	c0,15.655-12.691,28.347-28.346,28.347H586.528c-15.656,0-28.347-12.691-28.347-28.347v-59.527c0-15.655,12.69-28.347,28.347-28.347
	h170.079c15.654,0,28.346,12.691,28.346,28.347V191.553z"/>
<circle fill="none" stroke="#000000" stroke-width="0.25" stroke-miterlimit="10" cx="699.913" cy="297.173" r="4.252"/>
<circle fill="none" stroke="#000000" stroke-width="0.25" stroke-miterlimit="10" cx="643.22" cy="297.173" r="4.251"/>
<path fill="none" stroke="#000000" stroke-width="0.25" stroke-miterlimit="10" d="M784.953,313.441
	c0,15.655-12.691,28.347-28.346,28.347H586.528c-15.656,0-28.347-12.691-28.347-28.347v-59.527c0-15.655,12.69-28.347,28.347-28.347
	h170.079c15.654,0,28.346,12.691,28.346,28.347V313.441z"/>
<circle fill="none" stroke="#000000" stroke-width="0.25" stroke-miterlimit="10" cx="586.528" cy="132.025" r="7.086"/>
<circle fill="none" stroke="#000000" stroke-width="0.25" stroke-miterlimit="10" cx="756.608" cy="132.025" r="7.086"/>
<circle fill="none" stroke="#000000" stroke-width="0.25" stroke-miterlimit="10" cx="586.528" cy="253.914" r="7.086"/>
<circle fill="none" stroke="#000000" stroke-width="0.25" stroke-miterlimit="10" cx="756.608" cy="253.914" r="7.086"/>
<text transform="matrix(1 0 0 1 98 497)" fill="none" stroke="#F89A1C" font-family="'Eng_HelvLine'" font-size="12">Sheet stock: 3mm acrylic (clear colourless)</text>
<text transform="matrix(1 0 0 1 567 413)" fill="none" stroke="#F89A1C" font-family="'Eng_HelvLine'" font-size="12">Sheet stock: 3mm MDF</text>
<text transform="matrix(1 0 0 1 960 116.4023)"><tspan x="0" y="0" fill="none" stroke="#F89A1C" font-family="'Eng_HelvLine'" font-size="12">Hardware:</tspan><tspan x="0" y="28.8" fill="none" stroke="#F89A1C" font-family="'Eng_HelvLine'" font-size="12">16mm M3 screw x2</tspan><tspan x="0" y="43.2" fill="none" stroke="#F89A1C" font-family="'Eng_HelvLine'" font-size="12">M3 nut x2</tspan><tspan x="0" y="72" fill="none" stroke="#F89A1C" font-family="'Eng_HelvLine'" font-size="12">5mm LED x1</tspan><tspan x="0" y="100.8" fill="none" stroke="#F89A1C" font-family="'Eng_HelvLine'" font-size="12">CR2032 cell battery x1</tspan><tspan x="0" y="129.6" fill="none" stroke="#F89A1C" font-family="'Eng_HelvLine'" font-size="12">length of thread / ribbon for hanging </tspan><tspan x="0" y="144" fill="none" stroke="#F89A1C" font-family="'Eng_HelvLine'" font-size="12">around neck.</tspan><tspan x="0" y="187.2" fill="none" stroke="#F89A1C" font-family="'Eng_HelvLine'" font-size="12">Instruction:</tspan><tspan x="0" y="216" fill="none" stroke="#F89A1C" font-family="'Eng_HelvLine'" font-size="12">Design your own image or name</tspan><tspan x="0" y="230.4" fill="none" stroke="#F89A1C" font-family="'Eng_HelvLine'" font-size="12">to be etched onto the acrylic part.</tspan><tspan x="0" y="259.2" fill="none" stroke="#F89A1C" font-family="'Eng_HelvLine'" font-size="12">Etch + cut parts, LED fits into </tspan><tspan x="0" y="273.6" fill="none" stroke="#F89A1C" font-family="'Eng_HelvLine'" font-size="12">acrylic part. Cell battery fits between</tspan><tspan x="0" y="288" fill="none" stroke="#F89A1C" font-family="'Eng_HelvLine'" font-size="12">LED legs. MDF pieces clamp LED legs</tspan><tspan x="0" y="302.4" fill="none" stroke="#F89A1C" font-family="'Eng_HelvLine'" font-size="12">onto battery.</tspan></text>
</svg>
