<?xml version="1.0" encoding="utf-8"?>
<!-- Generator: Adobe Illustrator 15.1.0, SVG Export Plug-In . SVG Version: 6.00 Build 0)  -->
<!DOCTYPE svg PUBLIC "-//W3C//DTD SVG 1.1//EN" "http://www.w3.org/Graphics/SVG/1.1/DTD/svg11.dtd">
<svg version="1.1" id="Layer_1" xmlns="http://www.w3.org/2000/svg" xmlns:xlink="http://www.w3.org/1999/xlink" x="0px" y="0px"
	 width="2267.72px" height="1700.79px" viewBox="0 0 2267.72 1700.79" enable-background="new 0 0 2267.72 1700.79"
	 xml:space="preserve">
<g>
	<path fill="none" stroke="#000000" stroke-miterlimit="10" d="M2225.198,1615.748c0,23.482-19.036,42.52-42.52,42.52H85.041
		c-23.483,0-42.52-19.037-42.52-42.52V85.039c0-23.483,19.037-42.52,42.52-42.52h2097.638c23.483,0,42.52,19.037,42.52,42.52
		V1615.748z"/>
	<rect x="42.521" y="1488.188" fill="none" stroke="#000000" stroke-miterlimit="10" width="2182.677" height="85.039"/>
</g>
<text transform="matrix(1 0 0 1 68.3682 1798.4648)"><tspan x="0" y="0" fill="none" stroke="#F68827" stroke-miterlimit="10" font-family="'Eng_HelvLine'" font-size="36">Date: 13-06-12</tspan><tspan x="302.469" y="0" fill="none" stroke="#F68827" stroke-miterlimit="10" font-family="'Eng_HelvLine'" font-size="36" letter-spacing="3">	</tspan><tspan x="324" y="0" fill="none" stroke="#F68827" stroke-miterlimit="10" font-family="'Eng_HelvLine'" font-size="36" letter-spacing="18">	</tspan><tspan x="360" y="0" fill="none" stroke="#F68827" stroke-miterlimit="10" font-family="'Eng_HelvLine'" font-size="36">File Name: DRBO-03</tspan><tspan x="814.423" y="0" fill="none" stroke="#F68827" stroke-miterlimit="10" font-family="'Eng_HelvLine'" font-size="36" letter-spacing="-4">	</tspan><tspan x="828" y="0" fill="none" stroke="#F68827" stroke-miterlimit="10" font-family="'Eng_HelvLine'" font-size="36" letter-spacing="18">	</tspan><tspan x="864" y="0" fill="none" stroke="#F68827" stroke-miterlimit="10" font-family="'Eng_HelvLine'" font-size="36">Version:</tspan><tspan x="1041.838" y="0" fill="none" stroke="#F68827" stroke-miterlimit="10" font-family="'Eng_HelvLine'" font-size="36" letter-spacing="-15">	</tspan><tspan x="1044" y="0" fill="none" stroke="#F68827" stroke-miterlimit="10" font-family="'Eng_HelvLine'" font-size="36" letter-spacing="18">	</tspan><tspan x="1080" y="0" fill="none" stroke="#F68827" stroke-miterlimit="10" font-family="'Eng_HelvLine'" font-size="36">Contributor: Stuart Childs stuchilds</tspan><tspan x="1866.016" y="0" fill="none" stroke="#F68827" stroke-miterlimit="10" font-family="'MyriadPro-Regular'" font-size="36">@</tspan><tspan x="1892.548" y="0" fill="none" stroke="#F68827" stroke-miterlimit="10" font-family="'Eng_HelvLine'" font-size="36">gmail.com</tspan><tspan x="2115.204" y="0" fill="none" stroke="#F68827" stroke-miterlimit="10" font-family="'Eng_HelvLine'" font-size="36" letter-spacing="-9">	</tspan><tspan x="2124" y="0" fill="none" stroke="#F68827" stroke-miterlimit="10" font-family="'Eng_HelvLine'" font-size="36" letter-spacing="18">	</tspan><tspan x="0" y="86.4" fill="none" stroke="#F68827" stroke-miterlimit="10" font-family="'Eng_HelvLine'" font-size="36">License: Creative Commons Attribution Sharealike 3.0 Unported</tspan><tspan x="1401.751" y="86.4" fill="none" stroke="#F68827" stroke-miterlimit="10" font-family="'Eng_HelvLine'" font-size="36" letter-spacing="-15">	</tspan><tspan x="1404" y="86.4" fill="none" stroke="#F68827" stroke-miterlimit="10" font-family="'Eng_HelvLine'" font-size="36" letter-spacing="18">	</tspan></text>
<text transform="matrix(1 0 0 1 68.3682 1538.377)"><tspan x="0" y="0" fill="none" stroke="#F68827" stroke-miterlimit="10" font-family="'Eng_HelvLine'" font-size="36">Date: 08-04-15</tspan><tspan x="308.336" y="0" fill="none" stroke="#F68827" stroke-miterlimit="10" font-family="'Eng_HelvLine'" font-size="36" letter-spacing="-2">	</tspan><tspan x="324" y="0" fill="none" stroke="#F68827" stroke-miterlimit="10" font-family="'Eng_HelvLine'" font-size="36" letter-spacing="18">	</tspan><tspan x="360" y="0" fill="none" stroke="#F68827" stroke-miterlimit="10" font-family="'Eng_HelvLine'" font-size="36">File Name: </tspan><tspan x="621.465" y="0" fill="none" stroke="#F68827" stroke-miterlimit="10" font-family="'Eng_HelvLine'" font-size="18">ESBD-BAHO-01</tspan><tspan x="784.975" y="0" fill="none" stroke="#F68827" stroke-miterlimit="10" font-family="'Eng_HelvLine'" font-size="36" letter-spacing="-10">	</tspan><tspan x="791.999" y="0" fill="none" stroke="#F68827" stroke-miterlimit="10" font-family="'Eng_HelvLine'" font-size="36" letter-spacing="18">	</tspan><tspan x="827.999" y="0" fill="none" stroke="#F68827" stroke-miterlimit="10" font-family="'Eng_HelvLine'" font-size="36">Version:</tspan><tspan x="1005.837" y="0" fill="none" stroke="#F68827" stroke-miterlimit="10" font-family="'Eng_HelvLine'" font-size="36" letter-spacing="-15">	</tspan><tspan x="1007.999" y="0" fill="none" stroke="#F68827" stroke-miterlimit="10" font-family="'Eng_HelvLine'" font-size="36" letter-spacing="18">	</tspan><tspan x="1043.999" y="0" fill="none" stroke="#F68827" stroke-miterlimit="10" font-family="'Eng_HelvLine'" font-size="36">Contributor: Stuart Childs stuchilds</tspan><tspan x="1830.016" y="0" fill="none" stroke="#F68827" stroke-miterlimit="10" font-family="'MyriadPro-Regular'" font-size="36">@</tspan><tspan x="1856.548" y="0" fill="none" stroke="#F68827" stroke-miterlimit="10" font-family="'Eng_HelvLine'" font-size="36">gmail.com</tspan><tspan x="2079.204" y="0" fill="none" stroke="#F68827" stroke-miterlimit="10" font-family="'Eng_HelvLine'" font-size="36" letter-spacing="-9">	</tspan><tspan x="2088" y="0" fill="none" stroke="#F68827" stroke-miterlimit="10" font-family="'Eng_HelvLine'" font-size="36" letter-spacing="18">	</tspan><tspan x="0" y="86.4" fill="none" stroke="#F68827" stroke-miterlimit="10" font-family="'Eng_HelvLine'" font-size="36">License: Creative Commons Attribution Sharealike 3.0 Unported</tspan><tspan x="1401.751" y="86.4" fill="none" stroke="#F68827" stroke-miterlimit="10" font-family="'Eng_HelvLine'" font-size="36" letter-spacing="-15">	</tspan><tspan x="1404" y="86.4" fill="none" stroke="#F68827" stroke-miterlimit="10" font-family="'Eng_HelvLine'" font-size="36" letter-spacing="18">	</tspan></text>
<rect x="2172.826" y="1443.826" fill="none" stroke="#F68827" stroke-miterlimit="10" width="28.347" height="28.347"/>
<g>
	<path fill="none" stroke="#F68827" stroke-miterlimit="10" d="M1830.944,1460.075c0,2.881,2.197,4.033,4.771,4.033
		c2.611,0,4.249-1.639,4.304-3.241c0.054-1.585-0.757-2.845-2.359-3.188l-4.411-0.954c-1.242-0.27-1.98-0.99-1.98-2.683
		s1.423-3.15,4.016-3.15s4.483,1.224,4.411,3.366c0.072-2.143-1.818-3.366-4.411-3.366s-4.016,1.458-4.016,3.15
		s0.702,2.395,1.98,2.683l4.411,0.954c1.639,0.343,2.413,1.603,2.359,3.188c-0.055,1.603-1.692,3.241-4.304,3.241
		C1833.142,1464.108,1830.944,1462.956,1830.944,1460.075z"/>
	<path fill="none" stroke="#F68827" stroke-miterlimit="10" d="M1851.719,1461.065c-0.054,1.512-1.674,2.935-3.205,2.935
		c-1.512,0-4.123-0.252-4.123-4.771c0-4.501,2.917-4.556,4.195-4.556s2.971,0.99,3.079,2.251c-0.108-1.261-1.801-2.251-3.079-2.251
		s-4.195,0.055-4.195,4.556c0,4.52,2.611,4.771,4.123,4.771C1850.045,1464,1851.665,1462.577,1851.719,1461.065z"/>
	<path fill="none" stroke="#F68827" stroke-miterlimit="10" d="M1858.629,1464.108c-1.494-0.055-2.683-0.522-2.683-2.179
		c0-1.675,1.009-2.377,2.917-2.557c1.891-0.181,2.737-0.469,3.637-0.721c-0.899,0.252-1.746,0.54-3.637,0.721
		c-1.908,0.18-2.917,0.882-2.917,2.557C1855.946,1463.586,1857.135,1464.054,1858.629,1464.108c1.477,0.054,3.331-1.692,3.871-2.467
		C1861.96,1462.416,1860.105,1464.162,1858.629,1464.108z M1862.5,1462.83v-5.924c0-0.757-0.378-2.197-2.809-2.197
		s-3.331,1.099-3.331,2.232c0-1.134,0.9-2.232,3.331-2.232s2.809,1.44,2.809,2.197V1462.83c0,1.08,1.279,1.17,1.279,1.17
		S1862.5,1463.91,1862.5,1462.83z"/>
	<path fill="none" stroke="#F68827" stroke-miterlimit="10" d="M1869.986,1464v-12.981V1464z"/>
	<path fill="none" stroke="#F68827" stroke-miterlimit="10" d="M1875.999,1459.066h8.048c0-1.998-0.792-4.556-3.655-4.556
		c-2.845,0-4.411,1.945-4.411,4.916c0,2.989,2.017,4.573,4.411,4.501c2.413-0.072,3.457-1.944,3.583-2.61
		c-0.126,0.666-1.17,2.538-3.583,2.61c-2.395,0.072-4.411-1.512-4.411-4.501c0-2.971,1.566-4.916,4.411-4.916
		c2.863,0,3.655,2.558,3.655,4.556H1875.999z"/>
	<path fill="none" stroke="#F68827" stroke-miterlimit="10" d="M1890.436,1458.311v-0.99V1458.311z M1890.436,1464v-0.99V1464z"/>
	<path fill="none" stroke="#F68827" stroke-miterlimit="10" d="M1911.693,1456.42c0.036-0.45-0.558-1.711-2.826-1.801
		c-2.269-0.054-3.313,0.666-3.313,2.053c0,1.404,1.171,1.837,1.603,1.963l3.403,1.008c0.45,0.108,1.53,0.595,1.53,1.927
		s-1.422,2.431-3.223,2.431s-3.439-0.954-3.439-2.358c0,1.404,1.639,2.358,3.439,2.358s3.223-1.099,3.223-2.431
		s-1.08-1.818-1.53-1.927l-3.403-1.008c-0.432-0.126-1.603-0.559-1.603-1.963c0-1.387,1.045-2.106,3.313-2.053
		C1911.136,1454.709,1911.729,1455.97,1911.693,1456.42z"/>
	<path fill="none" stroke="#F68827" stroke-miterlimit="10" d="M1916.265,1459.337c0-3.638,1.729-4.718,3.817-4.718
		c2.106,0,3.816,1.08,3.816,4.718c0,3.655-1.71,4.699-3.816,4.699C1917.993,1464.036,1916.265,1462.992,1916.265,1459.337z
		 M1916.265,1459.337c0-3.638,1.729-4.718,3.817-4.718c2.106,0,3.816,1.08,3.816,4.718c0,3.655-1.71,4.699-3.816,4.699
		C1917.993,1464.036,1916.265,1462.992,1916.265,1459.337z M1923.935,1454.619v13.018V1454.619z"/>
	<path fill="none" stroke="#F68827" stroke-miterlimit="10" d="M1931.133,1454.728c0,0,0,6.031,0,6.859
		c0,0.829,0.828,2.377,3.114,2.396c2.305,0.018,3.529-1.765,3.529-3.422c0,1.657-1.225,3.439-3.529,3.422
		c-2.286-0.019-3.114-1.566-3.114-2.396C1931.133,1460.759,1931.133,1454.728,1931.133,1454.728z M1937.776,1454.728v9.255V1454.728
		z"/>
	<path fill="none" stroke="#F68827" stroke-miterlimit="10" d="M1950.609,1461.642c-0.54,0.774-2.395,2.521-3.871,2.467
		c-1.494-0.055-2.683-0.522-2.683-2.179c0-1.675,1.009-2.377,2.917-2.557c1.891-0.181,2.737-0.469,3.637-0.721
		c-0.899,0.252-1.746,0.54-3.637,0.721c-1.908,0.18-2.917,0.882-2.917,2.557c0,1.656,1.188,2.124,2.683,2.179
		C1948.215,1464.162,1950.069,1462.416,1950.609,1461.642z M1951.889,1464c0,0-1.279-0.09-1.279-1.17v-5.924
		c0-0.757-0.378-2.197-2.809-2.197s-3.331,1.099-3.331,2.232c0-1.134,0.9-2.232,3.331-2.232s2.809,1.44,2.809,2.197v5.924
		C1950.609,1463.91,1951.889,1464,1951.889,1464z"/>
	<path fill="none" stroke="#F68827" stroke-miterlimit="10" d="M1961.68,1454.764c-1.675-0.019-3.584,2.448-3.529,4.519
		C1958.096,1457.212,1960.005,1454.745,1961.68,1454.764z M1958.15,1454.764V1464V1454.764z"/>
	<path fill="none" stroke="#F68827" stroke-miterlimit="10" d="M1965.836,1459.066h8.048c0-1.998-0.792-4.556-3.655-4.556
		c-2.845,0-4.411,1.945-4.411,4.916c0,2.989,2.017,4.573,4.411,4.501c2.413-0.072,3.457-1.944,3.584-2.61
		c-0.127,0.666-1.171,2.538-3.584,2.61c-2.395,0.072-4.411-1.512-4.411-4.501c0-2.971,1.566-4.916,4.411-4.916
		c2.863,0,3.655,2.558,3.655,4.556H1965.836z"/>
	<path fill="none" stroke="#F68827" stroke-miterlimit="10" d="M1989.29,1451.324V1451V1451.324z M1989.29,1463.982v-9.237
		C1989.29,1454.745,1989.29,1464.018,1989.29,1463.982z"/>
	<path fill="none" stroke="#F68827" stroke-miterlimit="10" d="M1998.723,1454.619c-2.269-0.054-3.313,0.666-3.313,2.053
		c0,1.404,1.171,1.837,1.603,1.963l3.403,1.008c0.45,0.108,1.53,0.595,1.53,1.927s-1.422,2.431-3.223,2.431
		s-3.439-0.954-3.439-2.358c0,1.404,1.639,2.358,3.439,2.358s3.223-1.099,3.223-2.431s-1.08-1.818-1.53-1.927l-3.403-1.008
		c-0.432-0.126-1.603-0.559-1.603-1.963C1995.409,1455.285,1996.454,1454.565,1998.723,1454.619c2.269,0.09,2.862,1.351,2.826,1.801
		C2001.585,1455.97,2000.991,1454.709,1998.723,1454.619z"/>
	<path fill="none" stroke="#F68827" stroke-miterlimit="10" d="M2018.198,1464v-12.981c0,2.214-2.143,2.736-3.062,2.809
		c0.919-0.072,3.062-0.595,3.062-2.809V1464z"/>
	<path fill="none" stroke="#F68827" stroke-miterlimit="10" d="M2024.245,1457.518c0-3.564,0.757-6.481,3.926-6.481
		s3.925,2.917,3.925,6.481c0,3.584-0.756,6.482-3.925,6.482S2024.245,1461.102,2024.245,1457.518z M2024.245,1457.518
		c0-3.564,0.757-6.481,3.926-6.481s3.925,2.917,3.925,6.481c0,3.584-0.756,6.482-3.925,6.482S2024.245,1461.102,2024.245,1457.518z"
		/>
	<path fill="none" stroke="#F68827" stroke-miterlimit="10" d="M2044.443,1464c0,0,0-6.014,0-6.842s-0.54-2.377-2.827-2.395
		c-2.287-0.019-3.313,1.764-3.313,3.421c0-1.657,1.026-3.439,3.313-3.421c2.287,0.018,2.827,1.566,2.827,2.395
		S2044.443,1464,2044.443,1464z M2038.303,1464v-9.236V1464z M2050.637,1464c0,0,0-6.014,0-6.842s-0.792-2.377-3.079-2.395
		c-2.286-0.019-3.114,1.764-3.114,3.421c0-1.657,0.828-3.439,3.114-3.421c2.287,0.018,3.079,1.566,3.079,2.395
		S2050.637,1464,2050.637,1464z"/>
	<path fill="none" stroke="#F68827" stroke-miterlimit="10" d="M2064.207,1464c0,0,0-6.014,0-6.842s-0.54-2.377-2.827-2.395
		c-2.287-0.019-3.313,1.764-3.313,3.421c0-1.657,1.026-3.439,3.313-3.421c2.287,0.018,2.827,1.566,2.827,2.395
		S2064.207,1464,2064.207,1464z M2058.066,1464v-9.236V1464z M2070.4,1464c0,0,0-6.014,0-6.842s-0.792-2.377-3.079-2.395
		c-2.286-0.019-3.114,1.764-3.114,3.421c0-1.657,0.828-3.439,3.114-3.421c2.287,0.018,3.079,1.566,3.079,2.395
		S2070.4,1464,2070.4,1464z"/>
	<path fill="none" stroke="#F68827" stroke-miterlimit="10" d="M2084.886,1464l3.709-5.149l-2.952-4.087l2.952,4.087l2.972-4.087
		l-2.972,4.087l3.728,5.149l-3.728-5.149L2084.886,1464z"/>
	<path fill="none" stroke="#F68827" stroke-miterlimit="10" d="M2108.63,1464v-12.981c0,2.214-2.143,2.736-3.062,2.809
		c0.919-0.072,3.062-0.595,3.062-2.809V1464z"/>
	<path fill="none" stroke="#F68827" stroke-miterlimit="10" d="M2114.676,1457.518c0-3.564,0.757-6.481,3.926-6.481
		s3.925,2.917,3.925,6.481c0,3.584-0.756,6.482-3.925,6.482S2114.676,1461.102,2114.676,1457.518z M2114.676,1457.518
		c0-3.564,0.757-6.481,3.926-6.481s3.925,2.917,3.925,6.481c0,3.584-0.756,6.482-3.925,6.482S2114.676,1461.102,2114.676,1457.518z"
		/>
	<path fill="none" stroke="#F68827" stroke-miterlimit="10" d="M2134.875,1457.158c0-0.828-0.54-2.377-2.827-2.395
		c-2.287-0.019-3.313,1.764-3.313,3.421c0-1.657,1.026-3.439,3.313-3.421C2134.335,1454.781,2134.875,1456.33,2134.875,1457.158
		s0,6.842,0,6.842S2134.875,1457.986,2134.875,1457.158z M2128.734,1454.764V1464V1454.764z M2141.068,1457.158
		c0-0.828-0.792-2.377-3.079-2.395c-2.286-0.019-3.114,1.764-3.114,3.421c0-1.657,0.828-3.439,3.114-3.421
		C2140.276,1454.781,2141.068,1456.33,2141.068,1457.158s0,6.842,0,6.842S2141.068,1457.986,2141.068,1457.158z"/>
	<path fill="none" stroke="#F68827" stroke-miterlimit="10" d="M2154.639,1457.158c0-0.828-0.54-2.377-2.827-2.395
		c-2.287-0.019-3.313,1.764-3.313,3.421c0-1.657,1.026-3.439,3.313-3.421C2154.099,1454.781,2154.639,1456.33,2154.639,1457.158
		s0,6.842,0,6.842S2154.639,1457.986,2154.639,1457.158z M2148.498,1454.764V1464V1454.764z M2160.832,1457.158
		c0-0.828-0.792-2.377-3.079-2.395c-2.286-0.019-3.114,1.764-3.114,3.421c0-1.657,0.828-3.439,3.114-3.421
		C2160.04,1454.781,2160.832,1456.33,2160.832,1457.158s0,6.842,0,6.842S2160.832,1457.986,2160.832,1457.158z"/>
</g>
<path fill="none" stroke="#000000" stroke-miterlimit="10" d="M1052.99,786.71v49.607c0,15.655-12.691,28.347-28.347,28.347H893.541
	c-15.655,0-28.346-12.691-28.346-28.347V99.309c0-15.655,12.69-28.347,28.346-28.347h131.103c15.656,0,28.347,12.691,28.347,28.347
	v49.606c0,15.655-12.691,28.346-28.347,28.346H999.84c-15.655,0-28.346,12.691-28.346,28.347v524.41
	c0,15.655,12.691,28.347,28.346,28.347h24.803C1040.299,758.364,1052.99,771.055,1052.99,786.71z"/>
<circle fill="none" stroke="#000000" stroke-miterlimit="10" cx="893.541" cy="99.313" r="4.252"/>
<circle fill="none" stroke="#000000" stroke-miterlimit="10" cx="893.541" cy="212.7" r="4.252"/>
<circle fill="none" stroke="#000000" stroke-miterlimit="10" cx="950.234" cy="99.313" r="4.252"/>
<circle fill="none" stroke="#000000" stroke-miterlimit="10" cx="1006.928" cy="99.313" r="4.252"/>
<circle fill="none" stroke="#000000" stroke-miterlimit="10" cx="893.541" cy="836.327" r="4.252"/>
<circle fill="none" stroke="#000000" stroke-miterlimit="10" cx="893.541" cy="722.94" r="4.252"/>
<circle fill="none" stroke="#000000" stroke-miterlimit="10" cx="893.541" cy="595.382" r="4.252"/>
<circle fill="none" stroke="#000000" stroke-miterlimit="10" cx="893.541" cy="467.82" r="4.252"/>
<circle fill="none" stroke="#000000" stroke-miterlimit="10" cx="893.541" cy="340.261" r="4.252"/>
<circle fill="none" stroke="#000000" stroke-miterlimit="10" cx="950.234" cy="836.327" r="4.252"/>
<circle fill="none" stroke="#000000" stroke-miterlimit="10" cx="1006.928" cy="836.327" r="4.252"/>
<path fill="none" stroke="#000000" stroke-miterlimit="10" d="M1251.417,786.71v49.607c0,15.655-12.691,28.347-28.347,28.347
	h-131.103c-15.655,0-28.346-12.691-28.346-28.347V99.309c0-15.655,12.69-28.347,28.346-28.347h131.103
	c15.655,0,28.347,12.691,28.347,28.347v49.606c0,15.655-12.691,28.346-28.347,28.346h-24.804c-15.655,0-28.346,12.691-28.346,28.347
	v524.41c0,15.655,12.69,28.347,28.346,28.347h24.804C1238.726,758.364,1251.417,771.055,1251.417,786.71z"/>
<circle fill="none" stroke="#000000" stroke-miterlimit="10" cx="1091.967" cy="99.313" r="4.252"/>
<circle fill="none" stroke="#000000" stroke-miterlimit="10" cx="1091.967" cy="212.7" r="4.252"/>
<circle fill="none" stroke="#000000" stroke-miterlimit="10" cx="1148.661" cy="99.313" r="4.252"/>
<circle fill="none" stroke="#000000" stroke-miterlimit="10" cx="1205.354" cy="99.313" r="4.252"/>
<circle fill="none" stroke="#000000" stroke-miterlimit="10" cx="1091.967" cy="836.327" r="4.252"/>
<circle fill="none" stroke="#000000" stroke-miterlimit="10" cx="1091.967" cy="722.94" r="4.252"/>
<circle fill="none" stroke="#000000" stroke-miterlimit="10" cx="1091.967" cy="595.382" r="4.252"/>
<circle fill="none" stroke="#000000" stroke-miterlimit="10" cx="1091.967" cy="467.82" r="4.252"/>
<circle fill="none" stroke="#000000" stroke-miterlimit="10" cx="1091.967" cy="340.261" r="4.252"/>
<circle fill="none" stroke="#000000" stroke-miterlimit="10" cx="1148.661" cy="836.327" r="4.252"/>
<circle fill="none" stroke="#000000" stroke-miterlimit="10" cx="1205.354" cy="836.327" r="4.252"/>
<path fill="none" stroke="#000000" stroke-miterlimit="10" d="M259.282,832.77v3.547c0,15.655-12.691,28.347-28.347,28.347H99.832
	c-15.655,0-28.346-12.691-28.346-28.347V99.308c0-15.656,12.691-28.347,28.346-28.347h131.103c15.656,0,28.347,12.691,28.347,28.347
	v3.637c0,13.123-10.193,23.858-23.092,24.738l-79.664-0.028c-15.655,0-28.346,12.691-28.346,28.347v623.622
	c0,15.655,12.691,28.347,28.346,28.347l79.664,0.062C249.088,808.912,259.282,819.647,259.282,832.77z"/>
<circle fill="none" stroke="#000000" stroke-miterlimit="10" cx="99.833" cy="99.313" r="4.252"/>
<circle fill="none" stroke="#000000" stroke-miterlimit="10" cx="99.833" cy="212.7" r="4.252"/>
<circle fill="none" stroke="#000000" stroke-miterlimit="10" cx="156.526" cy="99.313" r="4.252"/>
<circle fill="none" stroke="#000000" stroke-miterlimit="10" cx="213.219" cy="99.313" r="4.252"/>
<circle fill="none" stroke="#000000" stroke-miterlimit="10" cx="99.833" cy="836.326" r="4.252"/>
<circle fill="none" stroke="#000000" stroke-miterlimit="10" cx="99.833" cy="722.94" r="4.252"/>
<circle fill="none" stroke="#000000" stroke-miterlimit="10" cx="99.833" cy="595.381" r="4.252"/>
<circle fill="none" stroke="#000000" stroke-miterlimit="10" cx="99.833" cy="467.82" r="4.252"/>
<circle fill="none" stroke="#000000" stroke-miterlimit="10" cx="99.833" cy="340.261" r="4.252"/>
<circle fill="none" stroke="#000000" stroke-miterlimit="10" cx="156.526" cy="836.326" r="4.252"/>
<circle fill="none" stroke="#000000" stroke-miterlimit="10" cx="213.219" cy="836.326" r="4.252"/>
<path fill="none" stroke="#000000" stroke-miterlimit="10" d="M269.918,102.861v-3.547c0-15.655,12.691-28.347,28.347-28.347
	h131.103c15.655,0,28.346,12.691,28.346,28.347v737.008c0,15.655-12.691,28.347-28.346,28.347H298.265
	c-15.656,0-28.347-12.691-28.347-28.347v-3.637c0-13.123,10.193-23.858,23.092-24.738l79.664,0.028
	c15.655,0,28.346-12.691,28.346-28.347V156.007c0-15.655-12.691-28.347-28.346-28.347l-79.664-0.062
	C280.112,126.718,269.918,115.983,269.918,102.861z"/>
<circle fill="none" stroke="#000000" stroke-miterlimit="10" cx="429.368" cy="836.317" r="4.252"/>
<circle fill="none" stroke="#000000" stroke-miterlimit="10" cx="429.368" cy="722.931" r="4.252"/>
<circle fill="none" stroke="#000000" stroke-miterlimit="10" cx="372.674" cy="836.317" r="4.252"/>
<circle fill="none" stroke="#000000" stroke-miterlimit="10" cx="315.981" cy="836.317" r="4.252"/>
<circle fill="none" stroke="#000000" stroke-miterlimit="10" cx="429.368" cy="99.304" r="4.252"/>
<circle fill="none" stroke="#000000" stroke-miterlimit="10" cx="429.368" cy="212.69" r="4.252"/>
<circle fill="none" stroke="#000000" stroke-miterlimit="10" cx="429.368" cy="340.25" r="4.252"/>
<circle fill="none" stroke="#000000" stroke-miterlimit="10" cx="429.368" cy="467.811" r="4.252"/>
<circle fill="none" stroke="#000000" stroke-miterlimit="10" cx="429.368" cy="595.37" r="4.252"/>
<circle fill="none" stroke="#000000" stroke-miterlimit="10" cx="372.674" cy="99.304" r="4.252"/>
<circle fill="none" stroke="#000000" stroke-miterlimit="10" cx="315.981" cy="99.304" r="4.252"/>
<circle fill="none" stroke="#000000" stroke-miterlimit="10" cx="193.736" cy="604.992" r="4.252"/>
<circle fill="none" stroke="#000000" stroke-miterlimit="10" cx="193.736" cy="736.018" r="4.251"/>
<circle fill="none" stroke="#000000" stroke-miterlimit="10" cx="259.28" cy="604.992" r="4.252"/>
<circle fill="none" stroke="#000000" stroke-miterlimit="10" cx="324.839" cy="604.987" r="8.504"/>
<path fill="none" stroke="#000000" stroke-miterlimit="10" d="M181.755,659.135v0.032c0.212-0.019,0.426-0.032,0.643-0.032
	c23.483,0,42.52,19.036,42.52,42.52c0,3.913-3.173,7.086-7.087,7.086c-3.914,0-7.086-3.173-7.086-7.086
	c0-15.656-12.691-28.347-28.346-28.347c-0.217,0-0.431-0.014-0.643-0.032v0.032h-16.368l0,62.709
	c0,15.654,12.691,28.346,28.348,28.346h49.606c15.655,0,28.347-12.691,28.347-28.346v-24.73c0-15.655,12.691-28.346,28.346-28.346
	h24.803c15.656,0,28.347-12.691,28.347-28.347v-49.606c0-15.655-12.691-28.347-28.347-28.347H193.735
	c-15.655,0-28.346,12.691-28.346,28.347l-0.001-0.072v54.22H181.755z"/>
<circle fill="none" stroke="#000000" stroke-miterlimit="10" cx="193.736" cy="406.565" r="4.252"/>
<circle fill="none" stroke="#000000" stroke-miterlimit="10" cx="193.736" cy="537.59" r="4.251"/>
<circle fill="none" stroke="#000000" stroke-miterlimit="10" cx="259.28" cy="406.565" r="4.252"/>
<circle fill="none" stroke="#000000" stroke-miterlimit="10" cx="324.839" cy="406.561" r="8.504"/>
<path fill="none" stroke="#000000" stroke-miterlimit="10" d="M181.755,460.708v0.032c0.212-0.019,0.426-0.032,0.643-0.032
	c23.483,0,42.52,19.036,42.52,42.52c0,3.913-3.173,7.086-7.087,7.086c-3.914,0-7.086-3.173-7.086-7.086
	c0-15.656-12.691-28.347-28.346-28.347c-0.217,0-0.431-0.014-0.643-0.032v0.032h-16.368l0,62.71
	c0,15.653,12.691,28.345,28.348,28.345h49.606c15.655,0,28.347-12.691,28.347-28.345v-24.731c0-15.655,12.691-28.346,28.346-28.346
	h24.803c15.656,0,28.347-12.691,28.347-28.347v-49.606c0-15.655-12.691-28.347-28.347-28.347H193.735
	c-15.655,0-28.346,12.691-28.346,28.347l-0.001-0.072v54.22H181.755z"/>
<circle fill="none" stroke="#000000" stroke-miterlimit="10" cx="193.736" cy="208.139" r="4.252"/>
<circle fill="none" stroke="#000000" stroke-miterlimit="10" cx="193.736" cy="339.164" r="4.251"/>
<circle fill="none" stroke="#000000" stroke-miterlimit="10" cx="259.28" cy="208.139" r="4.252"/>
<circle fill="none" stroke="#000000" stroke-miterlimit="10" cx="324.839" cy="208.134" r="8.504"/>
<path fill="none" stroke="#000000" stroke-miterlimit="10" d="M181.755,262.281v0.032c0.212-0.019,0.426-0.032,0.643-0.032
	c23.483,0,42.52,19.036,42.52,42.52c0,3.913-3.173,7.086-7.087,7.086c-3.914,0-7.086-3.173-7.086-7.086
	c0-15.656-12.691-28.347-28.346-28.347c-0.217,0-0.431-0.014-0.643-0.032v0.032h-16.368l0,62.709
	c0,15.654,12.691,28.345,28.348,28.345h49.606c15.655,0,28.347-12.691,28.347-28.345v-24.731c0-15.655,12.691-28.346,28.346-28.346
	h24.803c15.656,0,28.347-12.691,28.347-28.347v-49.606c0-15.655-12.691-28.347-28.347-28.347H193.735
	c-15.655,0-28.346,12.691-28.346,28.347l-0.001-0.072v54.22H181.755z"/>
<path fill="none" stroke="#000000" stroke-miterlimit="10" d="M656.135,832.77v3.547c0,15.655-12.691,28.347-28.347,28.347H496.686
	c-15.655,0-28.346-12.691-28.346-28.347V99.308c0-15.656,12.691-28.347,28.346-28.347h131.103c15.656,0,28.347,12.691,28.347,28.347
	v3.637c0,13.123-10.193,23.858-23.092,24.738l-79.664-0.028c-15.655,0-28.346,12.691-28.346,28.347v623.622
	c0,15.655,12.691,28.347,28.346,28.347l79.664,0.062C645.942,808.912,656.135,819.647,656.135,832.77z"/>
<circle fill="none" stroke="#000000" stroke-miterlimit="10" cx="496.686" cy="99.313" r="4.252"/>
<circle fill="none" stroke="#000000" stroke-miterlimit="10" cx="496.686" cy="212.7" r="4.252"/>
<circle fill="none" stroke="#000000" stroke-miterlimit="10" cx="553.379" cy="99.313" r="4.252"/>
<circle fill="none" stroke="#000000" stroke-miterlimit="10" cx="610.073" cy="99.313" r="4.252"/>
<circle fill="none" stroke="#000000" stroke-miterlimit="10" cx="496.686" cy="836.326" r="4.252"/>
<circle fill="none" stroke="#000000" stroke-miterlimit="10" cx="496.686" cy="722.94" r="4.252"/>
<circle fill="none" stroke="#000000" stroke-miterlimit="10" cx="496.686" cy="595.381" r="4.252"/>
<circle fill="none" stroke="#000000" stroke-miterlimit="10" cx="496.686" cy="467.82" r="4.252"/>
<circle fill="none" stroke="#000000" stroke-miterlimit="10" cx="496.686" cy="340.261" r="4.252"/>
<circle fill="none" stroke="#000000" stroke-miterlimit="10" cx="553.379" cy="836.326" r="4.252"/>
<circle fill="none" stroke="#000000" stroke-miterlimit="10" cx="610.073" cy="836.326" r="4.252"/>
<path fill="none" stroke="#000000" stroke-miterlimit="10" d="M666.772,102.861v-3.547c0-15.655,12.691-28.347,28.347-28.347
	h131.103c15.655,0,28.346,12.691,28.346,28.347v737.008c0,15.655-12.691,28.347-28.346,28.347H695.119
	c-15.656,0-28.347-12.691-28.347-28.347v-3.637c0-13.123,10.193-23.858,23.092-24.738l79.664,0.028
	c15.655,0,28.346-12.691,28.346-28.347V156.007c0-15.655-12.691-28.347-28.346-28.347l-79.664-0.062
	C676.965,126.718,666.772,115.983,666.772,102.861z"/>
<circle fill="none" stroke="#000000" stroke-miterlimit="10" cx="826.221" cy="836.317" r="4.252"/>
<circle fill="none" stroke="#000000" stroke-miterlimit="10" cx="826.221" cy="722.931" r="4.252"/>
<circle fill="none" stroke="#000000" stroke-miterlimit="10" cx="769.528" cy="836.317" r="4.252"/>
<circle fill="none" stroke="#000000" stroke-miterlimit="10" cx="712.834" cy="836.317" r="4.252"/>
<circle fill="none" stroke="#000000" stroke-miterlimit="10" cx="826.221" cy="99.304" r="4.252"/>
<circle fill="none" stroke="#000000" stroke-miterlimit="10" cx="826.221" cy="212.69" r="4.252"/>
<circle fill="none" stroke="#000000" stroke-miterlimit="10" cx="826.221" cy="340.25" r="4.252"/>
<circle fill="none" stroke="#000000" stroke-miterlimit="10" cx="826.221" cy="467.811" r="4.252"/>
<circle fill="none" stroke="#000000" stroke-miterlimit="10" cx="826.221" cy="595.37" r="4.252"/>
<circle fill="none" stroke="#000000" stroke-miterlimit="10" cx="769.528" cy="99.304" r="4.252"/>
<circle fill="none" stroke="#000000" stroke-miterlimit="10" cx="712.834" cy="99.304" r="4.252"/>
<circle fill="none" stroke="#000000" stroke-miterlimit="10" cx="721.69" cy="604.992" r="4.252"/>
<circle fill="none" stroke="#000000" stroke-miterlimit="10" cx="721.69" cy="736.018" r="4.251"/>
<circle fill="none" stroke="#000000" stroke-miterlimit="10" cx="656.146" cy="604.992" r="4.252"/>
<circle fill="none" stroke="#000000" stroke-miterlimit="10" cx="590.587" cy="604.987" r="8.504"/>
<path fill="none" stroke="#000000" stroke-miterlimit="10" d="M733.67,659.135v0.032c-0.212-0.019-0.426-0.032-0.643-0.032
	c-23.483,0-42.52,19.036-42.52,42.52c0,3.913,3.173,7.086,7.087,7.086c3.914,0,7.086-3.173,7.086-7.086
	c0-15.656,12.691-28.347,28.346-28.347c0.217,0,0.431-0.014,0.643-0.032v0.032h16.368l0,62.709
	c0,15.654-12.691,28.346-28.348,28.346h-49.606c-15.655,0-28.347-12.691-28.347-28.346v-24.73c0-15.655-12.691-28.346-28.346-28.346
	h-24.803c-15.656,0-28.347-12.691-28.347-28.347v-49.606c0-15.655,12.691-28.347,28.347-28.347H721.69
	c15.655,0,28.346,12.691,28.346,28.347l0.001-0.072v54.22H733.67z"/>
<circle fill="none" stroke="#000000" stroke-miterlimit="10" cx="721.69" cy="406.565" r="4.252"/>
<circle fill="none" stroke="#000000" stroke-miterlimit="10" cx="721.69" cy="537.59" r="4.251"/>
<circle fill="none" stroke="#000000" stroke-miterlimit="10" cx="656.146" cy="406.565" r="4.252"/>
<circle fill="none" stroke="#000000" stroke-miterlimit="10" cx="590.587" cy="406.561" r="8.504"/>
<path fill="none" stroke="#000000" stroke-miterlimit="10" d="M733.67,460.708v0.032c-0.212-0.019-0.426-0.032-0.643-0.032
	c-23.483,0-42.52,19.036-42.52,42.52c0,3.913,3.173,7.086,7.087,7.086c3.914,0,7.086-3.173,7.086-7.086
	c0-15.656,12.691-28.347,28.346-28.347c0.217,0,0.431-0.014,0.643-0.032v0.032h16.368l0,62.71c0,15.653-12.691,28.345-28.348,28.345
	h-49.606c-15.655,0-28.347-12.691-28.347-28.345v-24.731c0-15.655-12.691-28.346-28.346-28.346h-24.803
	c-15.656,0-28.347-12.691-28.347-28.347v-49.606c0-15.655,12.691-28.347,28.347-28.347H721.69c15.655,0,28.346,12.691,28.346,28.347
	l0.001-0.072v54.22H733.67z"/>
<circle fill="none" stroke="#000000" stroke-miterlimit="10" cx="721.69" cy="208.139" r="4.252"/>
<circle fill="none" stroke="#000000" stroke-miterlimit="10" cx="721.69" cy="339.164" r="4.251"/>
<circle fill="none" stroke="#000000" stroke-miterlimit="10" cx="656.146" cy="208.139" r="4.252"/>
<circle fill="none" stroke="#000000" stroke-miterlimit="10" cx="590.587" cy="208.134" r="8.504"/>
<path fill="none" stroke="#000000" stroke-miterlimit="10" d="M733.67,262.281v0.032c-0.212-0.019-0.426-0.032-0.643-0.032
	c-23.483,0-42.52,19.036-42.52,42.52c0,3.913,3.173,7.086,7.087,7.086c3.914,0,7.086-3.173,7.086-7.086
	c0-15.656,12.691-28.347,28.346-28.347c0.217,0,0.431-0.014,0.643-0.032v0.032h16.368l0,62.709
	c0,15.654-12.691,28.345-28.348,28.345h-49.606c-15.655,0-28.347-12.691-28.347-28.345v-24.731
	c0-15.655-12.691-28.346-28.346-28.346h-24.803c-15.656,0-28.347-12.691-28.347-28.347v-49.606
	c0-15.655,12.691-28.347,28.347-28.347H721.69c15.655,0,28.346,12.691,28.346,28.347l0.001-0.072v54.22H733.67z"/>
<text transform="matrix(1 0 0 1 104.0889 930)"><tspan x="0" y="0" font-family="'MyriadPro-Regular'" font-size="24">Sheet stock: 3mm birch laser ply. MDF may work but likely not as strong.</tspan><tspan x="0" y="28.8" font-family="'MyriadPro-Regular'" font-size="24">All lines vector cut - no etching required.</tspan><tspan x="0" y="57.6" font-family="'MyriadPro-Regular'" font-size="24">Once cut PVA glue required to assemble layers.</tspan><tspan x="0" y="86.4" font-family="'MyriadPro-Regular'" font-size="24">All long parts glued together, thin parts together then thicker parts to form a lipped edge</tspan><tspan x="0" y="115.2" font-family="'MyriadPro-Regular'" font-size="24">3x grooved parts glue together to make one swinging clasp - 2 in total.</tspan><tspan x="0" y="144" font-family="'MyriadPro-Regular'" font-size="24">See photos in related content.</tspan><tspan x="0" y="201.6" font-family="'MyriadPro-Regular'" font-size="24">Designed to be a quick-release battery enclosure holder for electric longboards/skateboards</tspan><tspan x="0" y="259.2" font-family="'MyriadPro-Regular'" font-size="24">Additional hardware required for build:</tspan><tspan x="0" y="288" font-family="'MyriadPro-Regular'" font-size="24">M6 x 40mm bolts (or countersunk for nicer finish)</tspan><tspan x="490.169" y="288" font-family="'MyriadPro-Regular'" font-size="24" letter-spacing="8">	</tspan><tspan x="504.001" y="288" font-family="'MyriadPro-Regular'" font-size="24">x2</tspan><tspan x="0" y="316.8" font-family="'MyriadPro-Regular'" font-size="24">M6 nuts</tspan><tspan x="80.687" y="316.8" font-family="'MyriadPro-Regular'" font-size="24" letter-spacing="22">	</tspan><tspan x="108" y="316.8" font-family="'MyriadPro-Regular'" font-size="24">x6</tspan><tspan x="0" y="345.6" font-family="'MyriadPro-Regular'" font-size="24">M6 washers</tspan><tspan x="118.127" y="345.6" font-family="'MyriadPro-Regular'" font-size="24" letter-spacing="20">	</tspan><tspan x="144.001" y="345.6" font-family="'MyriadPro-Regular'" font-size="24">x6</tspan><tspan x="0" y="374.4" font-family="'MyriadPro-Regular'" font-size="24">1 inch number 8 (or similar) wood screws</tspan><tspan x="408.666" y="374.4" font-family="'MyriadPro-Regular'" font-size="24" letter-spacing="18">	</tspan><tspan x="432" y="374.4" font-family="'MyriadPro-Regular'" font-size="24">x11</tspan><tspan x="0" y="432" font-family="'MyriadPro-Regular'" font-size="24">Designed to work with: </tspan><tspan x="0" y="460.8" font-family="'MyriadPro-Regular'" font-size="24">7S 10AH ‘flat’ LiPo battery from Alien Power Systems - http://alienpowersystem.com/shop/7s-batteries/alien-7s-10000mah-35c-lipo-battery-flat-configuration/</tspan><tspan x="0" y="489.6" font-family="'MyriadPro-Regular'" font-size="24">Battery enclosure from Alien Drive Systems - 7s 10000mAH model - https://www.aliendrivesystems.com/store/p15/ABS_Battery_and_Electronic_Speed_Control_Enclosures.html</tspan></text>
</svg>
