<?xml version="1.0" encoding="utf-8"?>
<!-- Generator: Adobe Illustrator 15.1.0, SVG Export Plug-In . SVG Version: 6.00 Build 0)  -->
<!DOCTYPE svg PUBLIC "-//W3C//DTD SVG 1.1//EN" "http://www.w3.org/Graphics/SVG/1.1/DTD/svg11.dtd">
<svg version="1.1" id="Layer_1" xmlns="http://www.w3.org/2000/svg" xmlns:xlink="http://www.w3.org/1999/xlink" x="0px" y="0px"
	 width="2267.72px" height="1700.79px" viewBox="0 0 2267.72 1700.79" enable-background="new 0 0 2267.72 1700.79"
	 xml:space="preserve">
<g>
	<path fill="none" stroke="#000000" stroke-miterlimit="10" d="M2225.198,1615.748c0,23.482-19.036,42.52-42.52,42.52H85.041
		c-23.483,0-42.52-19.037-42.52-42.52V85.039c0-23.483,19.037-42.52,42.52-42.52h2097.638c23.483,0,42.52,19.037,42.52,42.52
		V1615.748z"/>
	<rect x="42.521" y="1488.188" fill="none" stroke="#000000" stroke-miterlimit="10" width="2182.677" height="85.039"/>
</g>
<text transform="matrix(1 0 0 1 68.3682 1538.377)"><tspan x="0" y="0" fill="none" stroke="#F68827" stroke-miterlimit="10" font-family="'Eng_HelvLine'" font-size="36">Date: 16-02-15</tspan><tspan x="302.685" y="0" fill="none" stroke="#F68827" stroke-miterlimit="10" font-family="'Eng_HelvLine'" font-size="36" letter-spacing="3">	</tspan><tspan x="324" y="0" fill="none" stroke="#F68827" stroke-miterlimit="10" font-family="'Eng_HelvLine'" font-size="36" letter-spacing="18">	</tspan><tspan x="360" y="0" fill="none" stroke="#F68827" stroke-miterlimit="10" font-family="'Eng_HelvLine'" font-size="36">File Name: RPWC</tspan><tspan x="752.432" y="0" fill="none" stroke="#F68827" stroke-miterlimit="10" font-family="'Eng_HelvLine'" font-size="36" letter-spacing="-14">	</tspan><tspan x="756" y="0" fill="none" stroke="#F68827" stroke-miterlimit="10" font-family="'Eng_HelvLine'" font-size="36" letter-spacing="18">	</tspan><tspan x="792" y="0" fill="none" stroke="#F68827" stroke-miterlimit="10" font-family="'Eng_HelvLine'" font-size="36">Version:</tspan><tspan x="969.839" y="0" fill="none" stroke="#F68827" stroke-miterlimit="10" font-family="'Eng_HelvLine'" font-size="36" letter-spacing="-15">	</tspan><tspan x="972.001" y="0" fill="none" stroke="#F68827" stroke-miterlimit="10" font-family="'Eng_HelvLine'" font-size="36" letter-spacing="18">	</tspan><tspan x="1008.001" y="0" fill="none" stroke="#F68827" stroke-miterlimit="10" font-family="'Eng_HelvLine'" font-size="36">Contributor: Stuart Childs stuchilds</tspan><tspan x="1794.018" y="0" fill="none" stroke="#F68827" stroke-miterlimit="10" font-family="'MyriadPro-Regular'" font-size="36">@</tspan><tspan x="1820.55" y="0" fill="none" stroke="#F68827" stroke-miterlimit="10" font-family="'Eng_HelvLine'" font-size="36">gmail.com</tspan><tspan x="2043.206" y="0" fill="none" stroke="#F68827" stroke-miterlimit="10" font-family="'Eng_HelvLine'" font-size="36" letter-spacing="-9">	</tspan><tspan x="2052.001" y="0" fill="none" stroke="#F68827" stroke-miterlimit="10" font-family="'Eng_HelvLine'" font-size="36" letter-spacing="18">	</tspan><tspan x="0" y="86.4" fill="none" stroke="#F68827" stroke-miterlimit="10" font-family="'Eng_HelvLine'" font-size="36">License: Creative Commons Attribution 4.0 International License</tspan><tspan x="1424.217" y="86.4" fill="none" stroke="#F68827" stroke-miterlimit="10" font-family="'Eng_HelvLine'" font-size="36" letter-spacing="-2">	</tspan><tspan x="1440.002" y="86.4" fill="none" stroke="#F68827" stroke-miterlimit="10" font-family="'Eng_HelvLine'" font-size="36" letter-spacing="18">	</tspan></text>
<rect x="2172.826" y="1443.826" fill="none" stroke="#F68827" stroke-miterlimit="10" width="28.347" height="28.347"/>
<g>
	<path fill="none" stroke="#F68827" stroke-miterlimit="10" d="M1830.944,1460.075c0,2.881,2.197,4.033,4.771,4.033
		c2.611,0,4.249-1.639,4.304-3.241c0.054-1.585-0.757-2.845-2.359-3.188l-4.411-0.954c-1.242-0.27-1.98-0.99-1.98-2.683
		s1.423-3.15,4.016-3.15s4.483,1.224,4.411,3.366c0.072-2.143-1.818-3.366-4.411-3.366s-4.016,1.458-4.016,3.15
		s0.702,2.395,1.98,2.683l4.411,0.954c1.639,0.343,2.413,1.603,2.359,3.188c-0.055,1.603-1.692,3.241-4.304,3.241
		C1833.142,1464.108,1830.944,1462.956,1830.944,1460.075z"/>
	<path fill="none" stroke="#F68827" stroke-miterlimit="10" d="M1851.719,1461.065c-0.054,1.512-1.674,2.935-3.205,2.935
		c-1.512,0-4.123-0.252-4.123-4.771c0-4.501,2.917-4.556,4.195-4.556s2.971,0.99,3.079,2.251c-0.108-1.261-1.801-2.251-3.079-2.251
		s-4.195,0.055-4.195,4.556c0,4.52,2.611,4.771,4.123,4.771C1850.045,1464,1851.665,1462.577,1851.719,1461.065z"/>
	<path fill="none" stroke="#F68827" stroke-miterlimit="10" d="M1858.629,1464.108c-1.494-0.055-2.683-0.522-2.683-2.179
		c0-1.675,1.009-2.377,2.917-2.557c1.891-0.181,2.737-0.469,3.637-0.721c-0.899,0.252-1.746,0.54-3.637,0.721
		c-1.908,0.18-2.917,0.882-2.917,2.557C1855.946,1463.586,1857.135,1464.054,1858.629,1464.108c1.477,0.054,3.331-1.692,3.871-2.467
		C1861.96,1462.416,1860.105,1464.162,1858.629,1464.108z M1862.5,1462.83v-5.924c0-0.757-0.378-2.197-2.809-2.197
		s-3.331,1.099-3.331,2.232c0-1.134,0.9-2.232,3.331-2.232s2.809,1.44,2.809,2.197V1462.83c0,1.08,1.279,1.17,1.279,1.17
		S1862.5,1463.91,1862.5,1462.83z"/>
	<path fill="none" stroke="#F68827" stroke-miterlimit="10" d="M1869.986,1464v-12.981V1464z"/>
	<path fill="none" stroke="#F68827" stroke-miterlimit="10" d="M1875.999,1459.066h8.048c0-1.998-0.792-4.556-3.655-4.556
		c-2.845,0-4.411,1.945-4.411,4.916c0,2.989,2.017,4.573,4.411,4.501c2.413-0.072,3.457-1.944,3.583-2.61
		c-0.126,0.666-1.17,2.538-3.583,2.61c-2.395,0.072-4.411-1.512-4.411-4.501c0-2.971,1.566-4.916,4.411-4.916
		c2.863,0,3.655,2.558,3.655,4.556H1875.999z"/>
	<path fill="none" stroke="#F68827" stroke-miterlimit="10" d="M1890.436,1458.311v-0.99V1458.311z M1890.436,1464v-0.99V1464z"/>
	<path fill="none" stroke="#F68827" stroke-miterlimit="10" d="M1911.693,1456.42c0.036-0.45-0.558-1.711-2.826-1.801
		c-2.269-0.054-3.313,0.666-3.313,2.053c0,1.404,1.171,1.837,1.603,1.963l3.403,1.008c0.45,0.108,1.53,0.595,1.53,1.927
		s-1.422,2.431-3.223,2.431s-3.439-0.954-3.439-2.358c0,1.404,1.639,2.358,3.439,2.358s3.223-1.099,3.223-2.431
		s-1.08-1.818-1.53-1.927l-3.403-1.008c-0.432-0.126-1.603-0.559-1.603-1.963c0-1.387,1.045-2.106,3.313-2.053
		C1911.136,1454.709,1911.729,1455.97,1911.693,1456.42z"/>
	<path fill="none" stroke="#F68827" stroke-miterlimit="10" d="M1916.265,1459.337c0-3.638,1.729-4.718,3.817-4.718
		c2.106,0,3.816,1.08,3.816,4.718c0,3.655-1.71,4.699-3.816,4.699C1917.993,1464.036,1916.265,1462.992,1916.265,1459.337z
		 M1916.265,1459.337c0-3.638,1.729-4.718,3.817-4.718c2.106,0,3.816,1.08,3.816,4.718c0,3.655-1.71,4.699-3.816,4.699
		C1917.993,1464.036,1916.265,1462.992,1916.265,1459.337z M1923.935,1454.619v13.018V1454.619z"/>
	<path fill="none" stroke="#F68827" stroke-miterlimit="10" d="M1931.133,1454.728c0,0,0,6.031,0,6.859
		c0,0.829,0.828,2.377,3.114,2.396c2.305,0.018,3.529-1.765,3.529-3.422c0,1.657-1.225,3.439-3.529,3.422
		c-2.286-0.019-3.114-1.566-3.114-2.396C1931.133,1460.759,1931.133,1454.728,1931.133,1454.728z M1937.776,1454.728v9.255V1454.728
		z"/>
	<path fill="none" stroke="#F68827" stroke-miterlimit="10" d="M1950.609,1461.642c-0.54,0.774-2.395,2.521-3.871,2.467
		c-1.494-0.055-2.683-0.522-2.683-2.179c0-1.675,1.009-2.377,2.917-2.557c1.891-0.181,2.737-0.469,3.637-0.721
		c-0.899,0.252-1.746,0.54-3.637,0.721c-1.908,0.18-2.917,0.882-2.917,2.557c0,1.656,1.188,2.124,2.683,2.179
		C1948.215,1464.162,1950.069,1462.416,1950.609,1461.642z M1951.889,1464c0,0-1.279-0.09-1.279-1.17v-5.924
		c0-0.757-0.378-2.197-2.809-2.197s-3.331,1.099-3.331,2.232c0-1.134,0.9-2.232,3.331-2.232s2.809,1.44,2.809,2.197v5.924
		C1950.609,1463.91,1951.889,1464,1951.889,1464z"/>
	<path fill="none" stroke="#F68827" stroke-miterlimit="10" d="M1961.68,1454.764c-1.675-0.019-3.584,2.448-3.529,4.519
		C1958.096,1457.212,1960.005,1454.745,1961.68,1454.764z M1958.15,1454.764V1464V1454.764z"/>
	<path fill="none" stroke="#F68827" stroke-miterlimit="10" d="M1965.836,1459.066h8.048c0-1.998-0.792-4.556-3.655-4.556
		c-2.845,0-4.411,1.945-4.411,4.916c0,2.989,2.017,4.573,4.411,4.501c2.413-0.072,3.457-1.944,3.584-2.61
		c-0.127,0.666-1.171,2.538-3.584,2.61c-2.395,0.072-4.411-1.512-4.411-4.501c0-2.971,1.566-4.916,4.411-4.916
		c2.863,0,3.655,2.558,3.655,4.556H1965.836z"/>
	<path fill="none" stroke="#F68827" stroke-miterlimit="10" d="M1989.29,1451.324V1451V1451.324z M1989.29,1463.982v-9.237
		C1989.29,1454.745,1989.29,1464.018,1989.29,1463.982z"/>
	<path fill="none" stroke="#F68827" stroke-miterlimit="10" d="M1998.723,1454.619c-2.269-0.054-3.313,0.666-3.313,2.053
		c0,1.404,1.171,1.837,1.603,1.963l3.403,1.008c0.45,0.108,1.53,0.595,1.53,1.927s-1.422,2.431-3.223,2.431
		s-3.439-0.954-3.439-2.358c0,1.404,1.639,2.358,3.439,2.358s3.223-1.099,3.223-2.431s-1.08-1.818-1.53-1.927l-3.403-1.008
		c-0.432-0.126-1.603-0.559-1.603-1.963C1995.409,1455.285,1996.454,1454.565,1998.723,1454.619c2.269,0.09,2.862,1.351,2.826,1.801
		C2001.585,1455.97,2000.991,1454.709,1998.723,1454.619z"/>
	<path fill="none" stroke="#F68827" stroke-miterlimit="10" d="M2018.198,1464v-12.981c0,2.214-2.143,2.736-3.062,2.809
		c0.919-0.072,3.062-0.595,3.062-2.809V1464z"/>
	<path fill="none" stroke="#F68827" stroke-miterlimit="10" d="M2024.245,1457.518c0-3.564,0.757-6.481,3.926-6.481
		s3.925,2.917,3.925,6.481c0,3.584-0.756,6.482-3.925,6.482S2024.245,1461.102,2024.245,1457.518z M2024.245,1457.518
		c0-3.564,0.757-6.481,3.926-6.481s3.925,2.917,3.925,6.481c0,3.584-0.756,6.482-3.925,6.482S2024.245,1461.102,2024.245,1457.518z"
		/>
	<path fill="none" stroke="#F68827" stroke-miterlimit="10" d="M2044.443,1464c0,0,0-6.014,0-6.842s-0.54-2.377-2.827-2.395
		c-2.287-0.019-3.313,1.764-3.313,3.421c0-1.657,1.026-3.439,3.313-3.421c2.287,0.018,2.827,1.566,2.827,2.395
		S2044.443,1464,2044.443,1464z M2038.303,1464v-9.236V1464z M2050.637,1464c0,0,0-6.014,0-6.842s-0.792-2.377-3.079-2.395
		c-2.286-0.019-3.114,1.764-3.114,3.421c0-1.657,0.828-3.439,3.114-3.421c2.287,0.018,3.079,1.566,3.079,2.395
		S2050.637,1464,2050.637,1464z"/>
	<path fill="none" stroke="#F68827" stroke-miterlimit="10" d="M2064.207,1464c0,0,0-6.014,0-6.842s-0.54-2.377-2.827-2.395
		c-2.287-0.019-3.313,1.764-3.313,3.421c0-1.657,1.026-3.439,3.313-3.421c2.287,0.018,2.827,1.566,2.827,2.395
		S2064.207,1464,2064.207,1464z M2058.066,1464v-9.236V1464z M2070.4,1464c0,0,0-6.014,0-6.842s-0.792-2.377-3.079-2.395
		c-2.286-0.019-3.114,1.764-3.114,3.421c0-1.657,0.828-3.439,3.114-3.421c2.287,0.018,3.079,1.566,3.079,2.395
		S2070.4,1464,2070.4,1464z"/>
	<path fill="none" stroke="#F68827" stroke-miterlimit="10" d="M2084.886,1464l3.709-5.149l-2.952-4.087l2.952,4.087l2.972-4.087
		l-2.972,4.087l3.728,5.149l-3.728-5.149L2084.886,1464z"/>
	<path fill="none" stroke="#F68827" stroke-miterlimit="10" d="M2108.63,1464v-12.981c0,2.214-2.143,2.736-3.062,2.809
		c0.919-0.072,3.062-0.595,3.062-2.809V1464z"/>
	<path fill="none" stroke="#F68827" stroke-miterlimit="10" d="M2114.676,1457.518c0-3.564,0.757-6.481,3.926-6.481
		s3.925,2.917,3.925,6.481c0,3.584-0.756,6.482-3.925,6.482S2114.676,1461.102,2114.676,1457.518z M2114.676,1457.518
		c0-3.564,0.757-6.481,3.926-6.481s3.925,2.917,3.925,6.481c0,3.584-0.756,6.482-3.925,6.482S2114.676,1461.102,2114.676,1457.518z"
		/>
	<path fill="none" stroke="#F68827" stroke-miterlimit="10" d="M2134.875,1457.158c0-0.828-0.54-2.377-2.827-2.395
		c-2.287-0.019-3.313,1.764-3.313,3.421c0-1.657,1.026-3.439,3.313-3.421C2134.335,1454.781,2134.875,1456.33,2134.875,1457.158
		s0,6.842,0,6.842S2134.875,1457.986,2134.875,1457.158z M2128.734,1454.764V1464V1454.764z M2141.068,1457.158
		c0-0.828-0.792-2.377-3.079-2.395c-2.286-0.019-3.114,1.764-3.114,3.421c0-1.657,0.828-3.439,3.114-3.421
		C2140.276,1454.781,2141.068,1456.33,2141.068,1457.158s0,6.842,0,6.842S2141.068,1457.986,2141.068,1457.158z"/>
	<path fill="none" stroke="#F68827" stroke-miterlimit="10" d="M2154.639,1457.158c0-0.828-0.54-2.377-2.827-2.395
		c-2.287-0.019-3.313,1.764-3.313,3.421c0-1.657,1.026-3.439,3.313-3.421C2154.099,1454.781,2154.639,1456.33,2154.639,1457.158
		s0,6.842,0,6.842S2154.639,1457.986,2154.639,1457.158z M2148.498,1454.764V1464V1454.764z M2160.832,1457.158
		c0-0.828-0.792-2.377-3.079-2.395c-2.286-0.019-3.114,1.764-3.114,3.421c0-1.657,0.828-3.439,3.114-3.421
		C2160.04,1454.781,2160.832,1456.33,2160.832,1457.158s0,6.842,0,6.842S2160.832,1457.986,2160.832,1457.158z"/>
</g>
<path fill="none" stroke="#000000" stroke-miterlimit="10" d="M144.802,948.403h-7.58v-12.981v12.981H144.802z"/>
<path fill="none" stroke="#000000" stroke-miterlimit="10" d="M155.691,946.045c-0.54,0.774-2.395,2.521-3.871,2.467
	c-1.495-0.054-2.683-0.522-2.683-2.179c0-1.675,1.008-2.377,2.917-2.557c1.891-0.181,2.737-0.469,3.637-0.721
	c-0.9,0.252-1.747,0.54-3.637,0.721c-1.909,0.18-2.917,0.882-2.917,2.557c0,1.656,1.188,2.125,2.683,2.179
	C153.296,948.565,155.151,946.819,155.691,946.045z M156.969,948.403c0,0-1.278-0.09-1.278-1.17v-5.924
	c0-0.756-0.378-2.196-2.809-2.196c-2.431,0-3.331,1.098-3.331,2.232c0-1.135,0.9-2.232,3.331-2.232c2.431,0,2.809,1.44,2.809,2.196
	v5.924C155.691,948.313,156.969,948.403,156.969,948.403z"/>
<path fill="none" stroke="#000000" stroke-miterlimit="10" d="M167.499,940.823c0.036-0.45-0.558-1.71-2.827-1.801
	c-2.269-0.054-3.313,0.667-3.313,2.053c0,1.404,1.17,1.837,1.603,1.963l3.403,1.008c0.45,0.108,1.53,0.595,1.53,1.927
	c0,1.333-1.422,2.431-3.223,2.431c-1.801,0-3.439-0.954-3.439-2.358c0,1.404,1.638,2.358,3.439,2.358c1.8,0,3.223-1.098,3.223-2.431
	c0-1.332-1.08-1.818-1.53-1.927l-3.403-1.008c-0.433-0.126-1.603-0.559-1.603-1.963c0-1.386,1.044-2.106,3.313-2.053
	C166.94,939.113,167.535,940.373,167.499,940.823z"/>
<path fill="none" stroke="#000000" stroke-miterlimit="10" d="M180.153,943.47c0-1.998-0.792-4.555-3.655-4.555
	c-2.845,0-4.412,1.944-4.412,4.915c0,2.989,2.017,4.573,4.412,4.502c2.413-0.072,3.457-1.945,3.583-2.611
	c-0.126,0.666-1.17,2.539-3.583,2.611c-2.395,0.071-4.412-1.513-4.412-4.502c0-2.971,1.567-4.915,4.412-4.915
	C179.361,938.915,180.153,941.472,180.153,943.47h-8.048H180.153z"/>
<path fill="none" stroke="#000000" stroke-miterlimit="10" d="M186.595,943.687c-0.054-2.071,1.854-4.538,3.529-4.52
	C188.45,939.148,186.541,941.615,186.595,943.687z M186.595,948.403v-9.236V948.403z"/>
<path fill="none" stroke="#000000" stroke-miterlimit="10" d="M203.262,944.479c0,2.881,2.197,4.033,4.771,4.033
	c2.611,0,4.25-1.639,4.304-3.241c0.054-1.584-0.756-2.845-2.359-3.187l-4.412-0.954c-1.242-0.271-1.98-0.991-1.98-2.684
	s1.422-3.15,4.015-3.15s4.483,1.225,4.412,3.367c0.072-2.143-1.819-3.367-4.412-3.367s-4.015,1.458-4.015,3.15
	s0.702,2.396,1.98,2.684l4.412,0.954c1.638,0.342,2.413,1.603,2.359,3.187c-0.054,1.603-1.693,3.241-4.304,3.241
	C205.459,948.512,203.262,947.359,203.262,944.479z"/>
<path fill="none" stroke="#000000" stroke-miterlimit="10" d="M216.726,943.47h8.049c0-1.998-0.792-4.555-3.655-4.555
	c-2.845,0-4.411,1.944-4.411,4.915c0,2.989,2.017,4.573,4.411,4.502c2.413-0.072,3.457-1.945,3.583-2.611
	c-0.126,0.666-1.17,2.539-3.583,2.611c-2.395,0.071-4.411-1.513-4.411-4.502c0-2.971,1.566-4.915,4.411-4.915
	c2.863,0,3.655,2.557,3.655,4.555H216.726z"/>
<path fill="none" stroke="#000000" stroke-miterlimit="10" d="M229.218,939.077h3.763H229.218z M232.945,948.313
	c-0.882,0.054-1.837,0.09-1.837-1.116c0-1.225,0-11.523,0-11.523s0,10.299,0,11.523
	C231.108,948.403,232.063,948.367,232.945,948.313z"/>
<path fill="none" stroke="#000000" stroke-miterlimit="10" d="M237.03,939.077h3.763H237.03z M240.757,948.313
	c-0.882,0.054-1.837,0.09-1.837-1.116c0-1.225,0-11.523,0-11.523s0,10.299,0,11.523C238.92,948.403,239.875,948.367,240.757,948.313
	z"/>
<path fill="none" stroke="#000000" stroke-miterlimit="10" d="M246.805,935.728v-0.324V935.728z M246.805,948.386v-9.237
	C246.805,939.148,246.805,948.422,246.805,948.386z"/>
<path fill="none" stroke="#000000" stroke-miterlimit="10" d="M261.368,948.403c0,0,0-6.014,0-6.842s-0.828-2.377-3.115-2.395
	c-2.305-0.019-3.511,1.765-3.511,3.421c0-1.656,1.207-3.439,3.511-3.421c2.287,0.018,3.115,1.566,3.115,2.395
	S261.368,948.403,261.368,948.403z M254.742,948.403v-9.236V948.403z"/>
<path fill="none" stroke="#000000" stroke-miterlimit="10" d="M270.367,939.077c2.089,0,3.817,1.044,3.817,4.646
	c0,3.601-1.729,4.645-3.817,4.645c-2.088,0-3.799-1.044-3.799-4.645C266.568,940.121,268.278,939.077,270.367,939.077z
	 M270.367,939.077c2.089,0,3.817,1.044,3.817,4.646c0,3.601-1.729,4.645-3.817,4.645c-2.088,0-3.799-1.044-3.799-4.645
	C266.568,940.121,268.278,939.077,270.367,939.077z M267.108,950.276c0.198,1.08,1.512,1.692,3.313,1.765
	c1.836,0.054,3.763-1.297,3.763-2.972c0-1.692,0-9.849,0-9.849s0,8.156,0,9.849c0,1.675-1.927,3.025-3.763,2.972
	C268.62,951.969,267.306,951.356,267.108,950.276z"/>
<path fill="none" stroke="#000000" stroke-miterlimit="10" d="M284.695,940.823c0.036-0.45-0.558-1.71-2.827-1.801
	c-2.269-0.054-3.313,0.667-3.313,2.053c0,1.404,1.17,1.837,1.602,1.963l3.403,1.008c0.45,0.108,1.53,0.595,1.53,1.927
	c0,1.333-1.422,2.431-3.223,2.431c-1.801,0-3.439-0.954-3.439-2.358c0,1.404,1.639,2.358,3.439,2.358c1.8,0,3.223-1.098,3.223-2.431
	c0-1.332-1.08-1.818-1.53-1.927l-3.403-1.008c-0.432-0.126-1.602-0.559-1.602-1.963c0-1.386,1.044-2.106,3.313-2.053
	C284.137,939.113,284.731,940.373,284.695,940.823z"/>
<path fill="none" stroke="#DD5A26" stroke-miterlimit="10" d="M135.277,1006.613c0-4.97,2.575-6.733,5.726-6.733
	s5.726,1.764,5.726,6.733s-2.575,6.698-5.726,6.698S135.277,1011.583,135.277,1006.613z M135.277,1006.613
	c0-4.97,2.575-6.733,5.726-6.733s5.726,1.764,5.726,6.733s-2.575,6.698-5.726,6.698S135.277,1011.583,135.277,1006.613z"/>
<path fill="none" stroke="#DD5A26" stroke-miterlimit="10" d="M153.17,1008.486c-0.054-2.071,1.854-4.538,3.529-4.52
	C155.024,1003.948,153.116,1006.415,153.17,1008.486z M153.17,1013.203v-9.236V1013.203z"/>
<path fill="none" stroke="#DD5A26" stroke-miterlimit="10" d="M163.52,1013.312c-1.495-0.054-2.683-0.522-2.683-2.179
	c0-1.675,1.009-2.377,2.917-2.557c1.891-0.181,2.737-0.469,3.637-0.721c-0.9,0.252-1.747,0.54-3.637,0.721
	c-1.908,0.18-2.917,0.882-2.917,2.557C160.836,1012.789,162.025,1013.258,163.52,1013.312c1.477,0.054,3.331-1.692,3.871-2.467
	C166.851,1011.619,164.996,1013.365,163.52,1013.312z M167.391,1012.033v-5.924c0-0.756-0.378-2.196-2.809-2.196
	c-2.431,0-3.331,1.098-3.331,2.232c0-1.135,0.9-2.232,3.331-2.232c2.431,0,2.809,1.44,2.809,2.196V1012.033
	c0,1.08,1.278,1.17,1.278,1.17S167.391,1013.113,167.391,1012.033z"/>
<path fill="none" stroke="#DD5A26" stroke-miterlimit="10" d="M181.503,1013.203c0,0,0-6.014,0-6.842s-0.828-2.377-3.115-2.395
	c-2.305-0.019-3.511,1.765-3.511,3.421c0-1.656,1.207-3.439,3.511-3.421c2.287,0.018,3.115,1.566,3.115,2.395
	S181.503,1013.203,181.503,1013.203z M174.877,1013.203v-9.236V1013.203z"/>
<path fill="none" stroke="#DD5A26" stroke-miterlimit="10" d="M190.502,1003.877c2.089,0,3.817,1.044,3.817,4.646
	c0,3.601-1.729,4.645-3.817,4.645c-2.088,0-3.799-1.044-3.799-4.645C186.703,1004.921,188.414,1003.877,190.502,1003.877z
	 M190.502,1003.877c2.089,0,3.817,1.044,3.817,4.646c0,3.601-1.729,4.645-3.817,4.645c-2.088,0-3.799-1.044-3.799-4.645
	C186.703,1004.921,188.414,1003.877,190.502,1003.877z M187.243,1015.076c0.198,1.08,1.512,1.692,3.313,1.765
	c1.836,0.054,3.763-1.297,3.763-2.972c0-1.692,0-9.849,0-9.849s0,8.156,0,9.849c0,1.675-1.927,3.025-3.763,2.972
	C188.755,1016.769,187.441,1016.156,187.243,1015.076z"/>
<path fill="none" stroke="#DD5A26" stroke-miterlimit="10" d="M206.631,1008.27c0-1.998-0.792-4.555-3.655-4.555
	c-2.845,0-4.411,1.944-4.411,4.915c0,2.989,2.017,4.573,4.411,4.502c2.413-0.072,3.457-1.945,3.583-2.611
	c-0.126,0.666-1.17,2.539-3.583,2.611c-2.395,0.071-4.411-1.513-4.411-4.502c0-2.971,1.566-4.915,4.411-4.915
	C205.839,1003.715,206.631,1006.271,206.631,1008.27h-8.049H206.631z"/>
<path fill="none" stroke="#DD5A26" stroke-miterlimit="10" d="M213.019,1007.514v-0.99V1007.514z M213.019,1013.203v-0.99V1013.203z
	"/>
<path fill="none" stroke="#DD5A26" stroke-miterlimit="10" d="M231.667,1013.203l-3.655-9.236L231.667,1013.203l3.691-9.236
	L231.667,1013.203z"/>
<path fill="none" stroke="#DD5A26" stroke-miterlimit="10" d="M239.604,1008.27h8.049c0-1.998-0.792-4.555-3.655-4.555
	c-2.845,0-4.411,1.944-4.411,4.915c0,2.989,2.017,4.573,4.411,4.502c2.413-0.072,3.457-1.945,3.583-2.611
	c-0.126,0.666-1.17,2.539-3.583,2.611c-2.395,0.071-4.411-1.513-4.411-4.502c0-2.971,1.566-4.915,4.411-4.915
	c2.863,0,3.655,2.557,3.655,4.555H239.604z"/>
<path fill="none" stroke="#DD5A26" stroke-miterlimit="10" d="M259.424,1010.269c-0.054,1.513-1.675,2.935-3.205,2.935
	c-1.513,0-4.123-0.252-4.123-4.771c0-4.501,2.917-4.555,4.195-4.555c1.279,0,2.971,0.99,3.079,2.25c-0.108-1.26-1.8-2.25-3.079-2.25
	c-1.278,0-4.195,0.054-4.195,4.555c0,4.52,2.61,4.771,4.123,4.771C257.75,1013.203,259.37,1011.781,259.424,1010.269z"/>
<path fill="none" stroke="#DD5A26" stroke-miterlimit="10" d="M263.652,1003.877h3.763H263.652z M267.379,1013.113
	c-0.882,0.054-1.837,0.09-1.837-1.116c0-1.225,0-11.523,0-11.523s0,10.299,0,11.523
	C265.542,1013.203,266.497,1013.167,267.379,1013.113z"/>
<path fill="none" stroke="#DD5A26" stroke-miterlimit="10" d="M271.464,1008.486c0-3.638,1.854-4.7,4.087-4.7
	c2.251,0,4.087,1.062,4.087,4.7c0,3.654-1.836,4.717-4.087,4.717C273.319,1013.203,271.464,1012.141,271.464,1008.486z
	 M271.464,1008.486c0-3.638,1.854-4.7,4.087-4.7c2.251,0,4.087,1.062,4.087,4.7c0,3.654-1.836,4.717-4.087,4.717
	C273.319,1013.203,271.464,1012.141,271.464,1008.486z"/>
<path fill="none" stroke="#DD5A26" stroke-miterlimit="10" d="M285.918,1008.486c-0.054-2.071,1.854-4.538,3.529-4.52
	C287.773,1003.948,285.864,1006.415,285.918,1008.486z M285.918,1013.203v-9.236V1013.203z"/>
<path fill="none" stroke="#DD5A26" stroke-miterlimit="10" d="M302.603,1008.27h8.049c0-1.998-0.792-4.555-3.655-4.555
	c-2.845,0-4.411,1.944-4.411,4.915c0,2.989,2.017,4.573,4.411,4.502c2.413-0.072,3.457-1.945,3.583-2.611
	c-0.126,0.666-1.17,2.539-3.583,2.611c-2.395,0.071-4.411-1.513-4.411-4.502c0-2.971,1.566-4.915,4.411-4.915
	c2.863,0,3.655,2.557,3.655,4.555H302.603z"/>
<path fill="none" stroke="#DD5A26" stroke-miterlimit="10" d="M315.095,1003.877h3.763H315.095z M318.823,1013.113
	c-0.882,0.054-1.837,0.09-1.837-1.116c0-1.225,0-11.523,0-11.523s0,10.299,0,11.523
	C316.986,1013.203,317.94,1013.167,318.823,1013.113z"/>
<path fill="none" stroke="#DD5A26" stroke-miterlimit="10" d="M327.03,1013.203c-1.513,0-4.124-0.252-4.124-4.771
	c0-4.501,2.917-4.555,4.195-4.555s2.971,0.99,3.079,2.25c-0.108-1.26-1.801-2.25-3.079-2.25s-4.195,0.054-4.195,4.555
	C322.907,1012.951,325.518,1013.203,327.03,1013.203c1.53,0,3.151-1.422,3.205-2.935
	C330.181,1011.781,328.561,1013.203,327.03,1013.203z"/>
<path fill="none" stroke="#DD5A26" stroke-miterlimit="10" d="M336.408,1013.203v-12.981V1013.203z M343.142,1013.203
	c0,0,0-4.681,0-6.319s-0.99-2.881-2.917-2.917c-1.963-0.036-3.817,1.152-3.817,2.719c0-1.566,1.854-2.755,3.817-2.719
	c1.926,0.036,2.917,1.278,2.917,2.917S343.142,1013.203,343.142,1013.203z"/>
<path fill="none" stroke="#000000" stroke-miterlimit="10" d="M137.222,1028.123h4.987c2.593,0,3.655-1.566,3.601-3.133
	c-0.072-1.566-1.17-3.169-3.565-3.169h-5.023v12.982h5.528c2.052,0,3.673-1.225,3.673-3.277c-0.036-2.053-1.747-3.403-4.213-3.403
	c2.467,0,4.177,1.351,4.213,3.403c0,2.053-1.621,3.277-3.673,3.277h-5.528v-12.982h5.023c2.395,0,3.493,1.603,3.565,3.169
	c0.054,1.566-1.008,3.133-3.601,3.133H137.222z"/>
<path fill="none" stroke="#000000" stroke-miterlimit="10" d="M152.792,1034.804v-12.982V1034.804z"/>
<path fill="none" stroke="#000000" stroke-miterlimit="10" d="M161.468,1034.911c-1.495-0.054-2.683-0.521-2.683-2.179
	c0-1.674,1.009-2.376,2.917-2.557c1.891-0.18,2.737-0.468,3.637-0.72c-0.9,0.252-1.747,0.54-3.637,0.72
	c-1.908,0.181-2.917,0.883-2.917,2.557C158.785,1034.39,159.973,1034.857,161.468,1034.911c1.477,0.055,3.331-1.692,3.871-2.467
	C164.799,1033.219,162.944,1034.966,161.468,1034.911z M165.339,1033.633v-5.924c0-0.756-0.378-2.196-2.809-2.196
	c-2.431,0-3.331,1.099-3.331,2.232c0-1.134,0.9-2.232,3.331-2.232c2.431,0,2.809,1.44,2.809,2.196V1033.633
	c0,1.081,1.278,1.171,1.278,1.171S165.339,1034.714,165.339,1033.633z"/>
<path fill="none" stroke="#000000" stroke-miterlimit="10" d="M175.004,1034.804c-1.513,0-4.124-0.252-4.124-4.771
	c0-4.502,2.917-4.556,4.195-4.556s2.971,0.99,3.079,2.251c-0.108-1.261-1.801-2.251-3.079-2.251s-4.195,0.054-4.195,4.556
	C170.88,1034.552,173.491,1034.804,175.004,1034.804c1.53,0,3.151-1.423,3.205-2.936
	C178.155,1033.381,176.534,1034.804,175.004,1034.804z"/>
<path fill="none" stroke="#000000" stroke-miterlimit="10" d="M184.381,1034.804v-3.638l2.485-2.412l3.925,6.05l-3.925-6.05
	l3.313-3.188l-5.798,5.6v-9.345V1034.804z"/>
<path fill="none" stroke="#000000" stroke-miterlimit="10" d="M197.017,1029.114v-0.991V1029.114z M197.017,1034.804v-0.99V1034.804
	z"/>
<path fill="none" stroke="#000000" stroke-miterlimit="10" d="M219.357,1025.566l-3.691,9.237l-3.655-9.237l3.655,9.237
	L219.357,1025.566z"/>
<path fill="none" stroke="#000000" stroke-miterlimit="10" d="M223.602,1029.87h8.049c0-1.999-0.792-4.556-3.655-4.556
	c-2.845,0-4.411,1.944-4.411,4.916c0,2.988,2.017,4.573,4.411,4.501c2.413-0.072,3.457-1.944,3.583-2.61
	c-0.126,0.666-1.17,2.538-3.583,2.61c-2.395,0.072-4.411-1.513-4.411-4.501c0-2.972,1.566-4.916,4.411-4.916
	c2.863,0,3.655,2.557,3.655,4.556H223.602z"/>
<path fill="none" stroke="#000000" stroke-miterlimit="10" d="M240.218,1034.804c-1.513,0-4.124-0.252-4.124-4.771
	c0-4.502,2.917-4.556,4.195-4.556s2.971,0.99,3.079,2.251c-0.108-1.261-1.801-2.251-3.079-2.251s-4.195,0.054-4.195,4.556
	C236.094,1034.552,238.705,1034.804,240.218,1034.804c1.53,0,3.151-1.423,3.205-2.936
	C243.369,1033.381,241.748,1034.804,240.218,1034.804z"/>
<path fill="none" stroke="#000000" stroke-miterlimit="10" d="M247.65,1025.477h3.763H247.65z M251.377,1034.714
	c-0.882,0.054-1.837,0.09-1.837-1.117c0-1.224,0-11.523,0-11.523s0,10.3,0,11.523
	C249.541,1034.804,250.495,1034.768,251.377,1034.714z"/>
<path fill="none" stroke="#000000" stroke-miterlimit="10" d="M255.462,1030.086c0-3.637,1.854-4.699,4.087-4.699
	c2.251,0,4.087,1.062,4.087,4.699c0,3.655-1.836,4.718-4.087,4.718C257.317,1034.804,255.462,1033.741,255.462,1030.086z
	 M255.462,1030.086c0-3.637,1.854-4.699,4.087-4.699c2.251,0,4.087,1.062,4.087,4.699c0,3.655-1.836,4.718-4.087,4.718
	C257.317,1034.804,255.462,1033.741,255.462,1030.086z"/>
<path fill="none" stroke="#000000" stroke-miterlimit="10" d="M269.917,1030.086c-0.054-2.07,1.854-4.537,3.529-4.52
	C271.771,1025.549,269.862,1028.016,269.917,1030.086z M269.917,1034.804v-9.237V1034.804z"/>
<path fill="none" stroke="#000000" stroke-miterlimit="10" d="M290.707,1034.804c-1.513,0-4.124-0.252-4.124-4.771
	c0-4.502,2.917-4.556,4.195-4.556s2.971,0.99,3.079,2.251c-0.108-1.261-1.801-2.251-3.079-2.251s-4.195,0.054-4.195,4.556
	C286.583,1034.552,289.194,1034.804,290.707,1034.804c1.53,0,3.151-1.423,3.205-2.936
	C293.858,1033.381,292.237,1034.804,290.707,1034.804z"/>
<path fill="none" stroke="#000000" stroke-miterlimit="10" d="M299.058,1025.53c0,0,0,6.032,0,6.86s0.828,2.377,3.115,2.395
	c2.305,0.019,3.529-1.765,3.529-3.421c0,1.656-1.225,3.439-3.529,3.421c-2.287-0.018-3.115-1.566-3.115-2.395
	S299.058,1025.53,299.058,1025.53z M305.702,1025.53v9.255V1025.53z"/>
<path fill="none" stroke="#000000" stroke-miterlimit="10" d="M311.982,1025.477h3.763H311.982z M315.709,1034.714
	c-0.882,0.054-1.837,0.09-1.837-1.117c0-1.224,0-11.523,0-11.523s0,10.3,0,11.523
	C313.872,1034.804,314.827,1034.768,315.709,1034.714z"/>
<text transform="matrix(1 0 0 1 133.3325 1156.1387)"><tspan x="0" y="0" fill="none" stroke="#000000" stroke-miterlimit="10" font-family="'Eng_HelvLine'" font-size="18">Stock </tspan><tspan x="0" y="43.199" fill="none" stroke="#000000" stroke-miterlimit="10" font-family="'Eng_HelvLine'" font-size="18">- left group: 3mm MDF or acrylic sheet</tspan><tspan x="0" y="64.799" fill="none" stroke="#000000" stroke-miterlimit="10" font-family="'Eng_HelvLine'" font-size="18">- right piece - 6mm acrylic sheet</tspan></text>
<circle fill="none" stroke="#000000" stroke-width="1.4173" stroke-miterlimit="10" cx="265.203" cy="429.637" r="8.504"/>
<circle fill="none" stroke="#000000" stroke-width="1.4173" stroke-miterlimit="10" cx="265.203" cy="486.33" r="8.504"/>
<circle fill="none" stroke="#000000" stroke-width="1.4173" stroke-miterlimit="10" cx="548.667" cy="429.637" r="8.504"/>
<circle fill="none" stroke="#000000" stroke-width="1.4173" stroke-miterlimit="10" cx="265.203" cy="656.412" r="8.504"/>
<circle fill="none" stroke="#000000" stroke-width="1.4173" stroke-miterlimit="10" cx="548.667" cy="656.412" r="8.504"/>
<circle fill="none" stroke="#000000" stroke-width="1.4173" stroke-miterlimit="10" cx="491.974" cy="656.412" r="8.504"/>
<circle fill="none" stroke="#000000" stroke-width="1.4173" stroke-miterlimit="10" cx="435.281" cy="656.412" r="8.504"/>
<circle fill="none" stroke="#000000" stroke-width="1.4173" stroke-miterlimit="10" cx="378.587" cy="656.412" r="8.504"/>
<circle fill="none" stroke="#000000" stroke-width="1.4173" stroke-miterlimit="10" cx="321.894" cy="656.412" r="8.504"/>
<circle fill="none" stroke="#000000" stroke-width="1.4173" stroke-miterlimit="10" cx="548.667" cy="599.719" r="8.504"/>
<circle fill="none" stroke="#000000" stroke-width="1.4173" stroke-miterlimit="10" cx="548.667" cy="543.025" r="8.504"/>
<circle fill="none" stroke="#000000" stroke-width="1.4173" stroke-miterlimit="10" cx="548.667" cy="486.332" r="8.504"/>
<rect x="285.044" y="651.451" fill="none" stroke="#000000" stroke-width="1.4173" stroke-miterlimit="10" width="17.009" height="9.922"/>
<rect x="341.738" y="651.451" fill="none" stroke="#000000" stroke-width="1.4173" stroke-miterlimit="10" width="17.009" height="9.922"/>
<rect x="398.431" y="651.451" fill="none" stroke="#000000" stroke-width="1.4173" stroke-miterlimit="10" width="17.009" height="9.922"/>
<rect x="455.125" y="651.451" fill="none" stroke="#000000" stroke-width="1.4173" stroke-miterlimit="10" width="17.009" height="9.922"/>
<rect x="511.818" y="651.451" fill="none" stroke="#000000" stroke-width="1.4173" stroke-miterlimit="10" width="17.009" height="9.922"/>
<rect x="511.818" y="424.678" fill="none" stroke="#000000" stroke-width="1.4173" stroke-miterlimit="10" width="17.009" height="9.922"/>
<rect x="455.125" y="424.678" fill="none" stroke="#000000" stroke-width="1.4173" stroke-miterlimit="10" width="17.009" height="9.922"/>
<rect x="398.431" y="424.678" fill="none" stroke="#000000" stroke-width="1.4173" stroke-miterlimit="10" width="17.009" height="9.922"/>
<rect x="341.738" y="424.678" fill="none" stroke="#000000" stroke-width="1.4173" stroke-miterlimit="10" width="17.009" height="9.922"/>
<rect x="285.044" y="424.678" fill="none" stroke="#000000" stroke-width="1.4173" stroke-miterlimit="10" width="17.009" height="9.922"/>
<circle fill="none" stroke="#000000" stroke-width="1.4173" stroke-miterlimit="10" cx="491.974" cy="429.639" r="8.504"/>
<circle fill="none" stroke="#000000" stroke-width="1.4173" stroke-miterlimit="10" cx="435.281" cy="429.639" r="8.504"/>
<circle fill="none" stroke="#000000" stroke-width="1.4173" stroke-miterlimit="10" cx="378.587" cy="429.639" r="8.504"/>
<circle fill="none" stroke="#000000" stroke-width="1.4173" stroke-miterlimit="10" cx="321.894" cy="429.639" r="8.504"/>
<rect x="260.244" y="619.563" fill="none" stroke="#000000" stroke-width="1.4173" stroke-miterlimit="10" width="9.921" height="17.009"/>
<rect x="260.244" y="449.483" fill="none" stroke="#000000" stroke-width="1.4173" stroke-miterlimit="10" width="9.921" height="17.009"/>
<rect x="316.937" y="449.483" fill="none" stroke="#000000" stroke-width="1.4173" stroke-miterlimit="10" width="9.921" height="17.009"/>
<rect x="373.63" y="449.483" fill="none" stroke="#000000" stroke-width="1.4173" stroke-miterlimit="10" width="9.921" height="17.009"/>
<rect x="430.324" y="449.483" fill="none" stroke="#000000" stroke-width="1.4173" stroke-miterlimit="10" width="9.921" height="17.009"/>
<rect x="487.017" y="449.483" fill="none" stroke="#000000" stroke-width="1.4173" stroke-miterlimit="10" width="9.921" height="17.009"/>
<rect x="543.71" y="449.483" fill="none" stroke="#000000" stroke-width="1.4173" stroke-miterlimit="10" width="9.921" height="17.009"/>
<rect x="543.71" y="506.177" fill="none" stroke="#000000" stroke-width="1.4173" stroke-miterlimit="10" width="9.921" height="17.009"/>
<rect x="543.71" y="562.87" fill="none" stroke="#000000" stroke-width="1.4173" stroke-miterlimit="10" width="9.921" height="17.009"/>
<rect x="543.71" y="619.563" fill="none" stroke="#000000" stroke-width="1.4173" stroke-miterlimit="10" width="9.921" height="17.009"/>
<g>
	<circle fill="none" stroke="#000000" stroke-width="1.4173" stroke-miterlimit="10" cx="513.183" cy="512.213" r="4.252"/>
	<circle fill="none" stroke="#000000" stroke-width="1.4173" stroke-miterlimit="10" cx="358.682" cy="584.215" r="4.252"/>
	<circle fill="none" stroke="#F58220" stroke-width="1.4173" stroke-miterlimit="2.6131" cx="510.186" cy="606.882" r="14.173"/>
	<circle fill="none" stroke="#F58220" stroke-width="1.4173" stroke-miterlimit="2.6131" cx="374.121" cy="507.668" r="14.173"/>
	
		<rect x="286.443" y="476.57" fill="none" stroke="#F58220" stroke-width="1.4173" stroke-miterlimit="2.6131" width="240.751" height="157.645"/>
	
		<text transform="matrix(0 -1 1 0 410.1797 593.6709)" fill="none" stroke="#F58220" stroke-width="1.4173" stroke-miterlimit="2.6131" font-family="'ArialMT'" font-size="12">Raspberry Pi</text>
	<circle fill="none" stroke="#000000" stroke-width="1.4173" stroke-miterlimit="10" cx="296.388" cy="624.842" r="4.252"/>
	<circle fill="none" stroke="#000000" stroke-width="1.4173" stroke-miterlimit="10" cx="296.388" cy="485.943" r="4.252"/>
	<circle fill="none" stroke="#000000" stroke-width="1.4173" stroke-miterlimit="10" cx="460.798" cy="624.842" r="4.252"/>
	<circle fill="none" stroke="#000000" stroke-width="1.4173" stroke-miterlimit="10" cx="460.798" cy="485.943" r="4.252"/>
</g>
<rect x="134.552" y="291.519" fill="none" stroke="#BE762A" stroke-width="1.4173" stroke-miterlimit="10" width="68.032" height="70.866"/>
<circle fill="none" stroke="#000000" stroke-width="1.4173" stroke-miterlimit="10" cx="175.936" cy="297.897" r="2.834"/>
<circle fill="none" stroke="#000000" stroke-width="1.4173" stroke-miterlimit="10" cx="175.936" cy="356.007" r="2.835"/>
<circle fill="none" stroke="#000000" stroke-width="1.4173" stroke-miterlimit="10" cx="140.502" cy="297.897" r="2.834"/>
<circle fill="none" stroke="#000000" stroke-width="1.4173" stroke-miterlimit="10" cx="140.502" cy="356.007" r="2.835"/>
<rect x="162.898" y="315.613" fill="none" stroke="#000000" stroke-width="1.4173" stroke-miterlimit="10" width="22.678" height="22.679"/>
<path fill="none" stroke="#000000" stroke-width="1.4173" stroke-miterlimit="10" d="M567.089,597.365l0.002,62.364
	c0,7.854-6.324,14.176-14.176,14.176v0.039l-291.965-0.001c-7.852,0-14.172-6.322-14.172-14.176l-0.002-34.02v-21.312
	c0-7.826,6.346-14.172,14.174-14.172h0.001h9.924c7.828,0,14.174-6.346,14.174-14.172v-53.858c0-7.828-6.346-14.174-14.174-14.174
	l-0.001,0.101h-9.924c-7.828,0-14.174-6.346-14.174-14.174V424.49c0-7.854,6.324-14.176,14.176-14.176v-0.039l291.965,0.001
	c7.852,0,14.172,6.323,14.172,14.176l0.002,59.53L567.089,597.365z"/>
<polygon fill="none" stroke="#000000" stroke-width="1.4173" stroke-miterlimit="10" points="231.341,460.334 231.341,448.997 
	239.278,448.997 239.278,431.988 231.341,431.988 231.341,392.304 239.278,392.304 239.278,375.295 231.341,375.295 231.341,335.61 
	239.278,335.61 239.278,318.602 231.341,318.602 231.341,278.917 239.278,278.917 239.278,261.908 231.341,261.908 231.341,222.224 
	239.278,222.224 239.278,205.215 231.341,205.215 231.341,193.877 129.294,193.877 129.294,205.215 121.356,205.215 
	121.356,222.224 129.294,222.224 129.294,261.908 121.356,261.908 121.356,278.917 129.294,278.917 129.294,318.602 
	121.356,318.602 121.356,335.61 129.294,335.61 129.294,375.295 121.356,375.295 121.356,392.304 129.294,392.304 129.294,431.988 
	121.356,431.988 121.356,448.997 129.294,448.997 129.294,460.334 "/>
<polygon fill="none" stroke="#000000" stroke-width="1.4173" stroke-miterlimit="10" points="759.237,426.173 776.246,426.173 
	776.246,434.109 787.083,434.109 787.083,537.291 776.246,537.291 776.246,544.659 759.237,544.659 759.237,537.291 
	719.552,537.291 719.552,544.659 702.544,544.659 702.544,537.291 662.858,537.291 662.858,544.659 645.851,544.659 
	645.851,537.291 606.165,537.291 606.165,544.659 589.157,544.659 589.157,537.291 580.153,537.291 580.153,434.109 
	589.157,434.109 589.157,426.173 606.165,426.173 606.165,434.109 645.851,434.109 645.851,426.173 662.858,426.173 
	662.858,434.109 702.544,434.109 702.544,426.173 719.552,426.173 719.552,434.109 759.237,434.109 "/>
<path fill="none" stroke="#000000" stroke-width="1.4173" stroke-miterlimit="10" d="M230.35,610.073v36.002h7.937v17.009h-7.937
	v10.837H127.168v-10.837H119.8v-17.009h7.368V606.39H119.8v-17.008h7.368v-39.686H119.8v-17.008h7.368v-39.686H119.8v-17.008h7.368
	v-9.004H230.35v9.004h7.937v17.008h-7.937v29.301l-8.505-0.001h-15.593l-0.001-0.101c-7.828,0-14.174,6.346-14.174,14.174v53.858
	c0,7.826,6.346,14.172,14.174,14.172h24.096L230.35,610.073z"/>
<path fill="none" stroke="#000000" stroke-width="1.4173" d="M435.438,594.55c2.348,0,4.252,1.903,4.252,4.253
	c0,2.348-1.904,4.252-4.252,4.252c-2.349,0-4.252-1.904-4.252-4.252C431.186,596.453,433.089,594.55,435.438,594.55z
	 M435.438,594.55"/>
<path fill="none" stroke="#000000" stroke-width="1.4173" d="M378.744,594.55c2.349,0,4.252,1.903,4.252,4.253
	c0,2.348-1.903,4.252-4.252,4.252c-2.349,0-4.252-1.904-4.252-4.252C374.492,596.453,376.396,594.55,378.744,594.55z
	 M378.744,594.55"/>
<path fill="none" stroke="#000000" stroke-width="1.4173" d="M378.744,537.856c2.349,0,4.252,1.903,4.252,4.253
	c0,2.348-1.903,4.252-4.252,4.252c-2.349,0-4.252-1.904-4.252-4.252C374.492,539.76,376.396,537.856,378.744,537.856z
	 M378.744,537.856"/>
<path fill="none" stroke="#000000" stroke-width="1.4173" d="M435.438,537.856c2.348,0,4.252,1.903,4.252,4.253
	c0,2.348-1.904,4.252-4.252,4.252c-2.349,0-4.252-1.904-4.252-4.252C431.186,539.76,433.089,537.856,435.438,537.856z
	 M435.438,537.856"/>
<circle fill="none" stroke="#000000" stroke-width="1.4173" stroke-miterlimit="10" cx="265.201" cy="157.507" r="8.504"/>
<circle fill="none" stroke="#000000" stroke-width="1.4173" stroke-miterlimit="10" cx="265.201" cy="214.2" r="8.504"/>
<circle fill="none" stroke="#000000" stroke-width="1.4173" stroke-miterlimit="10" cx="548.666" cy="157.507" r="8.504"/>
<circle fill="none" stroke="#000000" stroke-width="1.4173" stroke-miterlimit="10" cx="265.201" cy="384.282" r="8.504"/>
<circle fill="none" stroke="#000000" stroke-width="1.4173" stroke-miterlimit="10" cx="548.666" cy="384.282" r="8.504"/>
<circle fill="none" stroke="#000000" stroke-width="1.4173" stroke-miterlimit="10" cx="491.972" cy="384.282" r="8.504"/>
<circle fill="none" stroke="#000000" stroke-width="1.4173" stroke-miterlimit="10" cx="435.279" cy="384.282" r="8.504"/>
<circle fill="none" stroke="#000000" stroke-width="1.4173" stroke-miterlimit="10" cx="378.585" cy="384.282" r="8.504"/>
<circle fill="none" stroke="#000000" stroke-width="1.4173" stroke-miterlimit="10" cx="321.892" cy="384.282" r="8.504"/>
<circle fill="none" stroke="#000000" stroke-width="1.4173" stroke-miterlimit="10" cx="548.666" cy="327.589" r="8.504"/>
<circle fill="none" stroke="#000000" stroke-width="1.4173" stroke-miterlimit="10" cx="548.666" cy="270.896" r="8.504"/>
<circle fill="none" stroke="#000000" stroke-width="1.4173" stroke-miterlimit="10" cx="548.666" cy="214.202" r="8.504"/>
<rect x="543.705" y="177.352" fill="none" stroke="#000000" stroke-width="1.4173" stroke-miterlimit="10" width="9.921" height="17.009"/>
<rect x="543.705" y="234.045" fill="none" stroke="#000000" stroke-width="1.4173" stroke-miterlimit="10" width="9.921" height="17.009"/>
<rect x="543.705" y="290.738" fill="none" stroke="#000000" stroke-width="1.4173" stroke-miterlimit="10" width="9.921" height="17.009"/>
<rect x="543.705" y="347.432" fill="none" stroke="#000000" stroke-width="1.4173" stroke-miterlimit="10" width="9.921" height="17.009"/>
<rect x="260.238" y="347.432" fill="none" stroke="#000000" stroke-width="1.4173" stroke-miterlimit="10" width="9.921" height="17.009"/>
<rect x="260.238" y="290.738" fill="none" stroke="#000000" stroke-width="1.4173" stroke-miterlimit="10" width="9.921" height="17.009"/>
<rect x="260.238" y="234.045" fill="none" stroke="#000000" stroke-width="1.4173" stroke-miterlimit="10" width="9.921" height="17.009"/>
<rect x="260.238" y="177.352" fill="none" stroke="#000000" stroke-width="1.4173" stroke-miterlimit="10" width="9.921" height="17.009"/>
<circle fill="none" stroke="#000000" stroke-width="1.4173" stroke-miterlimit="10" cx="491.972" cy="157.509" r="8.504"/>
<circle fill="none" stroke="#000000" stroke-width="1.4173" stroke-miterlimit="10" cx="435.279" cy="157.509" r="8.504"/>
<circle fill="none" stroke="#000000" stroke-width="1.4173" stroke-miterlimit="10" cx="378.585" cy="157.509" r="8.504"/>
<circle fill="none" stroke="#000000" stroke-width="1.4173" stroke-miterlimit="10" cx="321.892" cy="157.509" r="8.504"/>
<rect x="341.736" y="152.548" fill="none" stroke="#000000" stroke-width="1.4173" stroke-miterlimit="10" width="17.009" height="9.922"/>
<rect x="398.429" y="152.548" fill="none" stroke="#000000" stroke-width="1.4173" stroke-miterlimit="10" width="17.009" height="9.922"/>
<rect x="455.123" y="152.548" fill="none" stroke="#000000" stroke-width="1.4173" stroke-miterlimit="10" width="17.009" height="9.922"/>
<rect x="511.816" y="152.548" fill="none" stroke="#000000" stroke-width="1.4173" stroke-miterlimit="10" width="17.009" height="9.922"/>
<rect x="511.816" y="379.321" fill="none" stroke="#000000" stroke-width="1.4173" stroke-miterlimit="10" width="17.009" height="9.922"/>
<rect x="455.123" y="379.321" fill="none" stroke="#000000" stroke-width="1.4173" stroke-miterlimit="10" width="17.009" height="9.922"/>
<rect x="398.429" y="379.321" fill="none" stroke="#000000" stroke-width="1.4173" stroke-miterlimit="10" width="17.009" height="9.922"/>
<rect x="341.736" y="379.321" fill="none" stroke="#000000" stroke-width="1.4173" stroke-miterlimit="10" width="17.009" height="9.922"/>
<rect x="285.042" y="379.321" fill="none" stroke="#000000" stroke-width="1.4173" stroke-miterlimit="10" width="17.009" height="9.922"/>
<rect x="285.042" y="152.548" fill="none" stroke="#000000" stroke-width="1.4173" stroke-miterlimit="10" width="17.009" height="9.922"/>
<circle fill="none" stroke="#000000" stroke-width="1.4173" stroke-miterlimit="10" cx="265.201" cy="327.589" r="8.504"/>
<circle fill="none" stroke="#000000" stroke-width="1.4173" stroke-miterlimit="10" cx="265.201" cy="270.896" r="8.504"/>
<path fill="none" stroke="#000000" stroke-width="1.4173" stroke-miterlimit="10" d="M246.775,306.897V152.36
	c0-7.854,6.324-14.176,14.176-14.176v-0.039l291.965,0.001c7.852,0,14.172,6.323,14.172,14.176l0.002,59.53l-0.002,113.383
	l0.002,62.364c0,7.854-6.324,14.176-14.176,14.176v0.039l-291.965-0.001c-7.852,0-14.172-6.322-14.172-14.176l-0.002-34.02V306.897z
	"/>
<path fill="none" stroke="#000000" stroke-width="1.4173" stroke-miterlimit="10" d="M572.916,404.626v-65.192
	c0-7.856,6.324-14.177,14.177-14.177h65.194c7.852,0,14.172,6.32,14.172,14.177v65.192c0,7.852-6.32,14.176-14.172,14.176h-65.194
	C579.24,418.802,572.916,412.478,572.916,404.626z M572.916,404.626"/>
<path fill="none" stroke="#000000" stroke-width="1.4173" d="M648.037,396.123c2.348,0,4.252,1.903,4.252,4.253
	c0,2.348-1.904,4.252-4.252,4.252c-2.349,0-4.252-1.904-4.252-4.252C643.785,398.026,645.688,396.123,648.037,396.123z
	 M648.037,396.123"/>
<path fill="none" stroke="#000000" stroke-width="1.4173" d="M591.343,396.123c2.35,0,4.252,1.903,4.252,4.253
	c0,2.348-1.902,4.252-4.252,4.252c-2.349,0-4.252-1.904-4.252-4.252C587.091,398.026,588.994,396.123,591.343,396.123z
	 M591.343,396.123"/>
<path fill="none" stroke="#000000" stroke-width="1.4173" d="M591.343,339.43c2.35,0,4.252,1.903,4.252,4.253
	c0,2.348-1.902,4.252-4.252,4.252c-2.349,0-4.252-1.904-4.252-4.252C587.091,341.333,588.994,339.43,591.343,339.43z
	 M591.343,339.43"/>
<path fill="none" stroke="#000000" stroke-width="1.4173" d="M648.037,339.43c2.348,0,4.252,1.903,4.252,4.253
	c0,2.348-1.904,4.252-4.252,4.252c-2.349,0-4.252-1.904-4.252-4.252C643.785,341.333,645.688,339.43,648.037,339.43z
	 M648.037,339.43"/>
<path fill="none" stroke="#000000" stroke-width="1.4173" stroke-miterlimit="10" d="M674.965,404.626v-65.192
	c0-7.856,6.324-14.177,14.177-14.177h65.194c7.852,0,14.172,6.32,14.172,14.177v65.192c0,7.852-6.32,14.176-14.172,14.176h-65.194
	C681.289,418.802,674.965,412.478,674.965,404.626z M674.965,404.626"/>
<path fill="none" stroke="#000000" stroke-width="1.4173" d="M750.086,396.123c2.348,0,4.252,1.903,4.252,4.253
	c0,2.348-1.904,4.252-4.252,4.252c-2.349,0-4.252-1.904-4.252-4.252C745.834,398.026,747.737,396.123,750.086,396.123z
	 M750.086,396.123"/>
<path fill="none" stroke="#000000" stroke-width="1.4173" d="M693.392,396.123c2.35,0,4.252,1.903,4.252,4.253
	c0,2.348-1.902,4.252-4.252,4.252c-2.349,0-4.252-1.904-4.252-4.252C689.14,398.026,691.043,396.123,693.392,396.123z
	 M693.392,396.123"/>
<path fill="none" stroke="#000000" stroke-width="1.4173" d="M693.392,339.43c2.35,0,4.252,1.903,4.252,4.253
	c0,2.348-1.902,4.252-4.252,4.252c-2.349,0-4.252-1.904-4.252-4.252C689.14,341.333,691.043,339.43,693.392,339.43z M693.392,339.43
	"/>
<path fill="none" stroke="#000000" stroke-width="1.4173" d="M750.086,339.43c2.348,0,4.252,1.903,4.252,4.253
	c0,2.348-1.904,4.252-4.252,4.252c-2.349,0-4.252-1.904-4.252-4.252C745.834,341.333,747.737,339.43,750.086,339.43z
	 M750.086,339.43"/>
<polygon fill="none" stroke="#000000" stroke-width="1.4173" stroke-miterlimit="10" points="610.901,387.247 602.114,372.026 
	610.901,356.806 628.477,356.806 637.264,372.026 628.477,387.247 "/>
<path fill="none" stroke="#000000" stroke-width="1.4173" stroke-miterlimit="10" d="M572.916,302.579v-65.192
	c0-7.856,6.324-14.177,14.177-14.177h65.194c7.852,0,14.172,6.32,14.172,14.177v65.192c0,7.852-6.32,14.176-14.172,14.176h-65.194
	C579.24,316.755,572.916,310.431,572.916,302.579z M572.916,302.579"/>
<path fill="none" stroke="#000000" stroke-width="1.4173" d="M648.037,294.076c2.348,0,4.252,1.903,4.252,4.253
	c0,2.348-1.904,4.252-4.252,4.252c-2.349,0-4.252-1.904-4.252-4.252C643.785,295.979,645.688,294.076,648.037,294.076z
	 M648.037,294.076"/>
<path fill="none" stroke="#000000" stroke-width="1.4173" d="M591.343,294.076c2.35,0,4.252,1.903,4.252,4.253
	c0,2.348-1.902,4.252-4.252,4.252c-2.349,0-4.252-1.904-4.252-4.252C587.091,295.979,588.994,294.076,591.343,294.076z
	 M591.343,294.076"/>
<path fill="none" stroke="#000000" stroke-width="1.4173" d="M591.343,237.383c2.35,0,4.252,1.903,4.252,4.253
	c0,2.348-1.902,4.252-4.252,4.252c-2.349,0-4.252-1.904-4.252-4.252C587.091,239.286,588.994,237.383,591.343,237.383z
	 M591.343,237.383"/>
<path fill="none" stroke="#000000" stroke-width="1.4173" d="M648.037,237.383c2.348,0,4.252,1.903,4.252,4.253
	c0,2.348-1.904,4.252-4.252,4.252c-2.349,0-4.252-1.904-4.252-4.252C643.785,239.286,645.688,237.383,648.037,237.383z
	 M648.037,237.383"/>
<polygon fill="none" stroke="#000000" stroke-width="1.4173" stroke-miterlimit="10" points="610.901,285.2 602.114,269.979 
	610.901,254.759 628.477,254.759 637.264,269.979 628.477,285.2 "/>
<circle fill="none" stroke="#000000" stroke-width="1.4173" stroke-miterlimit="10" cx="721.737" cy="372.026" r="9.212"/>
<polygon fill="none" stroke="#000000" stroke-width="1.4173" points="699.059,666.331 699.059,674.269 716.066,674.269 
	716.066,666.331 755.752,666.331 755.752,674.269 772.76,674.269 772.76,666.331 812.444,666.331 812.444,674.269 829.454,674.269 
	829.454,666.331 840.791,666.331 840.791,564.282 829.454,564.282 829.454,556.345 812.444,556.345 812.444,564.282 772.76,564.282 
	772.76,556.345 755.752,556.345 755.752,564.282 716.066,564.282 716.066,556.345 699.059,556.345 699.059,564.282 659.374,564.282 
	659.374,556.345 642.365,556.345 642.365,564.282 602.68,564.282 602.68,556.345 585.671,556.345 585.671,564.282 574.334,564.282 
	574.334,666.331 585.671,666.331 585.671,674.269 594.177,674.269 594.177,666.331 594.177,666.332 594.177,637.985 
	636.697,637.985 636.697,666.332 636.697,666.398 642.313,666.332 642.313,674.27 659.322,674.27 659.322,666.332 "/>
<polygon fill="none" stroke="#000000" stroke-width="1.4173" points="748.287,465.893 592.383,465.893 592.383,522.586 
	605.14,522.586 613.643,531.091 627.816,531.091 636.319,522.586 748.287,522.586 "/>
<path fill="none" stroke="#000000" stroke-width="1.4173" stroke-miterlimit="10" d="M1197.672,314.546v-65.192
	c0-7.856,6.324-14.177,14.177-14.177h65.194c7.852,0,14.172,6.32,14.172,14.177v65.192c0,7.852-6.32,14.176-14.172,14.176h-65.194
	C1203.996,328.722,1197.672,322.397,1197.672,314.546z M1197.672,314.546"/>
<path fill="none" stroke="#000000" stroke-width="1.5999" d="M1272.793,306.043c2.348,0,4.252,1.903,4.252,4.253
	c0,2.348-1.904,4.252-4.252,4.252c-2.349,0-4.252-1.904-4.252-4.252C1268.541,307.946,1270.444,306.043,1272.793,306.043z
	 M1272.793,306.043"/>
<path fill="none" stroke="#000000" stroke-width="1.5999" d="M1216.099,306.043c2.35,0,4.252,1.903,4.252,4.253
	c0,2.348-1.902,4.252-4.252,4.252c-2.349,0-4.252-1.904-4.252-4.252C1211.847,307.946,1213.75,306.043,1216.099,306.043z
	 M1216.099,306.043"/>
<path fill="none" stroke="#000000" stroke-width="1.5999" d="M1216.099,249.35c2.35,0,4.252,1.903,4.252,4.253
	c0,2.348-1.902,4.252-4.252,4.252c-2.349,0-4.252-1.904-4.252-4.252C1211.847,251.253,1213.75,249.35,1216.099,249.35z
	 M1216.099,249.35"/>
<path fill="none" stroke="#000000" stroke-width="1.5999" d="M1272.793,249.35c2.348,0,4.252,1.903,4.252,4.253
	c0,2.348-1.904,4.252-4.252,4.252c-2.349,0-4.252-1.904-4.252-4.252C1268.541,251.253,1270.444,249.35,1272.793,249.35z
	 M1272.793,249.35"/>
<circle fill="none" stroke="#000000" stroke-miterlimit="10" cx="1244.444" cy="281.946" r="8.503"/>
<text transform="matrix(1 0 0 1 1197.6699 449.4834)"><tspan x="0" y="0" fill="none" stroke="#000000" stroke-miterlimit="10" font-family="'Eng_HelvLine'" font-size="18">- Cut on laser cutter</tspan><tspan x="0" y="21.6" fill="none" stroke="#000000" stroke-miterlimit="10" font-family="'Eng_HelvLine'" font-size="18">- use 1/4&quot; UNC tap to tap centre hole</tspan></text>
</svg>
