  0
SECTION
  2
HEADER
  9
$ACADVER
  1
AC1018
  9
$ACADMAINTVER
 70
     0
  9
$DWGCODEPAGE
  3
ANSI_932
  9
$INSBASE
 10
0.0
 20
0.0
 30
0.0
  9
$EXTMIN
 10
1.000000000000000E+20
 20
1.000000000000000E+20
 30
1.000000000000000E+20
  9
$EXTMAX
 10
-1.000000000000000E+20
 20
-1.000000000000000E+20
 30
-1.000000000000000E+20
  9
$LIMMIN
 10
0.0
 20
0.0
  9
$LIMMAX
 10
12.0
 20
9.0
  9
$ORTHOMODE
 70
     0
  9
$REGENMODE
 70
     1
  9
$FILLMODE
 70
     1
  9
$QTEXTMODE
 70
     0
  9
$MIRRTEXT
 70
     1
  9
$LTSCALE
 40
1.0
  9
$ATTMODE
 70
     1
  9
$TEXTSIZE
 40
0.2
  9
$TRACEWID
 40
0.05
  9
$TEXTSTYLE
  7
Standard
  9
$CLAYER
  8
0
  9
$CELTYPE
  6
ByLayer
  9
$CECOLOR
 62
   256
  9
$CELTSCALE
 40
1.0
  9
$DISPSILH
 70
     0
  9
$DIMSCALE
 40
1.0
  9
$DIMASZ
 40
0.18
  9
$DIMEXO
 40
0.0625
  9
$DIMDLI
 40
0.38
  9
$DIMRND
 40
0.0
  9
$DIMDLE
 40
0.0
  9
$DIMEXE
 40
0.18
  9
$DIMTP
 40
0.0
  9
$DIMTM
 40
0.0
  9
$DIMTXT
 40
0.18
  9
$DIMCEN
 40
0.09
  9
$DIMTSZ
 40
0.0
  9
$DIMTOL
 70
     0
  9
$DIMLIM
 70
     0
  9
$DIMTIH
 70
     1
  9
$DIMTOH
 70
     1
  9
$DIMSE1
 70
     0
  9
$DIMSE2
 70
     0
  9
$DIMTAD
 70
     0
  9
$DIMZIN
 70
     0
  9
$DIMBLK
  1

  9
$DIMASO
 70
     1
  9
$DIMSHO
 70
     1
  9
$DIMPOST
  1

  9
$DIMAPOST
  1

  9
$DIMALT
 70
     0
  9
$DIMALTD
 70
     2
  9
$DIMALTF
 40
25.4
  9
$DIMLFAC
 40
1.0
  9
$DIMTOFL
 70
     0
  9
$DIMTVP
 40
0.0
  9
$DIMTIX
 70
     0
  9
$DIMSOXD
 70
     0
  9
$DIMSAH
 70
     0
  9
$DIMBLK1
  1

  9
$DIMBLK2
  1

  9
$DIMSTYLE
  2
Standard
  9
$DIMCLRD
 70
     0
  9
$DIMCLRE
 70
     0
  9
$DIMCLRT
 70
     0
  9
$DIMTFAC
 40
1.0
  9
$DIMGAP
 40
0.09
  9
$DIMJUST
 70
     0
  9
$DIMSD1
 70
     0
  9
$DIMSD2
 70
     0
  9
$DIMTOLJ
 70
     1
  9
$DIMTZIN
 70
     0
  9
$DIMALTZ
 70
     0
  9
$DIMALTTZ
 70
     0
  9
$DIMUPT
 70
     0
  9
$DIMDEC
 70
     4
  9
$DIMTDEC
 70
     4
  9
$DIMALTU
 70
     2
  9
$DIMALTTD
 70
     2
  9
$DIMTXSTY
  7
Standard
  9
$DIMAUNIT
 70
     0
  9
$DIMADEC
 70
     0
  9
$DIMALTRND
 40
0.0
  9
$DIMAZIN
 70
     0
  9
$DIMDSEP
 70
    46
  9
$DIMATFIT
 70
     3
  9
$DIMFRAC
 70
     0
  9
$DIMLDRBLK
  1

  9
$DIMLUNIT
 70
     2
  9
$DIMLWD
 70
    -2
  9
$DIMLWE
 70
    -2
  9
$DIMTMOVE
 70
     0
  9
$LUNITS
 70
     2
  9
$LUPREC
 70
     4
  9
$SKETCHINC
 40
0.1
  9
$FILLETRAD
 40
0.5
  9
$AUNITS
 70
     0
  9
$AUPREC
 70
     0
  9
$MENU
  1
.
  9
$ELEVATION
 40
0.0
  9
$PELEVATION
 40
0.0
  9
$THICKNESS
 40
0.0
  9
$LIMCHECK
 70
     0
  9
$CHAMFERA
 40
0.5
  9
$CHAMFERB
 40
0.5
  9
$CHAMFERC
 40
1.0
  9
$CHAMFERD
 40
0.0
  9
$SKPOLY
 70
     0
  9
$TDCREATE
 40
2456378.885231481
  9
$TDUCREATE
 40
2456378.885231481
  9
$TDUPDATE
 40
2456378.885231493
  9
$TDUUPDATE
 40
2456378.885231493
  9
$TDINDWG
 40
0.0000000116
  9
$TDUSRTIMER
 40
0.0000000116
  9
$USRTIMER
 70
     1
  9
$ANGBASE
 50
0.0
  9
$ANGDIR
 70
     0
  9
$PDMODE
 70
     0
  9
$PDSIZE
 40
0.0
  9
$PLINEWID
 40
0.0
  9
$SPLFRAME
 70
     0
  9
$SPLINETYPE
 70
     6
  9
$SPLINESEGS
 70
     8
  9
$HANDSEED
  5
2ED
  9
$SURFTAB1
 70
     6
  9
$SURFTAB2
 70
     6
  9
$SURFTYPE
 70
     6
  9
$SURFU
 70
     6
  9
$SURFV
 70
     6
  9
$UCSBASE
  2

  9
$UCSNAME
  2

  9
$UCSORG
 10
0.0
 20
0.0
 30
0.0
  9
$UCSXDIR
 10
1.0
 20
0.0
 30
0.0
  9
$UCSYDIR
 10
0.0
 20
1.0
 30
0.0
  9
$UCSORTHOREF
  2

  9
$UCSORTHOVIEW
 70
     0
  9
$UCSORGTOP
 10
0.0
 20
0.0
 30
0.0
  9
$UCSORGBOTTOM
 10
0.0
 20
0.0
 30
0.0
  9
$UCSORGLEFT
 10
0.0
 20
0.0
 30
0.0
  9
$UCSORGRIGHT
 10
0.0
 20
0.0
 30
0.0
  9
$UCSORGFRONT
 10
0.0
 20
0.0
 30
0.0
  9
$UCSORGBACK
 10
0.0
 20
0.0
 30
0.0
  9
$PUCSBASE
  2

  9
$PUCSNAME
  2

  9
$PUCSORG
 10
0.0
 20
0.0
 30
0.0
  9
$PUCSXDIR
 10
1.0
 20
0.0
 30
0.0
  9
$PUCSYDIR
 10
0.0
 20
1.0
 30
0.0
  9
$PUCSORTHOREF
  2

  9
$PUCSORTHOVIEW
 70
     0
  9
$PUCSORGTOP
 10
0.0
 20
0.0
 30
0.0
  9
$PUCSORGBOTTOM
 10
0.0
 20
0.0
 30
0.0
  9
$PUCSORGLEFT
 10
0.0
 20
0.0
 30
0.0
  9
$PUCSORGRIGHT
 10
0.0
 20
0.0
 30
0.0
  9
$PUCSORGFRONT
 10
0.0
 20
0.0
 30
0.0
  9
$PUCSORGBACK
 10
0.0
 20
0.0
 30
0.0
  9
$USERI1
 70
     0
  9
$USERI2
 70
     0
  9
$USERI3
 70
     0
  9
$USERI4
 70
     0
  9
$USERI5
 70
     0
  9
$USERR1
 40
0.0
  9
$USERR2
 40
0.0
  9
$USERR3
 40
0.0
  9
$USERR4
 40
0.0
  9
$USERR5
 40
0.0
  9
$WORLDVIEW
 70
     1
  9
$SHADEDGE
 70
     3
  9
$SHADEDIF
 70
    70
  9
$TILEMODE
 70
     1
  9
$MAXACTVP
 70
    64
  9
$PINSBASE
 10
0.0
 20
0.0
 30
0.0
  9
$PLIMCHECK
 70
     0
  9
$PEXTMIN
 10
1.000000000000000E+20
 20
1.000000000000000E+20
 30
1.000000000000000E+20
  9
$PEXTMAX
 10
-1.000000000000000E+20
 20
-1.000000000000000E+20
 30
-1.000000000000000E+20
  9
$PLIMMIN
 10
0.0
 20
0.0
  9
$PLIMMAX
 10
12.0
 20
9.0
  9
$UNITMODE
 70
     0
  9
$VISRETAIN
 70
     1
  9
$PLINEGEN
 70
     0
  9
$PSLTSCALE
 70
     1
  9
$TREEDEPTH
 70
  3020
  9
$CMLSTYLE
  2
Standard
  9
$CMLJUST
 70
     0
  9
$CMLSCALE
 40
1.0
  9
$PROXYGRAPHICS
 70
     1
  9
$MEASUREMENT
 70
     0
  9
$CELWEIGHT
370
    -1
  9
$ENDCAPS
280
     0
  9
$JOINSTYLE
280
     0
  9
$LWDISPLAY
290
     1
  9
$INSUNITS
 70
     1
  9
$HYPERLINKBASE
  1

  9
$STYLESHEET
  1

  9
$XEDIT
290
     1
  9
$CEPSNTYPE
380
     0
  9
$PSTYLEMODE
290
     1
  9
$FINGERPRINTGUID
  2
{66F43AC8-EA30-ABAC-22E0-9BFCE8CED120}
  9
$VERSIONGUID
  2
{FAEB1C32-E019-11D5-929B-00C0DF256EC4}
  9
$EXTNAMES
290
     1
  9
$PSVPSCALE
 40
0.0
  9
$OLESTARTUP
290
     0
  9
$SORTENTS
280
   127
  9
$INDEXCTL
280
     0
  9
$HIDETEXT
280
     1
  9
$XCLIPFRAME
290
     0
  9
$HALOGAP
280
     0
  9
$OBSCOLOR
 70
   257
  9
$OBSLTYPE
280
     0
  9
$INTERSECTIONDISPLAY
280
     0
  9
$INTERSECTIONCOLOR
 70
   257
  9
$DIMASSOC
280
     2
  9
$PROJECTNAME
  1

  0
ENDSEC
  0
SECTION
  2
CLASSES
  0
CLASS
  1
ACDBDICTIONARYWDFLT
  2
AcDbDictionaryWithDefault
  3
ObjectDBX Classes
 90
        0
 91
        3
280
     0
281
     0
  0
CLASS
  1
VISUALSTYLE
  2
AcDbVisualStyle
  3
ObjectDBX Classes
 90
     4095
 91
        3
280
     0
281
     0
  0
ENDSEC
  0
SECTION
  2
TABLES
  0
TABLE
  2
VPORT
  5
8
330
0
100
AcDbSymbolTable
 70
     1
  0
VPORT
  5
29
330
8
100
AcDbSymbolTableRecord
100
AcDbViewportTableRecord
  2
*Active
 70
     0
 10
0.0
 20
0.0
 11
1.0
 21
1.0
 12
0.0
 22
0.0
 13
0.0
 23
0.0
 14
0.5
 24
0.5
 15
0.5
 25
0.5
 16
0.0
 26
0.0
 36
1.0
 17
400.0005627797742
 27
-300.0004651485242
 37
0.0
 40
600.0009302970484
 41
1.333333141939436
 42
50.0
 43
0.0
 44
0.0
 50
0.0
 51
0.0
 71
     0
 72
   100
 73
     1
 74
     3
 75
     0
 76
     0
 77
     0
 78
     0
281
     0
 65
     1
110
0.0
120
0.0
130
0.0
111
1.0
121
0.0
131
0.0
112
0.0
122
1.0
132
0.0
 79
     0
146
0.0
  0
ENDTAB
  0
TABLE
  2
LTYPE
  5
5
330
0
100
AcDbSymbolTable
 70
     1
  0
LTYPE
  5
14
330
5
100
AcDbSymbolTableRecord
100
AcDbLinetypeTableRecord
  2
ByBlock
 70
     0
  3

 72
    65
 73
     0
 40
0.0
  0
LTYPE
  5
15
330
5
100
AcDbSymbolTableRecord
100
AcDbLinetypeTableRecord
  2
ByLayer
 70
     0
  3

 72
    65
 73
     0
 40
0.0
  0
LTYPE
  5
16
330
5
100
AcDbSymbolTableRecord
100
AcDbLinetypeTableRecord
  2
Continuous
 70
     0
  3
Solid line
 72
    65
 73
     0
 40
0.0
  0
ENDTAB
  0
TABLE
  2
LAYER
  5
2
330
0
100
AcDbSymbolTable
 70
     2
  0
LAYER
  5
10
330
2
100
AcDbSymbolTableRecord
100
AcDbLayerTableRecord
  2
0
 70
     0
 62
     7
  6
Continuous
370
    -3
390
F
  0
LAYER
  5
3B
330
2
100
AcDbSymbolTableRecord
100
AcDbLayerTableRecord
  2
Layer 1
 70
     0
 62
     7
  6
Continuous
370
    -3
390
F
  0
ENDTAB
  0
TABLE
  2
STYLE
  5
3
330
0
100
AcDbSymbolTable
 70
     1
  0
STYLE
  5
11
330
3
100
AcDbSymbolTableRecord
100
AcDbTextStyleTableRecord
  2
Standard
 70
     0
 40
0.0
 41
1.0
 50
0.0
 71
     0
 42
0.2
  3
txt
  4

  0
ENDTAB
  0
TABLE
  2
VIEW
  5
6
330
0
100
AcDbSymbolTable
 70
     0
  0
ENDTAB
  0
TABLE
  2
UCS
  5
7
330
0
100
AcDbSymbolTable
 70
     0
  0
ENDTAB
  0
TABLE
  2
APPID
  5
9
330
0
100
AcDbSymbolTable
 70
     1
  0
APPID
  5
12
330
9
100
AcDbSymbolTableRecord
100
AcDbRegAppTableRecord
  2
ACAD
 70
     0
  0
ENDTAB
  0
TABLE
  2
DIMSTYLE
  5
A
330
0
100
AcDbSymbolTable
 70
     1
100
AcDbDimStyleTable
  0
DIMSTYLE
105
27
330
A
100
AcDbSymbolTableRecord
100
AcDbDimStyleTableRecord
  2
Standard
 70
     0
340
11
  0
ENDTAB
  0
TABLE
  2
BLOCK_RECORD
  5
1
330
0
100
AcDbSymbolTable
 70
     2
  0
BLOCK_RECORD
  5
1F
330
1
100
AcDbSymbolTableRecord
100
AcDbBlockTableRecord
  2
*Model_Space
340
22
  0
BLOCK_RECORD
  5
1B
330
1
100
AcDbSymbolTableRecord
100
AcDbBlockTableRecord
  2
*Paper_Space
340
1E
  0
BLOCK_RECORD
  5
23
330
1
100
AcDbSymbolTableRecord
100
AcDbBlockTableRecord
  2
*Paper_Space0
340
26
  0
BLOCK_RECORD
  5
3C
330
1
100
AcDbSymbolTableRecord
100
AcDbBlockTableRecord
  2
block 2
340
0
102
{BLKREFS
331
3D
102
}
  0
ENDTAB
  0
ENDSEC
  0
SECTION
  2
BLOCKS
  0
BLOCK
  5
20
330
1F
100
AcDbEntity
  8
0
100
AcDbBlockBegin
  2
*Model_Space
 70
     0
 71
     0
 10
0.0
 20
0.0
 30
0.0
  3
*Model_Space
  1

  0
ENDBLK
  5
21
330
1F
100
AcDbEntity
  8
0
100
AcDbBlockEnd
  0
BLOCK
  5
1C
330
1B
100
AcDbEntity
 67
     1
  8
0
100
AcDbBlockBegin
  2
*Paper_Space
 70
     0
 71
     0
 10
0.0
 20
0.0
 30
0.0
  3
*Paper_Space
  1

  0
ENDBLK
  5
1D
330
1B
100
AcDbEntity
 67
     1
  8
0
100
AcDbBlockEnd
  0
BLOCK
  5
24
330
23
100
AcDbEntity
  8
0
100
AcDbBlockBegin
  2
*Paper_Space0
 70
     0
 71
     0
 10
0.0
 20
0.0
 30
0.0
  3
*Paper_Space0
  1

  0
ENDBLK
  5
25
330
23
100
AcDbEntity
  8
0
100
AcDbBlockEnd
  0
BLOCK
  5
3E
330
3C
100
AcDbEntity
  8
0
100
AcDbBlockBegin
  2
block 2
 70
     0
 71
     0
 10
0.0
 20
0.0
 30
0.0
  3
block 2
  1

  0
SPLINE
  5
40
330
3C
100
AcDbEntity
  8
Layer 1
 62
   179
420
  2301728
370
    35
100
AcDbSpline
210
0.0
220
0.0
230
1.0
 70
    11
 71
     3
 72
    29
 73
    25
 74
     0
 42
0.0000000001
 43
0.0000000001
 40
0.0
 40
0.0
 40
0.0
 40
0.0
 40
1.0
 40
1.0
 40
1.0
 40
2.0
 40
2.0
 40
2.0
 40
3.0
 40
3.0
 40
3.0
 40
4.0
 40
4.0
 40
4.0
 40
5.0
 40
5.0
 40
5.0
 40
6.0
 40
6.0
 40
6.0
 40
7.0
 40
7.0
 40
7.0
 40
8.0
 40
8.0
 40
8.0
 40
8.0
 10
785.0004907976735
 20
-570.0000052828473
 30
0.0
 10
785.0004907976735
 20
-578.284081886679
 30
0.0
 10
778.284966168276
 20
-584.999951025625
 30
0.0
 10
770.0005450548957
 20
-584.999951025625
 30
0.0
 10
770.0005450548957
 20
-584.999951025625
 30
0.0
 10
30.00058050465264
 20
-584.999951025625
 30
0.0
 10
30.00058050465264
 20
-584.999951025625
 30
0.0
 10
21.71633164604661
 20
-584.999951025625
 30
0.0
 10
15.00063476187484
 20
-578.284081886679
 30
0.0
 10
15.00063476187484
 20
-570.0000052828473
 30
0.0
 10
15.00063476187484
 20
-570.0000052828473
 30
0.0
 10
15.00063476187484
 20
-29.99989148555558
 30
0.0
 10
15.00063476187484
 20
-29.99989148555558
 30
0.0
 10
15.00063476187484
 20
-21.71564262694956
 30
0.0
 10
21.71633164604661
 20
-14.99994574277779
 30
0.0
 10
30.00058050465264
 20
-14.99994574277779
 30
0.0
 10
30.00058050465264
 20
-14.99994574277779
 30
0.0
 10
770.0005450548957
 20
-14.99994574277779
 30
0.0
 10
770.0005450548957
 20
-14.99994574277779
 30
0.0
 10
778.284966168276
 20
-14.99994574277779
 30
0.0
 10
785.0004907976735
 20
-21.71564262694956
 30
0.0
 10
785.0004907976735
 20
-29.99989148555558
 30
0.0
 10
785.0004907976735
 20
-29.99989148555558
 30
0.0
 10
785.0004907976735
 20
-570.0000052828473
 30
0.0
 10
785.0004907976735
 20
-570.0000052828473
 30
0.0
  0
POLYLINE
  5
41
330
3C
100
AcDbEntity
  8
Layer 1
 62
   179
420
  2301728
370
    35
100
AcDb2dPolyline
 66
     1
 10
0.0
 20
0.0
 30
0.0
  0
VERTEX
  5
42
330
41
100
AcDbEntity
  8
Layer 1
 62
   179
420
  2301728
370
    35
100
AcDbVertex
100
AcDb2dVertex
 10
785.0004907976735
 20
-554.999715030521
 30
0.0
  0
VERTEX
  5
43
330
41
100
AcDbEntity
  8
Layer 1
 62
   179
420
  2301728
370
    35
100
AcDbVertex
100
AcDb2dVertex
 10
15.00046250710058
 20
-554.999715030521
 30
0.0
  0
VERTEX
  5
44
330
41
100
AcDbEntity
  8
Layer 1
 62
   179
420
  2301728
370
    35
100
AcDbVertex
100
AcDb2dVertex
 10
15.00046250710058
 20
-524.9998235449654
 30
0.0
  0
VERTEX
  5
45
330
41
100
AcDbEntity
  8
Layer 1
 62
   179
420
  2301728
370
    35
100
AcDbVertex
100
AcDb2dVertex
 10
785.0004907976735
 20
-524.9998235449654
 30
0.0
  0
VERTEX
  5
46
330
41
100
AcDbEntity
  8
Layer 1
 62
   179
420
  2301728
370
    35
100
AcDbVertex
100
AcDb2dVertex
 10
785.0004907976735
 20
-554.999715030521
 30
0.0
  0
SEQEND
  5
47
330
41
100
AcDbEntity
  8
Layer 1
370
    35
  0
ENDBLK
  5
3F
330
3C
100
AcDbEntity
  8
0
100
AcDbBlockEnd
  0
ENDSEC
  0
SECTION
  2
ENTITIES
  0
INSERT
  5
3D
330
1F
100
AcDbEntity
  8
Layer 1
100
AcDbBlockReference
  2
block 2
 10
0.0
 20
0.0
 30
0.0
  0
MTEXT
  5
48
330
1F
100
AcDbEntity
  8
Layer 1
 62
   179
420
  2301728
100
AcDbMText
 10
24.11876898268559
 20
-542.7052027723098
 30
0.0
 40
5.037666665407251
 41
0.0
 71
     7
 72
     1
  1
\fEng_HelvLine Normal|b0|i0|c0|p34;\W1;Date: 26-03-13^I^IFile Name: BKST-01^IVersion:0.1^I^IContributor: Stuart Childs stuchilds\fMyriad Pro|b0|i0|c0|p34;@\fEng_HelvLine Normal|b0|i0|c0|p34;gmail.com^I^I
 73
     1
 44
1.0
  0
MTEXT
  5
49
330
1F
100
AcDbEntity
  8
0
100
AcDbMText
 10
0.0
 20
0.0
 30
0.0
 40
0.0
 41
0.0
 71
     1
 72
     1
  1

 73
     1
 44
1.0
  0
MTEXT
  5
4A
330
1F
100
AcDbEntity
  8
Layer 1
 62
   179
420
  2301728
100
AcDbMText
 10
24.11876898268559
 20
-573.1853405685092
 30
0.0
 40
8.635999997841001
 41
0.0
 71
     7
 72
     1
  1
\fEng_HelvLine Normal|b0|i0|c0|p34;\W1;License: Creative Commons Attribution Sharealike 3.0 Unported^I^I
 73
     1
 44
1.0
  0
MTEXT
  5
4B
330
1F
100
AcDbEntity
  8
Layer 1
 62
   179
420
  2301728
100
AcDbMText
 10
24.11859672791132
 20
-473.7547172209711
 30
0.0
 40
2.878666665947001
 41
0.0
 71
     7
 72
     1
  1
\fEng_HelvLine Normal|b0|i0|c0|p34;\W1;INFO:
 73
     1
 44
1.0
  0
MTEXT
  5
4C
330
1F
100
AcDbEntity
  8
0
100
AcDbMText
 10
0.0
 20
0.0
 30
0.0
 40
0.0
 41
0.0
 71
     1
 72
     1
  1

 73
     1
 44
1.0
  0
MTEXT
  5
4D
330
1F
100
AcDbEntity
  8
Layer 1
 62
   179
420
  2301728
100
AcDbMText
 10
24.11859672791132
 20
-483.9146483165214
 30
0.0
 40
2.878666665947001
 41
0.0
 71
     7
 72
     1
  1
\fEng_HelvLine Normal|b0|i0|c0|p34;\W1;- HINGE DESIGNED BASED ON ORIGINAL SHARED BY SNIJLABS. SEE http://www.thingiverse.com/thing:12707  AND  http://www.snijlab.nl/
 73
     1
 44
1.0
  0
MTEXT
  5
4E
330
1F
100
AcDbEntity
  8
Layer 1
 62
   179
420
  2301728
100
AcDbMText
 10
24.11859672791132
 20
-488.9947861190708
 30
0.0
 40
2.878666665947001
 41
0.0
 71
     7
 72
     1
  1
\fEng_HelvLine Normal|b0|i0|c0|p34;\W1;- BKST DESIGNED AS A BOOK / LEAFLET STAND FOR COLOURS MAY VARY - SHOP IN LEEDS, UK. SEE https://twitter.com/Colours\fMyriad Pro|b0|i0|c0|p34;_\fEng_HelvLine Normal|b0|i0|c0|p34;mayvary
 73
     1
 44
1.0
  0
MTEXT
  5
4F
330
1F
100
AcDbEntity
  8
0
100
AcDbMText
 10
0.0
 20
0.0
 30
0.0
 40
0.0
 41
0.0
 71
     1
 72
     1
  1

 73
     1
 44
1.0
  0
MTEXT
  5
50
330
1F
100
AcDbEntity
  8
0
100
AcDbMText
 10
0.0
 20
0.0
 30
0.0
 40
0.0
 41
0.0
 71
     1
 72
     1
  1

 73
     1
 44
1.0
  0
MTEXT
  5
51
330
1F
100
AcDbEntity
  8
Layer 1
 62
   179
420
  2301728
100
AcDbMText
 10
721.8415552665882
 20
-486.7751110979243
 30
0.0
 40
2.878666665947001
 41
0.0
 71
     7
 72
     1
  1
\fEng_HelvLine Normal|b0|i0|c0|p34;\W1;Scale: square below 
 73
     1
 44
1.0
  0
MTEXT
  5
52
330
1F
100
AcDbEntity
  8
Layer 1
 62
   179
420
  2301728
100
AcDbMText
 10
721.8415552665882
 20
-491.8552489004737
 30
0.0
 40
2.878666665947001
 41
0.0
 71
     7
 72
     1
  1
\fEng_HelvLine Normal|b0|i0|c0|p34;\W1;is 20mm x 20mm
 73
     1
 44
1.0
  0
POLYLINE
  5
53
330
1F
100
AcDbEntity
  8
Layer 1
 62
    30
420
 16090918
370
    35
100
AcDb2dPolyline
 66
     1
 10
0.0
 20
0.0
 30
0.0
  0
VERTEX
  5
54
330
53
100
AcDbEntity
  8
Layer 1
 62
    30
420
 16090918
370
    35
100
AcDbVertex
100
AcDb2dVertex
 10
773.472167775382
 20
-517.7696016500715
 30
0.0
  0
VERTEX
  5
55
330
53
100
AcDbEntity
  8
Layer 1
 62
    30
420
 16090918
370
    35
100
AcDbVertex
100
AcDb2dVertex
 10
753.4720104453125
 20
-517.7696016500715
 30
0.0
  0
VERTEX
  5
56
330
53
100
AcDbEntity
  8
Layer 1
 62
    30
420
 16090918
370
    35
100
AcDbVertex
100
AcDb2dVertex
 10
753.4720104453125
 20
-497.7694443200021
 30
0.0
  0
VERTEX
  5
57
330
53
100
AcDbEntity
  8
Layer 1
 62
    30
420
 16090918
370
    35
100
AcDbVertex
100
AcDb2dVertex
 10
773.472167775382
 20
-497.7694443200021
 30
0.0
  0
VERTEX
  5
58
330
53
100
AcDbEntity
  8
Layer 1
 62
    30
420
 16090918
370
    35
100
AcDbVertex
100
AcDb2dVertex
 10
773.472167775382
 20
-517.7696016500715
 30
0.0
  0
SEQEND
  5
59
330
53
100
AcDbEntity
  8
Layer 1
370
    35
  0
MTEXT
  5
5A
330
1F
100
AcDbEntity
  8
Layer 1
 62
   179
420
  2301728
100
AcDbMText
 10
24.11876898268559
 20
-418.5246689491883
 30
0.0
 40
2.878666665947001
 41
0.0
 71
     7
 72
     1
  1
\fEng_HelvLine Normal|b0|i0|c0|p34;\W1;MATERIAL: 3MM SHEET; PREFEREABLY PLY, MDF WILL WORK
 73
     1
 44
1.0
  0
MTEXT
  5
5B
330
1F
100
AcDbEntity
  8
0
100
AcDbMText
 10
0.0
 20
0.0
 30
0.0
 40
0.0
 41
0.0
 71
     1
 72
     1
  1

 73
     1
 44
1.0
  0
MTEXT
  5
5C
330
1F
100
AcDbEntity
  8
Layer 1
 62
   179
420
  2301728
100
AcDbMText
 10
24.11876898268559
 20
-428.6846000447386
 30
0.0
 40
2.878666665947001
 41
0.0
 71
     7
 72
     1
  1
\fEng_HelvLine Normal|b0|i0|c0|p34;\W1;COLOUR KEY
 73
     1
 44
1.0
  0
MTEXT
  5
5D
330
1F
100
AcDbEntity
  8
0
100
AcDbMText
 10
0.0
 20
0.0
 30
0.0
 40
0.0
 41
0.0
 71
     1
 72
     1
  1

 73
     1
 44
1.0
  0
MTEXT
  5
5E
330
1F
100
AcDbEntity
  8
Layer 1
 62
   179
420
  2301728
100
AcDbMText
 10
24.11876898268559
 20
-438.8445311402889
 30
0.0
 40
2.878666665947001
 41
0.0
 71
     7
 72
     1
  1
\fEng_HelvLine Normal|b0|i0|c0|p34;\W1;^IVECTOR CUT FIRST
 73
     1
 44
1.0
  0
MTEXT
  5
5F
330
1F
100
AcDbEntity
  8
Layer 1
 62
   179
420
  2301728
100
AcDbMText
 10
24.11876898268559
 20
-443.9246689428383
 30
0.0
 40
2.878666665947001
 41
0.0
 71
     7
 72
     1
  1
\fEng_HelvLine Normal|b0|i0|c0|p34;\W1;^I
 73
     1
 44
1.0
  0
MTEXT
  5
60
330
1F
100
AcDbEntity
  8
Layer 1
 62
   179
420
  2301728
100
AcDbMText
 10
24.11876898268559
 20
-449.0048067453877
 30
0.0
 40
2.878666665947001
 41
0.0
 71
     7
 72
     1
  1
\fEng_HelvLine Normal|b0|i0|c0|p34;\W1;^IVECTOR CUT SECOND
 73
     1
 44
1.0
  0
MTEXT
  5
61
330
1F
100
AcDbEntity
  8
0
100
AcDbMText
 10
0.0
 20
0.0
 30
0.0
 40
0.0
 41
0.0
 71
     1
 72
     1
  1

 73
     1
 44
1.0
  0
POLYLINE
  5
62
330
1F
100
AcDbEntity
  8
Layer 1
 62
    22
420
 14491686
370
    25
100
AcDb2dPolyline
 66
     1
 10
0.0
 20
0.0
 30
0.0
  0
VERTEX
  5
63
330
62
100
AcDbEntity
  8
Layer 1
 62
    22
420
 14491686
370
    25
100
AcDbVertex
100
AcDb2dVertex
 10
34.11884764772029
 20
-437.9853243262676
 30
0.0
  0
VERTEX
  5
64
330
62
100
AcDbEntity
  8
Layer 1
 62
    22
420
 14491686
370
    25
100
AcDbVertex
100
AcDb2dVertex
 10
24.11876898268559
 20
-437.9853243262676
 30
0.0
  0
SEQEND
  5
65
330
62
100
AcDbEntity
  8
Layer 1
370
    25
  0
POLYLINE
  5
66
330
1F
100
AcDbEntity
  8
Layer 1
 62
     7
420
 16777215
370
    25
100
AcDb2dPolyline
 66
     1
 10
0.0
 20
0.0
 30
0.0
  0
VERTEX
  5
67
330
66
100
AcDbEntity
  8
Layer 1
 62
     7
420
 16777215
370
    25
100
AcDbVertex
100
AcDb2dVertex
 10
34.11884764772029
 20
-447.9854029913023
 30
0.0
  0
VERTEX
  5
68
330
66
100
AcDbEntity
  8
Layer 1
 62
     7
420
 16777215
370
    25
100
AcDbVertex
100
AcDb2dVertex
 10
24.11876898268559
 20
-447.9854029913023
 30
0.0
  0
SEQEND
  5
69
330
66
100
AcDbEntity
  8
Layer 1
370
    25
  0
POLYLINE
  5
6A
330
1F
100
AcDbEntity
  8
Layer 1
 62
     7
420
 16777215
370
    25
100
AcDb2dPolyline
 66
     1
 10
0.0
 20
0.0
 30
0.0
  0
VERTEX
  5
6B
330
6A
100
AcDbEntity
  8
Layer 1
 62
     7
420
 16777215
370
    25
100
AcDbVertex
100
AcDb2dVertex
 10
80.82762449151184
 20
-324.4267089032683
 30
0.0
  0
VERTEX
  5
6C
330
6A
100
AcDbEntity
  8
Layer 1
 62
     7
420
 16777215
370
    25
100
AcDbVertex
100
AcDb2dVertex
 10
77.32740747849802
 20
-324.4267089032683
 30
0.0
  0
VERTEX
  5
6D
330
6A
100
AcDbEntity
  8
Layer 1
 62
     7
420
 16777215
370
    25
100
AcDbVertex
100
AcDb2dVertex
 10
77.32740747849802
 20
-260.0268499783961
 30
0.0
  0
VERTEX
  5
6E
330
6A
100
AcDbEntity
  8
Layer 1
 62
     7
420
 16777215
370
    25
100
AcDbVertex
100
AcDb2dVertex
 10
80.82762449151184
 20
-260.0268499783961
 30
0.0
  0
VERTEX
  5
6F
330
6A
100
AcDbEntity
  8
Layer 1
 62
     7
420
 16777215
370
    25
100
AcDbVertex
100
AcDb2dVertex
 10
80.82762449151184
 20
-324.4267089032683
 30
0.0
  0
SEQEND
  5
70
330
6A
100
AcDbEntity
  8
Layer 1
370
    25
  0
POLYLINE
  5
71
330
1F
100
AcDbEntity
  8
Layer 1
 62
    22
420
 14491686
370
    25
100
AcDb2dPolyline
 66
     1
 10
0.0
 20
0.0
 30
0.0
  0
VERTEX
  5
72
330
71
100
AcDbEntity
  8
Layer 1
 62
    22
420
 14491686
370
    25
100
AcDbVertex
100
AcDb2dVertex
 10
403.8775009841001
 20
-226.2339083635804
 30
0.0
  0
VERTEX
  5
73
330
71
100
AcDbEntity
  8
Layer 1
 62
    22
420
 14491686
370
    25
100
AcDbVertex
100
AcDb2dVertex
 10
403.8775009841001
 20
-260.2314886502199
 30
0.0
  0
SEQEND
  5
74
330
71
100
AcDbEntity
  8
Layer 1
370
    25
  0
POLYLINE
  5
75
330
1F
100
AcDbEntity
  8
Layer 1
 62
    22
420
 14491686
370
    25
100
AcDb2dPolyline
 66
     1
 10
0.0
 20
0.0
 30
0.0
  0
VERTEX
  5
76
330
75
100
AcDbEntity
  8
Layer 1
 62
    22
420
 14491686
370
    25
100
AcDbVertex
100
AcDb2dVertex
 10
411.8770127008502
 20
-226.2339083635804
 30
0.0
  0
VERTEX
  5
77
330
75
100
AcDbEntity
  8
Layer 1
 62
    22
420
 14491686
370
    25
100
AcDbVertex
100
AcDb2dVertex
 10
411.8770127008502
 20
-260.2314886502199
 30
0.0
  0
SEQEND
  5
78
330
75
100
AcDbEntity
  8
Layer 1
370
    25
  0
POLYLINE
  5
79
330
1F
100
AcDbEntity
  8
Layer 1
 62
    22
420
 14491686
370
    25
100
AcDb2dPolyline
 66
     1
 10
0.0
 20
0.0
 30
0.0
  0
VERTEX
  5
7A
330
79
100
AcDbEntity
  8
Layer 1
 62
    22
420
 14491686
370
    25
100
AcDbVertex
100
AcDb2dVertex
 10
419.8765244176003
 20
-226.2339083635804
 30
0.0
  0
VERTEX
  5
7B
330
79
100
AcDbEntity
  8
Layer 1
 62
    22
420
 14491686
370
    25
100
AcDbVertex
100
AcDb2dVertex
 10
419.8765244176003
 20
-260.2314886502199
 30
0.0
  0
SEQEND
  5
7C
330
79
100
AcDbEntity
  8
Layer 1
370
    25
  0
POLYLINE
  5
7D
330
1F
100
AcDbEntity
  8
Layer 1
 62
    22
420
 14491686
370
    25
100
AcDb2dPolyline
 66
     1
 10
0.0
 20
0.0
 30
0.0
  0
VERTEX
  5
7E
330
7D
100
AcDbEntity
  8
Layer 1
 62
    22
420
 14491686
370
    25
100
AcDbVertex
100
AcDb2dVertex
 10
427.8760361343504
 20
-226.2339083635804
 30
0.0
  0
VERTEX
  5
7F
330
7D
100
AcDbEntity
  8
Layer 1
 62
    22
420
 14491686
370
    25
100
AcDbVertex
100
AcDb2dVertex
 10
427.8760361343504
 20
-260.2314886502199
 30
0.0
  0
SEQEND
  5
80
330
7D
100
AcDbEntity
  8
Layer 1
370
    25
  0
POLYLINE
  5
81
330
1F
100
AcDbEntity
  8
Layer 1
 62
    22
420
 14491686
370
    25
100
AcDb2dPolyline
 66
     1
 10
0.0
 20
0.0
 30
0.0
  0
VERTEX
  5
82
330
81
100
AcDbEntity
  8
Layer 1
 62
    22
420
 14491686
370
    25
100
AcDbVertex
100
AcDb2dVertex
 10
435.8755478511006
 20
-226.2339083635804
 30
0.0
  0
VERTEX
  5
83
330
81
100
AcDbEntity
  8
Layer 1
 62
    22
420
 14491686
370
    25
100
AcDbVertex
100
AcDb2dVertex
 10
435.8755478511006
 20
-260.2314886502199
 30
0.0
  0
SEQEND
  5
84
330
81
100
AcDbEntity
  8
Layer 1
370
    25
  0
POLYLINE
  5
85
330
1F
100
AcDbEntity
  8
Layer 1
 62
    22
420
 14491686
370
    25
100
AcDb2dPolyline
 66
     1
 10
0.0
 20
0.0
 30
0.0
  0
VERTEX
  5
86
330
85
100
AcDbEntity
  8
Layer 1
 62
    22
420
 14491686
370
    25
100
AcDbVertex
100
AcDb2dVertex
 10
443.8750595678507
 20
-226.2339083635804
 30
0.0
  0
VERTEX
  5
87
330
85
100
AcDbEntity
  8
Layer 1
 62
    22
420
 14491686
370
    25
100
AcDbVertex
100
AcDb2dVertex
 10
443.8750595678507
 20
-260.2314886502199
 30
0.0
  0
SEQEND
  5
88
330
85
100
AcDbEntity
  8
Layer 1
370
    25
  0
POLYLINE
  5
89
330
1F
100
AcDbEntity
  8
Layer 1
 62
    22
420
 14491686
370
    25
100
AcDb2dPolyline
 66
     1
 10
0.0
 20
0.0
 30
0.0
  0
VERTEX
  5
8A
330
89
100
AcDbEntity
  8
Layer 1
 62
    22
420
 14491686
370
    25
100
AcDbVertex
100
AcDb2dVertex
 10
403.8775009841001
 20
-264.231933527692
 30
0.0
  0
VERTEX
  5
8B
330
89
100
AcDbEntity
  8
Layer 1
 62
    22
420
 14491686
370
    25
100
AcDbVertex
100
AcDb2dVertex
 10
403.8775009841001
 20
-321.2310383311506
 30
0.0
  0
SEQEND
  5
8C
330
89
100
AcDbEntity
  8
Layer 1
370
    25
  0
POLYLINE
  5
8D
330
1F
100
AcDbEntity
  8
Layer 1
 62
    22
420
 14491686
370
    25
100
AcDb2dPolyline
 66
     1
 10
0.0
 20
0.0
 30
0.0
  0
VERTEX
  5
8E
330
8D
100
AcDbEntity
  8
Layer 1
 62
    22
420
 14491686
370
    25
100
AcDbVertex
100
AcDb2dVertex
 10
411.8770127008502
 20
-264.231933527692
 30
0.0
  0
VERTEX
  5
8F
330
8D
100
AcDbEntity
  8
Layer 1
 62
    22
420
 14491686
370
    25
100
AcDbVertex
100
AcDb2dVertex
 10
411.8770127008502
 20
-321.2310383311506
 30
0.0
  0
SEQEND
  5
90
330
8D
100
AcDbEntity
  8
Layer 1
370
    25
  0
POLYLINE
  5
91
330
1F
100
AcDbEntity
  8
Layer 1
 62
    22
420
 14491686
370
    25
100
AcDb2dPolyline
 66
     1
 10
0.0
 20
0.0
 30
0.0
  0
VERTEX
  5
92
330
91
100
AcDbEntity
  8
Layer 1
 62
    22
420
 14491686
370
    25
100
AcDbVertex
100
AcDb2dVertex
 10
419.8765244176003
 20
-264.231933527692
 30
0.0
  0
VERTEX
  5
93
330
91
100
AcDbEntity
  8
Layer 1
 62
    22
420
 14491686
370
    25
100
AcDbVertex
100
AcDb2dVertex
 10
419.8765244176003
 20
-321.2310383311506
 30
0.0
  0
SEQEND
  5
94
330
91
100
AcDbEntity
  8
Layer 1
370
    25
  0
POLYLINE
  5
95
330
1F
100
AcDbEntity
  8
Layer 1
 62
    22
420
 14491686
370
    25
100
AcDb2dPolyline
 66
     1
 10
0.0
 20
0.0
 30
0.0
  0
VERTEX
  5
96
330
95
100
AcDbEntity
  8
Layer 1
 62
    22
420
 14491686
370
    25
100
AcDbVertex
100
AcDb2dVertex
 10
427.8760361343504
 20
-264.231933527692
 30
0.0
  0
VERTEX
  5
97
330
95
100
AcDbEntity
  8
Layer 1
 62
    22
420
 14491686
370
    25
100
AcDbVertex
100
AcDb2dVertex
 10
427.8760361343504
 20
-321.2310383311506
 30
0.0
  0
SEQEND
  5
98
330
95
100
AcDbEntity
  8
Layer 1
370
    25
  0
POLYLINE
  5
99
330
1F
100
AcDbEntity
  8
Layer 1
 62
    22
420
 14491686
370
    25
100
AcDb2dPolyline
 66
     1
 10
0.0
 20
0.0
 30
0.0
  0
VERTEX
  5
9A
330
99
100
AcDbEntity
  8
Layer 1
 62
    22
420
 14491686
370
    25
100
AcDbVertex
100
AcDb2dVertex
 10
435.8755478511006
 20
-264.231933527692
 30
0.0
  0
VERTEX
  5
9B
330
99
100
AcDbEntity
  8
Layer 1
 62
    22
420
 14491686
370
    25
100
AcDbVertex
100
AcDb2dVertex
 10
435.8755478511006
 20
-321.2310383311506
 30
0.0
  0
SEQEND
  5
9C
330
99
100
AcDbEntity
  8
Layer 1
370
    25
  0
POLYLINE
  5
9D
330
1F
100
AcDbEntity
  8
Layer 1
 62
    22
420
 14491686
370
    25
100
AcDb2dPolyline
 66
     1
 10
0.0
 20
0.0
 30
0.0
  0
VERTEX
  5
9E
330
9D
100
AcDbEntity
  8
Layer 1
 62
    22
420
 14491686
370
    25
100
AcDbVertex
100
AcDb2dVertex
 10
443.8750595678507
 20
-264.231933527692
 30
0.0
  0
VERTEX
  5
9F
330
9D
100
AcDbEntity
  8
Layer 1
 62
    22
420
 14491686
370
    25
100
AcDbVertex
100
AcDb2dVertex
 10
443.8750595678507
 20
-321.2310383311506
 30
0.0
  0
SEQEND
  5
A0
330
9D
100
AcDbEntity
  8
Layer 1
370
    25
  0
POLYLINE
  5
A1
330
1F
100
AcDbEntity
  8
Layer 1
 62
    22
420
 14491686
370
    25
100
AcDb2dPolyline
 66
     1
 10
0.0
 20
0.0
 30
0.0
  0
VERTEX
  5
A2
330
A1
100
AcDbEntity
  8
Layer 1
 62
    22
420
 14491686
370
    25
100
AcDbVertex
100
AcDb2dVertex
 10
403.8775009841001
 20
-325.2314832086227
 30
0.0
  0
VERTEX
  5
A3
330
A1
100
AcDbEntity
  8
Layer 1
 62
    22
420
 14491686
370
    25
100
AcDbVertex
100
AcDb2dVertex
 10
403.8775009841001
 20
-358.2320528618309
 30
0.0
  0
SEQEND
  5
A4
330
A1
100
AcDbEntity
  8
Layer 1
370
    25
  0
POLYLINE
  5
A5
330
1F
100
AcDbEntity
  8
Layer 1
 62
    22
420
 14491686
370
    25
100
AcDb2dPolyline
 66
     1
 10
0.0
 20
0.0
 30
0.0
  0
VERTEX
  5
A6
330
A5
100
AcDbEntity
  8
Layer 1
 62
    22
420
 14491686
370
    25
100
AcDbVertex
100
AcDb2dVertex
 10
411.8770127008502
 20
-325.2314832086227
 30
0.0
  0
VERTEX
  5
A7
330
A5
100
AcDbEntity
  8
Layer 1
 62
    22
420
 14491686
370
    25
100
AcDbVertex
100
AcDb2dVertex
 10
411.8770127008502
 20
-358.2320528618309
 30
0.0
  0
SEQEND
  5
A8
330
A5
100
AcDbEntity
  8
Layer 1
370
    25
  0
POLYLINE
  5
A9
330
1F
100
AcDbEntity
  8
Layer 1
 62
    22
420
 14491686
370
    25
100
AcDb2dPolyline
 66
     1
 10
0.0
 20
0.0
 30
0.0
  0
VERTEX
  5
AA
330
A9
100
AcDbEntity
  8
Layer 1
 62
    22
420
 14491686
370
    25
100
AcDbVertex
100
AcDb2dVertex
 10
419.8765244176003
 20
-325.2314832086227
 30
0.0
  0
VERTEX
  5
AB
330
A9
100
AcDbEntity
  8
Layer 1
 62
    22
420
 14491686
370
    25
100
AcDbVertex
100
AcDb2dVertex
 10
419.8765244176003
 20
-358.2320528618309
 30
0.0
  0
SEQEND
  5
AC
330
A9
100
AcDbEntity
  8
Layer 1
370
    25
  0
POLYLINE
  5
AD
330
1F
100
AcDbEntity
  8
Layer 1
 62
    22
420
 14491686
370
    25
100
AcDb2dPolyline
 66
     1
 10
0.0
 20
0.0
 30
0.0
  0
VERTEX
  5
AE
330
AD
100
AcDbEntity
  8
Layer 1
 62
    22
420
 14491686
370
    25
100
AcDbVertex
100
AcDb2dVertex
 10
427.8760361343504
 20
-325.2314832086227
 30
0.0
  0
VERTEX
  5
AF
330
AD
100
AcDbEntity
  8
Layer 1
 62
    22
420
 14491686
370
    25
100
AcDbVertex
100
AcDb2dVertex
 10
427.8760361343504
 20
-358.2320528618309
 30
0.0
  0
SEQEND
  5
B0
330
AD
100
AcDbEntity
  8
Layer 1
370
    25
  0
POLYLINE
  5
B1
330
1F
100
AcDbEntity
  8
Layer 1
 62
    22
420
 14491686
370
    25
100
AcDb2dPolyline
 66
     1
 10
0.0
 20
0.0
 30
0.0
  0
VERTEX
  5
B2
330
B1
100
AcDbEntity
  8
Layer 1
 62
    22
420
 14491686
370
    25
100
AcDbVertex
100
AcDb2dVertex
 10
435.8755478511006
 20
-325.2314832086227
 30
0.0
  0
VERTEX
  5
B3
330
B1
100
AcDbEntity
  8
Layer 1
 62
    22
420
 14491686
370
    25
100
AcDbVertex
100
AcDb2dVertex
 10
435.8755478511006
 20
-358.2320528618309
 30
0.0
  0
SEQEND
  5
B4
330
B1
100
AcDbEntity
  8
Layer 1
370
    25
  0
POLYLINE
  5
B5
330
1F
100
AcDbEntity
  8
Layer 1
 62
    22
420
 14491686
370
    25
100
AcDb2dPolyline
 66
     1
 10
0.0
 20
0.0
 30
0.0
  0
VERTEX
  5
B6
330
B5
100
AcDbEntity
  8
Layer 1
 62
    22
420
 14491686
370
    25
100
AcDbVertex
100
AcDb2dVertex
 10
443.8750595678507
 20
-325.2314832086227
 30
0.0
  0
VERTEX
  5
B7
330
B5
100
AcDbEntity
  8
Layer 1
 62
    22
420
 14491686
370
    25
100
AcDbVertex
100
AcDb2dVertex
 10
443.8750595678507
 20
-358.2320528618309
 30
0.0
  0
SEQEND
  5
B8
330
B5
100
AcDbEntity
  8
Layer 1
370
    25
  0
POLYLINE
  5
B9
330
1F
100
AcDbEntity
  8
Layer 1
 62
    22
420
 14491686
370
    25
100
AcDb2dPolyline
 66
     1
 10
0.0
 20
0.0
 30
0.0
  0
VERTEX
  5
BA
330
B9
100
AcDbEntity
  8
Layer 1
 62
    22
420
 14491686
370
    25
100
AcDbVertex
100
AcDb2dVertex
 10
407.8772568424752
 20
-234.7308918684006
 30
0.0
  0
VERTEX
  5
BB
330
B9
100
AcDbEntity
  8
Layer 1
 62
    22
420
 14491686
370
    25
100
AcDbVertex
100
AcDb2dVertex
 10
407.8772568424752
 20
-288.7306965424007
 30
0.0
  0
SEQEND
  5
BC
330
B9
100
AcDbEntity
  8
Layer 1
370
    25
  0
POLYLINE
  5
BD
330
1F
100
AcDbEntity
  8
Layer 1
 62
    22
420
 14491686
370
    25
100
AcDb2dPolyline
 66
     1
 10
0.0
 20
0.0
 30
0.0
  0
VERTEX
  5
BE
330
BD
100
AcDbEntity
  8
Layer 1
 62
    22
420
 14491686
370
    25
100
AcDbVertex
100
AcDb2dVertex
 10
415.8767685592253
 20
-234.7308918684006
 30
0.0
  0
VERTEX
  5
BF
330
BD
100
AcDbEntity
  8
Layer 1
 62
    22
420
 14491686
370
    25
100
AcDbVertex
100
AcDb2dVertex
 10
415.8767685592253
 20
-288.7306965424007
 30
0.0
  0
SEQEND
  5
C0
330
BD
100
AcDbEntity
  8
Layer 1
370
    25
  0
POLYLINE
  5
C1
330
1F
100
AcDbEntity
  8
Layer 1
 62
    22
420
 14491686
370
    25
100
AcDb2dPolyline
 66
     1
 10
0.0
 20
0.0
 30
0.0
  0
VERTEX
  5
C2
330
C1
100
AcDbEntity
  8
Layer 1
 62
    22
420
 14491686
370
    25
100
AcDbVertex
100
AcDb2dVertex
 10
423.8762802759754
 20
-234.7308918684006
 30
0.0
  0
VERTEX
  5
C3
330
C1
100
AcDbEntity
  8
Layer 1
 62
    22
420
 14491686
370
    25
100
AcDbVertex
100
AcDb2dVertex
 10
423.8762802759754
 20
-288.7306965424007
 30
0.0
  0
SEQEND
  5
C4
330
C1
100
AcDbEntity
  8
Layer 1
370
    25
  0
POLYLINE
  5
C5
330
1F
100
AcDbEntity
  8
Layer 1
 62
    22
420
 14491686
370
    25
100
AcDb2dPolyline
 66
     1
 10
0.0
 20
0.0
 30
0.0
  0
VERTEX
  5
C6
330
C5
100
AcDbEntity
  8
Layer 1
 62
    22
420
 14491686
370
    25
100
AcDbVertex
100
AcDb2dVertex
 10
431.8757919927255
 20
-234.7308918684006
 30
0.0
  0
VERTEX
  5
C7
330
C5
100
AcDbEntity
  8
Layer 1
 62
    22
420
 14491686
370
    25
100
AcDbVertex
100
AcDb2dVertex
 10
431.8757919927255
 20
-288.7306965424007
 30
0.0
  0
SEQEND
  5
C8
330
C5
100
AcDbEntity
  8
Layer 1
370
    25
  0
POLYLINE
  5
C9
330
1F
100
AcDbEntity
  8
Layer 1
 62
    22
420
 14491686
370
    25
100
AcDb2dPolyline
 66
     1
 10
0.0
 20
0.0
 30
0.0
  0
VERTEX
  5
CA
330
C9
100
AcDbEntity
  8
Layer 1
 62
    22
420
 14491686
370
    25
100
AcDbVertex
100
AcDb2dVertex
 10
439.8753037094756
 20
-234.7308918684006
 30
0.0
  0
VERTEX
  5
CB
330
C9
100
AcDbEntity
  8
Layer 1
 62
    22
420
 14491686
370
    25
100
AcDbVertex
100
AcDb2dVertex
 10
439.8753037094756
 20
-288.7306965424007
 30
0.0
  0
SEQEND
  5
CC
330
C9
100
AcDbEntity
  8
Layer 1
370
    25
  0
POLYLINE
  5
CD
330
1F
100
AcDbEntity
  8
Layer 1
 62
    22
420
 14491686
370
    25
100
AcDb2dPolyline
 66
     1
 10
0.0
 20
0.0
 30
0.0
  0
VERTEX
  5
CE
330
CD
100
AcDbEntity
  8
Layer 1
 62
    22
420
 14491686
370
    25
100
AcDbVertex
100
AcDb2dVertex
 10
407.8772568424752
 20
-292.7311414198728
 30
0.0
  0
VERTEX
  5
CF
330
CD
100
AcDbEntity
  8
Layer 1
 62
    22
420
 14491686
370
    25
100
AcDbVertex
100
AcDb2dVertex
 10
407.8772568424752
 20
-349.7302462233313
 30
0.0
  0
SEQEND
  5
D0
330
CD
100
AcDbEntity
  8
Layer 1
370
    25
  0
POLYLINE
  5
D1
330
1F
100
AcDbEntity
  8
Layer 1
 62
    22
420
 14491686
370
    25
100
AcDb2dPolyline
 66
     1
 10
0.0
 20
0.0
 30
0.0
  0
VERTEX
  5
D2
330
D1
100
AcDbEntity
  8
Layer 1
 62
    22
420
 14491686
370
    25
100
AcDbVertex
100
AcDb2dVertex
 10
415.8767685592253
 20
-292.7311414198728
 30
0.0
  0
VERTEX
  5
D3
330
D1
100
AcDbEntity
  8
Layer 1
 62
    22
420
 14491686
370
    25
100
AcDbVertex
100
AcDb2dVertex
 10
415.8767685592253
 20
-349.7302462233313
 30
0.0
  0
SEQEND
  5
D4
330
D1
100
AcDbEntity
  8
Layer 1
370
    25
  0
POLYLINE
  5
D5
330
1F
100
AcDbEntity
  8
Layer 1
 62
    22
420
 14491686
370
    25
100
AcDb2dPolyline
 66
     1
 10
0.0
 20
0.0
 30
0.0
  0
VERTEX
  5
D6
330
D5
100
AcDbEntity
  8
Layer 1
 62
    22
420
 14491686
370
    25
100
AcDbVertex
100
AcDb2dVertex
 10
423.8762802759754
 20
-292.7311414198728
 30
0.0
  0
VERTEX
  5
D7
330
D5
100
AcDbEntity
  8
Layer 1
 62
    22
420
 14491686
370
    25
100
AcDbVertex
100
AcDb2dVertex
 10
423.8762802759754
 20
-349.7302462233313
 30
0.0
  0
SEQEND
  5
D8
330
D5
100
AcDbEntity
  8
Layer 1
370
    25
  0
POLYLINE
  5
D9
330
1F
100
AcDbEntity
  8
Layer 1
 62
    22
420
 14491686
370
    25
100
AcDb2dPolyline
 66
     1
 10
0.0
 20
0.0
 30
0.0
  0
VERTEX
  5
DA
330
D9
100
AcDbEntity
  8
Layer 1
 62
    22
420
 14491686
370
    25
100
AcDbVertex
100
AcDb2dVertex
 10
431.8757919927255
 20
-292.7311414198728
 30
0.0
  0
VERTEX
  5
DB
330
D9
100
AcDbEntity
  8
Layer 1
 62
    22
420
 14491686
370
    25
100
AcDbVertex
100
AcDb2dVertex
 10
431.8757919927255
 20
-349.7302462233313
 30
0.0
  0
SEQEND
  5
DC
330
D9
100
AcDbEntity
  8
Layer 1
370
    25
  0
POLYLINE
  5
DD
330
1F
100
AcDbEntity
  8
Layer 1
 62
    22
420
 14491686
370
    25
100
AcDb2dPolyline
 66
     1
 10
0.0
 20
0.0
 30
0.0
  0
VERTEX
  5
DE
330
DD
100
AcDbEntity
  8
Layer 1
 62
    22
420
 14491686
370
    25
100
AcDbVertex
100
AcDb2dVertex
 10
439.8753037094756
 20
-292.7311414198728
 30
0.0
  0
VERTEX
  5
DF
330
DD
100
AcDbEntity
  8
Layer 1
 62
    22
420
 14491686
370
    25
100
AcDbVertex
100
AcDb2dVertex
 10
439.8753037094756
 20
-349.7302462233313
 30
0.0
  0
SEQEND
  5
E0
330
DD
100
AcDbEntity
  8
Layer 1
370
    25
  0
POLYLINE
  5
E1
330
1F
100
AcDbEntity
  8
Layer 1
 62
    22
420
 14491686
370
    25
100
AcDb2dPolyline
 66
     1
 10
0.0
 20
0.0
 30
0.0
  0
VERTEX
  5
E2
330
E1
100
AcDbEntity
  8
Layer 1
 62
    22
420
 14491686
370
    25
100
AcDbVertex
100
AcDb2dVertex
 10
451.8759493227949
 20
-226.2339083635804
 30
0.0
  0
VERTEX
  5
E3
330
E1
100
AcDbEntity
  8
Layer 1
 62
    22
420
 14491686
370
    25
100
AcDbVertex
100
AcDb2dVertex
 10
451.8759493227949
 20
-260.2314886502199
 30
0.0
  0
SEQEND
  5
E4
330
E1
100
AcDbEntity
  8
Layer 1
370
    25
  0
POLYLINE
  5
E5
330
1F
100
AcDbEntity
  8
Layer 1
 62
    22
420
 14491686
370
    25
100
AcDb2dPolyline
 66
     1
 10
0.0
 20
0.0
 30
0.0
  0
VERTEX
  5
E6
330
E5
100
AcDbEntity
  8
Layer 1
 62
    22
420
 14491686
370
    25
100
AcDbVertex
100
AcDb2dVertex
 10
451.8759493227949
 20
-264.231933527692
 30
0.0
  0
VERTEX
  5
E7
330
E5
100
AcDbEntity
  8
Layer 1
 62
    22
420
 14491686
370
    25
100
AcDbVertex
100
AcDb2dVertex
 10
451.8759493227949
 20
-321.2310383311506
 30
0.0
  0
SEQEND
  5
E8
330
E5
100
AcDbEntity
  8
Layer 1
370
    25
  0
POLYLINE
  5
E9
330
1F
100
AcDbEntity
  8
Layer 1
 62
    22
420
 14491686
370
    25
100
AcDb2dPolyline
 66
     1
 10
0.0
 20
0.0
 30
0.0
  0
VERTEX
  5
EA
330
E9
100
AcDbEntity
  8
Layer 1
 62
    22
420
 14491686
370
    25
100
AcDbVertex
100
AcDb2dVertex
 10
451.8759493227949
 20
-325.2314832086227
 30
0.0
  0
VERTEX
  5
EB
330
E9
100
AcDbEntity
  8
Layer 1
 62
    22
420
 14491686
370
    25
100
AcDbVertex
100
AcDb2dVertex
 10
451.8759493227949
 20
-358.2320528618309
 30
0.0
  0
SEQEND
  5
EC
330
E9
100
AcDbEntity
  8
Layer 1
370
    25
  0
POLYLINE
  5
ED
330
1F
100
AcDbEntity
  8
Layer 1
 62
    22
420
 14491686
370
    25
100
AcDb2dPolyline
 66
     1
 10
0.0
 20
0.0
 30
0.0
  0
VERTEX
  5
EE
330
ED
100
AcDbEntity
  8
Layer 1
 62
    22
420
 14491686
370
    25
100
AcDbVertex
100
AcDb2dVertex
 10
447.8761934644199
 20
-234.7308918684006
 30
0.0
  0
VERTEX
  5
EF
330
ED
100
AcDbEntity
  8
Layer 1
 62
    22
420
 14491686
370
    25
100
AcDbVertex
100
AcDb2dVertex
 10
447.8761934644199
 20
-288.7306965424007
 30
0.0
  0
SEQEND
  5
F0
330
ED
100
AcDbEntity
  8
Layer 1
370
    25
  0
POLYLINE
  5
F1
330
1F
100
AcDbEntity
  8
Layer 1
 62
    22
420
 14491686
370
    25
100
AcDb2dPolyline
 66
     1
 10
0.0
 20
0.0
 30
0.0
  0
VERTEX
  5
F2
330
F1
100
AcDbEntity
  8
Layer 1
 62
    22
420
 14491686
370
    25
100
AcDbVertex
100
AcDb2dVertex
 10
447.8761934644199
 20
-292.7311414198728
 30
0.0
  0
VERTEX
  5
F3
330
F1
100
AcDbEntity
  8
Layer 1
 62
    22
420
 14491686
370
    25
100
AcDbVertex
100
AcDb2dVertex
 10
447.8761934644199
 20
-349.7302462233313
 30
0.0
  0
SEQEND
  5
F4
330
F1
100
AcDbEntity
  8
Layer 1
370
    25
  0
POLYLINE
  5
F5
330
1F
100
AcDbEntity
  8
Layer 1
 62
    22
420
 14491686
370
    25
100
AcDb2dPolyline
 66
     1
 10
0.0
 20
0.0
 30
0.0
  0
VERTEX
  5
F6
330
F5
100
AcDbEntity
  8
Layer 1
 62
    22
420
 14491686
370
    25
100
AcDbVertex
100
AcDb2dVertex
 10
224.8760239780692
 20
-226.2339083635804
 30
0.0
  0
VERTEX
  5
F7
330
F5
100
AcDbEntity
  8
Layer 1
 62
    22
420
 14491686
370
    25
100
AcDbVertex
100
AcDb2dVertex
 10
224.8760239780692
 20
-260.2314886502199
 30
0.0
  0
SEQEND
  5
F8
330
F5
100
AcDbEntity
  8
Layer 1
370
    25
  0
POLYLINE
  5
F9
330
1F
100
AcDbEntity
  8
Layer 1
 62
    22
420
 14491686
370
    25
100
AcDb2dPolyline
 66
     1
 10
0.0
 20
0.0
 30
0.0
  0
VERTEX
  5
FA
330
F9
100
AcDbEntity
  8
Layer 1
 62
    22
420
 14491686
370
    25
100
AcDbVertex
100
AcDb2dVertex
 10
232.8755356948193
 20
-226.2339083635804
 30
0.0
  0
VERTEX
  5
FB
330
F9
100
AcDbEntity
  8
Layer 1
 62
    22
420
 14491686
370
    25
100
AcDbVertex
100
AcDb2dVertex
 10
232.8755356948193
 20
-260.2314886502199
 30
0.0
  0
SEQEND
  5
FC
330
F9
100
AcDbEntity
  8
Layer 1
370
    25
  0
POLYLINE
  5
FD
330
1F
100
AcDbEntity
  8
Layer 1
 62
    22
420
 14491686
370
    25
100
AcDb2dPolyline
 66
     1
 10
0.0
 20
0.0
 30
0.0
  0
VERTEX
  5
FE
330
FD
100
AcDbEntity
  8
Layer 1
 62
    22
420
 14491686
370
    25
100
AcDbVertex
100
AcDb2dVertex
 10
240.8750474115695
 20
-226.2339083635804
 30
0.0
  0
VERTEX
  5
FF
330
FD
100
AcDbEntity
  8
Layer 1
 62
    22
420
 14491686
370
    25
100
AcDbVertex
100
AcDb2dVertex
 10
240.8750474115695
 20
-260.2314886502199
 30
0.0
  0
SEQEND
  5
100
330
FD
100
AcDbEntity
  8
Layer 1
370
    25
  0
POLYLINE
  5
101
330
1F
100
AcDbEntity
  8
Layer 1
 62
    22
420
 14491686
370
    25
100
AcDb2dPolyline
 66
     1
 10
0.0
 20
0.0
 30
0.0
  0
VERTEX
  5
102
330
101
100
AcDbEntity
  8
Layer 1
 62
    22
420
 14491686
370
    25
100
AcDbVertex
100
AcDb2dVertex
 10
248.8745591283196
 20
-226.2339083635804
 30
0.0
  0
VERTEX
  5
103
330
101
100
AcDbEntity
  8
Layer 1
 62
    22
420
 14491686
370
    25
100
AcDbVertex
100
AcDb2dVertex
 10
248.8745591283196
 20
-260.2314886502199
 30
0.0
  0
SEQEND
  5
104
330
101
100
AcDbEntity
  8
Layer 1
370
    25
  0
POLYLINE
  5
105
330
1F
100
AcDbEntity
  8
Layer 1
 62
    22
420
 14491686
370
    25
100
AcDb2dPolyline
 66
     1
 10
0.0
 20
0.0
 30
0.0
  0
VERTEX
  5
106
330
105
100
AcDbEntity
  8
Layer 1
 62
    22
420
 14491686
370
    25
100
AcDbVertex
100
AcDb2dVertex
 10
256.8740708450697
 20
-226.2339083635804
 30
0.0
  0
VERTEX
  5
107
330
105
100
AcDbEntity
  8
Layer 1
 62
    22
420
 14491686
370
    25
100
AcDbVertex
100
AcDb2dVertex
 10
256.8740708450697
 20
-260.2314886502199
 30
0.0
  0
SEQEND
  5
108
330
105
100
AcDbEntity
  8
Layer 1
370
    25
  0
POLYLINE
  5
109
330
1F
100
AcDbEntity
  8
Layer 1
 62
    22
420
 14491686
370
    25
100
AcDb2dPolyline
 66
     1
 10
0.0
 20
0.0
 30
0.0
  0
VERTEX
  5
10A
330
109
100
AcDbEntity
  8
Layer 1
 62
    22
420
 14491686
370
    25
100
AcDbVertex
100
AcDb2dVertex
 10
264.8735825618198
 20
-226.2339083635804
 30
0.0
  0
VERTEX
  5
10B
330
109
100
AcDbEntity
  8
Layer 1
 62
    22
420
 14491686
370
    25
100
AcDbVertex
100
AcDb2dVertex
 10
264.8735825618198
 20
-260.2314886502199
 30
0.0
  0
SEQEND
  5
10C
330
109
100
AcDbEntity
  8
Layer 1
370
    25
  0
POLYLINE
  5
10D
330
1F
100
AcDbEntity
  8
Layer 1
 62
    22
420
 14491686
370
    25
100
AcDb2dPolyline
 66
     1
 10
0.0
 20
0.0
 30
0.0
  0
VERTEX
  5
10E
330
10D
100
AcDbEntity
  8
Layer 1
 62
    22
420
 14491686
370
    25
100
AcDbVertex
100
AcDb2dVertex
 10
224.8760239780692
 20
-264.231933527692
 30
0.0
  0
VERTEX
  5
10F
330
10D
100
AcDbEntity
  8
Layer 1
 62
    22
420
 14491686
370
    25
100
AcDbVertex
100
AcDb2dVertex
 10
224.8760239780692
 20
-321.2310383311506
 30
0.0
  0
SEQEND
  5
110
330
10D
100
AcDbEntity
  8
Layer 1
370
    25
  0
POLYLINE
  5
111
330
1F
100
AcDbEntity
  8
Layer 1
 62
    22
420
 14491686
370
    25
100
AcDb2dPolyline
 66
     1
 10
0.0
 20
0.0
 30
0.0
  0
VERTEX
  5
112
330
111
100
AcDbEntity
  8
Layer 1
 62
    22
420
 14491686
370
    25
100
AcDbVertex
100
AcDb2dVertex
 10
232.8755356948193
 20
-264.231933527692
 30
0.0
  0
VERTEX
  5
113
330
111
100
AcDbEntity
  8
Layer 1
 62
    22
420
 14491686
370
    25
100
AcDbVertex
100
AcDb2dVertex
 10
232.8755356948193
 20
-321.2310383311506
 30
0.0
  0
SEQEND
  5
114
330
111
100
AcDbEntity
  8
Layer 1
370
    25
  0
POLYLINE
  5
115
330
1F
100
AcDbEntity
  8
Layer 1
 62
    22
420
 14491686
370
    25
100
AcDb2dPolyline
 66
     1
 10
0.0
 20
0.0
 30
0.0
  0
VERTEX
  5
116
330
115
100
AcDbEntity
  8
Layer 1
 62
    22
420
 14491686
370
    25
100
AcDbVertex
100
AcDb2dVertex
 10
240.8750474115695
 20
-264.231933527692
 30
0.0
  0
VERTEX
  5
117
330
115
100
AcDbEntity
  8
Layer 1
 62
    22
420
 14491686
370
    25
100
AcDbVertex
100
AcDb2dVertex
 10
240.8750474115695
 20
-321.2310383311506
 30
0.0
  0
SEQEND
  5
118
330
115
100
AcDbEntity
  8
Layer 1
370
    25
  0
POLYLINE
  5
119
330
1F
100
AcDbEntity
  8
Layer 1
 62
    22
420
 14491686
370
    25
100
AcDb2dPolyline
 66
     1
 10
0.0
 20
0.0
 30
0.0
  0
VERTEX
  5
11A
330
119
100
AcDbEntity
  8
Layer 1
 62
    22
420
 14491686
370
    25
100
AcDbVertex
100
AcDb2dVertex
 10
248.8745591283196
 20
-264.231933527692
 30
0.0
  0
VERTEX
  5
11B
330
119
100
AcDbEntity
  8
Layer 1
 62
    22
420
 14491686
370
    25
100
AcDbVertex
100
AcDb2dVertex
 10
248.8745591283196
 20
-321.2310383311506
 30
0.0
  0
SEQEND
  5
11C
330
119
100
AcDbEntity
  8
Layer 1
370
    25
  0
POLYLINE
  5
11D
330
1F
100
AcDbEntity
  8
Layer 1
 62
    22
420
 14491686
370
    25
100
AcDb2dPolyline
 66
     1
 10
0.0
 20
0.0
 30
0.0
  0
VERTEX
  5
11E
330
11D
100
AcDbEntity
  8
Layer 1
 62
    22
420
 14491686
370
    25
100
AcDbVertex
100
AcDb2dVertex
 10
256.8740708450697
 20
-264.231933527692
 30
0.0
  0
VERTEX
  5
11F
330
11D
100
AcDbEntity
  8
Layer 1
 62
    22
420
 14491686
370
    25
100
AcDbVertex
100
AcDb2dVertex
 10
256.8740708450697
 20
-321.2310383311506
 30
0.0
  0
SEQEND
  5
120
330
11D
100
AcDbEntity
  8
Layer 1
370
    25
  0
POLYLINE
  5
121
330
1F
100
AcDbEntity
  8
Layer 1
 62
    22
420
 14491686
370
    25
100
AcDb2dPolyline
 66
     1
 10
0.0
 20
0.0
 30
0.0
  0
VERTEX
  5
122
330
121
100
AcDbEntity
  8
Layer 1
 62
    22
420
 14491686
370
    25
100
AcDbVertex
100
AcDb2dVertex
 10
264.8735825618198
 20
-264.231933527692
 30
0.0
  0
VERTEX
  5
123
330
121
100
AcDbEntity
  8
Layer 1
 62
    22
420
 14491686
370
    25
100
AcDbVertex
100
AcDb2dVertex
 10
264.8735825618198
 20
-321.2310383311506
 30
0.0
  0
SEQEND
  5
124
330
121
100
AcDbEntity
  8
Layer 1
370
    25
  0
POLYLINE
  5
125
330
1F
100
AcDbEntity
  8
Layer 1
 62
    22
420
 14491686
370
    25
100
AcDb2dPolyline
 66
     1
 10
0.0
 20
0.0
 30
0.0
  0
VERTEX
  5
126
330
125
100
AcDbEntity
  8
Layer 1
 62
    22
420
 14491686
370
    25
100
AcDbVertex
100
AcDb2dVertex
 10
224.8760239780692
 20
-325.2314832086227
 30
0.0
  0
VERTEX
  5
127
330
125
100
AcDbEntity
  8
Layer 1
 62
    22
420
 14491686
370
    25
100
AcDbVertex
100
AcDb2dVertex
 10
224.8760239780692
 20
-358.2320528618309
 30
0.0
  0
SEQEND
  5
128
330
125
100
AcDbEntity
  8
Layer 1
370
    25
  0
POLYLINE
  5
129
330
1F
100
AcDbEntity
  8
Layer 1
 62
    22
420
 14491686
370
    25
100
AcDb2dPolyline
 66
     1
 10
0.0
 20
0.0
 30
0.0
  0
VERTEX
  5
12A
330
129
100
AcDbEntity
  8
Layer 1
 62
    22
420
 14491686
370
    25
100
AcDbVertex
100
AcDb2dVertex
 10
232.8755356948193
 20
-325.2314832086227
 30
0.0
  0
VERTEX
  5
12B
330
129
100
AcDbEntity
  8
Layer 1
 62
    22
420
 14491686
370
    25
100
AcDbVertex
100
AcDb2dVertex
 10
232.8755356948193
 20
-358.2320528618309
 30
0.0
  0
SEQEND
  5
12C
330
129
100
AcDbEntity
  8
Layer 1
370
    25
  0
POLYLINE
  5
12D
330
1F
100
AcDbEntity
  8
Layer 1
 62
    22
420
 14491686
370
    25
100
AcDb2dPolyline
 66
     1
 10
0.0
 20
0.0
 30
0.0
  0
VERTEX
  5
12E
330
12D
100
AcDbEntity
  8
Layer 1
 62
    22
420
 14491686
370
    25
100
AcDbVertex
100
AcDb2dVertex
 10
240.8750474115695
 20
-325.2314832086227
 30
0.0
  0
VERTEX
  5
12F
330
12D
100
AcDbEntity
  8
Layer 1
 62
    22
420
 14491686
370
    25
100
AcDbVertex
100
AcDb2dVertex
 10
240.8750474115695
 20
-358.2320528618309
 30
0.0
  0
SEQEND
  5
130
330
12D
100
AcDbEntity
  8
Layer 1
370
    25
  0
POLYLINE
  5
131
330
1F
100
AcDbEntity
  8
Layer 1
 62
    22
420
 14491686
370
    25
100
AcDb2dPolyline
 66
     1
 10
0.0
 20
0.0
 30
0.0
  0
VERTEX
  5
132
330
131
100
AcDbEntity
  8
Layer 1
 62
    22
420
 14491686
370
    25
100
AcDbVertex
100
AcDb2dVertex
 10
248.8745591283196
 20
-325.2314832086227
 30
0.0
  0
VERTEX
  5
133
330
131
100
AcDbEntity
  8
Layer 1
 62
    22
420
 14491686
370
    25
100
AcDbVertex
100
AcDb2dVertex
 10
248.8745591283196
 20
-358.2320528618309
 30
0.0
  0
SEQEND
  5
134
330
131
100
AcDbEntity
  8
Layer 1
370
    25
  0
POLYLINE
  5
135
330
1F
100
AcDbEntity
  8
Layer 1
 62
    22
420
 14491686
370
    25
100
AcDb2dPolyline
 66
     1
 10
0.0
 20
0.0
 30
0.0
  0
VERTEX
  5
136
330
135
100
AcDbEntity
  8
Layer 1
 62
    22
420
 14491686
370
    25
100
AcDbVertex
100
AcDb2dVertex
 10
256.8740708450697
 20
-325.2314832086227
 30
0.0
  0
VERTEX
  5
137
330
135
100
AcDbEntity
  8
Layer 1
 62
    22
420
 14491686
370
    25
100
AcDbVertex
100
AcDb2dVertex
 10
256.8740708450697
 20
-358.2320528618309
 30
0.0
  0
SEQEND
  5
138
330
135
100
AcDbEntity
  8
Layer 1
370
    25
  0
POLYLINE
  5
139
330
1F
100
AcDbEntity
  8
Layer 1
 62
    22
420
 14491686
370
    25
100
AcDb2dPolyline
 66
     1
 10
0.0
 20
0.0
 30
0.0
  0
VERTEX
  5
13A
330
139
100
AcDbEntity
  8
Layer 1
 62
    22
420
 14491686
370
    25
100
AcDbVertex
100
AcDb2dVertex
 10
264.8735825618198
 20
-325.2314832086227
 30
0.0
  0
VERTEX
  5
13B
330
139
100
AcDbEntity
  8
Layer 1
 62
    22
420
 14491686
370
    25
100
AcDbVertex
100
AcDb2dVertex
 10
264.8735825618198
 20
-358.2320528618309
 30
0.0
  0
SEQEND
  5
13C
330
139
100
AcDbEntity
  8
Layer 1
370
    25
  0
POLYLINE
  5
13D
330
1F
100
AcDbEntity
  8
Layer 1
 62
    22
420
 14491686
370
    25
100
AcDb2dPolyline
 66
     1
 10
0.0
 20
0.0
 30
0.0
  0
VERTEX
  5
13E
330
13D
100
AcDbEntity
  8
Layer 1
 62
    22
420
 14491686
370
    25
100
AcDbVertex
100
AcDb2dVertex
 10
228.8757798364443
 20
-234.7308918684006
 30
0.0
  0
VERTEX
  5
13F
330
13D
100
AcDbEntity
  8
Layer 1
 62
    22
420
 14491686
370
    25
100
AcDbVertex
100
AcDb2dVertex
 10
228.8757798364443
 20
-288.7306965424007
 30
0.0
  0
SEQEND
  5
140
330
13D
100
AcDbEntity
  8
Layer 1
370
    25
  0
POLYLINE
  5
141
330
1F
100
AcDbEntity
  8
Layer 1
 62
    22
420
 14491686
370
    25
100
AcDb2dPolyline
 66
     1
 10
0.0
 20
0.0
 30
0.0
  0
VERTEX
  5
142
330
141
100
AcDbEntity
  8
Layer 1
 62
    22
420
 14491686
370
    25
100
AcDbVertex
100
AcDb2dVertex
 10
236.8752915531944
 20
-234.7308918684006
 30
0.0
  0
VERTEX
  5
143
330
141
100
AcDbEntity
  8
Layer 1
 62
    22
420
 14491686
370
    25
100
AcDbVertex
100
AcDb2dVertex
 10
236.8752915531944
 20
-288.7306965424007
 30
0.0
  0
SEQEND
  5
144
330
141
100
AcDbEntity
  8
Layer 1
370
    25
  0
POLYLINE
  5
145
330
1F
100
AcDbEntity
  8
Layer 1
 62
    22
420
 14491686
370
    25
100
AcDb2dPolyline
 66
     1
 10
0.0
 20
0.0
 30
0.0
  0
VERTEX
  5
146
330
145
100
AcDbEntity
  8
Layer 1
 62
    22
420
 14491686
370
    25
100
AcDbVertex
100
AcDb2dVertex
 10
244.8748032699445
 20
-234.7308918684006
 30
0.0
  0
VERTEX
  5
147
330
145
100
AcDbEntity
  8
Layer 1
 62
    22
420
 14491686
370
    25
100
AcDbVertex
100
AcDb2dVertex
 10
244.8748032699445
 20
-288.7306965424007
 30
0.0
  0
SEQEND
  5
148
330
145
100
AcDbEntity
  8
Layer 1
370
    25
  0
POLYLINE
  5
149
330
1F
100
AcDbEntity
  8
Layer 1
 62
    22
420
 14491686
370
    25
100
AcDb2dPolyline
 66
     1
 10
0.0
 20
0.0
 30
0.0
  0
VERTEX
  5
14A
330
149
100
AcDbEntity
  8
Layer 1
 62
    22
420
 14491686
370
    25
100
AcDbVertex
100
AcDb2dVertex
 10
252.8743149866946
 20
-234.7308918684006
 30
0.0
  0
VERTEX
  5
14B
330
149
100
AcDbEntity
  8
Layer 1
 62
    22
420
 14491686
370
    25
100
AcDbVertex
100
AcDb2dVertex
 10
252.8743149866946
 20
-288.7306965424007
 30
0.0
  0
SEQEND
  5
14C
330
149
100
AcDbEntity
  8
Layer 1
370
    25
  0
POLYLINE
  5
14D
330
1F
100
AcDbEntity
  8
Layer 1
 62
    22
420
 14491686
370
    25
100
AcDb2dPolyline
 66
     1
 10
0.0
 20
0.0
 30
0.0
  0
VERTEX
  5
14E
330
14D
100
AcDbEntity
  8
Layer 1
 62
    22
420
 14491686
370
    25
100
AcDbVertex
100
AcDb2dVertex
 10
260.8738267034448
 20
-234.7308918684006
 30
0.0
  0
VERTEX
  5
14F
330
14D
100
AcDbEntity
  8
Layer 1
 62
    22
420
 14491686
370
    25
100
AcDbVertex
100
AcDb2dVertex
 10
260.8738267034448
 20
-288.7306965424007
 30
0.0
  0
SEQEND
  5
150
330
14D
100
AcDbEntity
  8
Layer 1
370
    25
  0
POLYLINE
  5
151
330
1F
100
AcDbEntity
  8
Layer 1
 62
    22
420
 14491686
370
    25
100
AcDb2dPolyline
 66
     1
 10
0.0
 20
0.0
 30
0.0
  0
VERTEX
  5
152
330
151
100
AcDbEntity
  8
Layer 1
 62
    22
420
 14491686
370
    25
100
AcDbVertex
100
AcDb2dVertex
 10
228.8757798364443
 20
-292.7311414198728
 30
0.0
  0
VERTEX
  5
153
330
151
100
AcDbEntity
  8
Layer 1
 62
    22
420
 14491686
370
    25
100
AcDbVertex
100
AcDb2dVertex
 10
228.8757798364443
 20
-349.7302462233313
 30
0.0
  0
SEQEND
  5
154
330
151
100
AcDbEntity
  8
Layer 1
370
    25
  0
POLYLINE
  5
155
330
1F
100
AcDbEntity
  8
Layer 1
 62
    22
420
 14491686
370
    25
100
AcDb2dPolyline
 66
     1
 10
0.0
 20
0.0
 30
0.0
  0
VERTEX
  5
156
330
155
100
AcDbEntity
  8
Layer 1
 62
    22
420
 14491686
370
    25
100
AcDbVertex
100
AcDb2dVertex
 10
220.8762681196941
 20
-234.7308918684006
 30
0.0
  0
VERTEX
  5
157
330
155
100
AcDbEntity
  8
Layer 1
 62
    22
420
 14491686
370
    25
100
AcDbVertex
100
AcDb2dVertex
 10
220.8762681196941
 20
-288.7306965424007
 30
0.0
  0
SEQEND
  5
158
330
155
100
AcDbEntity
  8
Layer 1
370
    25
  0
POLYLINE
  5
159
330
1F
100
AcDbEntity
  8
Layer 1
 62
    22
420
 14491686
370
    25
100
AcDb2dPolyline
 66
     1
 10
0.0
 20
0.0
 30
0.0
  0
VERTEX
  5
15A
330
159
100
AcDbEntity
  8
Layer 1
 62
    22
420
 14491686
370
    25
100
AcDbVertex
100
AcDb2dVertex
 10
220.8762681196941
 20
-292.7311414198728
 30
0.0
  0
VERTEX
  5
15B
330
159
100
AcDbEntity
  8
Layer 1
 62
    22
420
 14491686
370
    25
100
AcDbVertex
100
AcDb2dVertex
 10
220.8762681196941
 20
-349.7302462233313
 30
0.0
  0
SEQEND
  5
15C
330
159
100
AcDbEntity
  8
Layer 1
370
    25
  0
POLYLINE
  5
15D
330
1F
100
AcDbEntity
  8
Layer 1
 62
    22
420
 14491686
370
    25
100
AcDb2dPolyline
 66
     1
 10
0.0
 20
0.0
 30
0.0
  0
VERTEX
  5
15E
330
15D
100
AcDbEntity
  8
Layer 1
 62
    22
420
 14491686
370
    25
100
AcDbVertex
100
AcDb2dVertex
 10
236.8752915531944
 20
-292.7311414198728
 30
0.0
  0
VERTEX
  5
15F
330
15D
100
AcDbEntity
  8
Layer 1
 62
    22
420
 14491686
370
    25
100
AcDbVertex
100
AcDb2dVertex
 10
236.8752915531944
 20
-349.7302462233313
 30
0.0
  0
SEQEND
  5
160
330
15D
100
AcDbEntity
  8
Layer 1
370
    25
  0
POLYLINE
  5
161
330
1F
100
AcDbEntity
  8
Layer 1
 62
    22
420
 14491686
370
    25
100
AcDb2dPolyline
 66
     1
 10
0.0
 20
0.0
 30
0.0
  0
VERTEX
  5
162
330
161
100
AcDbEntity
  8
Layer 1
 62
    22
420
 14491686
370
    25
100
AcDbVertex
100
AcDb2dVertex
 10
244.8748032699445
 20
-292.7311414198728
 30
0.0
  0
VERTEX
  5
163
330
161
100
AcDbEntity
  8
Layer 1
 62
    22
420
 14491686
370
    25
100
AcDbVertex
100
AcDb2dVertex
 10
244.8748032699445
 20
-349.7302462233313
 30
0.0
  0
SEQEND
  5
164
330
161
100
AcDbEntity
  8
Layer 1
370
    25
  0
POLYLINE
  5
165
330
1F
100
AcDbEntity
  8
Layer 1
 62
    22
420
 14491686
370
    25
100
AcDb2dPolyline
 66
     1
 10
0.0
 20
0.0
 30
0.0
  0
VERTEX
  5
166
330
165
100
AcDbEntity
  8
Layer 1
 62
    22
420
 14491686
370
    25
100
AcDbVertex
100
AcDb2dVertex
 10
252.8743149866946
 20
-292.7311414198728
 30
0.0
  0
VERTEX
  5
167
330
165
100
AcDbEntity
  8
Layer 1
 62
    22
420
 14491686
370
    25
100
AcDbVertex
100
AcDb2dVertex
 10
252.8743149866946
 20
-349.7302462233313
 30
0.0
  0
SEQEND
  5
168
330
165
100
AcDbEntity
  8
Layer 1
370
    25
  0
POLYLINE
  5
169
330
1F
100
AcDbEntity
  8
Layer 1
 62
    22
420
 14491686
370
    25
100
AcDb2dPolyline
 66
     1
 10
0.0
 20
0.0
 30
0.0
  0
VERTEX
  5
16A
330
169
100
AcDbEntity
  8
Layer 1
 62
    22
420
 14491686
370
    25
100
AcDbVertex
100
AcDb2dVertex
 10
260.8738267034448
 20
-292.7311414198728
 30
0.0
  0
VERTEX
  5
16B
330
169
100
AcDbEntity
  8
Layer 1
 62
    22
420
 14491686
370
    25
100
AcDbVertex
100
AcDb2dVertex
 10
260.8738267034448
 20
-349.7302462233313
 30
0.0
  0
SEQEND
  5
16C
330
169
100
AcDbEntity
  8
Layer 1
370
    25
  0
POLYLINE
  5
16D
330
1F
100
AcDbEntity
  8
Layer 1
 62
    22
420
 14491686
370
    25
100
AcDb2dPolyline
 66
     1
 10
0.0
 20
0.0
 30
0.0
  0
VERTEX
  5
16E
330
16D
100
AcDbEntity
  8
Layer 1
 62
    22
420
 14491686
370
    25
100
AcDbVertex
100
AcDb2dVertex
 10
272.874472316764
 20
-226.2339083635804
 30
0.0
  0
VERTEX
  5
16F
330
16D
100
AcDbEntity
  8
Layer 1
 62
    22
420
 14491686
370
    25
100
AcDbVertex
100
AcDb2dVertex
 10
272.874472316764
 20
-260.2314886502199
 30
0.0
  0
SEQEND
  5
170
330
16D
100
AcDbEntity
  8
Layer 1
370
    25
  0
POLYLINE
  5
171
330
1F
100
AcDbEntity
  8
Layer 1
 62
    22
420
 14491686
370
    25
100
AcDb2dPolyline
 66
     1
 10
0.0
 20
0.0
 30
0.0
  0
VERTEX
  5
172
330
171
100
AcDbEntity
  8
Layer 1
 62
    22
420
 14491686
370
    25
100
AcDbVertex
100
AcDb2dVertex
 10
272.874472316764
 20
-264.231933527692
 30
0.0
  0
VERTEX
  5
173
330
171
100
AcDbEntity
  8
Layer 1
 62
    22
420
 14491686
370
    25
100
AcDbVertex
100
AcDb2dVertex
 10
272.874472316764
 20
-321.2310383311506
 30
0.0
  0
SEQEND
  5
174
330
171
100
AcDbEntity
  8
Layer 1
370
    25
  0
POLYLINE
  5
175
330
1F
100
AcDbEntity
  8
Layer 1
 62
    22
420
 14491686
370
    25
100
AcDb2dPolyline
 66
     1
 10
0.0
 20
0.0
 30
0.0
  0
VERTEX
  5
176
330
175
100
AcDbEntity
  8
Layer 1
 62
    22
420
 14491686
370
    25
100
AcDbVertex
100
AcDb2dVertex
 10
272.874472316764
 20
-325.2314832086227
 30
0.0
  0
VERTEX
  5
177
330
175
100
AcDbEntity
  8
Layer 1
 62
    22
420
 14491686
370
    25
100
AcDbVertex
100
AcDb2dVertex
 10
272.874472316764
 20
-358.2320528618309
 30
0.0
  0
SEQEND
  5
178
330
175
100
AcDbEntity
  8
Layer 1
370
    25
  0
POLYLINE
  5
179
330
1F
100
AcDbEntity
  8
Layer 1
 62
    22
420
 14491686
370
    25
100
AcDb2dPolyline
 66
     1
 10
0.0
 20
0.0
 30
0.0
  0
VERTEX
  5
17A
330
179
100
AcDbEntity
  8
Layer 1
 62
    22
420
 14491686
370
    25
100
AcDbVertex
100
AcDb2dVertex
 10
268.8747164583889
 20
-234.7308918684006
 30
0.0
  0
VERTEX
  5
17B
330
179
100
AcDbEntity
  8
Layer 1
 62
    22
420
 14491686
370
    25
100
AcDbVertex
100
AcDb2dVertex
 10
268.8747164583889
 20
-288.7306965424007
 30
0.0
  0
SEQEND
  5
17C
330
179
100
AcDbEntity
  8
Layer 1
370
    25
  0
POLYLINE
  5
17D
330
1F
100
AcDbEntity
  8
Layer 1
 62
    22
420
 14491686
370
    25
100
AcDb2dPolyline
 66
     1
 10
0.0
 20
0.0
 30
0.0
  0
VERTEX
  5
17E
330
17D
100
AcDbEntity
  8
Layer 1
 62
    22
420
 14491686
370
    25
100
AcDbVertex
100
AcDb2dVertex
 10
268.8747164583889
 20
-292.7311414198728
 30
0.0
  0
VERTEX
  5
17F
330
17D
100
AcDbEntity
  8
Layer 1
 62
    22
420
 14491686
370
    25
100
AcDbVertex
100
AcDb2dVertex
 10
268.8747164583889
 20
-349.7302462233313
 30
0.0
  0
SEQEND
  5
180
330
17D
100
AcDbEntity
  8
Layer 1
370
    25
  0
POLYLINE
  5
181
330
1F
100
AcDbEntity
  8
Layer 1
 62
    22
420
 14491686
370
    25
100
AcDb2dPolyline
 66
     1
 10
0.0
 20
0.0
 30
0.0
  0
VERTEX
  5
182
330
181
100
AcDbEntity
  8
Layer 1
 62
    22
420
 14491686
370
    25
100
AcDbVertex
100
AcDb2dVertex
 10
276.8742281751391
 20
-234.7308918684006
 30
0.0
  0
VERTEX
  5
183
330
181
100
AcDbEntity
  8
Layer 1
 62
    22
420
 14491686
370
    25
100
AcDbVertex
100
AcDb2dVertex
 10
276.8742281751391
 20
-288.7306965424007
 30
0.0
  0
SEQEND
  5
184
330
181
100
AcDbEntity
  8
Layer 1
370
    25
  0
POLYLINE
  5
185
330
1F
100
AcDbEntity
  8
Layer 1
 62
    22
420
 14491686
370
    25
100
AcDb2dPolyline
 66
     1
 10
0.0
 20
0.0
 30
0.0
  0
VERTEX
  5
186
330
185
100
AcDbEntity
  8
Layer 1
 62
    22
420
 14491686
370
    25
100
AcDbVertex
100
AcDb2dVertex
 10
276.8742281751391
 20
-292.7311414198728
 30
0.0
  0
VERTEX
  5
187
330
185
100
AcDbEntity
  8
Layer 1
 62
    22
420
 14491686
370
    25
100
AcDbVertex
100
AcDb2dVertex
 10
276.8742281751391
 20
-349.7302462233313
 30
0.0
  0
SEQEND
  5
188
330
185
100
AcDbEntity
  8
Layer 1
370
    25
  0
POLYLINE
  5
189
330
1F
100
AcDbEntity
  8
Layer 1
 62
     7
420
 16777215
370
    25
100
AcDb2dPolyline
 66
     1
 10
0.0
 20
0.0
 30
0.0
  0
VERTEX
  5
18A
330
189
100
AcDbEntity
  8
Layer 1
 62
     7
420
 16777215
370
    25
100
AcDbVertex
100
AcDb2dVertex
 10
532.5776555743209
 20
-259.2275878258181
 30
0.0
  0
VERTEX
  5
18B
330
189
100
AcDbEntity
  8
Layer 1
 62
     7
420
 16777215
370
    25
100
AcDbVertex
100
AcDb2dVertex
 10
531.5778888645013
 20
-262.2275769743737
 30
0.0
  0
VERTEX
  5
18C
330
189
100
AcDbEntity
  8
Layer 1
 62
     7
420
 16777215
370
    25
100
AcDbVertex
100
AcDb2dVertex
 10
544.0753172467937
 20
-264.0272948558682
 30
0.0
  0
VERTEX
  5
18D
330
189
100
AcDbEntity
  8
Layer 1
 62
     7
420
 16777215
370
    25
100
AcDbVertex
100
AcDb2dVertex
 10
531.0776610000431
 20
-262.6272080506627
 30
0.0
  0
VERTEX
  5
18E
330
189
100
AcDbEntity
  8
Layer 1
 62
     7
420
 16777215
370
    25
100
AcDbVertex
100
AcDb2dVertex
 10
529.5776664257653
 20
-261.5275335717709
 30
0.0
  0
VERTEX
  5
18F
330
189
100
AcDbEntity
  8
Layer 1
 62
     7
420
 16777215
370
    25
100
AcDbVertex
100
AcDb2dVertex
 10
529.0777830708556
 20
-259.0270832685766
 30
0.0
  0
VERTEX
  5
190
330
189
100
AcDbEntity
  8
Layer 1
 62
     7
420
 16777215
370
    25
100
AcDbVertex
100
AcDb2dVertex
 10
529.0777830708556
 20
-258.1795897792051
 30
0.0
  0
VERTEX
  5
191
330
189
100
AcDbEntity
  8
Layer 1
 62
     7
420
 16777215
370
    25
100
AcDbVertex
100
AcDb2dVertex
 10
529.0777830708556
 20
-258.02662753966
 30
0.0
  0
VERTEX
  5
192
330
189
100
AcDbEntity
  8
Layer 1
 62
     7
420
 16777215
370
    25
100
AcDbVertex
100
AcDb2dVertex
 10
529.0777830708556
 20
-256.027094120021
 30
0.0
  0
VERTEX
  5
193
330
189
100
AcDbEntity
  8
Layer 1
 62
     7
420
 16777215
370
    25
100
AcDbVertex
100
AcDb2dVertex
 10
529.0777830708556
 20
-250.180078062455
 30
0.0
  0
VERTEX
  5
194
330
189
100
AcDbEntity
  8
Layer 1
 62
     7
420
 16777215
370
    25
100
AcDbVertex
100
AcDb2dVertex
 10
529.0777830708556
 20
-230.1158419563599
 30
0.0
  0
VERTEX
  5
195
330
189
100
AcDbEntity
  8
Layer 1
 62
     7
420
 16777215
370
    25
100
AcDbVertex
100
AcDb2dVertex
 10
417.0777288453834
 20
-230.1158419563599
 30
0.0
  0
VERTEX
  5
196
330
189
100
AcDbEntity
  8
Layer 1
 62
     7
420
 16777215
370
    25
100
AcDbVertex
100
AcDb2dVertex
 10
243.0771524457411
 20
-230.1158419563599
 30
0.0
  0
VERTEX
  5
197
330
189
100
AcDbEntity
  8
Layer 1
 62
     7
420
 16777215
370
    25
100
AcDbVertex
100
AcDb2dVertex
 10
48.07751328008132
 20
-230.1158419563599
 30
0.0
  0
VERTEX
  5
198
330
189
100
AcDbEntity
  8
Layer 1
 62
     7
420
 16777215
370
    25
100
AcDbVertex
100
AcDb2dVertex
 10
48.07751328008132
 20
-354.3384059444015
 30
0.0
  0
VERTEX
  5
199
330
189
100
AcDbEntity
  8
Layer 1
 62
     7
420
 16777215
370
    25
100
AcDbVertex
100
AcDb2dVertex
 10
243.0771524457411
 20
-354.3384059444015
 30
0.0
  0
VERTEX
  5
19A
330
189
100
AcDbEntity
  8
Layer 1
 62
     7
420
 16777215
370
    25
100
AcDbVertex
100
AcDb2dVertex
 10
417.0777288453834
 20
-354.3384059444015
 30
0.0
  0
VERTEX
  5
19B
330
189
100
AcDbEntity
  8
Layer 1
 62
     7
420
 16777215
370
    25
100
AcDbVertex
100
AcDb2dVertex
 10
529.0777830708556
 20
-354.3384059444015
 30
0.0
  0
VERTEX
  5
19C
330
189
100
AcDbEntity
  8
Layer 1
 62
     7
420
 16777215
370
    25
100
AcDbVertex
100
AcDb2dVertex
 10
529.0777830708556
 20
-334.1811522602047
 30
0.0
  0
VERTEX
  5
19D
330
189
100
AcDbEntity
  8
Layer 1
 62
     7
420
 16777215
370
    25
100
AcDbVertex
100
AcDb2dVertex
 10
529.0777830708556
 20
-328.4271537807405
 30
0.0
  0
VERTEX
  5
19E
330
189
100
AcDbEntity
  8
Layer 1
 62
     7
420
 16777215
370
    25
100
AcDbVertex
100
AcDb2dVertex
 10
529.0777830708556
 20
-328.3830565585292
 30
0.0
  0
VERTEX
  5
19F
330
189
100
AcDbEntity
  8
Layer 1
 62
     7
420
 16777215
370
    25
100
AcDbVertex
100
AcDb2dVertex
 10
529.0777830708556
 20
-326.4186631128398
 30
0.0
  0
VERTEX
  5
1A0
330
189
100
AcDbEntity
  8
Layer 1
 62
     7
420
 16777215
370
    25
100
AcDbVertex
100
AcDb2dVertex
 10
529.0777830708556
 20
-326.1809515243576
 30
0.0
  0
VERTEX
  5
1A1
330
189
100
AcDbEntity
  8
Layer 1
 62
     7
420
 16777215
370
    25
100
AcDbVertex
100
AcDb2dVertex
 10
529.0777830708556
 20
-325.4182073839232
 30
0.0
  0
VERTEX
  5
1A2
330
189
100
AcDbEntity
  8
Layer 1
 62
     7
420
 16777215
370
    25
100
AcDbVertex
100
AcDb2dVertex
 10
529.5776664257653
 20
-322.918446099826
 30
0.0
  0
VERTEX
  5
1A3
330
189
100
AcDbEntity
  8
Layer 1
 62
     7
420
 16777215
370
    25
100
AcDbVertex
100
AcDb2dVertex
 10
531.0776610000431
 20
-321.8180826018371
 30
0.0
  0
VERTEX
  5
1A4
330
189
100
AcDbEntity
  8
Layer 1
 62
     7
420
 16777215
370
    25
100
AcDbVertex
100
AcDb2dVertex
 10
544.0753172467937
 20
-320.4179957966316
 30
0.0
  0
VERTEX
  5
1A5
330
189
100
AcDbEntity
  8
Layer 1
 62
     7
420
 16777215
370
    25
100
AcDbVertex
100
AcDb2dVertex
 10
531.5778888645013
 20
-322.2184026972232
 30
0.0
  0
VERTEX
  5
1A6
330
189
100
AcDbEntity
  8
Layer 1
 62
     7
420
 16777215
370
    25
100
AcDbVertex
100
AcDb2dVertex
 10
532.5776555743209
 20
-325.2183918457787
 30
0.0
  0
VERTEX
  5
1A7
330
189
100
AcDbEntity
  8
Layer 1
 62
     7
420
 16777215
370
    25
100
AcDbVertex
100
AcDb2dVertex
 10
557.0771076081265
 20
-322.4182182353677
 30
0.0
  0
VERTEX
  5
1A8
330
189
100
AcDbEntity
  8
Layer 1
 62
     7
420
 16777215
370
    25
100
AcDbVertex
100
AcDb2dVertex
 10
557.0771076081265
 20
-262.0270724171322
 30
0.0
  0
VERTEX
  5
1A9
330
189
100
AcDbEntity
  8
Layer 1
 62
     7
420
 16777215
370
    25
100
AcDbVertex
100
AcDb2dVertex
 10
532.5776555743209
 20
-259.2275878258181
 30
0.0
  0
SEQEND
  5
1AA
330
189
100
AcDbEntity
  8
Layer 1
370
    25
  0
POLYLINE
  5
1AB
330
1F
100
AcDbEntity
  8
Layer 1
 62
     7
420
 16777215
370
    25
100
AcDb2dPolyline
 66
     1
 10
0.0
 20
0.0
 30
0.0
  0
VERTEX
  5
1AC
330
1AB
100
AcDbEntity
  8
Layer 1
 62
     7
420
 16777215
370
    25
100
AcDbVertex
100
AcDb2dVertex
 10
93.65716007858224
 20
-175.9830565966292
 30
0.0
  0
VERTEX
  5
1AD
330
1AB
100
AcDbEntity
  8
Layer 1
 62
     7
420
 16777215
370
    25
100
AcDbVertex
100
AcDb2dVertex
 10
90.15694306556841
 20
-175.9830565966292
 30
0.0
  0
VERTEX
  5
1AE
330
1AB
100
AcDbEntity
  8
Layer 1
 62
     7
420
 16777215
370
    25
100
AcDbVertex
100
AcDb2dVertex
 10
90.15694306556841
 20
-86.46569550789746
 30
0.0
  0
VERTEX
  5
1AF
330
1AB
100
AcDbEntity
  8
Layer 1
 62
     7
420
 16777215
370
    25
100
AcDbVertex
100
AcDb2dVertex
 10
93.65716007858224
 20
-86.46569550789746
 30
0.0
  0
VERTEX
  5
1B0
330
1AB
100
AcDbEntity
  8
Layer 1
 62
     7
420
 16777215
370
    25
100
AcDbVertex
100
AcDb2dVertex
 10
93.65716007858224
 20
-175.9830565966292
 30
0.0
  0
SEQEND
  5
1B1
330
1AB
100
AcDbEntity
  8
Layer 1
370
    25
  0
POLYLINE
  5
1B2
330
1F
100
AcDbEntity
  8
Layer 1
 62
    22
420
 14491686
370
    25
100
AcDb2dPolyline
 66
     1
 10
0.0
 20
0.0
 30
0.0
  0
VERTEX
  5
1B3
330
1B2
100
AcDbEntity
  8
Layer 1
 62
    22
420
 14491686
370
    25
100
AcDbVertex
100
AcDb2dVertex
 10
542.2184107802441
 20
-39.49250758561298
 30
0.0
  0
VERTEX
  5
1B4
330
1B2
100
AcDbEntity
  8
Layer 1
 62
    22
420
 14491686
370
    25
100
AcDbVertex
100
AcDb2dVertex
 10
542.2184107802441
 20
-86.74991588543058
 30
0.0
  0
SEQEND
  5
1B5
330
1B2
100
AcDbEntity
  8
Layer 1
370
    25
  0
POLYLINE
  5
1B6
330
1F
100
AcDbEntity
  8
Layer 1
 62
    22
420
 14491686
370
    25
100
AcDb2dPolyline
 66
     1
 10
0.0
 20
0.0
 30
0.0
  0
VERTEX
  5
1B7
330
1B6
100
AcDbEntity
  8
Layer 1
 62
    22
420
 14491686
370
    25
100
AcDbVertex
100
AcDb2dVertex
 10
553.3378009684365
 20
-39.49250758561298
 30
0.0
  0
VERTEX
  5
1B8
330
1B6
100
AcDbEntity
  8
Layer 1
 62
    22
420
 14491686
370
    25
100
AcDbVertex
100
AcDb2dVertex
 10
553.3378009684365
 20
-86.74991588543058
 30
0.0
  0
SEQEND
  5
1B9
330
1B6
100
AcDbEntity
  8
Layer 1
370
    25
  0
POLYLINE
  5
1BA
330
1F
100
AcDbEntity
  8
Layer 1
 62
    22
420
 14491686
370
    25
100
AcDb2dPolyline
 66
     1
 10
0.0
 20
0.0
 30
0.0
  0
VERTEX
  5
1BB
330
1BA
100
AcDbEntity
  8
Layer 1
 62
    22
420
 14491686
370
    25
100
AcDbVertex
100
AcDb2dVertex
 10
564.4571911566288
 20
-39.49250758561298
 30
0.0
  0
VERTEX
  5
1BC
330
1BA
100
AcDbEntity
  8
Layer 1
 62
    22
420
 14491686
370
    25
100
AcDbVertex
100
AcDb2dVertex
 10
564.4571911566288
 20
-86.74991588543058
 30
0.0
  0
SEQEND
  5
1BD
330
1BA
100
AcDbEntity
  8
Layer 1
370
    25
  0
POLYLINE
  5
1BE
330
1F
100
AcDbEntity
  8
Layer 1
 62
    22
420
 14491686
370
    25
100
AcDb2dPolyline
 66
     1
 10
0.0
 20
0.0
 30
0.0
  0
VERTEX
  5
1BF
330
1BE
100
AcDbEntity
  8
Layer 1
 62
    22
420
 14491686
370
    25
100
AcDbVertex
100
AcDb2dVertex
 10
575.5769258543697
 20
-39.49250758561298
 30
0.0
  0
VERTEX
  5
1C0
330
1BE
100
AcDbEntity
  8
Layer 1
 62
    22
420
 14491686
370
    25
100
AcDbVertex
100
AcDb2dVertex
 10
575.5769258543697
 20
-86.74991588543058
 30
0.0
  0
SEQEND
  5
1C1
330
1BE
100
AcDbEntity
  8
Layer 1
370
    25
  0
POLYLINE
  5
1C2
330
1F
100
AcDbEntity
  8
Layer 1
 62
    22
420
 14491686
370
    25
100
AcDb2dPolyline
 66
     1
 10
0.0
 20
0.0
 30
0.0
  0
VERTEX
  5
1C3
330
1C2
100
AcDbEntity
  8
Layer 1
 62
    22
420
 14491686
370
    25
100
AcDbVertex
100
AcDb2dVertex
 10
586.6963160425621
 20
-39.49250758561298
 30
0.0
  0
VERTEX
  5
1C4
330
1C2
100
AcDbEntity
  8
Layer 1
 62
    22
420
 14491686
370
    25
100
AcDbVertex
100
AcDb2dVertex
 10
586.6963160425621
 20
-86.74991588543058
 30
0.0
  0
SEQEND
  5
1C5
330
1C2
100
AcDbEntity
  8
Layer 1
370
    25
  0
POLYLINE
  5
1C6
330
1F
100
AcDbEntity
  8
Layer 1
 62
    22
420
 14491686
370
    25
100
AcDb2dPolyline
 66
     1
 10
0.0
 20
0.0
 30
0.0
  0
VERTEX
  5
1C7
330
1C6
100
AcDbEntity
  8
Layer 1
 62
    22
420
 14491686
370
    25
100
AcDbVertex
100
AcDb2dVertex
 10
597.816050740303
 20
-39.49250758561298
 30
0.0
  0
VERTEX
  5
1C8
330
1C6
100
AcDbEntity
  8
Layer 1
 62
    22
420
 14491686
370
    25
100
AcDbVertex
100
AcDb2dVertex
 10
597.816050740303
 20
-86.74991588543058
 30
0.0
  0
SEQEND
  5
1C9
330
1C6
100
AcDbEntity
  8
Layer 1
370
    25
  0
POLYLINE
  5
1CA
330
1F
100
AcDbEntity
  8
Layer 1
 62
    22
420
 14491686
370
    25
100
AcDb2dPolyline
 66
     1
 10
0.0
 20
0.0
 30
0.0
  0
VERTEX
  5
1CB
330
1CA
100
AcDbEntity
  8
Layer 1
 62
    22
420
 14491686
370
    25
100
AcDbVertex
100
AcDb2dVertex
 10
542.2184107802441
 20
-92.31064450817235
 30
0.0
  0
VERTEX
  5
1CC
330
1CA
100
AcDbEntity
  8
Layer 1
 62
    22
420
 14491686
370
    25
100
AcDbVertex
100
AcDb2dVertex
 10
542.2184107802441
 20
-171.5409504779481
 30
0.0
  0
SEQEND
  5
1CD
330
1CA
100
AcDbEntity
  8
Layer 1
370
    25
  0
POLYLINE
  5
1CE
330
1F
100
AcDbEntity
  8
Layer 1
 62
    22
420
 14491686
370
    25
100
AcDb2dPolyline
 66
     1
 10
0.0
 20
0.0
 30
0.0
  0
VERTEX
  5
1CF
330
1CE
100
AcDbEntity
  8
Layer 1
 62
    22
420
 14491686
370
    25
100
AcDbVertex
100
AcDb2dVertex
 10
553.3378009684365
 20
-92.31064450817235
 30
0.0
  0
VERTEX
  5
1D0
330
1CE
100
AcDbEntity
  8
Layer 1
 62
    22
420
 14491686
370
    25
100
AcDbVertex
100
AcDb2dVertex
 10
553.3378009684365
 20
-171.5409504779481
 30
0.0
  0
SEQEND
  5
1D1
330
1CE
100
AcDbEntity
  8
Layer 1
370
    25
  0
POLYLINE
  5
1D2
330
1F
100
AcDbEntity
  8
Layer 1
 62
    22
420
 14491686
370
    25
100
AcDb2dPolyline
 66
     1
 10
0.0
 20
0.0
 30
0.0
  0
VERTEX
  5
1D3
330
1D2
100
AcDbEntity
  8
Layer 1
 62
    22
420
 14491686
370
    25
100
AcDbVertex
100
AcDb2dVertex
 10
564.4571911566288
 20
-92.31064450817235
 30
0.0
  0
VERTEX
  5
1D4
330
1D2
100
AcDbEntity
  8
Layer 1
 62
    22
420
 14491686
370
    25
100
AcDbVertex
100
AcDb2dVertex
 10
564.4571911566288
 20
-171.5409504779481
 30
0.0
  0
SEQEND
  5
1D5
330
1D2
100
AcDbEntity
  8
Layer 1
370
    25
  0
POLYLINE
  5
1D6
330
1F
100
AcDbEntity
  8
Layer 1
 62
    22
420
 14491686
370
    25
100
AcDb2dPolyline
 66
     1
 10
0.0
 20
0.0
 30
0.0
  0
VERTEX
  5
1D7
330
1D6
100
AcDbEntity
  8
Layer 1
 62
    22
420
 14491686
370
    25
100
AcDbVertex
100
AcDb2dVertex
 10
575.5769258543697
 20
-92.31064450817235
 30
0.0
  0
VERTEX
  5
1D8
330
1D6
100
AcDbEntity
  8
Layer 1
 62
    22
420
 14491686
370
    25
100
AcDbVertex
100
AcDb2dVertex
 10
575.5769258543697
 20
-171.5409504779481
 30
0.0
  0
SEQEND
  5
1D9
330
1D6
100
AcDbEntity
  8
Layer 1
370
    25
  0
POLYLINE
  5
1DA
330
1F
100
AcDbEntity
  8
Layer 1
 62
    22
420
 14491686
370
    25
100
AcDb2dPolyline
 66
     1
 10
0.0
 20
0.0
 30
0.0
  0
VERTEX
  5
1DB
330
1DA
100
AcDbEntity
  8
Layer 1
 62
    22
420
 14491686
370
    25
100
AcDbVertex
100
AcDb2dVertex
 10
586.6963160425621
 20
-92.31064450817235
 30
0.0
  0
VERTEX
  5
1DC
330
1DA
100
AcDbEntity
  8
Layer 1
 62
    22
420
 14491686
370
    25
100
AcDbVertex
100
AcDb2dVertex
 10
586.6963160425621
 20
-171.5409504779481
 30
0.0
  0
SEQEND
  5
1DD
330
1DA
100
AcDbEntity
  8
Layer 1
370
    25
  0
POLYLINE
  5
1DE
330
1F
100
AcDbEntity
  8
Layer 1
 62
    22
420
 14491686
370
    25
100
AcDb2dPolyline
 66
     1
 10
0.0
 20
0.0
 30
0.0
  0
VERTEX
  5
1DF
330
1DE
100
AcDbEntity
  8
Layer 1
 62
    22
420
 14491686
370
    25
100
AcDbVertex
100
AcDb2dVertex
 10
597.816050740303
 20
-92.31064450817235
 30
0.0
  0
VERTEX
  5
1E0
330
1DE
100
AcDbEntity
  8
Layer 1
 62
    22
420
 14491686
370
    25
100
AcDbVertex
100
AcDb2dVertex
 10
597.816050740303
 20
-171.5409504779481
 30
0.0
  0
SEQEND
  5
1E1
330
1DE
100
AcDbEntity
  8
Layer 1
370
    25
  0
POLYLINE
  5
1E2
330
1F
100
AcDbEntity
  8
Layer 1
 62
    22
420
 14491686
370
    25
100
AcDb2dPolyline
 66
     1
 10
0.0
 20
0.0
 30
0.0
  0
VERTEX
  5
1E3
330
1E2
100
AcDbEntity
  8
Layer 1
 62
    22
420
 14491686
370
    25
100
AcDbVertex
100
AcDb2dVertex
 10
542.2184107802441
 20
-177.1020236102384
 30
0.0
  0
VERTEX
  5
1E4
330
1E2
100
AcDbEntity
  8
Layer 1
 62
    22
420
 14491686
370
    25
100
AcDbVertex
100
AcDb2dVertex
 10
542.2184107802441
 20
-222.97346999634
 30
0.0
  0
SEQEND
  5
1E5
330
1E2
100
AcDbEntity
  8
Layer 1
370
    25
  0
POLYLINE
  5
1E6
330
1F
100
AcDbEntity
  8
Layer 1
 62
    22
420
 14491686
370
    25
100
AcDb2dPolyline
 66
     1
 10
0.0
 20
0.0
 30
0.0
  0
VERTEX
  5
1E7
330
1E6
100
AcDbEntity
  8
Layer 1
 62
    22
420
 14491686
370
    25
100
AcDbVertex
100
AcDb2dVertex
 10
553.3378009684365
 20
-177.1020236102384
 30
0.0
  0
VERTEX
  5
1E8
330
1E6
100
AcDbEntity
  8
Layer 1
 62
    22
420
 14491686
370
    25
100
AcDbVertex
100
AcDb2dVertex
 10
553.3378009684365
 20
-222.97346999634
 30
0.0
  0
SEQEND
  5
1E9
330
1E6
100
AcDbEntity
  8
Layer 1
370
    25
  0
POLYLINE
  5
1EA
330
1F
100
AcDbEntity
  8
Layer 1
 62
    22
420
 14491686
370
    25
100
AcDb2dPolyline
 66
     1
 10
0.0
 20
0.0
 30
0.0
  0
VERTEX
  5
1EB
330
1EA
100
AcDbEntity
  8
Layer 1
 62
    22
420
 14491686
370
    25
100
AcDbVertex
100
AcDb2dVertex
 10
564.4571911566288
 20
-177.1020236102384
 30
0.0
  0
VERTEX
  5
1EC
330
1EA
100
AcDbEntity
  8
Layer 1
 62
    22
420
 14491686
370
    25
100
AcDbVertex
100
AcDb2dVertex
 10
564.4571911566288
 20
-222.97346999634
 30
0.0
  0
SEQEND
  5
1ED
330
1EA
100
AcDbEntity
  8
Layer 1
370
    25
  0
POLYLINE
  5
1EE
330
1F
100
AcDbEntity
  8
Layer 1
 62
    22
420
 14491686
370
    25
100
AcDb2dPolyline
 66
     1
 10
0.0
 20
0.0
 30
0.0
  0
VERTEX
  5
1EF
330
1EE
100
AcDbEntity
  8
Layer 1
 62
    22
420
 14491686
370
    25
100
AcDbVertex
100
AcDb2dVertex
 10
575.5769258543697
 20
-177.1020236102384
 30
0.0
  0
VERTEX
  5
1F0
330
1EE
100
AcDbEntity
  8
Layer 1
 62
    22
420
 14491686
370
    25
100
AcDbVertex
100
AcDb2dVertex
 10
575.5769258543697
 20
-222.97346999634
 30
0.0
  0
SEQEND
  5
1F1
330
1EE
100
AcDbEntity
  8
Layer 1
370
    25
  0
POLYLINE
  5
1F2
330
1F
100
AcDbEntity
  8
Layer 1
 62
    22
420
 14491686
370
    25
100
AcDb2dPolyline
 66
     1
 10
0.0
 20
0.0
 30
0.0
  0
VERTEX
  5
1F3
330
1F2
100
AcDbEntity
  8
Layer 1
 62
    22
420
 14491686
370
    25
100
AcDbVertex
100
AcDb2dVertex
 10
586.6963160425621
 20
-177.1020236102384
 30
0.0
  0
VERTEX
  5
1F4
330
1F2
100
AcDbEntity
  8
Layer 1
 62
    22
420
 14491686
370
    25
100
AcDbVertex
100
AcDb2dVertex
 10
586.6963160425621
 20
-222.97346999634
 30
0.0
  0
SEQEND
  5
1F5
330
1F2
100
AcDbEntity
  8
Layer 1
370
    25
  0
POLYLINE
  5
1F6
330
1F
100
AcDbEntity
  8
Layer 1
 62
    22
420
 14491686
370
    25
100
AcDb2dPolyline
 66
     1
 10
0.0
 20
0.0
 30
0.0
  0
VERTEX
  5
1F7
330
1F6
100
AcDbEntity
  8
Layer 1
 62
    22
420
 14491686
370
    25
100
AcDbVertex
100
AcDb2dVertex
 10
597.816050740303
 20
-177.1020236102384
 30
0.0
  0
VERTEX
  5
1F8
330
1F6
100
AcDbEntity
  8
Layer 1
 62
    22
420
 14491686
370
    25
100
AcDbVertex
100
AcDb2dVertex
 10
597.816050740303
 20
-222.97346999634
 30
0.0
  0
SEQEND
  5
1F9
330
1F6
100
AcDbEntity
  8
Layer 1
370
    25
  0
POLYLINE
  5
1FA
330
1F
100
AcDbEntity
  8
Layer 1
 62
    22
420
 14491686
370
    25
100
AcDb2dPolyline
 66
     1
 10
0.0
 20
0.0
 30
0.0
  0
VERTEX
  5
1FB
330
1FA
100
AcDbEntity
  8
Layer 1
 62
    22
420
 14491686
370
    25
100
AcDbVertex
100
AcDb2dVertex
 10
547.7781058743402
 20
-51.30367294724353
 30
0.0
  0
VERTEX
  5
1FC
330
1FA
100
AcDbEntity
  8
Layer 1
 62
    22
420
 14491686
370
    25
100
AcDbVertex
100
AcDb2dVertex
 10
547.7781058743402
 20
-126.3647243607699
 30
0.0
  0
SEQEND
  5
1FD
330
1FA
100
AcDbEntity
  8
Layer 1
370
    25
  0
POLYLINE
  5
1FE
330
1F
100
AcDbEntity
  8
Layer 1
 62
    22
420
 14491686
370
    25
100
AcDb2dPolyline
 66
     1
 10
0.0
 20
0.0
 30
0.0
  0
VERTEX
  5
1FF
330
1FE
100
AcDbEntity
  8
Layer 1
 62
    22
420
 14491686
370
    25
100
AcDbVertex
100
AcDb2dVertex
 10
558.8974960625326
 20
-51.30367294724353
 30
0.0
  0
VERTEX
  5
200
330
1FE
100
AcDbEntity
  8
Layer 1
 62
    22
420
 14491686
370
    25
100
AcDbVertex
100
AcDb2dVertex
 10
558.8974960625326
 20
-126.3647243607699
 30
0.0
  0
SEQEND
  5
201
330
1FE
100
AcDbEntity
  8
Layer 1
370
    25
  0
POLYLINE
  5
202
330
1F
100
AcDbEntity
  8
Layer 1
 62
    22
420
 14491686
370
    25
100
AcDb2dPolyline
 66
     1
 10
0.0
 20
0.0
 30
0.0
  0
VERTEX
  5
203
330
202
100
AcDbEntity
  8
Layer 1
 62
    22
420
 14491686
370
    25
100
AcDbVertex
100
AcDb2dVertex
 10
570.016886250725
 20
-51.30367294724353
 30
0.0
  0
VERTEX
  5
204
330
202
100
AcDbEntity
  8
Layer 1
 62
    22
420
 14491686
370
    25
100
AcDbVertex
100
AcDb2dVertex
 10
570.016886250725
 20
-126.3647243607699
 30
0.0
  0
SEQEND
  5
205
330
202
100
AcDbEntity
  8
Layer 1
370
    25
  0
POLYLINE
  5
206
330
1F
100
AcDbEntity
  8
Layer 1
 62
    22
420
 14491686
370
    25
100
AcDb2dPolyline
 66
     1
 10
0.0
 20
0.0
 30
0.0
  0
VERTEX
  5
207
330
206
100
AcDbEntity
  8
Layer 1
 62
    22
420
 14491686
370
    25
100
AcDbVertex
100
AcDb2dVertex
 10
581.1366209484659
 20
-51.30367294724353
 30
0.0
  0
VERTEX
  5
208
330
206
100
AcDbEntity
  8
Layer 1
 62
    22
420
 14491686
370
    25
100
AcDbVertex
100
AcDb2dVertex
 10
581.1366209484659
 20
-126.3647243607699
 30
0.0
  0
SEQEND
  5
209
330
206
100
AcDbEntity
  8
Layer 1
370
    25
  0
POLYLINE
  5
20A
330
1F
100
AcDbEntity
  8
Layer 1
 62
    22
420
 14491686
370
    25
100
AcDb2dPolyline
 66
     1
 10
0.0
 20
0.0
 30
0.0
  0
VERTEX
  5
20B
330
20A
100
AcDbEntity
  8
Layer 1
 62
    22
420
 14491686
370
    25
100
AcDbVertex
100
AcDb2dVertex
 10
592.2563556462068
 20
-51.30367294724353
 30
0.0
  0
VERTEX
  5
20C
330
20A
100
AcDbEntity
  8
Layer 1
 62
    22
420
 14491686
370
    25
100
AcDbVertex
100
AcDb2dVertex
 10
592.2563556462068
 20
-126.3647243607699
 30
0.0
  0
SEQEND
  5
20D
330
20A
100
AcDbEntity
  8
Layer 1
370
    25
  0
POLYLINE
  5
20E
330
1F
100
AcDbEntity
  8
Layer 1
 62
    22
420
 14491686
370
    25
100
AcDb2dPolyline
 66
     1
 10
0.0
 20
0.0
 30
0.0
  0
VERTEX
  5
20F
330
20E
100
AcDbEntity
  8
Layer 1
 62
    22
420
 14491686
370
    25
100
AcDbVertex
100
AcDb2dVertex
 10
547.7781058743402
 20
-131.9254529835117
 30
0.0
  0
VERTEX
  5
210
330
20E
100
AcDbEntity
  8
Layer 1
 62
    22
420
 14491686
370
    25
100
AcDbVertex
100
AcDb2dVertex
 10
547.7781058743402
 20
-211.1554144437389
 30
0.0
  0
SEQEND
  5
211
330
20E
100
AcDbEntity
  8
Layer 1
370
    25
  0
POLYLINE
  5
212
330
1F
100
AcDbEntity
  8
Layer 1
 62
    22
420
 14491686
370
    25
100
AcDb2dPolyline
 66
     1
 10
0.0
 20
0.0
 30
0.0
  0
VERTEX
  5
213
330
212
100
AcDbEntity
  8
Layer 1
 62
    22
420
 14491686
370
    25
100
AcDbVertex
100
AcDb2dVertex
 10
558.8974960625326
 20
-131.9254529835117
 30
0.0
  0
VERTEX
  5
214
330
212
100
AcDbEntity
  8
Layer 1
 62
    22
420
 14491686
370
    25
100
AcDbVertex
100
AcDb2dVertex
 10
558.8974960625326
 20
-211.1554144437389
 30
0.0
  0
SEQEND
  5
215
330
212
100
AcDbEntity
  8
Layer 1
370
    25
  0
POLYLINE
  5
216
330
1F
100
AcDbEntity
  8
Layer 1
 62
    22
420
 14491686
370
    25
100
AcDb2dPolyline
 66
     1
 10
0.0
 20
0.0
 30
0.0
  0
VERTEX
  5
217
330
216
100
AcDbEntity
  8
Layer 1
 62
    22
420
 14491686
370
    25
100
AcDbVertex
100
AcDb2dVertex
 10
570.016886250725
 20
-131.9254529835117
 30
0.0
  0
VERTEX
  5
218
330
216
100
AcDbEntity
  8
Layer 1
 62
    22
420
 14491686
370
    25
100
AcDbVertex
100
AcDb2dVertex
 10
570.016886250725
 20
-211.1554144437389
 30
0.0
  0
SEQEND
  5
219
330
216
100
AcDbEntity
  8
Layer 1
370
    25
  0
POLYLINE
  5
21A
330
1F
100
AcDbEntity
  8
Layer 1
 62
    22
420
 14491686
370
    25
100
AcDb2dPolyline
 66
     1
 10
0.0
 20
0.0
 30
0.0
  0
VERTEX
  5
21B
330
21A
100
AcDbEntity
  8
Layer 1
 62
    22
420
 14491686
370
    25
100
AcDbVertex
100
AcDb2dVertex
 10
581.1366209484659
 20
-131.9254529835117
 30
0.0
  0
VERTEX
  5
21C
330
21A
100
AcDbEntity
  8
Layer 1
 62
    22
420
 14491686
370
    25
100
AcDbVertex
100
AcDb2dVertex
 10
581.1366209484659
 20
-211.1554144437389
 30
0.0
  0
SEQEND
  5
21D
330
21A
100
AcDbEntity
  8
Layer 1
370
    25
  0
POLYLINE
  5
21E
330
1F
100
AcDbEntity
  8
Layer 1
 62
    22
420
 14491686
370
    25
100
AcDb2dPolyline
 66
     1
 10
0.0
 20
0.0
 30
0.0
  0
VERTEX
  5
21F
330
21E
100
AcDbEntity
  8
Layer 1
 62
    22
420
 14491686
370
    25
100
AcDbVertex
100
AcDb2dVertex
 10
592.2563556462068
 20
-131.9254529835117
 30
0.0
  0
VERTEX
  5
220
330
21E
100
AcDbEntity
  8
Layer 1
 62
    22
420
 14491686
370
    25
100
AcDbVertex
100
AcDb2dVertex
 10
592.2563556462068
 20
-211.1554144437389
 30
0.0
  0
SEQEND
  5
221
330
21E
100
AcDbEntity
  8
Layer 1
370
    25
  0
POLYLINE
  5
222
330
1F
100
AcDbEntity
  8
Layer 1
 62
    22
420
 14491686
370
    25
100
AcDb2dPolyline
 66
     1
 10
0.0
 20
0.0
 30
0.0
  0
VERTEX
  5
223
330
222
100
AcDbEntity
  8
Layer 1
 62
    22
420
 14491686
370
    25
100
AcDbVertex
100
AcDb2dVertex
 10
608.9375079857865
 20
-39.49250758561298
 30
0.0
  0
VERTEX
  5
224
330
222
100
AcDbEntity
  8
Layer 1
 62
    22
420
 14491686
370
    25
100
AcDbVertex
100
AcDb2dVertex
 10
608.9375079857865
 20
-86.74991588543058
 30
0.0
  0
SEQEND
  5
225
330
222
100
AcDbEntity
  8
Layer 1
370
    25
  0
POLYLINE
  5
226
330
1F
100
AcDbEntity
  8
Layer 1
 62
    22
420
 14491686
370
    25
100
AcDb2dPolyline
 66
     1
 10
0.0
 20
0.0
 30
0.0
  0
VERTEX
  5
227
330
226
100
AcDbEntity
  8
Layer 1
 62
    22
420
 14491686
370
    25
100
AcDbVertex
100
AcDb2dVertex
 10
608.9375079857865
 20
-92.31064450817235
 30
0.0
  0
VERTEX
  5
228
330
226
100
AcDbEntity
  8
Layer 1
 62
    22
420
 14491686
370
    25
100
AcDbVertex
100
AcDb2dVertex
 10
608.9375079857865
 20
-171.5409504779481
 30
0.0
  0
SEQEND
  5
229
330
226
100
AcDbEntity
  8
Layer 1
370
    25
  0
POLYLINE
  5
22A
330
1F
100
AcDbEntity
  8
Layer 1
 62
    22
420
 14491686
370
    25
100
AcDb2dPolyline
 66
     1
 10
0.0
 20
0.0
 30
0.0
  0
VERTEX
  5
22B
330
22A
100
AcDbEntity
  8
Layer 1
 62
    22
420
 14491686
370
    25
100
AcDbVertex
100
AcDb2dVertex
 10
608.9375079857865
 20
-177.1020236102384
 30
0.0
  0
VERTEX
  5
22C
330
22A
100
AcDbEntity
  8
Layer 1
 62
    22
420
 14491686
370
    25
100
AcDbVertex
100
AcDb2dVertex
 10
608.9375079857865
 20
-222.97346999634
 30
0.0
  0
SEQEND
  5
22D
330
22A
100
AcDbEntity
  8
Layer 1
370
    25
  0
POLYLINE
  5
22E
330
1F
100
AcDbEntity
  8
Layer 1
 62
    22
420
 14491686
370
    25
100
AcDb2dPolyline
 66
     1
 10
0.0
 20
0.0
 30
0.0
  0
VERTEX
  5
22F
330
22E
100
AcDbEntity
  8
Layer 1
 62
    22
420
 14491686
370
    25
100
AcDbVertex
100
AcDb2dVertex
 10
603.3778128916903
 20
-51.30367294724353
 30
0.0
  0
VERTEX
  5
230
330
22E
100
AcDbEntity
  8
Layer 1
 62
    22
420
 14491686
370
    25
100
AcDbVertex
100
AcDb2dVertex
 10
603.3778128916903
 20
-126.3647243607699
 30
0.0
  0
SEQEND
  5
231
330
22E
100
AcDbEntity
  8
Layer 1
370
    25
  0
POLYLINE
  5
232
330
1F
100
AcDbEntity
  8
Layer 1
 62
    22
420
 14491686
370
    25
100
AcDb2dPolyline
 66
     1
 10
0.0
 20
0.0
 30
0.0
  0
VERTEX
  5
233
330
232
100
AcDbEntity
  8
Layer 1
 62
    22
420
 14491686
370
    25
100
AcDbVertex
100
AcDb2dVertex
 10
603.3778128916903
 20
-131.9254529835117
 30
0.0
  0
VERTEX
  5
234
330
232
100
AcDbEntity
  8
Layer 1
 62
    22
420
 14491686
370
    25
100
AcDbVertex
100
AcDb2dVertex
 10
603.3778128916903
 20
-211.1554144437389
 30
0.0
  0
SEQEND
  5
235
330
232
100
AcDbEntity
  8
Layer 1
370
    25
  0
POLYLINE
  5
236
330
1F
100
AcDbEntity
  8
Layer 1
 62
    22
420
 14491686
370
    25
100
AcDb2dPolyline
 66
     1
 10
0.0
 20
0.0
 30
0.0
  0
VERTEX
  5
237
330
236
100
AcDbEntity
  8
Layer 1
 62
    22
420
 14491686
370
    25
100
AcDbVertex
100
AcDb2dVertex
 10
294.571339173319
 20
-39.49250758561298
 30
0.0
  0
VERTEX
  5
238
330
236
100
AcDbEntity
  8
Layer 1
 62
    22
420
 14491686
370
    25
100
AcDbVertex
100
AcDb2dVertex
 10
294.571339173319
 20
-86.74991588543058
 30
0.0
  0
SEQEND
  5
239
330
236
100
AcDbEntity
  8
Layer 1
370
    25
  0
POLYLINE
  5
23A
330
1F
100
AcDbEntity
  8
Layer 1
 62
    22
420
 14491686
370
    25
100
AcDb2dPolyline
 66
     1
 10
0.0
 20
0.0
 30
0.0
  0
VERTEX
  5
23B
330
23A
100
AcDbEntity
  8
Layer 1
 62
    22
420
 14491686
370
    25
100
AcDbVertex
100
AcDb2dVertex
 10
305.6907293615114
 20
-39.49250758561298
 30
0.0
  0
VERTEX
  5
23C
330
23A
100
AcDbEntity
  8
Layer 1
 62
    22
420
 14491686
370
    25
100
AcDbVertex
100
AcDb2dVertex
 10
305.6907293615114
 20
-86.74991588543058
 30
0.0
  0
SEQEND
  5
23D
330
23A
100
AcDbEntity
  8
Layer 1
370
    25
  0
POLYLINE
  5
23E
330
1F
100
AcDbEntity
  8
Layer 1
 62
    22
420
 14491686
370
    25
100
AcDb2dPolyline
 66
     1
 10
0.0
 20
0.0
 30
0.0
  0
VERTEX
  5
23F
330
23E
100
AcDbEntity
  8
Layer 1
 62
    22
420
 14491686
370
    25
100
AcDbVertex
100
AcDb2dVertex
 10
316.8104640592522
 20
-39.49250758561298
 30
0.0
  0
VERTEX
  5
240
330
23E
100
AcDbEntity
  8
Layer 1
 62
    22
420
 14491686
370
    25
100
AcDbVertex
100
AcDb2dVertex
 10
316.8104640592522
 20
-86.74991588543058
 30
0.0
  0
SEQEND
  5
241
330
23E
100
AcDbEntity
  8
Layer 1
370
    25
  0
POLYLINE
  5
242
330
1F
100
AcDbEntity
  8
Layer 1
 62
    22
420
 14491686
370
    25
100
AcDb2dPolyline
 66
     1
 10
0.0
 20
0.0
 30
0.0
  0
VERTEX
  5
243
330
242
100
AcDbEntity
  8
Layer 1
 62
    22
420
 14491686
370
    25
100
AcDbVertex
100
AcDb2dVertex
 10
327.9298542474446
 20
-39.49250758561298
 30
0.0
  0
VERTEX
  5
244
330
242
100
AcDbEntity
  8
Layer 1
 62
    22
420
 14491686
370
    25
100
AcDbVertex
100
AcDb2dVertex
 10
327.9298542474446
 20
-86.74991588543058
 30
0.0
  0
SEQEND
  5
245
330
242
100
AcDbEntity
  8
Layer 1
370
    25
  0
POLYLINE
  5
246
330
1F
100
AcDbEntity
  8
Layer 1
 62
    22
420
 14491686
370
    25
100
AcDb2dPolyline
 66
     1
 10
0.0
 20
0.0
 30
0.0
  0
VERTEX
  5
247
330
246
100
AcDbEntity
  8
Layer 1
 62
    22
420
 14491686
370
    25
100
AcDbVertex
100
AcDb2dVertex
 10
339.0495889451855
 20
-39.49250758561298
 30
0.0
  0
VERTEX
  5
248
330
246
100
AcDbEntity
  8
Layer 1
 62
    22
420
 14491686
370
    25
100
AcDbVertex
100
AcDb2dVertex
 10
339.0495889451855
 20
-86.74991588543058
 30
0.0
  0
SEQEND
  5
249
330
246
100
AcDbEntity
  8
Layer 1
370
    25
  0
POLYLINE
  5
24A
330
1F
100
AcDbEntity
  8
Layer 1
 62
    22
420
 14491686
370
    25
100
AcDb2dPolyline
 66
     1
 10
0.0
 20
0.0
 30
0.0
  0
VERTEX
  5
24B
330
24A
100
AcDbEntity
  8
Layer 1
 62
    22
420
 14491686
370
    25
100
AcDbVertex
100
AcDb2dVertex
 10
350.1689791333779
 20
-39.49250758561298
 30
0.0
  0
VERTEX
  5
24C
330
24A
100
AcDbEntity
  8
Layer 1
 62
    22
420
 14491686
370
    25
100
AcDbVertex
100
AcDb2dVertex
 10
350.1689791333779
 20
-86.74991588543058
 30
0.0
  0
SEQEND
  5
24D
330
24A
100
AcDbEntity
  8
Layer 1
370
    25
  0
POLYLINE
  5
24E
330
1F
100
AcDbEntity
  8
Layer 1
 62
    22
420
 14491686
370
    25
100
AcDb2dPolyline
 66
     1
 10
0.0
 20
0.0
 30
0.0
  0
VERTEX
  5
24F
330
24E
100
AcDbEntity
  8
Layer 1
 62
    22
420
 14491686
370
    25
100
AcDbVertex
100
AcDb2dVertex
 10
294.571339173319
 20
-92.31064450817235
 30
0.0
  0
VERTEX
  5
250
330
24E
100
AcDbEntity
  8
Layer 1
 62
    22
420
 14491686
370
    25
100
AcDbVertex
100
AcDb2dVertex
 10
294.571339173319
 20
-171.5409504779481
 30
0.0
  0
SEQEND
  5
251
330
24E
100
AcDbEntity
  8
Layer 1
370
    25
  0
POLYLINE
  5
252
330
1F
100
AcDbEntity
  8
Layer 1
 62
    22
420
 14491686
370
    25
100
AcDb2dPolyline
 66
     1
 10
0.0
 20
0.0
 30
0.0
  0
VERTEX
  5
253
330
252
100
AcDbEntity
  8
Layer 1
 62
    22
420
 14491686
370
    25
100
AcDbVertex
100
AcDb2dVertex
 10
305.6907293615114
 20
-92.31064450817235
 30
0.0
  0
VERTEX
  5
254
330
252
100
AcDbEntity
  8
Layer 1
 62
    22
420
 14491686
370
    25
100
AcDbVertex
100
AcDb2dVertex
 10
305.6907293615114
 20
-171.5409504779481
 30
0.0
  0
SEQEND
  5
255
330
252
100
AcDbEntity
  8
Layer 1
370
    25
  0
POLYLINE
  5
256
330
1F
100
AcDbEntity
  8
Layer 1
 62
    22
420
 14491686
370
    25
100
AcDb2dPolyline
 66
     1
 10
0.0
 20
0.0
 30
0.0
  0
VERTEX
  5
257
330
256
100
AcDbEntity
  8
Layer 1
 62
    22
420
 14491686
370
    25
100
AcDbVertex
100
AcDb2dVertex
 10
316.8104640592522
 20
-92.31064450817235
 30
0.0
  0
VERTEX
  5
258
330
256
100
AcDbEntity
  8
Layer 1
 62
    22
420
 14491686
370
    25
100
AcDbVertex
100
AcDb2dVertex
 10
316.8104640592522
 20
-171.5409504779481
 30
0.0
  0
SEQEND
  5
259
330
256
100
AcDbEntity
  8
Layer 1
370
    25
  0
POLYLINE
  5
25A
330
1F
100
AcDbEntity
  8
Layer 1
 62
    22
420
 14491686
370
    25
100
AcDb2dPolyline
 66
     1
 10
0.0
 20
0.0
 30
0.0
  0
VERTEX
  5
25B
330
25A
100
AcDbEntity
  8
Layer 1
 62
    22
420
 14491686
370
    25
100
AcDbVertex
100
AcDb2dVertex
 10
327.9298542474446
 20
-92.31064450817235
 30
0.0
  0
VERTEX
  5
25C
330
25A
100
AcDbEntity
  8
Layer 1
 62
    22
420
 14491686
370
    25
100
AcDbVertex
100
AcDb2dVertex
 10
327.9298542474446
 20
-171.5409504779481
 30
0.0
  0
SEQEND
  5
25D
330
25A
100
AcDbEntity
  8
Layer 1
370
    25
  0
POLYLINE
  5
25E
330
1F
100
AcDbEntity
  8
Layer 1
 62
    22
420
 14491686
370
    25
100
AcDb2dPolyline
 66
     1
 10
0.0
 20
0.0
 30
0.0
  0
VERTEX
  5
25F
330
25E
100
AcDbEntity
  8
Layer 1
 62
    22
420
 14491686
370
    25
100
AcDbVertex
100
AcDb2dVertex
 10
339.0495889451855
 20
-92.31064450817235
 30
0.0
  0
VERTEX
  5
260
330
25E
100
AcDbEntity
  8
Layer 1
 62
    22
420
 14491686
370
    25
100
AcDbVertex
100
AcDb2dVertex
 10
339.0495889451855
 20
-171.5409504779481
 30
0.0
  0
SEQEND
  5
261
330
25E
100
AcDbEntity
  8
Layer 1
370
    25
  0
POLYLINE
  5
262
330
1F
100
AcDbEntity
  8
Layer 1
 62
    22
420
 14491686
370
    25
100
AcDb2dPolyline
 66
     1
 10
0.0
 20
0.0
 30
0.0
  0
VERTEX
  5
263
330
262
100
AcDbEntity
  8
Layer 1
 62
    22
420
 14491686
370
    25
100
AcDbVertex
100
AcDb2dVertex
 10
350.1689791333779
 20
-92.31064450817235
 30
0.0
  0
VERTEX
  5
264
330
262
100
AcDbEntity
  8
Layer 1
 62
    22
420
 14491686
370
    25
100
AcDbVertex
100
AcDb2dVertex
 10
350.1689791333779
 20
-171.5409504779481
 30
0.0
  0
SEQEND
  5
265
330
262
100
AcDbEntity
  8
Layer 1
370
    25
  0
POLYLINE
  5
266
330
1F
100
AcDbEntity
  8
Layer 1
 62
    22
420
 14491686
370
    25
100
AcDb2dPolyline
 66
     1
 10
0.0
 20
0.0
 30
0.0
  0
VERTEX
  5
267
330
266
100
AcDbEntity
  8
Layer 1
 62
    22
420
 14491686
370
    25
100
AcDbVertex
100
AcDb2dVertex
 10
294.571339173319
 20
-177.1020236102384
 30
0.0
  0
VERTEX
  5
268
330
266
100
AcDbEntity
  8
Layer 1
 62
    22
420
 14491686
370
    25
100
AcDbVertex
100
AcDb2dVertex
 10
294.571339173319
 20
-222.97346999634
 30
0.0
  0
SEQEND
  5
269
330
266
100
AcDbEntity
  8
Layer 1
370
    25
  0
POLYLINE
  5
26A
330
1F
100
AcDbEntity
  8
Layer 1
 62
    22
420
 14491686
370
    25
100
AcDb2dPolyline
 66
     1
 10
0.0
 20
0.0
 30
0.0
  0
VERTEX
  5
26B
330
26A
100
AcDbEntity
  8
Layer 1
 62
    22
420
 14491686
370
    25
100
AcDbVertex
100
AcDb2dVertex
 10
305.6907293615114
 20
-177.1020236102384
 30
0.0
  0
VERTEX
  5
26C
330
26A
100
AcDbEntity
  8
Layer 1
 62
    22
420
 14491686
370
    25
100
AcDbVertex
100
AcDb2dVertex
 10
305.6907293615114
 20
-222.97346999634
 30
0.0
  0
SEQEND
  5
26D
330
26A
100
AcDbEntity
  8
Layer 1
370
    25
  0
POLYLINE
  5
26E
330
1F
100
AcDbEntity
  8
Layer 1
 62
    22
420
 14491686
370
    25
100
AcDb2dPolyline
 66
     1
 10
0.0
 20
0.0
 30
0.0
  0
VERTEX
  5
26F
330
26E
100
AcDbEntity
  8
Layer 1
 62
    22
420
 14491686
370
    25
100
AcDbVertex
100
AcDb2dVertex
 10
316.8104640592522
 20
-177.1020236102384
 30
0.0
  0
VERTEX
  5
270
330
26E
100
AcDbEntity
  8
Layer 1
 62
    22
420
 14491686
370
    25
100
AcDbVertex
100
AcDb2dVertex
 10
316.8104640592522
 20
-222.97346999634
 30
0.0
  0
SEQEND
  5
271
330
26E
100
AcDbEntity
  8
Layer 1
370
    25
  0
POLYLINE
  5
272
330
1F
100
AcDbEntity
  8
Layer 1
 62
    22
420
 14491686
370
    25
100
AcDb2dPolyline
 66
     1
 10
0.0
 20
0.0
 30
0.0
  0
VERTEX
  5
273
330
272
100
AcDbEntity
  8
Layer 1
 62
    22
420
 14491686
370
    25
100
AcDbVertex
100
AcDb2dVertex
 10
327.9298542474446
 20
-177.1020236102384
 30
0.0
  0
VERTEX
  5
274
330
272
100
AcDbEntity
  8
Layer 1
 62
    22
420
 14491686
370
    25
100
AcDbVertex
100
AcDb2dVertex
 10
327.9298542474446
 20
-222.97346999634
 30
0.0
  0
SEQEND
  5
275
330
272
100
AcDbEntity
  8
Layer 1
370
    25
  0
POLYLINE
  5
276
330
1F
100
AcDbEntity
  8
Layer 1
 62
    22
420
 14491686
370
    25
100
AcDb2dPolyline
 66
     1
 10
0.0
 20
0.0
 30
0.0
  0
VERTEX
  5
277
330
276
100
AcDbEntity
  8
Layer 1
 62
    22
420
 14491686
370
    25
100
AcDbVertex
100
AcDb2dVertex
 10
339.0495889451855
 20
-177.1020236102384
 30
0.0
  0
VERTEX
  5
278
330
276
100
AcDbEntity
  8
Layer 1
 62
    22
420
 14491686
370
    25
100
AcDbVertex
100
AcDb2dVertex
 10
339.0495889451855
 20
-222.97346999634
 30
0.0
  0
SEQEND
  5
279
330
276
100
AcDbEntity
  8
Layer 1
370
    25
  0
POLYLINE
  5
27A
330
1F
100
AcDbEntity
  8
Layer 1
 62
    22
420
 14491686
370
    25
100
AcDb2dPolyline
 66
     1
 10
0.0
 20
0.0
 30
0.0
  0
VERTEX
  5
27B
330
27A
100
AcDbEntity
  8
Layer 1
 62
    22
420
 14491686
370
    25
100
AcDbVertex
100
AcDb2dVertex
 10
350.1689791333779
 20
-177.1020236102384
 30
0.0
  0
VERTEX
  5
27C
330
27A
100
AcDbEntity
  8
Layer 1
 62
    22
420
 14491686
370
    25
100
AcDbVertex
100
AcDb2dVertex
 10
350.1689791333779
 20
-222.97346999634
 30
0.0
  0
SEQEND
  5
27D
330
27A
100
AcDbEntity
  8
Layer 1
370
    25
  0
POLYLINE
  5
27E
330
1F
100
AcDbEntity
  8
Layer 1
 62
    22
420
 14491686
370
    25
100
AcDb2dPolyline
 66
     1
 10
0.0
 20
0.0
 30
0.0
  0
VERTEX
  5
27F
330
27E
100
AcDbEntity
  8
Layer 1
 62
    22
420
 14491686
370
    25
100
AcDbVertex
100
AcDb2dVertex
 10
300.1310342674151
 20
-51.30367294724353
 30
0.0
  0
VERTEX
  5
280
330
27E
100
AcDbEntity
  8
Layer 1
 62
    22
420
 14491686
370
    25
100
AcDbVertex
100
AcDb2dVertex
 10
300.1310342674151
 20
-126.3647243607699
 30
0.0
  0
SEQEND
  5
281
330
27E
100
AcDbEntity
  8
Layer 1
370
    25
  0
POLYLINE
  5
282
330
1F
100
AcDbEntity
  8
Layer 1
 62
    22
420
 14491686
370
    25
100
AcDb2dPolyline
 66
     1
 10
0.0
 20
0.0
 30
0.0
  0
VERTEX
  5
283
330
282
100
AcDbEntity
  8
Layer 1
 62
    22
420
 14491686
370
    25
100
AcDbVertex
100
AcDb2dVertex
 10
311.2504244556076
 20
-51.30367294724353
 30
0.0
  0
VERTEX
  5
284
330
282
100
AcDbEntity
  8
Layer 1
 62
    22
420
 14491686
370
    25
100
AcDbVertex
100
AcDb2dVertex
 10
311.2504244556076
 20
-126.3647243607699
 30
0.0
  0
SEQEND
  5
285
330
282
100
AcDbEntity
  8
Layer 1
370
    25
  0
POLYLINE
  5
286
330
1F
100
AcDbEntity
  8
Layer 1
 62
    22
420
 14491686
370
    25
100
AcDb2dPolyline
 66
     1
 10
0.0
 20
0.0
 30
0.0
  0
VERTEX
  5
287
330
286
100
AcDbEntity
  8
Layer 1
 62
    22
420
 14491686
370
    25
100
AcDbVertex
100
AcDb2dVertex
 10
322.3701591533484
 20
-51.30367294724353
 30
0.0
  0
VERTEX
  5
288
330
286
100
AcDbEntity
  8
Layer 1
 62
    22
420
 14491686
370
    25
100
AcDbVertex
100
AcDb2dVertex
 10
322.3701591533484
 20
-126.3647243607699
 30
0.0
  0
SEQEND
  5
289
330
286
100
AcDbEntity
  8
Layer 1
370
    25
  0
POLYLINE
  5
28A
330
1F
100
AcDbEntity
  8
Layer 1
 62
    22
420
 14491686
370
    25
100
AcDb2dPolyline
 66
     1
 10
0.0
 20
0.0
 30
0.0
  0
VERTEX
  5
28B
330
28A
100
AcDbEntity
  8
Layer 1
 62
    22
420
 14491686
370
    25
100
AcDbVertex
100
AcDb2dVertex
 10
333.4895493415408
 20
-51.30367294724353
 30
0.0
  0
VERTEX
  5
28C
330
28A
100
AcDbEntity
  8
Layer 1
 62
    22
420
 14491686
370
    25
100
AcDbVertex
100
AcDb2dVertex
 10
333.4895493415408
 20
-126.3647243607699
 30
0.0
  0
SEQEND
  5
28D
330
28A
100
AcDbEntity
  8
Layer 1
370
    25
  0
POLYLINE
  5
28E
330
1F
100
AcDbEntity
  8
Layer 1
 62
    22
420
 14491686
370
    25
100
AcDb2dPolyline
 66
     1
 10
0.0
 20
0.0
 30
0.0
  0
VERTEX
  5
28F
330
28E
100
AcDbEntity
  8
Layer 1
 62
    22
420
 14491686
370
    25
100
AcDbVertex
100
AcDb2dVertex
 10
344.6092840392817
 20
-51.30367294724353
 30
0.0
  0
VERTEX
  5
290
330
28E
100
AcDbEntity
  8
Layer 1
 62
    22
420
 14491686
370
    25
100
AcDbVertex
100
AcDb2dVertex
 10
344.6092840392817
 20
-126.3647243607699
 30
0.0
  0
SEQEND
  5
291
330
28E
100
AcDbEntity
  8
Layer 1
370
    25
  0
POLYLINE
  5
292
330
1F
100
AcDbEntity
  8
Layer 1
 62
    22
420
 14491686
370
    25
100
AcDb2dPolyline
 66
     1
 10
0.0
 20
0.0
 30
0.0
  0
VERTEX
  5
293
330
292
100
AcDbEntity
  8
Layer 1
 62
    22
420
 14491686
370
    25
100
AcDbVertex
100
AcDb2dVertex
 10
300.1310342674151
 20
-131.9254529835117
 30
0.0
  0
VERTEX
  5
294
330
292
100
AcDbEntity
  8
Layer 1
 62
    22
420
 14491686
370
    25
100
AcDbVertex
100
AcDb2dVertex
 10
300.1310342674151
 20
-211.1554144437389
 30
0.0
  0
SEQEND
  5
295
330
292
100
AcDbEntity
  8
Layer 1
370
    25
  0
POLYLINE
  5
296
330
1F
100
AcDbEntity
  8
Layer 1
 62
    22
420
 14491686
370
    25
100
AcDb2dPolyline
 66
     1
 10
0.0
 20
0.0
 30
0.0
  0
VERTEX
  5
297
330
296
100
AcDbEntity
  8
Layer 1
 62
    22
420
 14491686
370
    25
100
AcDbVertex
100
AcDb2dVertex
 10
289.0112995696743
 20
-51.30367294724353
 30
0.0
  0
VERTEX
  5
298
330
296
100
AcDbEntity
  8
Layer 1
 62
    22
420
 14491686
370
    25
100
AcDbVertex
100
AcDb2dVertex
 10
289.0112995696743
 20
-126.3647243607699
 30
0.0
  0
SEQEND
  5
299
330
296
100
AcDbEntity
  8
Layer 1
370
    25
  0
POLYLINE
  5
29A
330
1F
100
AcDbEntity
  8
Layer 1
 62
    22
420
 14491686
370
    25
100
AcDb2dPolyline
 66
     1
 10
0.0
 20
0.0
 30
0.0
  0
VERTEX
  5
29B
330
29A
100
AcDbEntity
  8
Layer 1
 62
    22
420
 14491686
370
    25
100
AcDbVertex
100
AcDb2dVertex
 10
289.0112995696743
 20
-131.9254529835117
 30
0.0
  0
VERTEX
  5
29C
330
29A
100
AcDbEntity
  8
Layer 1
 62
    22
420
 14491686
370
    25
100
AcDbVertex
100
AcDb2dVertex
 10
289.0112995696743
 20
-211.1554144437389
 30
0.0
  0
SEQEND
  5
29D
330
29A
100
AcDbEntity
  8
Layer 1
370
    25
  0
POLYLINE
  5
29E
330
1F
100
AcDbEntity
  8
Layer 1
 62
    22
420
 14491686
370
    25
100
AcDb2dPolyline
 66
     1
 10
0.0
 20
0.0
 30
0.0
  0
VERTEX
  5
29F
330
29E
100
AcDbEntity
  8
Layer 1
 62
    22
420
 14491686
370
    25
100
AcDbVertex
100
AcDb2dVertex
 10
311.2504244556076
 20
-131.9254529835117
 30
0.0
  0
VERTEX
  5
2A0
330
29E
100
AcDbEntity
  8
Layer 1
 62
    22
420
 14491686
370
    25
100
AcDbVertex
100
AcDb2dVertex
 10
311.2504244556076
 20
-211.1554144437389
 30
0.0
  0
SEQEND
  5
2A1
330
29E
100
AcDbEntity
  8
Layer 1
370
    25
  0
POLYLINE
  5
2A2
330
1F
100
AcDbEntity
  8
Layer 1
 62
    22
420
 14491686
370
    25
100
AcDb2dPolyline
 66
     1
 10
0.0
 20
0.0
 30
0.0
  0
VERTEX
  5
2A3
330
2A2
100
AcDbEntity
  8
Layer 1
 62
    22
420
 14491686
370
    25
100
AcDbVertex
100
AcDb2dVertex
 10
322.3701591533484
 20
-131.9254529835117
 30
0.0
  0
VERTEX
  5
2A4
330
2A2
100
AcDbEntity
  8
Layer 1
 62
    22
420
 14491686
370
    25
100
AcDbVertex
100
AcDb2dVertex
 10
322.3701591533484
 20
-211.1554144437389
 30
0.0
  0
SEQEND
  5
2A5
330
2A2
100
AcDbEntity
  8
Layer 1
370
    25
  0
POLYLINE
  5
2A6
330
1F
100
AcDbEntity
  8
Layer 1
 62
    22
420
 14491686
370
    25
100
AcDb2dPolyline
 66
     1
 10
0.0
 20
0.0
 30
0.0
  0
VERTEX
  5
2A7
330
2A6
100
AcDbEntity
  8
Layer 1
 62
    22
420
 14491686
370
    25
100
AcDbVertex
100
AcDb2dVertex
 10
333.4895493415408
 20
-131.9254529835117
 30
0.0
  0
VERTEX
  5
2A8
330
2A6
100
AcDbEntity
  8
Layer 1
 62
    22
420
 14491686
370
    25
100
AcDbVertex
100
AcDb2dVertex
 10
333.4895493415408
 20
-211.1554144437389
 30
0.0
  0
SEQEND
  5
2A9
330
2A6
100
AcDbEntity
  8
Layer 1
370
    25
  0
POLYLINE
  5
2AA
330
1F
100
AcDbEntity
  8
Layer 1
 62
    22
420
 14491686
370
    25
100
AcDb2dPolyline
 66
     1
 10
0.0
 20
0.0
 30
0.0
  0
VERTEX
  5
2AB
330
2AA
100
AcDbEntity
  8
Layer 1
 62
    22
420
 14491686
370
    25
100
AcDbVertex
100
AcDb2dVertex
 10
344.6092840392817
 20
-131.9254529835117
 30
0.0
  0
VERTEX
  5
2AC
330
2AA
100
AcDbEntity
  8
Layer 1
 62
    22
420
 14491686
370
    25
100
AcDbVertex
100
AcDb2dVertex
 10
344.6092840392817
 20
-211.1554144437389
 30
0.0
  0
SEQEND
  5
2AD
330
2AA
100
AcDbEntity
  8
Layer 1
370
    25
  0
POLYLINE
  5
2AE
330
1F
100
AcDbEntity
  8
Layer 1
 62
    22
420
 14491686
370
    25
100
AcDb2dPolyline
 66
     1
 10
0.0
 20
0.0
 30
0.0
  0
VERTEX
  5
2AF
330
2AE
100
AcDbEntity
  8
Layer 1
 62
    22
420
 14491686
370
    25
100
AcDbVertex
100
AcDb2dVertex
 10
361.2904363788614
 20
-39.49250758561298
 30
0.0
  0
VERTEX
  5
2B0
330
2AE
100
AcDbEntity
  8
Layer 1
 62
    22
420
 14491686
370
    25
100
AcDbVertex
100
AcDb2dVertex
 10
361.2904363788614
 20
-86.74991588543058
 30
0.0
  0
SEQEND
  5
2B1
330
2AE
100
AcDbEntity
  8
Layer 1
370
    25
  0
POLYLINE
  5
2B2
330
1F
100
AcDbEntity
  8
Layer 1
 62
    22
420
 14491686
370
    25
100
AcDb2dPolyline
 66
     1
 10
0.0
 20
0.0
 30
0.0
  0
VERTEX
  5
2B3
330
2B2
100
AcDbEntity
  8
Layer 1
 62
    22
420
 14491686
370
    25
100
AcDbVertex
100
AcDb2dVertex
 10
361.2904363788614
 20
-92.31064450817235
 30
0.0
  0
VERTEX
  5
2B4
330
2B2
100
AcDbEntity
  8
Layer 1
 62
    22
420
 14491686
370
    25
100
AcDbVertex
100
AcDb2dVertex
 10
361.2904363788614
 20
-171.5409504779481
 30
0.0
  0
SEQEND
  5
2B5
330
2B2
100
AcDbEntity
  8
Layer 1
370
    25
  0
POLYLINE
  5
2B6
330
1F
100
AcDbEntity
  8
Layer 1
 62
    22
420
 14491686
370
    25
100
AcDb2dPolyline
 66
     1
 10
0.0
 20
0.0
 30
0.0
  0
VERTEX
  5
2B7
330
2B6
100
AcDbEntity
  8
Layer 1
 62
    22
420
 14491686
370
    25
100
AcDbVertex
100
AcDb2dVertex
 10
361.2904363788614
 20
-177.1020236102384
 30
0.0
  0
VERTEX
  5
2B8
330
2B6
100
AcDbEntity
  8
Layer 1
 62
    22
420
 14491686
370
    25
100
AcDbVertex
100
AcDb2dVertex
 10
361.2904363788614
 20
-222.97346999634
 30
0.0
  0
SEQEND
  5
2B9
330
2B6
100
AcDbEntity
  8
Layer 1
370
    25
  0
POLYLINE
  5
2BA
330
1F
100
AcDbEntity
  8
Layer 1
 62
    22
420
 14491686
370
    25
100
AcDb2dPolyline
 66
     1
 10
0.0
 20
0.0
 30
0.0
  0
VERTEX
  5
2BB
330
2BA
100
AcDbEntity
  8
Layer 1
 62
    22
420
 14491686
370
    25
100
AcDbVertex
100
AcDb2dVertex
 10
355.7307412847653
 20
-51.30367294724353
 30
0.0
  0
VERTEX
  5
2BC
330
2BA
100
AcDbEntity
  8
Layer 1
 62
    22
420
 14491686
370
    25
100
AcDbVertex
100
AcDb2dVertex
 10
355.7307412847653
 20
-126.3647243607699
 30
0.0
  0
SEQEND
  5
2BD
330
2BA
100
AcDbEntity
  8
Layer 1
370
    25
  0
POLYLINE
  5
2BE
330
1F
100
AcDbEntity
  8
Layer 1
 62
    22
420
 14491686
370
    25
100
AcDb2dPolyline
 66
     1
 10
0.0
 20
0.0
 30
0.0
  0
VERTEX
  5
2BF
330
2BE
100
AcDbEntity
  8
Layer 1
 62
    22
420
 14491686
370
    25
100
AcDbVertex
100
AcDb2dVertex
 10
355.7307412847653
 20
-131.9254529835117
 30
0.0
  0
VERTEX
  5
2C0
330
2BE
100
AcDbEntity
  8
Layer 1
 62
    22
420
 14491686
370
    25
100
AcDbVertex
100
AcDb2dVertex
 10
355.7307412847653
 20
-211.1554144437389
 30
0.0
  0
SEQEND
  5
2C1
330
2BE
100
AcDbEntity
  8
Layer 1
370
    25
  0
POLYLINE
  5
2C2
330
1F
100
AcDbEntity
  8
Layer 1
 62
    22
420
 14491686
370
    25
100
AcDb2dPolyline
 66
     1
 10
0.0
 20
0.0
 30
0.0
  0
VERTEX
  5
2C3
330
2C2
100
AcDbEntity
  8
Layer 1
 62
    22
420
 14491686
370
    25
100
AcDbVertex
100
AcDb2dVertex
 10
366.8501314729576
 20
-51.30367294724353
 30
0.0
  0
VERTEX
  5
2C4
330
2C2
100
AcDbEntity
  8
Layer 1
 62
    22
420
 14491686
370
    25
100
AcDbVertex
100
AcDb2dVertex
 10
366.8501314729576
 20
-126.3647243607699
 30
0.0
  0
SEQEND
  5
2C5
330
2C2
100
AcDbEntity
  8
Layer 1
370
    25
  0
POLYLINE
  5
2C6
330
1F
100
AcDbEntity
  8
Layer 1
 62
    22
420
 14491686
370
    25
100
AcDb2dPolyline
 66
     1
 10
0.0
 20
0.0
 30
0.0
  0
VERTEX
  5
2C7
330
2C6
100
AcDbEntity
  8
Layer 1
 62
    22
420
 14491686
370
    25
100
AcDbVertex
100
AcDb2dVertex
 10
366.8501314729576
 20
-131.9254529835117
 30
0.0
  0
VERTEX
  5
2C8
330
2C6
100
AcDbEntity
  8
Layer 1
 62
    22
420
 14491686
370
    25
100
AcDbVertex
100
AcDb2dVertex
 10
366.8501314729576
 20
-211.1554144437389
 30
0.0
  0
SEQEND
  5
2C9
330
2C6
100
AcDbEntity
  8
Layer 1
370
    25
  0
POLYLINE
  5
2CA
330
1F
100
AcDbEntity
  8
Layer 1
 62
     7
420
 16777215
370
    25
100
AcDb2dPolyline
 66
     1
 10
0.0
 20
0.0
 30
0.0
  0
VERTEX
  5
2CB
330
2CA
100
AcDbEntity
  8
Layer 1
 62
     7
420
 16777215
370
    25
100
AcDbVertex
100
AcDb2dVertex
 10
720.7856335003592
 20
-85.35430770435588
 30
0.0
  0
VERTEX
  5
2CC
330
2CA
100
AcDbEntity
  8
Layer 1
 62
     7
420
 16777215
370
    25
100
AcDbVertex
100
AcDb2dVertex
 10
719.2856389260814
 20
-89.5245957892508
 30
0.0
  0
VERTEX
  5
2CD
330
2CA
100
AcDbEntity
  8
Layer 1
 62
     7
420
 16777215
370
    25
100
AcDbVertex
100
AcDb2dVertex
 10
739.2675372500789
 20
-91.0263129112712
 30
0.0
  0
VERTEX
  5
2CE
330
2CA
100
AcDbEntity
  8
Layer 1
 62
     7
420
 16777215
370
    25
100
AcDbVertex
100
AcDb2dVertex
 10
718.8105602586654
 20
-90.27459307638969
 30
0.0
  0
VERTEX
  5
2CF
330
2CA
100
AcDbEntity
  8
Layer 1
 62
     7
420
 16777215
370
    25
100
AcDbVertex
100
AcDb2dVertex
 10
718.3103323942072
 20
-89.63656139252141
 30
0.0
  0
VERTEX
  5
2D0
330
2CA
100
AcDbEntity
  8
Layer 1
 62
     7
420
 16777215
370
    25
100
AcDbVertex
100
AcDb2dVertex
 10
717.4204642303671
 20
-86.8563693359248
 30
0.0
  0
VERTEX
  5
2D1
330
2CA
100
AcDbEntity
  8
Layer 1
 62
     7
420
 16777215
370
    25
100
AcDbVertex
100
AcDb2dVertex
 10
717.4204642303671
 20
-85.67814667996936
 30
0.0
  0
VERTEX
  5
2D2
330
2CA
100
AcDbEntity
  8
Layer 1
 62
     7
420
 16777215
370
    25
100
AcDbVertex
100
AcDb2dVertex
 10
717.4204642303671
 20
-85.46558428852944
 30
0.0
  0
VERTEX
  5
2D3
330
2CA
100
AcDbEntity
  8
Layer 1
 62
     7
420
 16777215
370
    25
100
AcDbVertex
100
AcDb2dVertex
 10
717.4204642303671
 20
-80.90565590425275
 30
0.0
  0
VERTEX
  5
2D4
330
2CA
100
AcDbEntity
  8
Layer 1
 62
     7
420
 16777215
370
    25
100
AcDbVertex
100
AcDb2dVertex
 10
717.4204642303671
 20
-72.77798663545134
 30
0.0
  0
VERTEX
  5
2D5
330
2CA
100
AcDbEntity
  8
Layer 1
 62
     7
420
 16777215
370
    25
100
AcDbVertex
100
AcDb2dVertex
 10
717.4204642303671
 20
-44.88821613461128
 30
0.0
  0
VERTEX
  5
2D6
330
2CA
100
AcDbEntity
  8
Layer 1
 62
     7
420
 16777215
370
    25
100
AcDbVertex
100
AcDb2dVertex
 10
561.7369437614755
 20
-44.88821613461128
 30
0.0
  0
VERTEX
  5
2D7
330
2CA
100
AcDbEntity
  8
Layer 1
 62
     7
420
 16777215
370
    25
100
AcDbVertex
100
AcDb2dVertex
 10
319.8714313978967
 20
-44.88821613461128
 30
0.0
  0
VERTEX
  5
2D8
330
2CA
100
AcDbEntity
  8
Layer 1
 62
     7
420
 16777215
370
    25
100
AcDbVertex
100
AcDb2dVertex
 10
51.86539576611352
 20
-44.88821613461128
 30
0.0
  0
VERTEX
  5
2D9
330
2CA
100
AcDbEntity
  8
Layer 1
 62
     7
420
 16777215
370
    25
100
AcDbVertex
100
AcDb2dVertex
 10
51.86539576611352
 20
-217.5612249890125
 30
0.0
  0
VERTEX
  5
2DA
330
2CA
100
AcDbEntity
  8
Layer 1
 62
     7
420
 16777215
370
    25
100
AcDbVertex
100
AcDb2dVertex
 10
319.8714313978967
 20
-217.5612249890125
 30
0.0
  0
VERTEX
  5
2DB
330
2CA
100
AcDbEntity
  8
Layer 1
 62
     7
420
 16777215
370
    25
100
AcDbVertex
100
AcDb2dVertex
 10
561.7369437614755
 20
-217.5612249890125
 30
0.0
  0
VERTEX
  5
2DC
330
2CA
100
AcDbEntity
  8
Layer 1
 62
     7
420
 16777215
370
    25
100
AcDbVertex
100
AcDb2dVertex
 10
717.4204642303671
 20
-217.5612249890125
 30
0.0
  0
VERTEX
  5
2DD
330
2CA
100
AcDbEntity
  8
Layer 1
 62
     7
420
 16777215
370
    25
100
AcDbVertex
100
AcDb2dVertex
 10
717.4204642303671
 20
-189.5422634074756
 30
0.0
  0
VERTEX
  5
2DE
330
2CA
100
AcDbEntity
  8
Layer 1
 62
     7
420
 16777215
370
    25
100
AcDbVertex
100
AcDb2dVertex
 10
717.4204642303671
 20
-181.5441297289195
 30
0.0
  0
VERTEX
  5
2DF
330
2CA
100
AcDbEntity
  8
Layer 1
 62
     7
420
 16777215
370
    25
100
AcDbVertex
100
AcDb2dVertex
 10
717.4204642303671
 20
-181.4828070292821
 30
0.0
  0
VERTEX
  5
2E0
330
2CA
100
AcDbEntity
  8
Layer 1
 62
     7
420
 16777215
370
    25
100
AcDbVertex
100
AcDb2dVertex
 10
717.4204642303671
 20
-176.9717990008959
 30
0.0
  0
VERTEX
  5
2E1
330
2CA
100
AcDbEntity
  8
Layer 1
 62
     7
420
 16777215
370
    25
100
AcDbVertex
100
AcDb2dVertex
 10
717.4204642303671
 20
-176.641069834312
 30
0.0
  0
VERTEX
  5
2E2
330
2CA
100
AcDbEntity
  8
Layer 1
 62
     7
420
 16777215
370
    25
100
AcDbVertex
100
AcDb2dVertex
 10
717.4204642303671
 20
-175.5813584630491
 30
0.0
  0
VERTEX
  5
2E3
330
2CA
100
AcDbEntity
  8
Layer 1
 62
     7
420
 16777215
370
    25
100
AcDbVertex
100
AcDb2dVertex
 10
718.3103323942072
 20
-172.8004773873554
 30
0.0
  0
VERTEX
  5
2E4
330
2CA
100
AcDbEntity
  8
Layer 1
 62
     7
420
 16777215
370
    25
100
AcDbVertex
100
AcDb2dVertex
 10
718.8105602586654
 20
-172.1624457034872
 30
0.0
  0
VERTEX
  5
2E5
330
2CA
100
AcDbEntity
  8
Layer 1
 62
     7
420
 16777215
370
    25
100
AcDbVertex
100
AcDb2dVertex
 10
739.2675372500789
 20
-171.4107258686057
 30
0.0
  0
VERTEX
  5
2E6
330
2CA
100
AcDbEntity
  8
Layer 1
 62
     7
420
 16777215
370
    25
100
AcDbVertex
100
AcDb2dVertex
 10
719.2856389260814
 20
-172.9134765192716
 30
0.0
  0
VERTEX
  5
2E7
330
2CA
100
AcDbEntity
  8
Layer 1
 62
     7
420
 16777215
370
    25
100
AcDbVertex
100
AcDb2dVertex
 10
720.7856335003592
 20
-177.083420094618
 30
0.0
  0
VERTEX
  5
2E8
330
2CA
100
AcDbEntity
  8
Layer 1
 62
     7
420
 16777215
370
    25
100
AcDbVertex
100
AcDb2dVertex
 10
753.29045391324
 20
-173.1911512153828
 30
0.0
  0
VERTEX
  5
2E9
330
2CA
100
AcDbEntity
  8
Layer 1
 62
     7
420
 16777215
370
    25
100
AcDbVertex
100
AcDb2dVertex
 10
753.29045391324
 20
-89.24588756449408
 30
0.0
  0
VERTEX
  5
2EA
330
2CA
100
AcDbEntity
  8
Layer 1
 62
     7
420
 16777215
370
    25
100
AcDbVertex
100
AcDb2dVertex
 10
720.7856335003592
 20
-85.35430770435588
 30
0.0
  0
SEQEND
  5
2EB
330
2CA
100
AcDbEntity
  8
Layer 1
370
    25
  0
ENDSEC
  0
SECTION
  2
OBJECTS
  0
DICTIONARY
  5
C
330
0
100
AcDbDictionary
281
     1
  3
ACAD_GROUP
350
D
  3
ACAD_LAYOUT
350
1A
  3
ACAD_MLINESTYLE
350
17
  3
ACAD_PLOTSETTINGS
350
19
  3
ACAD_PLOTSTYLENAME
350
E
  3
ACAD_TABLESTYLE
350
2EC
  3
ACAD_VISUALSTYLE
350
2A
  0
DICTIONARY
  5
D
102
{ACAD_REACTORS
330
C
102
}
330
C
100
AcDbDictionary
281
     1
  0
DICTIONARY
  5
1A
102
{ACAD_REACTORS
330
C
102
}
330
C
100
AcDbDictionary
281
     1
  3
Layout1
350
1E
  3
Layout2
350
26
  3
Model
350
22
  0
DICTIONARY
  5
17
102
{ACAD_REACTORS
330
C
102
}
330
C
100
AcDbDictionary
281
     1
  3
Standard
350
18
  0
DICTIONARY
  5
19
102
{ACAD_REACTORS
330
C
102
}
330
C
100
AcDbDictionary
281
     1
  0
ACDBDICTIONARYWDFLT
  5
E
102
{ACAD_REACTORS
330
C
102
}
330
C
100
AcDbDictionary
281
     1
  3
Normal
350
F
100
AcDbDictionaryWithDefault
340
F
  0
DICTIONARY
  5
2EC
102
{ACAD_REACTORS
330
C
102
}
330
C
100
AcDbDictionary
281
     1
  0
DICTIONARY
  5
2A
102
{ACAD_REACTORS
330
C
102
}
330
C
100
AcDbDictionary
281
     1
  3
2dWireframe
350
2F
  3
3D Hidden
350
31
  3
3dWireframe
350
30
  3
Basic
350
32
  3
Brighten
350
36
  3
ColorChange
350
3A
  3
Conceptual
350
34
  3
Dim
350
35
  3
Facepattern
350
39
  3
Flat
350
2B
  3
FlatWithEdges
350
2C
  3
Gouraud
350
2D
  3
GouraudWithEdges
350
2E
  3
Linepattern
350
38
  3
Realistic
350
33
  3
Thicken
350
37
  0
LAYOUT
  5
1E
102
{ACAD_REACTORS
330
1A
102
}
330
1A
100
AcDbPlotSettings
  1

  2
none_device
  4

  6

 40
0.0
 41
0.0
 42
0.0
 43
0.0
 44
0.0
 45
0.0
 46
0.0
 47
0.0
 48
0.0
 49
0.0
140
0.0
141
0.0
142
1.0
143
1.0
 70
   688
 72
     0
 73
     0
 74
     5
  7

 75
    16
 76
     0
 77
     2
 78
   300
147
1.0
148
0.0
149
0.0
100
AcDbLayout
  1
Layout1
 70
     1
 71
     1
 10
0.0
 20
0.0
 11
12.0
 21
9.0
 12
0.0
 22
0.0
 32
0.0
 14
1.000000000000000E+20
 24
1.000000000000000E+20
 34
1.000000000000000E+20
 15
-1.000000000000000E+20
 25
-1.000000000000000E+20
 35
-1.000000000000000E+20
146
0.0
 13
0.0
 23
0.0
 33
0.0
 16
1.0
 26
0.0
 36
0.0
 17
0.0
 27
1.0
 37
0.0
 76
     0
330
1B
  0
LAYOUT
  5
26
102
{ACAD_REACTORS
330
1A
102
}
330
1A
100
AcDbPlotSettings
  1

  2
none_device
  4

  6

 40
0.0
 41
0.0
 42
0.0
 43
0.0
 44
0.0
 45
0.0
 46
0.0
 47
0.0
 48
0.0
 49
0.0
140
0.0
141
0.0
142
1.0
143
1.0
 70
   688
 72
     0
 73
     0
 74
     5
  7

 75
    16
 76
     0
 77
     2
 78
   300
147
1.0
148
0.0
149
0.0
100
AcDbLayout
  1
Layout2
 70
     1
 71
     2
 10
0.0
 20
0.0
 11
0.0
 21
0.0
 12
0.0
 22
0.0
 32
0.0
 14
0.0
 24
0.0
 34
0.0
 15
0.0
 25
0.0
 35
0.0
146
0.0
 13
0.0
 23
0.0
 33
0.0
 16
1.0
 26
0.0
 36
0.0
 17
0.0
 27
1.0
 37
0.0
 76
     0
330
23
  0
LAYOUT
  5
22
102
{ACAD_REACTORS
330
1A
102
}
330
1A
100
AcDbPlotSettings
  1

  2
none_device
  4

  6

 40
0.0
 41
0.0
 42
0.0
 43
0.0
 44
0.0
 45
0.0
 46
0.0
 47
0.0
 48
0.0
 49
0.0
140
0.0
141
0.0
142
1.0
143
1.0
 70
  1712
 72
     0
 73
     0
 74
     0
  7

 75
     0
 76
     0
 77
     2
 78
   300
147
1.0
148
0.0
149
0.0
100
AcDbLayout
  1
Model
 70
     1
 71
     0
 10
0.0
 20
0.0
 11
12.0
 21
9.0
 12
0.0
 22
0.0
 32
0.0
 14
1.000000000000000E+20
 24
1.000000000000000E+20
 34
1.000000000000000E+20
 15
-1.000000000000000E+20
 25
-1.000000000000000E+20
 35
-1.000000000000000E+20
146
0.0
 13
0.0
 23
0.0
 33
0.0
 16
1.0
 26
0.0
 36
0.0
 17
0.0
 27
1.0
 37
0.0
 76
     0
330
1F
331
29
  0
MLINESTYLE
  5
18
102
{ACAD_REACTORS
330
17
102
}
330
17
100
AcDbMlineStyle
  2
Standard
 70
     0
  3

 62
   256
 51
90.0
 52
90.0
 71
     2
 49
0.5
 62
   256
  6
BYLAYER
 49
-0.5
 62
   256
  6
BYLAYER
  0
ACDBPLACEHOLDER
  5
F
102
{ACAD_REACTORS
330
E
102
}
330
E
  0
VISUALSTYLE
  5
2F
102
{ACAD_REACTORS
330
2A
102
}
330
2A
100
AcDbVisualStyle
  2
2dWireframe
 70
     4
 71
     0
 72
     2
 73
     0
 90
        0
 40
-0.6
 41
-30.0
 62
     5
 63
     7
421
 16777215
 74
     1
 91
        4
 64
     7
 65
   257
 75
     1
175
     1
 42
1.0
 92
        0
 66
   257
 43
1.0
 76
     1
 77
     6
 78
     2
 67
     7
 79
     5
170
     0
171
     0
290
     0
174
     0
 93
        1
 44
0.0
173
     0
291
     0
 45
0.0
1001
ACAD
1000
AcDbSavedByObjectVersion
1070
     0
  0
VISUALSTYLE
  5
31
102
{ACAD_REACTORS
330
2A
102
}
330
2A
100
AcDbVisualStyle
  2
3D Hidden
 70
     6
 71
     1
 72
     2
 73
     2
 90
        0
 40
-0.6
 41
-30.0
 62
     5
 63
     7
421
 16777215
 74
     2
 91
        2
 64
     7
 65
   257
 75
     2
175
     1
 42
40.0
 92
        0
 66
   257
 43
1.0
 76
     1
 77
     6
 78
     2
 67
     7
 79
     3
170
     0
171
     0
290
     0
174
     0
 93
        1
 44
0.0
173
     0
291
     0
 45
0.0
1001
ACAD
1000
AcDbSavedByObjectVersion
1070
     0
  0
VISUALSTYLE
  5
30
102
{ACAD_REACTORS
330
2A
102
}
330
2A
100
AcDbVisualStyle
  2
3dWireframe
 70
     5
 71
     0
 72
     2
 73
     0
 90
        0
 40
-0.6
 41
-30.0
 62
     5
 63
     7
421
 16777215
 74
     1
 91
        4
 64
     7
 65
   257
 75
     1
175
     1
 42
1.0
 92
        0
 66
   257
 43
1.0
 76
     1
 77
     6
 78
     2
 67
     7
 79
     5
170
     0
171
     0
290
     0
174
     0
 93
        1
 44
0.0
173
     0
291
     0
 45
0.0
1001
ACAD
1000
AcDbSavedByObjectVersion
1070
     0
  0
VISUALSTYLE
  5
32
102
{ACAD_REACTORS
330
2A
102
}
330
2A
100
AcDbVisualStyle
  2
Basic
 70
     7
 71
     1
 72
     0
 73
     1
 90
        0
 40
-0.6
 41
-30.0
 62
     5
 63
     7
421
 16777215
 74
     0
 91
        4
 64
     7
 65
   257
 75
     1
175
     1
 42
1.0
 92
        8
 66
     7
 43
1.0
 76
     1
 77
     6
 78
     2
 67
     7
 79
     5
170
     0
171
     0
290
     0
174
     0
 93
        1
 44
0.0
173
     0
291
     1
 45
0.0
1001
ACAD
1000
AcDbSavedByObjectVersion
1070
     0
  0
VISUALSTYLE
  5
36
102
{ACAD_REACTORS
330
2A
102
}
330
2A
100
AcDbVisualStyle
  2
Brighten
 70
    12
 71
     2
 72
     2
 73
     0
 90
        0
 40
-0.6
 41
-30.0
 62
     5
 63
     7
421
 16777215
 74
     1
 91
        4
 64
     7
 65
   257
 75
     1
175
     1
 42
1.0
 92
        8
 66
     7
 43
1.0
 76
     1
 77
     6
 78
     2
 67
     7
 79
     5
170
     0
171
     0
290
     0
174
     0
 93
        1
 44
50.0
173
     0
291
     1
 45
0.0
1001
ACAD
1000
AcDbSavedByObjectVersion
1070
     0
  0
VISUALSTYLE
  5
3A
102
{ACAD_REACTORS
330
2A
102
}
330
2A
100
AcDbVisualStyle
  2
ColorChange
 70
    16
 71
     2
 72
     2
 73
     3
 90
        0
 40
-0.6
 41
-30.0
 62
     5
 63
     8
421
  8421504
 74
     1
 91
        4
 64
     7
 65
   257
 75
     1
175
     1
 42
1.0
 92
        8
 66
     8
424
  8421504
 43
1.0
 76
     1
 77
     6
 78
     2
 67
     7
 79
     5
170
     0
171
     0
290
     0
174
     0
 93
        1
 44
0.0
173
     0
291
     1
 45
0.0
1001
ACAD
1000
AcDbSavedByObjectVersion
1070
     0
  0
VISUALSTYLE
  5
34
102
{ACAD_REACTORS
330
2A
102
}
330
2A
100
AcDbVisualStyle
  2
Conceptual
 70
     9
 71
     3
 72
     2
 73
     0
 90
        0
 40
-0.6
 41
-30.0
 62
     5
 63
     7
421
 16777215
 74
     2
 91
        2
 64
     7
 65
   257
 75
     1
175
     1
 42
40.0
 92
        8
 66
     7
 43
1.0
 76
     1
 77
     6
 78
     2
 67
     7
 79
     3
170
     0
171
     0
290
     0
174
     0
 93
        1
 44
0.0
173
     0
291
     0
 45
0.0
1001
ACAD
1000
AcDbSavedByObjectVersion
1070
     0
  0
VISUALSTYLE
  5
35
102
{ACAD_REACTORS
330
2A
102
}
330
2A
100
AcDbVisualStyle
  2
Dim
 70
    11
 71
     2
 72
     2
 73
     0
 90
        0
 40
-0.6
 41
-30.0
 62
     5
 63
     7
421
 16777215
 74
     1
 91
        4
 64
     7
 65
   257
 75
     1
175
     1
 42
1.0
 92
        8
 66
     7
 43
1.0
 76
     1
 77
     6
 78
     2
 67
     7
 79
     5
170
     0
171
     0
290
     0
174
     0
 93
        1
 44
-50.0
173
     0
291
     1
 45
0.0
1001
ACAD
1000
AcDbSavedByObjectVersion
1070
     0
  0
VISUALSTYLE
  5
39
102
{ACAD_REACTORS
330
2A
102
}
330
2A
100
AcDbVisualStyle
  2
Facepattern
 70
    15
 71
     2
 72
     2
 73
     0
 90
        0
 40
-0.6
 41
-30.0
 62
     5
 63
     7
421
 16777215
 74
     1
 91
        4
 64
     7
 65
   257
 75
     1
175
     1
 42
1.0
 92
        8
 66
     7
 43
1.0
 76
     1
 77
     6
 78
     2
 67
     7
 79
     5
170
     0
171
     0
290
     0
174
     0
 93
        1
 44
0.0
173
     0
291
     1
 45
0.0
1001
ACAD
1000
AcDbSavedByObjectVersion
1070
     0
  0
VISUALSTYLE
  5
2B
102
{ACAD_REACTORS
330
2A
102
}
330
2A
100
AcDbVisualStyle
  2
Flat
 70
     0
 71
     2
 72
     1
 73
     1
 90
        2
 40
-0.6
 41
30.0
 62
     5
 63
     7
421
 16777215
 74
     0
 91
        4
 64
     7
 65
   257
 75
     1
175
     1
 42
1.0
 92
        8
 66
     7
 43
1.0
 76
     1
 77
     6
 78
     2
 67
     7
 79
     5
170
     0
171
     0
290
     0
174
     0
 93
       13
 44
0.0
173
     0
291
     1
 45
0.0
1001
ACAD
1000
AcDbSavedByObjectVersion
1070
     0
  0
VISUALSTYLE
  5
2C
102
{ACAD_REACTORS
330
2A
102
}
330
2A
100
AcDbVisualStyle
  2
FlatWithEdges
 70
     1
 71
     2
 72
     1
 73
     1
 90
        2
 40
-0.6
 41
30.0
 62
     5
 63
     7
421
 16777215
 74
     1
 91
        4
 64
     7
 65
   257
 75
     1
175
     1
 42
1.0
 92
        0
 66
   257
 43
1.0
 76
     1
 77
     6
 78
     2
 67
     7
 79
     5
170
     0
171
     0
290
     0
174
     0
 93
       13
 44
0.0
173
     0
291
     1
 45
0.0
1001
ACAD
1000
AcDbSavedByObjectVersion
1070
     0
  0
VISUALSTYLE
  5
2D
102
{ACAD_REACTORS
330
2A
102
}
330
2A
100
AcDbVisualStyle
  2
Gouraud
 70
     2
 71
     2
 72
     2
 73
     1
 90
        2
 40
-0.6
 41
30.0
 62
     5
 63
     7
421
 16777215
 74
     0
 91
        4
 64
     7
 65
   257
 75
     1
175
     1
 42
1.0
 92
        0
 66
     7
 43
1.0
 76
     1
 77
     6
 78
     2
 67
     7
 79
     5
170
     0
171
     0
290
     0
174
     0
 93
       13
 44
0.0
173
     0
291
     1
 45
0.0
1001
ACAD
1000
AcDbSavedByObjectVersion
1070
     0
  0
VISUALSTYLE
  5
2E
102
{ACAD_REACTORS
330
2A
102
}
330
2A
100
AcDbVisualStyle
  2
GouraudWithEdges
 70
     3
 71
     2
 72
     2
 73
     1
 90
        2
 40
-0.6
 41
30.0
 62
     5
 63
     7
421
 16777215
 74
     1
 91
        4
 64
     7
 65
   257
 75
     1
175
     1
 42
1.0
 92
        0
 66
   257
 43
1.0
 76
     1
 77
     6
 78
     2
 67
     7
 79
     5
170
     0
171
     0
290
     0
174
     0
 93
       13
 44
0.0
173
     0
291
     1
 45
0.0
1001
ACAD
1000
AcDbSavedByObjectVersion
1070
     0
  0
VISUALSTYLE
  5
38
102
{ACAD_REACTORS
330
2A
102
}
330
2A
100
AcDbVisualStyle
  2
Linepattern
 70
    14
 71
     2
 72
     2
 73
     0
 90
        0
 40
-0.6
 41
-30.0
 62
     5
 63
     7
421
 16777215
 74
     1
 91
        4
 64
     7
 65
   257
 75
     7
175
     7
 42
1.0
 92
        8
 66
     7
 43
1.0
 76
     1
 77
     6
 78
     2
 67
     7
 79
     5
170
     0
171
     0
290
     0
174
     0
 93
        1
 44
0.0
173
     0
291
     1
 45
0.0
1001
ACAD
1000
AcDbSavedByObjectVersion
1070
     0
  0
VISUALSTYLE
  5
33
102
{ACAD_REACTORS
330
2A
102
}
330
2A
100
AcDbVisualStyle
  2
Realistic
 70
     8
 71
     2
 72
     2
 73
     0
 90
        0
 40
-0.6
 41
-30.0
 62
     5
 63
     7
421
 16777215
 74
     1
 91
        0
 64
     7
 65
   257
 75
     1
175
     1
 42
1.0
 92
        8
 66
     8
424
  7895160
 43
1.0
 76
     1
 77
     6
 78
     2
 67
     7
 79
     5
170
     0
171
     0
290
     0
174
     0
 93
       13
 44
0.0
173
     0
291
     0
 45
0.0
1001
ACAD
1000
AcDbSavedByObjectVersion
1070
     0
  0
VISUALSTYLE
  5
37
102
{ACAD_REACTORS
330
2A
102
}
330
2A
100
AcDbVisualStyle
  2
Thicken
 70
    13
 71
     2
 72
     2
 73
     0
 90
        0
 40
-0.6
 41
-30.0
 62
     5
 63
     7
421
 16777215
 74
     1
 91
        4
 64
     7
 65
   257
 75
     1
175
     1
 42
1.0
 92
       12
 66
     7
 43
1.0
 76
     1
 77
     6
 78
     2
 67
     7
 79
     5
170
     0
171
     0
290
     0
174
     0
 93
        1
 44
0.0
173
     0
291
     1
 45
0.0
1001
ACAD
1000
AcDbSavedByObjectVersion
1070
     0
  0
ENDSEC
  0
EOF
