<?xml version="1.0" encoding="utf-8"?>
<!-- Generator: Adobe Illustrator 15.1.0, SVG Export Plug-In . SVG Version: 6.00 Build 0)  -->
<!DOCTYPE svg PUBLIC "-//W3C//DTD SVG 1.1//EN" "http://www.w3.org/Graphics/SVG/1.1/DTD/svg11.dtd">
<svg version="1.1" id="Layer_1" xmlns="http://www.w3.org/2000/svg" xmlns:xlink="http://www.w3.org/1999/xlink" x="0px" y="0px"
	 width="2267.72px" height="1700.79px" viewBox="0 0 2267.72 1700.79" enable-background="new 0 0 2267.72 1700.79"
	 xml:space="preserve">
<g>
	<path fill="none" stroke="#000000" stroke-miterlimit="10" d="M2225.198,1615.748c0,23.482-19.036,42.52-42.52,42.52H85.041
		c-23.483,0-42.52-19.037-42.52-42.52V85.039c0-23.483,19.037-42.52,42.52-42.52h2097.638c23.483,0,42.52,19.037,42.52,42.52
		V1615.748z"/>
	<rect x="42.521" y="1488.188" fill="none" stroke="#000000" stroke-miterlimit="10" width="2182.677" height="85.039"/>
</g>
<text transform="matrix(1 0 0 1 68.3682 1798.4648)"><tspan x="0" y="0" fill="none" stroke="#F68827" stroke-miterlimit="10" font-family="'Eng_HelvLine'" font-size="36">Date: 13-06-12</tspan><tspan x="302.469" y="0" fill="none" stroke="#F68827" stroke-miterlimit="10" font-family="'Eng_HelvLine'" font-size="36" letter-spacing="3">	</tspan><tspan x="324" y="0" fill="none" stroke="#F68827" stroke-miterlimit="10" font-family="'Eng_HelvLine'" font-size="36" letter-spacing="18">	</tspan><tspan x="360" y="0" fill="none" stroke="#F68827" stroke-miterlimit="10" font-family="'Eng_HelvLine'" font-size="36">File Name: DRBO-03</tspan><tspan x="814.423" y="0" fill="none" stroke="#F68827" stroke-miterlimit="10" font-family="'Eng_HelvLine'" font-size="36" letter-spacing="-4">	</tspan><tspan x="828" y="0" fill="none" stroke="#F68827" stroke-miterlimit="10" font-family="'Eng_HelvLine'" font-size="36" letter-spacing="18">	</tspan><tspan x="864" y="0" fill="none" stroke="#F68827" stroke-miterlimit="10" font-family="'Eng_HelvLine'" font-size="36">Version:</tspan><tspan x="1041.838" y="0" fill="none" stroke="#F68827" stroke-miterlimit="10" font-family="'Eng_HelvLine'" font-size="36" letter-spacing="-15">	</tspan><tspan x="1044" y="0" fill="none" stroke="#F68827" stroke-miterlimit="10" font-family="'Eng_HelvLine'" font-size="36" letter-spacing="18">	</tspan><tspan x="1080" y="0" fill="none" stroke="#F68827" stroke-miterlimit="10" font-family="'Eng_HelvLine'" font-size="36">Contributor: Stuart Childs stuchilds</tspan><tspan x="1866.016" y="0" fill="none" stroke="#F68827" stroke-miterlimit="10" font-family="'MyriadPro-Regular'" font-size="36">@</tspan><tspan x="1892.548" y="0" fill="none" stroke="#F68827" stroke-miterlimit="10" font-family="'Eng_HelvLine'" font-size="36">gmail.com</tspan><tspan x="2115.204" y="0" fill="none" stroke="#F68827" stroke-miterlimit="10" font-family="'Eng_HelvLine'" font-size="36" letter-spacing="-9">	</tspan><tspan x="2124" y="0" fill="none" stroke="#F68827" stroke-miterlimit="10" font-family="'Eng_HelvLine'" font-size="36" letter-spacing="18">	</tspan><tspan x="0" y="86.4" fill="none" stroke="#F68827" stroke-miterlimit="10" font-family="'Eng_HelvLine'" font-size="36">License: Creative Commons Attribution Sharealike 3.0 Unported</tspan><tspan x="1401.751" y="86.4" fill="none" stroke="#F68827" stroke-miterlimit="10" font-family="'Eng_HelvLine'" font-size="36" letter-spacing="-15">	</tspan><tspan x="1404" y="86.4" fill="none" stroke="#F68827" stroke-miterlimit="10" font-family="'Eng_HelvLine'" font-size="36" letter-spacing="18">	</tspan></text>
<line fill="none" stroke="#F68827" stroke-miterlimit="10" x1="1926.348" y1="1476.11" x2="2209.812" y2="1476.11"/>
<g>
	<path fill="none" stroke="#F68827" stroke-miterlimit="10" d="M1927.86,1463.057c0,2.241,1.709,3.138,3.712,3.138
		c2.031,0,3.306-1.274,3.348-2.521c0.042-1.232-0.588-2.213-1.835-2.479l-3.432-0.742c-0.967-0.21-1.541-0.771-1.541-2.087
		s1.106-2.451,3.124-2.451c2.017,0,3.488,0.952,3.432,2.619c0.057-1.667-1.415-2.619-3.432-2.619c-2.018,0-3.124,1.135-3.124,2.451
		s0.547,1.863,1.541,2.087l3.432,0.742c1.275,0.267,1.877,1.247,1.835,2.479c-0.042,1.247-1.316,2.521-3.348,2.521
		C1929.569,1466.194,1927.86,1465.298,1927.86,1463.057z"/>
	<path fill="none" stroke="#F68827" stroke-miterlimit="10" d="M1941.526,1466.11c-1.177,0-3.208-0.196-3.208-3.712
		c0-3.502,2.27-3.544,3.264-3.544c0.995,0,2.312,0.771,2.396,1.751c-0.084-0.98-1.4-1.751-2.396-1.751
		c-0.994,0-3.264,0.042-3.264,3.544C1938.318,1465.914,1940.35,1466.11,1941.526,1466.11c1.19,0,2.451-1.106,2.493-2.283
		C1943.978,1465.004,1942.717,1466.11,1941.526,1466.11z"/>
	<path fill="none" stroke="#F68827" stroke-miterlimit="10" d="M1952.405,1464.275c-0.42,0.603-1.862,1.961-3.012,1.919
		c-1.162-0.042-2.087-0.406-2.087-1.695c0-1.303,0.784-1.849,2.27-1.988c1.471-0.141,2.129-0.364,2.829-0.561
		c-0.7,0.196-1.358,0.42-2.829,0.561c-1.485,0.14-2.27,0.686-2.27,1.988c0,1.289,0.925,1.653,2.087,1.695
		C1950.543,1466.236,1951.985,1464.878,1952.405,1464.275z M1953.4,1466.11c0,0-0.995-0.07-0.995-0.91v-4.608
		c0-0.589-0.294-1.709-2.185-1.709c-1.892,0-2.592,0.854-2.592,1.736c0-0.882,0.7-1.736,2.592-1.736c1.891,0,2.185,1.12,2.185,1.709
		v4.608C1952.405,1466.04,1953.4,1466.11,1953.4,1466.11z"/>
	<path fill="none" stroke="#F68827" stroke-miterlimit="10" d="M1958.227,1466.11v-10.1V1466.11z"/>
	<path fill="none" stroke="#F68827" stroke-miterlimit="10" d="M1962.901,1462.272h6.262c0-1.555-0.616-3.544-2.844-3.544
		c-2.213,0-3.432,1.513-3.432,3.824c0,2.325,1.569,3.558,3.432,3.502c1.877-0.057,2.689-1.513,2.788-2.031
		c-0.099,0.519-0.911,1.975-2.788,2.031c-1.862,0.056-3.432-1.177-3.432-3.502c0-2.312,1.219-3.824,3.432-3.824
		c2.228,0,2.844,1.989,2.844,3.544H1962.901z"/>
	<path fill="none" stroke="#F68827" stroke-miterlimit="10" d="M1974.131,1461.684v-0.771V1461.684z M1974.131,1466.11v-0.771
		V1466.11z"/>
	<path fill="none" stroke="#F68827" stroke-miterlimit="10" d="M1987.305,1466.11v-10.1V1466.11z"/>
	<path fill="none" stroke="#F68827" stroke-miterlimit="10" d="M1993.493,1456.249v-0.252V1456.249z M1993.493,1466.097v-7.187
		C1993.493,1458.91,1993.493,1466.124,1993.493,1466.097z"/>
	<path fill="none" stroke="#F68827" stroke-miterlimit="10" d="M2004.821,1466.11c0,0,0-4.679,0-5.323
		c0-0.644-0.645-1.849-2.424-1.862c-1.793-0.015-2.731,1.372-2.731,2.661c0-1.289,0.938-2.676,2.731-2.661
		c1.779,0.014,2.424,1.219,2.424,1.862C2004.821,1461.432,2004.821,1466.11,2004.821,1466.11z M1999.666,1466.11v-7.186V1466.11z"/>
	<path fill="none" stroke="#F68827" stroke-miterlimit="10" d="M2008.877,1462.272h6.262c0-1.555-0.616-3.544-2.844-3.544
		c-2.213,0-3.432,1.513-3.432,3.824c0,2.325,1.569,3.558,3.432,3.502c1.877-0.057,2.689-1.513,2.788-2.031
		c-0.099,0.519-0.911,1.975-2.788,2.031c-1.862,0.056-3.432-1.177-3.432-3.502c0-2.312,1.219-3.824,3.432-3.824
		c2.228,0,2.844,1.989,2.844,3.544H2008.877z"/>
	<path fill="none" stroke="#F68827" stroke-miterlimit="10" d="M2027.106,1455.969v10.142V1455.969z M2030.076,1458.883
		c1.639,0,2.97,0.798,2.97,3.613c0,2.802-1.331,3.614-2.97,3.614s-2.97-0.812-2.97-3.614
		C2027.106,1459.681,2028.438,1458.883,2030.076,1458.883z M2030.076,1458.883c1.639,0,2.97,0.798,2.97,3.613
		c0,2.802-1.331,3.614-2.97,3.614s-2.97-0.812-2.97-3.614C2027.106,1459.681,2028.438,1458.883,2030.076,1458.883z"/>
	<path fill="none" stroke="#F68827" stroke-miterlimit="10" d="M2042.705,1462.272c0-1.555-0.616-3.544-2.844-3.544
		c-2.213,0-3.432,1.513-3.432,3.824c0,2.325,1.569,3.558,3.432,3.502c1.877-0.057,2.689-1.513,2.788-2.031
		c-0.099,0.519-0.911,1.975-2.788,2.031c-1.862,0.056-3.432-1.177-3.432-3.502c0-2.312,1.219-3.824,3.432-3.824
		C2042.089,1458.729,2042.705,1460.718,2042.705,1462.272h-6.262H2042.705z"/>
	<path fill="none" stroke="#F68827" stroke-miterlimit="10" d="M2047.672,1466.11v-10.1V1466.11z"/>
	<path fill="none" stroke="#F68827" stroke-miterlimit="10" d="M2052.333,1462.44c0-2.83,1.443-3.656,3.18-3.656
		c1.751,0,3.18,0.826,3.18,3.656c0,2.844-1.429,3.67-3.18,3.67C2053.776,1466.11,2052.333,1465.284,2052.333,1462.44z
		 M2052.333,1462.44c0-2.83,1.443-3.656,3.18-3.656c1.751,0,3.18,0.826,3.18,3.656c0,2.844-1.429,3.67-3.18,3.67
		C2053.776,1466.11,2052.333,1465.284,2052.333,1462.44z"/>
	<path fill="none" stroke="#F68827" stroke-miterlimit="10" d="M2064.094,1466.11l2.479-7.186l2.493,7.186l2.073-7.186l-2.073,7.186
		l-2.493-7.186L2064.094,1466.11l-2.073-7.186L2064.094,1466.11z"/>
	<path fill="none" stroke="#F68827" stroke-miterlimit="10" d="M2083.12,1456.249v-0.252V1456.249z M2083.12,1466.097v-7.187
		C2083.12,1458.91,2083.12,1466.124,2083.12,1466.097z"/>
	<path fill="none" stroke="#F68827" stroke-miterlimit="10" d="M2090.456,1458.812c-1.766-0.042-2.577,0.519-2.577,1.597
		c0,1.093,0.91,1.429,1.246,1.527l2.647,0.784c0.351,0.084,1.19,0.462,1.19,1.499c0,1.036-1.106,1.891-2.507,1.891
		c-1.401,0-2.676-0.742-2.676-1.835c0,1.093,1.274,1.835,2.676,1.835c1.4,0,2.507-0.854,2.507-1.891c0-1.037-0.84-1.415-1.19-1.499
		l-2.647-0.784c-0.336-0.099-1.246-0.435-1.246-1.527C2087.879,1459.331,2088.69,1458.771,2090.456,1458.812
		c1.765,0.07,2.227,1.051,2.199,1.4C2092.683,1459.863,2092.221,1458.883,2090.456,1458.812z"/>
	<path fill="none" stroke="#F68827" stroke-miterlimit="10" d="M2105.604,1466.11v-10.1c0,1.723-1.667,2.129-2.382,2.186
		c0.715-0.057,2.382-0.463,2.382-2.186V1466.11z"/>
	<path fill="none" stroke="#F68827" stroke-miterlimit="10" d="M2110.307,1461.067c0-2.773,0.589-5.043,3.054-5.043
		c2.466,0,3.054,2.27,3.054,5.043c0,2.788-0.588,5.043-3.054,5.043C2110.896,1466.11,2110.307,1463.855,2110.307,1461.067z
		 M2110.307,1461.067c0-2.773,0.589-5.043,3.054-5.043c2.466,0,3.054,2.27,3.054,5.043c0,2.788-0.588,5.043-3.054,5.043
		C2110.896,1466.11,2110.307,1463.855,2110.307,1461.067z"/>
	<path fill="none" stroke="#F68827" stroke-miterlimit="10" d="M2119.729,1461.067c0-2.773,0.589-5.043,3.054-5.043
		c2.466,0,3.054,2.27,3.054,5.043c0,2.788-0.588,5.043-3.054,5.043C2120.317,1466.11,2119.729,1463.855,2119.729,1461.067z
		 M2119.729,1461.067c0-2.773,0.589-5.043,3.054-5.043c2.466,0,3.054,2.27,3.054,5.043c0,2.788-0.588,5.043-3.054,5.043
		C2120.317,1466.11,2119.729,1463.855,2119.729,1461.067z"/>
	<path fill="none" stroke="#F68827" stroke-miterlimit="10" d="M2135.439,1466.11c0,0,0-4.679,0-5.323
		c0-0.644-0.42-1.849-2.199-1.862c-1.778-0.015-2.577,1.372-2.577,2.661c0-1.289,0.799-2.676,2.577-2.661
		c1.779,0.014,2.199,1.219,2.199,1.862C2135.439,1461.432,2135.439,1466.11,2135.439,1466.11z M2130.663,1466.11v-7.186V1466.11z
		 M2140.259,1466.11c0,0,0-4.679,0-5.323c0-0.644-0.616-1.849-2.396-1.862c-1.779-0.015-2.424,1.372-2.424,2.661
		c0-1.289,0.645-2.676,2.424-2.661c1.779,0.014,2.396,1.219,2.396,1.862C2140.259,1461.432,2140.259,1466.11,2140.259,1466.11z"/>
	<path fill="none" stroke="#F68827" stroke-miterlimit="10" d="M2150.812,1466.11c0,0,0-4.679,0-5.323
		c0-0.644-0.42-1.849-2.198-1.862c-1.779-0.015-2.578,1.372-2.578,2.661c0-1.289,0.799-2.676,2.578-2.661
		c1.778,0.014,2.198,1.219,2.198,1.862C2150.812,1461.432,2150.812,1466.11,2150.812,1466.11z M2146.035,1466.11v-7.186V1466.11z
		 M2155.631,1466.11c0,0,0-4.679,0-5.323c0-0.644-0.616-1.849-2.396-1.862c-1.779-0.015-2.424,1.372-2.424,2.661
		c0-1.289,0.645-2.676,2.424-2.661c1.779,0.014,2.396,1.219,2.396,1.862C2155.631,1461.432,2155.631,1466.11,2155.631,1466.11z"/>
	<path fill="none" stroke="#F68827" stroke-miterlimit="10" d="M2168.407,1466.11v-10.1V1466.11z"/>
	<path fill="none" stroke="#F68827" stroke-miterlimit="10" d="M2173.068,1462.44c0-2.83,1.443-3.656,3.18-3.656
		c1.751,0,3.18,0.826,3.18,3.656c0,2.844-1.429,3.67-3.18,3.67C2174.512,1466.11,2173.068,1465.284,2173.068,1462.44z
		 M2173.068,1462.44c0-2.83,1.443-3.656,3.18-3.656c1.751,0,3.18,0.826,3.18,3.656c0,2.844-1.429,3.67-3.18,3.67
		C2174.512,1466.11,2173.068,1465.284,2173.068,1462.44z"/>
	<path fill="none" stroke="#F68827" stroke-miterlimit="10" d="M2189.424,1466.11c0,0,0-4.679,0-5.323
		c0-0.644-0.645-1.849-2.424-1.862c-1.793-0.015-2.731,1.372-2.731,2.661c0-1.289,0.938-2.676,2.731-2.661
		c1.779,0.014,2.424,1.219,2.424,1.862C2189.424,1461.432,2189.424,1466.11,2189.424,1466.11z M2184.269,1466.11v-7.186V1466.11z"/>
	<path fill="none" stroke="#F68827" stroke-miterlimit="10" d="M2196.422,1458.854c1.625,0,2.97,0.812,2.97,3.614
		c0,2.801-1.345,3.613-2.97,3.613s-2.956-0.812-2.956-3.613C2193.466,1459.667,2194.797,1458.854,2196.422,1458.854z
		 M2196.422,1458.854c1.625,0,2.97,0.812,2.97,3.614c0,2.801-1.345,3.613-2.97,3.613s-2.956-0.812-2.956-3.613
		C2193.466,1459.667,2194.797,1458.854,2196.422,1458.854z M2193.886,1467.567c0.154,0.84,1.177,1.316,2.578,1.372
		c1.429,0.042,2.928-1.008,2.928-2.311c0-1.317,0-7.662,0-7.662s0,6.345,0,7.662c0,1.303-1.499,2.353-2.928,2.311
		C2195.062,1468.884,2194.04,1468.407,2193.886,1467.567z"/>
</g>
<text transform="matrix(1 0 0 1 1742.9102 145.2905)"><tspan x="0" y="0" fill="none" stroke="#F89A1C" font-family="'Eng_HelvLine'" font-size="12">Hardware:</tspan><tspan x="0" y="28.8" fill="none" stroke="#F89A1C" font-family="'Eng_HelvLine'" font-size="12">16mm M3 screw x20</tspan><tspan x="0" y="43.2" fill="none" stroke="#F89A1C" font-family="'Eng_HelvLine'" font-size="12">M3 nut x20</tspan><tspan x="0" y="72" fill="none" stroke="#F89A1C" font-family="'Eng_HelvLine'" font-size="12">16mm M6 screw x4</tspan><tspan x="0" y="86.4" fill="none" stroke="#F89A1C" font-family="'Eng_HelvLine'" font-size="12">M6 nut x4</tspan><tspan x="0" y="115.2" fill="none" stroke="#F89A1C" font-family="'Eng_HelvLine'" font-size="12">50mm M8 scew x4</tspan><tspan x="0" y="129.6" fill="none" stroke="#F89A1C" font-family="'Eng_HelvLine'" font-size="12">M8 nut x4</tspan><tspan x="0" y="172.8" fill="none" stroke="#F89A1C" font-family="'Eng_HelvLine'" font-size="12">Instructions</tspan><tspan x="0" y="201.6" fill="none" stroke="#F89A1C" font-family="'Eng_HelvLine'" font-size="12">Build 2x holder pieces, each 4x layers thick.</tspan><tspan x="0" y="230.4" fill="none" stroke="#F89A1C" font-family="'Eng_HelvLine'" font-size="12">Use 2x flat pieces to hold dremel in holder pieces</tspan><tspan x="0" y="259.2" fill="none" stroke="#F89A1C" font-family="'Eng_HelvLine'" font-size="12">Spacer pieces: M3 hardware pieces optional</tspan><tspan x="0" y="288" fill="none" stroke="#F89A1C" font-family="'Eng_HelvLine'" font-size="12">Deisgned to interface with DIY LIL CNC v2 build plans</tspan></text>
<circle fill="none" stroke="#010101" stroke-miterlimit="10" cx="714.121" cy="101.229" r="8.504"/>
<circle fill="none" stroke="#010101" stroke-miterlimit="10" cx="928.982" cy="101.229" r="8.504"/>
<g id="LINE_1214_">
</g>
<g id="SPLINE_139_">
</g>
<g id="LINE_1213_">
</g>
<g id="LINE_1212_">
</g>
<g id="LINE_1211_">
</g>
<g id="LINE_1210_">
</g>
<g id="LINE_1209_">
</g>
<g id="LINE_1208_">
</g>
<g id="LINE_1207_">
</g>
<g id="LINE_1206_">
</g>
<g id="LINE_1205_">
</g>
<g id="LINE_1204_">
</g>
<g id="LINE_1203_">
</g>
<g id="LINE_1202_">
</g>
<g id="LINE_1201_">
</g>
<g id="LINE_1200_">
</g>
<g id="LINE_1199_">
</g>
<g id="LINE_1198_">
</g>
<g id="LINE_1197_">
</g>
<g id="LINE_1196_">
</g>
<g id="LINE_1195_">
</g>
<g id="LINE_1194_">
</g>
<g id="LINE_1193_">
</g>
<g id="SPLINE_138_">
</g>
<g id="LINE_1192_">
</g>
<g>
	<g id="SPLINE_137_">
	</g>
	<g id="LINE_1191_">
	</g>
	<g id="LINE_1190_">
	</g>
	<g id="LINE_1189_">
	</g>
	<g id="LINE_1188_">
	</g>
	<g id="LINE_1187_">
	</g>
	<g id="LINE_1186_">
	</g>
	<g id="LINE_1185_">
	</g>
	<g id="LINE_1184_">
	</g>
	<g id="LINE_1183_">
	</g>
	<g id="LINE_1182_">
	</g>
</g>
<g id="LINE_1181_">
</g>
<g id="LINE_1180_">
</g>
<g id="LINE_1179_">
</g>
<g id="LINE_1178_">
</g>
<g id="LINE_1177_">
</g>
<g id="LINE_1176_">
</g>
<g id="LINE_1175_">
</g>
<g id="LINE_1174_">
</g>
<g id="LINE_1173_">
</g>
<g id="SPLINE_136_">
</g>
<path fill="none" stroke="#010101" stroke-miterlimit="10" d="M994.463,122.489c0,7.828-6.346,14.174-14.173,14.174H662.811
	c-7.828,0-14.174-6.346-14.174-14.174v-42.52c0-7.828,6.346-14.174,14.174-14.174h317.479c7.827,0,14.173,6.346,14.173,14.174
	V122.489z"/>
<circle fill="none" stroke="#010101" stroke-miterlimit="10" cx="381.768" cy="666.851" r="8.504"/>
<circle fill="none" stroke="#010101" stroke-miterlimit="10" cx="596.629" cy="666.851" r="8.504"/>
<path fill="none" stroke="#010101" stroke-miterlimit="10" d="M662.111,688.111c0,7.828-6.346,14.174-14.173,14.174H330.458
	c-7.828,0-14.174-6.346-14.174-14.174v-42.52c0-7.828,6.346-14.174,14.174-14.174h317.479c7.827,0,14.173,6.346,14.173,14.174
	V688.111z"/>
<circle fill="none" stroke="#010101" stroke-miterlimit="10" cx="1069.168" cy="101.228" r="8.504"/>
<circle fill="none" stroke="#010101" stroke-miterlimit="10" cx="1284.029" cy="101.228" r="8.504"/>
<path fill="none" stroke="#010101" stroke-miterlimit="10" d="M1349.511,122.487c0,7.828-6.346,14.174-14.173,14.174h-317.479
	c-7.828,0-14.174-6.346-14.174-14.174v-42.52c0-7.828,6.346-14.174,14.174-14.174h317.479c7.827,0,14.173,6.346,14.173,14.174
	V122.487z"/>
<circle fill="none" stroke="#010101" stroke-miterlimit="10" cx="1319.463" cy="332.652" r="8.504"/>
<circle fill="none" stroke="#010101" stroke-miterlimit="10" cx="1319.463" cy="547.514" r="8.504"/>
<path fill="none" stroke="#010101" stroke-miterlimit="10" d="M1298.203,612.995c-7.828,0-14.174-6.346-14.174-14.173V281.343
	c0-7.828,6.346-14.174,14.174-14.174h42.52c7.828,0,14.174,6.346,14.174,14.174v317.479c0,7.827-6.346,14.173-14.174,14.173
	H1298.203z"/>
<path fill="none" stroke="#010101" stroke-miterlimit="10" d="M1372.338,225.218h56.693v-30.33h-56.693c0,0.001,0-59.529,0-59.528
	h56.693v-30.331h-56.693c0,0.001,0-17.858,0-17.858c0-7.827,6.346-14.173,14.172-14.173h56.693c7.828,0,14.174,6.346,14.174,14.173
	v155.907c0,7.826-6.346,14.172-14.174,14.172h-56.693c-7.826,0-14.172-6.346-14.172-14.172V225.218z"/>
<circle fill="none" stroke="#010101" stroke-miterlimit="10" cx="1387.93" cy="88.589" r="4.252"/>
<circle fill="none" stroke="#010101" stroke-miterlimit="10" cx="1387.926" cy="241.657" r="4.252"/>
<circle fill="none" stroke="#010101" stroke-miterlimit="10" cx="1441.787" cy="88.589" r="4.252"/>
<circle fill="none" stroke="#010101" stroke-miterlimit="10" cx="1441.785" cy="241.657" r="4.252"/>
<circle fill="none" stroke="#010101" stroke-miterlimit="10" cx="1387.926" cy="165.123" r="4.252"/>
<circle fill="none" stroke="#010101" stroke-miterlimit="10" cx="1441.785" cy="165.123" r="4.252"/>
<path fill="none" stroke="#010101" stroke-miterlimit="10" d="M162.495,547.286h-56.693v30.33h56.693c0-0.001,0,59.529,0,59.528
	h-56.693v30.331h56.693c0-0.001,0,17.858,0,17.858c0,7.827-6.346,14.173-14.173,14.173H91.63c-7.828,0-14.174-6.346-14.174-14.173
	V529.428c0-7.827,6.346-14.173,14.174-14.173h56.692c7.827,0,14.173,6.346,14.173,14.173V547.286z"/>
<circle fill="none" stroke="#010101" stroke-miterlimit="10" cx="146.903" cy="683.915" r="4.252"/>
<circle fill="none" stroke="#010101" stroke-miterlimit="10" cx="146.906" cy="530.847" r="4.252"/>
<circle fill="none" stroke="#010101" stroke-miterlimit="10" cx="93.045" cy="683.915" r="4.252"/>
<circle fill="none" stroke="#010101" stroke-miterlimit="10" cx="93.048" cy="530.847" r="4.252"/>
<circle fill="none" stroke="#010101" stroke-miterlimit="10" cx="146.906" cy="607.38" r="4.252"/>
<circle fill="none" stroke="#010101" stroke-miterlimit="10" cx="93.048" cy="607.38" r="4.252"/>
<path fill="none" stroke="#010101" stroke-miterlimit="10" d="M244.621,184.904v-56.693h-30.33v56.693c0.001,0-59.529,0-59.529,0
	l0.001-56.693h-30.331v56.693c0.001,0-17.858,0-17.858,0c-7.827,0-14.173-6.346-14.173-14.173v-56.692
	c0-7.828,6.346-14.174,14.173-14.174h155.906c7.827,0,14.173,6.346,14.173,14.174v56.692c0,7.827-6.346,14.173-14.173,14.173
	H244.621z"/>
<circle fill="none" stroke="#010101" stroke-miterlimit="10" cx="107.992" cy="169.312" r="4.252"/>
<circle fill="none" stroke="#010101" stroke-miterlimit="10" cx="261.061" cy="169.315" r="4.252"/>
<circle fill="none" stroke="#010101" stroke-miterlimit="10" cx="107.992" cy="115.454" r="4.252"/>
<circle fill="none" stroke="#010101" stroke-miterlimit="10" cx="261.061" cy="115.457" r="4.252"/>
<circle fill="none" stroke="#010101" stroke-miterlimit="10" cx="184.526" cy="169.315" r="4.252"/>
<circle fill="none" stroke="#010101" stroke-miterlimit="10" cx="184.526" cy="115.457" r="4.252"/>
<path fill="none" stroke="#010101" stroke-miterlimit="10" d="M244.621,275.613V218.92h-30.33v56.693c0.001,0-59.529,0-59.529,0
	l0.001-56.693h-30.331v56.693c0.001,0-17.858,0-17.858,0c-7.827,0-14.173-6.346-14.173-14.173v-56.692
	c0-7.828,6.346-14.174,14.173-14.174h155.906c7.827,0,14.173,6.346,14.173,14.174v56.692c0,7.827-6.346,14.173-14.173,14.173
	H244.621z"/>
<circle fill="none" stroke="#010101" stroke-miterlimit="10" cx="107.992" cy="260.021" r="4.252"/>
<circle fill="none" stroke="#010101" stroke-miterlimit="10" cx="261.061" cy="260.024" r="4.252"/>
<circle fill="none" stroke="#010101" stroke-miterlimit="10" cx="107.992" cy="206.163" r="4.252"/>
<circle fill="none" stroke="#010101" stroke-miterlimit="10" cx="261.061" cy="206.166" r="4.252"/>
<circle fill="none" stroke="#010101" stroke-miterlimit="10" cx="184.526" cy="260.024" r="4.252"/>
<circle fill="none" stroke="#010101" stroke-miterlimit="10" cx="184.526" cy="206.166" r="4.252"/>
<path fill="none" stroke="#010101" stroke-miterlimit="10" d="M1267.103,244.492v-56.693h-30.33v56.693c0.001,0-59.529,0-59.528,0
	v-56.693h-30.331v56.693c0.001,0-17.858,0-17.858,0c-7.827,0-14.173-6.346-14.173-14.173v-56.692
	c0-7.828,6.346-14.174,14.173-14.174h155.906c7.827,0,14.173,6.346,14.173,14.174v56.692c0,7.827-6.346,14.173-14.173,14.173
	H1267.103z"/>
<circle fill="none" stroke="#010101" stroke-miterlimit="10" cx="1130.474" cy="228.9" r="4.252"/>
<circle fill="none" stroke="#010101" stroke-miterlimit="10" cx="1283.542" cy="228.903" r="4.252"/>
<circle fill="none" stroke="#010101" stroke-miterlimit="10" cx="1130.474" cy="175.042" r="4.252"/>
<circle fill="none" stroke="#010101" stroke-miterlimit="10" cx="1283.542" cy="175.045" r="4.252"/>
<circle fill="none" stroke="#010101" stroke-miterlimit="10" cx="1207.008" cy="228.903" r="4.252"/>
<circle fill="none" stroke="#010101" stroke-miterlimit="10" cx="1207.008" cy="175.045" r="4.252"/>
<path fill="none" stroke="#010101" stroke-miterlimit="10" d="M1374.836,443.538h56.693v-30.33h-56.693c0,0.001,0-59.529,0-59.528
	h56.693v-30.331h-56.693c0,0.001,0-17.858,0-17.858c0-7.827,6.346-14.173,14.173-14.173h56.692c7.828,0,14.174,6.346,14.174,14.173
	v155.906c0,7.827-6.346,14.173-14.174,14.173h-56.692c-7.827,0-14.173-6.346-14.173-14.173V443.538z"/>
<circle fill="none" stroke="#010101" stroke-miterlimit="10" cx="1390.428" cy="306.909" r="4.252"/>
<circle fill="none" stroke="#010101" stroke-miterlimit="10" cx="1390.425" cy="459.978" r="4.252"/>
<circle fill="none" stroke="#010101" stroke-miterlimit="10" cx="1444.286" cy="306.909" r="4.252"/>
<circle fill="none" stroke="#010101" stroke-miterlimit="10" cx="1444.283" cy="459.978" r="4.252"/>
<circle fill="none" stroke="#010101" stroke-miterlimit="10" cx="1390.425" cy="383.443" r="4.252"/>
<circle fill="none" stroke="#010101" stroke-miterlimit="10" cx="1444.283" cy="383.443" r="4.252"/>
<path fill="none" stroke="#010101" stroke-miterlimit="10" d="M1190.569,595.987v-56.693h-30.33v56.693c0.001,0-59.529,0-59.529,0
	l0.001-56.693h-30.331v56.693c0.001,0-17.858,0-17.858,0c-7.827,0-14.173-6.346-14.173-14.173v-56.692
	c0-7.828,6.346-14.174,14.173-14.174h155.906c7.827,0,14.173,6.346,14.173,14.174v56.692c0,7.827-6.346,14.173-14.173,14.173
	H1190.569z"/>
<circle fill="none" stroke="#010101" stroke-miterlimit="10" cx="1053.94" cy="580.396" r="4.252"/>
<circle fill="none" stroke="#010101" stroke-miterlimit="10" cx="1207.009" cy="580.398" r="4.252"/>
<circle fill="none" stroke="#010101" stroke-miterlimit="10" cx="1053.94" cy="526.537" r="4.252"/>
<circle fill="none" stroke="#010101" stroke-miterlimit="10" cx="1207.009" cy="526.54" r="4.252"/>
<circle fill="none" stroke="#010101" stroke-miterlimit="10" cx="1130.475" cy="580.398" r="4.252"/>
<circle fill="none" stroke="#010101" stroke-miterlimit="10" cx="1130.475" cy="526.54" r="4.252"/>
<path fill="none" stroke="#010101" stroke-miterlimit="10" d="M1190.569,686.697v-56.694h-30.33v56.694c0.001,0-59.529,0-59.529,0
	l0.001-56.694h-30.331v56.694c0.001,0-17.858,0-17.858,0c-7.827,0-14.173-6.346-14.173-14.173v-56.692
	c0-7.828,6.346-14.174,14.173-14.174h155.906c7.827,0,14.173,6.346,14.173,14.174v56.692c0,7.827-6.346,14.173-14.173,14.173
	H1190.569z"/>
<circle fill="none" stroke="#010101" stroke-miterlimit="10" cx="1053.94" cy="671.104" r="4.252"/>
<circle fill="none" stroke="#010101" stroke-miterlimit="10" cx="1207.009" cy="671.107" r="4.252"/>
<circle fill="none" stroke="#010101" stroke-miterlimit="10" cx="1053.94" cy="617.246" r="4.252"/>
<circle fill="none" stroke="#010101" stroke-miterlimit="10" cx="1207.009" cy="617.249" r="4.252"/>
<circle fill="none" stroke="#010101" stroke-miterlimit="10" cx="1130.475" cy="671.107" r="4.252"/>
<circle fill="none" stroke="#010101" stroke-miterlimit="10" cx="1130.475" cy="617.249" r="4.252"/>
<text transform="matrix(1 0 0 1 1742.9102 520.228)" fill="none" stroke="#F89A1C" font-family="'Eng_HelvLine'" font-size="12">SHEET STOCK: 3MM PLYWOOD</text>
<g>
	<path fill="none" stroke="#F68827" stroke-miterlimit="10" d="M93.746,1541.212v-25.953h9.359c8.567,0,9.611,7.199,9.827,12.599
		c0.216,5.399-1.62,13.354-9.827,13.354H93.746z M93.746,1541.212v-25.953h9.359c8.567,0,9.611,7.199,9.827,12.599
		c0.216,5.399-1.62,13.354-9.827,13.354H93.746z"/>
	<path fill="none" stroke="#F68827" stroke-miterlimit="10" d="M127.406,1541.428c-2.988-0.107-5.363-1.044-5.363-4.355
		c0-3.348,2.016-4.751,5.831-5.111c3.78-0.359,5.471-0.936,7.271-1.439c-1.8,0.504-3.491,1.08-7.271,1.439
		c-3.815,0.36-5.831,1.764-5.831,5.111C122.043,1540.384,124.418,1541.32,127.406,1541.428c2.952,0.108,6.659-3.384,7.739-4.932
		C134.065,1538.044,130.358,1541.536,127.406,1541.428z M135.145,1538.872v-11.843c0-1.512-0.756-4.391-5.615-4.391
		s-6.659,2.195-6.659,4.463c0-2.268,1.8-4.463,6.659-4.463s5.615,2.879,5.615,4.391V1538.872c0,2.16,2.556,2.34,2.556,2.34
		S135.145,1541.032,135.145,1538.872z"/>
	<path fill="none" stroke="#F68827" stroke-miterlimit="10" d="M146.235,1522.566h7.523H146.235z M153.686,1541.032
		c-1.764,0.107-3.671,0.18-3.671-2.232c0-2.447,0-23.037,0-23.037s0,20.59,0,23.037
		C150.014,1541.212,151.922,1541.14,153.686,1541.032z"/>
	<path fill="none" stroke="#F68827" stroke-miterlimit="10" d="M161.894,1531.35h16.09c0-3.996-1.584-9.107-7.307-9.107
		c-5.688,0-8.819,3.888-8.819,9.827c0,5.975,4.031,9.143,8.819,8.999c4.823-0.145,6.911-3.888,7.163-5.22
		c-0.252,1.332-2.34,5.075-7.163,5.22c-4.788,0.144-8.819-3.024-8.819-8.999c0-5.939,3.131-9.827,8.819-9.827
		c5.723,0,7.307,5.111,7.307,9.107H161.894z"/>
	<path fill="none" stroke="#F68827" stroke-miterlimit="10" d="M190.765,1529.837v-1.979V1529.837z M190.765,1541.212v-1.979
		V1541.212z"/>
	<path fill="none" stroke="#F68827" stroke-miterlimit="10" d="M236.196,1541.212h-15.442c0.144-5.255,2.952-6.947,6.011-8.963
		l6.155-4.104c2.556-1.764,2.52-4.283,2.52-6.695c0-2.447-1.512-6.407-6.623-6.407c-5.147,0-7.055,3.815-7.055,7.415
		c0-3.6,1.908-7.415,7.055-7.415c5.111,0,6.623,3.96,6.623,6.407c0,2.412,0.036,4.932-2.52,6.695l-6.155,4.104
		c-3.06,2.016-5.867,3.708-6.011,8.963H236.196z"/>
	<path fill="none" stroke="#F68827" stroke-miterlimit="10" d="M244.694,1528.254c0-7.128,1.512-12.959,7.847-12.959
		c6.335,0,7.847,5.831,7.847,12.959c0,7.163-1.512,12.958-7.847,12.958C246.206,1541.212,244.694,1535.417,244.694,1528.254z
		 M244.694,1528.254c0-7.128,1.512-12.959,7.847-12.959c6.335,0,7.847,5.831,7.847,12.959c0,7.163-1.512,12.958-7.847,12.958
		C246.206,1541.212,244.694,1535.417,244.694,1528.254z"/>
	<path fill="none" stroke="#F68827" stroke-miterlimit="10" d="M268.921,1527.642h10.475H268.921z"/>
	<path fill="none" stroke="#F68827" stroke-miterlimit="10" d="M287.641,1528.254c0-7.128,1.512-12.959,7.847-12.959
		c6.335,0,7.847,5.831,7.847,12.959c0,7.163-1.512,12.958-7.847,12.958C289.153,1541.212,287.641,1535.417,287.641,1528.254z
		 M287.641,1528.254c0-7.128,1.512-12.959,7.847-12.959c6.335,0,7.847,5.831,7.847,12.959c0,7.163-1.512,12.958-7.847,12.958
		C289.153,1541.212,287.641,1535.417,287.641,1528.254z"/>
	<path fill="none" stroke="#F68827" stroke-miterlimit="10" d="M327.455,1522.962c0,4.716-3.312,7.848-7.667,7.848
		s-7.919-2.016-7.919-7.848c0-5.795,3.563-7.847,7.919-7.847S327.311,1518.283,327.455,1522.962c0.18,4.716,1.692,18.25-8.423,18.25
		c-5.472,0-6.551-3.023-6.767-4.787c0.216,1.764,1.295,4.787,6.767,4.787C329.146,1541.212,327.634,1527.678,327.455,1522.962
		c-0.144-4.679-3.312-7.847-7.667-7.847s-7.919,2.052-7.919,7.847c0,5.832,3.563,7.848,7.919,7.848
		S327.455,1527.678,327.455,1522.962z"/>
	<path fill="none" stroke="#F68827" stroke-miterlimit="10" d="M337.752,1527.642h10.475H337.752z"/>
	<path fill="none" stroke="#F68827" stroke-miterlimit="10" d="M362.591,1541.212v-25.953c0,4.428-4.284,5.472-6.119,5.615
		c1.835-0.144,6.119-1.188,6.119-5.615V1541.212z"/>
	<path fill="none" stroke="#F68827" stroke-miterlimit="10" d="M390.13,1541.212h-15.442c0.144-5.255,2.952-6.947,6.011-8.963
		l6.155-4.104c2.556-1.764,2.52-4.283,2.52-6.695c0-2.447-1.512-6.407-6.623-6.407c-5.147,0-7.055,3.815-7.055,7.415
		c0-3.6,1.908-7.415,7.055-7.415c5.111,0,6.623,3.96,6.623,6.407c0,2.412,0.036,4.932-2.52,6.695l-6.155,4.104
		c-3.06,2.016-5.868,3.708-6.011,8.963H390.13z"/>
	<path fill="none" stroke="#F68827" stroke-miterlimit="10" d="M453.747,1515.259h16.09H453.747v25.953V1515.259z M453.747,1527.857
		h14.614H453.747z"/>
	<path fill="none" stroke="#F68827" stroke-miterlimit="10" d="M482.51,1515.871v-0.647V1515.871z M482.51,1541.176v-18.466
		C482.51,1522.71,482.51,1541.248,482.51,1541.176z"/>
	<path fill="none" stroke="#F68827" stroke-miterlimit="10" d="M498.386,1541.212v-25.953V1541.212z"/>
	<path fill="none" stroke="#F68827" stroke-miterlimit="10" d="M510.41,1531.35h16.09c0-3.996-1.584-9.107-7.307-9.107
		c-5.688,0-8.819,3.888-8.819,9.827c0,5.975,4.031,9.143,8.819,8.999c4.823-0.145,6.911-3.888,7.163-5.22
		c-0.252,1.332-2.34,5.075-7.163,5.22c-4.788,0.144-8.819-3.024-8.819-8.999c0-5.939,3.131-9.827,8.819-9.827
		c5.723,0,7.307,5.111,7.307,9.107H510.41z"/>
	<path fill="none" stroke="#F68827" stroke-miterlimit="10" d="M557.281,1541.212v-25.953l18.502,25.953v-25.953v25.953
		l-18.502-25.953V1541.212z"/>
	<path fill="none" stroke="#F68827" stroke-miterlimit="10" d="M594.073,1541.428c-2.988-0.107-5.363-1.044-5.363-4.355
		c0-3.348,2.016-4.751,5.831-5.111c3.78-0.359,5.471-0.936,7.271-1.439c-1.8,0.504-3.491,1.08-7.271,1.439
		c-3.815,0.36-5.831,1.764-5.831,5.111C588.709,1540.384,591.085,1541.32,594.073,1541.428c2.952,0.108,6.659-3.384,7.739-4.932
		C600.732,1538.044,597.024,1541.536,594.073,1541.428z M601.812,1538.872v-11.843c0-1.512-0.756-4.391-5.615-4.391
		s-6.659,2.195-6.659,4.463c0-2.268,1.8-4.463,6.659-4.463s5.615,2.879,5.615,4.391V1538.872c0,2.16,2.556,2.34,2.556,2.34
		S601.812,1541.032,601.812,1538.872z"/>
	<path fill="none" stroke="#F68827" stroke-miterlimit="10" d="M629.063,1541.212c0,0,0-12.022,0-13.679
		c0-1.655-1.08-4.751-5.651-4.787c-4.571-0.036-6.623,3.527-6.623,6.839c0-3.312,2.052-6.875,6.623-6.839
		c4.572,0.036,5.651,3.132,5.651,4.787C629.063,1529.189,629.063,1541.212,629.063,1541.212z M616.789,1541.212v-18.466V1541.212z
		 M641.446,1541.212c0,0,0-12.022,0-13.679c0-1.655-1.584-4.751-6.155-4.787c-4.572-0.036-6.228,3.527-6.228,6.839
		c0-3.312,1.656-6.875,6.228-6.839c4.571,0.036,6.155,3.132,6.155,4.787C641.446,1529.189,641.446,1541.212,641.446,1541.212z"/>
	<path fill="none" stroke="#F68827" stroke-miterlimit="10" d="M652.465,1531.35h16.09c0-3.996-1.584-9.107-7.307-9.107
		c-5.688,0-8.819,3.888-8.819,9.827c0,5.975,4.031,9.143,8.819,8.999c4.823-0.145,6.911-3.888,7.163-5.22
		c-0.252,1.332-2.34,5.075-7.163,5.22c-4.788,0.144-8.819-3.024-8.819-8.999c0-5.939,3.131-9.827,8.819-9.827
		c5.723,0,7.307,5.111,7.307,9.107H652.465z"/>
	<path fill="none" stroke="#F68827" stroke-miterlimit="10" d="M681.336,1529.837v-1.979V1529.837z M681.336,1541.212v-1.979
		V1541.212z"/>
	<path fill="none" stroke="#F68827" stroke-miterlimit="10" d="M715.212,1541.212v-25.953h9.359c8.567,0,9.611,7.199,9.827,12.599
		c0.216,5.399-1.62,13.354-9.827,13.354H715.212z M715.212,1541.212v-25.953h9.359c8.567,0,9.611,7.199,9.827,12.599
		c0.216,5.399-1.62,13.354-9.827,13.354H715.212z"/>
	<path fill="none" stroke="#F68827" stroke-miterlimit="10" d="M747.396,1541.212v-25.953V1541.212z"/>
	<path fill="none" stroke="#F68827" stroke-miterlimit="10" d="M768.815,1541.212v-12.49l-9.431-13.463l9.431,13.463l9.431-13.463
		l-9.431,13.463V1541.212z"/>
	<path fill="none" stroke="#F68827" stroke-miterlimit="10" d="M805.966,1541.212h-15.154v-25.953v25.953H805.966z"/>
	<path fill="none" stroke="#F68827" stroke-miterlimit="10" d="M814.645,1527.642h10.475H814.645z"/>
	<path fill="none" stroke="#F68827" stroke-miterlimit="10" d="M833.364,1528.254c0-7.128,1.512-12.959,7.847-12.959
		c6.335,0,7.847,5.831,7.847,12.959c0,7.163-1.512,12.958-7.847,12.958C834.876,1541.212,833.364,1535.417,833.364,1528.254z
		 M833.364,1528.254c0-7.128,1.512-12.959,7.847-12.959c6.335,0,7.847,5.831,7.847,12.959c0,7.163-1.512,12.958-7.847,12.958
		C834.876,1541.212,833.364,1535.417,833.364,1528.254z"/>
	<path fill="none" stroke="#F68827" stroke-miterlimit="10" d="M861.371,1515.259l-2.879,12.887
		c2.052-1.728,3.347-2.771,6.911-2.771c3.563,0,7.595,2.411,7.595,7.451c0,2.195-1.188,8.495-7.667,8.495
		c-6.443,0-7.307-3.708-7.739-5.832c0.432,2.124,1.295,5.832,7.739,5.832c6.479,0,7.667-6.3,7.667-8.495
		c0-5.04-4.031-7.451-7.595-7.451c-3.564,0-4.859,1.044-6.911,2.771L861.371,1515.259h10.799H861.371z"/>
	<path fill="none" stroke="#F68827" stroke-miterlimit="10" d="M936.721,1515.259l-9.431,25.953l-9.431-25.953l9.431,25.953
		L936.721,1515.259z"/>
	<path fill="none" stroke="#F68827" stroke-miterlimit="10" d="M961.526,1531.35c0-3.996-1.584-9.107-7.307-9.107
		c-5.688,0-8.819,3.888-8.819,9.827c0,5.975,4.031,9.143,8.819,8.999c4.823-0.145,6.911-3.888,7.163-5.22
		c-0.252,1.332-2.34,5.075-7.163,5.22c-4.788,0.144-8.819-3.024-8.819-8.999c0-5.939,3.131-9.827,8.819-9.827
		C959.942,1522.242,961.526,1527.354,961.526,1531.35h-16.09H961.526z"/>
	<path fill="none" stroke="#F68827" stroke-miterlimit="10" d="M981.47,1522.746c-3.348-0.036-7.163,4.896-7.055,9.035
		C974.307,1527.642,978.122,1522.71,981.47,1522.746z M974.415,1522.746v18.466V1522.746z"/>
	<path fill="none" stroke="#F68827" stroke-miterlimit="10" d="M1002.277,1526.058c0.072-0.899-1.116-3.419-5.651-3.6
		c-4.536-0.107-6.623,1.332-6.623,4.104c0,2.808,2.339,3.672,3.204,3.924l6.803,2.016c0.9,0.216,3.06,1.188,3.06,3.852
		s-2.844,4.859-6.443,4.859s-6.875-1.908-6.875-4.716c0,2.808,3.275,4.716,6.875,4.716s6.443-2.195,6.443-4.859
		s-2.16-3.636-3.06-3.852l-6.803-2.016c-0.864-0.252-3.204-1.116-3.204-3.924c0-2.771,2.087-4.211,6.623-4.104
		C1001.161,1522.639,1002.349,1525.158,1002.277,1526.058z"/>
	<path fill="none" stroke="#F68827" stroke-miterlimit="10" d="M1015.382,1515.871v-0.647V1515.871z M1015.382,1541.176v-18.466
		C1015.382,1522.71,1015.382,1541.248,1015.382,1541.176z"/>
	<path fill="none" stroke="#F68827" stroke-miterlimit="10" d="M1027.371,1531.781c0-7.271,3.708-9.395,8.171-9.395
		c4.499,0,8.171,2.123,8.171,9.395c0,7.307-3.672,9.431-8.171,9.431C1031.078,1541.212,1027.371,1539.088,1027.371,1531.781z
		 M1027.371,1531.781c0-7.271,3.708-9.395,8.171-9.395c4.499,0,8.171,2.123,8.171,9.395c0,7.307-3.672,9.431-8.171,9.431
		C1031.078,1541.212,1027.371,1539.088,1027.371,1531.781z"/>
	<path fill="none" stroke="#F68827" stroke-miterlimit="10" d="M1069.417,1541.212c0,0,0-12.022,0-13.679
		c0-1.655-1.656-4.751-6.228-4.787c-4.607-0.036-7.019,3.527-7.019,6.839c0-3.312,2.411-6.875,7.019-6.839
		c4.571,0.036,6.228,3.132,6.228,4.787C1069.417,1529.189,1069.417,1541.212,1069.417,1541.212z M1056.17,1541.212v-18.466V1541.212
		z"/>
	<path fill="none" stroke="#F68827" stroke-miterlimit="10" d="M1083.709,1529.837v-1.979V1529.837z M1083.709,1541.212v-1.979
		V1541.212z"/>
	<path fill="none" stroke="#F68827" stroke-miterlimit="10" d="M1145.092,1541.5c-7.164,0-11.231-4.067-11.231-13.282
		c0-9.179,4.067-13.282,11.231-13.282c5.111,0,8.639,2.123,10.223,6.73c-1.584-4.607-5.111-6.73-10.223-6.73
		c-7.164,0-11.231,4.104-11.231,13.282C1133.861,1537.433,1137.928,1541.5,1145.092,1541.5c5.902,0,9.646-2.808,10.799-8.999
		C1154.738,1538.692,1150.994,1541.5,1145.092,1541.5z"/>
	<path fill="none" stroke="#F68827" stroke-miterlimit="10" d="M1164.748,1531.781c0-7.271,3.707-9.395,8.17-9.395
		c4.5,0,8.172,2.123,8.172,9.395c0,7.307-3.672,9.431-8.172,9.431C1168.455,1541.212,1164.748,1539.088,1164.748,1531.781z
		 M1164.748,1531.781c0-7.271,3.707-9.395,8.17-9.395c4.5,0,8.172,2.123,8.172,9.395c0,7.307-3.672,9.431-8.172,9.431
		C1168.455,1541.212,1164.748,1539.088,1164.748,1531.781z"/>
	<path fill="none" stroke="#F68827" stroke-miterlimit="10" d="M1206.793,1541.212c0,0,0-12.022,0-13.679
		c0-1.655-1.656-4.751-6.227-4.787c-4.607-0.036-7.02,3.527-7.02,6.839c0-3.312,2.412-6.875,7.02-6.839
		c4.57,0.036,6.227,3.132,6.227,4.787C1206.793,1529.189,1206.793,1541.212,1206.793,1541.212z M1193.547,1541.212v-18.466V1541.212
		z"/>
	<path fill="none" stroke="#F68827" stroke-miterlimit="10" d="M1217.199,1522.566h7.521H1217.199z M1224.65,1541.032
		c-1.764,0.107-3.672,0.18-3.672-2.232c0-2.447,0-23.037,0-23.037s0,20.59,0,23.037
		C1220.979,1541.212,1222.887,1541.14,1224.65,1541.032z"/>
	<path fill="none" stroke="#F68827" stroke-miterlimit="10" d="M1243.875,1522.746c-3.348-0.036-7.164,4.896-7.057,9.035
		C1236.711,1527.642,1240.527,1522.71,1243.875,1522.746z M1236.818,1522.746v18.466V1522.746z"/>
	<path fill="none" stroke="#F68827" stroke-miterlimit="10" d="M1256.076,1515.871v-0.647V1515.871z M1256.076,1541.176v-18.466
		C1256.076,1522.71,1256.076,1541.248,1256.076,1541.176z"/>
	<path fill="none" stroke="#F68827" stroke-miterlimit="10" d="M1271.953,1515.151v26.061V1515.151z M1279.584,1522.639
		c4.211,0,7.631,2.052,7.631,9.286c0,7.199-3.42,9.287-7.631,9.287s-7.631-2.088-7.631-9.287
		C1271.953,1524.69,1275.373,1522.639,1279.584,1522.639z M1279.584,1522.639c4.211,0,7.631,2.052,7.631,9.286
		c0,7.199-3.42,9.287-7.631,9.287s-7.631-2.088-7.631-9.287C1271.953,1524.69,1275.373,1522.639,1279.584,1522.639z"/>
	<path fill="none" stroke="#F68827" stroke-miterlimit="10" d="M1297.766,1536.389c0,1.655,1.654,4.751,6.227,4.787
		c4.607,0.036,7.055-3.527,7.055-6.839c0,3.312-2.447,6.875-7.055,6.839C1299.42,1541.14,1297.766,1538.044,1297.766,1536.389
		c0-1.656,0-13.715,0-13.715S1297.766,1534.732,1297.766,1536.389z M1311.047,1541.176v-18.502V1541.176z"/>
	<path fill="none" stroke="#F68827" stroke-miterlimit="10" d="M1323.613,1522.566h7.521H1323.613z M1331.064,1541.032
		c-1.764,0.107-3.672,0.18-3.672-2.232c0-2.447,0-23.037,0-23.037s0,20.59,0,23.037
		C1327.393,1541.212,1329.301,1541.14,1331.064,1541.032z"/>
	<path fill="none" stroke="#F68827" stroke-miterlimit="10" d="M1339.236,1531.781c0-7.271,3.707-9.395,8.17-9.395
		c4.5,0,8.172,2.123,8.172,9.395c0,7.307-3.672,9.431-8.172,9.431C1342.943,1541.212,1339.236,1539.088,1339.236,1531.781z
		 M1339.236,1531.781c0-7.271,3.707-9.395,8.17-9.395c4.5,0,8.172,2.123,8.172,9.395c0,7.307-3.672,9.431-8.172,9.431
		C1342.943,1541.212,1339.236,1539.088,1339.236,1531.781z"/>
	<path fill="none" stroke="#F68827" stroke-miterlimit="10" d="M1375.199,1522.746c-3.348-0.036-7.164,4.896-7.057,9.035
		C1368.035,1527.642,1371.852,1522.71,1375.199,1522.746z M1368.143,1522.746v18.466V1522.746z"/>
	<path fill="none" stroke="#F68827" stroke-miterlimit="10" d="M1387.365,1529.837v-1.979V1529.837z M1387.365,1541.212v-1.979
		V1541.212z"/>
	<path fill="none" stroke="#F68827" stroke-miterlimit="10" d="M1417.355,1533.365c0,5.759,4.391,8.062,9.539,8.062
		c5.219,0,8.494-3.275,8.602-6.479c0.109-3.167-1.512-5.687-4.715-6.371l-8.818-1.907c-2.484-0.54-3.961-1.979-3.961-5.363
		s2.844-6.3,8.027-6.3s8.963,2.448,8.818,6.731c0.145-4.283-3.635-6.731-8.818-6.731s-8.027,2.916-8.027,6.3
		s1.404,4.787,3.961,5.363l8.818,1.907c3.275,0.685,4.824,3.204,4.715,6.371c-0.107,3.204-3.383,6.479-8.602,6.479
		C1421.746,1541.428,1417.355,1539.124,1417.355,1533.365z"/>
	<path fill="none" stroke="#F68827" stroke-miterlimit="10" d="M1444.246,1522.566h7.521H1444.246z M1451.697,1541.032
		c-1.764,0.107-3.672,0.18-3.672-2.232c0-2.447,0-23.037,0-23.037s0,20.59,0,23.037
		C1448.025,1541.212,1449.934,1541.14,1451.697,1541.032z"/>
	<path fill="none" stroke="#F68827" stroke-miterlimit="10" d="M1461.707,1536.389c0,1.655,1.654,4.751,6.227,4.787
		c4.607,0.036,7.055-3.527,7.055-6.839c0,3.312-2.447,6.875-7.055,6.839C1463.361,1541.14,1461.707,1538.044,1461.707,1536.389
		c0-1.656,0-13.715,0-13.715S1461.707,1534.732,1461.707,1536.389z M1474.988,1541.176v-18.502V1541.176z"/>
	<path fill="none" stroke="#F68827" stroke-miterlimit="10" d="M1492.918,1541.428c-2.988-0.107-5.363-1.044-5.363-4.355
		c0-3.348,2.016-4.751,5.83-5.111c3.779-0.359,5.473-0.936,7.271-1.439c-1.799,0.504-3.492,1.08-7.271,1.439
		c-3.814,0.36-5.83,1.764-5.83,5.111C1487.555,1540.384,1489.93,1541.32,1492.918,1541.428c2.951,0.108,6.658-3.384,7.738-4.932
		C1499.576,1538.044,1495.869,1541.536,1492.918,1541.428z M1500.656,1538.872v-11.843c0-1.512-0.756-4.391-5.615-4.391
		s-6.658,2.195-6.658,4.463c0-2.268,1.799-4.463,6.658-4.463s5.615,2.879,5.615,4.391V1538.872c0,2.16,2.557,2.34,2.557,2.34
		S1500.656,1541.032,1500.656,1538.872z"/>
	<path fill="none" stroke="#F68827" stroke-miterlimit="10" d="M1522.797,1522.746c-3.348-0.036-7.164,4.896-7.057,9.035
		C1515.633,1527.642,1519.449,1522.71,1522.797,1522.746z M1515.74,1522.746v18.466V1522.746z"/>
	<path fill="none" stroke="#F68827" stroke-miterlimit="10" d="M1531.078,1522.566h7.521H1531.078z M1538.529,1541.032
		c-1.764,0.107-3.672,0.18-3.672-2.232c0-2.447,0-23.037,0-23.037s0,20.59,0,23.037
		C1534.857,1541.212,1536.766,1541.14,1538.529,1541.032z"/>
	<path fill="none" stroke="#F68827" stroke-miterlimit="10" d="M1575.934,1541.5c-7.164,0-11.23-4.067-11.23-13.282
		c0-9.179,4.066-13.282,11.23-13.282c5.111,0,8.639,2.123,10.223,6.73c-1.584-4.607-5.111-6.73-10.223-6.73
		c-7.164,0-11.23,4.104-11.23,13.282C1564.703,1537.433,1568.77,1541.5,1575.934,1541.5c5.902,0,9.646-2.808,10.799-8.999
		C1585.58,1538.692,1581.836,1541.5,1575.934,1541.5z"/>
	<path fill="none" stroke="#F68827" stroke-miterlimit="10" d="M1599.477,1541.212v-25.953V1541.212z M1612.939,1541.212
		c0,0,0-9.358,0-12.635c0-3.275-1.98-5.759-5.832-5.831c-3.924-0.072-7.631,2.304-7.631,5.436c0-3.132,3.707-5.508,7.631-5.436
		c3.852,0.072,5.832,2.556,5.832,5.831C1612.939,1531.854,1612.939,1541.212,1612.939,1541.212z"/>
	<path fill="none" stroke="#F68827" stroke-miterlimit="10" d="M1627.268,1515.871v-0.647V1515.871z M1627.268,1541.176v-18.466
		C1627.268,1522.71,1627.268,1541.248,1627.268,1541.176z"/>
	<path fill="none" stroke="#F68827" stroke-miterlimit="10" d="M1643.145,1541.212v-25.953V1541.212z"/>
	<path fill="none" stroke="#F68827" stroke-miterlimit="10" d="M1662.727,1522.639c4.176,0,7.631,2.087,7.631,9.286
		s-3.455,9.287-7.631,9.287s-7.594-2.088-7.594-9.287S1658.551,1522.639,1662.727,1522.639z M1662.727,1522.639
		c4.176,0,7.631,2.087,7.631,9.286s-3.455,9.287-7.631,9.287s-7.594-2.088-7.594-9.287S1658.551,1522.639,1662.727,1522.639z
		 M1670.395,1515.188v26.024V1515.188z"/>
	<path fill="none" stroke="#F68827" stroke-miterlimit="10" d="M1695.486,1526.058c0.072-0.899-1.115-3.419-5.65-3.6
		c-4.535-0.107-6.623,1.332-6.623,4.104c0,2.808,2.34,3.672,3.203,3.924l6.803,2.016c0.9,0.216,3.061,1.188,3.061,3.852
		s-2.844,4.859-6.443,4.859s-6.875-1.908-6.875-4.716c0,2.808,3.275,4.716,6.875,4.716s6.443-2.195,6.443-4.859
		s-2.16-3.636-3.061-3.852l-6.803-2.016c-0.863-0.252-3.203-1.116-3.203-3.924c0-2.771,2.088-4.211,6.623-4.104
		C1694.371,1522.639,1695.559,1525.158,1695.486,1526.058z"/>
	<path fill="none" stroke="#F68827" stroke-miterlimit="10" d="M1735.195,1526.058c0.072-0.899-1.115-3.419-5.65-3.6
		c-4.535-0.107-6.623,1.332-6.623,4.104c0,2.808,2.34,3.672,3.203,3.924l6.803,2.016c0.9,0.216,3.061,1.188,3.061,3.852
		s-2.844,4.859-6.443,4.859s-6.875-1.908-6.875-4.716c0,2.808,3.275,4.716,6.875,4.716s6.443-2.195,6.443-4.859
		s-2.16-3.636-3.061-3.852l-6.803-2.016c-0.863-0.252-3.203-1.116-3.203-3.924c0-2.771,2.088-4.211,6.623-4.104
		C1734.08,1522.639,1735.268,1525.158,1735.195,1526.058z"/>
	<path fill="none" stroke="#F68827" stroke-miterlimit="10" d="M1744.377,1522.566h7.521H1744.377z M1751.828,1541.032
		c-1.764,0.107-3.672,0.18-3.672-2.232c0-2.447,0-23.037,0-23.037s0,20.59,0,23.037
		C1748.156,1541.212,1750.064,1541.14,1751.828,1541.032z"/>
	<path fill="none" stroke="#F68827" stroke-miterlimit="10" d="M1761.838,1522.674c0,0,0,12.059,0,13.715
		c0,1.655,1.654,4.751,6.227,4.787c4.607,0.036,7.055-3.527,7.055-6.839c0,3.312-2.447,6.875-7.055,6.839
		c-4.572-0.036-6.227-3.132-6.227-4.787C1761.838,1534.732,1761.838,1522.674,1761.838,1522.674z M1775.119,1522.674v18.502
		V1522.674z"/>
	<path fill="none" stroke="#F68827" stroke-miterlimit="10" d="M1802.336,1535.345c-0.109,3.023-3.348,5.867-6.408,5.867
		c-3.023,0-8.242-0.504-8.242-9.539c0-8.999,5.83-9.106,8.387-9.106c2.555,0,5.939,1.979,6.154,4.499
		c-0.215-2.52-3.6-4.499-6.154-4.499c-2.557,0-8.387,0.107-8.387,9.106c0,9.035,5.219,9.539,8.242,9.539
		C1798.988,1541.212,1802.227,1538.368,1802.336,1535.345z"/>
	<path fill="none" stroke="#F68827" stroke-miterlimit="10" d="M1814.684,1541.212v-25.953V1541.212z M1828.146,1541.212
		c0,0,0-9.358,0-12.635c0-3.275-1.98-5.759-5.832-5.831c-3.924-0.072-7.631,2.304-7.631,5.436c0-3.132,3.707-5.508,7.631-5.436
		c3.852,0.072,5.832,2.556,5.832,5.831C1828.146,1531.854,1828.146,1541.212,1828.146,1541.212z"/>
	<path fill="none" stroke="#F68827" stroke-miterlimit="10" d="M1842.475,1515.871v-0.647V1515.871z M1842.475,1541.176v-18.466
		C1842.475,1522.71,1842.475,1541.248,1842.475,1541.176z"/>
	<path fill="none" stroke="#F68827" stroke-miterlimit="10" d="M1858.352,1541.212v-25.953V1541.212z"/>
	<path fill="none" stroke="#F68827" stroke-miterlimit="10" d="M1877.934,1522.639c4.176,0,7.631,2.087,7.631,9.286
		s-3.455,9.287-7.631,9.287s-7.594-2.088-7.594-9.287S1873.758,1522.639,1877.934,1522.639z M1877.934,1522.639
		c4.176,0,7.631,2.087,7.631,9.286s-3.455,9.287-7.631,9.287s-7.594-2.088-7.594-9.287S1873.758,1522.639,1877.934,1522.639z
		 M1885.602,1515.188v26.024V1515.188z"/>
	<path fill="none" stroke="#F68827" stroke-miterlimit="10" d="M1905.043,1522.458c-4.535-0.107-6.623,1.332-6.623,4.104
		c0,2.808,2.34,3.672,3.203,3.924l6.803,2.016c0.9,0.216,3.061,1.188,3.061,3.852s-2.844,4.859-6.443,4.859
		s-6.875-1.908-6.875-4.716c0,2.808,3.275,4.716,6.875,4.716s6.443-2.195,6.443-4.859s-2.16-3.636-3.061-3.852l-6.803-2.016
		c-0.863-0.252-3.203-1.116-3.203-3.924C1898.42,1523.79,1900.508,1522.351,1905.043,1522.458c4.535,0.181,5.723,2.7,5.65,3.6
		C1910.766,1525.158,1909.578,1522.639,1905.043,1522.458z"/>
	<path fill="none" stroke="#F68827" stroke-miterlimit="10" d="M1934.85,1543.552c-1.979,1.044-3.994,1.439-6.406,1.439
		c-5.904,0-10.906-4.319-10.906-11.267c0-7.415,5.146-13.858,13.139-13.858c6.262,0,10.438,4.428,10.438,10.439
		c0,5.399-3.023,8.566-6.371,8.566c-1.439,0-2.771-0.936-2.699-3.167h-0.107c-1.26,2.123-2.916,3.167-5.076,3.167
		c-2.088,0-3.887-1.691-3.887-4.535c0-4.464,3.527-8.531,8.529-8.531c1.512,0,2.916,0.324,3.852,0.756l-1.223,6.516
		c-0.541,2.735-0.107,3.995,1.08,4.031c1.836,0.072,3.887-2.412,3.887-6.551c0-5.256-3.131-9.035-8.711-9.035
		c-5.867,0-10.799,4.68-10.799,11.986c0,6.012,3.924,9.755,9.252,9.755c2.051,0,3.959-0.432,5.436-1.26L1934.85,1543.552z
		 M1932.871,1528.002c-0.361-0.145-0.973-0.288-1.801-0.288c-3.168,0-5.723,2.987-5.723,6.479c0,1.584,0.791,2.736,2.375,2.736
		c2.088,0,3.996-2.664,4.393-4.896L1932.871,1528.002z"/>
	<path fill="none" stroke="#F68827" stroke-miterlimit="10" d="M1954.004,1522.566c4.176,0,7.631,2.088,7.631,9.287
		c0,7.198-3.455,9.286-7.631,9.286s-7.596-2.088-7.596-9.286C1946.408,1524.654,1949.828,1522.566,1954.004,1522.566z
		 M1954.004,1522.566c4.176,0,7.631,2.088,7.631,9.287c0,7.198-3.455,9.286-7.631,9.286s-7.596-2.088-7.596-9.286
		C1946.408,1524.654,1949.828,1522.566,1954.004,1522.566z M1947.488,1544.955c0.396,2.16,3.023,3.384,6.623,3.528
		c3.672,0.107,7.523-2.592,7.523-5.939c0-3.384,0-19.689,0-19.689s0,16.306,0,19.689c0,3.348-3.852,6.047-7.523,5.939
		C1950.512,1548.339,1947.885,1547.115,1947.488,1544.955z"/>
	<path fill="none" stroke="#F68827" stroke-miterlimit="10" d="M1986.295,1541.212c0,0,0-12.022,0-13.679
		c0-1.655-1.08-4.751-5.652-4.787c-4.57-0.036-6.623,3.527-6.623,6.839c0-3.312,2.053-6.875,6.623-6.839
		c4.572,0.036,5.652,3.132,5.652,4.787C1986.295,1529.189,1986.295,1541.212,1986.295,1541.212z M1974.02,1541.212v-18.466V1541.212
		z M1998.676,1541.212c0,0,0-12.022,0-13.679c0-1.655-1.584-4.751-6.154-4.787c-4.572-0.036-6.227,3.527-6.227,6.839
		c0-3.312,1.654-6.875,6.227-6.839c4.57,0.036,6.154,3.132,6.154,4.787C1998.676,1529.189,1998.676,1541.212,1998.676,1541.212z"/>
	<path fill="none" stroke="#F68827" stroke-miterlimit="10" d="M2015.023,1541.428c-2.988-0.107-5.363-1.044-5.363-4.355
		c0-3.348,2.016-4.751,5.83-5.111c3.779-0.359,5.473-0.936,7.271-1.439c-1.799,0.504-3.492,1.08-7.271,1.439
		c-3.814,0.36-5.83,1.764-5.83,5.111C2009.66,1540.384,2012.035,1541.32,2015.023,1541.428c2.951,0.108,6.658-3.384,7.738-4.932
		C2021.682,1538.044,2017.975,1541.536,2015.023,1541.428z M2022.762,1538.872v-11.843c0-1.512-0.756-4.391-5.615-4.391
		s-6.658,2.195-6.658,4.463c0-2.268,1.799-4.463,6.658-4.463s5.615,2.879,5.615,4.391V1538.872c0,2.16,2.557,2.34,2.557,2.34
		S2022.762,1541.032,2022.762,1538.872z"/>
	<path fill="none" stroke="#F68827" stroke-miterlimit="10" d="M2037.773,1515.871v-0.647V1515.871z M2037.773,1541.176v-18.466
		C2037.773,1522.71,2037.773,1541.248,2037.773,1541.176z"/>
	<path fill="none" stroke="#F68827" stroke-miterlimit="10" d="M2053.65,1541.212v-25.953V1541.212z"/>
	<path fill="none" stroke="#F68827" stroke-miterlimit="10" d="M2069.525,1541.212v-1.979V1541.212z"/>
	<path fill="none" stroke="#F68827" stroke-miterlimit="10" d="M2096.164,1535.345c-0.107,3.023-3.348,5.867-6.406,5.867
		c-3.025,0-8.244-0.504-8.244-9.539c0-8.999,5.832-9.106,8.387-9.106c2.557,0,5.939,1.979,6.156,4.499
		c-0.217-2.52-3.6-4.499-6.156-4.499c-2.555,0-8.387,0.107-8.387,9.106c0,9.035,5.219,9.539,8.244,9.539
		C2092.816,1541.212,2096.057,1538.368,2096.164,1535.345z"/>
	<path fill="none" stroke="#F68827" stroke-miterlimit="10" d="M2104.627,1531.781c0-7.271,3.707-9.395,8.17-9.395
		c4.5,0,8.172,2.123,8.172,9.395c0,7.307-3.672,9.431-8.172,9.431C2108.334,1541.212,2104.627,1539.088,2104.627,1531.781z
		 M2104.627,1531.781c0-7.271,3.707-9.395,8.17-9.395c4.5,0,8.172,2.123,8.172,9.395c0,7.307-3.672,9.431-8.172,9.431
		C2108.334,1541.212,2104.627,1539.088,2104.627,1531.781z"/>
	<path fill="none" stroke="#F68827" stroke-miterlimit="10" d="M2145.699,1527.533c0-1.655-1.08-4.751-5.65-4.787
		c-4.572-0.036-6.623,3.527-6.623,6.839c0-3.312,2.051-6.875,6.623-6.839C2144.619,1522.782,2145.699,1525.878,2145.699,1527.533
		c0,1.656,0,13.679,0,13.679S2145.699,1529.189,2145.699,1527.533z M2133.426,1522.746v18.466V1522.746z M2158.082,1527.533
		c0-1.655-1.584-4.751-6.156-4.787c-4.57-0.036-6.227,3.527-6.227,6.839c0-3.312,1.656-6.875,6.227-6.839
		C2156.498,1522.782,2158.082,1525.878,2158.082,1527.533c0,1.656,0,13.679,0,13.679S2158.082,1529.189,2158.082,1527.533z"/>
	<path fill="none" stroke="#F68827" stroke-miterlimit="10" d="M108.9,1627.612H93.746v-25.953v25.953H108.9z"/>
	<path fill="none" stroke="#F68827" stroke-miterlimit="10" d="M121.502,1602.271v-0.647V1602.271z M121.502,1627.576v-18.466
		C121.502,1609.11,121.502,1627.648,121.502,1627.576z"/>
	<path fill="none" stroke="#F68827" stroke-miterlimit="10" d="M148.14,1621.745c-0.108,3.023-3.348,5.867-6.407,5.867
		c-3.023,0-8.243-0.504-8.243-9.539c0-8.999,5.831-9.106,8.387-9.106s5.939,1.979,6.155,4.499c-0.216-2.52-3.6-4.499-6.155-4.499
		s-8.387,0.107-8.387,9.106c0,9.035,5.219,9.539,8.243,9.539C144.792,1627.612,148.032,1624.769,148.14,1621.745z"/>
	<path fill="none" stroke="#F68827" stroke-miterlimit="10" d="M156.638,1617.75h16.09c0-3.996-1.584-9.107-7.307-9.107
		c-5.688,0-8.819,3.888-8.819,9.827c0,5.975,4.031,9.143,8.819,8.999c4.823-0.145,6.911-3.888,7.163-5.22
		c-0.252,1.332-2.34,5.075-7.163,5.22c-4.788,0.144-8.819-3.024-8.819-8.999c0-5.939,3.131-9.827,8.819-9.827
		c5.723,0,7.307,5.111,7.307,9.107H156.638z"/>
	<path fill="none" stroke="#F68827" stroke-miterlimit="10" d="M198.755,1627.612c0,0,0-12.022,0-13.679
		c0-1.655-1.656-4.751-6.228-4.787c-4.607-0.036-7.019,3.527-7.019,6.839c0-3.312,2.412-6.875,7.019-6.839
		c4.572,0.036,6.228,3.132,6.228,4.787C198.755,1615.59,198.755,1627.612,198.755,1627.612z M185.509,1627.612v-18.466V1627.612z"/>
	<path fill="none" stroke="#F68827" stroke-miterlimit="10" d="M216.037,1608.858c-4.536-0.107-6.623,1.332-6.623,4.104
		c0,2.808,2.339,3.672,3.204,3.924l6.803,2.016c0.9,0.216,3.06,1.188,3.06,3.852s-2.844,4.859-6.443,4.859s-6.875-1.908-6.875-4.716
		c0,2.808,3.275,4.716,6.875,4.716s6.443-2.195,6.443-4.859s-2.16-3.636-3.06-3.852l-6.803-2.016
		c-0.864-0.252-3.204-1.116-3.204-3.924C209.414,1610.19,211.501,1608.751,216.037,1608.858c4.535,0.181,5.723,2.7,5.651,3.6
		C221.76,1611.559,220.572,1609.039,216.037,1608.858z"/>
	<path fill="none" stroke="#F68827" stroke-miterlimit="10" d="M230.905,1617.75h16.09c0-3.996-1.584-9.107-7.307-9.107
		c-5.688,0-8.819,3.888-8.819,9.827c0,5.975,4.031,9.143,8.819,8.999c4.823-0.145,6.911-3.888,7.163-5.22
		c-0.252,1.332-2.34,5.075-7.163,5.22c-4.788,0.144-8.819-3.024-8.819-8.999c0-5.939,3.131-9.827,8.819-9.827
		c5.723,0,7.307,5.111,7.307,9.107H230.905z"/>
	<path fill="none" stroke="#F68827" stroke-miterlimit="10" d="M259.776,1616.237v-1.979V1616.237z M259.776,1627.612v-1.979
		V1627.612z"/>
	<path fill="none" stroke="#F68827" stroke-miterlimit="10" d="M300.996,1627.9c-7.163,0-11.23-4.067-11.23-13.282
		c0-9.179,4.067-13.282,11.23-13.282c5.111,0,8.639,2.123,10.223,6.73c-1.584-4.607-5.111-6.73-10.223-6.73
		c-7.163,0-11.23,4.104-11.23,13.282C289.765,1623.833,293.833,1627.9,300.996,1627.9c5.903,0,9.646-2.808,10.799-8.999
		C310.642,1625.093,306.899,1627.9,300.996,1627.9z"/>
	<path fill="none" stroke="#F68827" stroke-miterlimit="10" d="M331.703,1609.146c-3.348-0.036-7.163,4.896-7.055,9.035
		C324.54,1614.042,328.355,1609.11,331.703,1609.146z M324.648,1609.146v18.466V1609.146z"/>
	<path fill="none" stroke="#F68827" stroke-miterlimit="10" d="M340.02,1617.75h16.09c0-3.996-1.584-9.107-7.307-9.107
		c-5.688,0-8.819,3.888-8.819,9.827c0,5.975,4.031,9.143,8.819,8.999c4.823-0.145,6.911-3.888,7.163-5.22
		c-0.252,1.332-2.34,5.075-7.163,5.22c-4.788,0.144-8.819-3.024-8.819-8.999c0-5.939,3.131-9.827,8.819-9.827
		c5.723,0,7.307,5.111,7.307,9.107H340.02z"/>
	<path fill="none" stroke="#F68827" stroke-miterlimit="10" d="M370.367,1627.828c-2.988-0.107-5.363-1.044-5.363-4.355
		c0-3.348,2.016-4.751,5.831-5.111c3.78-0.359,5.471-0.936,7.271-1.439c-1.8,0.504-3.491,1.08-7.271,1.439
		c-3.815,0.36-5.831,1.764-5.831,5.111C365.004,1626.784,367.379,1627.721,370.367,1627.828c2.952,0.108,6.659-3.384,7.739-4.932
		C377.026,1624.444,373.319,1627.937,370.367,1627.828z M378.106,1625.272v-11.843c0-1.512-0.756-4.391-5.615-4.391
		s-6.659,2.195-6.659,4.463c0-2.268,1.8-4.463,6.659-4.463s5.615,2.879,5.615,4.391V1625.272c0,2.16,2.556,2.34,2.556,2.34
		S378.106,1627.433,378.106,1625.272z"/>
	<path fill="none" stroke="#F68827" stroke-miterlimit="10" d="M389.196,1608.967h7.523H389.196z M396.646,1627.433
		c-1.764,0.107-3.671,0.18-3.671-2.232c0-2.447,0-23.037,0-23.037s0,20.59,0,23.037
		C392.975,1627.612,394.883,1627.54,396.646,1627.433z"/>
	<path fill="none" stroke="#F68827" stroke-miterlimit="10" d="M408.743,1602.271v-0.647V1602.271z M408.743,1627.576v-18.466
		C408.743,1609.11,408.743,1627.648,408.743,1627.576z"/>
	<path fill="none" stroke="#F68827" stroke-miterlimit="10" d="M428.038,1627.612l-7.307-18.466L428.038,1627.612l7.379-18.466
		L428.038,1627.612z"/>
	<path fill="none" stroke="#F68827" stroke-miterlimit="10" d="M443.914,1617.75h16.09c0-3.996-1.584-9.107-7.307-9.107
		c-5.688,0-8.819,3.888-8.819,9.827c0,5.975,4.031,9.143,8.819,8.999c4.823-0.145,6.911-3.888,7.163-5.22
		c-0.252,1.332-2.34,5.075-7.163,5.22c-4.788,0.144-8.819-3.024-8.819-8.999c0-5.939,3.131-9.827,8.819-9.827
		c5.723,0,7.307,5.111,7.307,9.107H443.914z"/>
	<path fill="none" stroke="#F68827" stroke-miterlimit="10" d="M498.128,1627.9c-7.163,0-11.23-4.067-11.23-13.282
		c0-9.179,4.067-13.282,11.23-13.282c5.111,0,8.639,2.123,10.223,6.73c-1.584-4.607-5.111-6.73-10.223-6.73
		c-7.163,0-11.23,4.104-11.23,13.282C486.898,1623.833,490.965,1627.9,498.128,1627.9c5.903,0,9.646-2.808,10.799-8.999
		C507.775,1625.093,504.032,1627.9,498.128,1627.9z"/>
	<path fill="none" stroke="#F68827" stroke-miterlimit="10" d="M517.786,1618.182c0-7.271,3.708-9.395,8.171-9.395
		c4.5,0,8.171,2.123,8.171,9.395c0,7.307-3.671,9.431-8.171,9.431C521.493,1627.612,517.786,1625.488,517.786,1618.182z
		 M517.786,1618.182c0-7.271,3.708-9.395,8.171-9.395c4.5,0,8.171,2.123,8.171,9.395c0,7.307-3.671,9.431-8.171,9.431
		C521.493,1627.612,517.786,1625.488,517.786,1618.182z"/>
	<path fill="none" stroke="#F68827" stroke-miterlimit="10" d="M558.859,1613.934c0-1.655-1.08-4.751-5.651-4.787
		c-4.571-0.036-6.623,3.527-6.623,6.839c0-3.312,2.052-6.875,6.623-6.839C557.779,1609.183,558.859,1612.278,558.859,1613.934
		c0,1.656,0,13.679,0,13.679S558.859,1615.59,558.859,1613.934z M546.584,1609.146v18.466V1609.146z M571.242,1613.934
		c0-1.655-1.584-4.751-6.155-4.787c-4.572-0.036-6.228,3.527-6.228,6.839c0-3.312,1.656-6.875,6.228-6.839
		C569.658,1609.183,571.242,1612.278,571.242,1613.934c0,1.656,0,13.679,0,13.679S571.242,1615.59,571.242,1613.934z"/>
	<path fill="none" stroke="#F68827" stroke-miterlimit="10" d="M598.387,1627.612c0,0,0-12.022,0-13.679
		c0-1.655-1.08-4.751-5.651-4.787c-4.572-0.036-6.624,3.527-6.624,6.839c0-3.312,2.052-6.875,6.624-6.839
		c4.571,0.036,5.651,3.132,5.651,4.787C598.387,1615.59,598.387,1627.612,598.387,1627.612z M586.112,1627.612v-18.466V1627.612z
		 M610.77,1627.612c0,0,0-12.022,0-13.679c0-1.655-1.584-4.751-6.155-4.787c-4.572-0.036-6.228,3.527-6.228,6.839
		c0-3.312,1.656-6.875,6.228-6.839c4.571,0.036,6.155,3.132,6.155,4.787C610.77,1615.59,610.77,1627.612,610.77,1627.612z"/>
	<path fill="none" stroke="#F68827" stroke-miterlimit="10" d="M621.753,1618.182c0-7.271,3.708-9.395,8.171-9.395
		c4.5,0,8.171,2.123,8.171,9.395c0,7.307-3.671,9.431-8.171,9.431C625.46,1627.612,621.753,1625.488,621.753,1618.182z
		 M621.753,1618.182c0-7.271,3.708-9.395,8.171-9.395c4.5,0,8.171,2.123,8.171,9.395c0,7.307-3.671,9.431-8.171,9.431
		C625.46,1627.612,621.753,1625.488,621.753,1618.182z"/>
	<path fill="none" stroke="#F68827" stroke-miterlimit="10" d="M663.798,1627.612c0,0,0-12.022,0-13.679
		c0-1.655-1.656-4.751-6.228-4.787c-4.607-0.036-7.019,3.527-7.019,6.839c0-3.312,2.412-6.875,7.019-6.839
		c4.572,0.036,6.228,3.132,6.228,4.787C663.798,1615.59,663.798,1627.612,663.798,1627.612z M650.552,1627.612v-18.466V1627.612z"/>
	<path fill="none" stroke="#F68827" stroke-miterlimit="10" d="M681.08,1608.858c-4.536-0.107-6.623,1.332-6.623,4.104
		c0,2.808,2.339,3.672,3.204,3.924l6.803,2.016c0.9,0.216,3.06,1.188,3.06,3.852s-2.844,4.859-6.443,4.859s-6.875-1.908-6.875-4.716
		c0,2.808,3.275,4.716,6.875,4.716s6.443-2.195,6.443-4.859s-2.16-3.636-3.06-3.852l-6.803-2.016
		c-0.864-0.252-3.204-1.116-3.204-3.924C674.457,1610.19,676.544,1608.751,681.08,1608.858c4.535,0.181,5.723,2.7,5.651,3.6
		C686.803,1611.559,685.615,1609.039,681.08,1608.858z"/>
	<path fill="none" stroke="#F68827" stroke-miterlimit="10" d="M713.913,1627.612l10.294-25.953l10.331,25.953l-10.331-25.953
		L713.913,1627.612z M717.152,1619.441h14.11H717.152z"/>
	<path fill="none" stroke="#F68827" stroke-miterlimit="10" d="M743.324,1608.967h7.523H743.324z M750.775,1627.433
		c-1.764,0.107-3.671,0.18-3.671-2.232c0-2.447,0-23.037,0-23.037s0,20.59,0,23.037
		C747.104,1627.612,749.011,1627.54,750.775,1627.433z"/>
	<path fill="none" stroke="#F68827" stroke-miterlimit="10" d="M758.948,1608.967h7.523H758.948z M766.398,1627.433
		c-1.764,0.107-3.671,0.18-3.671-2.232c0-2.447,0-23.037,0-23.037s0,20.59,0,23.037
		C762.727,1627.612,764.635,1627.54,766.398,1627.433z"/>
	<path fill="none" stroke="#F68827" stroke-miterlimit="10" d="M785.622,1609.146c-3.348-0.036-7.163,4.896-7.055,9.035
		C778.458,1614.042,782.274,1609.11,785.622,1609.146z M778.566,1609.146v18.466V1609.146z"/>
	<path fill="none" stroke="#F68827" stroke-miterlimit="10" d="M797.826,1602.271v-0.647V1602.271z M797.826,1627.576v-18.466
		C797.826,1609.11,797.826,1627.648,797.826,1627.576z"/>
	<path fill="none" stroke="#F68827" stroke-miterlimit="10" d="M813.702,1601.552v26.061V1601.552z M821.333,1609.039
		c4.211,0,7.631,2.052,7.631,9.286c0,7.199-3.419,9.287-7.631,9.287s-7.631-2.088-7.631-9.287
		C813.702,1611.091,817.122,1609.039,821.333,1609.039z M821.333,1609.039c4.211,0,7.631,2.052,7.631,9.286
		c0,7.199-3.419,9.287-7.631,9.287s-7.631-2.088-7.631-9.287C813.702,1611.091,817.122,1609.039,821.333,1609.039z"/>
	<path fill="none" stroke="#F68827" stroke-miterlimit="10" d="M839.514,1609.074c0,0,0,12.059,0,13.715
		c0,1.655,1.656,4.751,6.228,4.787c4.607,0.036,7.055-3.527,7.055-6.839c0,3.312-2.448,6.875-7.055,6.839
		c-4.572-0.036-6.228-3.132-6.228-4.787C839.514,1621.133,839.514,1609.074,839.514,1609.074z M852.796,1609.074v18.502V1609.074z"
		/>
	<path fill="none" stroke="#F68827" stroke-miterlimit="10" d="M865.362,1608.967h7.523H865.362z M872.813,1627.433
		c-1.764,0.107-3.671,0.18-3.671-2.232c0-2.447,0-23.037,0-23.037s0,20.59,0,23.037
		C869.142,1627.612,871.049,1627.54,872.813,1627.433z"/>
	<path fill="none" stroke="#F68827" stroke-miterlimit="10" d="M884.909,1602.271v-0.647V1602.271z M884.909,1627.576v-18.466
		C884.909,1609.11,884.909,1627.648,884.909,1627.576z"/>
	<path fill="none" stroke="#F68827" stroke-miterlimit="10" d="M896.897,1618.182c0-7.271,3.708-9.395,8.171-9.395
		c4.5,0,8.171,2.123,8.171,9.395c0,7.307-3.671,9.431-8.171,9.431C900.605,1627.612,896.897,1625.488,896.897,1618.182z
		 M896.897,1618.182c0-7.271,3.708-9.395,8.171-9.395c4.5,0,8.171,2.123,8.171,9.395c0,7.307-3.671,9.431-8.171,9.431
		C900.605,1627.612,896.897,1625.488,896.897,1618.182z"/>
	<path fill="none" stroke="#F68827" stroke-miterlimit="10" d="M938.943,1627.612c0,0,0-12.022,0-13.679
		c0-1.655-1.656-4.751-6.228-4.787c-4.607-0.036-7.019,3.527-7.019,6.839c0-3.312,2.412-6.875,7.019-6.839
		c4.572,0.036,6.228,3.132,6.228,4.787C938.943,1615.59,938.943,1627.612,938.943,1627.612z M925.696,1627.612v-18.466V1627.612z"/>
	<path fill="none" stroke="#F68827" stroke-miterlimit="10" d="M967.349,1619.766c0,5.759,4.391,8.062,9.539,8.062
		c5.219,0,8.495-3.275,8.603-6.479c0.108-3.167-1.512-5.687-4.715-6.371l-8.819-1.907c-2.484-0.54-3.959-1.979-3.959-5.363
		s2.843-6.3,8.027-6.3c5.183,0,8.963,2.448,8.819,6.731c0.144-4.283-3.636-6.731-8.819-6.731c-5.184,0-8.027,2.916-8.027,6.3
		s1.404,4.787,3.959,5.363l8.819,1.907c3.275,0.685,4.823,3.204,4.715,6.371c-0.108,3.204-3.384,6.479-8.603,6.479
		C971.74,1627.828,967.349,1625.524,967.349,1619.766z"/>
	<path fill="none" stroke="#F68827" stroke-miterlimit="10" d="M998.128,1627.612v-25.953V1627.612z M1011.59,1627.612
		c0,0,0-9.358,0-12.635c0-3.275-1.979-5.759-5.831-5.831c-3.924-0.072-7.631,2.304-7.631,5.436c0-3.132,3.708-5.508,7.631-5.436
		c3.852,0.072,5.831,2.556,5.831,5.831C1011.59,1618.254,1011.59,1627.612,1011.59,1627.612z"/>
	<path fill="none" stroke="#F68827" stroke-miterlimit="10" d="M1035.099,1622.896c-1.08,1.548-4.787,5.04-7.739,4.932
		c-2.988-0.107-5.363-1.044-5.363-4.355c0-3.348,2.016-4.751,5.831-5.111c3.78-0.359,5.471-0.936,7.271-1.439
		c-1.8,0.504-3.491,1.08-7.271,1.439c-3.815,0.36-5.831,1.764-5.831,5.111c0,3.312,2.375,4.248,5.363,4.355
		C1030.312,1627.937,1034.019,1624.444,1035.099,1622.896z M1037.655,1627.612c0,0-2.556-0.18-2.556-2.34v-11.843
		c0-1.512-0.756-4.391-5.615-4.391s-6.659,2.195-6.659,4.463c0-2.268,1.8-4.463,6.659-4.463s5.615,2.879,5.615,4.391v11.843
		C1035.099,1627.433,1037.655,1627.612,1037.655,1627.612z"/>
	<path fill="none" stroke="#F68827" stroke-miterlimit="10" d="M1057.24,1609.146c-3.348-0.036-7.163,4.896-7.056,9.035
		C1050.077,1614.042,1053.892,1609.11,1057.24,1609.146z M1050.184,1609.146v18.466V1609.146z"/>
	<path fill="none" stroke="#F68827" stroke-miterlimit="10" d="M1081.647,1617.75c0-3.996-1.584-9.107-7.308-9.107
		c-5.687,0-8.818,3.888-8.818,9.827c0,5.975,4.031,9.143,8.818,8.999c4.824-0.145,6.911-3.888,7.163-5.22
		c-0.252,1.332-2.339,5.075-7.163,5.22c-4.787,0.144-8.818-3.024-8.818-8.999c0-5.939,3.132-9.827,8.818-9.827
		C1080.063,1608.643,1081.647,1613.754,1081.647,1617.75h-16.09H1081.647z"/>
	<path fill="none" stroke="#F68827" stroke-miterlimit="10" d="M1095.904,1627.828c-2.987-0.107-5.363-1.044-5.363-4.355
		c0-3.348,2.016-4.751,5.831-5.111c3.779-0.359,5.472-0.936,7.271-1.439c-1.8,0.504-3.492,1.08-7.271,1.439
		c-3.815,0.36-5.831,1.764-5.831,5.111C1090.541,1626.784,1092.917,1627.721,1095.904,1627.828c2.951,0.108,6.659-3.384,7.739-4.932
		C1102.563,1624.444,1098.855,1627.937,1095.904,1627.828z M1103.643,1625.272v-11.843c0-1.512-0.756-4.391-5.615-4.391
		s-6.659,2.195-6.659,4.463c0-2.268,1.8-4.463,6.659-4.463s5.615,2.879,5.615,4.391V1625.272c0,2.16,2.556,2.34,2.556,2.34
		S1103.643,1627.433,1103.643,1625.272z"/>
	<path fill="none" stroke="#F68827" stroke-miterlimit="10" d="M1118.62,1627.612v-25.953V1627.612z"/>
	<path fill="none" stroke="#F68827" stroke-miterlimit="10" d="M1134.531,1602.271v-0.647V1602.271z M1134.531,1627.576v-18.466
		C1134.531,1609.11,1134.531,1627.648,1134.531,1627.576z"/>
	<path fill="none" stroke="#F68827" stroke-miterlimit="10" d="M1150.406,1627.612v-7.271l4.967-4.823l7.848,12.095l-7.848-12.095
		l6.623-6.371l-11.59,11.194v-18.682V1627.612z"/>
	<path fill="none" stroke="#F68827" stroke-miterlimit="10" d="M1171.826,1617.75h16.09c0-3.996-1.584-9.107-7.307-9.107
		c-5.688,0-8.818,3.888-8.818,9.827c0,5.975,4.031,9.143,8.818,8.999c4.824-0.145,6.91-3.888,7.162-5.22
		c-0.252,1.332-2.338,5.075-7.162,5.22c-4.787,0.144-8.818-3.024-8.818-8.999c0-5.939,3.131-9.827,8.818-9.827
		c5.723,0,7.307,5.111,7.307,9.107H1171.826z"/>
	<path fill="none" stroke="#F68827" stroke-miterlimit="10" d="M1214.811,1621.097c0,3.852,2.807,6.516,7.414,6.516
		s7.775-1.908,7.775-6.659s-2.809-7.307-9.07-7.307c6.227,0.035,8.242-2.521,8.242-5.976c0-3.456-1.764-6.155-6.658-6.155
		c-4.859,0-7.199,3.06-7.199,6.515c0-3.455,2.34-6.515,7.199-6.515c4.895,0,6.658,2.699,6.658,6.155
		c0,3.455-2.016,6.011-8.242,5.976c6.262,0,9.07,2.556,9.07,7.307s-3.168,6.659-7.775,6.659S1214.811,1624.948,1214.811,1621.097z"
		/>
	<path fill="none" stroke="#F68827" stroke-miterlimit="10" d="M1242.385,1627.612v-1.979V1627.612z"/>
	<path fill="none" stroke="#F68827" stroke-miterlimit="10" d="M1254.373,1614.654c0-7.128,1.512-12.959,7.848-12.959
		c6.334,0,7.846,5.831,7.846,12.959c0,7.163-1.512,12.958-7.846,12.958C1255.885,1627.612,1254.373,1621.817,1254.373,1614.654z
		 M1254.373,1614.654c0-7.128,1.512-12.959,7.848-12.959c6.334,0,7.846,5.831,7.846,12.959c0,7.163-1.512,12.958-7.846,12.958
		C1255.885,1627.612,1254.373,1621.817,1254.373,1614.654z"/>
	<path fill="none" stroke="#F68827" stroke-miterlimit="10" d="M1314.852,1619.369c0,4.319-2.664,8.243-9,8.207
		c-6.336-0.107-9.25-3.636-9.25-8.207v-17.745v17.745c0,4.571,2.914,8.1,9.25,8.207
		C1312.188,1627.612,1314.852,1623.688,1314.852,1619.369s0-17.745,0-17.745S1314.852,1615.05,1314.852,1619.369z"/>
	<path fill="none" stroke="#F68827" stroke-miterlimit="10" d="M1340.627,1627.612c0,0,0-12.022,0-13.679
		c0-1.655-1.656-4.751-6.229-4.787c-4.607-0.036-7.018,3.527-7.018,6.839c0-3.312,2.41-6.875,7.018-6.839
		c4.572,0.036,6.229,3.132,6.229,4.787C1340.627,1615.59,1340.627,1627.612,1340.627,1627.612z M1327.381,1627.612v-18.466V1627.612
		z"/>
	<path fill="none" stroke="#F68827" stroke-miterlimit="10" d="M1354.92,1634.775v-25.988V1634.775z M1362.551,1627.612
		c4.176,0,7.631-2.124,7.631-9.431c0-7.271-3.455-9.395-7.631-9.395s-7.596,2.123-7.596,9.395
		C1354.955,1625.488,1358.375,1627.612,1362.551,1627.612z M1362.551,1627.612c4.176,0,7.631-2.124,7.631-9.431
		c0-7.271-3.455-9.395-7.631-9.395s-7.596,2.123-7.596,9.395C1354.955,1625.488,1358.375,1627.612,1362.551,1627.612z"/>
	<path fill="none" stroke="#F68827" stroke-miterlimit="10" d="M1378.896,1618.182c0-7.271,3.707-9.395,8.17-9.395
		c4.5,0,8.172,2.123,8.172,9.395c0,7.307-3.672,9.431-8.172,9.431C1382.604,1627.612,1378.896,1625.488,1378.896,1618.182z
		 M1378.896,1618.182c0-7.271,3.707-9.395,8.17-9.395c4.5,0,8.172,2.123,8.172,9.395c0,7.307-3.672,9.431-8.172,9.431
		C1382.604,1627.612,1378.896,1625.488,1378.896,1618.182z"/>
	<path fill="none" stroke="#F68827" stroke-miterlimit="10" d="M1407.803,1618.182c-0.107-4.14,3.707-9.071,7.055-9.035
		C1411.51,1609.11,1407.695,1614.042,1407.803,1618.182z M1407.803,1627.612v-18.466V1627.612z"/>
	<path fill="none" stroke="#F68827" stroke-miterlimit="10" d="M1423.139,1608.967h7.521H1423.139z M1430.59,1627.433
		c-1.764,0.107-3.672,0.18-3.672-2.232c0-2.447,0-23.037,0-23.037s0,20.59,0,23.037
		C1426.918,1627.612,1428.826,1627.54,1430.59,1627.433z"/>
	<path fill="none" stroke="#F68827" stroke-miterlimit="10" d="M1438.799,1617.75h16.09c0-3.996-1.584-9.107-7.309-9.107
		c-5.686,0-8.818,3.888-8.818,9.827c0,5.975,4.031,9.143,8.818,8.999c4.824-0.145,6.912-3.888,7.164-5.22
		c-0.252,1.332-2.34,5.075-7.164,5.22c-4.787,0.144-8.818-3.024-8.818-8.999c0-5.939,3.133-9.827,8.818-9.827
		c5.725,0,7.309,5.111,7.309,9.107H1438.799z"/>
	<path fill="none" stroke="#F68827" stroke-miterlimit="10" d="M1471.377,1609.039c4.176,0,7.631,2.087,7.631,9.286
		s-3.455,9.287-7.631,9.287s-7.596-2.088-7.596-9.287S1467.201,1609.039,1471.377,1609.039z M1471.377,1609.039
		c4.176,0,7.631,2.087,7.631,9.286s-3.455,9.287-7.631,9.287s-7.596-2.088-7.596-9.287S1467.201,1609.039,1471.377,1609.039z
		 M1479.043,1601.588v26.024V1601.588z"/>
</g>
<g>
	<circle fill="none" stroke="#010101" stroke-miterlimit="10" cx="239.029" cy="588.841" r="4.252"/>
	<circle fill="none" stroke="#010101" stroke-miterlimit="10" cx="493.45" cy="588.841" r="4.252"/>
	<circle fill="none" stroke="#010101" stroke-miterlimit="10" cx="307.58" cy="588.953" r="4.252"/>
	<circle fill="none" stroke="#010101" stroke-miterlimit="10" cx="424.647" cy="588.953" r="4.252"/>
	<circle fill="none" stroke="#010101" stroke-miterlimit="10" cx="210.684" cy="503.801" r="4.252"/>
	<circle fill="none" stroke="#010101" stroke-miterlimit="10" cx="521.794" cy="503.801" r="4.252"/>
	<circle fill="none" stroke="#010101" stroke-miterlimit="10" cx="210.684" cy="415.928" r="4.252"/>
	<circle fill="none" stroke="#010101" stroke-miterlimit="10" cx="287.221" cy="410.259" r="4.252"/>
	<circle fill="none" stroke="#010101" stroke-miterlimit="10" cx="521.794" cy="415.928" r="4.252"/>
	<circle fill="none" stroke="#010101" stroke-miterlimit="10" cx="445.258" cy="410.259" r="4.252"/>
	<path fill="none" stroke="#010101" stroke-miterlimit="10" d="M249.97,419.62c0-10.852,0-11.081,0-21.937v-0.069l-57.71-0.167
		v133.397c15.655,0,28.346,12.691,28.346,28.347l0,48.188h44.949c0-10.855,0-21.707,0-32.559h-8.996v-21.234h8.996v-17.359h23.367
		v17.359h8.969v21.234h-8.969v32.559H443.56v-32.559h-8.992v-21.234h8.992v-17.359h23.355v17.359h8.992v21.234h-8.992
		c0,10.852,0,21.703,0,32.559h44.957l0.001-48.188c0-15.655,12.691-28.347,28.347-28.347h-0.001V397.448l-57.71,0.166
		c0,11.105,0,11.808,0,22.007h8.996v15.566h-8.996v17.357h-17.698v-17.357h-8.969V419.62h8.969v-21.935l-29.548,0.08v73.698
		c0,38.121-30.903,69.023-69.024,69.023s-69.023-30.902-69.023-69.023v-73.698l-29.559-0.082v21.937h8.992v15.566h-8.992v17.357
		H249.97v-17.357h-8.992V419.62H249.97z"/>
</g>
<g>
	<circle fill="none" stroke="#010101" stroke-miterlimit="10" cx="374.395" cy="308.272" r="4.252"/>
	<circle fill="none" stroke="#010101" stroke-miterlimit="10" cx="119.974" cy="308.272" r="4.252"/>
	<circle fill="none" stroke="#010101" stroke-miterlimit="10" cx="305.844" cy="308.16" r="4.252"/>
	<circle fill="none" stroke="#010101" stroke-miterlimit="10" cx="188.777" cy="308.16" r="4.252"/>
	<circle fill="none" stroke="#010101" stroke-miterlimit="10" cx="402.74" cy="393.312" r="4.252"/>
	<circle fill="none" stroke="#010101" stroke-miterlimit="10" cx="91.629" cy="393.312" r="4.252"/>
	<circle fill="none" stroke="#010101" stroke-miterlimit="10" cx="402.74" cy="481.186" r="4.252"/>
	<circle fill="none" stroke="#010101" stroke-miterlimit="10" cx="326.203" cy="486.854" r="4.252"/>
	<circle fill="none" stroke="#010101" stroke-miterlimit="10" cx="91.629" cy="481.186" r="4.252"/>
	<circle fill="none" stroke="#010101" stroke-miterlimit="10" cx="168.166" cy="486.854" r="4.252"/>
	<path fill="none" stroke="#010101" stroke-miterlimit="10" d="M363.454,477.493c0,10.852,0,11.081,0,21.937v0.069l57.71,0.167
		V366.268c-15.655,0-28.346-12.691-28.346-28.347l0-48.188h-44.949c0,10.855,0,21.707,0,32.559h8.996v21.234h-8.996v17.359h-23.367
		v-17.359h-8.969v-21.234h8.969v-32.559H169.864v32.559h8.992v21.234h-8.992v17.359h-23.355v-17.359h-8.992v-21.234h8.992
		c0-10.852,0-21.703,0-32.559h-44.957l-0.001,48.188c0,15.655-12.691,28.347-28.347,28.347h0.001v133.397l57.71-0.166
		c0-11.105,0-11.808,0-22.007h-8.996v-15.566h8.996v-17.357h17.698v17.357h8.969v15.566h-8.969v21.935l29.548-0.08v-73.698
		c0-38.121,30.903-69.023,69.024-69.023s69.023,30.902,69.023,69.023v73.698l29.559,0.082v-21.937h-8.992v-15.566h8.992v-17.357
		h17.687v17.357h8.992v15.566H363.454z"/>
</g>
<g>
	<circle fill="none" stroke="#010101" stroke-miterlimit="10" cx="462.968" cy="364.902" r="4.252"/>
	<circle fill="none" stroke="#010101" stroke-miterlimit="10" cx="717.389" cy="364.902" r="4.252"/>
	<circle fill="none" stroke="#010101" stroke-miterlimit="10" cx="531.519" cy="365.014" r="4.252"/>
	<circle fill="none" stroke="#010101" stroke-miterlimit="10" cx="648.586" cy="365.014" r="4.252"/>
	<circle fill="none" stroke="#010101" stroke-miterlimit="10" cx="434.623" cy="279.862" r="4.252"/>
	<circle fill="none" stroke="#010101" stroke-miterlimit="10" cx="745.733" cy="279.862" r="4.252"/>
	<circle fill="none" stroke="#010101" stroke-miterlimit="10" cx="434.623" cy="191.989" r="4.252"/>
	<circle fill="none" stroke="#010101" stroke-miterlimit="10" cx="511.16" cy="186.32" r="4.252"/>
	<circle fill="none" stroke="#010101" stroke-miterlimit="10" cx="745.733" cy="191.989" r="4.252"/>
	<circle fill="none" stroke="#010101" stroke-miterlimit="10" cx="669.197" cy="186.32" r="4.252"/>
	<path fill="none" stroke="#010101" stroke-miterlimit="10" d="M473.909,195.681c0-10.852,0-11.081,0-21.937v-0.069l-57.71-0.167
		v133.397c15.655,0,28.346,12.691,28.346,28.347l0,48.188h44.949c0-10.855,0-21.707,0-32.559h-8.996v-21.234h8.996v-17.359h23.367
		v17.359h8.969v21.234h-8.969v32.559h154.637v-32.559h-8.992v-21.234h8.992v-17.359h23.355v17.359h8.992v21.234h-8.992
		c0,10.852,0,21.703,0,32.559h44.957l0.001-48.188c0-15.655,12.691-28.347,28.347-28.347h-0.001V173.509l-57.71,0.166
		c0,11.105,0,11.808,0,22.007h8.996v15.566h-8.996v17.357H688.75v-17.357h-8.969v-15.566h8.969v-21.935l-29.548,0.08v73.698
		c0,38.121-30.903,69.023-69.024,69.023s-69.023-30.902-69.023-69.023v-73.698l-29.559-0.082v21.937h8.992v15.566h-8.992v17.357
		h-17.687v-17.357h-8.992v-15.566H473.909z"/>
</g>
<g>
	<circle fill="none" stroke="#010101" stroke-miterlimit="10" cx="598.334" cy="84.333" r="4.252"/>
	<circle fill="none" stroke="#010101" stroke-miterlimit="10" cx="343.913" cy="84.333" r="4.252"/>
	<circle fill="none" stroke="#010101" stroke-miterlimit="10" cx="529.783" cy="84.221" r="4.252"/>
	<circle fill="none" stroke="#010101" stroke-miterlimit="10" cx="412.716" cy="84.221" r="4.252"/>
	<circle fill="none" stroke="#010101" stroke-miterlimit="10" cx="626.679" cy="169.374" r="4.252"/>
	<circle fill="none" stroke="#010101" stroke-miterlimit="10" cx="315.568" cy="169.374" r="4.252"/>
	<circle fill="none" stroke="#010101" stroke-miterlimit="10" cx="626.679" cy="257.247" r="4.252"/>
	<circle fill="none" stroke="#010101" stroke-miterlimit="10" cx="550.142" cy="262.916" r="4.252"/>
	<circle fill="none" stroke="#010101" stroke-miterlimit="10" cx="315.568" cy="257.247" r="4.252"/>
	<circle fill="none" stroke="#010101" stroke-miterlimit="10" cx="392.105" cy="262.916" r="4.252"/>
	<path fill="none" stroke="#010101" stroke-miterlimit="10" d="M587.393,253.554c0,10.852,0,11.081,0,21.937v0.069l57.71,0.167
		V142.329c-15.655,0-28.346-12.691-28.346-28.347l0-48.188h-44.949c0,10.855,0,21.707,0,32.559h8.996v21.234h-8.996v17.359H548.44
		v-17.359h-8.969V98.353h8.969V65.794H393.803v32.559h8.992v21.234h-8.992v17.359h-23.355v-17.359h-8.992V98.353h8.992
		c0-10.852,0-21.703,0-32.559h-44.957l-0.001,48.188c0,15.655-12.691,28.347-28.347,28.347h0.001v133.397l57.71-0.166
		c0-11.105,0-11.808,0-22.007h-8.996v-15.566h8.996V220.63h17.698v17.357h8.969v15.566h-8.969v21.935l29.548-0.08V201.71
		c0-38.121,30.903-69.023,69.024-69.023s69.023,30.902,69.023,69.023v73.698l29.559,0.082v-21.937h-8.992v-15.566h8.992V220.63
		h17.687v17.357h8.992v15.566H587.393z"/>
</g>
<g>
	<circle fill="none" stroke="#010101" stroke-miterlimit="10" cx="720.922" cy="702.228" r="4.252"/>
	<circle fill="none" stroke="#010101" stroke-miterlimit="10" cx="975.343" cy="702.228" r="4.252"/>
	<circle fill="none" stroke="#010101" stroke-miterlimit="10" cx="789.473" cy="702.34" r="4.252"/>
	<circle fill="none" stroke="#010101" stroke-miterlimit="10" cx="906.541" cy="702.34" r="4.252"/>
	<circle fill="none" stroke="#010101" stroke-miterlimit="10" cx="692.578" cy="617.188" r="4.252"/>
	<circle fill="none" stroke="#010101" stroke-miterlimit="10" cx="1003.688" cy="617.188" r="4.252"/>
	<circle fill="none" stroke="#010101" stroke-miterlimit="10" cx="692.578" cy="529.314" r="4.252"/>
	<circle fill="none" stroke="#010101" stroke-miterlimit="10" cx="769.114" cy="523.646" r="4.252"/>
	<circle fill="none" stroke="#010101" stroke-miterlimit="10" cx="1003.688" cy="529.314" r="4.252"/>
	<circle fill="none" stroke="#010101" stroke-miterlimit="10" cx="927.151" cy="523.646" r="4.252"/>
	<path fill="none" stroke="#010101" stroke-miterlimit="10" d="M731.864,533.007c0-10.852,0-11.081,0-21.937v-0.069l-57.71-0.167
		v133.397c15.655,0,28.346,12.691,28.346,28.347l0,48.188h44.949c0-10.855,0-21.707,0-32.559h-8.996v-21.234h8.996v-17.359h23.367
		v17.359h8.969v21.234h-8.969v32.559h154.637v-32.559h-8.992v-21.234h8.992v-17.359h23.355v17.359h8.992v21.234h-8.992
		c0,10.852,0,21.703,0,32.559h44.957l0.001-48.188c0-15.655,12.691-28.347,28.347-28.347h-0.001V510.834L964.402,511
		c0,11.105,0,11.808,0,22.007h8.996v15.566h-8.996v17.357h-17.698v-17.357h-8.969v-15.566h8.969v-21.935l-29.548,0.08v73.698
		c0,38.121-30.903,69.023-69.024,69.023s-69.023-30.902-69.023-69.023v-73.698l-29.559-0.082v21.937h8.992v15.566h-8.992v17.357
		h-17.687v-17.357h-8.992v-15.566H731.864z"/>
</g>
<g>
	<circle fill="none" stroke="#010101" stroke-miterlimit="10" cx="856.289" cy="421.659" r="4.252"/>
	<circle fill="none" stroke="#010101" stroke-miterlimit="10" cx="601.868" cy="421.659" r="4.252"/>
	<circle fill="none" stroke="#010101" stroke-miterlimit="10" cx="787.738" cy="421.547" r="4.252"/>
	<circle fill="none" stroke="#010101" stroke-miterlimit="10" cx="670.67" cy="421.547" r="4.252"/>
	<circle fill="none" stroke="#010101" stroke-miterlimit="10" cx="884.633" cy="506.699" r="4.252"/>
	<circle fill="none" stroke="#010101" stroke-miterlimit="10" cx="573.523" cy="506.699" r="4.252"/>
	<circle fill="none" stroke="#010101" stroke-miterlimit="10" cx="884.633" cy="594.572" r="4.252"/>
	<circle fill="none" stroke="#010101" stroke-miterlimit="10" cx="808.097" cy="600.241" r="4.252"/>
	<circle fill="none" stroke="#010101" stroke-miterlimit="10" cx="573.523" cy="594.572" r="4.252"/>
	<circle fill="none" stroke="#010101" stroke-miterlimit="10" cx="650.06" cy="600.241" r="4.252"/>
	<path fill="none" stroke="#010101" stroke-miterlimit="10" d="M845.347,590.88c0,10.852,0,11.081,0,21.937v0.069l57.71,0.167
		V479.655c-15.655,0-28.346-12.691-28.346-28.347l0-48.188h-44.949c0,10.855,0,21.707,0,32.559h8.996v21.234h-8.996v17.359h-23.367
		v-17.359h-8.969v-21.234h8.969V403.12H651.758v32.559h8.992v21.234h-8.992v17.359h-23.355v-17.359h-8.992v-21.234h8.992
		c0-10.852,0-21.703,0-32.559h-44.957l-0.001,48.188c0,15.655-12.691,28.347-28.347,28.347h0.001v133.397l57.71-0.166
		c0-11.105,0-11.808,0-22.007h-8.996v-15.566h8.996v-17.357h17.698v17.357h8.969v15.566h-8.969v21.935l29.548-0.08v-73.698
		c0-38.121,30.903-69.023,69.024-69.023s69.023,30.902,69.023,69.023v73.698l29.559,0.082V590.88h-8.992v-15.566h8.992v-17.357
		h17.687v17.357h8.992v15.566H845.347z"/>
</g>
<g>
	<circle fill="none" stroke="#010101" stroke-miterlimit="10" cx="944.861" cy="478.289" r="4.252"/>
	<circle fill="none" stroke="#010101" stroke-miterlimit="10" cx="1199.282" cy="478.289" r="4.252"/>
	<circle fill="none" stroke="#010101" stroke-miterlimit="10" cx="1013.412" cy="478.401" r="4.252"/>
	<circle fill="none" stroke="#010101" stroke-miterlimit="10" cx="1130.479" cy="478.401" r="4.252"/>
	<circle fill="none" stroke="#010101" stroke-miterlimit="10" cx="916.517" cy="393.249" r="4.252"/>
	<circle fill="none" stroke="#010101" stroke-miterlimit="10" cx="1227.627" cy="393.249" r="4.252"/>
	<circle fill="none" stroke="#010101" stroke-miterlimit="10" cx="916.517" cy="305.375" r="4.252"/>
	<circle fill="none" stroke="#010101" stroke-miterlimit="10" cx="993.053" cy="299.707" r="4.252"/>
	<circle fill="none" stroke="#010101" stroke-miterlimit="10" cx="1227.627" cy="305.375" r="4.252"/>
	<circle fill="none" stroke="#010101" stroke-miterlimit="10" cx="1151.09" cy="299.707" r="4.252"/>
	<path fill="none" stroke="#010101" stroke-miterlimit="10" d="M955.803,309.068c0-10.852,0-11.081,0-21.937v-0.069l-57.71-0.167
		v133.397c15.655,0,28.346,12.691,28.346,28.347l0,48.188h44.949c0-10.855,0-21.707,0-32.559h-8.996v-21.234h8.996v-17.359h23.367
		v17.359h8.969v21.234h-8.969v32.559h154.636v-32.559h-8.992v-21.234h8.992v-17.359h23.355v17.359h8.992v21.234h-8.992
		c0,10.852,0,21.703,0,32.559h44.957l0.001-48.188c0-15.655,12.691-28.347,28.347-28.347h-0.001V286.896l-57.71,0.166
		c0,11.105,0,11.808,0,22.007h8.996v15.566h-8.996v17.357h-17.698v-17.357h-8.969v-15.566h8.969v-21.935l-29.548,0.08v73.698
		c0,38.121-30.903,69.023-69.023,69.023s-69.023-30.902-69.023-69.023v-73.698l-29.559-0.082v21.937h8.992v15.566h-8.992v17.357
		h-17.687v-17.357h-8.992v-15.566H955.803z"/>
</g>
<g>
	<circle fill="none" stroke="#010101" stroke-miterlimit="10" cx="1080.228" cy="197.72" r="4.252"/>
	<circle fill="none" stroke="#010101" stroke-miterlimit="10" cx="825.807" cy="197.72" r="4.252"/>
	<circle fill="none" stroke="#010101" stroke-miterlimit="10" cx="1011.677" cy="197.608" r="4.252"/>
	<circle fill="none" stroke="#010101" stroke-miterlimit="10" cx="894.609" cy="197.608" r="4.252"/>
	<circle fill="none" stroke="#010101" stroke-miterlimit="10" cx="1108.572" cy="282.76" r="4.252"/>
	<circle fill="none" stroke="#010101" stroke-miterlimit="10" cx="797.462" cy="282.76" r="4.252"/>
	<circle fill="none" stroke="#010101" stroke-miterlimit="10" cx="1108.572" cy="370.633" r="4.252"/>
	<circle fill="none" stroke="#010101" stroke-miterlimit="10" cx="1032.036" cy="376.302" r="4.252"/>
	<circle fill="none" stroke="#010101" stroke-miterlimit="10" cx="797.462" cy="370.633" r="4.252"/>
	<circle fill="none" stroke="#010101" stroke-miterlimit="10" cx="873.999" cy="376.302" r="4.252"/>
	<path fill="none" stroke="#010101" stroke-miterlimit="10" d="M1069.286,366.941c0,10.852,0,11.081,0,21.937v0.069l57.71,0.167
		V255.716c-15.655,0-28.346-12.691-28.346-28.347l0-48.188h-44.949c0,10.855,0,21.707,0,32.559h8.996v21.234h-8.996v17.359h-23.367
		v-17.359h-8.969V211.74h8.969v-32.559H875.697v32.559h8.992v21.234h-8.992v17.359h-23.355v-17.359h-8.992V211.74h8.992
		c0-10.852,0-21.703,0-32.559h-44.957l-0.001,48.188c0,15.655-12.691,28.347-28.347,28.347h0.001v133.397l57.71-0.166
		c0-11.105,0-11.808,0-22.007h-8.996v-15.566h8.996v-17.357h17.698v17.357h8.969v15.566h-8.969v21.935l29.548-0.08v-73.698
		c0-38.121,30.903-69.023,69.024-69.023s69.023,30.902,69.023,69.023v73.698l29.559,0.082v-21.937h-8.992v-15.566h8.992v-17.357
		h17.687v17.357h8.992v15.566H1069.286z"/>
</g>
</svg>
