<?xml version="1.0" encoding="utf-8"?>
<!-- Generator: Adobe Illustrator 15.1.0, SVG Export Plug-In . SVG Version: 6.00 Build 0)  -->
<!DOCTYPE svg PUBLIC "-//W3C//DTD SVG 1.1//EN" "http://www.w3.org/Graphics/SVG/1.1/DTD/svg11.dtd">
<svg version="1.1" id="Layer_1" xmlns="http://www.w3.org/2000/svg" xmlns:xlink="http://www.w3.org/1999/xlink" x="0px" y="0px"
	 width="2267.72px" height="1700.79px" viewBox="0 0 2267.72 1700.79" enable-background="new 0 0 2267.72 1700.79"
	 xml:space="preserve">
<g>
	<path fill="none" stroke="#000000" stroke-miterlimit="10" d="M2225.198,1615.748c0,23.482-19.036,42.52-42.52,42.52H85.041
		c-23.483,0-42.52-19.037-42.52-42.52V85.039c0-23.483,19.037-42.52,42.52-42.52h2097.638c23.483,0,42.52,19.037,42.52,42.52
		V1615.748z"/>
	<rect x="42.521" y="1488.188" fill="none" stroke="#000000" stroke-miterlimit="10" width="2182.677" height="85.039"/>
</g>
<text transform="matrix(1 0 0 1 103.4863 570.4648)"><tspan x="0" y="0" fill="none" stroke="#F68827" stroke-miterlimit="10" font-family="'Eng_HelvLine'" font-size="36">KEY</tspan><tspan x="0" y="43.2" fill="none" stroke="#F68827" stroke-miterlimit="10" font-family="'Eng_HelvLine'" font-size="36">- vector etch</tspan><tspan x="0" y="86.4" fill="none" stroke="#745AA6" stroke-width="0.0283" stroke-miterlimit="10" font-family="'Eng_HelvLine'" font-size="36">- scan / raster etch</tspan><tspan x="0" y="129.6" fill="none" stroke="#000000" stroke-miterlimit="10" font-family="'Eng_HelvLine'" font-size="36">- vector cut</tspan><tspan x="0" y="216" fill="none" stroke="#F68827" stroke-miterlimit="10" font-family="'Eng_HelvLine'" font-size="36">note: design reversed to ensure etching</tspan><tspan x="0" y="259.2" fill="none" stroke="#F68827" stroke-miterlimit="10" font-family="'Eng_HelvLine'" font-size="36">is on back of material.</tspan><tspan x="0" y="345.6" fill="none" stroke="#F68827" stroke-miterlimit="10" font-family="'Eng_HelvLine'" font-size="36">intended material: 3mm clear colourless acrylic</tspan><tspan x="0" y="432" fill="none" stroke="#F68827" stroke-miterlimit="10" font-family="'Eng_HelvLine'" font-size="36">B.O.M. for full use:</tspan><tspan x="0" y="475.2" fill="none" stroke="#F68827" stroke-miterlimit="10" font-family="'Eng_HelvLine'" font-size="36">- </tspan><tspan x="36.72" y="475.2" fill="none" stroke="#F68827" stroke-miterlimit="10" font-family="'Eng_HelvLine'" font-size="36" letter-spacing="17">	</tspan><tspan x="72" y="475.2" fill="none" stroke="#F68827" stroke-miterlimit="10" font-family="'Eng_HelvLine'" font-size="36">sheet of 3mm acrylic</tspan><tspan x="0" y="518.4" fill="none" stroke="#F68827" stroke-miterlimit="10" font-family="'Eng_HelvLine'" font-size="36">-</tspan><tspan x="18.72" y="518.4" fill="none" stroke="#F68827" stroke-miterlimit="10" font-family="'Eng_HelvLine'" font-size="36">	</tspan><tspan x="36" y="518.4" fill="none" stroke="#F68827" stroke-miterlimit="10" font-family="'Eng_HelvLine'" font-size="36" letter-spacing="18">	</tspan><tspan x="72" y="518.4" fill="none" stroke="#F68827" stroke-miterlimit="10" font-family="'Eng_HelvLine'" font-size="36">m3 10mm nylon screw</tspan><tspan x="551.444" y="518.4" fill="none" stroke="#F68827" stroke-miterlimit="10" font-family="'Eng_HelvLine'" font-size="36" letter-spacing="6">	</tspan><tspan x="576" y="518.4" fill="none" stroke="#F68827" stroke-miterlimit="10" font-family="'Eng_HelvLine'" font-size="36" letter-spacing="18">	</tspan><tspan x="612" y="518.4" fill="none" stroke="#F68827" stroke-miterlimit="10" font-family="'Eng_HelvLine'" font-size="36">x2</tspan><tspan x="0" y="561.6" fill="none" stroke="#F68827" stroke-miterlimit="10" font-family="'Eng_HelvLine'" font-size="36">-</tspan><tspan x="18.72" y="561.6" fill="none" stroke="#F68827" stroke-miterlimit="10" font-family="'Eng_HelvLine'" font-size="36">	</tspan><tspan x="36" y="561.6" fill="none" stroke="#F68827" stroke-miterlimit="10" font-family="'Eng_HelvLine'" font-size="36" letter-spacing="18">	</tspan><tspan x="72" y="561.6" fill="none" stroke="#F68827" stroke-miterlimit="10" font-family="'Eng_HelvLine'" font-size="36">m3 nylon nut</tspan><tspan x="361.294" y="561.6" fill="none" stroke="#F68827" stroke-miterlimit="10" font-family="'Eng_HelvLine'" font-size="36" letter-spacing="16">	</tspan><tspan x="396.001" y="561.6" fill="none" stroke="#F68827" stroke-miterlimit="10" font-family="'Eng_HelvLine'" font-size="36" letter-spacing="18">						</tspan><tspan x="612.001" y="561.6" fill="none" stroke="#F68827" stroke-miterlimit="10" font-family="'Eng_HelvLine'" font-size="36">x2</tspan><tspan x="0" y="604.8" fill="none" stroke="#F68827" stroke-miterlimit="10" font-family="'Eng_HelvLine'" font-size="36">-</tspan><tspan x="18.72" y="604.8" fill="none" stroke="#F68827" stroke-miterlimit="10" font-family="'Eng_HelvLine'" font-size="36">	</tspan><tspan x="36" y="604.8" fill="none" stroke="#F68827" stroke-miterlimit="10" font-family="'Eng_HelvLine'" font-size="36" letter-spacing="18">	</tspan><tspan x="72" y="604.8" fill="none" stroke="#F68827" stroke-miterlimit="10" font-family="'Eng_HelvLine'" font-size="36">3mm nylon spacer</tspan><tspan x="471.201" y="604.8" fill="none" stroke="#F68827" stroke-miterlimit="10" font-family="'Eng_HelvLine'" font-size="36" letter-spacing="14">	</tspan><tspan x="504" y="604.8" fill="none" stroke="#F68827" stroke-miterlimit="10" font-family="'Eng_HelvLine'" font-size="36" letter-spacing="18">			</tspan><tspan x="612" y="604.8" fill="none" stroke="#F68827" stroke-miterlimit="10" font-family="'Eng_HelvLine'" font-size="36">x2</tspan><tspan x="0" y="648" fill="none" stroke="#F68827" stroke-miterlimit="10" font-family="'Eng_HelvLine'" font-size="36">-</tspan><tspan x="18.72" y="648" fill="none" stroke="#F68827" stroke-miterlimit="10" font-family="'Eng_HelvLine'" font-size="36">	</tspan><tspan x="36" y="648" fill="none" stroke="#F68827" stroke-miterlimit="10" font-family="'Eng_HelvLine'" font-size="36" letter-spacing="18">	</tspan><tspan x="72" y="648" fill="none" stroke="#F68827" stroke-miterlimit="10" font-family="'Eng_HelvLine'" font-size="36">rubber bumper stickers</tspan><tspan x="590.069" y="648" fill="none" stroke="#F68827" stroke-miterlimit="10" font-family="'Eng_HelvLine'" font-size="36" letter-spacing="3">	</tspan><tspan x="612" y="648" fill="none" stroke="#F68827" stroke-miterlimit="10" font-family="'Eng_HelvLine'" font-size="36">x8</tspan></text>
<text transform="matrix(1 0 0 1 68.3682 1538.377)"><tspan x="0" y="0" fill="none" stroke="#F68827" stroke-miterlimit="10" font-family="'Eng_HelvLine'" font-size="36">Date: 13-01-14</tspan><tspan x="296.312" y="0" fill="none" stroke="#F68827" stroke-miterlimit="10" font-family="'Eng_HelvLine'" font-size="36" letter-spacing="9">	</tspan><tspan x="324" y="0" fill="none" stroke="#F68827" stroke-miterlimit="10" font-family="'Eng_HelvLine'" font-size="36" letter-spacing="18">	</tspan><tspan x="360" y="0" fill="none" stroke="#F68827" stroke-miterlimit="10" font-family="'Eng_HelvLine'" font-size="36">File Name: RPIH-01</tspan><tspan x="794.299" y="0" fill="none" stroke="#F68827" stroke-miterlimit="10" font-family="'Eng_HelvLine'" font-size="36" letter-spacing="15">	</tspan><tspan x="828" y="0" fill="none" stroke="#F68827" stroke-miterlimit="10" font-family="'Eng_HelvLine'" font-size="36" letter-spacing="18">	</tspan><tspan x="864" y="0" fill="none" stroke="#F68827" stroke-miterlimit="10" font-family="'Eng_HelvLine'" font-size="36">Version:</tspan><tspan x="1041.838" y="0" fill="none" stroke="#F68827" stroke-miterlimit="10" font-family="'Eng_HelvLine'" font-size="36" letter-spacing="-15">	</tspan><tspan x="1044" y="0" fill="none" stroke="#F68827" stroke-miterlimit="10" font-family="'Eng_HelvLine'" font-size="36" letter-spacing="18">	</tspan><tspan x="1080" y="0" fill="none" stroke="#F68827" stroke-miterlimit="10" font-family="'Eng_HelvLine'" font-size="36">Contributor: Stuart Childs stuchilds</tspan><tspan x="1866.016" y="0" fill="none" stroke="#F68827" stroke-miterlimit="10" font-family="'MyriadPro-Regular'" font-size="36">@</tspan><tspan x="1892.548" y="0" fill="none" stroke="#F68827" stroke-miterlimit="10" font-family="'Eng_HelvLine'" font-size="36">gmail.com</tspan><tspan x="2115.204" y="0" fill="none" stroke="#F68827" stroke-miterlimit="10" font-family="'Eng_HelvLine'" font-size="36" letter-spacing="-9">	</tspan><tspan x="2124" y="0" fill="none" stroke="#F68827" stroke-miterlimit="10" font-family="'Eng_HelvLine'" font-size="36" letter-spacing="18">	</tspan><tspan x="0" y="86.4" fill="none" stroke="#F68827" stroke-miterlimit="10" font-family="'Eng_HelvLine'" font-size="36">License: Creative Commons Attribution Sharealike 3.0 Unported</tspan><tspan x="1401.751" y="86.4" fill="none" stroke="#F68827" stroke-miterlimit="10" font-family="'Eng_HelvLine'" font-size="36" letter-spacing="-15">	</tspan><tspan x="1404" y="86.4" fill="none" stroke="#F68827" stroke-miterlimit="10" font-family="'Eng_HelvLine'" font-size="36" letter-spacing="18">	</tspan></text>
<line fill="none" stroke="#F68827" stroke-miterlimit="10" x1="1926.348" y1="1476.11" x2="2209.812" y2="1476.11"/>
<g>
	<path fill="none" stroke="#F68827" stroke-miterlimit="10" d="M1927.86,1463.057c0,2.241,1.709,3.138,3.712,3.138
		c2.031,0,3.306-1.274,3.348-2.521c0.042-1.232-0.588-2.213-1.835-2.479l-3.432-0.742c-0.967-0.21-1.541-0.771-1.541-2.087
		s1.106-2.451,3.124-2.451c2.017,0,3.488,0.952,3.432,2.619c0.057-1.667-1.415-2.619-3.432-2.619c-2.018,0-3.124,1.135-3.124,2.451
		s0.547,1.863,1.541,2.087l3.432,0.742c1.275,0.267,1.877,1.247,1.835,2.479c-0.042,1.247-1.316,2.521-3.348,2.521
		C1929.569,1466.194,1927.86,1465.298,1927.86,1463.057z"/>
	<path fill="none" stroke="#F68827" stroke-miterlimit="10" d="M1941.526,1466.11c-1.177,0-3.208-0.196-3.208-3.712
		c0-3.502,2.27-3.544,3.264-3.544c0.995,0,2.312,0.771,2.396,1.751c-0.084-0.98-1.4-1.751-2.396-1.751
		c-0.994,0-3.264,0.042-3.264,3.544C1938.318,1465.914,1940.35,1466.11,1941.526,1466.11c1.19,0,2.451-1.106,2.493-2.283
		C1943.978,1465.004,1942.717,1466.11,1941.526,1466.11z"/>
	<path fill="none" stroke="#F68827" stroke-miterlimit="10" d="M1952.405,1464.275c-0.42,0.603-1.862,1.961-3.012,1.919
		c-1.162-0.042-2.087-0.406-2.087-1.695c0-1.303,0.784-1.849,2.27-1.988c1.471-0.141,2.129-0.364,2.829-0.561
		c-0.7,0.196-1.358,0.42-2.829,0.561c-1.485,0.14-2.27,0.686-2.27,1.988c0,1.289,0.925,1.653,2.087,1.695
		C1950.543,1466.236,1951.985,1464.878,1952.405,1464.275z M1953.4,1466.11c0,0-0.995-0.07-0.995-0.91v-4.608
		c0-0.589-0.294-1.709-2.185-1.709c-1.892,0-2.592,0.854-2.592,1.736c0-0.882,0.7-1.736,2.592-1.736c1.891,0,2.185,1.12,2.185,1.709
		v4.608C1952.405,1466.04,1953.4,1466.11,1953.4,1466.11z"/>
	<path fill="none" stroke="#F68827" stroke-miterlimit="10" d="M1958.227,1466.11v-10.1V1466.11z"/>
	<path fill="none" stroke="#F68827" stroke-miterlimit="10" d="M1962.901,1462.272h6.262c0-1.555-0.616-3.544-2.844-3.544
		c-2.213,0-3.432,1.513-3.432,3.824c0,2.325,1.569,3.558,3.432,3.502c1.877-0.057,2.689-1.513,2.788-2.031
		c-0.099,0.519-0.911,1.975-2.788,2.031c-1.862,0.056-3.432-1.177-3.432-3.502c0-2.312,1.219-3.824,3.432-3.824
		c2.228,0,2.844,1.989,2.844,3.544H1962.901z"/>
	<path fill="none" stroke="#F68827" stroke-miterlimit="10" d="M1974.131,1461.684v-0.771V1461.684z M1974.131,1466.11v-0.771
		V1466.11z"/>
	<path fill="none" stroke="#F68827" stroke-miterlimit="10" d="M1987.305,1466.11v-10.1V1466.11z"/>
	<path fill="none" stroke="#F68827" stroke-miterlimit="10" d="M1993.493,1456.249v-0.252V1456.249z M1993.493,1466.097v-7.187
		C1993.493,1458.91,1993.493,1466.124,1993.493,1466.097z"/>
	<path fill="none" stroke="#F68827" stroke-miterlimit="10" d="M2004.821,1466.11c0,0,0-4.679,0-5.323
		c0-0.644-0.645-1.849-2.424-1.862c-1.793-0.015-2.731,1.372-2.731,2.661c0-1.289,0.938-2.676,2.731-2.661
		c1.779,0.014,2.424,1.219,2.424,1.862C2004.821,1461.432,2004.821,1466.11,2004.821,1466.11z M1999.666,1466.11v-7.186V1466.11z"/>
	<path fill="none" stroke="#F68827" stroke-miterlimit="10" d="M2008.877,1462.272h6.262c0-1.555-0.616-3.544-2.844-3.544
		c-2.213,0-3.432,1.513-3.432,3.824c0,2.325,1.569,3.558,3.432,3.502c1.877-0.057,2.689-1.513,2.788-2.031
		c-0.099,0.519-0.911,1.975-2.788,2.031c-1.862,0.056-3.432-1.177-3.432-3.502c0-2.312,1.219-3.824,3.432-3.824
		c2.228,0,2.844,1.989,2.844,3.544H2008.877z"/>
	<path fill="none" stroke="#F68827" stroke-miterlimit="10" d="M2027.106,1455.969v10.142V1455.969z M2030.076,1458.883
		c1.639,0,2.97,0.798,2.97,3.613c0,2.802-1.331,3.614-2.97,3.614s-2.97-0.812-2.97-3.614
		C2027.106,1459.681,2028.438,1458.883,2030.076,1458.883z M2030.076,1458.883c1.639,0,2.97,0.798,2.97,3.613
		c0,2.802-1.331,3.614-2.97,3.614s-2.97-0.812-2.97-3.614C2027.106,1459.681,2028.438,1458.883,2030.076,1458.883z"/>
	<path fill="none" stroke="#F68827" stroke-miterlimit="10" d="M2042.705,1462.272c0-1.555-0.616-3.544-2.844-3.544
		c-2.213,0-3.432,1.513-3.432,3.824c0,2.325,1.569,3.558,3.432,3.502c1.877-0.057,2.689-1.513,2.788-2.031
		c-0.099,0.519-0.911,1.975-2.788,2.031c-1.862,0.056-3.432-1.177-3.432-3.502c0-2.312,1.219-3.824,3.432-3.824
		C2042.089,1458.729,2042.705,1460.718,2042.705,1462.272h-6.262H2042.705z"/>
	<path fill="none" stroke="#F68827" stroke-miterlimit="10" d="M2047.672,1466.11v-10.1V1466.11z"/>
	<path fill="none" stroke="#F68827" stroke-miterlimit="10" d="M2052.333,1462.44c0-2.83,1.443-3.656,3.18-3.656
		c1.751,0,3.18,0.826,3.18,3.656c0,2.844-1.429,3.67-3.18,3.67C2053.776,1466.11,2052.333,1465.284,2052.333,1462.44z
		 M2052.333,1462.44c0-2.83,1.443-3.656,3.18-3.656c1.751,0,3.18,0.826,3.18,3.656c0,2.844-1.429,3.67-3.18,3.67
		C2053.776,1466.11,2052.333,1465.284,2052.333,1462.44z"/>
	<path fill="none" stroke="#F68827" stroke-miterlimit="10" d="M2064.094,1466.11l2.479-7.186l2.493,7.186l2.073-7.186l-2.073,7.186
		l-2.493-7.186L2064.094,1466.11l-2.073-7.186L2064.094,1466.11z"/>
	<path fill="none" stroke="#F68827" stroke-miterlimit="10" d="M2083.12,1456.249v-0.252V1456.249z M2083.12,1466.097v-7.187
		C2083.12,1458.91,2083.12,1466.124,2083.12,1466.097z"/>
	<path fill="none" stroke="#F68827" stroke-miterlimit="10" d="M2090.456,1458.812c-1.766-0.042-2.577,0.519-2.577,1.597
		c0,1.093,0.91,1.429,1.246,1.527l2.647,0.784c0.351,0.084,1.19,0.462,1.19,1.499c0,1.036-1.106,1.891-2.507,1.891
		c-1.401,0-2.676-0.742-2.676-1.835c0,1.093,1.274,1.835,2.676,1.835c1.4,0,2.507-0.854,2.507-1.891c0-1.037-0.84-1.415-1.19-1.499
		l-2.647-0.784c-0.336-0.099-1.246-0.435-1.246-1.527C2087.879,1459.331,2088.69,1458.771,2090.456,1458.812
		c1.765,0.07,2.227,1.051,2.199,1.4C2092.683,1459.863,2092.221,1458.883,2090.456,1458.812z"/>
	<path fill="none" stroke="#F68827" stroke-miterlimit="10" d="M2105.604,1466.11v-10.1c0,1.723-1.667,2.129-2.382,2.186
		c0.715-0.057,2.382-0.463,2.382-2.186V1466.11z"/>
	<path fill="none" stroke="#F68827" stroke-miterlimit="10" d="M2110.307,1461.067c0-2.773,0.589-5.043,3.054-5.043
		c2.466,0,3.054,2.27,3.054,5.043c0,2.788-0.588,5.043-3.054,5.043C2110.896,1466.11,2110.307,1463.855,2110.307,1461.067z
		 M2110.307,1461.067c0-2.773,0.589-5.043,3.054-5.043c2.466,0,3.054,2.27,3.054,5.043c0,2.788-0.588,5.043-3.054,5.043
		C2110.896,1466.11,2110.307,1463.855,2110.307,1461.067z"/>
	<path fill="none" stroke="#F68827" stroke-miterlimit="10" d="M2119.729,1461.067c0-2.773,0.589-5.043,3.054-5.043
		c2.466,0,3.054,2.27,3.054,5.043c0,2.788-0.588,5.043-3.054,5.043C2120.317,1466.11,2119.729,1463.855,2119.729,1461.067z
		 M2119.729,1461.067c0-2.773,0.589-5.043,3.054-5.043c2.466,0,3.054,2.27,3.054,5.043c0,2.788-0.588,5.043-3.054,5.043
		C2120.317,1466.11,2119.729,1463.855,2119.729,1461.067z"/>
	<path fill="none" stroke="#F68827" stroke-miterlimit="10" d="M2135.439,1466.11c0,0,0-4.679,0-5.323
		c0-0.644-0.42-1.849-2.199-1.862c-1.778-0.015-2.577,1.372-2.577,2.661c0-1.289,0.799-2.676,2.577-2.661
		c1.779,0.014,2.199,1.219,2.199,1.862C2135.439,1461.432,2135.439,1466.11,2135.439,1466.11z M2130.663,1466.11v-7.186V1466.11z
		 M2140.259,1466.11c0,0,0-4.679,0-5.323c0-0.644-0.616-1.849-2.396-1.862c-1.779-0.015-2.424,1.372-2.424,2.661
		c0-1.289,0.645-2.676,2.424-2.661c1.779,0.014,2.396,1.219,2.396,1.862C2140.259,1461.432,2140.259,1466.11,2140.259,1466.11z"/>
	<path fill="none" stroke="#F68827" stroke-miterlimit="10" d="M2150.812,1466.11c0,0,0-4.679,0-5.323
		c0-0.644-0.42-1.849-2.198-1.862c-1.779-0.015-2.578,1.372-2.578,2.661c0-1.289,0.799-2.676,2.578-2.661
		c1.778,0.014,2.198,1.219,2.198,1.862C2150.812,1461.432,2150.812,1466.11,2150.812,1466.11z M2146.035,1466.11v-7.186V1466.11z
		 M2155.631,1466.11c0,0,0-4.679,0-5.323c0-0.644-0.616-1.849-2.396-1.862c-1.779-0.015-2.424,1.372-2.424,2.661
		c0-1.289,0.645-2.676,2.424-2.661c1.779,0.014,2.396,1.219,2.396,1.862C2155.631,1461.432,2155.631,1466.11,2155.631,1466.11z"/>
	<path fill="none" stroke="#F68827" stroke-miterlimit="10" d="M2168.407,1466.11v-10.1V1466.11z"/>
	<path fill="none" stroke="#F68827" stroke-miterlimit="10" d="M2173.068,1462.44c0-2.83,1.443-3.656,3.18-3.656
		c1.751,0,3.18,0.826,3.18,3.656c0,2.844-1.429,3.67-3.18,3.67C2174.512,1466.11,2173.068,1465.284,2173.068,1462.44z
		 M2173.068,1462.44c0-2.83,1.443-3.656,3.18-3.656c1.751,0,3.18,0.826,3.18,3.656c0,2.844-1.429,3.67-3.18,3.67
		C2174.512,1466.11,2173.068,1465.284,2173.068,1462.44z"/>
	<path fill="none" stroke="#F68827" stroke-miterlimit="10" d="M2189.424,1466.11c0,0,0-4.679,0-5.323
		c0-0.644-0.645-1.849-2.424-1.862c-1.793-0.015-2.731,1.372-2.731,2.661c0-1.289,0.938-2.676,2.731-2.661
		c1.779,0.014,2.424,1.219,2.424,1.862C2189.424,1461.432,2189.424,1466.11,2189.424,1466.11z M2184.269,1466.11v-7.186V1466.11z"/>
	<path fill="none" stroke="#F68827" stroke-miterlimit="10" d="M2196.422,1458.854c1.625,0,2.97,0.812,2.97,3.614
		c0,2.801-1.345,3.613-2.97,3.613s-2.956-0.812-2.956-3.613C2193.466,1459.667,2194.797,1458.854,2196.422,1458.854z
		 M2196.422,1458.854c1.625,0,2.97,0.812,2.97,3.614c0,2.801-1.345,3.613-2.97,3.613s-2.956-0.812-2.956-3.613
		C2193.466,1459.667,2194.797,1458.854,2196.422,1458.854z M2193.886,1467.567c0.154,0.84,1.177,1.316,2.578,1.372
		c1.429,0.042,2.928-1.008,2.928-2.311c0-1.317,0-7.662,0-7.662s0,6.345,0,7.662c0,1.303-1.499,2.353-2.928,2.311
		C2195.062,1468.884,2194.04,1468.407,2193.886,1467.567z"/>
</g>
<polygon fill="none" stroke="#F58220" stroke-width="0.216" stroke-miterlimit="2.6131" points="280.967,373.865 280.967,136.266 
	129.441,136.266 129.441,373.865 280.967,373.865 "/>
<line fill="none" stroke="#F58220" stroke-width="0.216" stroke-miterlimit="2.6131" x1="255.32" y1="373.865" x2="255.32" y2="136.266"/>
<line fill="none" stroke="#F58220" stroke-width="0.216" stroke-miterlimit="2.6131" x1="155.096" y1="373.865" x2="155.096" y2="136.266"/>
<text transform="matrix(-1 0 0 1 239.5605 259.3647)" fill="none" stroke="#745AA6" stroke-width="0.0284" stroke-miterlimit="10" font-family="'ArialMT'" font-size="11.9997">Breadboard</text>
<circle fill="none" stroke="#000000" stroke-miterlimit="10" cx="425.121" cy="375.486" r="4.252"/>
<circle fill="none" stroke="#000000" stroke-miterlimit="10" cx="497.123" cy="220.985" r="4.252"/>
<circle fill="none" stroke="#745AA6" stroke-width="0.0283" stroke-miterlimit="10" cx="519.79" cy="372.489" r="14.173"/>
<circle fill="none" stroke="#745AA6" stroke-width="0.0283" stroke-miterlimit="10" cx="420.576" cy="236.424" r="14.173"/>
<rect x="389.479" y="148.746" fill="none" stroke="#F58220" stroke-width="0.216" stroke-miterlimit="2.6131" width="157.645" height="240.751"/>
<g>
	
		<text transform="matrix(-1 0 0 1 506.5791 272.4761)" fill="none" stroke="#745AA6" stroke-width="0.0284" stroke-miterlimit="10" font-family="'ArialMT'" font-size="12">Raspberry Pi</text>
</g>
<g>
	
		<text transform="matrix(-1 0 0 1 253.627 395.8872)" fill="none" stroke="#745AA6" stroke-width="0.0284" stroke-miterlimit="10" font-family="'ArialMT'" font-size="18">piffin.co.uk</text>
</g>
<circle fill="none" stroke="#F58220" stroke-width="0.216" stroke-miterlimit="2.6131" cx="534.479" cy="127.507" r="14.174"/>
<circle fill="none" stroke="#F58220" stroke-width="0.216" stroke-miterlimit="2.6131" cx="534.479" cy="382.63" r="14.174"/>
<circle fill="none" stroke="#F58220" stroke-width="0.216" stroke-miterlimit="2.6131" cx="368.586" cy="127.507" r="14.174"/>
<circle fill="none" stroke="#F58220" stroke-width="0.216" stroke-miterlimit="2.6131" cx="368.587" cy="382.63" r="14.174"/>
<circle fill="none" stroke="#F58220" stroke-width="0.216" stroke-miterlimit="2.6131" cx="134.792" cy="127.507" r="14.174"/>
<circle fill="none" stroke="#F58220" stroke-width="0.216" stroke-miterlimit="2.6131" cx="134.792" cy="382.63" r="14.174"/>
<rect x="310.183" y="144.515" fill="none" stroke="#F58220" stroke-width="0.216" stroke-miterlimit="2.6131" width="34.016" height="221.102"/>
<line fill="none" stroke="#F58220" stroke-width="0.216" stroke-miterlimit="2.6131" x1="344.198" y1="161.524" x2="310.183" y2="161.524"/>
<line fill="none" stroke="#F58220" stroke-width="0.216" stroke-miterlimit="2.6131" x1="344.198" y1="178.534" x2="310.183" y2="178.534"/>
<line fill="none" stroke="#F58220" stroke-width="0.216" stroke-miterlimit="2.6131" x1="344.198" y1="195.544" x2="310.183" y2="195.544"/>
<line fill="none" stroke="#F58220" stroke-width="0.216" stroke-miterlimit="2.6131" x1="344.198" y1="212.554" x2="310.183" y2="212.554"/>
<line fill="none" stroke="#F58220" stroke-width="0.216" stroke-miterlimit="2.6131" x1="344.198" y1="229.563" x2="310.183" y2="229.563"/>
<line fill="none" stroke="#F58220" stroke-width="0.216" stroke-miterlimit="2.6131" x1="344.198" y1="246.573" x2="310.183" y2="246.573"/>
<line fill="none" stroke="#F58220" stroke-width="0.216" stroke-miterlimit="2.6131" x1="344.198" y1="263.583" x2="310.183" y2="263.583"/>
<line fill="none" stroke="#F58220" stroke-width="0.216" stroke-miterlimit="2.6131" x1="344.198" y1="280.593" x2="310.183" y2="280.593"/>
<line fill="none" stroke="#F58220" stroke-width="0.216" stroke-miterlimit="2.6131" x1="344.198" y1="297.603" x2="310.183" y2="297.603"/>
<line fill="none" stroke="#F58220" stroke-width="0.216" stroke-miterlimit="2.6131" x1="344.198" y1="314.612" x2="310.183" y2="314.612"/>
<line fill="none" stroke="#F58220" stroke-width="0.216" stroke-miterlimit="2.6131" x1="344.198" y1="331.622" x2="310.183" y2="331.622"/>
<line fill="none" stroke="#F58220" stroke-width="0.216" stroke-miterlimit="2.6131" x1="344.198" y1="348.632" x2="310.183" y2="348.632"/>
<line fill="none" stroke="#F58220" stroke-width="0.216" stroke-miterlimit="2.6131" x1="327.19" y1="365.616" x2="327.19" y2="144.515"/>
<path fill="none" stroke="#000000" stroke-miterlimit="10" d="M421.069,113.333c0-7.828-6.346-14.174-14.174-14.174l-0.102,0.001
	H131.833c-15.655,0-28.347,12.691-28.347,28.347v255.118c0,15.655,12.691,28.346,28.347,28.346H534.48
	c15.656,0,28.347-12.69,28.347-28.346V127.507c0-15.655-12.69-28.347-28.347-28.347h-17.133l-0.003-0.001
	c-7.826,0-14.172,6.346-14.172,14.174v0.001v8.505c0,7.828-6.346,14.174-14.172,14.174h-53.858c-7.828,0-14.174-6.346-14.174-14.174
	l0.101-0.001V113.333z"/>
<g>
	<path fill="none" stroke="#745AA6" stroke-width="0.0283" stroke-miterlimit="10" d="M244.29,106.3h8.497v9.562h-2.585v-7.01
		h-5.912c-3.07,0-5.557,2.519-5.557,5.588c0,3.102,2.486,5.589,5.557,5.589h5.912h2.585v8.948h-2.585v-6.396h-5.912
		c-4.49,0-8.142-3.651-8.142-8.142C236.148,109.951,239.8,106.3,244.29,106.3z"/>
	<path fill="none" stroke="#745AA6" stroke-width="0.0283" stroke-miterlimit="10" d="M228.739,115.604v-9.239h2.553v9.239H228.739z
		 M231.292,119.771v9.206h-2.553v-9.206H231.292z"/>
	<path fill="none" stroke="#745AA6" stroke-width="0.0283" stroke-miterlimit="10" d="M180.782,115.604v-9.239h2.553v9.239H180.782z
		 M183.335,119.771v9.206h-2.553v-9.206H183.335z"/>
	<path fill="none" stroke="#745AA6" stroke-width="0.0283" stroke-miterlimit="10" d="M168.86,116.444l7.074-10.08v22.613h-2.553
		v-14.505l-4.521,6.461V116.444z M160.17,106.365v14.472l4.522-6.493v4.489l-7.074,10.145v-22.613H160.17z"/>
	<g>
		
			<rect x="208.741" y="116.26" fill="none" stroke="#745AA6" stroke-width="0.0283" stroke-miterlimit="10" width="8.305" height="2.73"/>
		<polygon fill="none" stroke="#745AA6" stroke-width="0.0283" stroke-miterlimit="10" points="222.661,106.365 222.661,128.978 
			219.599,128.978 219.599,122.006 219.599,118.99 219.599,116.26 219.599,112.767 219.599,109.095 207.053,109.095 
			207.053,106.365 		"/>
	</g>
	<g>
		
			<rect x="188.998" y="116.26" fill="none" stroke="#745AA6" stroke-width="0.0283" stroke-miterlimit="10" width="8.306" height="2.73"/>
		<polygon fill="none" stroke="#745AA6" stroke-width="0.0283" stroke-miterlimit="10" points="202.918,106.365 202.918,128.978 
			199.856,128.978 199.856,123.417 199.856,118.99 199.856,116.26 199.856,114.211 199.856,109.095 187.31,109.095 187.31,106.365 
					"/>
	</g>
</g>
<rect x="337.422" y="123.566" fill="none" stroke="#000000" stroke-width="0.2835" stroke-miterlimit="10" width="14.174" height="8.504"/>
<rect x="300.572" y="123.566" fill="none" stroke="#000000" stroke-width="0.2835" stroke-miterlimit="10" width="14.173" height="8.504"/>
<circle fill="none" stroke="#000000" stroke-width="0.2835" stroke-miterlimit="10" cx="326.083" cy="127.818" r="4.252"/>
<rect x="337.422" y="378.687" fill="none" stroke="#000000" stroke-width="0.2835" stroke-miterlimit="10" width="14.174" height="8.504"/>
<rect x="300.572" y="378.687" fill="none" stroke="#000000" stroke-width="0.2835" stroke-miterlimit="10" width="14.173" height="8.504"/>
<circle fill="none" stroke="#000000" stroke-width="0.2835" stroke-miterlimit="10" cx="326.083" cy="382.938" r="4.252"/>
<line fill="none" stroke="#F58220" stroke-width="0.216" stroke-miterlimit="2.6131" x1="349.127" y1="144.519" x2="382.468" y2="148.869"/>
<path fill="none" stroke="#745AA6" stroke-width="0.0283" stroke-miterlimit="10" d="M334.377,149.373h1.113
	c0.156,0.436,0.443,0.817,0.863,1.145s0.809,0.55,1.168,0.667v1.245c-0.682-0.225-1.271-0.571-1.773-1.04v5.171h-1.371V149.373z"/>
<path fill="none" stroke="#745AA6" stroke-width="0.0283" stroke-miterlimit="10" d="M318.99,155.283
	c-0.072-0.123-0.166-0.25-0.281-0.381s-0.391-0.395-0.822-0.791c-0.434-0.396-0.732-0.701-0.898-0.913
	c-0.252-0.319-0.434-0.624-0.549-0.915c-0.117-0.292-0.174-0.599-0.174-0.921c0-0.566,0.201-1.04,0.605-1.421
	c0.402-0.381,0.959-0.571,1.664-0.571c0.645,0,1.182,0.165,1.611,0.493s0.686,0.871,0.768,1.626l-1.367,0.137
	c-0.027-0.4-0.125-0.687-0.293-0.859c-0.17-0.173-0.398-0.259-0.684-0.259c-0.291,0-0.518,0.082-0.682,0.246
	c-0.164,0.165-0.246,0.4-0.246,0.706c0,0.276,0.094,0.557,0.283,0.84c0.139,0.205,0.52,0.596,1.137,1.172
	c0.77,0.713,1.283,1.285,1.543,1.716c0.262,0.432,0.418,0.889,0.469,1.37h-4.809v-1.274H318.99z"/>
<path fill="none" stroke="#745AA6" stroke-width="0.0283" stroke-miterlimit="10" d="M337.584,173.041
	c-0.426,0.372-0.963,0.559-1.611,0.559c-0.684,0-1.254-0.221-1.713-0.664s-0.689-0.979-0.689-1.606c0-0.433,0.123-0.802,0.369-1.108
	c0.246-0.307,0.574-0.503,0.984-0.591c-0.688-0.374-1.031-0.876-1.031-1.504c0-0.442,0.168-0.84,0.504-1.191
	c0.406-0.43,0.947-0.645,1.621-0.645c0.393,0,0.75,0.074,1.066,0.222c0.318,0.148,0.564,0.352,0.742,0.611
	c0.178,0.258,0.311,0.604,0.398,1.037l-1.266,0.215c-0.035-0.312-0.137-0.551-0.303-0.713s-0.365-0.244-0.6-0.244
	c-0.238,0-0.428,0.072-0.572,0.215c-0.143,0.143-0.215,0.336-0.215,0.576c0,0.283,0.098,0.51,0.293,0.682
	c0.195,0.17,0.479,0.251,0.85,0.241l0.152,1.118c-0.244-0.068-0.455-0.103-0.631-0.103c-0.266,0-0.492,0.101-0.678,0.303
	s-0.279,0.476-0.279,0.82c0,0.364,0.098,0.654,0.291,0.869s0.432,0.322,0.715,0.322c0.264,0,0.488-0.089,0.674-0.269
	s0.301-0.438,0.342-0.776l1.328,0.161C338.258,172.18,338.012,172.668,337.584,173.041z"/>
<path fill="none" stroke="#745AA6" stroke-width="0.0283" stroke-miterlimit="10" d="M316.985,173.536v-1.44h-0.889v-1.206h0.889
	v-4.541h1.152l3.105,4.546v1.201h-2.93v1.44H316.985z M319.959,170.89l-1.646-2.446v2.446H319.959z"/>
<path fill="none" stroke="#745AA6" stroke-width="0.0283" stroke-miterlimit="10" d="M337.609,189.793
	c-0.418,0.354-0.955,0.532-1.617,0.532c-0.826,0-1.473-0.316-1.938-0.947c-0.342-0.463-0.513-0.988-0.513-1.577
	c0-0.706,0.212-1.28,0.634-1.724c0.424-0.443,0.939-0.664,1.549-0.664c0.318,0,0.631,0.076,0.938,0.229l-0.215-1.216h-2.588v-1.284
	h3.627l0.703,3.726l-1.113,0.161c-0.312-0.349-0.666-0.522-1.059-0.522c-0.316,0-0.572,0.109-0.77,0.33
	c-0.197,0.219-0.295,0.549-0.295,0.988c0,0.469,0.1,0.819,0.297,1.053c0.199,0.232,0.441,0.349,0.729,0.349
	c0.25,0,0.471-0.091,0.664-0.271c0.191-0.182,0.307-0.426,0.346-0.735l1.367,0.142C338.275,188.962,338.025,189.438,337.609,189.793
	z"/>
<path fill="none" stroke="#745AA6" stroke-width="0.0283" stroke-miterlimit="10" d="M317.093,183.533
	c0.357-0.305,0.807-0.457,1.351-0.457c0.774,0,1.404,0.29,1.89,0.869s0.728,1.525,0.728,2.837c0,1.279-0.232,2.2-0.698,2.761
	c-0.466,0.562-1.06,0.843-1.782,0.843c-0.674,0-1.226-0.222-1.655-0.664s-0.645-1.03-0.645-1.763c0-0.69,0.204-1.253,0.613-1.689
	c0.408-0.437,0.898-0.654,1.472-0.654c0.508,0,0.933,0.202,1.274,0.605c-0.052-0.823-0.178-1.365-0.379-1.626
	c-0.199-0.261-0.444-0.391-0.734-0.391c-0.218,0-0.396,0.065-0.532,0.195s-0.222,0.332-0.254,0.605l-1.328-0.146
	C316.51,184.279,316.737,183.837,317.093,183.533z M319.249,186.936c-0.183-0.206-0.405-0.31-0.669-0.31
	c-0.273,0-0.501,0.108-0.684,0.325c-0.183,0.216-0.273,0.557-0.273,1.022c0,0.452,0.085,0.778,0.254,0.977s0.381,0.298,0.635,0.298
	c0.264,0,0.498-0.121,0.703-0.363c0.205-0.243,0.308-0.587,0.308-1.033C319.522,187.448,319.432,187.143,319.249,186.936z"/>
<path fill="none" stroke="#745AA6" stroke-width="0.0283" stroke-miterlimit="10" d="M335.174,201.961
	c0.645,0.811,1.16,1.73,1.545,2.759c0.387,1.028,0.592,2.038,0.613,3.027h-1.322c0.002-0.632-0.102-1.349-0.311-2.15
	c-0.211-0.803-0.516-1.561-0.916-2.273s-0.793-1.26-1.181-1.641v-0.996h4.692v1.274H335.174z"/>
<path fill="none" stroke="#745AA6" stroke-width="0.0283" stroke-miterlimit="10" d="M320.735,204.633
	c0.192,0.324,0.288,0.68,0.288,1.067c0,0.703-0.256,1.257-0.767,1.66c-0.433,0.342-0.975,0.513-1.626,0.513
	c-0.7,0-1.261-0.207-1.683-0.62c-0.421-0.413-0.632-0.95-0.632-1.611c0-0.4,0.104-0.754,0.31-1.06
	c0.207-0.306,0.509-0.539,0.906-0.698c-0.312-0.137-0.555-0.335-0.728-0.593c-0.173-0.26-0.259-0.555-0.259-0.887
	c0-0.534,0.188-0.975,0.564-1.323c0.375-0.349,0.903-0.522,1.584-0.522c0.687,0,1.217,0.174,1.59,0.522
	c0.372,0.349,0.559,0.789,0.559,1.323c0,0.312-0.08,0.6-0.242,0.861c-0.16,0.263-0.419,0.469-0.773,0.618
	C320.24,204.06,320.543,204.31,320.735,204.633z M319.425,204.816c-0.165-0.231-0.415-0.347-0.75-0.347
	c-0.29,0-0.529,0.102-0.718,0.306c-0.188,0.203-0.283,0.473-0.283,0.808c0,0.384,0.093,0.678,0.278,0.882
	c0.186,0.203,0.42,0.305,0.703,0.305c0.29,0,0.531-0.105,0.725-0.317c0.194-0.212,0.291-0.506,0.291-0.884
	C319.671,205.298,319.589,205.048,319.425,204.816z M319.31,201.882c-0.156-0.156-0.366-0.234-0.63-0.234
	c-0.254,0-0.458,0.077-0.612,0.231c-0.155,0.155-0.232,0.361-0.232,0.618c0,0.273,0.078,0.487,0.234,0.642
	c0.156,0.155,0.364,0.232,0.625,0.232c0.257,0,0.463-0.076,0.617-0.229c0.155-0.153,0.232-0.366,0.232-0.64
	C319.544,202.245,319.466,202.038,319.31,201.882z"/>
<path fill="none" stroke="#745AA6" stroke-width="0.0283" stroke-miterlimit="10" d="M337.538,224.363
	c-0.344,0.299-0.797,0.447-1.357,0.447c-0.777,0-1.408-0.29-1.895-0.869c-0.484-0.579-0.727-1.523-0.727-2.832
	c0-1.286,0.233-2.209,0.698-2.771c0.467-0.561,1.062-0.842,1.787-0.842c0.668,0,1.217,0.223,1.648,0.666
	c0.432,0.445,0.646,1.03,0.646,1.756c0,0.696-0.203,1.262-0.611,1.697c-0.41,0.434-0.895,0.651-1.459,0.651
	c-0.518,0-0.949-0.2-1.293-0.601c0.055,0.82,0.182,1.36,0.381,1.621c0.197,0.261,0.439,0.391,0.723,0.391
	c0.225,0,0.404-0.065,0.541-0.195s0.223-0.33,0.254-0.601l1.328,0.146C338.104,223.621,337.884,224.066,337.538,224.363z
	 M335.368,220.948c0.182,0.208,0.402,0.312,0.666,0.312c0.273,0,0.502-0.108,0.684-0.325c0.184-0.216,0.273-0.556,0.273-1.018
	c0-0.456-0.084-0.783-0.25-0.984c-0.168-0.199-0.379-0.3-0.633-0.3c-0.268,0-0.502,0.122-0.705,0.366
	c-0.205,0.244-0.307,0.588-0.307,1.03C335.097,220.434,335.188,220.74,335.368,220.948z"/>
<g>
	<g>
		<path fill="none" stroke="#745AA6" stroke-width="0.0283" stroke-miterlimit="10" d="M320.445,217.56h1.113
			c0.156,0.437,0.443,0.818,0.863,1.145c0.42,0.328,0.809,0.55,1.168,0.667v1.245c-0.682-0.225-1.271-0.571-1.773-1.04v5.171h-1.371
			V217.56z"/>
		<path fill="none" stroke="#745AA6" stroke-width="0.0283" stroke-miterlimit="10" d="M317.695,218.292
			c0.469,0.593,0.703,1.562,0.703,2.91c0,1.374-0.213,2.328-0.639,2.863c-0.428,0.536-0.988,0.804-1.686,0.804
			c-0.693,0-1.232-0.244-1.621-0.732c-0.469-0.593-0.703-1.565-0.703-2.92c0-1.357,0.232-2.329,0.699-2.915
			c0.391-0.495,0.932-0.742,1.625-0.742S317.309,217.804,317.695,218.292z M315.633,218.856c-0.129,0.105-0.234,0.315-0.32,0.629
			c-0.084,0.314-0.127,0.892-0.127,1.731s0.047,1.436,0.143,1.787c0.07,0.273,0.172,0.463,0.303,0.569
			c0.129,0.105,0.277,0.158,0.443,0.158s0.314-0.052,0.441-0.156c0.129-0.104,0.236-0.313,0.32-0.627
			c0.086-0.314,0.127-0.892,0.127-1.731s-0.047-1.438-0.141-1.792c-0.072-0.273-0.174-0.463-0.303-0.568
			c-0.131-0.106-0.279-0.159-0.445-0.159S315.762,218.75,315.633,218.856z"/>
	</g>
</g>
<g>
	<g>
		<path fill="none" stroke="#745AA6" stroke-width="0.0283" stroke-miterlimit="10" d="M336.881,234.685h1.113
			c0.156,0.437,0.445,0.818,0.865,1.145c0.42,0.328,0.809,0.55,1.166,0.667v1.245c-0.68-0.225-1.271-0.571-1.771-1.04v5.171h-1.373
			V234.685z"/>
		<path fill="none" stroke="#745AA6" stroke-width="0.0283" stroke-miterlimit="10" d="M331.872,234.685h1.113
			c0.156,0.437,0.444,0.818,0.865,1.145c0.42,0.328,0.809,0.55,1.166,0.667v1.245c-0.68-0.225-1.271-0.571-1.772-1.04v5.171h-1.372
			V234.685z"/>
	</g>
</g>
<g>
	<g>
		<path fill="none" stroke="#745AA6" stroke-width="0.0283" stroke-miterlimit="10" d="M320.439,234.685h1.113
			c0.156,0.437,0.445,0.818,0.865,1.145c0.42,0.328,0.809,0.55,1.166,0.667v1.245c-0.68-0.225-1.271-0.571-1.771-1.04v5.171h-1.373
			V234.685z"/>
		<path fill="none" stroke="#745AA6" stroke-width="0.0283" stroke-miterlimit="10" d="M316.48,240.598
			c-0.072-0.124-0.166-0.251-0.281-0.381s-0.391-0.394-0.822-0.791c-0.434-0.397-0.732-0.701-0.898-0.913
			c-0.252-0.319-0.434-0.624-0.549-0.916c-0.117-0.291-0.174-0.598-0.174-0.92c0-0.566,0.201-1.04,0.605-1.421
			c0.402-0.381,0.959-0.571,1.664-0.571c0.645,0,1.182,0.164,1.611,0.493s0.686,0.871,0.768,1.626l-1.367,0.137
			c-0.027-0.4-0.125-0.687-0.293-0.859c-0.17-0.173-0.398-0.259-0.684-0.259c-0.291,0-0.518,0.082-0.682,0.247
			c-0.164,0.164-0.246,0.399-0.246,0.705c0,0.276,0.094,0.557,0.283,0.84c0.139,0.205,0.52,0.596,1.137,1.172
			c0.77,0.713,1.283,1.285,1.543,1.717c0.262,0.431,0.418,0.888,0.469,1.369h-4.809v-1.274H316.48z"/>
	</g>
</g>
<g>
	<g>
		<path fill="none" stroke="#745AA6" stroke-width="0.0283" stroke-miterlimit="10" d="M337.756,251.41h1.113
			c0.156,0.437,0.443,0.818,0.863,1.145c0.42,0.328,0.809,0.55,1.168,0.667v1.245c-0.682-0.225-1.271-0.571-1.773-1.04v5.171h-1.371
			V251.41z"/>
		<path fill="none" stroke="#745AA6" stroke-width="0.0283" stroke-miterlimit="10" d="M335.012,258.16
			c-0.428,0.373-0.965,0.56-1.612,0.56c-0.684,0-1.254-0.222-1.713-0.664s-0.688-0.979-0.688-1.606c0-0.433,0.123-0.803,0.368-1.108
			c0.246-0.306,0.574-0.503,0.984-0.591c-0.687-0.374-1.03-0.876-1.03-1.504c0-0.442,0.168-0.84,0.503-1.191
			c0.407-0.43,0.947-0.645,1.621-0.645c0.394,0,0.75,0.074,1.066,0.223c0.318,0.147,0.566,0.352,0.742,0.609
			c0.178,0.26,0.311,0.605,0.398,1.038l-1.264,0.215c-0.037-0.312-0.137-0.55-0.303-0.713s-0.367-0.244-0.601-0.244
			c-0.237,0-0.428,0.071-0.571,0.215s-0.215,0.335-0.215,0.576c0,0.283,0.098,0.511,0.293,0.681c0.195,0.172,0.479,0.252,0.85,0.242
			l0.15,1.118c-0.244-0.068-0.454-0.103-0.629-0.103c-0.267,0-0.493,0.101-0.679,0.303c-0.185,0.202-0.278,0.476-0.278,0.82
			c0,0.364,0.097,0.654,0.29,0.869c0.194,0.215,0.433,0.322,0.716,0.322c0.264,0,0.489-0.09,0.674-0.269s0.299-0.438,0.342-0.776
			l1.328,0.161C335.686,257.301,335.438,257.788,335.012,258.16z"/>
	</g>
</g>
<g>
	<g>
		<path fill="none" stroke="#745AA6" stroke-width="0.0283" stroke-miterlimit="10" d="M320.577,251.472h1.113
			c0.156,0.437,0.444,0.818,0.864,1.145c0.42,0.328,0.809,0.55,1.167,0.667v1.245c-0.681-0.225-1.271-0.571-1.772-1.04v5.171h-1.372
			V251.472z"/>
		<path fill="none" stroke="#745AA6" stroke-width="0.0283" stroke-miterlimit="10" d="M314.508,258.659v-1.44h-0.889v-1.206h0.889
			v-4.541h1.152l3.105,4.546v1.201h-2.93v1.44H314.508z M317.481,256.013l-1.646-2.446v2.446H317.481z"/>
	</g>
</g>
<g>
	<g>
		<path fill="none" stroke="#745AA6" stroke-width="0.0283" stroke-miterlimit="10" d="M337.818,268.312h1.113
			c0.156,0.437,0.445,0.818,0.865,1.145c0.42,0.328,0.809,0.55,1.166,0.667v1.245c-0.68-0.225-1.271-0.571-1.771-1.04v5.171h-1.373
			V268.312z"/>
		<path fill="none" stroke="#745AA6" stroke-width="0.0283" stroke-miterlimit="10" d="M335.002,275.089
			c-0.418,0.354-0.955,0.532-1.617,0.532c-0.827,0-1.472-0.315-1.938-0.947c-0.342-0.462-0.513-0.988-0.513-1.577
			c0-0.706,0.212-1.281,0.635-1.724s0.939-0.664,1.547-0.664c0.319,0,0.632,0.076,0.938,0.229l-0.215-1.216h-2.588v-1.284h3.627
			l0.703,3.726l-1.113,0.161c-0.312-0.349-0.666-0.522-1.059-0.522c-0.315,0-0.572,0.11-0.77,0.329
			c-0.196,0.221-0.294,0.55-0.294,0.989c0,0.469,0.1,0.819,0.297,1.052c0.198,0.233,0.441,0.35,0.728,0.35
			c0.251,0,0.471-0.09,0.665-0.271c0.191-0.18,0.307-0.425,0.346-0.734l1.367,0.142
			C335.668,274.257,335.418,274.734,335.002,275.089z"/>
	</g>
</g>
<g>
	<g>
		<path fill="none" stroke="#745AA6" stroke-width="0.0283" stroke-miterlimit="10" d="M320.514,268.434h1.113
			c0.156,0.437,0.443,0.818,0.863,1.145c0.42,0.328,0.809,0.55,1.168,0.667v1.245c-0.682-0.225-1.271-0.571-1.773-1.04v5.171h-1.371
			V268.434z"/>
		<path fill="none" stroke="#745AA6" stroke-width="0.0283" stroke-miterlimit="10" d="M314.494,268.891
			c0.357-0.305,0.807-0.457,1.352-0.457c0.773,0,1.404,0.29,1.889,0.869c0.486,0.579,0.729,1.525,0.729,2.837
			c0,1.279-0.232,2.2-0.699,2.761c-0.465,0.562-1.059,0.843-1.781,0.843c-0.674,0-1.227-0.222-1.656-0.664s-0.645-1.03-0.645-1.763
			c0-0.69,0.205-1.253,0.613-1.689s0.898-0.654,1.473-0.654c0.508,0,0.932,0.202,1.273,0.605c-0.051-0.823-0.178-1.365-0.379-1.626
			c-0.199-0.261-0.443-0.391-0.734-0.391c-0.217,0-0.395,0.065-0.531,0.195s-0.223,0.332-0.254,0.605l-1.328-0.146
			C313.912,269.637,314.139,269.194,314.494,268.891z M316.65,272.293c-0.182-0.206-0.404-0.31-0.668-0.31
			c-0.273,0-0.502,0.108-0.684,0.325c-0.184,0.216-0.273,0.557-0.273,1.022c0,0.452,0.084,0.778,0.254,0.977
			c0.168,0.198,0.381,0.298,0.635,0.298c0.264,0,0.498-0.121,0.703-0.363c0.205-0.243,0.307-0.587,0.307-1.033
			C316.924,272.806,316.834,272.5,316.65,272.293z"/>
	</g>
</g>
<g>
	<g>
		<path fill="none" stroke="#745AA6" stroke-width="0.0283" stroke-miterlimit="10" d="M337.748,285.484h1.113
			c0.156,0.437,0.443,0.818,0.863,1.145c0.42,0.328,0.809,0.55,1.168,0.667v1.245c-0.682-0.225-1.271-0.571-1.773-1.04v5.171h-1.371
			V285.484z"/>
		<path fill="none" stroke="#745AA6" stroke-width="0.0283" stroke-miterlimit="10" d="M332.577,286.886
			c0.645,0.811,1.16,1.73,1.544,2.759c0.387,1.028,0.592,2.038,0.613,3.027h-1.323c0.003-0.632-0.101-1.349-0.31-2.15
			c-0.211-0.803-0.516-1.561-0.916-2.273c-0.4-0.713-0.795-1.26-1.182-1.641v-0.996h4.692v1.274H332.577z"/>
	</g>
</g>
<g>
	<g>
		<path fill="none" stroke="#745AA6" stroke-width="0.0283" stroke-miterlimit="10" d="M320.467,285.484h1.113
			c0.156,0.437,0.444,0.818,0.864,1.145c0.42,0.328,0.809,0.55,1.167,0.667v1.245c-0.681-0.225-1.271-0.571-1.772-1.04v5.171h-1.372
			V285.484z"/>
		<path fill="none" stroke="#745AA6" stroke-width="0.0283" stroke-miterlimit="10" d="M318.147,289.559
			c0.192,0.324,0.288,0.68,0.288,1.067c0,0.703-0.256,1.257-0.767,1.66c-0.433,0.342-0.975,0.513-1.626,0.513
			c-0.7,0-1.261-0.207-1.683-0.62c-0.421-0.413-0.632-0.95-0.632-1.611c0-0.4,0.104-0.754,0.31-1.06
			c0.207-0.306,0.509-0.539,0.906-0.698c-0.312-0.137-0.555-0.335-0.728-0.593c-0.173-0.26-0.259-0.555-0.259-0.887
			c0-0.534,0.188-0.975,0.564-1.323c0.375-0.349,0.903-0.522,1.584-0.522c0.687,0,1.217,0.174,1.59,0.522
			c0.372,0.349,0.559,0.789,0.559,1.323c0,0.312-0.08,0.6-0.242,0.861c-0.16,0.263-0.419,0.469-0.773,0.618
			C317.652,288.985,317.955,289.235,318.147,289.559z M316.837,289.742c-0.165-0.231-0.415-0.347-0.75-0.347
			c-0.29,0-0.529,0.102-0.718,0.306c-0.188,0.203-0.283,0.473-0.283,0.808c0,0.384,0.093,0.678,0.278,0.882
			c0.186,0.203,0.42,0.305,0.703,0.305c0.29,0,0.531-0.105,0.725-0.317c0.194-0.212,0.291-0.506,0.291-0.884
			C317.083,290.224,317.001,289.974,316.837,289.742z M316.722,286.808c-0.156-0.156-0.366-0.234-0.63-0.234
			c-0.254,0-0.458,0.077-0.612,0.231c-0.155,0.155-0.232,0.361-0.232,0.618c0,0.273,0.078,0.487,0.234,0.642
			c0.156,0.155,0.364,0.232,0.625,0.232c0.257,0,0.463-0.076,0.617-0.229c0.155-0.153,0.232-0.366,0.232-0.64
			C316.956,287.171,316.878,286.964,316.722,286.808z"/>
	</g>
</g>
<g>
	<g>
		<path fill="none" stroke="#745AA6" stroke-width="0.0283" stroke-miterlimit="10" d="M337.738,302.538h1.113
			c0.156,0.437,0.443,0.818,0.863,1.145c0.42,0.328,0.809,0.55,1.168,0.667v1.245c-0.682-0.225-1.271-0.571-1.773-1.04v5.171h-1.371
			V302.538z"/>
		<path fill="none" stroke="#745AA6" stroke-width="0.0283" stroke-miterlimit="10" d="M334.994,309.405
			c-0.346,0.299-0.799,0.447-1.358,0.447c-0.778,0-1.409-0.29-1.895-0.869c-0.484-0.579-0.727-1.523-0.727-2.832
			c0-1.286,0.232-2.209,0.697-2.771c0.467-0.561,1.062-0.842,1.788-0.842c0.667,0,1.217,0.223,1.647,0.666
			c0.432,0.445,0.648,1.03,0.648,1.756c0,0.696-0.205,1.262-0.613,1.697c-0.408,0.434-0.895,0.651-1.458,0.651
			c-0.518,0-0.949-0.2-1.293-0.601c0.056,0.82,0.182,1.36,0.38,1.621s0.439,0.391,0.723,0.391c0.224,0,0.406-0.065,0.542-0.195
			s0.221-0.33,0.254-0.601l1.328,0.146C335.561,308.663,335.338,309.108,334.994,309.405z M332.823,305.99
			c0.182,0.208,0.403,0.312,0.667,0.312c0.274,0,0.5-0.108,0.684-0.325c0.182-0.216,0.273-0.556,0.273-1.018
			c0-0.456-0.084-0.783-0.252-0.984c-0.168-0.199-0.379-0.3-0.632-0.3c-0.267,0-0.502,0.122-0.705,0.366
			c-0.204,0.244-0.306,0.588-0.306,1.03C332.552,305.476,332.643,305.782,332.823,305.99z"/>
	</g>
</g>
<g>
	<g>
		<path fill="none" stroke="#745AA6" stroke-width="0.0283" stroke-miterlimit="10" d="M321.775,308.453
			c-0.071-0.124-0.165-0.251-0.281-0.381c-0.115-0.13-0.39-0.394-0.822-0.791s-0.732-0.701-0.898-0.913
			c-0.251-0.319-0.434-0.624-0.549-0.916c-0.116-0.291-0.174-0.598-0.174-0.92c0-0.566,0.202-1.04,0.605-1.421
			s0.959-0.571,1.665-0.571c0.645,0,1.182,0.164,1.611,0.493s0.686,0.871,0.767,1.626l-1.367,0.137
			c-0.026-0.4-0.124-0.687-0.293-0.859s-0.397-0.259-0.684-0.259c-0.29,0-0.517,0.082-0.682,0.247
			c-0.164,0.164-0.246,0.399-0.246,0.705c0,0.276,0.095,0.557,0.283,0.84c0.14,0.205,0.52,0.596,1.138,1.172
			c0.769,0.713,1.282,1.285,1.543,1.717c0.261,0.431,0.417,0.888,0.469,1.369h-4.81v-1.274H321.775z"/>
		<path fill="none" stroke="#745AA6" stroke-width="0.0283" stroke-miterlimit="10" d="M317.425,303.272
			c0.469,0.593,0.703,1.562,0.703,2.91c0,1.374-0.213,2.328-0.64,2.863c-0.427,0.536-0.988,0.804-1.685,0.804
			c-0.693,0-1.233-0.244-1.621-0.732c-0.469-0.593-0.703-1.565-0.703-2.92c0-1.357,0.232-2.329,0.698-2.915
			c0.391-0.495,0.933-0.742,1.626-0.742S317.037,302.784,317.425,303.272z M315.362,303.837c-0.129,0.105-0.235,0.315-0.32,0.629
			c-0.085,0.314-0.127,0.892-0.127,1.731s0.047,1.436,0.142,1.787c0.071,0.273,0.173,0.463,0.303,0.569
			c0.13,0.105,0.278,0.158,0.444,0.158s0.313-0.052,0.441-0.156c0.129-0.104,0.235-0.313,0.32-0.627
			c0.085-0.314,0.127-0.892,0.127-1.731s-0.047-1.438-0.142-1.792c-0.071-0.273-0.173-0.463-0.303-0.568
			c-0.13-0.106-0.278-0.159-0.444-0.159S315.49,303.73,315.362,303.837z"/>
	</g>
</g>
<g>
	<g>
		<path fill="none" stroke="#745AA6" stroke-width="0.0283" stroke-miterlimit="10" d="M338.488,325.352
			c-0.072-0.124-0.166-0.251-0.281-0.381s-0.391-0.394-0.822-0.791c-0.434-0.397-0.732-0.701-0.898-0.913
			c-0.252-0.319-0.434-0.624-0.549-0.916c-0.117-0.291-0.174-0.598-0.174-0.92c0-0.566,0.201-1.04,0.605-1.421
			c0.402-0.381,0.959-0.571,1.664-0.571c0.645,0,1.182,0.164,1.611,0.493s0.686,0.871,0.768,1.626l-1.367,0.137
			c-0.027-0.4-0.125-0.687-0.293-0.859c-0.17-0.173-0.398-0.259-0.684-0.259c-0.291,0-0.518,0.082-0.682,0.247
			c-0.164,0.164-0.246,0.399-0.246,0.705c0,0.276,0.094,0.557,0.283,0.84c0.139,0.205,0.52,0.596,1.137,1.172
			c0.77,0.713,1.283,1.285,1.543,1.717c0.262,0.431,0.418,0.888,0.469,1.369h-4.809v-1.274H338.488z"/>
		<path fill="none" stroke="#745AA6" stroke-width="0.0283" stroke-miterlimit="10" d="M331.325,319.438h1.113
			c0.156,0.437,0.444,0.818,0.864,1.145c0.42,0.328,0.809,0.55,1.167,0.667v1.245c-0.68-0.225-1.271-0.571-1.772-1.04v5.171h-1.372
			V319.438z"/>
	</g>
</g>
<g>
	<g>
		<path fill="none" stroke="#745AA6" stroke-width="0.0283" stroke-miterlimit="10" d="M321.771,325.352
			c-0.071-0.124-0.165-0.251-0.281-0.381c-0.115-0.13-0.39-0.394-0.822-0.791s-0.732-0.701-0.898-0.913
			c-0.251-0.319-0.434-0.624-0.549-0.916c-0.116-0.291-0.174-0.598-0.174-0.92c0-0.566,0.202-1.04,0.605-1.421
			s0.959-0.571,1.665-0.571c0.645,0,1.182,0.164,1.611,0.493s0.686,0.871,0.767,1.626l-1.367,0.137
			c-0.026-0.4-0.124-0.687-0.293-0.859s-0.397-0.259-0.684-0.259c-0.29,0-0.517,0.082-0.682,0.247
			c-0.164,0.164-0.246,0.399-0.246,0.705c0,0.276,0.095,0.557,0.283,0.84c0.14,0.205,0.52,0.596,1.138,1.172
			c0.769,0.713,1.282,1.285,1.543,1.717c0.261,0.431,0.417,0.888,0.469,1.369h-4.81v-1.274H321.771z"/>
		<path fill="none" stroke="#745AA6" stroke-width="0.0283" stroke-miterlimit="10" d="M316.209,325.352
			c-0.071-0.124-0.165-0.251-0.281-0.381c-0.115-0.13-0.39-0.394-0.822-0.791s-0.732-0.701-0.898-0.913
			c-0.251-0.319-0.434-0.624-0.549-0.916c-0.116-0.291-0.174-0.598-0.174-0.92c0-0.566,0.202-1.04,0.605-1.421
			s0.959-0.571,1.665-0.571c0.645,0,1.182,0.164,1.611,0.493s0.686,0.871,0.767,1.626l-1.367,0.137
			c-0.026-0.4-0.124-0.687-0.293-0.859s-0.397-0.259-0.684-0.259c-0.29,0-0.517,0.082-0.682,0.247
			c-0.164,0.164-0.246,0.399-0.246,0.705c0,0.276,0.095,0.557,0.283,0.84c0.14,0.205,0.52,0.596,1.138,1.172
			c0.769,0.713,1.282,1.285,1.543,1.717c0.261,0.431,0.417,0.888,0.469,1.369h-4.81v-1.274H316.209z"/>
	</g>
</g>
<g>
	<g>
		<path fill="none" stroke="#745AA6" stroke-width="0.0283" stroke-miterlimit="10" d="M339.086,342.666
			c-0.071-0.124-0.165-0.251-0.281-0.381c-0.115-0.13-0.39-0.394-0.822-0.791s-0.732-0.701-0.898-0.913
			c-0.251-0.319-0.434-0.624-0.549-0.916c-0.116-0.291-0.174-0.598-0.174-0.92c0-0.566,0.202-1.04,0.605-1.421
			s0.959-0.571,1.665-0.571c0.645,0,1.182,0.164,1.611,0.493s0.686,0.871,0.767,1.626l-1.367,0.137
			c-0.026-0.4-0.124-0.687-0.293-0.859s-0.397-0.259-0.684-0.259c-0.29,0-0.517,0.082-0.682,0.247
			c-0.164,0.164-0.246,0.399-0.246,0.705c0,0.276,0.095,0.557,0.283,0.84c0.14,0.205,0.52,0.596,1.138,1.172
			c0.769,0.713,1.282,1.285,1.543,1.717c0.261,0.431,0.417,0.888,0.469,1.369h-4.81v-1.274H339.086z"/>
		<path fill="none" stroke="#745AA6" stroke-width="0.0283" stroke-miterlimit="10" d="M334.74,343.503
			c-0.427,0.373-0.964,0.56-1.611,0.56c-0.684,0-1.255-0.222-1.714-0.664s-0.688-0.979-0.688-1.606c0-0.433,0.123-0.803,0.368-1.108
			c0.246-0.306,0.574-0.503,0.984-0.591c-0.687-0.374-1.03-0.876-1.03-1.504c0-0.442,0.168-0.84,0.503-1.191
			c0.407-0.43,0.947-0.645,1.621-0.645c0.394,0,0.75,0.074,1.066,0.223c0.318,0.147,0.565,0.352,0.742,0.609
			c0.178,0.26,0.311,0.605,0.398,1.038l-1.265,0.215c-0.036-0.312-0.137-0.55-0.303-0.713s-0.366-0.244-0.601-0.244
			c-0.237,0-0.428,0.071-0.571,0.215s-0.215,0.335-0.215,0.576c0,0.283,0.098,0.511,0.293,0.681c0.195,0.172,0.479,0.252,0.85,0.242
			l0.151,1.118c-0.244-0.068-0.454-0.103-0.63-0.103c-0.267,0-0.493,0.101-0.679,0.303s-0.278,0.476-0.278,0.82
			c0,0.364,0.097,0.654,0.29,0.869c0.194,0.215,0.433,0.322,0.716,0.322c0.264,0,0.488-0.09,0.674-0.269s0.3-0.438,0.342-0.776
			l1.328,0.161C335.414,342.644,335.167,343.131,334.74,343.503z"/>
	</g>
</g>
<g>
	<g>
		<path fill="none" stroke="#745AA6" stroke-width="0.0283" stroke-miterlimit="10" d="M321.907,342.727
			c-0.071-0.124-0.165-0.251-0.281-0.381c-0.115-0.13-0.39-0.394-0.822-0.791s-0.732-0.701-0.898-0.913
			c-0.251-0.319-0.434-0.624-0.549-0.916c-0.116-0.291-0.174-0.598-0.174-0.92c0-0.566,0.202-1.04,0.605-1.421
			s0.959-0.571,1.665-0.571c0.645,0,1.182,0.164,1.611,0.493s0.686,0.871,0.767,1.626l-1.367,0.137
			c-0.026-0.4-0.124-0.687-0.293-0.859s-0.397-0.259-0.684-0.259c-0.29,0-0.517,0.082-0.682,0.247
			c-0.164,0.164-0.246,0.399-0.246,0.705c0,0.276,0.095,0.557,0.283,0.84c0.14,0.205,0.52,0.596,1.138,1.172
			c0.769,0.713,1.282,1.285,1.543,1.717c0.261,0.431,0.417,0.888,0.469,1.369h-4.81v-1.274H321.907z"/>
		<path fill="none" stroke="#745AA6" stroke-width="0.0283" stroke-miterlimit="10" d="M314.236,344.001v-1.44h-0.889v-1.206h0.889
			v-4.541h1.152l3.105,4.546v1.201h-2.93v1.44H314.236z M317.21,341.354l-1.646-2.446v2.446H317.21z"/>
	</g>
</g>
<g>
	<g>
		<path fill="none" stroke="#745AA6" stroke-width="0.0283" stroke-miterlimit="10" d="M339.148,359.183
			c-0.07-0.124-0.164-0.251-0.281-0.381c-0.115-0.13-0.389-0.394-0.822-0.791c-0.432-0.397-0.732-0.701-0.898-0.913
			c-0.25-0.319-0.434-0.624-0.549-0.916c-0.115-0.291-0.174-0.598-0.174-0.92c0-0.566,0.203-1.04,0.605-1.421
			c0.404-0.381,0.959-0.571,1.666-0.571c0.645,0,1.182,0.164,1.611,0.493s0.686,0.871,0.766,1.626l-1.367,0.137
			c-0.025-0.4-0.123-0.687-0.293-0.859c-0.168-0.173-0.396-0.259-0.684-0.259c-0.289,0-0.516,0.082-0.682,0.247
			c-0.164,0.164-0.246,0.399-0.246,0.705c0,0.276,0.096,0.557,0.283,0.84c0.141,0.205,0.52,0.596,1.139,1.172
			c0.768,0.713,1.281,1.285,1.543,1.717c0.26,0.431,0.416,0.888,0.469,1.369h-4.811v-1.274H339.148z"/>
		<path fill="none" stroke="#745AA6" stroke-width="0.0283" stroke-miterlimit="10" d="M334.73,360.047
			c-0.418,0.354-0.955,0.532-1.617,0.532c-0.828,0-1.472-0.315-1.939-0.947c-0.342-0.462-0.512-0.988-0.512-1.577
			c0-0.706,0.211-1.281,0.635-1.724c0.422-0.442,0.939-0.664,1.547-0.664c0.319,0,0.632,0.076,0.938,0.229l-0.215-1.216h-2.588
			v-1.284h3.628l0.703,3.726l-1.113,0.161c-0.312-0.349-0.666-0.522-1.059-0.522c-0.315,0-0.572,0.11-0.77,0.329
			c-0.195,0.221-0.295,0.55-0.295,0.989c0,0.469,0.1,0.819,0.299,1.052c0.198,0.233,0.441,0.35,0.727,0.35
			c0.251,0,0.472-0.09,0.665-0.271c0.191-0.18,0.307-0.425,0.346-0.734l1.367,0.142C335.396,359.215,335.146,359.692,334.73,360.047
			z"/>
	</g>
</g>
<g>
	<g>
		<path fill="none" stroke="#745AA6" stroke-width="0.0283" stroke-miterlimit="10" d="M321.844,359.244
			c-0.071-0.124-0.165-0.251-0.281-0.381c-0.115-0.13-0.39-0.394-0.822-0.791s-0.732-0.701-0.898-0.913
			c-0.251-0.319-0.434-0.624-0.549-0.916c-0.116-0.291-0.174-0.598-0.174-0.92c0-0.566,0.202-1.04,0.605-1.421
			s0.959-0.571,1.665-0.571c0.645,0,1.182,0.164,1.611,0.493s0.686,0.871,0.767,1.626l-1.367,0.137
			c-0.026-0.4-0.124-0.687-0.293-0.859s-0.397-0.259-0.684-0.259c-0.29,0-0.517,0.082-0.682,0.247
			c-0.164,0.164-0.246,0.399-0.246,0.705c0,0.276,0.095,0.557,0.283,0.84c0.14,0.205,0.52,0.596,1.138,1.172
			c0.769,0.713,1.282,1.285,1.543,1.717c0.261,0.431,0.417,0.888,0.469,1.369h-4.81v-1.274H321.844z"/>
		<path fill="none" stroke="#745AA6" stroke-width="0.0283" stroke-miterlimit="10" d="M314.224,353.788
			c0.357-0.305,0.807-0.457,1.351-0.457c0.774,0,1.404,0.29,1.89,0.869s0.728,1.525,0.728,2.837c0,1.279-0.232,2.2-0.698,2.761
			c-0.466,0.562-1.06,0.843-1.782,0.843c-0.674,0-1.226-0.222-1.655-0.664s-0.645-1.03-0.645-1.763c0-0.69,0.204-1.253,0.613-1.689
			c0.408-0.437,0.898-0.654,1.472-0.654c0.508,0,0.933,0.202,1.274,0.605c-0.052-0.823-0.178-1.365-0.379-1.626
			c-0.199-0.261-0.444-0.391-0.734-0.391c-0.218,0-0.396,0.065-0.532,0.195s-0.222,0.332-0.254,0.605l-1.328-0.146
			C313.641,354.534,313.868,354.092,314.224,353.788z M316.38,357.19c-0.183-0.206-0.405-0.31-0.669-0.31
			c-0.273,0-0.501,0.108-0.684,0.325c-0.183,0.216-0.273,0.557-0.273,1.022c0,0.452,0.085,0.778,0.254,0.977
			s0.381,0.298,0.635,0.298c0.264,0,0.498-0.121,0.703-0.363c0.205-0.243,0.308-0.587,0.308-1.033
			C316.653,357.703,316.562,357.397,316.38,357.19z"/>
	</g>
</g>
<g>
	<g>
		<path fill="none" stroke="#745AA6" stroke-width="0.0283" stroke-miterlimit="10" d="M363.767,156.064
			c-0.427,0.373-0.964,0.56-1.611,0.56c-0.684,0-1.255-0.222-1.714-0.664s-0.688-0.979-0.688-1.606c0-0.433,0.123-0.803,0.368-1.108
			c0.246-0.306,0.574-0.503,0.984-0.591c-0.688-0.374-1.03-0.876-1.03-1.504c0-0.442,0.167-0.84,0.503-1.191
			c0.406-0.43,0.947-0.645,1.621-0.645c0.395,0,0.75,0.074,1.066,0.223c0.318,0.147,0.565,0.352,0.742,0.609
			c0.178,0.26,0.311,0.605,0.398,1.038l-1.265,0.215c-0.036-0.312-0.137-0.55-0.303-0.713s-0.366-0.244-0.601-0.244
			c-0.238,0-0.428,0.071-0.571,0.215s-0.215,0.335-0.215,0.576c0,0.283,0.098,0.511,0.293,0.681c0.195,0.172,0.479,0.252,0.85,0.242
			l0.151,1.118c-0.244-0.068-0.454-0.103-0.63-0.103c-0.267,0-0.493,0.101-0.679,0.303s-0.278,0.476-0.278,0.82
			c0,0.364,0.097,0.654,0.29,0.869c0.194,0.215,0.433,0.322,0.716,0.322c0.264,0,0.488-0.09,0.674-0.269s0.3-0.438,0.342-0.776
			l1.328,0.161C364.44,155.205,364.193,155.692,363.767,156.064z"/>
		<path fill="none" stroke="#745AA6" stroke-width="0.0283" stroke-miterlimit="10" d="M357.233,156.502v-1.372h1.372v1.372H357.233
			z"/>
		<path fill="none" stroke="#745AA6" stroke-width="0.0283" stroke-miterlimit="10" d="M355.427,156.064
			c-0.427,0.373-0.964,0.56-1.611,0.56c-0.684,0-1.255-0.222-1.714-0.664s-0.688-0.979-0.688-1.606c0-0.433,0.123-0.803,0.368-1.108
			c0.246-0.306,0.574-0.503,0.984-0.591c-0.688-0.374-1.03-0.876-1.03-1.504c0-0.442,0.167-0.84,0.503-1.191
			c0.406-0.43,0.947-0.645,1.621-0.645c0.395,0,0.75,0.074,1.066,0.223c0.318,0.147,0.565,0.352,0.742,0.609
			c0.178,0.26,0.311,0.605,0.398,1.038l-1.265,0.215c-0.036-0.312-0.137-0.55-0.303-0.713s-0.366-0.244-0.601-0.244
			c-0.238,0-0.428,0.071-0.571,0.215s-0.215,0.335-0.215,0.576c0,0.283,0.098,0.511,0.293,0.681c0.195,0.172,0.479,0.252,0.85,0.242
			l0.151,1.118c-0.244-0.068-0.454-0.103-0.63-0.103c-0.267,0-0.493,0.101-0.679,0.303s-0.278,0.476-0.278,0.82
			c0,0.364,0.097,0.654,0.29,0.869c0.194,0.215,0.433,0.322,0.716,0.322c0.264,0,0.488-0.09,0.674-0.269s0.3-0.438,0.342-0.776
			l1.328,0.161C356.101,155.205,355.854,155.692,355.427,156.064z"/>
		<path fill="none" stroke="#745AA6" stroke-width="0.0283" stroke-miterlimit="10" d="M347.604,156.502l-2.061-5.186h1.411
			l0.986,2.646c0.053,0.146,0.102,0.293,0.146,0.439c0.02,0.071,0.066,0.22,0.142,0.444l0.283-0.884l0.977-2.646h1.44l-2.09,5.186
			H347.604z"/>
	</g>
</g>
<g>
	<g>
		<path fill="none" stroke="#745AA6" stroke-width="0.0283" stroke-miterlimit="10" d="M364.035,292.145
			c-0.426,0.373-0.963,0.56-1.611,0.56c-0.684,0-1.255-0.222-1.714-0.664s-0.688-0.979-0.688-1.606c0-0.433,0.123-0.803,0.369-1.108
			c0.245-0.306,0.573-0.503,0.983-0.591c-0.687-0.374-1.03-0.876-1.03-1.504c0-0.442,0.168-0.84,0.503-1.191
			c0.407-0.43,0.947-0.645,1.621-0.645c0.394,0,0.749,0.074,1.067,0.223c0.316,0.147,0.564,0.352,0.742,0.609
			c0.177,0.26,0.31,0.605,0.397,1.038l-1.265,0.215c-0.035-0.312-0.137-0.55-0.303-0.713s-0.366-0.244-0.601-0.244
			c-0.237,0-0.429,0.071-0.571,0.215s-0.215,0.335-0.215,0.576c0,0.283,0.098,0.511,0.293,0.681c0.195,0.172,0.479,0.252,0.85,0.242
			l0.151,1.118c-0.244-0.068-0.454-0.103-0.63-0.103c-0.268,0-0.493,0.101-0.679,0.303s-0.278,0.476-0.278,0.82
			c0,0.364,0.097,0.654,0.291,0.869c0.193,0.215,0.432,0.322,0.715,0.322c0.264,0,0.488-0.09,0.674-0.269s0.299-0.438,0.342-0.776
			l1.328,0.161C364.709,291.285,364.461,291.772,364.035,292.145z"/>
		<path fill="none" stroke="#745AA6" stroke-width="0.0283" stroke-miterlimit="10" d="M357.502,292.582v-1.372h1.372v1.372H357.502
			z"/>
		<path fill="none" stroke="#745AA6" stroke-width="0.0283" stroke-miterlimit="10" d="M355.695,292.145
			c-0.426,0.373-0.963,0.56-1.611,0.56c-0.684,0-1.255-0.222-1.714-0.664s-0.688-0.979-0.688-1.606c0-0.433,0.123-0.803,0.369-1.108
			c0.245-0.306,0.573-0.503,0.983-0.591c-0.687-0.374-1.03-0.876-1.03-1.504c0-0.442,0.168-0.84,0.503-1.191
			c0.407-0.43,0.947-0.645,1.621-0.645c0.394,0,0.749,0.074,1.067,0.223c0.316,0.147,0.564,0.352,0.742,0.609
			c0.177,0.26,0.31,0.605,0.397,1.038l-1.265,0.215c-0.035-0.312-0.137-0.55-0.303-0.713s-0.366-0.244-0.601-0.244
			c-0.237,0-0.429,0.071-0.571,0.215s-0.215,0.335-0.215,0.576c0,0.283,0.098,0.511,0.293,0.681c0.195,0.172,0.479,0.252,0.85,0.242
			l0.151,1.118c-0.244-0.068-0.454-0.103-0.63-0.103c-0.268,0-0.493,0.101-0.679,0.303s-0.278,0.476-0.278,0.82
			c0,0.364,0.097,0.654,0.291,0.869c0.193,0.215,0.432,0.322,0.715,0.322c0.264,0,0.488-0.09,0.674-0.269s0.299-0.438,0.342-0.776
			l1.328,0.161C356.369,291.285,356.121,291.772,355.695,292.145z"/>
		<path fill="none" stroke="#745AA6" stroke-width="0.0283" stroke-miterlimit="10" d="M347.873,292.582l-2.061-5.186h1.411
			l0.986,2.646c0.052,0.146,0.101,0.293,0.146,0.439c0.02,0.071,0.067,0.22,0.142,0.444l0.283-0.884l0.977-2.646h1.44l-2.09,5.186
			H347.873z"/>
	</g>
</g>
<g>
	<g>
		<path fill="none" stroke="#745AA6" stroke-width="0.0283" stroke-miterlimit="10" d="M305.104,156.028
			c-0.416,0.354-0.955,0.532-1.616,0.532c-0.827,0-1.474-0.315-1.938-0.947c-0.342-0.462-0.513-0.988-0.513-1.577
			c0-0.706,0.212-1.281,0.635-1.724s0.938-0.664,1.548-0.664c0.318,0,0.631,0.076,0.938,0.229l-0.215-1.216h-2.588v-1.284h3.628
			l0.703,3.726l-1.113,0.161c-0.312-0.349-0.665-0.522-1.06-0.522c-0.316,0-0.572,0.11-0.77,0.329
			c-0.196,0.221-0.295,0.55-0.295,0.989c0,0.469,0.1,0.819,0.298,1.052c0.198,0.233,0.44,0.35,0.728,0.35
			c0.25,0,0.473-0.09,0.664-0.271c0.191-0.18,0.308-0.425,0.347-0.734l1.367,0.142C305.77,155.196,305.52,155.674,305.104,156.028z"
			/>
		<path fill="none" stroke="#745AA6" stroke-width="0.0283" stroke-miterlimit="10" d="M297.354,156.438l-2.061-5.186h1.411
			l0.986,2.646c0.053,0.146,0.102,0.293,0.146,0.439c0.02,0.071,0.066,0.22,0.142,0.444l0.283-0.884l0.977-2.646h1.44l-2.09,5.186
			H297.354z"/>
	</g>
</g>
<g>
	<g>
		<path fill="none" stroke="#745AA6" stroke-width="0.0283" stroke-miterlimit="10" d="M305.104,173.035
			c-0.416,0.354-0.955,0.532-1.616,0.532c-0.827,0-1.474-0.315-1.938-0.947c-0.342-0.462-0.513-0.988-0.513-1.577
			c0-0.706,0.212-1.281,0.635-1.724s0.938-0.664,1.548-0.664c0.318,0,0.631,0.076,0.938,0.229l-0.215-1.216h-2.588v-1.284h3.628
			l0.703,3.726l-1.113,0.161c-0.312-0.349-0.665-0.522-1.06-0.522c-0.316,0-0.572,0.11-0.77,0.329
			c-0.196,0.221-0.295,0.55-0.295,0.989c0,0.469,0.1,0.819,0.298,1.052c0.198,0.233,0.44,0.35,0.728,0.35
			c0.25,0,0.473-0.09,0.664-0.271c0.191-0.18,0.308-0.425,0.347-0.734l1.367,0.142C305.77,172.203,305.52,172.681,305.104,173.035z"
			/>
		<path fill="none" stroke="#745AA6" stroke-width="0.0283" stroke-miterlimit="10" d="M297.354,173.445l-2.061-5.186h1.411
			l0.986,2.646c0.053,0.146,0.102,0.293,0.146,0.439c0.02,0.071,0.066,0.22,0.142,0.444l0.283-0.884l0.977-2.646h1.44l-2.09,5.186
			H297.354z"/>
	</g>
</g>
<g>
	<g>
		<path fill="none" stroke="#745AA6" stroke-width="0.0283" stroke-miterlimit="10" d="M362.621,221.933v0.908
			c0.219,0.169,0.48,0.313,0.784,0.433c0.304,0.118,0.608,0.178,0.911,0.178c0.611,0,1.106-0.213,1.484-0.637
			c0.377-0.426,0.566-1.062,0.566-1.912c0-0.788-0.188-1.382-0.56-1.782s-0.875-0.601-1.507-0.601c-0.416,0-0.764,0.102-1.042,0.305
			c-0.278,0.204-0.468,0.481-0.569,0.833l-1.436-0.269c0.144-0.657,0.465-1.173,0.965-1.545c0.5-0.373,1.193-0.56,2.082-0.56
			c0.684,0,1.256,0.119,1.715,0.356c0.602,0.31,1.059,0.754,1.371,1.333s0.469,1.242,0.469,1.987c0,0.687-0.14,1.322-0.42,1.906
			c-0.279,0.585-0.697,1.034-1.254,1.348c-0.557,0.314-1.21,0.472-1.959,0.472c-0.589,0-1.17-0.111-1.745-0.335
			c-0.575-0.223-1.013-0.48-1.315-0.773v-2.852h3.115v1.206H362.621z"/>
		<path fill="none" stroke="#745AA6" stroke-width="0.0283" stroke-miterlimit="10" d="M358.471,224.564v-4.668l-2.885,4.668h-1.451
			v-7.158h1.344v4.78l2.93-4.78h1.406v7.158H358.471z"/>
		<path fill="none" stroke="#745AA6" stroke-width="0.0283" stroke-miterlimit="10" d="M352.611,224.564h-2.719
			c-0.534,0-0.961-0.051-1.279-0.151c-0.427-0.137-0.766-0.327-1.016-0.571c-0.332-0.322-0.588-0.744-0.768-1.265
			c-0.146-0.427-0.219-0.935-0.219-1.523c0-0.671,0.078-1.234,0.234-1.692c0.156-0.457,0.384-0.844,0.684-1.159
			c0.299-0.315,0.658-0.535,1.078-0.659c0.312-0.091,0.768-0.137,1.363-0.137h2.641V224.564z M350.518,218.617
			c-0.59,0-0.985,0.022-1.188,0.068c-0.27,0.059-0.492,0.171-0.668,0.337s-0.312,0.397-0.41,0.693s-0.146,0.721-0.146,1.274
			s0.049,0.99,0.146,1.311c0.098,0.321,0.223,0.552,0.378,0.691s0.349,0.239,0.583,0.298c0.18,0.046,0.471,0.068,0.875,0.068h1.078
			v-4.741H350.518z"/>
	</g>
</g>
<g>
	<g>
		<path fill="none" stroke="#745AA6" stroke-width="0.0283" stroke-miterlimit="10" d="M301.308,187.684v0.908
			c0.218,0.169,0.479,0.313,0.783,0.433c0.305,0.118,0.607,0.178,0.91,0.178c0.612,0,1.107-0.213,1.484-0.637
			c0.378-0.426,0.566-1.062,0.566-1.912c0-0.788-0.186-1.382-0.559-1.782s-0.875-0.601-1.506-0.601
			c-0.417,0-0.765,0.102-1.043,0.305c-0.278,0.204-0.468,0.481-0.568,0.833l-1.436-0.269c0.143-0.657,0.465-1.173,0.964-1.545
			c0.499-0.373,1.194-0.56,2.083-0.56c0.684,0,1.254,0.119,1.713,0.356c0.603,0.31,1.061,0.754,1.373,1.333s0.469,1.242,0.469,1.987
			c0,0.687-0.141,1.322-0.42,1.906c-0.28,0.585-0.699,1.034-1.256,1.348c-0.557,0.314-1.209,0.472-1.957,0.472
			c-0.59,0-1.172-0.111-1.746-0.335c-0.574-0.223-1.014-0.48-1.316-0.773v-2.852h3.115v1.206H301.308z"/>
		<path fill="none" stroke="#745AA6" stroke-width="0.0283" stroke-miterlimit="10" d="M297.157,190.315v-4.668l-2.887,4.668h-1.449
			v-7.158h1.342v4.78l2.93-4.78h1.406v7.158H297.157z"/>
		<path fill="none" stroke="#745AA6" stroke-width="0.0283" stroke-miterlimit="10" d="M291.298,190.315h-2.721
			c-0.533,0-0.96-0.051-1.279-0.151c-0.426-0.137-0.765-0.327-1.016-0.571c-0.332-0.322-0.587-0.744-0.766-1.265
			c-0.146-0.427-0.221-0.935-0.221-1.523c0-0.671,0.078-1.234,0.234-1.692c0.156-0.457,0.385-0.844,0.684-1.159
			c0.3-0.315,0.66-0.535,1.08-0.659c0.312-0.091,0.766-0.137,1.361-0.137h2.643V190.315z M289.202,184.368
			c-0.589,0-0.984,0.022-1.186,0.068c-0.271,0.059-0.494,0.171-0.67,0.337s-0.312,0.397-0.41,0.693s-0.146,0.721-0.146,1.274
			s0.049,0.99,0.146,1.311c0.098,0.321,0.225,0.552,0.379,0.691s0.35,0.239,0.584,0.298c0.179,0.046,0.47,0.068,0.873,0.068h1.08
			v-4.741H289.202z"/>
	</g>
</g>
<g>
	<g>
		<path fill="none" stroke="#745AA6" stroke-width="0.0283" stroke-miterlimit="10" d="M301.308,255.717v0.908
			c0.218,0.169,0.479,0.313,0.783,0.433c0.305,0.118,0.607,0.178,0.91,0.178c0.612,0,1.107-0.213,1.484-0.637
			c0.378-0.426,0.566-1.062,0.566-1.912c0-0.788-0.186-1.382-0.559-1.782s-0.875-0.601-1.506-0.601
			c-0.417,0-0.765,0.102-1.043,0.305c-0.278,0.204-0.468,0.481-0.568,0.833l-1.436-0.269c0.143-0.657,0.465-1.173,0.964-1.545
			c0.499-0.373,1.194-0.56,2.083-0.56c0.684,0,1.254,0.119,1.713,0.356c0.603,0.31,1.061,0.754,1.373,1.333s0.469,1.242,0.469,1.987
			c0,0.687-0.141,1.322-0.42,1.906c-0.28,0.585-0.699,1.034-1.256,1.348c-0.557,0.314-1.209,0.472-1.957,0.472
			c-0.59,0-1.172-0.111-1.746-0.335c-0.574-0.223-1.014-0.48-1.316-0.773v-2.852h3.115v1.206H301.308z"/>
		<path fill="none" stroke="#745AA6" stroke-width="0.0283" stroke-miterlimit="10" d="M297.157,258.349v-4.668l-2.887,4.668h-1.449
			v-7.158h1.342v4.78l2.93-4.78h1.406v7.158H297.157z"/>
		<path fill="none" stroke="#745AA6" stroke-width="0.0283" stroke-miterlimit="10" d="M291.298,258.349h-2.721
			c-0.533,0-0.96-0.051-1.279-0.151c-0.426-0.137-0.765-0.327-1.016-0.571c-0.332-0.322-0.587-0.744-0.766-1.265
			c-0.146-0.427-0.221-0.935-0.221-1.523c0-0.671,0.078-1.234,0.234-1.692c0.156-0.457,0.385-0.844,0.684-1.159
			c0.3-0.315,0.66-0.535,1.08-0.659c0.312-0.091,0.766-0.137,1.361-0.137h2.643V258.349z M289.202,252.401
			c-0.589,0-0.984,0.022-1.186,0.068c-0.271,0.059-0.494,0.171-0.67,0.337s-0.312,0.397-0.41,0.693s-0.146,0.721-0.146,1.274
			s0.049,0.99,0.146,1.311c0.098,0.321,0.225,0.552,0.379,0.691s0.35,0.239,0.584,0.298c0.179,0.046,0.47,0.068,0.873,0.068h1.08
			v-4.741H289.202z"/>
	</g>
</g>
<g>
	<g>
		<path fill="none" stroke="#745AA6" stroke-width="0.0283" stroke-miterlimit="10" d="M301.308,306.74v0.908
			c0.218,0.169,0.479,0.313,0.783,0.433c0.305,0.118,0.607,0.178,0.91,0.178c0.612,0,1.107-0.213,1.484-0.637
			c0.378-0.426,0.566-1.062,0.566-1.912c0-0.788-0.186-1.382-0.559-1.782s-0.875-0.601-1.506-0.601
			c-0.417,0-0.765,0.102-1.043,0.305c-0.278,0.204-0.468,0.481-0.568,0.833l-1.436-0.269c0.143-0.657,0.465-1.173,0.964-1.545
			c0.499-0.373,1.194-0.56,2.083-0.56c0.684,0,1.254,0.119,1.713,0.356c0.603,0.31,1.061,0.754,1.373,1.333s0.469,1.242,0.469,1.987
			c0,0.687-0.141,1.322-0.42,1.906c-0.28,0.585-0.699,1.034-1.256,1.348c-0.557,0.314-1.209,0.472-1.957,0.472
			c-0.59,0-1.172-0.111-1.746-0.335c-0.574-0.223-1.014-0.48-1.316-0.773v-2.852h3.115v1.206H301.308z"/>
		<path fill="none" stroke="#745AA6" stroke-width="0.0283" stroke-miterlimit="10" d="M297.157,309.372v-4.668l-2.887,4.668h-1.449
			v-7.158h1.342v4.78l2.93-4.78h1.406v7.158H297.157z"/>
		<path fill="none" stroke="#745AA6" stroke-width="0.0283" stroke-miterlimit="10" d="M291.298,309.372h-2.721
			c-0.533,0-0.96-0.051-1.279-0.151c-0.426-0.137-0.765-0.327-1.016-0.571c-0.332-0.322-0.587-0.744-0.766-1.265
			c-0.146-0.427-0.221-0.935-0.221-1.523c0-0.671,0.078-1.234,0.234-1.692c0.156-0.457,0.385-0.844,0.684-1.159
			c0.3-0.315,0.66-0.535,1.08-0.659c0.312-0.091,0.766-0.137,1.361-0.137h2.643V309.372z M289.202,303.425
			c-0.589,0-0.984,0.022-1.186,0.068c-0.271,0.059-0.494,0.171-0.67,0.337s-0.312,0.397-0.41,0.693s-0.146,0.721-0.146,1.274
			s0.049,0.99,0.146,1.311c0.098,0.321,0.225,0.552,0.379,0.691s0.35,0.239,0.584,0.298c0.179,0.046,0.47,0.068,0.873,0.068h1.08
			v-4.741H289.202z"/>
	</g>
</g>
<g>
	<g>
		<path fill="none" stroke="#745AA6" stroke-width="0.0283" stroke-miterlimit="10" d="M362.621,357.996v0.908
			c0.219,0.169,0.48,0.313,0.784,0.433c0.304,0.118,0.608,0.178,0.911,0.178c0.611,0,1.106-0.213,1.484-0.637
			c0.377-0.426,0.566-1.062,0.566-1.912c0-0.788-0.188-1.382-0.56-1.782s-0.875-0.601-1.507-0.601c-0.416,0-0.764,0.102-1.042,0.305
			c-0.278,0.204-0.468,0.481-0.569,0.833l-1.436-0.269c0.144-0.657,0.465-1.173,0.965-1.545c0.5-0.373,1.193-0.56,2.082-0.56
			c0.684,0,1.256,0.119,1.715,0.356c0.602,0.31,1.059,0.754,1.371,1.333s0.469,1.242,0.469,1.987c0,0.687-0.14,1.322-0.42,1.906
			c-0.279,0.585-0.697,1.034-1.254,1.348c-0.557,0.314-1.21,0.472-1.959,0.472c-0.589,0-1.17-0.111-1.745-0.335
			c-0.575-0.223-1.013-0.48-1.315-0.773v-2.852h3.115v1.206H362.621z"/>
		<path fill="none" stroke="#745AA6" stroke-width="0.0283" stroke-miterlimit="10" d="M358.471,360.628v-4.668l-2.885,4.668h-1.451
			v-7.158h1.344v4.78l2.93-4.78h1.406v7.158H358.471z"/>
		<path fill="none" stroke="#745AA6" stroke-width="0.0283" stroke-miterlimit="10" d="M352.611,360.628h-2.719
			c-0.534,0-0.961-0.051-1.279-0.151c-0.427-0.137-0.766-0.327-1.016-0.571c-0.332-0.322-0.588-0.744-0.768-1.265
			c-0.146-0.427-0.219-0.935-0.219-1.523c0-0.671,0.078-1.234,0.234-1.692c0.156-0.457,0.384-0.844,0.684-1.159
			c0.299-0.315,0.658-0.535,1.078-0.659c0.312-0.091,0.768-0.137,1.363-0.137h2.641V360.628z M350.518,354.681
			c-0.59,0-0.985,0.022-1.188,0.068c-0.27,0.059-0.492,0.171-0.668,0.337s-0.312,0.397-0.41,0.693s-0.146,0.721-0.146,1.274
			s0.049,0.99,0.146,1.311c0.098,0.321,0.223,0.552,0.378,0.691s0.349,0.239,0.583,0.298c0.18,0.046,0.471,0.068,0.875,0.068h1.078
			v-4.741H350.518z"/>
	</g>
</g>
<polyline fill="none" stroke="#F58220" stroke-width="0.216" stroke-miterlimit="2.6131" points="347.99,365.616 371.803,365.62 
	382.468,245.313 "/>
<circle fill="none" stroke="#F58220" stroke-width="0.216" stroke-miterlimit="2.6131" cx="282.382" cy="333.019" r="2.126"/>
<circle fill="none" stroke="#F58220" stroke-width="0.216" stroke-miterlimit="2.6131" cx="205.202" cy="375.54" r="2.126"/>
<circle fill="none" stroke="#F58220" stroke-width="0.216" stroke-miterlimit="2.6131" cx="142.839" cy="375.54" r="2.126"/>
<circle fill="none" stroke="#F58220" stroke-width="0.216" stroke-miterlimit="2.6131" cx="267.564" cy="375.54" r="2.126"/>
<circle fill="none" stroke="#F58220" stroke-width="0.216" stroke-miterlimit="2.6131" cx="282.382" cy="283.409" r="2.126"/>
<circle fill="none" stroke="#F58220" stroke-width="0.216" stroke-miterlimit="2.6131" cx="282.382" cy="226.719" r="2.126"/>
<circle fill="none" stroke="#F58220" stroke-width="0.216" stroke-miterlimit="2.6131" cx="282.382" cy="177.109" r="2.126"/>
</svg>
